<?xml version="1.0" encoding="UTF-8" standalone="no"?>
<!-- Created with Inkscape (http://www.inkscape.org/) -->
<svg
   xmlns:a="http://ns.adobe.com/AdobeSVGViewerExtensions/3.0/"
   xmlns:xml="http://www.w3.org/XML/1998/namespace"
   xmlns:dc="http://purl.org/dc/elements/1.1/"
   xmlns:cc="http://web.resource.org/cc/"
   xmlns:rdf="http://www.w3.org/1999/02/22-rdf-syntax-ns#"
   xmlns:svg="http://www.w3.org/2000/svg"
   xmlns="http://www.w3.org/2000/svg"
   xmlns:xlink="http://www.w3.org/1999/xlink"
   xmlns:sodipodi="http://inkscape.sourceforge.net/DTD/sodipodi-0.dtd"
   xmlns:inkscape="http://www.inkscape.org/namespaces/inkscape"
   xml:space="preserve"
   id="svg1"
   viewBox="0 0 125.957 125.956"
   height="48.000000pt"
   width="48.000000pt"
   y="0.0000000"
   x="0.0000000"
   version="1.0"
   sodipodi:version="0.32"
   inkscape:version="0.41"
   sodipodi:docname="crsc-action-back.svgz"
   sodipodi:docbase="/home/danny/work/kde/crystal/arrows/SVGZ"
   inkscape:export-filename="/home/diau/graphics/kde/icons/arrows/cr22-action-back.png"
   inkscape:export-xdpi="15.719650"
   inkscape:export-ydpi="15.719650"><metadata
   id="metadata47">
  <rdf:RDF
   id="RDF49">
    <cc:Work
   rdf:about=""
   id="Work51">
      <dc:format
   id="format53">image/svg+xml</dc:format>

      <dc:type
   id="type55"
   rdf:resource="http://purl.org/dc/dcmitype/StillImage" />

    </cc:Work>

  </rdf:RDF>

</metadata>

<sodipodi:namedview
   inkscape:current-layer="svg1"
   inkscape:window-y="0"
   inkscape:window-x="0"
   id="base"
   pagecolor="#ffffff"
   bordercolor="#666666"
   borderopacity="1.0"
   inkscape:pageopacity="0.0"
   inkscape:pageshadow="2"
   inkscape:window-width="1020"
   inkscape:window-height="691"
   inkscape:cy="417.84947"
   inkscape:cx="305.25953"
   inkscape:zoom="0.43415836" />

<defs
   id="defs106">
  <linearGradient
   id="linearGradient1865">
    <stop
   id="stop2120"
   offset="0.0000000"
   style="stop-color:#418bde;stop-opacity:1.0000000;" />




    <stop
   id="stop1866"
   offset="1.0000000"
   style="stop-color:#001b7b;stop-opacity:1.0000000;" />




  </linearGradient>



  <linearGradient
   id="linearGradient1862">
    <stop
   id="stop1864"
   offset="0.0000000"
   style="stop-color:#a4cdec;stop-opacity:1.0000000;" />




    <stop
   id="stop1863"
   offset="1.0000000"
   style="stop-color:#0068c6;stop-opacity:1.0000000;" />




  </linearGradient>



  <linearGradient
   gradientUnits="userSpaceOnUse"
   id="XMLID_3_"
   y2="87.998100"
   x2="63.957001"
   y1="-17.000000"
   x1="63.957001">
			<stop
   id="stop49"
   offset="0.0000000"
   style="stop-color:#ffffff;stop-opacity:1.0000000;" />







			<stop
   id="stop51"
   offset="1.0000000"
   style="stop-color:#ffffff;stop-opacity:0.0000000;" />







		</linearGradient>



  <linearGradient
   gradientUnits="userSpaceOnUse"
   id="XMLID_4_"
   y2="73.889198"
   x2="73.836899"
   y1="10.392100"
   x1="10.339800">
			<stop
   id="stop58"
   offset="0.0000000"
   style="stop-color:#ffffff;stop-opacity:1.0000000;" />







			<stop
   id="stop60"
   offset="1.0000000"
   style="stop-color:#ffffff;stop-opacity:0.0000000;" />







		</linearGradient>



  <linearGradient
   gradientUnits="userSpaceOnUse"
   id="XMLID_5_"
   y2="65.001404"
   x2="62.997101"
   y1="168.50290"
   x1="62.997101">
			<stop
   id="stop67"
   offset="0.0000000"
   style="stop-color:#ffffff;stop-opacity:1.0000000;" />







			<stop
   id="stop69"
   offset="1.0000000"
   style="stop-color:#ffffff;stop-opacity:0.0000000;" />







		</linearGradient>



  <linearGradient
   gradientTransform="matrix(0.999900,-1.010000e-2,1.010000e-2,0.999900,-1.144400,0.354300)"
   gradientUnits="userSpaceOnUse"
   id="XMLID_7_"
   y2="164.30850"
   x2="33.114700"
   y1="-141.01460"
   x1="33.114700">
			<stop
   id="stop96"
   offset="0.0000000"
   style="stop-color:#ffffff;stop-opacity:1.0000000;" />







			<stop
   id="stop98"
   offset="1.0000000"
   style="stop-color:#ffffff;stop-opacity:0.0000000;" />







		</linearGradient>



  <linearGradient
   gradientTransform="matrix(-1.000000,0.000000,0.000000,1.000000,122.4541,0.000000)"
   gradientUnits="userSpaceOnUse"
   id="XMLID_6_"
   y2="141.41890"
   x2="61.226601"
   y1="51.561001"
   x1="61.226601">
				<stop
   id="stop78"
   offset="0.0000000"
   style="stop-color:#000072;stop-opacity:1.0000000;" />







				<stop
   id="stop80"
   offset="1.0000000"
   style="stop-color:#3995e5;stop-opacity:1.0000000;" />







				<a:midPointStop
   offset="0"
   style="stop-color:#000072"
   id="midPointStop82" />







				<a:midPointStop
   offset="0.5"
   style="stop-color:#000072"
   id="midPointStop84" />







				<a:midPointStop
   offset="1"
   style="stop-color:#3995E5"
   id="midPointStop86" />







			</linearGradient>



  <linearGradient
   gradientUnits="userSpaceOnUse"
   xlink:href="#linearGradient1862"
   id="linearGradient1344"
   y2="61.896500"
   x2="62.977501"
   y1="182.56740"
   x1="62.977501" />



  <linearGradient
   gradientUnits="userSpaceOnUse"
   xlink:href="#XMLID_3_"
   id="linearGradient1346"
   y2="77.436874"
   x2="65.109993"
   y1="13.567519"
   x1="65.109993" />



  <linearGradient
   gradientUnits="userSpaceOnUse"
   xlink:href="#XMLID_4_"
   id="linearGradient1348"
   y2="73.889198"
   x2="73.836899"
   y1="25.929346"
   x1="26.564838" />



  <linearGradient
   gradientUnits="userSpaceOnUse"
   xlink:href="#XMLID_5_"
   id="linearGradient1350"
   y2="65.001404"
   x2="62.997101"
   y1="168.50290"
   x1="62.997101" />



  <linearGradient
   gradientTransform="matrix(-1.000000,0.000000,0.000000,1.000000,122.4541,8.353777e-17)"
   gradientUnits="userSpaceOnUse"
   xlink:href="#XMLID_6_"
   id="linearGradient1352"
   y2="141.41890"
   x2="61.226601"
   y1="51.561001"
   x1="61.226601" />



  <linearGradient
   gradientTransform="matrix(0.999949,-1.010049e-2,1.010049e-2,0.999949,9.781176e-17,8.353775e-17)"
   gradientUnits="userSpaceOnUse"
   xlink:href="#XMLID_7_"
   id="linearGradient1354"
   y2="60.985329"
   x2="53.820477"
   y1="21.613750"
   x1="31.052742" />



  <linearGradient
   gradientUnits="userSpaceOnUse"
   xlink:href="#linearGradient1865"
   id="linearGradient2118"
   y2="25.958462"
   x2="54.390072"
   y1="177.88280"
   x1="54.390072" />



<linearGradient
   gradientTransform="scale(1.000004,0.999996)"
   gradientUnits="userSpaceOnUse"
   xlink:href="#linearGradient1865"
   id="linearGradient2089"
   y2="41.343369"
   x2="55.344120"
   y1="154.80630"
   x1="55.344120" />


<linearGradient
   gradientTransform="scale(1.000004,0.999996)"
   gradientUnits="userSpaceOnUse"
   xlink:href="#linearGradient1865"
   id="linearGradient2092"
   y2="41.343369"
   x2="55.344120"
   y1="154.80630"
   x1="55.344120" />


</defs>















	





















<g
   id="g1332"
   transform="matrix(0.999948,0.000000,0.000000,0.999948,3.274998e-3,3.274914e-3)">
  <path
   id="path18"
   style="fill:url(#linearGradient2092);fill-opacity:1.0000000"
   d="M 125.95700,62.340000 C 126.30900,97.122000 98.396000,125.60400 63.615000,125.95600 C 28.833000,126.30800 0.35200000,98.396000 0.0000000,63.614000 C -0.35200000,28.833000 27.559000,0.35200000 62.340000,0.0000000 C 97.123000,-0.35200000 125.60400,27.559000 125.95700,62.340000 z " />



  <path
   id="path45"
   style="fill:url(#linearGradient1344);fill-opacity:1.0000000"
   d="M 119.28700,62.407000 C 119.60100,93.507000 94.646000,118.97200 63.547000,119.28700 C 32.449000,119.60100 6.9830000,94.646000 6.6680000,63.547000 C 6.3540000,32.449000 31.310000,6.9820000 62.408000,6.6680000 C 93.508000,6.3540000 118.97300,31.310000 119.28700,62.407000 z " />



  <path
   id="path54"
   style="fill:url(#linearGradient1346);fill-opacity:1.0000000"
   d="M 63.455000,11.256000 C 36.048000,11.533000 14.054000,33.977000 14.331000,61.383000 C 14.346000,62.894000 14.440000,64.385000 14.588000,65.860000 C 28.290000,71.580000 44.702000,74.831000 62.319000,74.653000 C 81.548000,74.459000 99.263000,70.210000 113.52500,63.191000 C 113.56800,62.260000 113.58900,61.323000 113.58200,60.379000 C 113.30500,32.973000 90.863000,10.979000 63.455000,11.256000 z " />



  <path
   id="path63"
   style="fill:url(#linearGradient1348);fill-opacity:1.0000000"
   d="M 64.967000,16.641000 C 89.699000,16.391000 110.52200,33.655000 115.66200,56.878000 C 112.60900,30.233000 89.850000,9.6680000 62.441000,9.9450000 C 33.152000,10.241000 9.6490000,34.226000 9.9450000,63.514000 C 10.095000,78.342000 16.322000,91.678000 26.228000,101.20200 C 18.767000,92.381000 14.219000,81.008000 14.093000,68.554000 C 13.806000,40.170000 36.583000,16.928000 64.967000,16.641000 z " />



  <path
   id="path72"
   style="opacity:0.49999997;fill:url(#linearGradient1350)"
   d="M 63.441000,110.72200 C 36.996000,110.99000 15.177000,90.542000 13.387000,64.495000 C 13.340000,65.472000 13.312000,66.453000 13.323000,67.443000 C 13.600000,94.880000 36.066000,116.89400 63.500000,116.61600 C 90.936000,116.33900 112.94900,93.875000 112.67200,66.438000 C 112.66200,65.449000 112.61500,64.467000 112.54700,63.492000 C 111.28500,89.570000 89.885000,110.45400 63.441000,110.72200 z " />



  <path
   id="path89"
   style="opacity:0.20000000;fill:url(#linearGradient1352)"
   d="M 89.263000,73.470000 C 89.263000,73.470000 68.209000,73.257000 51.550000,73.088000 C 58.534000,80.216000 65.538000,87.363000 65.538000,87.363000 C 67.020000,88.876000 67.749000,90.848000 67.729000,92.810000 C 67.709000,94.773000 66.940000,96.729000 65.428000,98.210000 C 62.402000,101.17500 57.543000,101.12600 54.580000,98.101000 L 27.630000,70.599000 C 27.468000,70.433000 27.314000,70.256000 27.167000,70.078000 C 27.120000,70.019000 27.077000,69.961000 27.030000,69.901000 C 26.932000,69.775000 26.841000,69.643000 26.749000,69.511000 C 26.706000,69.446000 26.661000,69.379000 26.618000,69.314000 C 26.507000,69.134000 26.401000,68.955000 26.304000,68.767000 C 26.271000,68.705000 26.242000,68.638000 26.212000,68.576000 C 26.144000,68.436000 26.079000,68.296000 26.021000,68.153000 C 25.986000,68.067000 25.955000,67.982000 25.921000,67.895000 C 25.872000,67.764000 25.831000,67.634000 25.788000,67.502000 C 25.765000,67.422000 25.737000,67.342000 25.716000,67.259000 C 25.657000,67.057000 25.609000,66.848000 25.571000,66.640000 C 25.561000,66.601000 25.557000,66.555000 25.550000,66.511000 C 25.519000,66.333000 25.497000,66.156000 25.478000,65.975000 C 25.472000,65.905000 25.466000,65.836000 25.462000,65.765000 C 25.452000,65.603000 25.444000,65.440000 25.444000,65.276000 C 25.442000,65.214000 25.440000,65.151000 25.442000,65.090000 C 25.446000,64.865000 25.458000,64.643000 25.479000,64.420000 C 25.479000,64.416000 25.481000,64.411000 25.481000,64.411000 C 25.504000,64.193000 25.542000,63.980000 25.581000,63.768000 C 25.597000,63.695000 25.612000,63.619000 25.630000,63.542000 C 25.663000,63.403000 25.696000,63.261000 25.737000,63.124000 C 25.760000,63.036000 25.786000,62.948000 25.815000,62.864000 C 25.858000,62.729000 25.905000,62.596000 25.958000,62.466000 C 25.989000,62.387000 26.017000,62.307000 26.050000,62.227000 C 26.050000,62.224000 26.050000,62.224000 26.052000,62.222000 C 26.134000,62.031000 26.224000,61.846000 26.318000,61.665000 C 26.359000,61.585000 26.406000,61.507000 26.453000,61.431000 C 26.521000,61.306000 26.596000,61.184000 26.672000,61.066000 C 26.721000,60.994000 26.766000,60.920000 26.817000,60.850000 C 26.922000,60.701000 27.030000,60.556000 27.143000,60.415000 C 27.172000,60.380000 27.198000,60.343000 27.225000,60.308000 C 27.377000,60.130000 27.534000,59.960000 27.698000,59.798000 C 27.714000,59.782000 27.725000,59.767000 27.741000,59.749000 L 55.241000,32.801000 C 58.268000,29.834000 63.125000,29.884000 66.090000,32.911000 C 69.056000,35.936000 69.006000,40.792000 65.981000,43.757000 L 51.707000,57.747000 L 89.421000,58.128000 C 93.657000,58.171000 97.058000,61.641000 97.015000,65.876000 C 96.972000,70.111000 93.499000,73.513000 89.263000,73.470000 z " />



  <path
   id="path91"
   style="fill:#ffffff;fill-opacity:1.0000000"
   d="M 89.263000,71.470000 C 89.263000,71.470000 68.209000,71.257000 51.550000,71.088000 C 58.534000,78.216000 65.538000,85.363000 65.538000,85.363000 C 67.020000,86.876000 67.749000,88.848000 67.729000,90.810000 C 67.709000,92.773000 66.940000,94.729000 65.428000,96.210000 C 62.402000,99.175000 57.543000,99.126000 54.580000,96.101000 L 27.630000,68.599000 C 27.468000,68.433000 27.314000,68.256000 27.167000,68.078000 C 27.120000,68.019000 27.077000,67.961000 27.030000,67.901000 C 26.932000,67.775000 26.841000,67.643000 26.749000,67.511000 C 26.706000,67.446000 26.661000,67.379000 26.618000,67.314000 C 26.507000,67.134000 26.401000,66.955000 26.304000,66.767000 C 26.271000,66.705000 26.242000,66.638000 26.212000,66.576000 C 26.144000,66.436000 26.079000,66.296000 26.021000,66.153000 C 25.986000,66.067000 25.955000,65.982000 25.921000,65.895000 C 25.872000,65.764000 25.831000,65.634000 25.788000,65.502000 C 25.765000,65.422000 25.737000,65.342000 25.716000,65.259000 C 25.657000,65.057000 25.609000,64.848000 25.571000,64.640000 C 25.561000,64.601000 25.557000,64.555000 25.550000,64.511000 C 25.519000,64.333000 25.497000,64.156000 25.478000,63.975000 C 25.472000,63.905000 25.466000,63.836000 25.462000,63.765000 C 25.452000,63.603000 25.444000,63.440000 25.444000,63.276000 C 25.442000,63.214000 25.440000,63.151000 25.442000,63.090000 C 25.446000,62.865000 25.458000,62.643000 25.479000,62.420000 C 25.479000,62.416000 25.481000,62.411000 25.481000,62.411000 C 25.504000,62.193000 25.542000,61.980000 25.581000,61.768000 C 25.597000,61.695000 25.612000,61.619000 25.630000,61.542000 C 25.663000,61.403000 25.696000,61.261000 25.737000,61.124000 C 25.760000,61.036000 25.786000,60.948000 25.815000,60.864000 C 25.858000,60.729000 25.905000,60.596000 25.958000,60.466000 C 25.989000,60.387000 26.017000,60.307000 26.050000,60.227000 C 26.050000,60.224000 26.050000,60.224000 26.052000,60.222000 C 26.134000,60.031000 26.224000,59.846000 26.318000,59.665000 C 26.359000,59.585000 26.406000,59.507000 26.453000,59.431000 C 26.521000,59.306000 26.596000,59.184000 26.672000,59.066000 C 26.721000,58.994000 26.766000,58.920000 26.817000,58.850000 C 26.922000,58.701000 27.030000,58.556000 27.143000,58.415000 C 27.172000,58.380000 27.198000,58.343000 27.225000,58.308000 C 27.377000,58.130000 27.534000,57.960000 27.698000,57.798000 C 27.714000,57.782000 27.725000,57.767000 27.741000,57.749000 L 55.241000,30.801000 C 58.268000,27.834000 63.125000,27.884000 66.090000,30.911000 C 69.056000,33.936000 69.006000,38.792000 65.981000,41.757000 L 51.707000,55.747000 L 89.421000,56.128000 C 93.657000,56.171000 97.058000,59.641000 97.015000,63.876000 C 96.972000,68.111000 93.499000,71.513000 89.263000,71.470000 z " />



  <path
   id="path101"
   style="opacity:0.60000002;fill:url(#linearGradient1354);fill-opacity:1.0000000"
   d="M 52.923000,30.040000 C 47.866000,25.930000 42.025000,22.906000 35.685000,21.299000 C 24.433000,29.069000 15.860000,41.424000 11.882000,56.118000 C 17.622000,53.271000 23.986000,51.645000 30.705000,51.577000 C 32.408000,51.560000 34.087000,51.652000 35.743000,51.834000 C 39.881000,43.082000 45.788000,35.604000 52.923000,30.040000 z " />



</g>









</svg>
