<?xml version="1.0"?>
<!DOCTYPE svg PUBLIC "-//W3C//DTD SVG 1.0//EN"
	"http://www.w3.org/TR/2001/REC-SVG-20010904/DTD/svg10.dtd">
<!-- Generator: Adobe Illustrator 10.0, SVG Export Plug-In . SVG Version: 3.0.0 Build 76)  -->
<svg xmlns:x="http://ns.adobe.com/Extensibility/1.0/"
	xmlns:i="http://ns.adobe.com/AdobeIllustrator/10.0/" xmlns:graph=""
	xmlns="http://www.w3.org/2000/svg" xmlns:xlink="http://www.w3.org/1999/xlink"
	xmlns:a="http://ns.adobe.com/AdobeSVGViewerExtensions/3.0/" width="125"
	height="119" viewBox="-0.009 0.233 125 119" overflow="visible"
	enable-background="new -0.009 0.233 125 119" xml:space="preserve">
	<g id="Layer_1_2_">
		<g>
			<path
				d="M79.72 0.01 L1.299 0.473 L0 29.347 L10.432 29.286 L10.714 25.566 C10.963 22.308 11.696
					19.767 12.894 18.012 C14.032 16.355 15.303 15.283 16.781 14.735 C17.345
					14.536 19.252 14.05 24.232 14.021 C24.232 14.021 28.423 13.996 30.853 13.981
					C30.853 17.21 30.853 77.593 30.853 77.593 C30.853 83.445 30.138 84.769
					30.109 84.822 C29.345 85.912 27.796 86.464 25.396 86.477 L18.211 86.521 L18.211
					96.925 L63.967 96.655 L63.967 86.252 L56.814 86.294 C55.263 86.305 53.207
					86.067 52.107 84.94 C51.94 84.576 51.325 82.866 51.325 77.496 C51.325
					77.496 51.325 17.053 51.325 13.861 C53.663 13.847 59.773 13.811 59.773 13.811
					C62.738 13.793 65.074 14.224 66.718 15.089 C68.248 15.897 69.467 17.17 70.445
					18.98 C70.705 19.474 71.389 21.115 71.953 25.404 L72.417 28.919 L82.647
					28.857 L81.346 0 zM78.113 3.401 C78.232 6.041 78.979 22.659 79.107 25.498
					C77.702 25.506 76.633 25.512 75.38 25.52 C75.351 25.298 75.308 24.965 75.308
					24.965 C74.84 21.41 74.209 18.861 73.428 17.387 C72.116 14.956 70.44 13.23
					68.298 12.097 C66.152 10.97 63.278 10.407 59.752 10.429 L47.942 10.499
					L47.942 77.497 C47.942 82.65 48.495 85.994 49.541 87.172 C51.105 88.863 53.55
					89.697 56.835 89.68 C56.835 89.68 58.973 89.664 60.583 89.654 C60.583 90.991
					60.583 91.97 60.583 93.298 C57.613 93.315 24.599 93.51 21.592 93.527 C21.592
					92.19 21.592 91.213 21.592 89.888 C23.216 89.877 25.413 89.866 25.413
					89.866 C28.995 89.845 31.443 88.819 32.902 86.73 C33.787 85.451 34.234 82.381
					34.234 77.597 L34.234 10.579 L24.212 10.639 C20.172 10.663 17.284 10.972
					15.631 11.555 C13.447 12.363 11.647 13.848 10.103 16.103 C8.563 18.353 7.634
					21.452 7.342 25.311 C7.342 25.311 7.314 25.675 7.296 25.924 C6.007 25.931
					4.951 25.938 3.54 25.945 C3.667 23.075 4.415 6.447 4.535 3.837 C7.549 3.818
					75.064 3.419 78.113 3.401 z"
				 style="fill:rgb(121,0,0)"/>
			<linearGradient id="XMLID_1_" gradientUnits="userSpaceOnUse" x1="41.3228"
				y1="144.91" x2="41.3228" y2="64.8235">
				<stop offset="0" style="stop-color:rgb(255,144,0)"/>
				<stop offset="1" style="stop-color:rgb(255,0,0)"/>
			</linearGradient>
			<path
				d="M79.73 1.702 L2.916 2.154 L1.769 27.645 L8.865 27.604 L9.028 25.439 C9.298 21.879
					10.132 19.061 11.499 17.058 C12.84 15.101 14.375 13.823 16.195 13.149 C17.192
					12.798 19.426 12.358 24.224 12.33 C24.224 12.33 29.693 12.297 32.545 12.281
					C32.545 16.644 32.545 77.595 32.545 77.595 C32.545 83.797 31.759 85.409
					31.516 85.759 C30.398 87.363 28.395 88.155 25.404 88.171 L19.904 88.205 L19.904
					95.228 L62.277 94.975 L62.277 87.953 L56.827 87.986 C54.039 88.002 52.013
					87.35 50.806 86.045 C50.633 85.851 49.636 84.386 49.636 77.496 C49.636
					77.496 49.636 16.544 49.636 12.18 C52.724 12.162 59.764 12.12 59.764 12.12
					C63.008 12.101 65.616 12.596 67.509 13.592 C69.344 14.563 70.793 16.062 71.933
					18.177 C72.401 19.061 73.082 21.008 73.632 25.185 L73.9 27.219 L80.879
					27.178 z"
				 style="fill:url(#XMLID_1_)"/>
			<linearGradient id="XMLID_2_" gradientUnits="userSpaceOnUse" x1="41.3232"
				y1="-19.5278" x2="41.3232" y2="35.6561">
				<stop offset="0%" style="stop-color:rgb(255,255,255)"/>
				<stop offset="99%" style="stop-opacity:0;stop-color:rgb(255,255,255)"/>
			</linearGradient>
			<path a:adobe-blending-mode="screen"
				d="M47.942 47.957 L47.942 12.18 C47.942 11.25 48.693 10.494 49.623 10.488 L59.752 10.428
					C63.281 10.407 66.154 10.969 68.298 12.096 C70.44 13.229 72.116 14.955
					73.428 17.386 C74.209 18.863 74.84 21.414 75.305 24.964 C75.305 24.964 75.349
					25.297 75.38 25.519 C76.633 25.511 77.701 25.504 79.109 25.497 C78.979
					22.659 78.232 6.04 78.113 3.402 C75.064 3.42 7.549 3.819 4.534 3.837 C4.415
					6.447 3.667 23.075 3.538 25.944 C4.949 25.936 6.007 25.93 7.295 25.922 C7.315
					25.675 7.34 25.312 7.34 25.312 C7.633 21.455 8.562 18.358 10.102 16.102
					C11.649 13.847 13.45 12.363 15.631 11.554 C17.288 10.971 20.175 10.663 24.213
					10.639 L32.533 10.589 C32.984 10.588 33.416 10.764 33.735 11.081 C34.056
					11.399 34.234 11.831 34.234 12.282 L34.234 47.848 C36.679 48.095 39.181 48.225
					41.727 48.225 C43.833 48.224 45.904 48.126 47.942 47.957 z"
				 style="fill:url(#XMLID_2_)"/>
			<path
				d="M121.682 22.006 L43.259 22.47 L41.961 51.344 L52.394 51.283 L52.676 47.564 C52.925
					44.305 53.657 41.763 54.857 40.01 C55.993 38.353 57.263 37.28 58.743 36.732
					C59.308 36.533 61.214 36.048 66.194 36.018 C66.194 36.018 70.661 35.992
					72.816 35.979 C72.816 39.207 72.816 99.592 72.816 99.592 C72.816 105.444 72.101
					106.769 72.068 106.821 C71.307 107.91 69.757 108.463 67.356 108.477 L60.173
					108.52 L60.173 118.924 L105.93 118.653 L105.93 108.25 L98.777 108.291
					C96.56 108.304 94.943 107.833 94.072 106.942 C93.911 106.596 93.29 104.904
					93.29 99.488 C93.29 99.488 93.29 39.049 93.29 35.858 C95.625 35.843 101.734
					35.808 101.734 35.808 C104.7 35.79 107.038 36.221 108.683 37.086 C110.21
					37.893 111.43 39.167 112.406 40.978 C112.67 41.474 113.353 43.114 113.919 47.401
					L114.377 50.916 L124.609 50.856 L123.308 21.999 zM120.074 25.398 C120.194
					28.037 120.94 44.656 121.068 47.494 C119.664 47.502 118.595 47.509 117.34
					47.515 C117.312 47.295 117.269 46.961 117.269 46.961 C116.803 43.406 116.168
					40.857 115.388 39.384 C114.075 36.952 112.401 35.225 110.258 34.092 C108.113
					32.965 105.239 32.405 101.71 32.426 L89.903 32.495 L89.903 99.489 C89.903
					104.649 90.456 107.993 91.502 109.167 C93.063 110.857 95.51 111.693
					98.796 111.674 C98.796 111.674 100.934 111.663 102.543 111.653 C102.543 112.99
					102.543 113.967 102.543 115.293 C99.571 115.313 66.56 115.506 63.553 115.525
					C63.553 114.186 63.553 113.21 63.553 111.883 C65.176 111.875 67.374 111.86
					67.374 111.86 C70.953 111.84 73.404 110.814 74.863 108.725 C75.748 107.448
					76.195 104.376 76.195 99.592 L76.195 32.574 L66.173 32.634 C62.135 32.658
					59.247 32.966 57.592 33.551 C55.409 34.359 53.61 35.843 52.063 38.098
					C50.524 40.35 49.596 43.448 49.302 47.308 C49.302 47.308 49.274 47.671 49.257
					47.917 C47.968 47.925 46.911 47.931 45.499 47.939 C45.628 45.07 46.375 28.443
					46.493 25.833 C49.508 25.816 117.023 25.416 120.074 25.398 z"/>
			<linearGradient id="XMLID_3_" gradientUnits="userSpaceOnUse" x1="83.2832"
				y1="127.612" x2="83.2832" y2="87.2474">
				<stop offset="0" style="stop-color:rgb(176,176,176)"/>
				<stop offset="1" style="stop-color:rgb(0,0,0)"/>
				<a:midPointStop offset="0" style="stop-color:#B0B0B0"/>
				<a:midPointStop offset="0.5" style="stop-color:#B0B0B0"/>
				<a:midPointStop offset="1" style="stop-color:#000000"/>
			</linearGradient>
			<path
				d="M121.691 23.697 L44.877 24.151 L43.729 49.643 L50.825 49.601 L50.99 47.436 C51.259
					43.875 52.092 41.056 53.459 39.054 C54.8 37.099 56.335 35.819 58.155 35.145
					C59.151 34.795 61.384 34.354 66.184 34.326 C66.184 34.326 71.653 34.294
					74.504 34.278 C74.504 38.641 74.504 99.592 74.504 99.592 C74.504 105.792 73.718
					107.407 73.477 107.758 C72.358 109.361 70.358 110.15 67.366 110.169 L61.864
					110.201 L61.864 117.222 L104.237 116.974 L104.237 109.949 L98.786 109.982
					C95.998 109.999 93.971 109.346 92.765 108.042 C92.593 107.849 91.596 106.382
					91.596 99.489 C91.596 99.489 91.596 38.541 91.596 34.176 C94.684 34.158
					101.725 34.117 101.725 34.117 C104.969 34.097 107.577 34.593 109.47 35.588
					C111.305 36.559 112.754 38.059 113.897 40.175 C114.361 41.056 115.043 43.003
					115.593 47.181 L115.859 49.216 L122.839 49.174 z"
				 style="fill:url(#XMLID_3_)"/>
			<linearGradient id="XMLID_4_" gradientUnits="userSpaceOnUse" x1="83.4219"
				y1="8.2866" x2="83.4219" y2="58.5374">
				<stop offset="0" style="stop-color:rgb(255,255,255)"/>
				<stop offset="1" style="stop-color:rgb(0,0,0)"/>
				<a:midPointStop offset="0" style="stop-color:#FFFFFF"/>
				<a:midPointStop offset="0.5" style="stop-color:#FFFFFF"/>
				<a:midPointStop offset="1" style="stop-color:#000000"/>
			</linearGradient>
			<path a:adobe-blending-mode="screen"
				d="M90.04 69.382 L90.04 33.604 C90.04 32.674 90.789 31.918 91.72 31.912 L101.85 31.851
					C105.378 31.831 108.252 32.393 110.395 33.519 C112.539 34.653 114.215 36.379
					115.525 38.809 C116.306 40.288 116.938 42.837 117.406 46.388 C117.406
					46.388 117.45 46.722 117.478 46.943 C118.731 46.936 119.8 46.93 121.207 46.921
					C121.079 44.084 120.331 27.465 120.211 24.826 C117.161 24.845 49.646 25.243
					46.63 25.262 C46.512 27.871 45.764 44.5 45.635 47.368 C47.046 47.359 48.103
					47.353 49.391 47.346 C49.411 47.1 49.437 46.736 49.437 46.736 C49.73
					42.88 50.658 39.782 52.199 37.526 C53.746 35.271 55.546 33.786 57.728 32.977
					C59.385 32.394 62.272 32.087 66.311 32.062 L74.629 32.012 C75.082 32.011
					75.514 32.187 75.833 32.504 C76.153 32.822 76.331 33.254 76.331 33.704 L76.331
					69.269 C78.776 69.516 81.278 69.647 83.824 69.647 C85.933 69.648 88.001
					69.551 90.04 69.382 z"
				 style="fill:url(#XMLID_4_)"/>
		</g>
	</g>
</svg>
