<?xml version="1.0" encoding="UTF-8" standalone="no"?>
<!DOCTYPE svg PUBLIC "-//W3C//DTD SVG 20010904//EN"
"http://www.w3.org/TR/2001/REC-SVG-20010904/DTD/svg10.dtd">
<!-- Created with Sodipodi ("http://www.sodipodi.com/") -->
<svg
   width="48pt"
   height="48pt"
   viewBox="0 0 48 48"
   style="overflow:visible;enable-background:new 0 0 48 48"
   xml:space="preserve"
   id="svg1057"
   sodipodi:version="0.32"
   sodipodi:docname="crsc-action-fileprint.svg"
   sodipodi:docbase="/home/jr/tmp/icons/final"
   xmlns="http://www.w3.org/2000/svg"
   xmlns:xap="http://ns.adobe.com/xap/1.0/"
   xmlns:xapGImg="http://ns.adobe.com/xap/1.0/g/img/"
   xmlns:sodipodi="http://sodipodi.sourceforge.net/DTD/sodipodi-0.dtd"
   xmlns:rdf="http://www.w3.org/1999/02/22-rdf-syntax-ns#"
   xmlns:xml="http://www.w3.org/XML/1998/namespace"
   xmlns:xapMM="http://ns.adobe.com/xap/1.0/mm/"
   xmlns:dc="http://purl.org/dc/elements/1.1/"
   xmlns:a="http://ns.adobe.com/AdobeSVGViewerExtensions/3.0/"
   xmlns:x="adobe:ns:meta/"
   xmlns:inkscape="http://www.inkscape.org/namespaces/inkscape"
   xmlns:xlink="http://www.w3.org/1999/xlink"
   inkscape:version="0.40pre2"
   xmlns:cc="http://web.resource.org/cc/">
  <defs
   id="defs1199">
  <linearGradient
     inkscape:collect="always"
     xlink:href="#XMLID_15_"
     id="linearGradient6262"
     gradientUnits="userSpaceOnUse"
     x1="23.7007"
     y1="41.6758"
     x2="23.7007"
     y2="14.3296" />
  <linearGradient
     inkscape:collect="always"
     xlink:href="#XMLID_16_"
     id="linearGradient6263"
     gradientUnits="userSpaceOnUse"
     x1="23.7007"
     y1="40.5029"
     x2="23.7007"
     y2="29.8945" />
  <linearGradient
     inkscape:collect="always"
     xlink:href="#XMLID_17_"
     id="linearGradient6264"
     gradientUnits="userSpaceOnUse"
     x1="23.7017"
     y1="32.0684"
     x2="23.7017"
     y2="1.5501" />
  <linearGradient
     inkscape:collect="always"
     xlink:href="#XMLID_18_"
     id="linearGradient6265"
     gradientUnits="userSpaceOnUse"
     x1="23.7017"
     y1="31.458"
     x2="23.7017"
     y2="2.1292" />
  <linearGradient
     inkscape:collect="always"
     xlink:href="#XMLID_19_"
     id="linearGradient6266"
     gradientUnits="userSpaceOnUse"
     x1="20.9858"
     y1="39.3223"
     x2="31.8184"
     y2="50.1548" />
  <linearGradient
     inkscape:collect="always"
     xlink:href="#XMLID_20_"
     id="linearGradient6267"
     gradientUnits="userSpaceOnUse"
     x1="23.7017"
     y1="31.9609"
     x2="23.7017"
     y2="37.1494" />
  <linearGradient
     inkscape:collect="always"
     xlink:href="#XMLID_21_"
     id="linearGradient6268"
     gradientUnits="userSpaceOnUse"
     x1="23.6978"
     y1="37.0439"
     x2="23.6978"
     y2="32.7383" />
  <linearGradient
     inkscape:collect="always"
     xlink:href="#XMLID_22_"
     id="linearGradient6269"
     gradientUnits="userSpaceOnUse"
     gradientTransform="matrix(0.707100,-0.707100,0.707100,0.707100,71.52200,44.57710)"
     x1="-6.4966"
     y1="-38.1807"
     x2="-6.3817"
     y2="-37.4912" />
  <linearGradient
     inkscape:collect="always"
     xlink:href="#XMLID_23_"
     id="linearGradient6270"
     gradientUnits="userSpaceOnUse"
     gradientTransform="matrix(0.707100,-0.707100,0.707100,0.707100,71.52200,44.57710)"
     x1="-6.3135"
     y1="-38.7192"
     x2="-6.3135"
     y2="-38.1609" />
  <linearGradient
     inkscape:collect="always"
     xlink:href="#XMLID_24_"
     id="linearGradient6271"
     gradientUnits="userSpaceOnUse"
     x1="23.6792"
     y1="30.6543"
     x2="23.6792"
     y2="15.8262" />
  <linearGradient
     inkscape:collect="always"
     xlink:href="#XMLID_25_"
     id="linearGradient6272"
     gradientUnits="userSpaceOnUse"
     x1="23.7007"
     y1="4.5127"
     x2="23.7007"
     y2="19.9082" />
  <linearGradient
     inkscape:collect="always"
     xlink:href="#XMLID_26_"
     id="linearGradient6273"
     gradientUnits="userSpaceOnUse"
     x1="12.6787"
     y1="2.5386"
     x2="32.3355"
     y2="22.1956" />
  <linearGradient
     inkscape:collect="always"
     xlink:href="#XMLID_27_"
     id="linearGradient6274"
     gradientUnits="userSpaceOnUse"
     x1="14.5005"
     y1="32.291"
     x2="35.7899"
     y2="53.5806" />
  <linearGradient
     inkscape:collect="always"
     xlink:href="#XMLID_28_"
     id="linearGradient6275"
     gradientUnits="userSpaceOnUse"
     x1="23.6792"
     y1="19.6987"
     x2="23.6792"
     y2="28.9786" />
</defs>

  <sodipodi:namedview
   id="base"
   inkscape:zoom="7.5416667"
   inkscape:cx="24.000000"
   inkscape:cy="24.000000"
   inkscape:window-width="858"
   inkscape:window-height="693"
   inkscape:window-x="0"
   inkscape:window-y="12"
   inkscape:current-layer="svg1057" />

  <metadata
   id="metadata1058">
    <xpacket
   id="xpacket5844">begin='﻿' id='W5M0MpCehiHzreSzNTczkc9d'    </xpacket>

    <x:xmpmeta
   x:xmptk="XMP toolkit 3.0-29, framework 1.6"
   id="xmpmeta5847">
      
    <metadata
   id="metadata6203">
  <rdf:RDF
     id="RDF5849">
        <rdf:Description
   rdf:about="uuid:bcb648b3-15a3-41a4-815d-774960d2ac54"
   id="Description5851" />

        <rdf:Description
   rdf:about="uuid:bcb648b3-15a3-41a4-815d-774960d2ac54"
   id="Description5853" />

        <rdf:Description
   rdf:about="uuid:bcb648b3-15a3-41a4-815d-774960d2ac54"
   id="Description5855">
          <xap:CreateDate
   id="CreateDate5857">
2003-06-11T12:03:38Z</xap:CreateDate>

          <xap:ModifyDate
   id="ModifyDate5860">
2004-03-29T09:19:38Z</xap:ModifyDate>

          <xap:CreatorTool
   id="CreatorTool5863">
Adobe Illustrator 10.0</xap:CreatorTool>

          <xap:MetadataDate
   id="MetadataDate5866">
2004-02-14T13:06:31+01:00</xap:MetadataDate>

          <xap:Thumbnails
   id="Thumbnails5869">
            <rdf:Alt
   id="Alt5871">
              <rdf:li
   rdf:parseType="Resource"
   id="li5873">
                <xapGImg:format
   id="format5875">
JPEG</xapGImg:format>

                <xapGImg:width
   id="width5878">
256</xapGImg:width>

                <xapGImg:height
   id="height5881">
256</xapGImg:height>

                <xapGImg:image
   id="image5884">
/9j/4AAQSkZJRgABAgEASABIAAD/7QAsUGhvdG9zaG9wIDMuMAA4QklNA+0AAAAAABAASAAAAAEA
AQBIAAAAAQAB/+4ADkFkb2JlAGTAAAAAAf/bAIQABgQEBAUEBgUFBgkGBQYJCwgGBggLDAoKCwoK
DBAMDAwMDAwQDA4PEA8ODBMTFBQTExwbGxscHx8fHx8fHx8fHwEHBwcNDA0YEBAYGhURFRofHx8f
Hx8fHx8fHx8fHx8fHx8fHx8fHx8fHx8fHx8fHx8fHx8fHx8fHx8fHx8fHx8f/8AAEQgBAAEAAwER
AAIRAQMRAf/EAaIAAAAHAQEBAQEAAAAAAAAAAAQFAwIGAQAHCAkKCwEAAgIDAQEBAQEAAAAAAAAA
AQACAwQFBgcICQoLEAACAQMDAgQCBgcDBAIGAnMBAgMRBAAFIRIxQVEGE2EicYEUMpGhBxWxQiPB
UtHhMxZi8CRygvElQzRTkqKyY3PCNUQnk6OzNhdUZHTD0uIIJoMJChgZhJRFRqS0VtNVKBry4/PE
1OT0ZXWFlaW1xdXl9WZ2hpamtsbW5vY3R1dnd4eXp7fH1+f3OEhYaHiImKi4yNjo+Ck5SVlpeYmZ
qbnJ2en5KjpKWmp6ipqqusra6voRAAICAQIDBQUEBQYECAMDbQEAAhEDBCESMUEFURNhIgZxgZEy
obHwFMHR4SNCFVJicvEzJDRDghaSUyWiY7LCB3PSNeJEgxdUkwgJChgZJjZFGidkdFU38qOzwygp
0+PzhJSktMTU5PRldYWVpbXF1eX1RlZmdoaWprbG1ub2R1dnd4eXp7fH1+f3OEhYaHiImKi4yNjo
+DlJWWl5iZmpucnZ6fkqOkpaanqKmqq6ytrq+v/aAAwDAQACEQMRAD8A9U4q7FXYq7FXYq7FXYq7
FXYq7FXYq7FXYq7FXYq7FXYq7FXYq7FXYq7FXYq7FXYq7FXYq7FXYq7FXYq7FXYq7FXYq7FXYq7F
XYq7FXYq8vGjzeZ/N2rW91dvGLV5REacwFST01UAkU2zI4uGIQmf/KqLf/q5P/yKH/NWR8byWnf8
qot/+rk//Iof81Y+N5LTv+VUW/8A1cn/AORQ/wCasfG8lp3/ACqi3/6uT/8AIof81Y+N5LTv+VUW
/wD1cn/5FD/mrHxvJad/yqi3/wCrk/8AyKH/ADVj43ktO/5VRb/9XJ/+RQ/5qx8byWnf8qot/wDq
5P8A8ih/zVj43ktO/wCVUW//AFcn/wCRQ/5qx8byWnf8qot/+rk//Iof81Y+N5LTv+VUW/8A1cn/
AORQ/wCasfG8lp3/ACqi3/6uT/8AIof81Y+N5LSA/LvzHdw3I0uUmW1kI9KpJMbEhaL/AJJr0xzD
dQ9MylLsVdirsVdirsVdirsVdirsVdirsVdirsVdirsVdirsVYF5N/5TjXv9ef8A6iMun9IQGe5S
l2KuxV2KuxV2KtE4q0Xw0haZT4Y0trTOfDDS2tNyfAY8KLRA6ZFk8c8j/wDHft/9ZP8Aia5dm6ID
2PKUuxV2KuxV2KuxV2KuxV2KuxV2KuxV2KuxV2KuxV2KuxVgHkxq+etfHg9x/wBRGXT+kIDP8pS7
FXYq7FXYq0TiqwnChYThQsJwqsJxQsJwoTAdBlbY8a8itXX4P9ZP+Jrl2bogPZcpS7FXYq7FXYq7
FXYq7FXYq7FXYq7FXYq7FXYq7FXYq7FXnnkhq+ffMI8HuP8AqIy6f0hAeh5Sl2KuxV2KtE4qsJwo
WE4ULCcKrCcULCcKFhOFUzHQZU2PFvy/auvQ/wCun/Exl2ZAe05Sl2KuxV2KuxV2KuxV2KuxV2Ku
xV2KuxV2KuxV2KuxV2KvOPIrV/MHzGPB7j/qJy6f0hAej5Sl2KuxVonFVhOFCwnChYThVYTihYTh
QsJwqsJwoTZfsj5ZS2vEvy5auvRf66f8TGXZUB7blKXYq7FXYq7FXYq7FXYq7FXYq7FXYq7FXYq7
FXYq7FXYq808hNX8xfMo8Huf+orLp/SEPS8pS7FWicVWE4ULCcKFhOFVhOKFhOFCwnCqwnChTZsV
Tlfsj5ZS2vD/AMs2rrsf+vH/AMTGXZUB7jlKXYq7FXYq7FXYq7FXYq7FXYq7FXYq7FXYq7FXYq7F
XYq8w/L5q/mT5nHhJc/9RWWz+kIen5UlonFVhOFCwnChYThVYTihYThQsJwqsJwoU2bFVNmxSnq/
ZHyylseF/lc1ddT/AF4/+JjLcqA91ypLsVdirsVdirsVdirsVdirsVdirsVdirsVdirsVdirsVeW
fl21fzM80jwkuv8AqLy2f0hD1InKkrCcKFhOFCwnCqwnFCwnChYThVYThQps2KqbNilTZsVZCv2R
8hlLY8H/ACoauuD/AF4/+JjLcqA95ypLsVdirsVdirsVdirsVdirsVdirsVdirsVdirsVdiqVa35
r8taEF/TGp21iziqJNIquw8VT7RHyGKvN/ysvba9/MXzLd2sgmtrj6xNBKvRo3ugysPYg5bP6Qh6
252ysJUicLFYThVYTihYThQsJwqsJwoU2bFVNmxSps2KqTNilkyfYX5DKWb5z/LnzFouk6yj6peR
2iO8ZV5TxWgYV36bZblQH0RaXdpeW0dzaTR3FtKOUU8TB0YeKspIOVJVcVdirsVdirsVdirsVdir
sVdirsVdirsVU7i6traIy3MyQRDrJIwRfvagxVjeofmh+XthUXGv2ZK7MsMnrkEdqQ+ocVY1qf8A
zkL+XttDIbOa4vpgrekI4HRWah41MvpkCvtirxDyz5d1X8xfMWp3uqaotqsMUl9qeozKZAiA9FQF
dh2FQAoxV6b+Rdtb2nmzVrO2uBd29tbNFDdqvESpHMqrIFq1OYFaVy2f0hD2yU7DKwpUCckhYTih
YThQsJwqsJwoU2bFVNmxSps2KqTNilSZsVZWn2F+Qylm+VvLnkC285yS2qaxHp+qxKfqVnLEXFx8
JZvjDDgF4b/C2W5UBZ+VX5mXfkjVJ7PUfVk0aYkXNolGMcymnNASADtRt9/oypL26y/PX8srogNq
jWznos8Ey/8ADKjL+OKsl03zr5Q1OgsNasrh2pSNJ4+e/ihPIfdiqdYq7FXYq7FXYq7FXYq7FVG8
vLSytZLu8mS3tYV5SzysERVHdmagGKvIvNf/ADkhodk72/l2zbU5V2+tzEwwV8VWnqP/AMLirzy4
/ND84PNUjx6bLcJETRotLhKKhPjKoaRfpfFVKL8ofzJ1mRp9SZYpe0l/cmR2r7x+ufvw8Kp9Zf8A
OPUh4Ne60B/PHDAT9zs4/wCI4eFU9tfyF8nROGmuL25p1RpEVD/wEat/w2HhQmms+V/Lvk78vvMM
+j2xt5tQSG0kZpJHLhn40+Nmp8MjHbBIJSL/AJx8P/Oy6iPCy/5mpk5/SEPdJz8IysKUOTkmKwnC
hYThVYThQps2KqbNilTZsVUmbFKkzYqps2KsvT7C/IZSzfK35d6gbLzxotxWg+tJEx6UWf8AdN+D
5bkQHqmufk55Fu9Qu5WspIZp5XkeSKaUfE7ciQGZlHXwyIASxu7/AOcfvLrRkWmpXkMnZpRFKv8A
wKrF+vHhVIL/AP5x91qMA2GqW9x4idHg+7j62DhVK08r/nF5VJfTzfRwxmgNhMZUYf8AGFGJI/1k
wUqb6J/zkJ560mf6trlvFqSxnjKkqfVrgU7ckAUfTGcCvYfJP5ueUPNjJbW8xs9UYf8AHPuaK7Ed
fTYfDJ9Br7YqzXFXYq7FXYq0zKqlmICgVJOwAGKvl/8AMnzxrH5geaY9D0XnJpSTelYWybCZxUGd
/bqRX7K77b4qzryl+S/lvSYo5tVRdV1CgL+qK26nuEjP2vm9fkMmAr0CKCKGNYokWONBREQBVAHY
AYULuOKu44q7jirC/wA6br0fJ+n2YNGu7syN7rEjCn3suQkli35CX9na+aNTa6uI4E+qFQ0rqgJ9
VNqsRlxxyIFAsDOI5l7LfecfKUKn1dbsI+Bo/K6hWh6b1bJQ0uU8oy+Ra5ajGP4h80rm/MPyJHTl
5h0416cbmJ/+IsctGhzn+CXyLWdVi/nR+aFl/NH8vo24tr1oT1+F+Q+9QRlg7Ozn+AsDrcX84Ieb
82fy7jALa5AQdvhDsfuVTkh2ZqD/AAFB12H+cFA/m/8Alz/1eo/+Rc3/ADRkv5L1H837mP5/D/OW
H83fy6/6vUf/ACLm/wCaMf5L1H837k/n8P8AOWN+bf5ef9XmP/kXN/zRg/kvUfzfuX8/h/nfept+
bP5e/wDV5j/5Fzf80Yf5L1H837k/n8P87713/KzvIbKCNat6EVFSwP3EZH+TdR/MLL89h/nBtfzE
8kSKSut2lOnxSBT9zUyJ7Pzj+CSRrMP84Lx518oOAV1uw+LoDcxA/cWrkTosw/gl8izGqxfzo/MM
5tvNHlmVAItXspCoHILcRNT50bMU6fIOcZfItgzQP8Q+b5L024eOZZ4yOcLq6H3U1H6scoI5s4kH
k+rLx0neO5T7FxGkq/JhtkIskPxwodxxV3HFUu1ny3oWtQ+jqljFdrQhWkUc1r/I4oy/7E4q8X/M
X8o5dAgbW9BkklsITzngY1lgFdnVhQsg+9eu+5ESEvSfyU/NKXzHZnRdYk5azZrWO4brcRDarf5a
9D49etcir1XFXYq7FXnn55+aX0PyPNb278LzVm+pxEdRGwJmb/gBx/2WKsH/ACF8qLDp9x5kuErN
dE29kT+zEhpIw/1nHH/Y++Sir1rjkkO44q7jiruOKu44q8w/PW6X6/o9kTQW1q87e3rNxP8AyZyA
BJoKTQTbRvyU8gNptpLqmnvcag8SPeObidAZmUF6KjrQciaZuD2lnh6YSqI2Gw5B1Y0eKXqkPUee
5TaH8ovywhXimhREVr8cs7n73kY5A9pak/x/d+pmNHgH8P3o2P8ALr8u425L5fsif8qJWH3NUZUd
bqD/ABy+bMabD/NCunkbyChqPLumk9PitYWH3FTkTq8/8+XzLIYMX82PyC//AAX5D/6lzS/+kK3/
AOaMH5rP/Pn/AKYp8HF/Nj8giR5f8rAUGj2IA6D6tD/zTkPFy/zpfMsuDH/NHyb/AEB5W/6s9j/0
jQ/804+Ll/nS+ZXgx/zR8nfoDyt/1Z7H/pGh/wCacfFy/wA6XzK8GP8Amj5LJfLPlCZOE2iafInX
i9rAwr8iuEZ8o5Tl8yg48Z5xj8gof4L8h/8AUuaX/wBIVv8A80ZL81n/AJ8/9MUeDi/mx+QUj5D/
AC/JJ/w7p2/hbRD/AI1yX5vP/Pl8yjwMP82PyQ0n5ZflxIhRtAtAD3VSp+9SDkxr9QP4ywOlw/zQ
gp/yc/K6ZuTaIqmlBwnuUH3LIBlg7U1I/j+wfqYHRYD/AA/aWAfmV+X/AJf8siwuNCt2t7a5Mkd0
rSPJ+8Xi0dOZY7rz+7KdVqcmaFzNmJ+/+xu0+GGOVR2B/Q9I0m9mufJvl+6RyK2ogcg9WgpHv/wJ
zCg5hXi5uv8AfjZOlbF5dj/dh+4f0xpVwv7sftA/MDGlXjUrgdVU/Qf64KVc9+ssbxTQLJFICrod
1KkUIIINQRjwq+d9Qin8j/mCJbTkkFrMJrbc1a2k/Zr3opK18RlRFJfWGj6jFqWm295GQyyoGqOl
aYFRmKuxV84/85G6u955vstJjJZNPtgSg3/fXDcjQe6KmKvYPLujx6PoNhpcYFLSBImIFAzhfjb/
AGTVOTVMaYodTFXUxV1MVXKnJgviaYq8h/MVRq35niypyiWS1tWH/FdFeX7g7ZbpY3kHlv8ALdp1
Mqgfl83p/wBc98yvDcLxHfXPfHw18R31z3x8NfEd9c98fDXxHfXPfHw18R31z3x8NfEcbwAVJoMf
DR4qi+s2qdZQT4Df9WTGnkejA6mI6qDeYYB9kM33DJjSFgdWFJvMTfsqB8zX+mS/KMTrFh1+Y9wP
lkvyoY/mytOuzn/dn6sP5YI/NHva/Tc3+/Dj+WHcv5k97F/zEne/8uksxc200cyr16kxH7lkJyOT
T+iXu+7f9DZg1H7yPv8Av2Tr8u5vrP5exR9TY3kkVPAP+8/XJmmhzd4m3D2yxClczQ21tLcznhDA
jSSueyoOTH7hhQTQtj76zZyaJ+kL2Z/Xu1521hbyNEIIz9gyyRlXaUjcjlxHSnfMeeU3UXVanXVG
wd/uXeRL3Ub/AEV57xmkT6xKtnM/2ngUgKSe9G5CvemXuZoskp4wZc2R8PbFynlX55aQPR03VlUA
qzWkzdzyHqRj6OL/AH5CavQ/yI1s33lOK2dqvbgpT/jGeP8AxHjkEvTMVdir5f1Tnr/57SLQOo1Z
UYHcGOyIVuv+RBiFfQ/HJq7jiruOKu44q7jiq+2KfWo0qORNQO+2+Aq8XsZBf/mXfXxNVimup4z7
BjCo/wCBkzP7PhfEfKvn/Y6/tDJQA8/x97Ovrfvmf4bq/Ed9b98fDXxHfW/fHw18Ro3gAqTQDqTj
4a+KgbjzLZRVCv6reCdPv6ZfDRyPk489dAeaXTearh9o6Rj7z95zIjogObjy15PLZByaxLIavIW+
Zrlo04HINJ1JPMrf0n75LwUeO79J++Pgr47v0n74+Cvju/Sfvj4K+O79J++Pgr47v0n74+CvjoXU
7k3enXNsDvNE6KfAlSAfvx8DvTHU0bTz8nLkT6HrVoOimC4T/ZBgf+IDOMMTGVHo9xGQIsMt4ZJK
ld2UN3azWs684LhGilXxRwVYfccbQRYpjsP5e6aESG4uri6tY6Bbd2RQVHQOyKrN9/zyIiAbcL+T
8d2d2SxW0UMSRRIscUYCoigBVUCgAA6AZJzgF3DFWI/mtp/1nyNqBCc5LcxzJQVI4yKGP0IWwS5K
kH/OO2olLq6sydvUDUr2kXj+tcrS+gMVdir5f/KhX1P81xfg1CteXbnrUSK6frlGEK+i+OFXccVd
xxVa7IgqxpiqDluZG2T4V/HCh1pILYXN424toJJTX/JFcZJeN+TOSz31yxqT6cYJ68t3f7+S5u+z
cX7q+8/d+C8/2pl/eAdw+9lP1s+OZ/hut8Ro3lASTQDqcfDXxEmv/OFrBVLf99IP2v2B9Pf6MzMX
Z8pbnYOFl7RjHaO5SG68w3d0f3spK9kGyj6BmfDSRjyDr8mslLmUP+kj45Z4LX47v0kfHHwV8d36
SPjj4K+O79JHxx8FfHd+kj44+Cvju/SR8cfBXx3fpI+OPgr47v0kfHHwV8d36SPjj4K+O79JHxx8
FfHZb+Sk4GuXtp0S4tZo0X3jkHH/AISucH2pi8PUTHnfz3fROy83iaeEvL7tno3DMNzncMVdwxV3
DFXcMVSnzbatP5V1iJV5u9lcBF8W9JuP44lXkH5H3Rg8zyLWnJEf/gHr/HK0vqDFVK8kaK0nlU8W
SNmDeBCk13xV82/84/Kp863Veo0+Ur8/Wh/hhCvoWmFXUxVTmlEYoN27DFUE/JzVjU4UNcMKoLzJ
N9V8oa1N05QeiP8AnsfT/wCN8jJLyvy2oTTi/QzSyOf9ifTH/CoM6zSY+HDEeX37/peR1suLNI+f
3bIy/wBVtbGH1Z3pX7KDdmPgBmbiwSmaDg5ckYCyw7VPMV3fMVr6dv2iU/8AEj3zb4dJGHmXT588
snkEu9f3zI4XG4Xev748K8LvX98eFeF3r++PCvC71/fHhXhd6/vjwrwu9f3x4V4Xev748K8LvX98
eFeF3r++PCvC71/fHhXhd6/vjwrwsw/KS99Dzra77SSFW+UsRRR/wS1ziPaXDw54y/nR+57v2ayX
pzH+bL73tUsXGV18GI+45z70KzhhV3DFXcMVdwxVZNEGhkDfZ4nkfAU3wK+dvylk4ebV3oWgcD51
XIJfV6nkoPiK4qgtd/44eo/8w03/ACbOKvl78qbie38yTTQO0ci2r8WU0P8AeR5ZjFlBe56f51da
Jfxcx/v6PZvpXp92SOPuW2RWeqWF6lbWZZHp/dk0b/gTvlZBCWniepLA1PfG1W+nhV3p4qxv8zrp
bTyS4Y0E9wgb/VRTIf8AiGMYmUgB1YylQJPR5hPqkOi6PbpL8U6xqiR92cKORPtXrnf4NMckqHIP
E5svALPMsMvNTuLydpp35OengB4AZvceEQFB02QmZsqHrZPhYcDvWx4V4HetjwrwO9bHhXgd62PC
vA71seFeB3rY8K8DvWx4V4HetjwrwO9bHhXgd62PCvA71seFeB3rY8K8Ce+Rr/6t5ospq0CSRyE/
8Y5VNPuY5yvtVh/dQn3Sr5/2PS+zc6nKPeL+X9r6XvIqXL+5r94ziQ9eoenhV3pnFV4t3oSfhUbl
jsMFqll5r+j2lR6n1qUfsRbr9LdPuyQgShjmr+aNSuraaOIi1hKN8EWzHbu/X7ssEAFt43+V3/KW
Rf8AGNv1jMdL6xtyTBGT1KKT92KqGqxCXS7yImgkgkUnwqhGKvlb8s2C6/MD+1bOB/waH+GWYuaC
9Oy9DYJBBBoR0IxVNLPzPrFqAom9aMfsS/H+P2vxyJgCm06tfOlm9Bd2zRn+eIhh9xpkDjPRbTW2
1fRrmnpXaBj+y/wH/hqZAxISx/8AM/RNT1bQraKwha5jgMklxHGQXYEAAIv7VQWzI0RAzwJIA4hz
cfVAnFIDuLwPXdP80G6kudS026tqmgEsMiKq9gOSjxz1DTZsHCBCcT7iHhM+HLdyjIfApNyOZtOL
TuRxpadyONLTuRxpadyONLTuRxpadyONLTuRxpadyONLTuRxpadyONLTuRxpadyONLS+KOeZwkKN
I56KgLH7hkZSjEWTTKMCeQZT5S8k+bbzV7cppd1HF8R9eWJ4ovsHq7gLnNe0Wqwz00oicTKxtYvm
7vsbT5I5xIxkI0d68n0rcSxIkcl1KkLFF9QuwUcqb0rTPPw9gldz5l0O3qBK1ww/ZjG33mg/HJiB
RaUXXnW4NVs7dIR/O/xt/AfryYx962kl5qeoXhrcztIP5SaL/wACKDJiICELhVTuSFtpWJoAjEn6
MSrzf8rIy3mtCP2YmP8AwyjMRk+rrcEQRg9Qqj8MVXOiujIwqrAhh4g4q+Tfy7VovNJhanL0pUb5
rQ7f8Dk8fNBeqenmQh3p4q708Vd6eKu9PFVaCe7tzWCZ4j/kMV/VgICpjB5m1uLb1/UHg6g/jQH8
ciYBNqs2v293/wAdLSrW88eaA/8AEw/hk4SnD6ZEfFhLHGXMAoSay/Ly7H+leWrePxMEUaHrXqnp
Zkx7Q1UeWSXzLjy0OA84R+SHbyV+Uc430t4T/MJLkfgJGGZEe3NbH+P7I/qaZdk6Y/wfaf1oZvyr
/KuYjhc3MW3QSkf8TjOWj2j1o6g/ANR7E0x6H5qTfkx+XL09PV7pK/zTQfxjGWj2o1Y6Q+R/W1ns
HB3y+f7Fg/I3yUxPDXJyPD1IDT7lyX+irVfzYfKX/FMf9D+Dvn8x+pY35E+U+R469KF7AmEn79sm
PavUdYQ+39aD7P4f50vs/UuT8ivKAHx67Mx8Q0I/gcifavU9Iw+Uv+KSPZ/D1lL7P1Np+SPkRa+p
rk7U7CW3H/GpwH2p1X82Hyl/xSR2Bg75fMfqVV/J/wDLOPd9Su3NN/30dP8AhYsrPtNrD/NHw/az
HYWn/pfNWi/Lf8poKcxPc0FKNJN9/wAATKpe0GtP8QHwj+psHY2mH8N/EohPLH5U27Vi0MyEUpya
Rxt/xklOUy7X1kueQ/YPuDbHszTD+AIpJPJ9sALPy1ZKV+y7QwhtvE8CT9+Y89XqJfVkmf8AOLfH
SYY8oR+QRB8136J6drBBbRj7KonT8afhmMY2bJtvAA5IKfXNZnrzu5AD2Q8P+I0wiISgGVnYsxLM
epO5ySGvTxV3p4q708Vd6eKoXVh6el3kn8kEjfchOA8lYB+UsXLzI7gfZhYe++/8MxWT6nUcVA8B
TFW8VfK2jxfUfzSuLU7CO9vLcgU7GRR+IyUOavVfSzIYu9LFXelirvSxVJdS82+WNLu2tNR1GG2u
VAJickGhFQemR4glC/8AKwvI3/V5t/vP9MeMK7/lYXkb/q82/wB5/pjxhXf8rC8jf9Xm3+8/0x4w
rv8AlYXkb/q82/3n+mPGFd/ysLyN/wBXm3+8/wBMeMK7/lYXkb/q82/3n+mPGFd/ysLyN/1ebf7z
/THjCu/5WF5G/wCrzb/ef6Y8YV3/ACsLyN/1ebf7z/THjCu/5WF5G/6vNv8Aef6Y8YV3/KwvI3/V
5t/vP9MeMK7/AJWF5G/6vNv95/pjxhXf8rC8jf8AV5t/vP8ATHjCu/5WF5G/6vNv95/pjxhXf8rC
8jf9Xm3+8/0x4wrv+VheRv8Aq82/3n+mPGFd/wArC8jf9Xm3+8/0x4wrv+VheRv+rzb/AHn+mPGF
TnS9Q0/VbUXenzrc2rMVWVOhK7H8cINqi/Swod6WKu9LFUp82kQ+WdTc97eRP+DHD/jbIyOyWJ/k
rbeprFw9P99qPpJB/WMx0vpbFXYq+ZfOcP6L/Oa4J+FGv4Zif8m4COx3/wBc4RzV6j6eZCHenirv
TxV3p4q+efzYj9bzjPINwY0p8t8x5c0sN+q+2BXfVfbFXfVfbFXfVfbFXfVfbFXfVfbFXfVfbFXf
VfbFXfVfbFXfVfbFXfVfbFXfVfbFXfVfbFXfVfbFXfVfbFXfVfbFXfVfbFXfVfbFXvn5NCnlGKH+
V5GA+cjZbjQWeenliu9PFXenirF/zLlEHlG6WtDO8Ua/8GGP4KchM7KhPyIsiZWmI3acUPsoB/Wp
ylL3zFXYq+eP+cgbB7TzpaahGOIu7VG5/wDFsLsp+5eGKvRLJ0urOC6T7E8aSr8nUMP15faFb0cV
d6OKrJ1EUEkn8ilvuFcbV88efYvV19n61iT+OUlLHfqvtgV6Z+WX5faRqOkTalrFr9YSaX07RGZ1
osY+JxwK15M3H/Y4qzH/AJVj5F/6tSf8jJv+a8Vd/wAqx8i/9WpP+Rk3/NeKu/5Vj5F/6tSf8jJv
+a8Vd/yrHyL/ANWpP+Rk3/NeKu/5Vj5F/wCrUn/Iyb/mvFXf8qx8i/8AVqT/AJGTf814q7/lWPkX
/q1J/wAjJv8AmvFXf8qx8i/9WpP+Rk3/ADXirv8AlWPkX/q1J/yMm/5rxV3/ACrHyL/1ak/5GTf8
14q7/lWPkX/q1J/yMm/5rxV3/KsfIv8A1ak/5GTf814q7/lWPkX/AKtSf8jJv+a8Vd/yrHyL/wBW
pP8AkZN/zXirx3zn5Y/QnmO7sUUi35CW16kelIOSAE9eNeJ9xiqSfVfbFXsn5QnhpsMP8wloPcSV
ycEPSPRyxXejirvRxV51+c1yI9M0+yrvNM0xHtEvH/mZkJlQyn8jtOMWmQSEUJVpSf8AW6fhJlaX
rOKuxV5P/wA5D6Objy5p+qIKtYXBjfbpHcL1P+zjUfTirvyyvRqHk2xJNZLYNbSe3pn4R/wBXLIn
ZDKvRyVq70cbVDalZTz6fcw268ppY2SNRTcsKU3wEq8r1z8pPO+o331mGxXhwC/HLEpqK9i2VpY7
qP5ZeadPu4bS5tkFxcU9KNZUYnk3EfZJ6nCIkq92s/J97punWWm2kIaCyt0hDhlAZ6cpHoTX4pGY
5FXHQdY/3x/w6f8ANWFVp0LWf98f8On/ADVirX6D1n/fP/Dp/wA1YqtOiaz/AL5/4dP+asVaOi61
/vn/AIdP+asVWnRda/30f+DT+uNK0dG1v/fR/wCDT+uGlWnR9b/30f8Ag0/rjStHSNb/AN9H/g0/
rjSrTpOuf77P/Bp/XGlWnStc/wB9n/g0/rjStHS9c/32f+DT+uNKtOma7/vs/wDBp/XDSoqw0nWZ
GaN4eTdVq6fT3wEKxH85PJl3Joun6yYeNxZu1rc7qSYZDzjYkHoshYf7LABasI0v8pPOOqWEN/ZW
sctrOOUb+tEK0JB2LVFCKYkUrPfIvkTzPo09ql/aenHCZTK6ujKAysR9lj44QrOvRyy0O9HG1d6O
Nq8T/Ny6N95wh06I1NrFHDx/4slPM/gy5XIpe1/lvpy2mjrQUUKqJ8qcv1EZFWX4q7FUp82aEmve
W9R0hqA3cLLEx6CUfFGx+TqDirxP8ldVez1XUPLt4DFJITLFG+xE0PwypT+Yrv8A7HJRKvYfTXxG
SQ7018RirggBqDQjocVX83/34fvOKsU8sxHXfOk2ovV7Wx+KMncVHwxfxf6MnPaNK9Hc0X55QlRJ
wqtJxVaThVaTiqwnFVpOKrScKrScVWE4qtJxQtJwqtJxVYTiq6CYxTJJ/Kd/l3xKplrukwazot5p
stPTu4mQN14sRVH/ANi1DkAaKXlf5T6rdQPqHlu7ZoriykaSOMncUbhKv+xen35bMdUPRCzkUMhp
8zkVW+mviMVd6a+IxVRvJ7aztJru4cJBbo0srnsqCpP3DFXz/wCXY5/MnnSbUpV2kmadh148yeC/
7EdPllaX0zodp9V0yGOlGI5sP9bcfcMVR2KuxV2KvGvzU/LvVrXWh5x8sKTOGE17BGBzWRf93IP2
g37a/TvU0VQWl/nRZ8Vh1myltbkbSPEOaV7nixV1+W+TElZHafmP5RugPT1OJCe03KKn/IwKMNhC
a2/mDTLkVt7yCYHp6ciN+onxwqhvMWrm20qXg1JJR6Sf7Lqfurkox3VPvy/0n6h5fjldaTXh9d/H
idkH/A7/AE5DIbKhP5Wq1PDIJUycVWk4VWk4qsJxVaTiq0nCq0nFVhOKrScULScKrScVWE4qtJxV
aThVO9Kn9W2Ck/FH8J+XbK5BLyD8yIJPKv5h2PmOFStnqHxXFOnJQI5xT3QhvnlsDYpDOG1OBIxI
8qrGRUOWABFK1qcaVAXPnHy7bV9fU7ZCOq+qhb/gQa4NlSa9/NryjbA8LmS6YfsQRsfxfgv44LCs
K8z+fNc822x0zS7J7fT5GHryMas4U1AZqBVFe2+RJSzT8rfI5tEVplqdnncjrXtv40oPbIq9cxV2
KuxV2KuxVj+s+QvK2r1a6sUEh6ugA38aUK/hirDdQ/IXQJiTaymMnpXkKf8AAmn4Yqx+7/5x/u1J
+rXPL/ZrT8VGKofyz5FmsfMC6HLKZZXkUTkdERRzYChI+zX6cvhtG0PeAEjjCqAqoKKo6ADYDKEo
cnCq0nCq0nFVhOKrScVWk4VWk4qsJxVaTihaThVaTiqwnFVpOKrScKrScVRWlXHpXYUn4ZPhPz7Y
JBUt/Njy4dc8mXaxJyu7H/S7anUmMHmv+yjLbeNMjA0UvDPJ3kY+aEkaGdvXibjJFsDSnwkEg7Uw
zFFQzez/ACHeo9bkR/lyA/8AEeByCsg078ldKtyDIIgR3A5n/hwf14qyrTvImh2fE8DIy9K7D+JH
34qyCGCGCMRwoEQdFUUxVfirsVdirsVdirsVdiqH1C9isbGe8l/u4EaRh48RWn09MIFlWF/lvZS3
Vxf69c/FNO5jjY+LHnIR+Ay3KeiAzedqAL9OVBKgThVaTiqwnFVpOKrScKrScVWE4qtJxQtJwqtJ
xVYTiq0nFVpOFVpOKrScVW8iDUbEd8VZPaTrcWqSdeQow9+hyshLwLT+fkT8259PHwWF1IPq46Ax
S/HF91TH9+WHcIfQSOrorqaqwDKfEHfKkt4q7FXYq7FXYq7FXYq7FXYq7FWF/mdqTRabb6bFUyXj
1dR1KRkED6XI+7LcQ3tBZLoOmLpmj2tiPtRIPUI7u3xOf+CJyEjZSjiiE1IqcirXpR/yjFWvRi/l
GKu9CH+UY2rX1eH+QY2rvq0H8gxtXfVoP5BhtWvqtv8A77GNq76pbf77GNq19Ttv99jG1d9Stf8A
fYxtWvqNp/voY2rvqNp/vpcbV31Cz/30uNq1+j7L/fK42Vd+jrL/AHyuNlWv0bY/75XGyqtDDFCv
CJQi1rQeOC1eR/8AOQvl9307T/MlsCJ7CQW87r1Ech5Rsf8AVkFP9llmM9EFm/5ceYF1vytaXNf3
gQCQeB6EfQwIyBFJZRgV2KuxV2KuxV2KuxV2KuxV2KsR89+Wb7Ufq+o6eSbu0FPTFeTAHkpT/KBy
yE65oLCzqXnYEg3V2COoLPk+OHcrX6T86/8ALXd/8G+PHDuV36T86/8ALXd/8G+PHDuV36T86/8A
LXd/8G+PHDuVadS879ru7/4N8eKHcq06j567Xl3/AMG+Dij3Kpm/8/dr27/4N8eKPcqw3v5g9r67
/wCRj48Ue5VhvPzE7X93/wAjHx4o9yrDdfmR21C7/wCRr48Ue5VhuPzL7ajd/wDI2THij3KsM35n
dtSu/wDkbJjxR7lWGX80e2p3f/I6T+mDiiqwv+avbVLv/kdJ/THiiqwn82O2q3f/ACOk/pjxRVYf
+Vt9tWu/+R8n9MeKKrCv5v8AbVrv/kfL/THiiqwx/nF21e7/AOR8v9MeKKrDF+cv/V4u/wDpIl/p
jxRVD32kfmtqVq9lqGpT3FnNQSwyzSOjcSGFVINaEA48UVeqflHod5o+nC1kqYlVuTEUHJmDfrr9
GVk2UvQ8CuxV2KuxV2KuxV2KuxV2KuxV2KuxV2KuxV2KuxV2KuxV2KuxV2KuxV2KuxV2KuxV2Kux
V2KuxV2KuxV2KuxV2KuxV2Kv/9k=</xapGImg:image>

              </rdf:li>

            </rdf:Alt>

          </xap:Thumbnails>

        </rdf:Description>

        <rdf:Description
   rdf:about="uuid:bcb648b3-15a3-41a4-815d-774960d2ac54"
   id="Description5891">
          <xapMM:DocumentID
   id="DocumentID5893">
uuid:d239e853-732f-4c92-b61f-ae7afe52f4ba</xapMM:DocumentID>

        </rdf:Description>

        <rdf:Description
   rdf:about="uuid:bcb648b3-15a3-41a4-815d-774960d2ac54"
   id="Description5897">
          <dc:format
   id="format5899">
image/svg+xml</dc:format>

        </rdf:Description>

      <cc:Work
   rdf:about=""
   id="Work6258">
  <dc:format
     id="format6259">image/svg+xml</dc:format>
  <dc:type
     id="type6261"
     rdf:resource="http://purl.org/dc/dcmitype/StillImage" />
</cc:Work>
</rdf:RDF>
</metadata>
</x:xmpmeta>

    <xpacket
   id="xpacket5905">end='w'    </xpacket>

  </metadata>

  <g
   id="Layer_2"
   transform="matrix(1.058011,0.000000,0.000000,1.077347,-1.325967,-1.458564)">
    <path
   style="opacity:0.20000000"
   d="M 46.563000,28.461000 C 46.563000,25.750000 46.252000,20.891000 44.172000,18.811000 C 43.129000,17.770000 40.484000,17.018000 36.114000,16.512000 C 35.992000,15.853000 35.444000,15.352000 34.777000,15.293000 C 34.621000,15.279000 34.460000,15.267000 34.301000,15.253000 L 34.301000,2.7840000 C 34.301000,2.3840000 33.975000,2.0580000 33.575000,2.0580000 L 15.023000,2.0580000 C 14.623000,2.0580000 14.297000,2.3840000 14.297000,2.7840000 L 14.297000,15.263000 C 14.142000,15.277000 13.984000,15.288000 13.831000,15.302000 C 13.165000,15.363000 12.616000,15.864000 12.495000,16.521000 C 8.1040000,17.030000 5.4540000,17.779000 4.4220000,18.811000 C 2.3460000,20.887000 2.0360000,25.796000 2.0360000,28.538000 C 2.0360000,33.133000 2.8720000,38.854000 4.4220000,40.404000 C 5.0620000,41.045000 7.2590000,41.467000 10.203000,41.742000 C 8.8090000,45.270000 8.7450000,45.515000 8.7450000,45.752000 C 8.7450000,46.152000 9.0710000,46.479000 9.4710000,46.479000 L 39.239000,46.479000 C 39.639000,46.479000 39.965000,46.153000 39.965000,45.752000 C 39.965000,45.512000 39.898000,45.266000 38.457000,41.714000 C 41.327000,41.443000 43.549000,41.029000 44.173000,40.404000 C 45.821000,38.756000 46.563000,32.427000 46.563000,28.461000 z "
   id="path1060" />

    <path
   style="opacity:0.20000000"
   d="M 46.199000,28.244000 C 46.199000,25.533000 45.889000,20.675000 43.808000,18.595000 C 42.765000,17.554000 40.121000,16.802000 35.750000,16.296000 C 35.628000,15.637000 35.081000,15.136000 34.414000,15.077000 C 34.258000,15.063000 34.096000,15.051000 33.937000,15.037000 L 33.937000,2.5680000 C 33.937000,2.1680000 33.612000,1.8420000 33.211000,1.8420000 L 14.660000,1.8420000 C 14.260000,1.8420000 13.934000,2.1680000 13.934000,2.5680000 L 13.934000,15.047000 C 13.779000,15.061000 13.621000,15.072000 13.468000,15.086000 C 12.802000,15.147000 12.253000,15.648000 12.132000,16.305000 C 7.7410000,16.814000 5.0910000,17.563000 4.0590000,18.595000 C 1.9830000,20.671000 1.6730000,25.580000 1.6730000,28.322000 C 1.6730000,32.918000 2.5090000,38.639000 4.0590000,40.189000 C 4.6990000,40.829000 6.8960000,41.252000 9.8400000,41.526000 C 8.4470000,45.055000 8.3820000,45.299000 8.3820000,45.537000 C 8.3820000,45.937000 8.7070000,46.263000 9.1080000,46.263000 L 38.876000,46.263000 C 39.276000,46.263000 39.603000,45.938000 39.603000,45.537000 C 39.603000,45.297000 39.536000,45.050000 38.094000,41.499000 C 40.964000,41.228000 43.187000,40.813000 43.810000,40.189000 C 45.458000,38.539000 46.199000,32.211000 46.199000,28.244000 z "
   id="path1061" />

    <linearGradient
   id="XMLID_15_"
   gradientUnits="userSpaceOnUse"
   x1="23.700701"
   y1="41.675800"
   x2="23.700701"
   y2="14.329600">
      <stop
   offset="0"
   style="stop-color:#616161"
   id="stop1063" />

      <stop
   offset="0.5225"
   style="stop-color:#555555"
   id="stop1064" />

      <stop
   offset="1"
   style="stop-color:#494949"
   id="stop1065" />

      <a:midPointStop
   offset="0"
   style="stop-color:#616161"
   id="midPointStop1066" />

      <a:midPointStop
   offset="0.5"
   style="stop-color:#616161"
   id="midPointStop1067" />

      <a:midPointStop
   offset="0.5225"
   style="stop-color:#555555"
   id="midPointStop1068" />

      <a:midPointStop
   offset="0.5"
   style="stop-color:#555555"
   id="midPointStop1069" />

      <a:midPointStop
   offset="1"
   style="stop-color:#494949"
   id="midPointStop1070" />

    </linearGradient>

    <path
   style="fill:url(#linearGradient6262)"
   d="M 13.232000,14.766000 L 13.232000,14.766000 C 12.566000,14.826000 12.017000,15.327000 11.895000,15.985000 C 7.5040000,16.494000 4.8550000,17.242000 3.8230000,18.275000 C 1.7470000,20.351000 1.4370000,25.260000 1.4370000,28.002000 C 1.4370000,32.598000 2.2730000,38.318000 3.8230000,39.869000 C 5.3310000,41.377000 15.476000,41.683000 23.720000,41.677000 C 30.465000,41.672000 42.012000,41.431000 43.573000,39.869000 C 45.221000,38.220000 45.964000,31.890000 45.964000,27.925000 C 45.964000,25.214000 45.653000,20.356000 43.573000,18.276000 C 42.530000,17.234000 39.885000,16.483000 35.515000,15.976000 C 35.393000,15.317000 34.845000,14.816000 34.178000,14.757000 C 27.836000,14.184000 19.615000,14.188000 13.232000,14.766000 z M 11.895000,15.986000 L 11.895000,15.987000 C 11.895000,15.986000 11.895000,15.986000 11.895000,15.986000 z "
   id="path1071" />

    <linearGradient
   id="XMLID_16_"
   gradientUnits="userSpaceOnUse"
   x1="23.700701"
   y1="40.502899"
   x2="23.700701"
   y2="29.894501">
      <stop
   offset="0"
   style="stop-color:#CECEDB"
   id="stop1073" />

      <stop
   offset="0.1854"
   style="stop-color:#E9E9EF"
   id="stop1074" />

      <stop
   offset="0.5225"
   style="stop-color:#CECEDB"
   id="stop1075" />

      <stop
   offset="1"
   style="stop-color:#B1B1C5"
   id="stop1076" />

      <a:midPointStop
   offset="0"
   style="stop-color:#CECEDB"
   id="midPointStop1077" />

      <a:midPointStop
   offset="0.5"
   style="stop-color:#CECEDB"
   id="midPointStop1078" />

      <a:midPointStop
   offset="0.1854"
   style="stop-color:#E9E9EF"
   id="midPointStop1079" />

      <a:midPointStop
   offset="0.5"
   style="stop-color:#E9E9EF"
   id="midPointStop1080" />

      <a:midPointStop
   offset="0.5225"
   style="stop-color:#CECEDB"
   id="midPointStop1081" />

      <a:midPointStop
   offset="0.5"
   style="stop-color:#CECEDB"
   id="midPointStop1082" />

      <a:midPointStop
   offset="1"
   style="stop-color:#B1B1C5"
   id="midPointStop1083" />

    </linearGradient>

    <path
   style="fill:url(#linearGradient6263)"
   d="M 4.5520000,39.501000 C 6.5890000,41.538000 40.864000,41.480000 42.843000,39.501000 C 44.822000,37.522000 46.334000,22.858000 42.843000,19.367000 C 39.352000,15.875000 7.9860000,15.933000 4.5520000,19.367000 C 1.1190000,22.800000 2.5160000,37.465000 4.5520000,39.501000 z "
   id="path1084" />

    <linearGradient
   id="XMLID_17_"
   gradientUnits="userSpaceOnUse"
   x1="23.701700"
   y1="32.068401"
   x2="23.701700"
   y2="1.5501000">
      <stop
   offset="0"
   style="stop-color:#F7F7F7"
   id="stop1086" />

      <stop
   offset="0.2346"
   style="stop-color:#F3F3F4"
   id="stop1087" />

      <stop
   offset="0.4771"
   style="stop-color:#E6E6EB"
   id="stop1088" />

      <stop
   offset="0.723"
   style="stop-color:#D2D2DC"
   id="stop1089" />

      <stop
   offset="0.9701"
   style="stop-color:#B5B5C8"
   id="stop1090" />

      <stop
   offset="1"
   style="stop-color:#B1B1C5"
   id="stop1091" />

      <a:midPointStop
   offset="0"
   style="stop-color:#F7F7F7"
   id="midPointStop1092" />

      <a:midPointStop
   offset="0.7006"
   style="stop-color:#F7F7F7"
   id="midPointStop1093" />

      <a:midPointStop
   offset="1"
   style="stop-color:#B1B1C5"
   id="midPointStop1094" />

    </linearGradient>

    <path
   style="fill:url(#linearGradient6264)"
   d="M 23.701000,31.341000 C 32.160000,31.341000 39.746000,29.689000 44.909000,27.073000 C 44.791000,23.639000 44.189000,20.510000 42.843000,19.109000 C 39.352000,15.476000 7.9860000,15.537000 4.5520000,19.109000 C 3.2230000,20.492000 2.6180000,23.629000 2.4930000,27.074000 C 7.6570000,29.689000 15.243000,31.341000 23.701000,31.341000 z "
   id="path1095" />

    <linearGradient
   id="XMLID_18_"
   gradientUnits="userSpaceOnUse"
   x1="23.701700"
   y1="31.458000"
   x2="23.701700"
   y2="2.1292000">
      <stop
   offset="0"
   style="stop-color:#F7F7F7"
   id="stop1097" />

      <stop
   offset="0.5056"
   style="stop-color:#BDBDCF"
   id="stop1098" />

      <stop
   offset="1"
   style="stop-color:#B1B1C5"
   id="stop1099" />

      <a:midPointStop
   offset="0"
   style="stop-color:#F7F7F7"
   id="midPointStop1100" />

      <a:midPointStop
   offset="0.5085"
   style="stop-color:#F7F7F7"
   id="midPointStop1101" />

      <a:midPointStop
   offset="0.5056"
   style="stop-color:#BDBDCF"
   id="midPointStop1102" />

      <a:midPointStop
   offset="0.5"
   style="stop-color:#BDBDCF"
   id="midPointStop1103" />

      <a:midPointStop
   offset="1"
   style="stop-color:#B1B1C5"
   id="midPointStop1104" />

    </linearGradient>

    <path
   style="fill:url(#linearGradient6265)"
   d="M 23.701000,30.759000 C 32.160000,30.759000 39.746000,29.171000 44.909000,26.658000 C 44.791000,23.357000 44.189000,20.350000 42.843000,19.004000 C 39.352000,15.512000 7.9860000,15.570000 4.5520000,19.004000 C 3.2230000,20.333000 2.6180000,23.347000 2.4930000,26.659000 C 7.6570000,29.172000 15.243000,30.759000 23.701000,30.759000 z "
   id="path1105" />

    <rect
   x="8.8050003"
   y="36.877998"
   style="opacity:0.80000001;fill:#ffffff"
   width="30.013000"
   height="0.74800003"
   id="rect1106" />

    <linearGradient
   id="XMLID_19_"
   gradientUnits="userSpaceOnUse"
   x1="20.985800"
   y1="39.322300"
   x2="31.818399"
   y2="50.154800">
      <stop
   offset="0"
   style="stop-color:#9A9AB1"
   id="stop1108" />

      <stop
   offset="1"
   style="stop-color:#585868"
   id="stop1109" />

      <a:midPointStop
   offset="0"
   style="stop-color:#9A9AB1"
   id="midPointStop1110" />

      <a:midPointStop
   offset="0.5"
   style="stop-color:#9A9AB1"
   id="midPointStop1111" />

      <a:midPointStop
   offset="1"
   style="stop-color:#585868"
   id="midPointStop1112" />

    </linearGradient>

    <path
   style="fill:url(#linearGradient6266)"
   d="M 12.828000,34.119000 C 12.458000,34.119000 12.139000,34.522000 12.100000,34.884000 C 12.101000,34.871000 12.102000,34.858000 12.102000,34.845000 C 12.102000,34.831000 12.090000,34.823000 12.088000,34.809000 C 11.934000,35.315000 11.139000,37.330000 10.187000,39.732000 C 8.2260000,44.676000 8.1450000,44.950000 8.1450000,45.216000 C 8.1450000,45.616000 8.4700000,45.942000 8.8710000,45.942000 L 38.640000,45.942000 C 39.039000,45.942000 39.366000,45.617000 39.366000,45.216000 C 39.366000,44.946000 39.283000,44.673000 37.279000,39.753000 C 36.435000,37.682000 35.716000,35.908000 35.425000,35.116000 C 35.360000,35.058000 35.315000,34.978000 35.304000,34.885000 C 35.265000,34.524000 34.945000,34.119000 34.576000,34.119000 L 12.828000,34.119000 z M 11.425000,34.716000 C 11.457000,34.854000 11.550000,34.972000 11.696000,34.999000 C 11.862000,35.029000 12.011000,34.932000 12.078000,34.783000 C 12.049000,34.631000 11.940000,34.502000 11.777000,34.484000 C 11.615000,34.467000 11.486000,34.572000 11.425000,34.716000 z "
   id="path1113" />

    <linearGradient
   id="XMLID_20_"
   gradientUnits="userSpaceOnUse"
   x1="23.701700"
   y1="31.960899"
   x2="23.701700"
   y2="37.149399">
      <stop
   offset="0"
   style="stop-color:#B2B2B2"
   id="stop1115" />

      <stop
   offset="1"
   style="stop-color:#828282"
   id="stop1116" />

      <a:midPointStop
   offset="0"
   style="stop-color:#B2B2B2"
   id="midPointStop1117" />

      <a:midPointStop
   offset="0.5"
   style="stop-color:#B2B2B2"
   id="midPointStop1118" />

      <a:midPointStop
   offset="1"
   style="stop-color:#828282"
   id="midPointStop1119" />

    </linearGradient>

    <path
   style="opacity:0.80000001;fill:url(#linearGradient6267)"
   d="M 37.896000,31.961000 L 37.896000,37.149000 C 38.262000,37.149000 38.518000,37.149000 38.637000,37.149000 C 38.638000,35.873000 37.896000,31.961000 37.896000,31.961000 z M 8.7660000,37.149000 C 8.8990000,37.149000 9.1510000,37.149000 9.4990000,37.149000 L 9.4990000,31.961000 C 9.4990000,31.961000 8.7660000,35.873000 8.7660000,37.149000 z "
   id="path1120" />

    <linearGradient
   id="XMLID_21_"
   gradientUnits="userSpaceOnUse"
   x1="23.697800"
   y1="37.043900"
   x2="23.697800"
   y2="32.738300">
      <stop
   offset="0"
   style="stop-color:#666666"
   id="stop1122" />

      <stop
   offset="1"
   style="stop-color:#333333"
   id="stop1123" />

      <a:midPointStop
   offset="0"
   style="stop-color:#666666"
   id="midPointStop1124" />

      <a:midPointStop
   offset="0.5"
   style="stop-color:#666666"
   id="midPointStop1125" />

      <a:midPointStop
   offset="1"
   style="stop-color:#333333"
   id="midPointStop1126" />

    </linearGradient>

    <rect
   x="9.4989996"
   y="32.737999"
   style="fill:url(#linearGradient6268)"
   width="28.396999"
   height="4.3060002"
   id="rect1127" />

    <path
   style="opacity:0.49999997;fill:#ffffff"
   d="M 34.065000,19.702000 C 37.448000,19.702000 40.695000,19.915000 43.718000,20.306000 C 43.470000,19.783000 43.180000,19.341000 42.842000,19.004000 C 39.351000,15.512000 7.9850000,15.570000 4.5510000,19.004000 C 3.2220000,20.333000 2.6170000,23.347000 2.4920000,26.659000 C 3.4480000,27.124000 4.4870000,27.558000 5.5980000,27.955000 C 8.7700000,23.215000 20.311000,19.702000 34.065000,19.702000 z "
   id="path1128" />

    <g
   id="g1129">
      <circle
   style="fill:#336666"
   cx="39.937000"
   cy="22.176001"
   r="0.97200000"
   id="circle1130"
   sodipodi:cx="39.937000"
   sodipodi:cy="22.176001"
   sodipodi:rx="0.97200000"
   sodipodi:ry="0.97200000" />

      <linearGradient
   id="XMLID_22_"
   gradientUnits="userSpaceOnUse"
   x1="-6.4966002"
   y1="-38.180698"
   x2="-6.3817000"
   y2="-37.491199"
   gradientTransform="matrix(0.707100,-0.707100,0.707100,0.707100,71.52200,44.57710)">
        <stop
   offset="0"
   style="stop-color:#72C296"
   id="stop1132" />

        <stop
   offset="1"
   style="stop-color:#009F81"
   id="stop1133" />

        <a:midPointStop
   offset="0"
   style="stop-color:#72C296"
   id="midPointStop1134" />

        <a:midPointStop
   offset="0.5"
   style="stop-color:#72C296"
   id="midPointStop1135" />

        <a:midPointStop
   offset="1"
   style="stop-color:#009F81"
   id="midPointStop1136" />

      </linearGradient>

      <path
   style="fill:url(#linearGradient6269)"
   d="M 40.235000,21.398000 C 39.876000,21.429000 39.347000,21.795000 39.174000,22.241000 C 39.003000,22.686000 39.277000,22.985000 39.636000,22.954000 C 39.996000,22.924000 40.526000,22.557000 40.697000,22.112000 C 40.868000,21.667000 40.594000,21.368000 40.235000,21.398000 z "
   id="path1137" />

      <linearGradient
   id="XMLID_23_"
   gradientUnits="userSpaceOnUse"
   x1="-6.3134999"
   y1="-38.719200"
   x2="-6.3134999"
   y2="-38.160900"
   gradientTransform="matrix(0.707100,-0.707100,0.707100,0.707100,71.52200,44.57710)">
        <stop
   offset="0"
   style="stop-color:#FFFFFF"
   id="stop1139" />

        <stop
   offset="1"
   style="stop-color:#33CC66"
   id="stop1140" />

        <a:midPointStop
   offset="0"
   style="stop-color:#FFFFFF"
   id="midPointStop1141" />

        <a:midPointStop
   offset="0.5"
   style="stop-color:#FFFFFF"
   id="midPointStop1142" />

        <a:midPointStop
   offset="1"
   style="stop-color:#33CC66"
   id="midPointStop1143" />

      </linearGradient>

      <path
   style="fill:url(#linearGradient6270)"
   d="M 40.238000,21.388000 C 39.932000,21.415000 39.475000,21.728000 39.320000,22.107000 C 39.291000,22.178000 39.275000,22.244000 39.271000,22.305000 C 39.485000,22.249000 39.708000,22.170000 39.917000,22.072000 C 40.297000,21.894000 40.541000,21.696000 40.600000,21.541000 C 40.525000,21.432000 40.392000,21.374000 40.238000,21.388000 z "
   id="path1144" />

    </g>

    <path
   style="fill:#ffffff"
   d="M 44.908000,26.618000 C 44.892000,26.222000 44.872000,25.831000 44.843000,25.446000 C 44.872000,25.831000 44.893000,26.223000 44.908000,26.618000 z "
   id="path1145" />

    <path
   style="fill:#ffffff"
   d="M 44.908000,26.618000 C 44.908000,26.631000 44.908000,26.645000 44.908000,26.658000 C 44.909000,26.658000 44.909000,26.658000 44.909000,26.658000 C 44.909000,26.645000 44.908000,26.631000 44.908000,26.618000 z "
   id="path1146" />

    <path
   style="fill:#ffffff"
   d="M 36.536000,29.442000 C 35.990000,25.495000 35.198000,20.019000 34.503000,16.164000 C 34.465000,15.957000 34.295000,15.802000 34.087000,15.783000 C 27.799000,15.217000 19.649000,15.220000 13.326000,15.794000 C 13.118000,15.813000 12.948000,15.968000 12.910000,16.174000 C 12.206000,20.032000 11.389000,25.497000 10.824000,29.435000 C 14.683000,30.280000 19.060000,30.759000 23.701000,30.759000 C 28.324000,30.759000 32.687000,30.283000 36.536000,29.442000 z "
   id="path1147" />

    <linearGradient
   id="XMLID_24_"
   gradientUnits="userSpaceOnUse"
   x1="23.679199"
   y1="30.654301"
   x2="23.679199"
   y2="15.826200">
      <stop
   offset="0"
   style="stop-color:#949494"
   id="stop1149" />

      <stop
   offset="1"
   style="stop-color:#616161"
   id="stop1150" />

      <a:midPointStop
   offset="0"
   style="stop-color:#949494"
   id="midPointStop1151" />

      <a:midPointStop
   offset="0.5"
   style="stop-color:#949494"
   id="midPointStop1152" />

      <a:midPointStop
   offset="1"
   style="stop-color:#616161"
   id="midPointStop1153" />

    </linearGradient>

    <path
   style="fill:url(#linearGradient6271)"
   d="M 13.368000,16.254000 C 12.638000,20.227000 11.780000,25.979000 11.272000,29.487000 C 15.046000,30.236000 19.258000,30.654000 23.701000,30.654000 C 28.128000,30.654000 32.324000,30.238000 36.086000,29.496000 C 35.598000,25.986000 34.768000,20.221000 34.045000,16.243000 C 27.759000,15.681000 19.655000,15.688000 13.368000,16.254000 z "
   id="path1154" />

    <linearGradient
   id="XMLID_25_"
   gradientUnits="userSpaceOnUse"
   x1="23.700701"
   y1="4.5127001"
   x2="23.700701"
   y2="19.908199">
      <stop
   offset="0"
   style="stop-color:#9A9AB1"
   id="stop1156" />

      <stop
   offset="1"
   style="stop-color:#585868"
   id="stop1157" />

      <a:midPointStop
   offset="0"
   style="stop-color:#9A9AB1"
   id="midPointStop1158" />

      <a:midPointStop
   offset="0.5"
   style="stop-color:#9A9AB1"
   id="midPointStop1159" />

      <a:midPointStop
   offset="1"
   style="stop-color:#585868"
   id="midPointStop1160" />

    </linearGradient>

    <path
   style="fill:url(#linearGradient6272)"
   d="M 14.424000,1.5220000 C 14.023000,1.5220000 13.698000,1.8470000 13.698000,2.2480000 L 13.698000,24.874000 C 13.698000,25.274000 14.023000,25.600000 14.424000,25.600000 L 32.976000,25.600000 C 33.376000,25.600000 33.703000,25.275000 33.703000,24.874000 L 33.703000,2.2480000 C 33.703000,1.8470000 33.377000,1.5220000 32.976000,1.5220000 L 14.424000,1.5220000 L 14.424000,1.5220000 z "
   id="path1161" />

    <path
   style="fill:#ffffff"
   d="M 14.424000,2.2480000 C 14.424000,2.6540000 14.424000,24.469000 14.424000,24.874000 C 14.828000,24.874000 32.573000,24.874000 32.976000,24.874000 C 32.976000,24.469000 32.976000,2.6540000 32.976000,2.2480000 C 32.573000,2.2480000 14.828000,2.2480000 14.424000,2.2480000 z "
   id="path1162" />

    <linearGradient
   id="XMLID_26_"
   gradientUnits="userSpaceOnUse"
   x1="12.678700"
   y1="2.5386000"
   x2="32.335499"
   y2="22.195601">
      <stop
   offset="0.3202"
   style="stop-color:#FFFFFF"
   id="stop1164" />

      <stop
   offset="0.6236"
   style="stop-color:#E6EEF6"
   id="stop1165" />

      <stop
   offset="0.9382"
   style="stop-color:#CECEDB"
   id="stop1166" />

      <a:midPointStop
   offset="0.3202"
   style="stop-color:#FFFFFF"
   id="midPointStop1167" />

      <a:midPointStop
   offset="0.5"
   style="stop-color:#FFFFFF"
   id="midPointStop1168" />

      <a:midPointStop
   offset="0.6236"
   style="stop-color:#E6EEF6"
   id="midPointStop1169" />

      <a:midPointStop
   offset="0.5"
   style="stop-color:#E6EEF6"
   id="midPointStop1170" />

      <a:midPointStop
   offset="0.9382"
   style="stop-color:#CECEDB"
   id="midPointStop1171" />

    </linearGradient>

    <path
   style="fill:url(#linearGradient6273)"
   d="M 15.875000,3.6990000 C 15.875000,6.0680000 15.875000,21.054000 15.875000,23.422000 C 18.132000,23.422000 29.268000,23.422000 31.525000,23.422000 C 31.525000,21.054000 31.525000,6.0680000 31.525000,3.6990000 C 29.269000,3.6990000 18.133000,3.6990000 15.875000,3.6990000 z "
   id="path1172" />

    <path
   style="fill:#ffffff"
   d="M 12.828000,34.845000 C 12.828000,35.241000 8.8710000,44.821000 8.8710000,45.216000 C 9.8650000,45.216000 37.646000,45.216000 38.639000,45.216000 C 38.639000,44.820000 34.575000,35.240000 34.575000,34.845000 C 33.582000,34.845000 13.822000,34.845000 12.828000,34.845000 z "
   id="path1173" />

    <linearGradient
   id="XMLID_27_"
   gradientUnits="userSpaceOnUse"
   x1="14.500500"
   y1="32.291000"
   x2="35.789902"
   y2="53.580601">
      <stop
   offset="0"
   style="stop-color:#FFFFFF"
   id="stop1175" />

      <stop
   offset="1"
   style="stop-color:#CECEDB"
   id="stop1176" />

      <a:midPointStop
   offset="0"
   style="stop-color:#FFFFFF"
   id="midPointStop1177" />

      <a:midPointStop
   offset="0.5"
   style="stop-color:#FFFFFF"
   id="midPointStop1178" />

      <a:midPointStop
   offset="1"
   style="stop-color:#CECEDB"
   id="midPointStop1179" />

    </linearGradient>

    <path
   style="fill:url(#linearGradient6274)"
   d="M 13.871000,36.297000 C 13.577000,37.081000 13.074000,38.361000 12.201000,40.562000 C 11.798000,41.578000 11.319000,42.786000 10.939000,43.764000 C 14.249000,43.764000 33.214000,43.764000 36.553000,43.764000 C 36.163000,42.787000 35.674000,41.586000 35.262000,40.575000 C 34.362000,38.366000 33.844000,37.082000 33.542000,36.298000 C 31.761000,36.297000 15.666000,36.297000 13.871000,36.297000 z "
   id="path1180" />

    <path
   style="fill:#0053bd"
   d="M 13.770000,19.497000 C 13.068000,22.386000 12.244000,26.568000 11.756000,29.119000 C 15.382000,29.663000 19.430000,29.968000 23.701000,29.968000 C 27.955000,29.968000 31.988000,29.665000 35.604000,29.125000 C 35.134000,26.573000 34.335000,22.382000 33.641000,19.490000 C 27.599000,19.080000 19.812000,19.086000 13.770000,19.497000 z "
   id="path1181" />

    <linearGradient
   id="XMLID_28_"
   gradientUnits="userSpaceOnUse"
   x1="23.679199"
   y1="19.698700"
   x2="23.679199"
   y2="28.978600">
      <stop
   offset="0"
   style="stop-color:#F7F7F7"
   id="stop1183" />

      <stop
   offset="0.0425"
   style="stop-color:#E5F0F8"
   id="stop1184" />

      <stop
   offset="0.3388"
   style="stop-color:#6BC2FC"
   id="stop1185" />

      <stop
   offset="0.5419"
   style="stop-color:#1EA4FE"
   id="stop1186" />

      <stop
   offset="0.6348"
   style="stop-color:#0099FF"
   id="stop1187" />

      <stop
   offset="1"
   style="stop-color:#006DFF"
   id="stop1188" />

      <a:midPointStop
   offset="0"
   style="stop-color:#F7F7F7"
   id="midPointStop1189" />

      <a:midPointStop
   offset="0.4689"
   style="stop-color:#F7F7F7"
   id="midPointStop1190" />

      <a:midPointStop
   offset="0.6348"
   style="stop-color:#0099FF"
   id="midPointStop1191" />

      <a:midPointStop
   offset="0.5"
   style="stop-color:#0099FF"
   id="midPointStop1192" />

      <a:midPointStop
   offset="1"
   style="stop-color:#006DFF"
   id="midPointStop1193" />

    </linearGradient>

    <path
   style="fill:url(#linearGradient6275)"
   d="M 13.770000,19.981000 C 13.068000,22.901000 12.244000,27.128000 11.756000,29.709000 C 15.382000,30.259000 19.430000,30.566000 23.701000,30.566000 C 27.955000,30.566000 31.988000,30.260000 35.604000,29.714000 C 35.134000,27.134000 34.335000,22.897000 33.641000,19.973000 C 27.599000,19.560000 19.812000,19.565000 13.770000,19.981000 z "
   id="path1194" />

    <path
   style="opacity:0.40000001;fill:#ffffff"
   d="M 33.717000,21.215000 C 33.784000,21.215000 33.852000,21.216000 33.920000,21.217000 C 33.825000,20.786000 33.732000,20.370000 33.641000,19.979000 C 27.599000,19.558000 19.812000,19.563000 13.770000,19.987000 C 13.101000,22.819000 12.322000,26.856000 11.828000,29.501000 C 15.072000,24.667000 23.647000,21.215000 33.717000,21.215000 z "
   id="path1195" />

    <path
   style="opacity:0.20000000"
   d="M 35.055000,37.121000 C 34.762000,35.782000 34.576000,34.871000 34.576000,34.720000 C 33.583000,34.720000 13.823000,34.720000 12.829000,34.720000 C 12.829000,34.871000 12.647000,35.783000 12.363000,37.121000 L 35.055000,37.121000 L 35.055000,37.121000 z "
   id="path1196" />

    <polyline
   id="_x3C_Slice_x3E_"
   style="fill:none"
   points="0,48 0,0 48,0 48,48 " />

  </g>

</svg>
