<svg xmlns="http://www.w3.org/2000/svg" viewBox="0 0 64 64"><defs><radialGradient cx="289.5" cy="97.41" id="a" r="432.91" gradientUnits="userSpaceOnUse"><stop stop-color="#daffff"/><stop offset="1" stop-color="#008ffd"/></radialGradient><radialGradient cx="245.25" cy="135.33" id="b" r="287.97" gradientUnits="userSpaceOnUse" gradientTransform="scale(1.30342.76722)"><stop stop-color="#fff"/><stop offset="1" stop-color="#fff" stop-opacity="0"/></radialGradient><radialGradient cx="226.25" cy="791.98" id="c" r="149.54" gradientUnits="userSpaceOnUse" gradientTransform="scale(1.53397.6519)"><stop stop-color="#fff" stop-opacity=".471"/><stop offset="1" stop-color="#fff" stop-opacity="0"/></radialGradient></defs><g fill-rule="evenodd" transform="matrix(2.31633 0 0 2.31631-368.52-647.04)"><circle fill="url(#a)" cx="318.75" cy="301.79" stroke="#0070ca" r="233.04" stroke-width="37" transform="matrix(.05492 0 0 .05492 155.41 276.58)"/><g stroke-width="1.25"><path fill="url(#b)" fill-opacity=".555" d="m530.36 217.86c-83.928-233.04-448.21-184.82-437.5 109.82 274.11 8.04 144.64-95.53 437.5-109.82" transform="matrix(.05492 0 0 .05492 155.2 276.76)"/><path fill="url(#c)" fill-opacity=".616" d="m524.11 400c-78.57 141.07-243.75 160.72-348.21 77.68 142.86-160.71 348.21-76.79 348.21-77.68" transform="matrix(.05492 0 0 .05492 155.1 276.61)"/><g fill="#000082"><path d="m170.64 283.32h4.701v19.478h-4.701z"/><path d="m-363.27 219.71h18.382v76.16h-18.382z" transform="matrix(0-.25576.25576 0 107.05 202.5)"/></g></g></g></svg>