<svg xmlns="http://www.w3.org/2000/svg" viewBox="0 0 154.98 146.55" xmlns:xlink="http://www.w3.org/1999/xlink"><defs><linearGradient id="a"><stop stop-color="#fff"/><stop offset="1" stop-color="#fff" stop-opacity="0"/></linearGradient><radialGradient cx="212.35" cy="832.25" r="124.38" id="b" xlink:href="#a" gradientUnits="userSpaceOnUse" gradientTransform="scale(1.26691.78932)"/><linearGradient id="c" y1="759.36" y2="681.88" x1="223.84" x2="161.42" gradientUnits="userSpaceOnUse" gradientTransform="scale(1.24697.80194)"><stop stop-color="#007d00"/><stop offset="1" stop-color="#1dff00"/></linearGradient><radialGradient cx="192.37" cy="673.23" r="70.33" id="d" xlink:href="#a" gradientUnits="userSpaceOnUse" gradientTransform="scale(1.26691.78932)"/><path fill-rule="evenodd" stroke="#005e00" stroke-linejoin="round" id="e" stroke-width="8.668" d="m320.38 567.23c-48.14-63.901-120.8-35.89-125.17 10.504-13.13-.875-28.886-.875-28.886 0 0 .875 46.39 49.02 47.27 48.14.875-.876 51.646-46.39 50.771-45.519-.876.876-31.513-.874-31.513-.874 2.626-32.389 46.39-34.14 87.53-12.256z"/><path fill-rule="evenodd" stroke-linejoin="round" id="f" stroke-width="4.625" d="m320.38 567.23c-48.14-63.901-120.8-35.89-125.17 10.504-13.13-.875-28.886-.875-28.886 0 0 .875 46.39 49.02 47.27 48.14.875-.876 51.646-46.39 50.771-45.519-.876.876-31.513-.874-31.513-.874 2.626-32.389 46.39-34.14 87.53-12.256"/><linearGradient id="g" xlink:href="#c" y1="678.85" y2="747.13" x1="235.19" x2="217.53" gradientUnits="userSpaceOnUse" gradientTransform="scale(1.24697.80194)"/></defs><g transform="matrix(2.13849 0 0 2.13849-26.23-52.49)"><use width="154.98" fill="url(#g)" height="146.55" xlink:href="#e" transform="matrix(-.37945 0 0-.37945 146.2 289.47)"/><use width="154.98" fill="url(#b)" height="146.55" xlink:href="#f" transform="matrix(-.37945 0 0-.37945 146.2 289.47)"/><use width="154.98" fill="url(#c)" height="146.55" xlink:href="#e" transform="matrix(.37945 0 0 .37945-49.2-171.85)"/><use width="154.98" fill="url(#d)" height="146.55" xlink:href="#f" transform="matrix(.37945 0 0 .37945-49.2-171.85)"/></g></svg>