<svg width="60" xmlns="http://www.w3.org/2000/svg" viewBox="0 0 125.957 125.956" height="60" xmlns:xlink="http://www.w3.org/1999/xlink"><defs><linearGradient id="a" y1="182.57" y2="61.897" gradientUnits="userSpaceOnUse" x2="0"><stop stop-color="#a4cdec"/><stop offset="1" stop-color="#0068c6"/></linearGradient><linearGradient id="b" y1="13.568" y2="77.44" gradientUnits="userSpaceOnUse" x2="0"><stop stop-color="#fff"/><stop offset="1" stop-color="#fff" stop-opacity="0"/></linearGradient><linearGradient id="c" xlink:href="#b" y1="25.929" y2="73.889" x1="26.565" gradientUnits="userSpaceOnUse" x2="73.837"/><linearGradient id="d" xlink:href="#b" y1="168.5" y2="65" gradientUnits="userSpaceOnUse" x2="0"/><linearGradient id="e" y1="51.561" y2="141.42" gradientUnits="userSpaceOnUse" x2="0" gradientTransform="matrix(-1 0 0 1 122.45 0)"><stop stop-color="#000072"/><stop offset="1" stop-color="#3995e5"/></linearGradient><linearGradient id="f" xlink:href="#b" y1="21.614" y2="60.985" x1="31.05" gradientUnits="userSpaceOnUse" x2="53.82" gradientTransform="rotate(-.57873)"/><linearGradient id="g" y1="154.81" y2="41.34" gradientUnits="userSpaceOnUse" x2="0" gradientTransform="matrix(1 0 0 1 0 0)"><stop stop-color="#418bde"/><stop offset="1" stop-color="#001b7b"/></linearGradient></defs><g transform="matrix(.99995 0 0 .99995.003.003)"><path fill="url(#g)" d="m125.96 62.34c.352 34.782-27.561 63.26-62.34 63.62-34.782.352-63.26-27.56-63.62-62.34-.352-34.781 27.559-63.26 62.34-63.61 34.783-.352 63.26 27.559 63.62 62.34"/><path fill="url(#a)" d="m119.29 62.41c.314 31.1-24.641 56.56-55.74 56.88-31.1.314-56.56-24.641-56.879-55.74-.314-31.1 24.642-56.56 55.74-56.879 31.1-.314 56.56 24.642 56.879 55.739"/><path fill="url(#b)" d="m63.45 11.256c-27.407.277-49.4 22.721-49.12 50.13.015 1.511.109 3 .257 4.477 13.702 5.72 30.11 8.971 47.731 8.793 19.229-.194 36.944-4.443 51.21-11.462.043-.931.064-1.868.057-2.812-.277-27.406-22.719-49.4-50.13-49.12"/><path fill="url(#c)" d="m64.967 16.641c24.732-.25 45.555 17.01 50.695 40.24-3.053-26.645-25.812-47.21-53.22-46.933-29.29.296-52.792 24.281-52.5 53.57.15 14.828 6.377 28.16 16.283 37.688-7.461-8.821-12.01-20.19-12.135-32.648-.287-28.384 22.49-51.626 50.874-51.913"/><path opacity=".5" fill="url(#d)" d="m63.44 110.72c-26.445.268-48.26-20.18-50.05-46.23-.047.977-.075 1.958-.064 2.948.277 27.437 22.743 49.45 50.18 49.17 27.436-.277 49.45-22.741 49.17-50.18-.01-.989-.057-1.971-.125-2.946-1.262 26.08-22.662 46.962-49.11 47.23"/><path opacity=".2" fill="url(#e)" d="m89.26 73.47c0 0-21.05-.213-37.713-.382 6.984 7.128 13.988 14.275 13.988 14.275 1.482 1.513 2.211 3.485 2.191 5.447-.02 1.963-.789 3.919-2.301 5.4-3.03 2.965-7.885 2.916-10.848-.109l-26.95-27.502c-.162-.166-.316-.343-.463-.521-.047-.059-.09-.117-.137-.177-.098-.126-.189-.258-.281-.39-.043-.065-.088-.132-.131-.197-.111-.18-.217-.359-.314-.547-.033-.062-.062-.129-.092-.191-.068-.14-.133-.28-.191-.423-.035-.086-.066-.171-.1-.258-.049-.131-.09-.261-.133-.393-.023-.08-.051-.16-.072-.243-.059-.202-.107-.411-.145-.619-.01-.039-.014-.085-.021-.129-.031-.178-.053-.355-.072-.536-.006-.07-.012-.139-.016-.21-.01-.162-.018-.325-.018-.489-.002-.062-.004-.125-.002-.186.004-.225.016-.447.037-.67 0-.004.002-.009.002-.009.023-.218.061-.431.1-.643.016-.073.031-.149.049-.226.033-.139.066-.281.107-.418.023-.088.049-.176.078-.26.043-.135.09-.268.143-.398.031-.079.059-.159.092-.239 0-.003 0-.003.002-.005.082-.191.172-.376.266-.557.041-.08.088-.158.135-.234.068-.125.143-.247.219-.365.049-.072.094-.146.145-.216.105-.149.213-.294.326-.435.029-.035.055-.072.082-.107.152-.178.309-.348.473-.51.016-.016.027-.031.043-.049l27.5-26.948c3.03-2.967 7.884-2.917 10.849.11 2.966 3.02 2.916 7.881-.109 10.846l-14.274 13.99 37.714.381c4.236.043 7.637 3.513 7.594 7.748-.043 4.235-3.516 7.637-7.752 7.594"/><path fill="#fff" d="m89.26 71.47c0 0-21.05-.213-37.713-.382 6.984 7.128 13.988 14.275 13.988 14.275 1.482 1.513 2.211 3.485 2.191 5.447-.02 1.963-.789 3.919-2.301 5.4-3.03 2.965-7.885 2.916-10.848-.109l-26.95-27.502c-.162-.166-.316-.343-.463-.521-.047-.059-.09-.117-.137-.177-.098-.126-.189-.258-.281-.39-.043-.065-.088-.132-.131-.197-.111-.18-.217-.359-.314-.547-.033-.062-.062-.129-.092-.191-.068-.14-.133-.28-.191-.423-.035-.086-.066-.171-.1-.258-.049-.131-.09-.261-.133-.393-.023-.08-.051-.16-.072-.243-.059-.202-.107-.411-.145-.619-.01-.039-.014-.085-.021-.129-.031-.178-.053-.355-.072-.536-.006-.07-.012-.139-.016-.21-.01-.162-.018-.325-.018-.489-.002-.062-.004-.125-.002-.186.004-.225.016-.447.037-.67 0-.004.002-.009.002-.009.023-.218.061-.431.1-.643.016-.073.031-.149.049-.226.033-.139.066-.281.107-.418.023-.088.049-.176.078-.26.043-.135.09-.268.143-.398.031-.079.059-.159.092-.239 0-.003 0-.003.002-.005.082-.191.172-.376.266-.557.041-.08.088-.158.135-.234.068-.125.143-.247.219-.365.049-.072.094-.146.145-.216.105-.149.213-.294.326-.435.029-.035.055-.072.082-.107.152-.178.309-.348.473-.51.016-.016.027-.031.043-.049l27.5-26.948c3.03-2.967 7.884-2.917 10.849.11 2.966 3.02 2.916 7.881-.109 10.846l-14.274 13.99 37.714.381c4.236.043 7.637 3.513 7.594 7.748-.043 4.235-3.516 7.637-7.752 7.594"/><path opacity=".6" fill="url(#f)" d="m52.923 30.04c-5.057-4.11-10.898-7.134-17.238-8.741-11.252 7.77-19.825 20.13-23.803 34.819 5.74-2.847 12.1-4.473 18.823-4.541 1.703-.017 3.382.075 5.04.257 4.138-8.752 10.04-16.23 17.18-21.794"/></g></svg>