<?xml version="1.0" encoding="UTF-8" standalone="no"?>
<svg
   viewBox="0 0 54.499998 54.5"
   version="1.1"
   id="svg43"
   sodipodi:docname="bibletime.svg"
   inkscape:version="1.3 (0e150ed6c4, 2023-07-21)"
   width="54.5"
   height="54.5"
   xmlns:inkscape="http://www.inkscape.org/namespaces/inkscape"
   xmlns:sodipodi="http://sodipodi.sourceforge.net/DTD/sodipodi-0.dtd"
   xmlns:xlink="http://www.w3.org/1999/xlink"
   xmlns="http://www.w3.org/2000/svg"
   xmlns:svg="http://www.w3.org/2000/svg">
  <sodipodi:namedview
     id="namedview43"
     pagecolor="#ffffff"
     bordercolor="#000000"
     borderopacity="0.25"
     inkscape:showpageshadow="2"
     inkscape:pageopacity="0.0"
     inkscape:pagecheckerboard="0"
     inkscape:deskcolor="#d1d1d1"
     inkscape:zoom="12.36579"
     inkscape:cx="26.646094"
     inkscape:cy="27.010001"
     inkscape:window-width="1600"
     inkscape:window-height="872"
     inkscape:window-x="0"
     inkscape:window-y="0"
     inkscape:window-maximized="1"
     inkscape:current-layer="svg43" />
  <defs
     id="defs16">
    <linearGradient
       id="a">
      <stop
         stop-color="#fff"
         stop-opacity=".945"
         id="stop1" />
      <stop
         offset="1"
         stop-color="#fff"
         stop-opacity="0"
         id="stop2" />
    </linearGradient>
    <linearGradient
       id="b"
       y1="237.53"
       x1="428.35999"
       y2="485.45001"
       gradientUnits="userSpaceOnUse"
       x2="464.26999"
       gradientTransform="scale(0.96205,1.03945)">
      <stop
         stop-color="#0015a1"
         id="stop3" />
      <stop
         offset="1"
         stop-color="#0e6eea"
         id="stop4" />
    </linearGradient>
    <radialGradient
       cx="236.03"
       cy="192.58"
       id="c"
       r="198.19"
       gradientUnits="userSpaceOnUse"
       gradientTransform="scale(1.82297,0.54856)">
      <stop
         stop-color="#fff"
         id="stop5" />
      <stop
         offset="1"
         stop-color="#ff0"
         id="stop6" />
    </radialGradient>
    <radialGradient
       cx="301.42999"
       cy="156.28999"
       xlink:href="#a"
       id="d"
       r="192.46001"
       gradientUnits="userSpaceOnUse"
       gradientTransform="scale(1.29408,0.77275)" />
    <linearGradient
       xlink:href="#a"
       id="e"
       y1="160.72"
       x1="293.82999"
       y2="114.58"
       gradientUnits="userSpaceOnUse"
       x2="401.17999"
       gradientTransform="scale(0.56775,1.76135)" />
    <linearGradient
       id="f"
       y1="112.62"
       x1="339.62"
       y2="322.09"
       gradientUnits="userSpaceOnUse"
       x2="310.79999"
       gradientTransform="scale(0.86698,1.15342)">
      <stop
         stop-color="#ff0"
         stop-opacity=".855"
         id="stop7" />
      <stop
         offset="1"
         stop-color="#ffffc8"
         stop-opacity=".514"
         id="stop8" />
    </linearGradient>
    <linearGradient
       xlink:href="#a"
       id="g"
       y1="74.099998"
       x1="218.21001"
       y2="137.25"
       gradientUnits="userSpaceOnUse"
       x2="237.87"
       gradientTransform="scale(1.06037,0.94306)" />
    <linearGradient
       xlink:href="#a"
       id="h"
       x1="132.34"
       gradientUnits="userSpaceOnUse"
       x2="178.99001"
       gradientTransform="scale(2.14004,0.46728)" />
    <linearGradient
       xlink:href="#a"
       id="i"
       y1="104.07"
       x1="588.71997"
       y2="83.099998"
       gradientUnits="userSpaceOnUse"
       x2="743.78998"
       gradientTransform="scale(0.39224,2.54948)" />
    <linearGradient
       id="j"
       y1="205.11"
       x1="481.63"
       y2="100.25"
       gradientUnits="userSpaceOnUse"
       x2="331.17001"
       gradientTransform="scale(0.76055,1.31483)">
      <stop
         stop-color="#ffd800"
         stop-opacity=".945"
         id="stop9" />
      <stop
         offset="1"
         stop-color="#ff0"
         stop-opacity="0"
         id="stop10" />
    </linearGradient>
    <linearGradient
       xlink:href="#j"
       id="k"
       x1="76.07"
       gradientUnits="userSpaceOnUse"
       x2="121.14"
       gradientTransform="scale(2.17694,0.45936)" />
    <linearGradient
       xlink:href="#j"
       id="l"
       x1="587.66998"
       gradientUnits="userSpaceOnUse"
       x2="634.46002"
       gradientTransform="scale(0.46643,2.14394)" />
    <radialGradient
       cx="289.5"
       cy="97.410004"
       id="m"
       r="432.91"
       gradientUnits="userSpaceOnUse">
      <stop
         stop-color="#ff0005"
         id="stop11" />
      <stop
         offset="1"
         stop-color="#ffa50c"
         id="stop12" />
    </radialGradient>
    <radialGradient
       cx="245.25"
       cy="135.33"
       id="n"
       r="287.97"
       gradientUnits="userSpaceOnUse"
       gradientTransform="scale(1.30342,0.76722)">
      <stop
         stop-color="#fff"
         id="stop13" />
      <stop
         offset="1"
         stop-color="#fff"
         stop-opacity="0"
         id="stop14" />
    </radialGradient>
    <radialGradient
       cx="226.25"
       cy="791.97998"
       id="o"
       r="149.53999"
       gradientUnits="userSpaceOnUse"
       gradientTransform="scale(1.53397,0.6519)">
      <stop
         stop-color="#fff"
         stop-opacity=".471"
         id="stop15" />
      <stop
         offset="1"
         stop-color="#fff"
         stop-opacity="0"
         id="stop16" />
    </radialGradient>
    <path
       fill-rule="evenodd"
       stroke-linejoin="round"
       fill-opacity="0.125"
       id="p"
       stroke-width="16.544"
       d="m 460.71,99.11 c -0.893,-0.893 64.29,44.643 64.29,44.643 0,0 54.47,316.96 53.57,316.96 -0.893,0 -277.68,70.54 -277.68,70.54 -66.964,10.714 -75,-44.643 -76.78,-53.57 -0.893,-2.678 -45.537,-303.57 -45.536,-305.36 1.785,-8.928 283.04,-72.32 282.14,-73.21" />
    <path
       fill-rule="evenodd"
       fill-opacity="0.125"
       id="q"
       stroke-width="37"
       d="m 551.78571,301.78571 a 233.03571,233.03571 0 1 1 -466.07142,0 233.03571,233.03571 0 1 1 466.07142,0" />
    <linearGradient
       inkscape:collect="always"
       xlink:href="#j"
       id="linearGradient43"
       gradientUnits="userSpaceOnUse"
       gradientTransform="scale(0.76055,1.31483)"
       x1="481.63"
       y1="205.11"
       x2="331.17001"
       y2="100.25" />
  </defs>
  <g
     transform="matrix(1.0284089,0,0,1.0116733,-300.80653,-360.42003)"
     id="g43">
    <use
       xlink:href="#p"
       transform="matrix(0.0964,0,0,0.10801,277.52,348.12)"
       id="use16" />
    <use
       xlink:href="#q"
       transform="matrix(0.05344,0,0,0.05344,315.22,380.94)"
       id="use17" />
    <use
       xlink:href="#p"
       transform="matrix(0.0964,0,0,0.10801,278.5,348.93)"
       id="use18" />
    <use
       xlink:href="#q"
       transform="matrix(0.05344,0,0,0.05344,316.2,381.75)"
       id="use19" />
    <g
       fill-rule="evenodd"
       transform="translate(-203.02,9.992)"
       id="g42">
      <path
         fill="url(#b)"
         stroke="#0012ab"
         stroke-linejoin="round"
         stroke-width="16.544"
         d="m 460.71,99.11 c -0.893,-0.893 -268.75,60.714 -269.64,61.61 -34.82,11.608 15.18,58.04 65.18,44.643 9.822,-2.679 268.75,-61.61 268.75,-61.61 0,0 54.47,316.96 53.57,316.96 -0.893,0 -277.68,70.54 -277.68,70.54 -66.964,10.714 -75,-44.643 -76.78,-53.57 -0.893,-2.678 -45.537,-303.57 -45.536,-305.36 1.785,-8.928 283.04,-72.32 282.14,-73.21 z"
         transform="matrix(0.0964,0,0,0.108,479.1,336.46)"
         id="path19"
         style="fill:url(#b)" />
      <path
         fill="url(#c)"
         d="m 460.71,100 c 0.892,0.893 59.821,36.607 58.928,36.607 -0.893,0 -259.82,60.714 -266.07,61.61 -47.32,11.607 -72.32,-25.893 -66.964,-30.357 9.822,-1.786 275,-67.857 274.11,-67.857"
         transform="matrix(0.0964,0,0,0.108,479,336.33)"
         id="path20"
         style="fill:url(#c)" />
      <path
         fill="url(#d)"
         d="m 447.32,136.61 c 0,0.893 11.363,46.993 14.286,66.56 -159.73,4.534 -83.51,89.7 -253.82,99.25 -7.142,-41.07 -23.862,-139.03 -23.862,-137.24 0,1.786 20.536,16.965 37.5,19.643 47.32,-8.04 226.79,-46.43 225.89,-48.21"
         transform="matrix(0.12446,0,0,0.13944,473.97,333.16)"
         id="path21"
         style="fill:url(#d)" />
      <path
         fill="url(#e)"
         d="m 183.93,166.07 31.25,234.82 c 0,0 8.929,42.856 55.36,32.14 -2.679,-6.25 -31.25,-251.79 -32.14,-251.79 -36.607,11.607 -52.679,-15.179 -54.46,-15.179"
         transform="matrix(0.13887,0,0,0.13887,471.39,333.4)"
         id="path22"
         style="fill:url(#e)" />
      <path
         stroke-opacity="0.817"
         fill="url(#f)"
         stroke="#febf00"
         stroke-linejoin="round"
         fill-opacity="0.537"
         stroke-width="5.875"
         d="m 258.04,112.5 c 0,19.643 0.893,65.18 0.893,66.07 0,0.892 -56.29,3.878 -68.786,5.664 -27.25,2.386 -23.541,40.949 0,36.607 19.643,-0.893 67.893,-5.665 68.786,-5.665 0.893,0 0.892,123.21 1.785,138.39 -0.892,31.25 40.18,32.14 40.18,1.786 0,-24.11 0,-128.57 0,-138.39 11.607,0 38.1,-4.372 65.44,-6.66 24.434,-7.915 25.531,-42.03 -2.02,-38.986 -18.09,1.193 -61.63,4.575 -62.53,6.36 -0.893,1.786 -0.893,-66.07 -1.786,-66.07 0,-28.572 -41.964,-25.893 -41.964,0.893 z"
         transform="matrix(0.0827,-0.0151,0.0119,0.08194,493.3,354.97)"
         id="path23"
         style="fill:url(#f)" />
      <g
         stroke-width="1.25"
         id="g29">
        <path
           fill="url(#g)"
           fill-opacity="0.768"
           d="m 296.52,38.738 c -10.466,-5.631 -17.879,-1.974 -25.455,5.876 -0.893,10.714 3.787,85.66 4.68,89.23 0.893,3.572 -9.125,-12.658 -9.125,-12.658 0,0 -4.18,5.728 -8.644,3.941 -4.465,-1.786 -68.69,-4.588 -75.831,-1.909 -7.143,2.679 -11.607,6.25 -12.5,10.714 -0.893,4.465 -4.464,-14.285 7.143,-17.857 11.607,-3.571 78.07,-7.422 77.18,-7.422 -0.892,0 2.098,-70.3 2.991,-76.55 0.893,-6.25 30.33,-25.441 39.565,6.641"
           transform="matrix(0.08184,-0.01494,0.01178,0.08109,494.69,360.73)"
           id="path24"
           style="fill:url(#g)" />
        <path
           fill="url(#h)"
           d="m 299.11,109.82 c -1.785,4.464 14.507,8.991 -15.736,16.505 -4.464,1.785 86.955,-5.04 94.99,-2.364 8.04,2.678 2.733,-2.734 4.675,0.145 -3.182,-9.375 -3.918,-17.21 -14.632,-18.996 -10.714,-1.786 -68.4,5.603 -69.3,4.71"
           transform="matrix(0.08184,-0.01494,0.01178,0.08109,494.7,360.34)"
           id="path25"
           style="fill:url(#h)" />
        <path
           fill="url(#i)"
           d="m 272.94,137.25 c -8.469,18.6 -18.476,12.748 -18.476,13.641 0,0.892 1.786,133.93 3.572,141.96 1.786,8.04 7.39,19.89 20.323,15.948 6.25,1.786 0.522,2.74 0.522,2.74 0,0 -6.957,-7.081 -7.85,-23.15 -0.893,-16.07 1.016,-149.35 1.909,-151.14"
           transform="matrix(0.08184,-0.01494,0.01178,0.08109,494.68,360.37)"
           id="path26"
           style="fill:url(#i)" />
        <path
           fill="url(#j)"
           fill-opacity="0.537"
           d="m 271.43,312.5 c 19.643,-2.679 23.21,-6.25 24.11,-22.322 0.893,-16.07 0.893,-141.07 1.786,-140.18 0.892,0.893 62.5,3.571 71.43,-1.786 8.929,-5.357 14.286,-7.143 13.393,-17.857 -0.893,-10.714 -2.678,-9.822 -1.786,-8.929 0.893,0.893 -3.571,16.07 -12.5,16.965 -8.928,0.892 -64.29,7.142 -72.32,4.464 -8.04,-2.679 -8.929,-7.143 -8.04,-5.357 0.893,1.785 1.786,5.357 1.786,13.393 0,8.03 0.893,133.93 -0.893,139.28 -1.786,5.358 0.893,15.179 -16.964,22.322"
           transform="matrix(0.08184,-0.01494,0.01178,0.08109,494.31,360.18)"
           id="path27"
           style="fill:url(#linearGradient43)" />
        <path
           fill="url(#k)"
           d="m 166.07,128.57 c 0.892,16.07 6.25,18.75 13.392,19.643 7.143,0.893 73.22,0 74.11,0.893 0.892,0.893 8.04,-1.786 9.821,-6.25 1.786,-4.464 -3.571,0 -17.857,-0.893 -14.286,-0.893 -51.786,2.679 -62.5,-0.893 -10.714,-3.571 -19.643,-11.607 -16.964,-12.5"
           transform="matrix(0.08184,-0.01494,0.01178,0.08109,494.57,360.85)"
           id="path28"
           style="fill:url(#k)" />
        <path
           fill="url(#l)"
           d="m 274.11,24.11 c 22.322,3.571 21.429,17.857 21.429,23.21 0,5.357 0.893,57.14 0,61.61 -0.893,4.465 0.893,8.04 -4.464,11.607 -5.358,3.572 -6.25,4.465 -6.25,3.572 0,-0.893 3.571,-4.465 3.571,-15.179 0,-10.714 2.679,-63.39 0,-70.54 -2.679,-7.143 -12.5,-13.393 -14.286,-14.286"
           transform="matrix(0.08184,-0.01494,0.01178,0.08109,494.69,360.45)"
           id="path29"
           style="fill:url(#l)" />
      </g>
      <g
         transform="matrix(0.24887,0,0,0.24887,432.5,299.15)"
         id="g41">
        <path
           fill="url(#m)"
           stroke="#0070ca"
           stroke-width="37"
           d="m 551.78571,301.78571 a 233.03571,233.03571 0 1 1 -466.07142,0 233.03571,233.03571 0 1 1 466.07142,0 z"
           transform="matrix(0.21474,0,0,0.21474,338.73,281.79)"
           id="path30"
           style="fill:url(#m)" />
        <g
           stroke-width="1.25"
           id="g33">
          <path
             fill="url(#n)"
             fill-opacity="0.555"
             d="M 530.36,217.86 C 446.432,-15.18 82.15,33.04 92.86,327.68 366.97,335.72 237.5,232.15 530.36,217.86"
             transform="matrix(0.21474,0,0,0.21474,337.93,282.48)"
             id="path31"
             style="fill:url(#n)" />
          <path
             fill="url(#o)"
             fill-opacity="0.616"
             d="M 524.11,400 C 445.54,541.07 280.36,560.72 175.9,477.68 318.76,316.97 524.11,400.89 524.11,400"
             transform="matrix(0.21474,0,0,0.21474,337.55,281.9)"
             id="path32"
             style="fill:url(#o)" />
          <path
             fill="#dc6e3c"
             d="m 403.51,304.64 h 8.05 v 7.861 h -8.05 z"
             id="path33" />
        </g>
        <g
           fill="#dc6e3c"
           stroke-width="0.268"
           id="g36">
          <path
             d="m 440.89,342.68 h 8.05 v 7.861 h -8.05 z"
             id="path34" />
          <path
             d="m 402.36,379.3 h 8.05 v 7.861 h -8.05 z"
             id="path35" />
          <path
             d="m 365.35,341.72 h 8.05 v 7.861 h -8.05 z"
             id="path36" />
        </g>
        <g
           stroke-width="1.25"
           id="g40">
          <path
             d="m 368.75002,307.14282 a 33.035725,33.035725 0 1 1 -66.07145,0 33.035725,33.035725 0 1 1 66.07145,0"
             transform="matrix(0.21474,0,0,0.21474,334.86,280.29)"
             id="path37" />
          <path
             fill="#ffffff"
             d="m 335.71426,297.32141 a 16.964264,16.964294 0 1 1 -33.92852,0 16.964264,16.964294 0 1 1 33.92852,0"
             transform="matrix(0.21474,0,0,0.21474,338.51,282.39)"
             id="path38" />
          <path
             d="m 404.08,313.84 h 6.135 v 26.843 h -6.135 z"
             id="path39" />
          <path
             d="m 511.56,147.1 h 6.519 v 18.598 h -6.519 z"
             transform="rotate(24.99998)"
             id="path40" />
        </g>
      </g>
    </g>
  </g>
</svg>
