<svg xmlns="http://www.w3.org/2000/svg" viewBox="0 0 53.24 54.02" xmlns:xlink="http://www.w3.org/1999/xlink"><defs><linearGradient id="a"><stop stop-color="#fff" stop-opacity=".945"/><stop offset="1" stop-color="#fff" stop-opacity="0"/></linearGradient><linearGradient id="b" y1="237.53" x1="428.36" y2="485.45" gradientUnits="userSpaceOnUse" x2="464.27" gradientTransform="scale(.96205 1.03945)"><stop stop-color="#0015a1"/><stop offset="1" stop-color="#0e6eea"/></linearGradient><radialGradient cx="236.03" cy="192.58" id="c" r="198.19" gradientUnits="userSpaceOnUse" gradientTransform="scale(1.82297.54856)"><stop stop-color="#fff"/><stop offset="1" stop-color="#ff0"/></radialGradient><radialGradient cx="301.43" cy="156.29" xlink:href="#a" id="d" r="192.46" gradientUnits="userSpaceOnUse" gradientTransform="scale(1.29408.77275)"/><linearGradient xlink:href="#a" id="e" y1="160.72" x1="293.83" y2="114.58" gradientUnits="userSpaceOnUse" x2="401.18" gradientTransform="scale(.56775 1.76135)"/><linearGradient id="f" y1="112.62" x1="339.62" y2="322.09" gradientUnits="userSpaceOnUse" x2="310.8" gradientTransform="scale(.86698 1.15342)"><stop stop-color="#ff0" stop-opacity=".855"/><stop offset="1" stop-color="#ffffc8" stop-opacity=".514"/></linearGradient><linearGradient xlink:href="#a" id="g" y1="74.1" x1="218.21" y2="137.25" gradientUnits="userSpaceOnUse" x2="237.87" gradientTransform="scale(1.06037.94306)"/><linearGradient xlink:href="#a" id="h" x1="132.34" gradientUnits="userSpaceOnUse" x2="178.99" gradientTransform="scale(2.14004.46728)"/><linearGradient xlink:href="#a" id="i" y1="104.07" x1="588.72" y2="83.1" gradientUnits="userSpaceOnUse" x2="743.79" gradientTransform="scale(.39224 2.54948)"/><linearGradient id="j" y1="205.11" x1="481.63" y2="100.25" gradientUnits="userSpaceOnUse" x2="331.17" gradientTransform="scale(.76055 1.31483)"><stop stop-color="#ffd800" stop-opacity=".945"/><stop offset="1" stop-color="#ff0" stop-opacity="0"/></linearGradient><linearGradient xlink:href="#j" id="k" x1="76.07" gradientUnits="userSpaceOnUse" x2="121.14" gradientTransform="scale(2.17694.45936)"/><linearGradient xlink:href="#j" id="l" x1="587.67" gradientUnits="userSpaceOnUse" x2="634.46" gradientTransform="scale(.46643 2.14394)"/><radialGradient cx="289.5" cy="97.41" id="m" r="432.91" gradientUnits="userSpaceOnUse"><stop stop-color="#ff0005"/><stop offset="1" stop-color="#ffa50c"/></radialGradient><radialGradient cx="245.25" cy="135.33" id="n" r="287.97" gradientUnits="userSpaceOnUse" gradientTransform="scale(1.30342.76722)"><stop stop-color="#fff"/><stop offset="1" stop-color="#fff" stop-opacity="0"/></radialGradient><radialGradient cx="226.25" cy="791.98" id="o" r="149.54" gradientUnits="userSpaceOnUse" gradientTransform="scale(1.53397.6519)"><stop stop-color="#fff" stop-opacity=".471"/><stop offset="1" stop-color="#fff" stop-opacity="0"/></radialGradient><path fill-rule="evenodd" stroke-linejoin="round" fill-opacity=".125" id="p" stroke-width="16.544" d="m460.71 99.11c-.893-.893 64.29 44.643 64.29 44.643 0 0 54.47 316.96 53.57 316.96-.893 0-277.68 70.54-277.68 70.54-66.964 10.714-75-44.643-76.78-53.57-.893-2.678-45.537-303.57-45.536-305.36 1.785-8.928 283.04-72.32 282.14-73.21"/><path fill-rule="evenodd" fill-opacity=".125" id="q" stroke-width="37" d="M551.78571 301.78571A233.03571 233.03571 0 1 1 85.71429 301.78571 233.03571 233.03571 0 1 1 551.78571 301.78571"/></defs><g transform="translate(-292.44-356.31)"><use xlink:href="#p" transform="matrix(.0964 0 0 .10801 277.52 348.12)"/><use xlink:href="#q" transform="matrix(.05344 0 0 .05344 315.22 380.94)"/><use xlink:href="#p" transform="matrix(.0964 0 0 .10801 278.5 348.93)"/><use xlink:href="#q" transform="matrix(.05344 0 0 .05344 316.2 381.75)"/><g fill-rule="evenodd" transform="translate(-203.02 9.992)"><path fill="url(#b)" stroke="#0012ab" stroke-linejoin="round" stroke-width="16.544" d="m460.71 99.11c-.893-.893-268.75 60.714-269.64 61.61-34.82 11.608 15.18 58.04 65.18 44.643 9.822-2.679 268.75-61.61 268.75-61.61 0 0 54.47 316.96 53.57 316.96-.893 0-277.68 70.54-277.68 70.54-66.964 10.714-75-44.643-76.78-53.57-.893-2.678-45.537-303.57-45.536-305.36 1.785-8.928 283.04-72.32 282.14-73.21z" transform="matrix(.0964 0 0 .108 479.1 336.46)"/><path fill="url(#c)" d="m460.71 100c.892.893 59.821 36.607 58.928 36.607-.893 0-259.82 60.714-266.07 61.61-47.32 11.607-72.32-25.893-66.964-30.357 9.822-1.786 275-67.857 274.11-67.857" transform="matrix(.0964 0 0 .108 479 336.33)"/><path fill="url(#d)" d="m447.32 136.61c0 .893 11.363 46.993 14.286 66.56-159.73 4.534-83.51 89.7-253.82 99.25-7.142-41.07-23.862-139.03-23.862-137.24 0 1.786 20.536 16.965 37.5 19.643 47.32-8.04 226.79-46.43 225.89-48.21" transform="matrix(.12446 0 0 .13944 473.97 333.16)"/><path fill="url(#e)" d="m183.93 166.07l31.25 234.82c0 0 8.929 42.856 55.36 32.14-2.679-6.25-31.25-251.79-32.14-251.79-36.607 11.607-52.679-15.179-54.46-15.179" transform="matrix(.13887 0 0 .13887 471.39 333.4)"/><path stroke-opacity=".817" fill="url(#f)" stroke="#febf00" stroke-linejoin="round" fill-opacity=".537" stroke-width="5.875" d="m258.04 112.5c0 19.643.893 65.18.893 66.07 0 .892-56.29 3.878-68.786 5.664-27.25 2.386-23.541 40.949 0 36.607 19.643-.893 67.893-5.665 68.786-5.665.893 0 .892 123.21 1.785 138.39-.892 31.25 40.18 32.14 40.18 1.786 0-24.11 0-128.57 0-138.39 11.607 0 38.1-4.372 65.44-6.66 24.434-7.915 25.531-42.03-2.02-38.986-18.09 1.193-61.63 4.575-62.53 6.36-.893 1.786-.893-66.07-1.786-66.07 0-28.572-41.964-25.893-41.964.893z" transform="matrix(.0827-.0151.0119.08194 493.3 354.97)"/><g stroke-width="1.25"><path fill="url(#g)" fill-opacity=".768" d="m296.52 38.738c-10.466-5.631-17.879-1.974-25.455 5.876-.893 10.714 3.787 85.66 4.68 89.23.893 3.572-9.125-12.658-9.125-12.658 0 0-4.18 5.728-8.644 3.941-4.465-1.786-68.69-4.588-75.831-1.909-7.143 2.679-11.607 6.25-12.5 10.714-.893 4.465-4.464-14.285 7.143-17.857 11.607-3.571 78.07-7.422 77.18-7.422-.892 0 2.098-70.3 2.991-76.55.893-6.25 30.33-25.441 39.565 6.641" transform="matrix(.08184-.01494.01178.08109 494.69 360.73)"/><path fill="url(#h)" d="m299.11 109.82c-1.785 4.464 14.507 8.991-15.736 16.505-4.464 1.785 86.955-5.04 94.99-2.364 8.04 2.678 2.733-2.734 4.675.145-3.182-9.375-3.918-17.21-14.632-18.996-10.714-1.786-68.4 5.603-69.3 4.71" transform="matrix(.08184-.01494.01178.08109 494.7 360.34)"/><path fill="url(#i)" d="m272.94 137.25c-8.469 18.6-18.476 12.748-18.476 13.641 0 .892 1.786 133.93 3.572 141.96 1.786 8.04 7.39 19.89 20.323 15.948 6.25 1.786.522 2.74.522 2.74 0 0-6.957-7.081-7.85-23.15-.893-16.07 1.016-149.35 1.909-151.14" transform="matrix(.08184-.01494.01178.08109 494.68 360.37)"/><path fill="url(#j)" fill-opacity=".537" d="m271.43 312.5c19.643-2.679 23.21-6.25 24.11-22.322.893-16.07.893-141.07 1.786-140.18.892.893 62.5 3.571 71.43-1.786 8.929-5.357 14.286-7.143 13.393-17.857-.893-10.714-2.678-9.822-1.786-8.929.893.893-3.571 16.07-12.5 16.965-8.928.892-64.29 7.142-72.32 4.464-8.04-2.679-8.929-7.143-8.04-5.357.893 1.785 1.786 5.357 1.786 13.393 0 8.03.893 133.93-.893 139.28-1.786 5.358.893 15.179-16.964 22.322" transform="matrix(.08184-.01494.01178.08109 494.31 360.18)"/><path fill="url(#k)" d="m166.07 128.57c.892 16.07 6.25 18.75 13.392 19.643 7.143.893 73.22 0 74.11.893.892.893 8.04-1.786 9.821-6.25 1.786-4.464-3.571 0-17.857-.893-14.286-.893-51.786 2.679-62.5-.893-10.714-3.571-19.643-11.607-16.964-12.5" transform="matrix(.08184-.01494.01178.08109 494.57 360.85)"/><path fill="url(#l)" d="m274.11 24.11c22.322 3.571 21.429 17.857 21.429 23.21 0 5.357.893 57.14 0 61.61-.893 4.465.893 8.04-4.464 11.607-5.358 3.572-6.25 4.465-6.25 3.572 0-.893 3.571-4.465 3.571-15.179 0-10.714 2.679-63.39 0-70.54-2.679-7.143-12.5-13.393-14.286-14.286" transform="matrix(.08184-.01494.01178.08109 494.69 360.45)"/></g><g transform="matrix(.24887 0 0 .24887 432.5 299.15)"><path fill="url(#m)" stroke="#0070ca" stroke-width="37" d="M551.78571 301.78571A233.03571 233.03571 0 1 1 85.71429 301.78571 233.03571 233.03571 0 1 1 551.78571 301.78571z" transform="matrix(.21474 0 0 .21474 338.73 281.79)"/><g stroke-width="1.25"><path fill="url(#n)" fill-opacity=".555" d="m530.36 217.86c-83.928-233.04-448.21-184.82-437.5 109.82 274.11 8.04 144.64-95.53 437.5-109.82" transform="matrix(.21474 0 0 .21474 337.93 282.48)"/><path fill="url(#o)" fill-opacity=".616" d="m524.11 400c-78.57 141.07-243.75 160.72-348.21 77.68 142.86-160.71 348.21-76.79 348.21-77.68" transform="matrix(.21474 0 0 .21474 337.55 281.9)"/><path fill="#dc6e3c" d="m403.51 304.64h8.05v7.861h-8.05z"/></g><g fill="#dc6e3c" stroke-width=".268"><path d="m440.89 342.68h8.05v7.861h-8.05z"/><path d="m402.36 379.3h8.05v7.861h-8.05z"/><path d="m365.35 341.72h8.05v7.861h-8.05z"/></g><g stroke-width="1.25"><path d="M368.75002 307.14282A33.03572 33.03572 0 1 1 302.67857 307.14282 33.03572 33.03572 0 1 1 368.75002 307.14282" transform="matrix(.21474 0 0 .21474 334.86 280.29)"/><path fill="#fff" d="M335.71426 297.32141A16.964264 16.964294 0 1 1 301.78574 297.32141 16.964264 16.964294 0 1 1 335.71426 297.32141" transform="matrix(.21474 0 0 .21474 338.51 282.39)"/><path d="m404.08 313.84h6.135v26.843h-6.135z"/><path d="m511.56 147.1h6.519v18.598h-6.519z" transform="rotate(24.99998)"/></g></g></g></g></svg>