<?xml version="1.0" encoding="UTF-8" standalone="no"?>
<svg
   xmlns:dc="http://purl.org/dc/elements/1.1/"
   xmlns:cc="http://creativecommons.org/ns#"
   xmlns:rdf="http://www.w3.org/1999/02/22-rdf-syntax-ns#"
   xmlns:svg="http://www.w3.org/2000/svg"
   xmlns="http://www.w3.org/2000/svg"
   xmlns:xlink="http://www.w3.org/1999/xlink"
   width="44.77544"
   height="53.964367"
   id="svg3472"
   version="1.0">
  <defs
     id="defs3474">
    <linearGradient
       xlink:href="#linearGradient165"
       id="linearGradient159"
       x1="293.82791"
       y1="160.71729"
       x2="401.17664"
       y2="114.58482"
       gradientUnits="userSpaceOnUse"
       spreadMethod="pad"
       gradientTransform="scale(0.5677477,1.7613457)" />
    <linearGradient
       id="linearGradient165">
      <stop
         style="stop-color:#ffffff;stop-opacity:0.945098;"
         offset="0.000000"
         id="stop166" />
      <stop
         style="stop-color:#ffffff;stop-opacity:0;"
         offset="1.000000"
         id="stop167" />
    </linearGradient>
    <radialGradient
       xlink:href="#linearGradient165"
       id="radialGradient164"
       cx="301.42603"
       cy="156.29366"
       fx="301.42603"
       fy="156.29366"
       r="192.46465"
       gradientUnits="userSpaceOnUse"
       spreadMethod="pad"
       gradientTransform="scale(1.2940833,0.7727478)" />
    <linearGradient
       id="linearGradient160">
      <stop
         style="stop-color:#ffffff;stop-opacity:1;"
         offset="0.000000"
         id="stop161" />
      <stop
         style="stop-color:#ffff00;stop-opacity:1;"
         offset="1.000000"
         id="stop162" />
    </linearGradient>
    <radialGradient
       xlink:href="#linearGradient160"
       id="radialGradient118"
       cx="236.02818"
       cy="192.58218"
       fx="236.02818"
       fy="192.58218"
       r="198.18884"
       gradientUnits="userSpaceOnUse"
       spreadMethod="pad"
       gradientTransform="scale(1.8229713,0.548555)" />
    <linearGradient
       id="linearGradient1332">
      <stop
         style="stop-color:#d53abd;stop-opacity:1;"
         offset="0.000000"
         id="stop1333" />
      <stop
         style="stop-color:#ffcdff;stop-opacity:1;"
         offset="1.000000"
         id="stop1334" />
    </linearGradient>
    <linearGradient
       xlink:href="#linearGradient1332"
       id="linearGradient1335"
       x1="428.36154"
       y1="237.52766"
       x2="464.26782"
       y2="485.44748"
       gradientUnits="userSpaceOnUse"
       spreadMethod="pad"
       gradientTransform="scale(0.9620497,1.0394474)" />
    <linearGradient
       xlink:href="#linearGradient1332"
       id="linearGradient3630"
       gradientUnits="userSpaceOnUse"
       gradientTransform="scale(0.9620497,1.0394474)"
       spreadMethod="pad"
       x1="428.36154"
       y1="237.52766"
       x2="464.26782"
       y2="485.44748" />
    <radialGradient
       xlink:href="#linearGradient160"
       id="radialGradient3632"
       gradientUnits="userSpaceOnUse"
       gradientTransform="scale(1.8229713,0.548555)"
       spreadMethod="pad"
       cx="236.02818"
       cy="192.58218"
       fx="236.02818"
       fy="192.58218"
       r="198.18884" />
    <radialGradient
       xlink:href="#linearGradient165"
       id="radialGradient3634"
       gradientUnits="userSpaceOnUse"
       gradientTransform="scale(1.2940833,0.7727478)"
       spreadMethod="pad"
       cx="301.42603"
       cy="156.29366"
       fx="301.42603"
       fy="156.29366"
       r="192.46465" />
    <linearGradient
       xlink:href="#linearGradient165"
       id="linearGradient3636"
       gradientUnits="userSpaceOnUse"
       gradientTransform="scale(0.5677477,1.7613457)"
       spreadMethod="pad"
       x1="293.82791"
       y1="160.71729"
       x2="401.17664"
       y2="114.58482" />
  </defs>
  <metadata
     id="metadata3477">
    <rdf:RDF>
      <cc:Work
         rdf:about="">
        <dc:format>image/svg+xml</dc:format>
        <dc:type
           rdf:resource="http://purl.org/dc/dcmitype/StillImage" />
        <dc:creator>
          <cc:Agent>
            <dc:title>James Ots</dc:title>
          </cc:Agent>
        </dc:creator>
        <dc:description>BibleTime icon &quot;book&quot;.
Licence:
http://creativecommons.org/licenses/by-sa/2.5/ (or any later version)
http://www.gnu.org/licenses/old-licenses/lgpl-2.1.html (or any later version)</dc:description>
      </cc:Work>
    </rdf:RDF>
  </metadata>
  <g
     id="layer1"
     transform="translate(-320.46943,-482.53786)">
    <g
       transform="translate(288.08716,72.92097)"
       id="g1736">
      <path
         transform="matrix(0.107241,0,0,0.120147,14.17097,398.6496)"
         id="path1737"
         d="M 460.715,99.1068 C 459.822,98.214 191.964,159.821 191.071,160.714 C 156.251,172.322 206.251,218.75 256.249,205.357 C 266.071,202.678 525,143.75 525,143.75 C 525,143.75 579.465,460.714 578.572,460.714 C 577.679,460.714 300.893,531.25 300.893,531.25 C 233.929,541.964 225.893,486.607 224.108,477.678 C 223.215,475 178.571,174.106 178.572,172.321 C 180.357,163.393 461.607,99.9997 460.715,99.1068 z "
         style="font-size:12px;fill:url(#linearGradient3630);fill-rule:evenodd;stroke:#c700d8;stroke-width:16.54360008;stroke-linejoin:round;stroke-opacity:1" />
      <path
         transform="matrix(0.107241,0,0,0.120147,14.06897,398.5112)"
         id="path1738"
         d="M 460.715,99.9997 C 461.607,100.893 520.536,136.607 519.643,136.607 C 518.75,136.607 259.821,197.321 253.571,198.214 C 206.25,209.821 181.25,172.321 186.607,167.857 C 196.429,166.071 461.607,99.9997 460.715,99.9997 z "
         style="font-size:12px;fill:url(#radialGradient3632);fill-rule:evenodd;stroke-width:1pt" />
      <path
         transform="matrix(0.138454,0,0,0.155115,8.473439,394.9819)"
         id="path1739"
         d="M 447.322,136.607 C 447.322,137.5 458.685,183.6 461.608,203.166 C 301.874,207.7 378.099,292.863 207.791,302.42 C 200.649,261.348 183.929,163.393 183.929,165.178 C 183.929,166.964 204.465,182.143 221.429,184.821 C 268.751,176.785 448.215,138.393 447.322,136.607 z "
         style="font-size:12px;fill:url(#radialGradient3634);fill-rule:evenodd;stroke-width:1pt" />
      <path
         transform="matrix(0.154481,0,0,0.154481,5.597481,395.2471)"
         id="path1740"
         d="M 183.929,166.071 C 183.929,166.071 215.179,400.893 215.179,400.893 C 215.179,400.893 224.108,443.749 270.536,433.036 C 267.857,426.786 239.286,181.25 238.393,181.25 C 201.786,192.857 185.714,166.071 183.929,166.071 z "
         style="font-size:12px;fill:url(#linearGradient3636);fill-rule:evenodd;stroke-width:1pt" />
    </g>
  </g>
</svg>
