<svg xmlns="http://www.w3.org/2000/svg" viewBox="0 0 128 128" xmlns:xlink="http://www.w3.org/1999/xlink"><defs><linearGradient id="a"><stop/><stop offset="1" stop-opacity="0"/></linearGradient><radialGradient fx="33.03" fy="128.58" cx="63.912" cy="115.71" xlink:href="#a" id="b" r="63.912" gradientUnits="userSpaceOnUse" gradientTransform="matrix(1 0 0 .1978 0 92.82)"/><linearGradient id="c" y1="98.69" x1="104.36" y2="95.16" gradientUnits="userSpaceOnUse" x2="111.01"><stop stop-color="#fff"/><stop offset="1" stop-color="#fff" stop-opacity="0"/></linearGradient><linearGradient id="d" y1="80.27" x1="18.816" y2="70.06" gradientUnits="userSpaceOnUse" x2="53.18"><stop stop-color="#fff" stop-opacity="0"/><stop offset=".185" stop-color="#fff" stop-opacity="0"/><stop offset=".281" stop-color="#fff" stop-opacity=".336"/><stop offset=".451" stop-color="#fff" stop-opacity=".17"/><stop offset=".479" stop-color="#fff" stop-opacity="0"/><stop offset=".656" stop-color="#fff" stop-opacity=".307"/><stop offset="1" stop-color="#fff" stop-opacity="0"/></linearGradient><linearGradient id="e" y1="94.01" x1="94.58" y2="101" gradientUnits="userSpaceOnUse" x2="96.63"><stop stop-color="#626262"/><stop offset="1" stop-color="#efefef"/></linearGradient><linearGradient xlink:href="#c" id="f" y1="118.36" x1="25.26" y2="89.02" gradientUnits="userSpaceOnUse" x2="162.52"/><linearGradient id="g" y1="81.52" x1="70.12" y2="113.64" gradientUnits="userSpaceOnUse" x2="105.92"><stop/><stop offset="1" stop-color="#fff"/></linearGradient><linearGradient xlink:href="#g" id="h" y1="79.77" x1="38.572" y2="132.48" gradientUnits="userSpaceOnUse" x2="51.36"/><linearGradient xlink:href="#g" id="i" y1="97.68" x1="36.414" y2="119.45" gradientUnits="userSpaceOnUse" x2="48.3"/><linearGradient xlink:href="#g" id="j" y1="60.26" x1="74.53" y2="125.73" gradientUnits="userSpaceOnUse" x2="42.14"/><linearGradient xlink:href="#g" id="k" y1="56.681" x1="74" y2="121.88" gradientUnits="userSpaceOnUse" x2="74.49"/><linearGradient xlink:href="#g" id="l" y1="61.15" x1="74.66" y2="126.35" gradientUnits="userSpaceOnUse" x2="75.15"/><linearGradient xlink:href="#a" id="m" y1="101.14" x1="38.475" y2="118.48" gradientUnits="userSpaceOnUse" x2="47.92"/><linearGradient xlink:href="#c" id="n" y1="97.09" x1="47.31" y2="111.85" gradientUnits="userSpaceOnUse" x2="49.688"/><linearGradient xlink:href="#c" id="o" y1="97.09" x1="47.31" y2="112.88" gradientUnits="userSpaceOnUse" x2="50.989"/><linearGradient xlink:href="#c" id="p" y1="115.23" x1="23.15" y2="111.85" gradientUnits="userSpaceOnUse" x2="49.688"/><linearGradient xlink:href="#c" id="q" y1="66.63" x1="22.21" y2="65.3" gradientUnits="userSpaceOnUse" x2="41.8"/><linearGradient id="r" y1="109.25" x1="60.18" y2="18.221" gradientUnits="userSpaceOnUse" x2="37.952"><stop/><stop offset=".25" stop-opacity=".599"/><stop offset=".5" stop-opacity=".278"/><stop offset="1" stop-opacity="0"/></linearGradient><linearGradient xlink:href="#c" id="s" y1="110.72" x1="24.689" y2="81.37" gradientUnits="userSpaceOnUse" x2="161.95"/><radialGradient cx="-36.858" cy="75.23" xlink:href="#a" id="t" r=".972" gradientUnits="userSpaceOnUse" gradientTransform="matrix(.81779-.23575 26.77623 94.9569-1932.69-7041.73)"/><linearGradient xlink:href="#a" id="u" y1="-90.02" x1="117.7" y2="146.38" gradientUnits="userSpaceOnUse" x2="85.8"/><linearGradient id="v" y1="-11" x1="70.42" y2="15.58" gradientUnits="userSpaceOnUse" x2="74.66"><stop stop-color="#f7fafe"/><stop offset="1" stop-color="#f7fafe" stop-opacity="0"/></linearGradient><linearGradient xlink:href="#v" id="w" y1="-11.349" x1="70.32" y2="15.233" gradientUnits="userSpaceOnUse" x2="74.57"/><linearGradient id="x" y1="109.4" x1="57.5" y2="27.734" x2="92.98" gradientUnits="userSpaceOnUse"><stop stop-color="#debc85"/><stop offset="1" stop-color="#debc85" stop-opacity="0"/></linearGradient><linearGradient id="y" y1="84.23" x1="65.15" y2="7.381" x2="60.748" gradientUnits="userSpaceOnUse"><stop stop-color="#8f6b32"/><stop offset="1" stop-color="#debc85"/></linearGradient><path fill-rule="evenodd" id="z" d="m108.82 94.02l.392 5.529-70.61 19.494c-2.767.945-3.784-4.954-.59-5.778z"/></defs><g transform="translate(.5-1)"><path opacity=".3" d="m83.63 3.03l-62.62 16.566c-.036.01-.071.024-.104.043l-.869.459-.748-.028c-.037-.009-.074-.012-.112-.011l-6.509 1.648c-1.448.382-2.353 1.878-2.02 3.329.006.027.005.054.012.081l.516 7.613c.001.027.005.054.012.081l22.775 85.55c.01.008.02.016.031.023.385 1.126 1.058 2.087 1.913 2.694.847.602 1.886.848 2.913.508l.027-.004 71.977-19.866c1.977-.521 3.105-2.549 2.587-4.515-.001-.009-.002-.018-.004-.027l-1.403-4.285c.74-.895 1.103-2.073.784-3.285-.001-.009-.002-.018-.004-.027l-24.688-83.923c-.002-.009-.002-.018-.004-.027-.53-1.952-2.504-3.111-4.461-2.595"/><g fill="none" stroke="#000" stroke-linejoin="round" stroke-dashoffset="4"><path opacity=".05" stroke-width="6.107" d="m84.37 4.13l-56.918 15.182-5.681 1.471-.946.498-.887-.035-6.509 1.648c-1.244.328-2 1.62-1.672 2.864l.527 7.694 22.775 85.55c.716 2.097 2.527 3.53 4.316 2.919l72-19.87c1.746-.461 2.737-2.255 2.277-4l-1.454-4.443c.785-.8 1.139-1.983.831-3.154l-24.715-84.04c-.461-1.746-2.201-2.745-3.947-2.284z"/><path opacity=".3" stroke-width=".872" d="m84.86 4.201l-56.941 15.1-5.681 1.471-.946.498-.887-.035-5.912 1.588c-1.244.328-2 1.62-1.672 2.864l.443 7.679 22.543 84.88c.716 2.097 2.527 3.53 4.316 2.919l13.278-3.775.027-.004 58.23-16.1c1.746-.461 2.737-2.255 2.277-4l-1.734-3.7c.785-.8 1.139-1.983.831-3.154l-24.22-83.941c-.461-1.746-2.201-2.745-3.947-2.284z"/><path opacity=".1" stroke-width="4.362" d="m83.962 4.333l-56.941 15.1-5.681 1.471-.946.498-.887-.035-6.509 1.648c-1.244.328-2 1.62-1.672 2.864l.527 7.694 22.775 85.55c.716 2.097 2.527 3.53 4.316 2.919l72-19.87c1.746-.461 2.737-2.255 2.277-4l-1.454-4.443c.785-.8 1.139-1.983.831-3.154l-24.692-83.95c-.461-1.746-2.201-2.745-3.947-2.284z"/><path opacity=".2" stroke-width="2.617" d="m83.939 4.246l-57.812 15.314-5.681 1.471-.946.498-.887-.035-6.509 1.648c-1.244.328-2 1.62-1.672 2.864l.527 7.694 22.775 85.55c.716 2.097 2.527 3.53 4.316 2.919l13.278-3.775.027-.004 58.699-16.09c1.746-.461 2.737-2.255 2.277-4l-1.454-4.443c.785-.8 1.139-1.983.831-3.154l-23.821-84.17c-.461-1.746-2.201-2.745-3.947-2.284z"/></g><path fill="#382509" d="m27.687 26.01l24.11 91.39 58.747-16.1c1.746-.461 2.73-2.264 2.27-4.01l-25.94-87.34c-.461-1.746-2.186-2.751-3.932-2.29z"/><path fill="url(#c)" fill-rule="evenodd" d="m109.11 99.58c3.036-1.024 1.444-5.531 1.627-8.537l-7.354.839z"/><path d="m26.799 18.507l-5.877 1.505-.936.514-.902-.043-6.513 1.668c-1.244.328-1.99 1.609-1.662 2.853l.52 7.704 22.784 85.52c.716 2.097 2.529 3.552 4.318 2.941l13.308-3.795-.19-7.835c.756-.546 1.134-1.52.881-2.478l-22.957-86.89c-.328-1.244-1.529-1.995-2.773-1.667"/><path fill="url(#d)" d="m27.338 18.936l-5.867 1.544-.96.524-.925-.091-6.471 1.662c-1.244.328-2.048 1.628-1.72 2.872l.52 7.697 21.952 83.19c-.178-1.322 1.71-4.948 3.232-5.424l14.807-4.062c-9.468-28.24-16.685-57.964-24.568-87.91"/><use fill="url(#e)" xlink:href="#z"/><path fill-opacity=".476" d="m51.829 117.32l58.67-15.983c1.665-.439 2.638-2.117 2.324-3.785-.08 1.362-.989 2.616-2.378 2.982l-58.807 16.04z"/><g fill="url(#f)"><path opacity=".492" d="m51.717 116.72l58.674-16.13c1.665-.439 2.638-2.117 2.324-3.785-.08 1.362-.989 2.616-2.378 2.982l-58.921 16.17z"/><path opacity=".344" d="m51.653 116.61l58.739-16.02c1.665-.439 2.638-2.117 2.324-3.785-.08 1.362-.955 3.117-2.345 3.484l-58.879 15.815z"/></g><g fill="none" stroke-width=".09"><path opacity=".398" stroke="url(#g)" d="m35.708 117.31c1.789-.264 73.33-20.09 73.33-20.09"/><path opacity=".398" stroke="url(#h)" d="m35.954 116.24c1.789-.264 73.06-20.01 73.06-20.01"/><path opacity=".398" stroke="url(#i)" d="m36.2 115.45c1.789-.264 72.68-20.12 72.68-20.12"/><path opacity=".398" stroke="url(#j)" d="m36.481 118.17c1.789-.264 72.62-19.946 72.62-19.946"/><path opacity=".398" stroke="url(#k)" d="m36.468 114.51c1.789-.264 72.11-19.87 72.11-19.87"/><path opacity=".398" stroke="url(#l)" d="m37.26 119.05c1.789-.264 71.978-19.932 71.978-19.932"/></g><path opacity=".69" fill-opacity=".476" d="m51.829 117.32l58.67-15.983c1.665-.439 2.638-2.117 2.324-3.785.017 1.9-.999 3.06-2.389 3.426l-58.642 15.987z"/><use fill="url(#m)" xlink:href="#z"/><g fill-rule="evenodd"><path opacity=".422" fill="url(#n)" d="m35.15 115.4c-.019-.654.927-2.24 1.288-2.46 4.864-1.273 9.729-2.545 14.593-3.818-.073-.327-.146-.654-.219-.98-4.939 1.303-9.878 2.606-14.817 3.909-.593.109-.905 2.391-.846 3.349"/><path opacity=".422" fill="url(#o)" d="m35.15 115.4c-.019-.654 1.318-2.456 1.68-2.676 4.864-1.273 9.04-2.39 13.9-3.663-.073-.327-.174-.437-.248-.764-4.939 1.303-8.272 2.32-13.62 3.7-1.478.381-1.771 2.445-1.712 3.403"/><path opacity=".422" fill="url(#p)" d="m35.15 115.4c.121-.004.143-.393.239-.67.28-.802.85-1.881 1.683-2.02 4.864-1.273 8.793-2.374 13.658-3.646-.073-.327-.2-.244-.273-.571-4.939 1.303-8.613 2.494-13.552 3.797-1.01.31-1.59 1.465-1.751 2.401-.047.272-.078.72-.003.711"/></g><path opacity=".369" fill="url(#q)" d="m19.246 20.958l24.601 90.56 1.051-.301-24.751-90.23z"/><path fill="url(#r)" d="m28.21 22.397l-5.867 1.544-.96.524-.925-.091-6.471 1.662c-1.244.328-2.048 1.628-1.72 2.872l.52 7.697 21.08 79.72c-.178-1.322 1.04-4.848 3.232-5.424l14.807-4.062c-9.468-28.24-15.811-54.5-23.694-84.45"/><path fill="url(#y)" d="m26.594 18.553l24.681 91.14 58.641-15.981c1.746-.461 2.73-2.264 2.27-4.01l-24.705-83.951c-.461-1.746-2.186-2.751-3.932-2.29z"/><path opacity=".4" fill="#fff" d="m33.779 45.04c.302 1.247 1.525 5.704 1.827 6.95l-.002.006c.298-.489 3.814-6.255 5.299-8.692-3.519.853-5.605 1.368-7.124 1.736"/><path fill-opacity=".476" d="m51.26 109.67l58.67-15.983c1.665-.439 2.638-2.117 2.324-3.785-.08 1.362-.989 2.616-2.378 2.982l-58.807 16.04z"/><path opacity=".492" fill="url(#s)" d="m51.15 109.08l58.674-16.13c1.665-.439 2.638-2.117 2.324-3.785-.08 1.362-.989 2.616-2.378 2.982l-58.969 15.754z"/><path fill="url(#t)" d="m26.493 17.505c-.919.26 9.369 41.617 23.05 92.43l3.388-.957c-13.698-50.811-25.522-91.73-26.441-91.47"/><g fill="url(#s)"><path opacity=".344" d="m50.881 108.92l58.941-15.968c1.665-.439 2.638-2.117 2.324-3.785-.08 1.362-.955 3.117-2.345 3.484l-59.08 15.766z"/><path opacity=".344" d="m51.24 108.95l58.59-15.994c1.665-.439 2.638-2.117 2.324-3.785-.08 1.362-.956 2.795-2.346 3.161l-58.773 15.833z"/></g><path fill-opacity=".476" d="m51.26 109.67l58.67-15.983c1.665-.439 2.638-2.117 2.324-3.785.017 1.9-.999 3.06-2.389 3.426l-58.642 15.987z"/><g fill="url(#u)"><path opacity=".463" d="m85.12 3.151c-.121.007-.254.081-.376.102 1.361.067 2.542.924 2.913 2.33l24.679 83.969c.461 1.746-.507 3.596-2.252 4.056l-57.881 15.773.01.152 58.63-15.977c1.746-.461 2.713-2.31 2.252-4.056l-24.679-83.969c-.403-1.528-1.793-2.472-3.299-2.38"/><path opacity=".463" d="m85.12 3.161c-.192.012-.41.071-.604.117 1.243.17 2.339 1.036 2.685 2.345l24.679 83.969c.461 1.746-.507 3.596-2.252 4.056l-57.5 15.671.092.223 58.63-15.977c1.746-.461 2.713-2.31 2.252-4.056l-24.679-83.969c-.403-1.528-1.793-2.472-3.299-2.38"/></g><path opacity=".348" d="m84.15 3.319c-.215.013-.462.065-.681.123l-56.886 15.11.091.491 56.826-15.14c1.746-.461 3.525.588 3.985 2.334l-.036-.533c-.403-1.528-1.793-2.472-3.299-2.38"/><g fill="url(#v)"><path d="m84.05 3.108c-.215.013-.462.065-.681.123l-56.835 15.02.325 1.477 56.772-15.571c1.746-.461 3.427.304 3.888 2.05l-.17-.714c-.403-1.528-1.793-2.472-3.299-2.38"/><path d="m84.05 3.108c-.215.013-.462.065-.681.123l-56.841 15.05.12.509 56.949-14.997c1.746-.461 3.451.701 3.912 2.447l-.159-.755c-.403-1.528-1.793-2.472-3.299-2.38"/></g><path fill="url(#w)" d="m83.954 2.761c-.215.013-.462.065-.681.123l-56.841 15.05.232.981 56.848-15.31c1.746-.461 3.44.542 3.901 2.288l-.159-.755c-.403-1.528-1.793-2.472-3.299-2.38"/><g fill="#fff"><path opacity=".4" d="m26.843 18.977c.302 1.247 1.394 5.75 1.696 6.997 1.569-.38 20.76-5.03 21.426-5.193.298-.489 3.814-6.255 5.299-8.692-3.519.853-26.901 6.52-28.421 6.888"/><path opacity=".4" d="m30.429 31.75c.302 1.247 1.525 5.704 1.827 6.95 1.569-.38 10.263-2.428 10.928-2.589.298-.489 3.814-6.255 5.299-8.692-3.519.853-16.535 3.963-18.05 4.332"/></g><path fill="url(#x)" d="m89.69 24.515c-2.128 3.421-4.24 6.853-6.186 10.383-5.212 9.968-9.692 20.288-12.815 31.12-1.699 5.899-3.151 11.857-4.592 17.815-3.335 6.995-6.727 13.961-10.186 20.897-.42.858-.831 1.725-1.246 2.591l1.827-.502c.502-1.135 1.01-2.268 1.513-3.399 2.338-5.102 4.694-10.196 7.05-15.29-1.032 4.239-2.089 8.475-3.253 12.684-.355 1.099-1.567 3.555-2.086 5.129l2.642-.719c.886-1.591 1.091-3.462 1.727-5.886 1.19-5.676 2.366-11.347 3.645-16.993 2.388-5.159 4.776-10.316 7.156-15.479 5.177-11.407 10.629-22.702 17.918-32.88l-.291-.88c-7.74 10.629-13.324 22.547-18.787 34.485-1.694 3.656-3.397 7.306-5.117 10.949 1.065-4.503 2.211-8.989 3.504-13.444 3.237-10.951 7.891-21.36 13.309-31.383 1.472-2.664 3.071-5.252 4.725-7.805zm6.941 21.12c-.431 4.942-1.088 9.861-2.083 14.746-2.105 11.433-4.249 22.891-7.468 34.07-.434 1.387-1.664 3.603-1.873 4.539l1.395-.382c.345-.296.759-.676 1.261-1.161l-1.156 1.134.692-.188c1.379-1.377 1.436-2.75 2.114-5.523 2.509-10.987 4.338-22.12 6.152-33.23.772-4.04 1.259-8.11 1.559-12.194z"/></g><path opacity=".381" fill="url(#b)" d="M127.82442 115.70919A63.912209 12.641975 0 1 1 0 115.70919 63.912209 12.641975 0 1 1 127.82442 115.70919" transform="matrix(.83571 0 0 .41667 9.981 74.03)"/></svg>