<svg xmlns="http://www.w3.org/2000/svg" viewBox="0 0 128 128" xmlns:xlink="http://www.w3.org/1999/xlink"><defs><linearGradient id="a"><stop stop-color="#fff"/><stop offset="1" stop-color="#fff" stop-opacity="0"/></linearGradient><linearGradient spreadMethod="reflect" id="b" y1="46.29" x1="79.25" y2="100.68" x2="76.954" gradientUnits="userSpaceOnUse"><stop stop-color="#fff" stop-opacity=".55"/><stop offset="1" stop-color="#fff" stop-opacity="0"/></linearGradient><linearGradient id="c" y1="1.16" x1="57.29" y2="16.877" x2="144.25" gradientUnits="userSpaceOnUse"><stop stop-color="#fff" stop-opacity="0"/><stop offset=".069" stop-color="#fff"/><stop offset=".5" stop-color="#fff"/><stop offset="1" stop-color="#fff" stop-opacity="0"/></linearGradient><radialGradient fx="22.471" fy="59.35" cx="23.19" cy="59.38" id="d" r="2.108" gradientUnits="userSpaceOnUse" gradientTransform="matrix(1 0 0 .94118 0 3.493)"><stop stop-color="#fff"/><stop offset="1" stop-color="#c0c0c0" stop-opacity="0"/></radialGradient><linearGradient xlink:href="#a" id="e" y1="-126.75" x1="98.29" y2="101.46" x2="44.24" gradientUnits="userSpaceOnUse"/><linearGradient xlink:href="#a" id="f" y1="-44.01" x1="98.29" y2="101.46" gradientUnits="userSpaceOnUse" x2="44.24"/><radialGradient fx="63.975" fy="116.89" cx="63.912" cy="115.71" id="g" r="63.912" gradientUnits="userSpaceOnUse" gradientTransform="matrix(1 0 0 .1978 0 92.82)"><stop/><stop offset="1" stop-opacity="0"/></radialGradient><radialGradient fx="74.817" fy="-43.17" cx="5.753" cy="-45.42" xlink:href="#a" id="h" r="124.1" gradientUnits="userSpaceOnUse" gradientTransform="matrix(1 0 0 .09492 0-41.1)"/><radialGradient fx="24.26" fy="96.78" cx="23.663" cy="95.9" xlink:href="#a" id="i" r="2.794" gradientUnits="userSpaceOnUse" gradientTransform="matrix(1.48414.12952-.48978 5.61225 35.513-445.37)"/><linearGradient id="j" y1="116.1" x1="84.63" y2="-15.337" x2="89.73" gradientUnits="userSpaceOnUse"><stop stop-color="#ff0"/><stop offset="1" stop-color="#ffb66d"/></linearGradient><path fill="url(#h)" id="k" d="M129.85647-45.41592A124.10334 11.780229 0 1 1 -118.35021 -45.41592 124.10334 11.780229 0 1 1 129.85647 -45.41592"/></defs><path fill="#e3ad00" d="m153.09 94.71c-8.557 12.383-60.48-1.7-74.68 3.288-14.202 4.988-45.911 48.45-60.33 44.13-14.421-4.312-17.07-58.04-26.2-70.01-9.133-11.965-60.26-28.693-60.62-43.742-.355-15.05 49.927-34.17 58.48-46.555 8.557-12.383 8.667-66.18 22.869-71.17 14.202-4.988 47.928 36.924 62.35 41.24 14.421 4.312 65.62-12.208 74.75-.242 9.133 11.965-20.306 56.992-19.95 72.04.356 15.05 31.887 58.63 23.33 71.02" transform="matrix(.51129.18776-.18776.51129 41.723 44.08)"/><path fill="url(#j)" stroke="url(#b)" stroke-linejoin="round" stroke-width="6.803" d="m64.818 10.159c-.236.158-1.505.798-2.974 2.55-1.742 2.076-3.704 5.208-5.666 8.527-1.961 3.319-3.926 6.857-5.836 9.915-1.91 3.058-3.535 5.612-6.06 7.394-2.527 1.782-5.515 2.458-9.04 3.229-3.522.772-7.49 1.42-11.275 2.153-3.785.733-7.403 1.55-9.943 2.493-2.183.811-3.196 1.782-3.399 1.926.001.002-.001.026 0 .028.071.197.245 1.615 1.501 3.626 1.436 2.298 3.824 5.154 6.374 8.05 2.55 2.891 5.273 5.822 7.592 8.583 2.319 2.761 4.27 5.119 5.184 8.07.914 2.954.638 5.987.283 9.575-.355 3.588-.944 7.562-1.416 11.388-.03.246-.06.492-.09.736-.426 3.561-.724 6.957-.619 9.49.098 2.369.738 3.649.793 3.853.209-.006 1.609.234 3.909-.34 2.629-.656 6.07-2.01 9.603-3.541 3.537-1.532 7.196-3.237 10.538-4.589 3.342-1.352 6.171-2.48 9.263-2.436 3.092.044 5.875 1.245 9.178 2.691 3.303 1.446 6.932 3.269 10.425 4.901 3.493 1.632 6.88 3.066 9.49 3.796 2.284.639 3.698.442 3.909.453.06-.202.741-1.459.907-3.824.189-2.703-.033-6.389-.397-10.226-.364-3.838-.88-7.848-1.133-11.445-.253-3.597-.431-6.619.567-9.547.997-2.927 3.01-5.238 5.411-7.932 2.396-2.694 5.216-5.539 7.847-8.357 2.631-2.817 5.04-5.619 6.544-7.875 1.29-1.939 1.56-3.335 1.643-3.569.001-.003-.001-.026 0-.028-.201-.15-1.212-1.139-3.371-2.01-2.513-1.015-6.068-1.936-9.83-2.776-3.762-.84-7.719-1.622-11.218-2.493-3.499-.871-6.476-1.603-8.952-3.456-2.476-1.853-4.01-4.481-5.836-7.592-1.822-3.111-3.686-6.684-5.552-10.06-1.867-3.373-3.757-6.544-5.439-8.668-1.472-1.859-2.753-2.529-2.918-2.663z" stroke-dashoffset="4"/><path opacity=".381" fill="url(#g)" d="M127.82442 115.70919A63.912209 12.641975 0 1 1 0 115.70919 63.912209 12.641975 0 1 1 127.82442 115.70919" transform="matrix(-1.0014 0 0 .41038 128 75.33)"/><g fill="none" stroke="url(#c)"><path stroke-opacity=".581" stroke-width=".507" d="m55.27 10.74c1.253-2.171 5.954-9.382 9.742-9.326 6.881.104 18.503 29.716 23.938 33.05 6.69 4.1 30.978 7 35.397 10.509"/><g stroke-opacity=".431" stroke-linejoin="round" stroke-linecap="round"><path d="m55.24 11.275c1.253-2.171 6-9.702 9.788-9.617 6.807.153 18.248 29.825 23.846 33.05 6.801 3.914 31.12 7.06 35.538 10.566"/><path stroke-width="2" d="m55.21 12.312c1.253-2.171 6.215-10.276 9.818-10.166 6.259.193 18.4 30.31 23.754 33.05 6.988 3.568 32.31 7.488 35.935 10.901"/></g></g><path opacity=".702" fill="url(#d)" d="M25.298673 59.37942A2.108223 1.98421 0 1 1 21.08223 59.37942 2.108223 1.98421 0 1 1 25.298673 59.37942" transform="matrix(-1.74294-1.06349-.47053 1.24428 191.15-3.699)"/><path fill="url(#e)" d="m64.813 10.156c-.236.158-1.499.811-2.969 2.563-1.742 2.076-3.695 5.213-5.656 8.531-1.961 3.319-3.934 6.848-5.844 9.906-1.91 3.058-3.535 5.593-6.06 7.375-2.527 1.782-5.509 2.478-9.03 3.25-3.522.772-7.497 1.423-11.281 2.156-3.785.733-7.397 1.526-9.938 2.469-2.183.811-3.203 1.793-3.406 1.938 0 .003 0 .028 0 .031.071.197.243 1.614 1.5 3.625 1.436 2.298 3.825 5.14 6.375 8.03 1.923 2.179 3.941 4.396 5.813 6.531 22.875 2.405 47.22 10.888 71.44 14.969.08-1.345.317-2.636.75-3.906.997-2.927 3.01-5.212 5.406-7.906 2.396-2.694 5.213-5.558 7.844-8.375 2.631-2.817 5.03-5.619 6.531-7.875 1.29-1.939 1.573-3.328 1.656-3.563 0-.003 0-.028 0-.031-.201-.15-1.216-1.128-3.375-2-2.513-1.015-6.082-1.941-9.844-2.781-3.762-.84-7.72-1.629-11.219-2.5-3.499-.871-6.462-1.616-8.938-3.469-2.476-1.853-4.02-4.451-5.844-7.563-1.822-3.111-3.665-6.69-5.531-10.06-1.867-3.373-3.755-6.563-5.438-8.688-1.472-1.859-2.773-2.522-2.938-2.656"/><g fill="url(#f)"><path opacity=".414" d="m64.813 10.156c-.236.158-1.499.811-2.969 2.563-1.742 2.076-3.695 5.213-5.656 8.531-1.961 3.319-3.934 6.848-5.844 9.906-1.91 3.058-3.535 5.593-6.06 7.375-2.527 1.782-5.509 2.478-9.03 3.25-3.522.772-7.497 1.423-11.281 2.156-3.785.733-7.397 1.526-9.938 2.469-2.183.811-3.203 1.793-3.406 1.938 0 .003 0 .028 0 .031.071.197.243 1.614 1.5 3.625 1.436 2.298 3.825 5.14 6.375 8.03 1.923 2.179 3.941 4.396 5.813 6.531 1.44.151 2.892.334 4.344.531 13.673-10.47 32.08-23.905 49.875-35.844-1.76-3.033-3.542-6.495-5.344-9.75-1.867-3.373-3.755-6.563-5.438-8.688-1.472-1.859-2.773-2.522-2.938-2.656m34.531 33.75c-12.548 9.475-23.551 20.01-33.09 31.19 9.783 2.411 19.652 4.778 29.5 6.438.08-1.345.317-2.636.75-3.906.997-2.927 3.01-5.212 5.406-7.906 2.396-2.694 5.213-5.558 7.844-8.375 2.631-2.817 5.03-5.619 6.531-7.875 1.29-1.939 1.573-3.328 1.656-3.563 0-.003 0-.028 0-.031-.201-.15-1.216-1.128-3.375-2-2.513-1.015-6.082-1.941-9.844-2.781-1.769-.395-3.587-.801-5.375-1.188"/><path opacity=".348" d="m64.813 10.156c-.236.158-1.499.811-2.969 2.563-1.742 2.076-3.695 5.213-5.656 8.531-1.961 3.319-3.934 6.848-5.844 9.906-1.91 3.058-3.535 5.593-6.06 7.375-2.527 1.782-5.509 2.478-9.03 3.25-3.522.772-7.497 1.423-11.281 2.156-3.785.733-7.397 1.526-9.938 2.469-2.183.811-3.203 1.793-3.406 1.938 0 .003 0 .028 0 .031.071.197.243 1.614 1.5 3.625 1.436 2.298 48.609-8.812 66.41-20.75-1.76-3.033-3.542-6.495-5.344-9.75-1.867-3.373-3.755-6.563-5.438-8.688-1.472-1.859-2.773-2.522-2.938-2.656m34.531 33.75c-30.874 23.581-13.442 35.966-3.594 37.625.08-1.345.317-2.636.75-3.906.997-2.927 3.01-5.212 5.406-7.906 2.396-2.694 5.213-5.558 7.844-8.375 2.631-2.817 5.03-5.619 6.531-7.875 1.29-1.939 1.573-3.328 1.656-3.563 0-.003 0-.028 0-.031-.201-.15-1.216-1.128-3.375-2-2.513-1.015-6.082-1.941-9.844-2.781-1.769-.395-3.587-.801-5.375-1.188"/></g><use opacity=".357" xlink:href="#k" transform="matrix(.12684-.05624-.0387-.09212 44.812 106.26)"/><use opacity=".496" xlink:href="#k" transform="matrix(-.12683-.05703.0387-.09342 81.959 106.31)"/><use opacity=".275" xlink:href="#k" transform="matrix(-.00655-.13534-.09988.0027 91.95 98.93)"/><g fill="#2e3436"><path opacity=".17" d="m126.31 45.945c1.263 8.07-21.259 24.943-23.844 32.531-2.644 7.761 5.294 35.963-1.406 40.687-6.7 4.725-30.615-12.196-38.813-12.313-8.198-.116-32.561 16.13-39.12 11.219-.311-.233-.568-.544-.813-.875.394 1.308.966 2.335 1.813 2.969 6.564 4.912 30.927-11.335 39.13-11.219 8.198.116 32.11 17.07 38.812 12.344 6.7-4.725-1.237-32.927 1.406-40.687 2.644-7.761 26.14-25.26 23.719-33.09-.169-.546-.462-1.078-.875-1.563m-124.81 3.906c3.082 7.987 17.11 20.259 21.344 27.469-1.949-6.161-16.449-18.638-21.344-27.469"/><path opacity=".17" d="m127.13 47.38c.649 8.187-21.323 24.729-23.875 32.22-2.644 7.761 5.294 35.963-1.406 40.687-6.7 4.725-30.584-12.228-38.781-12.344-8.198-.116-32.592 16.16-39.16 11.25-.994-.744-1.616-2.036-2-3.688.342 2.146 1.03 3.798 2.219 4.688 6.564 4.912 30.927-11.366 39.13-11.25 8.198.116 32.11 17.07 38.812 12.344 6.7-4.725-1.237-32.927 1.406-40.687 2.644-7.761 26.14-25.26 23.719-33.09-.013-.044-.047-.082-.063-.125m-126.19.375c1.043 8.543 20.707 24.507 22.938 31.719.027.088.038.189.063.281-.068-.469-.164-.902-.281-1.281-2.146-6.937-20.402-21.981-22.719-30.719"/></g><path opacity=".553" fill="url(#i)" fill-rule="evenodd" d="m25.09 80.22c.446 10.529-3.034 25.734-2.851 31.25l2.395.228c1.968-10 3.385-20.18 3.535-30.79z"/><path opacity=".62" fill="#2e3436" d="m.895 47.07c-.004 8.347 20.708 24.998 23 32.406.227.734.353 1.635.406 2.688-.043-1.169-.16-2.203-.406-3-2.266-7.325-22.546-23.658-23-32.09m126.47 1.719c-.596 8.404-21.397 24.22-23.875 31.5-.351 1.031-.526 2.443-.563 4.094.049-1.523.232-2.811.563-3.781 2.509-7.365 23.783-23.493 23.875-31.812m-64.09 59.844c-8.198-.116-32.561 16.16-39.12 11.25-1.436-1.075-2.158-3.265-2.406-6.094.224 2.977.919 5.293 2.406 6.406 6.564 4.912 30.927-11.366 39.13-11.25 8.198.116 32.11 17.07 38.812 12.344 1.723-1.215 2.44-3.989 2.656-7.563-.239 3.43-.981 6.069-2.656 7.25-6.7 4.725-30.615-12.228-38.812-12.344"/></svg>