<svg xmlns="http://www.w3.org/2000/svg" viewBox="0 0 128 128" xmlns:xlink="http://www.w3.org/1999/xlink"><defs><clipPath id="a"><path d="m.129 40.839h127.74v89.03h-127.74z"/></clipPath><clipPath id="b"><path d="m-28.903-13.355h185.81v54.19h-185.81z"/></clipPath><filter width="1.258" x="-.129" y="-.129" height="1.258" id="c"><feGaussianBlur stdDeviation="1.14136"/></filter><filter id="d"><feGaussianBlur stdDeviation="2.03161"/></filter><filter id="e"><feGaussianBlur stdDeviation="2.36"/></filter><linearGradient id="f" y1="118.53" x1="118.05" y2="111.31" gradientUnits="userSpaceOnUse" x2="111.31"><stop stop-color="#a2a2a2"/><stop offset="1" stop-color="#fff"/></linearGradient><linearGradient spreadMethod="reflect" id="g" y1="72" y2="80.06" gradientUnits="userSpaceOnUse" x2="0" gradientTransform="matrix(1.49331 0 0 1.49332-35.414-35.28)"><stop stop-color="#f00"/><stop offset="1" stop-color="#8c0000"/></linearGradient><radialGradient cx="48" cy="-.215" id="h" r="55.15" gradientUnits="userSpaceOnUse" gradientTransform="matrix(1.07353-.00005.00004.94492 8.436 21.987)"><stop stop-color="#72d13d"/><stop offset=".355" stop-color="#35ac1c"/><stop offset=".619" stop-color="#0f9508"/><stop offset=".757" stop-color="#008c00"/><stop offset="1" stop-color="#007a00"/></radialGradient><radialGradient cx="48.13" cy="8.625" id="i" r="49.875" gradientUnits="userSpaceOnUse" gradientTransform="matrix(1.7229 0 0 1.58041-22.52 11.166)"><stop stop-color="#d6ffc0"/><stop offset=".074" stop-color="#ccfab7"/><stop offset=".611" stop-color="#4cb544"/><stop offset=".757" stop-color="#008c00"/></radialGradient><linearGradient id="j" y1="31.11" x1="27.937" y2="177.58" gradientUnits="userSpaceOnUse" x2="32.05" gradientTransform="matrix(.93723 0 0 .93724-3.869 4.148)"><stop stop-color="#fff"/><stop offset="1" stop-color="#eee"/></linearGradient><linearGradient id="k" y1="7.92" y2="24.07" gradientUnits="userSpaceOnUse" x2="0" gradientTransform="matrix(1 0 0 .32948-64.63-.039)"><stop/><stop offset="1" stop-color="#fff" stop-opacity="0"/></linearGradient><linearGradient id="l" y1="6.079" y2="24.07" gradientUnits="userSpaceOnUse" x2="0" gradientTransform="matrix(1 0 0 .32948-64.63-24.05)"><stop stop-color="#004d00"/><stop offset="1" stop-color="#fff" stop-opacity="0"/></linearGradient><linearGradient xlink:href="#k" id="m" y1="7.92" y2="24.07" gradientUnits="userSpaceOnUse" x2="0" gradientTransform="matrix(1 0 0 .32948-.326-.039)"/><linearGradient xlink:href="#l" id="n" y1="6.079" y2="24.07" gradientUnits="userSpaceOnUse" x2="0" gradientTransform="matrix(1 0 0 .32948-.326-24.05)"/><path fill="#003d00" filter="url(#e)" id="o" d="m4 8h120v116h-120z" clip-path="url(#b)"/></defs><use xlink:href="#o" transform="matrix(.92979 0 0 1.10299.348 3.245)"/><use xlink:href="#o" transform="matrix(.92979 0 0 1.10299.348 3.245)"/><path opacity=".5" filter="url(#d)" clip-path="url(#a)" d="m11.895 8h112.11v87.55c-6.212 7.723-12.679 15.191-20.444 21.361h-91.66z" transform="matrix(.9989 0 0 .99891-7.816 7.464)"/><path fill="#fff" d="m8.373 18.521h103.97v83.16l-18.305 18.685h-85.67z"/><path fill="url(#j)" d="m10.07 17.996h100.37v84.64l-16.02 15.834h-84.35z"/><path fill="url(#i)" d="m8.171 16.211h104.18v31.729h-104.18z"/><path fill="url(#h)" d="m11.982 21.954h95.96v25.701h-95.96z"/><g stroke-opacity=".843" fill="#fff" stroke="#fff" stroke-width="1.486" transform="matrix(.93723 0 0 .69558 11.926 22.851)"><g transform="translate(-10.538 7.821)"><ellipse opacity=".8" cx="87.72" cy="7.562" rx=".396" ry=".602"/><ellipse opacity=".8" cx="87.46" cy="9.562" rx=".761" ry=".601"/><ellipse opacity=".8" cx="87.39" cy="11.568" rx=".858" ry=".611"/><ellipse opacity=".8" cx="87.41" cy="13.574" rx=".839" ry=".619"/><ellipse opacity=".8" cx="77.855" cy="7.546" rx=".19" ry=".579"/><ellipse opacity=".8" cx="79.71" cy="7.562" rx=".39" ry=".602"/><ellipse opacity=".8" cx="81.75" cy="7.562" rx=".352" ry=".601"/><ellipse opacity=".8" cx="83.65" cy="7.559" rx=".427" ry=".598"/><ellipse opacity=".8" cx="85.73" cy="7.562" rx=".36" ry=".601"/><ellipse opacity=".8" cx="75.72" cy="9.564" rx=".383" ry=".605"/><ellipse opacity=".8" cx="77.71" cy="9.568" rx=".396" ry=".611"/><ellipse opacity=".8" cx="79.72" cy="9.562" rx=".387" ry=".603"/><ellipse opacity=".8" cx="81.44" cy="9.562" rx=".799" ry=".602"/><ellipse opacity=".8" cx="83.49" cy="9.546" rx=".649" ry=".579"/><ellipse opacity=".8" cx="85.42" cy="9.562" rx=".79" ry=".602"/><ellipse opacity=".8" cx="75.42" cy="11.559" rx=".802" ry=".598"/><ellipse opacity=".8" cx="77.45" cy="11.562" rx=".767" ry=".601"/><ellipse opacity=".8" cx="79.43" cy="11.562" rx=".788" ry=".602"/><ellipse opacity=".8" cx="81.45" cy="11.564" rx=".782" ry=".605"/><ellipse opacity=".8" cx="83.39" cy="11.568" rx=".792" ry=".611"/><ellipse opacity=".8" cx="85.42" cy="11.562" rx=".792" ry=".603"/><ellipse opacity=".8" cx="75.49" cy="13.562" rx=".708" ry=".602"/><ellipse opacity=".8" cx="77.39" cy="13.562" rx=".849" ry=".602"/><ellipse opacity=".8" cx="79.41" cy="13.568" rx=".819" ry=".61"/><ellipse opacity=".8" cx="81.39" cy="13.567" rx=".86" ry=".609"/><ellipse opacity=".8" cx="83.37" cy="13.57" rx=".825" ry=".612"/><ellipse opacity=".8" cx="85.38" cy="13.568" rx=".846" ry=".611"/><ellipse opacity=".8" cx="75.39" cy="15.568" rx=".849" ry=".61"/><ellipse opacity=".8" cx="77.39" cy="15.568" rx=".851" ry=".611"/><ellipse opacity=".8" cx="79.39" cy="15.562" rx=".851" ry=".602"/><ellipse opacity=".8" cx="81.51" cy="15.562" rx=".701" ry=".602"/></g><g transform="translate(5.462-4.179)"><ellipse opacity=".8" cx="87.72" cy="19.562" rx=".396" ry=".602"/><ellipse opacity=".8" cx="87.46" cy="21.562" rx=".761" ry=".601"/><ellipse opacity=".8" cx="87.39" cy="23.568" rx=".858" ry=".611"/><ellipse opacity=".8" cx="87.41" cy="25.574" rx=".839" ry=".619"/><ellipse opacity=".8" cx="77.855" cy="19.546" rx=".19" ry=".579"/><ellipse opacity=".8" cx="79.71" cy="19.562" rx=".39" ry=".602"/><ellipse opacity=".8" cx="81.75" cy="19.562" rx=".498" ry=".85"/><ellipse opacity=".8" cx="83.65" cy="19.559" rx=".427" ry=".598"/><ellipse opacity=".8" cx="85.73" cy="19.562" rx=".36" ry=".601"/><ellipse opacity=".8" cx="75.72" cy="21.564" rx=".383" ry=".605"/><ellipse opacity=".8" cx="77.71" cy="21.568" rx=".396" ry=".611"/><ellipse opacity=".8" cx="79.72" cy="21.562" rx=".387" ry=".603"/><ellipse opacity=".8" cx="81.44" cy="21.562" rx=".799" ry=".602"/><ellipse opacity=".8" cx="83.49" cy="21.546" rx=".649" ry=".579"/><ellipse opacity=".8" cx="85.42" cy="21.562" rx=".79" ry=".602"/><ellipse opacity=".8" cx="75.42" cy="23.559" rx=".802" ry=".598"/><ellipse opacity=".8" cx="77.45" cy="23.562" rx=".767" ry=".601"/><ellipse opacity=".8" cx="79.43" cy="23.562" rx=".788" ry=".602"/><ellipse opacity=".8" cx="81.45" cy="23.564" rx=".782" ry=".605"/><ellipse opacity=".8" cx="83.39" cy="23.568" rx=".792" ry=".611"/><ellipse opacity=".8" cx="85.42" cy="23.562" rx=".792" ry=".603"/><ellipse opacity=".8" cx="75.49" cy="25.562" rx=".708" ry=".602"/><ellipse opacity=".8" cx="77.39" cy="25.562" rx=".849" ry=".602"/><ellipse opacity=".8" cx="79.41" cy="25.568" rx=".819" ry=".61"/><ellipse opacity=".8" cx="81.39" cy="25.567" rx=".86" ry=".609"/><ellipse opacity=".8" cx="83.37" cy="25.57" rx=".825" ry=".612"/><ellipse opacity=".8" cx="85.38" cy="25.568" rx=".846" ry=".611"/><ellipse opacity=".8" cx="75.39" cy="27.568" rx=".849" ry=".61"/><ellipse opacity=".8" cx="77.39" cy="27.568" rx=".851" ry=".611"/><ellipse opacity=".8" cx="79.39" cy="27.562" rx=".851" ry=".602"/><ellipse opacity=".8" cx="81.51" cy="27.562" rx=".701" ry=".602"/></g></g><g transform="matrix(.93723 0 0 .93724-3.869 4.148)"><path opacity=".486" fill="#060606" filter="url(#c)" d="m103.3 123.44c0 0 7.569-6.309 10.928-9.668 3.359-3.359 9.236-10.535 9.236-10.535 0 0-9.568-.155-20.1-.155 0 9.736-.061 20.358-.061 20.358"/><path fill="url(#f)" d="m104.14 123.99c0 0 7.276-6.05 10.635-9.413 3.359-3.359 9.413-10.635 9.413-10.635 0 0-10.896 2.677-17.16 2.677 0 6.26-2.893 17.371-2.893 17.371"/></g><path fill="#dfbfff" d="m79.8 55.917h7.983v8.185h-7.983z"/><g fill="#ddd"><path d="m32.24 104.14h7.983v7.983h-7.983z"/><path d="m32.24 88.14h7.983v7.983h-7.983z"/><path d="m32.24 72.14h7.983v7.983h-7.983z"/><path d="m32.24 56.14h7.983v7.983h-7.983z"/><path d="m48.24 104.14h7.983v7.983h-7.983z"/><path d="m48.24 88.14h7.983v7.983h-7.983z"/><path d="m48.24 72.14h7.983v7.983h-7.983z"/><path d="m48.24 56.14h7.983v7.983h-7.983z"/><path d="m64.24 104.14h7.983v7.983h-7.983z"/><path d="m64.24 88.14h7.983v7.983h-7.983z"/><path d="m64.24 72.14h7.983v7.983h-7.983z"/><path d="m64.24 56.14h7.983v7.983h-7.983z"/></g><g fill="#dfbfff"><path d="m79.8 71.917h7.983v8.185h-7.983z"/><path d="m79.8 87.92h7.983v8.185h-7.983z"/></g><path fill="url(#g)" d="m48.21 72.24h23.893v23.893h-23.893z"/><path opacity=".9" fill="#fff" d="m56.21 80.03h7.7v8.307h-7.7z"/><path fill="#eee" d="m15.592-.058h24.03v24.13h-24.03z"/><path opacity=".65" fill="url(#k)" d="m15.592-.058h24.03v7.949h-24.03z"/><path fill="url(#l)" d="m15.592-24.07h24.03v7.949h-24.03z" transform="scale(1-1)"/><path fill="#eee" d="m79.895-.058h24.03v24.13h-24.03z"/><path opacity=".65" fill="url(#m)" d="m79.895-.058h24.03v7.949h-24.03z"/><path fill="url(#n)" d="m79.895-24.07h24.03v7.949h-24.03z" transform="scale(1-1)"/></svg>