<?xml version="1.0" encoding="UTF-8" standalone="no"?>
<svg
   xmlns:dc="http://purl.org/dc/elements/1.1/"
   xmlns:cc="http://creativecommons.org/ns#"
   xmlns:rdf="http://www.w3.org/1999/02/22-rdf-syntax-ns#"
   xmlns:svg="http://www.w3.org/2000/svg"
   xmlns="http://www.w3.org/2000/svg"
   xmlns:xlink="http://www.w3.org/1999/xlink"
   width="156.021"
   height="137.01669"
   id="svg3234"
   version="1.0">
  <defs
     id="defs3236">
    <radialGradient
       xlink:href="#linearGradient1957"
       id="radialGradient1956"
       cx="192.37228"
       cy="673.23474"
       fx="192.37228"
       fy="673.23474"
       r="70.326324"
       gradientUnits="userSpaceOnUse"
       spreadMethod="pad"
       gradientTransform="scale(1.2669055,0.7893248)" />
    <linearGradient
       xlink:href="#linearGradient1949"
       id="linearGradient490"
       x1="223.839"
       y1="759.35974"
       x2="161.42285"
       y2="681.87573"
       gradientUnits="userSpaceOnUse"
       spreadMethod="pad"
       gradientTransform="scale(1.24697,0.8019439)" />
    <linearGradient
       id="linearGradient1957">
      <stop
         style="stop-color:#ffffff;stop-opacity:1;"
         offset="0.000000"
         id="stop1958" />
      <stop
         style="stop-color:#ffffff;stop-opacity:0;"
         offset="1.000000"
         id="stop1959" />
    </linearGradient>
    <radialGradient
       xlink:href="#linearGradient1957"
       id="radialGradient1961"
       cx="212.34723"
       cy="832.24927"
       fx="212.34723"
       fy="832.24927"
       r="124.38014"
       gradientUnits="userSpaceOnUse"
       gradientTransform="scale(1.2669055,0.7893248)"
       spreadMethod="pad" />
    <linearGradient
       id="linearGradient1949">
      <stop
         style="stop-color:#007d00;stop-opacity:1;"
         offset="0.000000"
         id="stop1950" />
      <stop
         style="stop-color:#1dff00;stop-opacity:1;"
         offset="1.000000"
         id="stop1951" />
    </linearGradient>
    <linearGradient
       xlink:href="#linearGradient1949"
       id="linearGradient1955"
       x1="235.18515"
       y1="678.85083"
       x2="217.53165"
       y2="747.12616"
       gradientUnits="userSpaceOnUse"
       gradientTransform="scale(1.24697,0.8019439)"
       spreadMethod="pad" />
    <linearGradient
       xlink:href="#linearGradient448"
       id="linearGradient451"
       x1="87.781136"
       y1="295.19843"
       x2="69.209984"
       y2="276.96136"
       gradientUnits="userSpaceOnUse"
       spreadMethod="pad"
       gradientTransform="scale(1.1869684,0.8424824)" />
    <linearGradient
       xlink:href="#linearGradient457"
       id="linearGradient456"
       x1="335.22119"
       y1="510.15631"
       x2="75.574921"
       y2="255.44344"
       gradientUnits="userSpaceOnUse"
       spreadMethod="pad"
       gradientTransform="scale(1.083042,0.9233252)" />
    <linearGradient
       xlink:href="#linearGradient448"
       id="linearGradient2515"
       gradientUnits="userSpaceOnUse"
       spreadMethod="pad"
       x1="87.781136"
       y1="295.19843"
       x2="69.209984"
       y2="276.96136"
       gradientTransform="scale(1.1869684,0.8424824)" />
    <linearGradient
       xlink:href="#linearGradient457"
       id="linearGradient2513"
       gradientUnits="userSpaceOnUse"
       spreadMethod="pad"
       x1="335.22119"
       y1="510.15631"
       x2="75.574921"
       y2="255.44344"
       gradientTransform="scale(1.083042,0.9233252)" />
    <linearGradient
       id="linearGradient448">
      <stop
         style="stop-color:#dedede;stop-opacity:1;"
         offset="0.000000"
         id="stop449" />
      <stop
         style="stop-color:#ffffff;stop-opacity:1;"
         offset="1.000000"
         id="stop450" />
    </linearGradient>
    <linearGradient
       xlink:href="#linearGradient448"
       id="linearGradient2511"
       gradientUnits="userSpaceOnUse"
       spreadMethod="pad"
       x1="87.781136"
       y1="295.19843"
       x2="69.209984"
       y2="276.96136"
       gradientTransform="scale(1.1869684,0.8424824)" />
    <linearGradient
       id="linearGradient457">
      <stop
         style="stop-color:#0000a3;stop-opacity:1;"
         offset="0.000000"
         id="stop458" />
      <stop
         style="stop-color:#4ad5ff;stop-opacity:1;"
         offset="1.000000"
         id="stop459" />
    </linearGradient>
    <linearGradient
       xlink:href="#linearGradient457"
       id="linearGradient2509"
       gradientUnits="userSpaceOnUse"
       spreadMethod="pad"
       x1="335.22119"
       y1="510.15631"
       x2="75.574921"
       y2="255.44344"
       gradientTransform="scale(1.083042,0.9233252)" />
    <linearGradient
       xlink:href="#linearGradient457"
       id="linearGradient3405"
       gradientUnits="userSpaceOnUse"
       gradientTransform="scale(1.083042,0.9233252)"
       spreadMethod="pad"
       x1="335.22119"
       y1="510.15631"
       x2="75.574921"
       y2="255.44344" />
    <linearGradient
       xlink:href="#linearGradient448"
       id="linearGradient3407"
       gradientUnits="userSpaceOnUse"
       gradientTransform="scale(1.1869684,0.8424824)"
       spreadMethod="pad"
       x1="87.781136"
       y1="295.19843"
       x2="69.209984"
       y2="276.96136" />
    <linearGradient
       xlink:href="#linearGradient457"
       id="linearGradient3409"
       gradientUnits="userSpaceOnUse"
       gradientTransform="scale(1.083042,0.9233252)"
       spreadMethod="pad"
       x1="335.22119"
       y1="510.15631"
       x2="75.574921"
       y2="255.44344" />
    <linearGradient
       xlink:href="#linearGradient448"
       id="linearGradient3411"
       gradientUnits="userSpaceOnUse"
       gradientTransform="scale(1.1869684,0.8424824)"
       spreadMethod="pad"
       x1="87.781136"
       y1="295.19843"
       x2="69.209984"
       y2="276.96136" />
    <linearGradient
       xlink:href="#linearGradient457"
       id="linearGradient3413"
       gradientUnits="userSpaceOnUse"
       gradientTransform="scale(1.083042,0.9233252)"
       spreadMethod="pad"
       x1="335.22119"
       y1="510.15631"
       x2="75.574921"
       y2="255.44344" />
    <linearGradient
       xlink:href="#linearGradient448"
       id="linearGradient3415"
       gradientUnits="userSpaceOnUse"
       gradientTransform="scale(1.1869684,0.8424824)"
       spreadMethod="pad"
       x1="87.781136"
       y1="295.19843"
       x2="69.209984"
       y2="276.96136" />
    <linearGradient
       xlink:href="#linearGradient457"
       id="linearGradient3838"
       gradientUnits="userSpaceOnUse"
       gradientTransform="scale(1.083042,0.9233252)"
       spreadMethod="pad"
       x1="335.22119"
       y1="510.15631"
       x2="75.574921"
       y2="255.44344" />
    <linearGradient
       xlink:href="#linearGradient448"
       id="linearGradient3840"
       gradientUnits="userSpaceOnUse"
       gradientTransform="scale(1.1869684,0.8424824)"
       spreadMethod="pad"
       x1="87.781136"
       y1="295.19843"
       x2="69.209984"
       y2="276.96136" />
    <linearGradient
       xlink:href="#linearGradient457"
       id="linearGradient3842"
       gradientUnits="userSpaceOnUse"
       gradientTransform="scale(1.083042,0.9233252)"
       spreadMethod="pad"
       x1="335.22119"
       y1="510.15631"
       x2="75.574921"
       y2="255.44344" />
    <linearGradient
       xlink:href="#linearGradient448"
       id="linearGradient3844"
       gradientUnits="userSpaceOnUse"
       gradientTransform="scale(1.1869684,0.8424824)"
       spreadMethod="pad"
       x1="87.781136"
       y1="295.19843"
       x2="69.209984"
       y2="276.96136" />
    <linearGradient
       xlink:href="#linearGradient457"
       id="linearGradient3846"
       gradientUnits="userSpaceOnUse"
       gradientTransform="scale(1.083042,0.9233252)"
       spreadMethod="pad"
       x1="335.22119"
       y1="510.15631"
       x2="75.574921"
       y2="255.44344" />
    <linearGradient
       xlink:href="#linearGradient448"
       id="linearGradient3848"
       gradientUnits="userSpaceOnUse"
       gradientTransform="scale(1.1869684,0.8424824)"
       spreadMethod="pad"
       x1="87.781136"
       y1="295.19843"
       x2="69.209984"
       y2="276.96136" />
    <linearGradient
       xlink:href="#linearGradient1949"
       id="linearGradient3850"
       gradientUnits="userSpaceOnUse"
       gradientTransform="scale(1.24697,0.8019439)"
       spreadMethod="pad"
       x1="235.18515"
       y1="678.85083"
       x2="217.53165"
       y2="747.12616" />
    <radialGradient
       xlink:href="#linearGradient1957"
       id="radialGradient3852"
       gradientUnits="userSpaceOnUse"
       gradientTransform="scale(1.2669055,0.7893248)"
       spreadMethod="pad"
       cx="212.34723"
       cy="832.24927"
       fx="212.34723"
       fy="832.24927"
       r="124.38014" />
    <linearGradient
       xlink:href="#linearGradient1949"
       id="linearGradient3854"
       gradientUnits="userSpaceOnUse"
       gradientTransform="scale(1.24697,0.8019439)"
       spreadMethod="pad"
       x1="223.839"
       y1="759.35974"
       x2="161.42285"
       y2="681.87573" />
    <radialGradient
       xlink:href="#linearGradient1957"
       id="radialGradient3856"
       gradientUnits="userSpaceOnUse"
       gradientTransform="scale(1.2669055,0.7893248)"
       spreadMethod="pad"
       cx="192.37228"
       cy="673.23474"
       fx="192.37228"
       fy="673.23474"
       r="70.326324" />
  </defs>
  <metadata
     id="metadata3239">
    <rdf:RDF>
      <cc:Work
         rdf:about="">
        <dc:format>image/svg+xml</dc:format>
        <dc:type
           rdf:resource="http://purl.org/dc/dcmitype/StillImage" />
        <cc:license
           rdf:resource="" />
        <dc:description>BibleTime icon &quot;autocascade windows&quot;.
Licence:
http://creativecommons.org/licenses/by-sa/2.5/ (or any later version)
http://www.gnu.org/licenses/old-licenses/lgpl-2.1.html (or any later version)</dc:description>
        <dc:creator>
          <cc:Agent>
            <dc:title>James Ots</dc:title>
          </cc:Agent>
        </dc:creator>
      </cc:Work>
    </rdf:RDF>
  </metadata>
  <g
     id="layer1"
     transform="translate(-327.68081,-115.11071)">
    <g
       transform="matrix(2.792544,0,0,2.792545,-146.7526,-778.15802)"
       id="g2117">
      <g
         transform="translate(0,-3.051758e-5)"
         id="g2118">
        <path
           transform="matrix(8.513864e-2,0,0,8.513869e-2,164.9181,302.4474)"
           id="path2119"
           d="M 77.578,600.387 C 75.8915,600.387 521.122,600.386 521.122,600.386 C 521.122,600.386 521.809,257.232 520.123,257.232 C 517.438,229.671 508.185,223.302 492.874,222.615 C 335.254,222.925 255.812,222.615 108.445,222.925 C 85.3889,222.615 79.575,232.179 78.2658,257.919 C 76.5794,303.455 79.2645,597.014 77.578,600.387 z "
           style="font-size:12px;fill:#000000;fill-opacity:0.18181799;fill-rule:evenodd;stroke:none;stroke-width:3.28521991" />
        <path
           transform="matrix(8.513864e-2,0,0,8.513869e-2,165.8064,303.4459)"
           id="path2120"
           d="M 77.578,600.387 C 75.8915,600.387 521.122,600.386 521.122,600.386 C 521.122,600.386 521.809,257.232 520.123,257.232 C 517.438,229.671 508.185,223.302 492.874,222.615 C 335.254,222.925 255.812,222.615 108.445,222.925 C 85.3889,222.615 79.575,232.179 78.2658,257.919 C 76.5794,303.455 79.2645,597.014 77.578,600.387 z "
           style="font-size:12px;fill:#000000;fill-opacity:0.18181799;fill-rule:evenodd;stroke:none;stroke-width:3.28521991" />
        <g
           transform="translate(-0.610925,-0.505554)"
           id="g2121">
          <path
             transform="matrix(8.513864e-2,0,0,8.513869e-2,164.0392,301.5685)"
             id="path2122"
             d="M 77.578,600.387 C 75.8915,600.387 521.122,600.386 521.122,600.386 C 521.122,600.386 521.809,257.232 520.123,257.232 C 517.438,229.671 508.185,223.302 492.874,222.615 C 335.254,222.925 255.812,222.615 108.445,222.925 C 85.3889,222.615 79.575,232.179 78.2658,257.919 C 76.5794,303.455 79.2645,597.014 77.578,600.387 z "
             style="font-size:12px;fill:url(#linearGradient3838);fill-rule:evenodd;stroke:#0000ff;stroke-width:3.28521991" />
          <rect
             transform="translate(94.0809,99.85593)"
             y="225.81799"
             x="76.497612"
             height="26.096319"
             width="36.818058"
             id="rect2123"
             style="font-size:12px;fill:url(#linearGradient3840);fill-rule:evenodd;stroke:#676665;stroke-width:0.0821044pt" />
        </g>
      </g>
      <g
         transform="translate(7.788848,7.189606)"
         id="g2124">
        <path
           transform="matrix(8.513864e-2,0,0,8.513869e-2,164.9181,302.4474)"
           id="path2125"
           d="M 77.578,600.387 C 75.8915,600.387 521.122,600.386 521.122,600.386 C 521.122,600.386 521.809,257.232 520.123,257.232 C 517.438,229.671 508.185,223.302 492.874,222.615 C 335.254,222.925 255.812,222.615 108.445,222.925 C 85.3889,222.615 79.575,232.179 78.2658,257.919 C 76.5794,303.455 79.2645,597.014 77.578,600.387 z "
           style="font-size:12px;fill:#000000;fill-opacity:0.18181799;fill-rule:evenodd;stroke:none;stroke-width:3.28521991" />
        <path
           transform="matrix(8.513864e-2,0,0,8.513869e-2,165.8064,303.4459)"
           id="path2126"
           d="M 77.578,600.387 C 75.8915,600.387 521.122,600.386 521.122,600.386 C 521.122,600.386 521.809,257.232 520.123,257.232 C 517.438,229.671 508.185,223.302 492.874,222.615 C 335.254,222.925 255.812,222.615 108.445,222.925 C 85.3889,222.615 79.575,232.179 78.2658,257.919 C 76.5794,303.455 79.2645,597.014 77.578,600.387 z "
           style="font-size:12px;fill:#000000;fill-opacity:0.18181799;fill-rule:evenodd;stroke:none;stroke-width:3.28521991" />
        <g
           transform="translate(-0.610925,-0.505554)"
           id="g2127">
          <path
             transform="matrix(8.513864e-2,0,0,8.513869e-2,164.0392,301.5685)"
             id="path2128"
             d="M 77.578,600.387 C 75.8915,600.387 521.122,600.386 521.122,600.386 C 521.122,600.386 521.809,257.232 520.123,257.232 C 517.438,229.671 508.185,223.302 492.874,222.615 C 335.254,222.925 255.812,222.615 108.445,222.925 C 85.3889,222.615 79.575,232.179 78.2658,257.919 C 76.5794,303.455 79.2645,597.014 77.578,600.387 z "
             style="font-size:12px;fill:url(#linearGradient3842);fill-rule:evenodd;stroke:#0000ff;stroke-width:3.28521991" />
          <rect
             transform="translate(94.0809,99.85593)"
             y="225.81799"
             x="76.497612"
             height="26.096319"
             width="36.818058"
             id="rect2129"
             style="font-size:12px;fill:url(#linearGradient3844);fill-rule:evenodd;stroke:#676665;stroke-width:0.0821044pt" />
        </g>
      </g>
      <g
         transform="translate(15.57765,14.37932)"
         id="g2130">
        <path
           transform="matrix(8.513864e-2,0,0,8.513869e-2,164.9181,302.4474)"
           id="path2131"
           d="M 77.578,600.387 C 75.8915,600.387 521.122,600.386 521.122,600.386 C 521.122,600.386 521.809,257.232 520.123,257.232 C 517.438,229.671 508.185,223.302 492.874,222.615 C 335.254,222.925 255.812,222.615 108.445,222.925 C 85.3889,222.615 79.575,232.179 78.2658,257.919 C 76.5794,303.455 79.2645,597.014 77.578,600.387 z "
           style="font-size:12px;fill:#000000;fill-opacity:0.18181799;fill-rule:evenodd;stroke:none;stroke-width:3.28521991" />
        <path
           transform="matrix(8.513864e-2,0,0,8.513869e-2,165.8064,303.4459)"
           id="path2132"
           d="M 77.578,600.387 C 75.8915,600.387 521.122,600.386 521.122,600.386 C 521.122,600.386 521.809,257.232 520.123,257.232 C 517.438,229.671 508.185,223.302 492.874,222.615 C 335.254,222.925 255.812,222.615 108.445,222.925 C 85.3889,222.615 79.575,232.179 78.2658,257.919 C 76.5794,303.455 79.2645,597.014 77.578,600.387 z "
           style="font-size:12px;fill:#000000;fill-opacity:0.18181799;fill-rule:evenodd;stroke:none;stroke-width:3.28521991" />
        <g
           transform="translate(-0.610925,-0.505554)"
           id="g2133">
          <path
             transform="matrix(8.513864e-2,0,0,8.513869e-2,164.0392,301.5685)"
             id="path2134"
             d="M 77.578,600.387 C 75.8915,600.387 521.122,600.386 521.122,600.386 C 521.122,600.386 521.809,257.232 520.123,257.232 C 517.438,229.671 508.185,223.302 492.874,222.615 C 335.254,222.925 255.812,222.615 108.445,222.925 C 85.3889,222.615 79.575,232.179 78.2658,257.919 C 76.5794,303.455 79.2645,597.014 77.578,600.387 z "
             style="font-size:12px;fill:url(#linearGradient3846);fill-rule:evenodd;stroke:#0000ff;stroke-width:3.28521991" />
          <rect
             transform="translate(94.0809,99.85593)"
             y="225.81799"
             x="76.497612"
             height="26.096319"
             width="36.818058"
             id="rect2135"
             style="font-size:12px;fill:url(#linearGradient3848);fill-rule:evenodd;stroke:#676665;stroke-width:0.0821044pt" />
        </g>
      </g>
    </g>
    <g
       transform="matrix(1.503624,0,0,1.503624,-58.5723,-402.36178)"
       id="g2138">
      <g
         transform="translate(-9.864464,-5.121948)"
         id="g2139">
        <path
           transform="matrix(-0.252356,0,0,-0.252356,406.6725,580.4371)"
           id="path2140"
           d="M 320.378,567.227 C 272.234,503.326 199.58,531.337 195.203,577.731 C 182.073,576.856 166.317,576.856 166.317,577.731 C 166.317,578.606 212.71,626.751 213.585,625.876 C 214.46,625 265.231,579.482 264.356,580.357 C 263.48,581.233 232.843,579.483 232.843,579.483 C 235.469,547.094 279.237,545.343 320.378,567.227 z "
           style="font-size:12px;fill:url(#linearGradient3850);fill-rule:evenodd;stroke:#005e00;stroke-width:8.66831017;stroke-linecap:round;stroke-linejoin:round;stroke-dasharray:none;stroke-opacity:1" />
        <path
           transform="matrix(-0.252356,0,0,-0.252356,406.6726,580.437)"
           id="path2141"
           d="M 320.378,567.227 C 272.234,503.326 199.58,531.337 195.203,577.731 C 182.073,576.856 166.317,576.856 166.317,577.731 C 166.317,578.606 212.71,626.751 213.585,625.876 C 214.46,625 265.231,579.482 264.356,580.357 C 263.48,581.233 232.843,579.483 232.843,579.483 C 235.469,547.094 279.237,545.343 320.378,567.227 z "
           style="font-size:12px;fill:url(#radialGradient3852);fill-rule:evenodd;stroke-width:4.625;stroke-linecap:round;stroke-linejoin:round" />
      </g>
      <g
         id="g2142">
        <path
           transform="matrix(0.252356,0,0,0.252356,266.8519,268.5084)"
           id="path2143"
           d="M 320.378,567.227 C 272.234,503.326 199.58,531.337 195.203,577.731 C 182.073,576.856 166.317,576.856 166.317,577.731 C 166.317,578.606 212.71,626.751 213.585,625.876 C 214.46,625 265.231,579.482 264.356,580.357 C 263.48,581.233 232.843,579.483 232.843,579.483 C 235.469,547.094 279.237,545.343 320.378,567.227 z "
           style="font-size:12px;fill:url(#linearGradient3854);fill-rule:evenodd;stroke:#005e00;stroke-width:8.66831017;stroke-linecap:round;stroke-linejoin:round;stroke-dasharray:none;stroke-opacity:1" />
        <path
           transform="matrix(0.252356,0,0,0.252356,266.8519,268.5084)"
           id="path2144"
           d="M 320.378,567.227 C 272.234,503.326 199.58,531.337 195.203,577.731 C 182.073,576.856 166.317,576.856 166.317,577.731 C 166.317,578.606 212.71,626.751 213.585,625.876 C 214.46,625 265.231,579.482 264.356,580.357 C 263.48,581.233 232.843,579.483 232.843,579.483 C 235.469,547.094 279.237,545.343 320.378,567.227 z "
           style="font-size:12px;fill:url(#radialGradient3856);fill-rule:evenodd;stroke-width:4.625;stroke-linecap:round;stroke-linejoin:round" />
      </g>
    </g>
  </g>
</svg>
