<svg xmlns="http://www.w3.org/2000/svg" viewBox="0 0 156.02 137.02" xmlns:xlink="http://www.w3.org/1999/xlink"><defs><linearGradient id="a" y1="510.16" x1="335.22" y2="255.44" gradientUnits="userSpaceOnUse" x2="75.57" gradientTransform="scale(1.08304.92333)"><stop stop-color="#0000a3"/><stop offset="1" stop-color="#4ad5ff"/></linearGradient><linearGradient id="b" y1="295.2" x1="87.78" y2="276.96" gradientUnits="userSpaceOnUse" x2="69.21" gradientTransform="scale(1.18697.84248)"><stop stop-color="#dedede"/><stop offset="1" stop-color="#fff"/></linearGradient><path fill-rule="evenodd" fill-opacity=".182" id="c" d="m77.58 600.39c-1.687 0 443.54-.001 443.54-.001 0 0 .687-343.15-.999-343.15-2.685-27.561-11.938-33.93-27.25-34.617-157.62.31-237.06 0-384.43.31-23.06-.31-28.87 9.254-30.18 34.994-1.686 45.536.999 339.1-.688 342.47"/><path fill="url(#a)" fill-rule="evenodd" stroke="#00f" id="d" stroke-width="3.285" d="m77.58 600.39c-1.687 0 443.54-.001 443.54-.001 0 0 .687-343.15-.999-343.15-2.685-27.561-11.938-33.93-27.25-34.617-157.62.31-237.06 0-384.43.31-23.06-.31-28.87 9.254-30.18 34.994-1.686 45.536.999 339.1-.688 342.47z"/><path fill="url(#b)" fill-rule="evenodd" stroke="#676665" id="e" stroke-width=".103" d="m76.5 225.82h36.818v26.1h-36.818z"/></defs><use xlink:href="#c" transform="matrix(.23775 0 0 .23775-13.892-48.671)"/><use xlink:href="#c" transform="matrix(.23775 0 0 .23775-11.412-45.882)"/><use xlink:href="#d" transform="matrix(.23775 0 0 .23775-18.05-52.54)"/><use xlink:href="#e" transform="matrix(2.79254 0 0 2.79255-213.41-615.83)"/><use xlink:href="#c" transform="matrix(.23775 0 0 .23775 7.858-28.593)"/><use xlink:href="#c" transform="matrix(.23775 0 0 .23775 10.339-25.805)"/><use xlink:href="#d" transform="matrix(.23775 0 0 .23775 3.698-32.46)"/><use xlink:href="#e" transform="matrix(2.79254 0 0 2.79255-191.66-595.75)"/><use xlink:href="#c" transform="matrix(.23775 0 0 .23775 29.609-8.516)"/><use xlink:href="#c" transform="matrix(.23775 0 0 .23775 32.09-5.728)"/><use xlink:href="#d" transform="matrix(.23775 0 0 .23775 25.449-12.382)"/><use xlink:href="#e" transform="matrix(2.79254 0 0 2.79255-169.91-575.67)"/></svg>