<svg xmlns="http://www.w3.org/2000/svg" viewBox="0 0 88 88" xmlns:xlink="http://www.w3.org/1999/xlink"><defs><filter id="a"><feGaussianBlur stdDeviation=".4605"/></filter><linearGradient id="b" y1="103.9" y2="30.849" x2="0" gradientUnits="userSpaceOnUse" gradientTransform="matrix(.5685 0 0 .73892 7.01.66)"><stop stop-color="#0c1f39"/><stop offset="1" stop-color="#204d90"/></linearGradient><filter id="c"><feBlend mode="lighten" in2="BackgroundImage"/></filter><radialGradient cx="53.633" cy="51.92" r="52" id="d" xlink:href="#j" gradientUnits="userSpaceOnUse" gradientTransform="matrix(1.09614.08791-.10023 1.24973-62.69-65.49)"/><filter width="1.365" x="-.182" y="-.103" height="1.206" id="e"><feGaussianBlur stdDeviation=".4582"/></filter><radialGradient cx="99.77" cy="29.375" r="3.02" id="f" gradientUnits="userSpaceOnUse" gradientTransform="matrix(1.96467 0 0 5.97527-167.24-126.15)"><stop stop-color="#00c4cc"/><stop offset="1" stop-color="#00c4cc" stop-opacity="0"/></radialGradient><filter width="1.208" x="-.104" y="-.185" height="1.37" id="g"><feGaussianBlur stdDeviation=".4582"/></filter><radialGradient cx="99.77" cy="29.375" r="3.02" id="h" xlink:href="#j" gradientUnits="userSpaceOnUse" gradientTransform="matrix(1.96467 0 0 5.97527-96.24-146.15)"/><radialGradient cx="99.77" cy="29.375" r="3.02" id="i" xlink:href="#j" gradientUnits="userSpaceOnUse" gradientTransform="matrix(1.96467 0 0 5.97527-230.99-172.95)"/><linearGradient id="j"><stop stop-color="#fff"/><stop offset="1" stop-color="#fff" stop-opacity="0"/></linearGradient><radialGradient cx="99.77" cy="29.375" r="3.02" id="k" xlink:href="#j" gradientUnits="userSpaceOnUse" gradientTransform="matrix(1.96467 0 0 5.97527-159.99-192.95)"/><radialGradient fx="53.16" fy="87.08" cx="52.792" cy="95.46" r="52" id="l" gradientUnits="userSpaceOnUse" gradientTransform="matrix(.57544.05802-.04035.67603 11.318-5.058)"><stop stop-color="#001400"/><stop offset="1" stop-color="#001400" stop-opacity="0"/></radialGradient><radialGradient fy="108.22" cx="54.54" cy="85.87" r="48" id="m" gradientUnits="userSpaceOnUse" gradientTransform="matrix(.4812 0 0 .46909 11.828 18.67)"><stop stop-color="#9abcee"/><stop offset="1" stop-color="#092042"/></radialGradient><linearGradient id="n" y1="24.06" y2="89.995" x2="0" gradientUnits="userSpaceOnUse" gradientTransform="matrix(.5685 0 0 .73892 7.01.66)"><stop stop-color="#c2e2f4"/><stop offset="1" stop-color="#c0e0f2" stop-opacity="0"/></linearGradient><filter id="o"><feGaussianBlur stdDeviation=".425"/></filter><linearGradient id="p" y1="96.88" y2="47.38" x2="0" gradientUnits="userSpaceOnUse" gradientTransform="translate(-63.75-46.803)"><stop stop-color="#a8dde0"/><stop offset="1" stop-color="#a8dde0" stop-opacity=".206"/></linearGradient><linearGradient id="q" xlink:href="#j" y1="74.839" x1="87.53" y2="46.28" x2="77.14" gradientUnits="userSpaceOnUse" gradientTransform="matrix(.5685 0 0 .73892 7.01-2.296)"/><linearGradient id="r" xlink:href="#j" y1="24.06" y2="69.838" x2="0" gradientUnits="userSpaceOnUse" gradientTransform="matrix(.5685 0 0 .73892 7.01.66)"/><linearGradient id="s" y1="32" x1="144" y2="88.01" x2="145.25" gradientUnits="userSpaceOnUse" gradientTransform="matrix(.67693 0 0 1.34411-54.23-36.624)"><stop stop-color="#e3e3e6"/><stop offset="1" stop-color="#fff"/></linearGradient><path fill="none" id="t" d="m-9.356 27.351c-8.148-8.35-25.763-26.404-25.763-26.404l-12.631 12.948 38.39 39.35 57.61-59.05-12.633-12.947c0 0-35.26 36.15-44.973 46.1z"/><path fill="none" stroke-linejoin="round" id="u" stroke-width="5.185" d="m37.936 52.5c-4.632-6.17-14.646-19.511-14.646-19.511l-7.181 9.568 21.827 29.08 32.749-43.635-7.182-9.567c0 0-20.05 26.71-25.567 34.07z"/><path fill="url(#h)" filter="url(#g)" id="v" d="m99.41 24.03c-.15-.002-.287.017-.438.031-.827.082-1.595.427-2.219.969l1.688 9.688c.111-.114.85-.848.938-.938l.375.375 3.03-8.344-.563-.563c-.741-.76-1.763-1.202-2.813-1.219"/></defs><rect x="5.342" y="-81.66" rx="3.715" stroke-width="10.683" ry="7.04" width="75.82" stroke-linecap="round" fill="#888" stroke-linejoin="round" height="75.27" stroke="#bbb" transform="scale(1-1)"/><rect x="5.342" y="6.388" rx="3.715" ry="7.04" width="75.82" fill="url(#s)" height="75.27"/><use filter="url(#a)" stroke="#081c39" stroke-linejoin="round" xlink:href="#t" stroke-width="10" transform="matrix(.5685 0 0 .73892 43.26 32.29)"/><use stroke="url(#b)" xlink:href="#u"/><use opacity=".286" filter="url(#c)" stroke="url(#d)" stroke-linejoin="round" xlink:href="#t" stroke-width="8" transform="matrix(.5685 0 0 .73892 43.26 32.29)"/><path opacity=".41" fill="url(#f)" filter="url(#e)" d="m28.406 44.03c-.15-.002-.287.017-.438.031-.827.082-1.595.427-2.219.969l1.688 9.688c.111-.114.85-.848.938-.938l.375.375 3.03-8.344-.563-.563c-.741-.76-1.763-1.202-2.813-1.219" transform="matrix(.5685 0 0-.73892 21.794 106.88)"/><use opacity=".238" xlink:href="#v" transform="matrix(-.19444.69436.53421.25273 20.777-33.48)"/><path opacity=".776" fill="url(#i)" filter="url(#e)" d="m-35.34-2.772c-.15-.002-.287.017-.438.031-.827.082-1.595.427-2.219.969l1.688 9.688c.111-.114.85-.848.938-.938l.375.375 3.03-8.344-.563-.563c-.741-.76-1.763-1.202-2.813-1.219" transform="matrix(.5685 0 0 .73892 43.26 32.29)"/><use opacity=".371" xlink:href="#v" transform="matrix(.19444.69436-.53421.25273 66.44-48.26)"/><path opacity=".871" fill="url(#k)" filter="url(#e)" d="m35.656-22.772c-.15-.002-.287.017-.438.031-.827.082-1.595.427-2.219.969l1.688 9.688c.111-.114.85-.848.938-.938l.375.375 3.03-8.344-.563-.563c-.741-.76-1.763-1.202-2.813-1.219" transform="matrix(.5685 0 0 .73892 43.26 32.29)"/><use stroke="url(#l)" xlink:href="#u"/><path fill="url(#m)" d="m37.936 52.5c-4.632-6.17-14.646-19.511-14.646-19.511l-7.181 9.568 21.827 29.08 32.749-43.635-7.182-9.567c0 0-20.05 26.71-25.567 34.07"/><path fill="url(#n)" d="m63.51 18.44c0 0-20.04 26.704-25.565 34.06-4.632-6.17-14.657-19.512-14.657-19.512l-7.177 9.56 9.362 12.469c.107 0 .212 0 .32 0 9.966 0 19.406-1.547 27.874-4.318l17.02-22.699z"/><use filter="url(#o)" stroke="url(#p)" xlink:href="#t" transform="matrix(.5685 0 0 .73892 43.26 32.29)"/><path fill="url(#q)" d="m63.51 18.44c0 0-.228.319-.231.323l6.929 9.07-17.05 22.329c-8.486 2.725-17.656 4.595-27.643 4.595-.072 0-.142 0-.213 0l.178.254c.107 0 .212 0 .32 0 9.966 0 19.406-1.547 27.874-4.318l17.02-22.699z"/><path fill="url(#r)" d="m63.51 18.44c0 0-20.04 26.704-25.565 34.06-4.632-6.17-14.657-19.512-14.657-19.512l-7.177 9.56.284.369 6.893-9.19c0 0 10.02 13.342 14.657 19.512 5.521-7.355 25.565-34.06 25.565-34.06l6.893 9.19.284-.369z"/></svg>