<svg xmlns="http://www.w3.org/2000/svg" viewBox="0 0 44.775 53.964" xmlns:xlink="http://www.w3.org/1999/xlink"><defs><linearGradient id="a"><stop stop-color="#fff" stop-opacity=".945"/><stop offset="1" stop-color="#fff" stop-opacity="0"/></linearGradient><linearGradient id="b" y1="237.53" x1="428.36" y2="485.45" gradientUnits="userSpaceOnUse" x2="464.27" gradientTransform="scale(.96205 1.03945)"><stop stop-color="#00a114"/><stop offset="1" stop-color="#0eeb6e"/></linearGradient><radialGradient cx="236.03" cy="192.58" id="c" r="198.19" gradientUnits="userSpaceOnUse" gradientTransform="scale(1.82297.54856)"><stop stop-color="#fff"/><stop offset="1" stop-color="#ff0"/></radialGradient><radialGradient cx="301.43" cy="156.29" xlink:href="#a" id="d" r="192.46" gradientUnits="userSpaceOnUse" gradientTransform="scale(1.29408.77275)"/><linearGradient xlink:href="#a" id="e" y1="160.72" x1="293.83" y2="114.58" gradientUnits="userSpaceOnUse" x2="401.18" gradientTransform="scale(.56775 1.76135)"/><linearGradient id="f" y1="293.31" x1="280.73" y2="462.96" gradientUnits="userSpaceOnUse" x2="245.47" gradientTransform="scale(1.12304.89044)"><stop stop-color="#fff" stop-opacity=".749"/><stop offset="1" stop-color="#857f7c" stop-opacity=".647"/></linearGradient><radialGradient cx="108.16" cy="767.94" xlink:href="#a" id="g" r="64.65" gradientUnits="userSpaceOnUse" gradientTransform="scale(1.64736.60703)"/></defs><g fill-rule="evenodd"><path fill="url(#b)" stroke="#00ab11" stroke-linejoin="round" stroke-width="16.544" d="m460.71 99.11c-.893-.893-268.75 60.714-269.64 61.61-34.82 11.608 15.18 58.04 65.18 44.643 9.822-2.679 268.75-61.61 268.75-61.61 0 0 54.47 316.96 53.57 316.96-.893 0-277.68 70.54-277.68 70.54-66.964 10.714-75-44.643-76.78-53.57-.893-2.678-45.537-303.57-45.536-305.36 1.785-8.928 283.04-72.32 282.14-73.21z" transform="matrix(.10724 0 0 .12015-18.211-10.967)"/><g stroke-width="1.25"><path fill="url(#c)" d="m460.71 100c.892.893 59.821 36.607 58.928 36.607-.893 0-259.82 60.714-266.07 61.61-47.32 11.607-72.32-25.893-66.964-30.357 9.822-1.786 275-67.857 274.11-67.857" transform="matrix(.10724 0 0 .12015-18.313-11.11)"/><path fill="url(#d)" d="m447.32 136.61c0 .893 11.363 46.993 14.286 66.56-159.73 4.534-83.51 89.7-253.82 99.25-7.142-41.07-23.862-139.03-23.862-137.24 0 1.786 20.536 16.965 37.5 19.643 47.32-8.04 226.79-46.43 225.89-48.21" transform="matrix(.13845 0 0 .15512-23.909-14.635)"/><path fill="url(#e)" d="m183.93 166.07l31.25 234.82c0 0 8.929 42.856 55.36 32.14-2.679-6.25-31.25-251.79-32.14-251.79-36.607 11.607-52.679-15.179-54.46-15.179" transform="matrix(.15448 0 0 .15448-26.785-14.37)"/></g><path fill="url(#f)" stroke="#fff" fill-opacity=".628" stroke-width="7.932" d="m242.47 433.3c27.14-13.13 26.26-20.13 33.26-35.01-50.771.001-53.4 1.751-55.15-59.52 0-61.27 3.502-53.4 98.04-54.27 87.54 0 92.79-6.127 91.91 51.646-1.752 47.27 7 59.52-44.643 61.27-27.14.876-52.52.001-52.52.876-11.38 17.508-25.385 35.89-70.903 35.01z" transform="matrix(.1375-.03565.01882.15439-25.515-18.231)"/><path fill="url(#g)" d="m100.77 507.13c-.721-39.749-.288-34.559 49.858-35.674 52.933 1.301 55.31-4.82 54.31 27.661-67.71-19.18-49.22 21.555-104.17 8.01" transform="matrix(.24251-.06287.03631.29785-30.881-115.93)"/></g></svg>