<?xml version="1.0" encoding="UTF-8" standalone="no"?>
<svg
   xmlns:a="http://ns.adobe.com/AdobeSVGViewerExtensions/3.0/"
   xmlns:dc="http://purl.org/dc/elements/1.1/"
   xmlns:cc="http://creativecommons.org/ns#"
   xmlns:rdf="http://www.w3.org/1999/02/22-rdf-syntax-ns#"
   xmlns:svg="http://www.w3.org/2000/svg"
   xmlns="http://www.w3.org/2000/svg"
   xmlns:xlink="http://www.w3.org/1999/xlink"
   version="1.0"
   width="125"
   height="126"
   viewBox="0.378 -0.411 125 126"
   id="svg1"
   xml:space="preserve"
   style="overflow:visible"><metadata
     id="metadata132"><rdf:RDF><cc:Work
         rdf:about=""><dc:format>image/svg+xml</dc:format><dc:type
           rdf:resource="http://purl.org/dc/dcmitype/StillImage" /></cc:Work></rdf:RDF></metadata><defs
     id="defs257"><linearGradient
       x1="51.9683"
       y1="98.746101"
       x2="43.653599"
       y2="71.243797"
       id="XMLID_11_"
       gradientUnits="userSpaceOnUse"><stop
         id="stop131"
         style="stop-color:#ffffff;stop-opacity:1"
         offset="0" /><stop
         id="stop133"
         style="stop-color:#f6f6f8;stop-opacity:1"
         offset="0.1469" /><stop
         id="stop135"
         style="stop-color:#dfdfe6;stop-opacity:1"
         offset="0.38170001" /><stop
         id="stop137"
         style="stop-color:#b9b9c7;stop-opacity:1"
         offset="0.67519999" /><stop
         id="stop139"
         style="stop-color:#87879f;stop-opacity:1"
         offset="1" /></linearGradient><linearGradient
       x1="31.7749"
       y1="59.920898"
       x2="32.5597"
       y2="162.325"
       id="XMLID_10_"
       gradientUnits="userSpaceOnUse"><stop
         id="stop122"
         style="stop-color:#ffffff;stop-opacity:1"
         offset="0" /><stop
         id="stop124"
         style="stop-color:#545477;stop-opacity:1"
         offset="1" /></linearGradient><linearGradient
       x1="33.332001"
       y1="10.3052"
       x2="33.332001"
       y2="91.4077"
       id="XMLID_9_"
       gradientUnits="userSpaceOnUse"><stop
         id="stop113"
         style="stop-color:#ffffff;stop-opacity:1"
         offset="0" /><stop
         id="stop115"
         style="stop-color:#545477;stop-opacity:1"
         offset="1" /></linearGradient><linearGradient
       x1="27.1982"
       y1="51.623501"
       x2="35.215801"
       y2="90.617699"
       id="XMLID_8_"
       gradientUnits="userSpaceOnUse"><stop
         id="stop92"
         style="stop-color:#ffffff;stop-opacity:1"
         offset="0" /><stop
         id="stop94"
         style="stop-color:#fafafb;stop-opacity:1"
         offset="0.1671" /><stop
         id="stop96"
         style="stop-color:#ededf1;stop-opacity:1"
         offset="0.35429999" /><stop
         id="stop98"
         style="stop-color:#d6d6df;stop-opacity:1"
         offset="0.55129999" /><stop
         id="stop100"
         style="stop-color:#b7b7c5;stop-opacity:1"
         offset="0.75510001" /><stop
         id="stop102"
         style="stop-color:#8f8fa6;stop-opacity:1"
         offset="0.96210003" /><stop
         id="stop104"
         style="stop-color:#87879f;stop-opacity:1"
         offset="1" /></linearGradient><radialGradient
       cx="-1847.9301"
       cy="3778.8999"
       r="12.4261"
       fx="-1847.9301"
       fy="3778.8999"
       id="XMLID_18_"
       gradientUnits="userSpaceOnUse"
       gradientTransform="matrix(0.7071,0.7071,-0.7071,0.7071,4056.03,-1260.95)"><stop
         id="stop239"
         style="stop-color:#fff042;stop-opacity:1"
         offset="0" /><stop
         id="stop241"
         style="stop-color:#ff8300;stop-opacity:1"
         offset="1" /><a:midPointStop
         id="midPointStop243"
         style="stop-color:#FFF042"
         offset="0" /><a:midPointStop
         id="midPointStop245"
         style="stop-color:#FFF042"
         offset="0.5" /><a:midPointStop
         id="midPointStop247"
         style="stop-color:#FF8300"
         offset="1" /></radialGradient><radialGradient
       cx="-1848.89"
       cy="3795.78"
       r="10.8535"
       fx="-1848.89"
       fy="3795.78"
       id="XMLID_17_"
       gradientUnits="userSpaceOnUse"
       gradientTransform="matrix(0.7071,0.7071,-0.7071,0.7071,4056.03,-1260.95)"><stop
         id="stop224"
         style="stop-color:#fff042;stop-opacity:1"
         offset="0" /><stop
         id="stop226"
         style="stop-color:#ff8300;stop-opacity:1"
         offset="1" /><a:midPointStop
         id="midPointStop228"
         style="stop-color:#FFF042"
         offset="0" /><a:midPointStop
         id="midPointStop230"
         style="stop-color:#FFF042"
         offset="0.5" /><a:midPointStop
         id="midPointStop232"
         style="stop-color:#FF8300"
         offset="1" /></radialGradient><linearGradient
       x1="67.614304"
       y1="77.200203"
       x2="67.614304"
       y2="127.211"
       id="XMLID_16_"
       gradientUnits="userSpaceOnUse"><stop
         id="stop209"
         style="stop-color:#fff042;stop-opacity:1"
         offset="0" /><stop
         id="stop211"
         style="stop-color:#ff8300;stop-opacity:1"
         offset="1" /><a:midPointStop
         id="midPointStop213"
         style="stop-color:#FFF042"
         offset="0" /><a:midPointStop
         id="midPointStop215"
         style="stop-color:#FFF042"
         offset="0.5" /><a:midPointStop
         id="midPointStop217"
         style="stop-color:#FF8300"
         offset="1" /></linearGradient><linearGradient
       x1="60.141102"
       y1="111.697"
       x2="60.119598"
       y2="84.804703"
       id="XMLID_15_"
       gradientUnits="userSpaceOnUse"><stop
         id="stop194"
         style="stop-color:#fff042;stop-opacity:1"
         offset="0" /><stop
         id="stop196"
         style="stop-color:#ff8300;stop-opacity:1"
         offset="1" /><a:midPointStop
         id="midPointStop198"
         style="stop-color:#FFF042"
         offset="0" /><a:midPointStop
         id="midPointStop200"
         style="stop-color:#FFF042"
         offset="0.5" /><a:midPointStop
         id="midPointStop202"
         style="stop-color:#FF8300"
         offset="1" /></linearGradient><linearGradient
       x1="59.269501"
       y1="108.168"
       x2="59.269501"
       y2="75.704102"
       id="XMLID_14_"
       gradientUnits="userSpaceOnUse"><stop
         id="stop179"
         style="stop-color:#ffca21;stop-opacity:1"
         offset="0" /><stop
         id="stop181"
         style="stop-color:#cd5800;stop-opacity:1"
         offset="1" /><a:midPointStop
         id="midPointStop183"
         style="stop-color:#FFCA21"
         offset="0" /><a:midPointStop
         id="midPointStop185"
         style="stop-color:#FFCA21"
         offset="0.5" /><a:midPointStop
         id="midPointStop187"
         style="stop-color:#CD5800"
         offset="1" /></linearGradient><linearGradient
       x1="59.818802"
       y1="132.78799"
       x2="59.818802"
       y2="77.7099"
       id="XMLID_13_"
       gradientUnits="userSpaceOnUse"><stop
         id="stop164"
         style="stop-color:#744426;stop-opacity:1"
         offset="0" /><stop
         id="stop166"
         style="stop-color:#de972b;stop-opacity:1"
         offset="1" /><a:midPointStop
         id="midPointStop168"
         style="stop-color:#744426"
         offset="0" /><a:midPointStop
         id="midPointStop170"
         style="stop-color:#744426"
         offset="0.5" /><a:midPointStop
         id="midPointStop172"
         style="stop-color:#DE972B"
         offset="1" /></linearGradient><linearGradient
       x1="59.658199"
       y1="81.634804"
       x2="59.658199"
       y2="126.958"
       id="XMLID_12_"
       gradientUnits="userSpaceOnUse"><stop
         id="stop149"
         style="stop-color:#ffff42;stop-opacity:1"
         offset="0" /><stop
         id="stop151"
         style="stop-color:#ff8300;stop-opacity:1"
         offset="1" /><a:midPointStop
         id="midPointStop153"
         style="stop-color:#FFFF42"
         offset="0" /><a:midPointStop
         id="midPointStop155"
         style="stop-color:#FFFF42"
         offset="0.5" /><a:midPointStop
         id="midPointStop157"
         style="stop-color:#FF8300"
         offset="1" /></linearGradient><linearGradient
       x1="75.392601"
       y1="82.644501"
       x2="54.014801"
       y2="81.498802"
       id="linearGradient1508"
       xlink:href="#XMLID_1_"
       gradientUnits="userSpaceOnUse" /><linearGradient
       x1="89.023399"
       y1="104.07"
       x2="60.771"
       y2="61.309898"
       id="linearGradient1509"
       xlink:href="#XMLID_2_"
       gradientUnits="userSpaceOnUse" /><linearGradient
       x1="70.875"
       y1="26.5327"
       x2="67.821098"
       y2="88.005096"
       id="linearGradient1510"
       xlink:href="#XMLID_3_"
       gradientUnits="userSpaceOnUse" /><linearGradient
       x1="69.876999"
       y1="73.993202"
       x2="69.876999"
       y2="4.1216002"
       id="linearGradient1511"
       xlink:href="#XMLID_4_"
       gradientUnits="userSpaceOnUse" /><linearGradient
       x1="69.876999"
       y1="44.162102"
       x2="71.404404"
       y2="123.193"
       id="linearGradient1512"
       xlink:href="#XMLID_5_"
       gradientUnits="userSpaceOnUse" /><linearGradient
       x1="69.049797"
       y1="28.4648"
       x2="70.568298"
       y2="65.677299"
       id="linearGradient1513"
       xlink:href="#XMLID_6_"
       gradientUnits="userSpaceOnUse" /><linearGradient
       x1="65.359398"
       y1="26.5508"
       x2="64.596199"
       y2="51.7491"
       id="linearGradient1514"
       xlink:href="#XMLID_7_"
       gradientUnits="userSpaceOnUse" /><linearGradient
       x1="27.1982"
       y1="51.623501"
       x2="35.215801"
       y2="90.617699"
       id="linearGradient1515"
       xlink:href="#XMLID_8_"
       gradientUnits="userSpaceOnUse" /><linearGradient
       x1="33.332001"
       y1="10.3052"
       x2="33.332001"
       y2="91.4077"
       id="linearGradient1516"
       xlink:href="#XMLID_9_"
       gradientUnits="userSpaceOnUse" /><linearGradient
       x1="31.7749"
       y1="59.920898"
       x2="32.5597"
       y2="162.325"
       id="linearGradient1517"
       xlink:href="#XMLID_10_"
       gradientUnits="userSpaceOnUse"
       gradientTransform="translate(0,-1.3345629)" /><linearGradient
       x1="51.9683"
       y1="98.746101"
       x2="43.653599"
       y2="71.243797"
       id="linearGradient1518"
       xlink:href="#XMLID_11_"
       gradientUnits="userSpaceOnUse" /><linearGradient
       x1="59.658199"
       y1="81.634804"
       x2="59.658199"
       y2="126.958"
       id="linearGradient1519"
       xlink:href="#XMLID_12_"
       gradientUnits="userSpaceOnUse" /><linearGradient
       x1="59.818802"
       y1="132.78799"
       x2="59.818802"
       y2="77.7099"
       id="linearGradient1520"
       xlink:href="#XMLID_13_"
       gradientUnits="userSpaceOnUse" /><linearGradient
       x1="59.269501"
       y1="108.168"
       x2="59.269501"
       y2="75.704102"
       id="linearGradient1521"
       xlink:href="#XMLID_14_"
       gradientUnits="userSpaceOnUse" /><linearGradient
       x1="60.141102"
       y1="111.697"
       x2="60.119598"
       y2="84.804703"
       id="linearGradient1522"
       xlink:href="#XMLID_15_"
       gradientUnits="userSpaceOnUse" /><linearGradient
       x1="67.614304"
       y1="77.200203"
       x2="67.614304"
       y2="127.211"
       id="linearGradient1523"
       xlink:href="#XMLID_16_"
       gradientUnits="userSpaceOnUse" /><radialGradient
       cx="-1848.89"
       cy="3795.78"
       r="10.8535"
       fx="-1848.89"
       fy="3795.78"
       id="radialGradient1524"
       xlink:href="#XMLID_17_"
       gradientUnits="userSpaceOnUse"
       gradientTransform="matrix(0.7071,0.7071,-0.7071,0.7071,4056.03,-1260.95)" /><radialGradient
       cx="-1847.9301"
       cy="3778.8999"
       r="12.4261"
       fx="-1847.9301"
       fy="3778.8999"
       id="radialGradient1525"
       xlink:href="#XMLID_18_"
       gradientUnits="userSpaceOnUse"
       gradientTransform="matrix(0.7071,0.7071,-0.7071,0.7071,4056.03,-1260.95)" /><linearGradient
       x1="27.1982"
       y1="51.623501"
       x2="35.215801"
       y2="90.617699"
       id="linearGradient2670"
       xlink:href="#XMLID_8_"
       gradientUnits="userSpaceOnUse"
       gradientTransform="translate(-15.215069,-22.550905)" /><linearGradient
       x1="33.332001"
       y1="10.3052"
       x2="33.332001"
       y2="91.4077"
       id="linearGradient2672"
       xlink:href="#XMLID_9_"
       gradientUnits="userSpaceOnUse"
       gradientTransform="translate(-15.215069,-22.550905)" /><linearGradient
       x1="31.7749"
       y1="59.920898"
       x2="32.5597"
       y2="162.325"
       id="linearGradient2674"
       xlink:href="#XMLID_10_"
       gradientUnits="userSpaceOnUse"
       gradientTransform="translate(-15.215069,-23.885468)" /><linearGradient
       x1="51.9683"
       y1="98.746101"
       x2="43.653599"
       y2="71.243797"
       id="linearGradient2676"
       xlink:href="#XMLID_11_"
       gradientUnits="userSpaceOnUse"
       gradientTransform="translate(-15.215069,-22.550905)" /><linearGradient
       x1="59.658199"
       y1="81.634804"
       x2="59.658199"
       y2="126.958"
       id="linearGradient2678"
       xlink:href="#XMLID_12_"
       gradientUnits="userSpaceOnUse" /><linearGradient
       x1="59.818802"
       y1="132.78799"
       x2="59.818802"
       y2="77.7099"
       id="linearGradient2680"
       xlink:href="#XMLID_13_"
       gradientUnits="userSpaceOnUse" /><linearGradient
       x1="59.269501"
       y1="108.168"
       x2="59.269501"
       y2="75.704102"
       id="linearGradient2682"
       xlink:href="#XMLID_14_"
       gradientUnits="userSpaceOnUse" /><linearGradient
       x1="60.141102"
       y1="111.697"
       x2="60.119598"
       y2="84.804703"
       id="linearGradient2684"
       xlink:href="#XMLID_15_"
       gradientUnits="userSpaceOnUse" /><linearGradient
       x1="67.614304"
       y1="77.200203"
       x2="67.614304"
       y2="127.211"
       id="linearGradient2686"
       xlink:href="#XMLID_16_"
       gradientUnits="userSpaceOnUse" /><radialGradient
       cx="-1848.89"
       cy="3795.78"
       r="10.8535"
       fx="-1848.89"
       fy="3795.78"
       id="radialGradient2688"
       xlink:href="#XMLID_17_"
       gradientUnits="userSpaceOnUse"
       gradientTransform="matrix(0.7071,0.7071,-0.7071,0.7071,4056.03,-1260.95)" /><radialGradient
       cx="-1847.9301"
       cy="3778.8999"
       r="12.4261"
       fx="-1847.9301"
       fy="3778.8999"
       id="radialGradient2690"
       xlink:href="#XMLID_18_"
       gradientUnits="userSpaceOnUse"
       gradientTransform="matrix(0.7071,0.7071,-0.7071,0.7071,4056.03,-1260.95)" /></defs><g
     transform="matrix(1.498618,0,0,1.498618,0.621374,-63.11986)"
     id="g86" /><g
     transform="matrix(1.498618,0,0,1.498618,23.503517,-28.781817)"
     id="g88"><linearGradient
       x1="27.1982"
       y1="51.623501"
       x2="35.215801"
       y2="90.617699"
       id="linearGradient2575"
       gradientUnits="userSpaceOnUse"><stop
         id="stop2577"
         style="stop-color:#ffffff;stop-opacity:1"
         offset="0" /><stop
         id="stop2579"
         style="stop-color:#fafafb;stop-opacity:1"
         offset="0.1671" /><stop
         id="stop2581"
         style="stop-color:#ededf1;stop-opacity:1"
         offset="0.35429999" /><stop
         id="stop2583"
         style="stop-color:#d6d6df;stop-opacity:1"
         offset="0.55129999" /><stop
         id="stop2585"
         style="stop-color:#b7b7c5;stop-opacity:1"
         offset="0.75510001" /><stop
         id="stop2587"
         style="stop-color:#8f8fa6;stop-opacity:1"
         offset="0.96210003" /><stop
         id="stop2589"
         style="stop-color:#87879f;stop-opacity:1"
         offset="1" /></linearGradient><path
       d="M 50.767931,71.309095 L 32.547931,53.089095 C 36.059931,44.330095 34.387931,34.086095 27.454931,27.152095 C 20.383931,20.083095 9.8759313,18.481095 1.0069313,22.268095 L 15.899931,37.159095 L 1.5249313,51.534095 L -12.889069,37.118095 C -15.869069,45.637095 -14.064069,55.350095 -7.4030687,62.010095 C -0.74306874,68.670095 8.9699313,70.477095 17.487931,67.497095 L 36.033931,86.043095 L 50.767931,71.309095 z"
       id="path107"
       style="fill:url(#linearGradient2670)" /><path
       d="M 4.5459313,52.206095 L 16.734931,40.018095 L 14.887931,38.171095 L 2.6999313,50.359095 L 4.5459313,52.206095 z"
       id="path109"
       style="fill:none" /><linearGradient
       x1="33.332001"
       y1="10.3052"
       x2="33.332001"
       y2="91.4077"
       id="linearGradient2593"
       gradientUnits="userSpaceOnUse"><stop
         id="stop2595"
         style="stop-color:#ffffff;stop-opacity:1"
         offset="0" /><stop
         id="stop2597"
         style="stop-color:#545477;stop-opacity:1"
         offset="1" /></linearGradient><path
       d="M 28.134931,26.471095 C 20.967931,19.306095 10.171931,17.309095 0.63093126,21.383095 C 0.33693126,21.508095 0.12393126,21.772095 0.063931262,22.085095 C 0.002931262,22.398095 0.10293126,22.722095 0.32893126,22.948095 C 0.32893126,22.948095 13.299931,35.920095 14.539931,37.159095 C 13.366931,38.332095 2.6999313,49.000095 1.5249313,50.173095 C 0.29093126,48.938095 -12.210069,36.439095 -12.210069,36.439095 C -12.444069,36.204095 -12.781069,36.107095 -13.104069,36.181095 C -13.284069,36.222095 -13.444069,36.313095 -13.570069,36.439095 C -13.671069,36.540095 -13.749069,36.662095 -13.798069,36.802095 C -17.023069,46.020095 -14.833069,55.941095 -8.0830687,62.691095 C -1.4770687,69.297095 8.1679313,71.522095 17.218931,68.588095 C 18.010931,69.381095 35.354931,86.723095 35.354931,86.723095 C 35.729931,87.099095 36.337931,87.099095 36.713931,86.723095 L 51.448931,71.990095 C 51.823931,71.615095 51.823931,71.005095 51.448931,70.629095 C 51.448931,70.629095 34.489931,53.670095 33.658931,52.840095 C 37.101931,43.598095 34.975931,33.315095 28.134931,26.471095 z M 26.773931,27.834095 C 33.218931,34.279095 35.135931,44.053095 31.653931,52.730095 C 31.510931,53.088095 31.593931,53.498095 31.866931,53.769095 C 31.866931,53.769095 48.125931,70.029095 49.407931,71.309095 C 48.228931,72.487095 37.211931,83.504095 36.033931,84.680095 C 34.751931,83.400095 18.168931,66.817095 18.168931,66.817095 C 17.907931,66.555095 17.518931,66.467095 17.169931,66.589095 C 8.6549313,69.567095 -0.50106874,67.551095 -6.7240687,61.329095 C -12.585069,55.469095 -14.710069,47.005095 -12.446069,38.924095 C -10.534069,40.836095 0.84593126,52.215095 0.84593126,52.215095 C 1.2219313,52.590095 1.8309313,52.590095 2.2069313,52.215095 L 16.580931,37.841095 C 16.956931,37.465095 16.956931,36.856095 16.580931,36.480095 C 16.580931,36.480095 4.5449313,24.444095 2.7359313,22.635095 C 11.203931,19.597095 20.501931,21.560095 26.773931,27.834095 z"
       id="path118"
       style="fill:url(#linearGradient2672)" /><linearGradient
       x1="31.7749"
       y1="59.920898"
       x2="32.5597"
       y2="162.325"
       id="linearGradient2600"
       gradientUnits="userSpaceOnUse"><stop
         id="stop2602"
         style="stop-color:#ffffff;stop-opacity:1"
         offset="0" /><stop
         id="stop2604"
         style="stop-color:#545477;stop-opacity:1"
         offset="1" /></linearGradient><path
       d="M 29.138931,50.612532 C 32.115931,43.185532 30.698931,34.500532 24.819931,28.619532 C 20.178931,23.979532 13.793931,22.120532 7.6569313,23.005532 L 18.173931,33.522532 C 19.451931,34.801532 19.451931,36.873532 18.173931,38.151532 L 4.1319313,52.195532 C 2.8539313,53.472532 0.77993126,53.472532 -0.49706874,52.195532 L -10.487069,42.203532 C -10.984069,47.967532 -9.0780687,53.837532 -4.7370687,58.179532 C 0.90993126,63.825532 9.1469313,65.357532 16.368931,62.831532 L 36.046931,82.510535 L 43.879931,65.354532 L 29.138931,50.612532 z"
       id="path127"
       style="fill:url(#linearGradient2674)" /><linearGradient
       x1="51.9683"
       y1="98.746101"
       x2="43.653599"
       y2="71.243797"
       id="linearGradient2607"
       gradientUnits="userSpaceOnUse"><stop
         id="stop2609"
         style="stop-color:#ffffff;stop-opacity:1"
         offset="0" /><stop
         id="stop2611"
         style="stop-color:#f6f6f8;stop-opacity:1"
         offset="0.1469" /><stop
         id="stop2613"
         style="stop-color:#dfdfe6;stop-opacity:1"
         offset="0.38170001" /><stop
         id="stop2615"
         style="stop-color:#b9b9c7;stop-opacity:1"
         offset="0.67519999" /><stop
         id="stop2617"
         style="stop-color:#87879f;stop-opacity:1"
         offset="1" /></linearGradient><path
       d="M 41.553931,82.752095 C 40.913931,83.392095 39.879931,83.392095 39.239931,82.752095 L 21.198931,64.710095 C 20.560931,64.070095 20.560931,63.035095 21.198931,62.397095 L 27.773931,55.820095 C 28.413931,55.181095 29.448931,55.181095 30.088931,55.820095 L 48.129931,73.863095 C 48.768931,74.502095 48.768931,75.538095 48.129931,76.176095 L 41.553931,82.752095 z"
       id="path142"
       style="fill:url(#linearGradient2676)" /></g><g
     transform="matrix(1.498618,0,0,1.498618,0.7019411,-62.57701)"
     id="g145"><linearGradient
       x1="59.658199"
       y1="81.634804"
       x2="59.658199"
       y2="126.958"
       id="linearGradient2621"
       gradientUnits="userSpaceOnUse"><stop
         id="stop2623"
         style="stop-color:#ffff42;stop-opacity:1"
         offset="0" /><stop
         id="stop2625"
         style="stop-color:#ff8300;stop-opacity:1"
         offset="1" /><a:midPointStop
         id="midPointStop153"
         style="stop-color:#FFFF42"
         offset="0" /><a:midPointStop
         id="midPointStop155"
         style="stop-color:#FFFF42"
         offset="0.5" /><a:midPointStop
         id="midPointStop157"
         style="stop-color:#FF8300"
         offset="1" /></linearGradient><path
       d="M 78.431,102.573 L 55.277,79.418 L 37.127,97.566 L 60.282,120.72 C 65.294,125.732 73.419,125.732 78.43,120.72 C 83.441,115.708 83.441,107.584 78.431,102.573 z"
       id="path160"
       style="fill:url(#linearGradient2678)" /><linearGradient
       x1="59.818802"
       y1="132.78799"
       x2="59.818802"
       y2="77.7099"
       id="linearGradient2628"
       gradientUnits="userSpaceOnUse"><stop
         id="stop2630"
         style="stop-color:#744426;stop-opacity:1"
         offset="0" /><stop
         id="stop2632"
         style="stop-color:#de972b;stop-opacity:1"
         offset="1" /><a:midPointStop
         id="midPointStop168"
         style="stop-color:#744426"
         offset="0" /><a:midPointStop
         id="midPointStop170"
         style="stop-color:#744426"
         offset="0.5" /><a:midPointStop
         id="midPointStop172"
         style="stop-color:#DE972B"
         offset="1" /></linearGradient><path
       d="M 56.065,78.63 C 55.63,78.193 54.925,78.193 54.487,78.63 L 36.34,96.779 C 35.904,97.215 35.904,97.921 36.34,98.356 L 59.493,121.51 C 64.931,126.948 73.779,126.948 79.219,121.509 C 84.657,116.07 84.657,107.222 79.219,101.782 L 56.065,78.63 z M 77.642,103.361 C 82.21,107.929 82.21,115.364 77.642,119.932 C 73.074,124.501 65.64,124.5 61.072,119.932 C 61.072,119.932 40.226,99.085 38.706,97.566 C 40.085,96.189 53.899,82.374 55.277,80.996 C 56.796,82.516 77.642,103.361 77.642,103.361 z"
       id="path175"
       style="fill:url(#linearGradient2680)" /><linearGradient
       x1="59.269501"
       y1="108.168"
       x2="59.269501"
       y2="75.704102"
       id="linearGradient2635"
       gradientUnits="userSpaceOnUse"><stop
         id="stop2637"
         style="stop-color:#ffca21;stop-opacity:1"
         offset="0" /><stop
         id="stop2639"
         style="stop-color:#cd5800;stop-opacity:1"
         offset="1" /><a:midPointStop
         id="midPointStop183"
         style="stop-color:#FFCA21"
         offset="0" /><a:midPointStop
         id="midPointStop185"
         style="stop-color:#FFCA21"
         offset="0.5" /><a:midPointStop
         id="midPointStop187"
         style="stop-color:#CD5800"
         offset="1" /></linearGradient><path
       d="M 74.268,106.506 C 75.273,107.512 75.987,108.698 76.411,109.961 C 76.453,107.629 75.585,105.284 73.806,103.506 L 54.719,84.419 L 42.129,97.009 L 46.37,101.25 L 57.69,89.929 L 74.268,106.506 z"
       id="path190"
       style="fill:url(#linearGradient2682)" /><linearGradient
       x1="60.141102"
       y1="111.697"
       x2="60.119598"
       y2="84.804703"
       id="linearGradient2642"
       gradientUnits="userSpaceOnUse"><stop
         id="stop2644"
         style="stop-color:#fff042;stop-opacity:1"
         offset="0" /><stop
         id="stop2646"
         style="stop-color:#ff8300;stop-opacity:1"
         offset="1" /><a:midPointStop
         id="midPointStop198"
         style="stop-color:#FFF042"
         offset="0" /><a:midPointStop
         id="midPointStop200"
         style="stop-color:#FFF042"
         offset="0.5" /><a:midPointStop
         id="midPointStop202"
         style="stop-color:#FF8300"
         offset="1" /></linearGradient><path
       d="M 73.805,116.096 C 75.504,114.399 76.369,112.186 76.41,109.961 C 75.986,108.698 75.272,107.512 74.267,106.506 L 55.18,87.419 L 43.86,98.739 L 61.215,116.096 C 64.692,119.573 70.329,119.573 73.805,116.096 z"
       id="path205"
       style="fill:url(#linearGradient2684)" /><linearGradient
       x1="67.614304"
       y1="77.200203"
       x2="67.614304"
       y2="127.211"
       id="linearGradient2649"
       gradientUnits="userSpaceOnUse"><stop
         id="stop2651"
         style="stop-color:#fff042;stop-opacity:1"
         offset="0" /><stop
         id="stop2653"
         style="stop-color:#ff8300;stop-opacity:1"
         offset="1" /><a:midPointStop
         id="midPointStop213"
         style="stop-color:#FFF042"
         offset="0" /><a:midPointStop
         id="midPointStop215"
         style="stop-color:#FFF042"
         offset="0.5" /><a:midPointStop
         id="midPointStop217"
         style="stop-color:#FF8300"
         offset="1" /></linearGradient><path
       d="M 74.6,117.055 C 70.743,120.911 64.488,120.911 60.63,117.054 C 56.772,113.197 56.772,106.941 60.63,103.083 C 64.488,99.225 70.743,99.225 74.6,103.083 C 78.458,106.941 78.458,113.196 74.6,117.055 z"
       id="path220"
       style="fill:url(#linearGradient2686)" /><radialGradient
       cx="-1848.89"
       cy="3795.78"
       r="10.8535"
       fx="-1848.89"
       fy="3795.78"
       id="radialGradient2656"
       gradientUnits="userSpaceOnUse"
       gradientTransform="matrix(0.7071,0.7071,-0.7071,0.7071,4056.03,-1260.95)"><stop
         id="stop2658"
         style="stop-color:#fff042;stop-opacity:1"
         offset="0" /><stop
         id="stop2660"
         style="stop-color:#ff8300;stop-opacity:1"
         offset="1" /><a:midPointStop
         id="midPointStop228"
         style="stop-color:#FFF042"
         offset="0" /><a:midPointStop
         id="midPointStop230"
         style="stop-color:#FFF042"
         offset="0.5" /><a:midPointStop
         id="midPointStop232"
         style="stop-color:#FF8300"
         offset="1" /></radialGradient><path
       d="M 73.248,115.701 C 70.885,118.065 67.049,118.065 64.685,115.701 C 62.319,113.338 62.32,109.503 64.685,107.138 C 67.048,104.774 70.884,104.773 73.248,107.138 C 75.612,109.503 75.612,113.338 73.248,115.701 z"
       id="path235"
       style="fill:url(#radialGradient2688)" /><radialGradient
       cx="-1847.9301"
       cy="3778.8999"
       r="12.4261"
       fx="-1847.9301"
       fy="3778.8999"
       id="radialGradient2663"
       gradientUnits="userSpaceOnUse"
       gradientTransform="matrix(0.7071,0.7071,-0.7071,0.7071,4056.03,-1260.95)"><stop
         id="stop2665"
         style="stop-color:#fff042;stop-opacity:1"
         offset="0" /><stop
         id="stop2667"
         style="stop-color:#ff8300;stop-opacity:1"
         offset="1" /><a:midPointStop
         id="midPointStop243"
         style="stop-color:#FFF042"
         offset="0" /><a:midPointStop
         id="midPointStop245"
         style="stop-color:#FFF042"
         offset="0.5" /><a:midPointStop
         id="midPointStop247"
         style="stop-color:#FF8300"
         offset="1" /></radialGradient><path
       d="M 71.67,114.124 C 70.178,115.617 67.757,115.617 66.263,114.123 C 64.77,112.63 64.77,110.209 66.263,108.716 C 67.757,107.224 70.178,107.224 71.67,108.716 C 73.164,110.209 73.164,112.63 71.67,114.124 z"
       id="path250"
       style="fill:url(#radialGradient2690)" /></g></svg>