<svg xmlns="http://www.w3.org/2000/svg" viewBox="0 0 128 128" xmlns:xlink="http://www.w3.org/1999/xlink" enable-background="new 0 0 128 128"><defs><radialGradient cx="52.09" cy="135.75" r="147.89" id="a" gradientUnits="userSpaceOnUse"><stop stop-color="#fff"/><stop offset=".405" stop-color="#00cd00"/><stop offset="1" stop-color="#006f00"/></radialGradient><linearGradient id="b" x1="64.31" x2="-20.976" gradientUnits="userSpaceOnUse"><stop stop-color="#fff"/><stop offset="1" stop-color="#8c8c8c"/></linearGradient><radialGradient cx="56.54" cy="108.41" r="131.72" id="c" gradientUnits="userSpaceOnUse"><stop offset=".006" stop-color="#fff"/><stop offset=".444" stop-color="#a9e6ff"/><stop offset="1" stop-color="#034cfe"/></radialGradient><radialGradient cx="55.822" cy="108.78" r="125.32" id="d" gradientUnits="userSpaceOnUse"><stop offset=".006" stop-color="#fff"/><stop offset=".258" stop-color="#a9e6ff"/><stop offset="1" stop-color="#034cfe"/></radialGradient><linearGradient id="e" y1="24.633" y2="57.692" x2="0" gradientUnits="userSpaceOnUse"><stop stop-color="#4c62ab"/><stop offset="1" stop-color="#b8bbda"/></linearGradient><radialGradient cx="59" cy="159.95" r="122.61" id="f" gradientUnits="userSpaceOnUse"><stop stop-color="#dee1ff"/><stop offset=".629" stop-color="#2b72c2"/><stop offset="1" stop-color="#2353a4"/></radialGradient><radialGradient cx="59.695" cy="163.21" r="125.21" id="g" xlink:href="#f" gradientUnits="userSpaceOnUse"/><linearGradient id="h" y1="-6.736" y2="77.6" x2="0" gradientUnits="userSpaceOnUse"><stop stop-color="#fff"/><stop offset="1"/></linearGradient><path id="i" d="m110.53 98.22l-17.687-94.28-80.1 14.765c0 0-2.7 5.137-2.619 10.01.082 4.87 1.073 10.736 1.073 10.736l15.494 83.66 81.24-15.206-1.525-8.908z"/><path id="j" d="m26.754 121.75c.092.855.28 1.362.28 1.362zm82.74-23.703l-17.392-92.7-79.52 14.608-2.815 12.598 16.989 89.2c-.194-1.83.039-5.264 3.456-8.833z"/><path id="k" d="m27.543 121.79c.087.831.263 1.325.263 1.325zm78.56-23.11l-16.514-90.36-75.51 14.239-2.673 12.278 16.13 86.95c-.186-1.782.037-5.135 3.278-8.613z"/><path id="l" d="m37.663 110.79l-3.02.558-17.285-92.59 3.02-.56z"/><path id="m" d="m34.453 110.79l-3.01.558-17.286-92.59 3.01-.56z"/><path id="n" d="m91.93 4.397l-79.29 14.875c-.347.066-.632.315-.74.652l-3.054 12.33c-.053.158-.064.331-.028.495l16.989 89.2c.104.504.587.842 1.098.762.475-.074.819-.485.819-.956 0-.034-.001-.072-.004-.104-.028-.243-.043-.522-.043-.833 0-1.68.497-4.072 3.01-6.802.694-.132 79.09-13.975 79.09-13.975.255-.047.373-1.231.521-1.443.109-.163.167-.357.167-.547 0-.062-.009-.121-.018-.182l-17.392-92.7c-.096-.525-.601-.874-1.13-.774m.873-.106c.349 1.847 16.313 90.92 16.662 92.76-1.86.351-79.43 14.234-79.43 14.234-.201.035-.382.134-.523.281-1.408 1.47-2.259 3.601-2.83 4.952-1.821-8.944-15.816-83.44-15.913-83.91.148-.448-.893-12.918 3.02-13.992 1.096-.204 77.16-13.982 79.01-14.328m-67.01 117.46c.004.028.004.073.006.104-.004-.036-.006-.069-.006-.104"/><path id="o" d="m92.6 2.8l-80.1 14.767c-.439.08-.817.356-1.024.75-.117.223-2.872 5.525-2.787 10.708.084 4.923 1.053 10.711 1.094 10.956l15.498 83.68c.068.382.288.715.605.936.318.219.711.3 1.091.232l81.24-15.21c.697-.13 1.185-.739 1.185-1.43 0-.08-.007-.163-.019-.243 0 0-.946-5.5-1.291-7.499 1.225-.23 2.719-.512 2.719-.512.38-.069.715-.288.932-.605.168-.243.257-.529.257-.822 0-.087-.009-.179-.024-.266l-17.691-94.28c-.149-.788-.902-1.306-1.693-1.161m-.896 3.123c.509 2.722 16.642 88.69 17.15 91.42-1.219.226-2.695.507-2.695.507-.699.13-1.188.74-1.188 1.424 0 .084.004.165.022.25 0 0 .944 5.495 1.288 7.494-2.671.5-75.69 14.169-78.4 14.676-.512-2.765-15.229-82.22-15.229-82.22-.005-.037-.97-5.796-1.049-10.499-.002-.065-.002-.128-.002-.193 0-3.47 1.517-7.1 2.162-8.491 1.399-.258 75.22-13.868 77.945-14.369"/></defs><g fill="url(#a)"><use xlink:href="#i"/><use xlink:href="#j"/><use xlink:href="#k"/><use xlink:href="#l"/><use xlink:href="#m"/><use xlink:href="#n"/><use xlink:href="#o"/></g><use fill="url(#b)" xlink:href="#i"/><use fill="url(#c)" xlink:href="#j"/><use fill="url(#d)" xlink:href="#k"/><use opacity=".8" fill="url(#e)" xlink:href="#l"/><use opacity=".4" fill="#fff" xlink:href="#m"/><use fill="url(#f)" xlink:href="#n"/><use fill="url(#g)" xlink:href="#o"/><path fill="url(#h)" d="m96.53 44.37l-6.326-33.08c-.299-1.593-2.933-2.932-4.572-2.618l-68.01 12.25c-1.632.312-2.716 1.855-2.412 3.449l11.919 63.4c9.316-.944 21.18-5.142 33.16-17.475 13.148-13.539 26.975-21.828 36.25-25.923"/></svg>