<?xml version="1.0" encoding="UTF-8" standalone="no"?>
<svg
   xmlns:a="http://ns.adobe.com/AdobeSVGViewerExtensions/3.0/"
   xmlns:dc="http://purl.org/dc/elements/1.1/"
   xmlns:cc="http://creativecommons.org/ns#"
   xmlns:rdf="http://www.w3.org/1999/02/22-rdf-syntax-ns#"
   xmlns:svg="http://www.w3.org/2000/svg"
   xmlns="http://www.w3.org/2000/svg"
   version="1.1"
   id="svg2"
   xml:space="preserve"
   enable-background="new 0 0 128 128"
   overflow="visible"
   viewBox="0 0 128 128"
   height="128"
   width="128"><metadata
     id="metadata72"><rdf:RDF><cc:Work
         rdf:about=""><dc:format>image/svg+xml</dc:format><dc:type
           rdf:resource="http://purl.org/dc/dcmitype/StillImage" /></cc:Work></rdf:RDF></metadata><defs
     id="defs70" /><g
     id="Layer_1"><g
       id="g5"><path
         id="path7"
         d="M121.164,1.052H6.836v125.896h80.701l33.627-33.627V1.052z"
         fill="#FFFFFF" /><linearGradient
         y2="-100.9347"
         x2="63.9204"
         y1="154.5645"
         x1="63.9204"
         gradientUnits="userSpaceOnUse"
         id="XMLID_1_"><stop
           id="stop10"
           style="stop-color:#FFFFFF"
           offset="0" /><stop
           id="stop12"
           style="stop-color:#F1F1F1"
           offset="0.258" /><stop
           id="stop14"
           style="stop-color:#CECECE"
           offset="0.7396" /><stop
           id="stop16"
           style="stop-color:#C4C4C4"
           offset="0.8595" /><a:midPointStop
           style="stop-color:#FFFFFF"
           offset="0" /><a:midPointStop
           style="stop-color:#FFFFFF"
           offset="0.5674" /><a:midPointStop
           style="stop-color:#C4C4C4"
           offset="0.8595" /></linearGradient><path
         id="path18"
         d="M117.734,4.019H10.266l-0.16,122.654h76.457l31.172-31.252V4.019z"
         fill="url(#XMLID_1_)" /><radialGradient
         gradientUnits="userSpaceOnUse"
         fy="118.249"
         fx="108.4668"
         r="34.7364"
         cy="118.249"
         cx="108.4668"
         id="XMLID_2_"><stop
           id="stop21"
           style="stop-color:#000000"
           offset="0" /><stop
           id="stop23"
           style="stop-color:#000000"
           offset="1" /><a:midPointStop
           style="stop-color:#000000"
           offset="0" /><a:midPointStop
           style="stop-color:#000000"
           offset="0.5" /><a:midPointStop
           style="stop-color:#000000"
           offset="1" /></radialGradient><path
         id="path25"
         d="M85.191,90.976v35.754h1.793l33.639-33.639v-2.115H85.191z"
         fill="url(#XMLID_2_)"
         opacity="0.1" /><linearGradient
         y2="56.1662"
         x2="56.1662"
         y1="-26.333"
         x1="-26.333"
         gradientUnits="userSpaceOnUse"
         id="XMLID_3_"><stop
           id="stop28"
           style="stop-color:#B3B3B3"
           offset="0" /><stop
           id="stop30"
           style="stop-color:#828282"
           offset="1" /><a:midPointStop
           style="stop-color:#B3B3B3"
           offset="0" /><a:midPointStop
           style="stop-color:#B3B3B3"
           offset="0.5" /><a:midPointStop
           style="stop-color:#828282"
           offset="1" /></linearGradient><path
         id="path32"
         d="M121.164,0.552H6.336v126.896h81.408l33.92-33.92V0.552H121.164z M120.664,1.552     c0,0.987,0,91.152,0,91.562c-0.289,0.289-33.045,33.045-33.334,33.334c-0.41,0-79.01,0-79.994,0c0-0.988,0-123.909,0-124.896     C8.322,1.552,119.678,1.552,120.664,1.552z"
         fill="url(#XMLID_3_)" /><path
         id="path34"
         d="M87.537,126.948l33.627-33.627H87.537V126.948z"
         fill="#FFFFFF" /><linearGradient
         y2="135.7938"
         x2="95.0883"
         y1="98.1807"
         x1="104.0166"
         gradientUnits="userSpaceOnUse"
         id="XMLID_4_"><stop
           id="stop37"
           style="stop-color:#FFFFFF"
           offset="0" /><stop
           id="stop39"
           style="stop-color:#CCCCCC"
           offset="1" /><a:midPointStop
           style="stop-color:#FFFFFF"
           offset="0" /><a:midPointStop
           style="stop-color:#FFFFFF"
           offset="0.5" /><a:midPointStop
           style="stop-color:#CCCCCC"
           offset="1" /></linearGradient><path
         id="path41"
         d="M89.865,125.056l29.594-29.592H89.865V125.056z"
         fill="url(#XMLID_4_)" /><linearGradient
         y2="101.8885"
         x2="96.1043"
         y1="88.0928"
         x1="82.3086"
         gradientUnits="userSpaceOnUse"
         id="XMLID_5_"><stop
           id="stop44"
           style="stop-color:#B3B3B3"
           offset="0" /><stop
           id="stop46"
           style="stop-color:#828282"
           offset="1" /><a:midPointStop
           style="stop-color:#B3B3B3"
           offset="0" /><a:midPointStop
           style="stop-color:#B3B3B3"
           offset="0.5" /><a:midPointStop
           style="stop-color:#828282"
           offset="1" /></linearGradient><path
         id="path48"
         d="M87.537,92.821c-0.277,0-0.5,0.223-0.5,0.5v33.627c0,0.203,0.121,0.385,0.309,0.463     c0.186,0.076,0.402,0.033,0.545-0.109l33.627-33.627c0.143-0.145,0.186-0.359,0.109-0.545c-0.078-0.188-0.26-0.309-0.463-0.309     H87.537z M119.957,93.821c-1.58,1.578-30.342,30.34-31.92,31.92c0-2.209,0-30.986,0-31.92     C88.971,93.821,117.748,93.821,119.957,93.821z"
         fill="url(#XMLID_5_)" /><linearGradient
         y2="111.0652"
         x2="204.0073"
         y1="25.4214"
         x1="43.0229"
         gradientUnits="userSpaceOnUse"
         id="XMLID_6_"><stop
           id="stop51"
           style="stop-color:#FFFFFF"
           offset="0" /><stop
           id="stop53"
           style="stop-color:#E7E7E7"
           offset="0.5033" /><stop
           id="stop55"
           style="stop-color:#D4D4D4"
           offset="1" /><a:midPointStop
           style="stop-color:#FFFFFF"
           offset="0" /><a:midPointStop
           style="stop-color:#FFFFFF"
           offset="0.452" /><a:midPointStop
           style="stop-color:#D4D4D4"
           offset="1" /></linearGradient><path
         id="path57"
         d="M118.006,15.223V3.94H10.199l-0.096,65.34c9.975,4.547,21.151,7.096,32.954,7.096     C80.402,76.376,111.455,48.876,118.006,15.223z"
         fill="url(#XMLID_6_)" /></g><path
       id="path59"
       d="M128,128H0V0h128V128z"
       fill="none" /><linearGradient
       y2="10.6514"
       x2="74.8195"
       y1="10.6514"
       x1="-56.2222"
       gradientUnits="userSpaceOnUse"
       id="XMLID_7_"><stop
         id="stop62"
         style="stop-color:#FFFFFF"
         offset="0" /><stop
         id="stop64"
         style="stop-color:#628BFF"
         offset="1" /><a:midPointStop
         style="stop-color:#FFFFFF"
         offset="0" /><a:midPointStop
         style="stop-color:#FFFFFF"
         offset="0.5" /><a:midPointStop
         style="stop-color:#628BFF"
         offset="1" /></linearGradient><path
       id="path66"
       d="M117.397,17.023H10.013V4.279h107.385V17.023z"
       fill="url(#XMLID_7_)" /></g></svg>