<svg xmlns="http://www.w3.org/2000/svg" viewBox="0 0 128 128" xmlns:xlink="http://www.w3.org/1999/xlink" enable-background="new 0 0 128 128"><defs><linearGradient id="a" y1="154.56" y2="-100.93" x2="0" gradientUnits="userSpaceOnUse"><stop stop-color="#fff"/><stop offset=".258" stop-color="#f1f1f1"/><stop offset=".74" stop-color="#cecece"/><stop offset=".86" stop-color="#c4c4c4"/></linearGradient><radialGradient cx="108.47" cy="118.25" r="34.736" id="b" gradientUnits="userSpaceOnUse"><stop/><stop offset="1"/></radialGradient><linearGradient id="c" y1="-26.333" y2="56.17" x1="-26.333" x2="56.17" gradientUnits="userSpaceOnUse"><stop stop-color="#b3b3b3"/><stop offset="1" stop-color="#828282"/></linearGradient><linearGradient id="d" y1="98.18" y2="135.79" x1="104.02" x2="95.09" gradientUnits="userSpaceOnUse"><stop stop-color="#fff"/><stop offset="1" stop-color="#ccc"/></linearGradient><linearGradient id="e" xlink:href="#c" y1="88.09" y2="101.89" x1="82.31" x2="96.1" gradientUnits="userSpaceOnUse"/><linearGradient id="f" y1="25.421" y2="111.07" x1="43.02" x2="204.01" gradientUnits="userSpaceOnUse"><stop stop-color="#fff"/><stop offset=".503" stop-color="#e7e7e7"/><stop offset="1" stop-color="#d4d4d4"/></linearGradient><linearGradient id="g" x1="-56.22" x2="74.82" gradientUnits="userSpaceOnUse"><stop stop-color="#fff"/><stop offset="1" stop-color="#628bff"/></linearGradient></defs><path fill="#fff" d="m121.16 1.052h-114.33v125.9h80.7l33.627-33.627z"/><path fill="url(#a)" d="m117.73 4.02h-107.47l-.16 122.65h76.46l31.17-31.25z"/><path opacity=".1" fill="url(#b)" d="m85.19 90.98v35.754h1.793l33.639-33.639v-2.115z"/><path fill="url(#c)" d="m121.16.552h-114.83v126.9h81.41l33.92-33.92v-92.98zm-.5 1c0 .987 0 91.15 0 91.56-.289.289-33.05 33.05-33.33 33.33-.41 0-79.01 0-79.994 0 0-.988 0-123.91 0-124.9.986 0 112.34 0 113.33 0"/><path fill="#fff" d="m87.54 126.95l33.627-33.627h-33.627z"/><path fill="url(#d)" d="m89.86 125.06l29.594-29.592h-29.594z"/><path fill="url(#e)" d="m87.54 92.82c-.277 0-.5.223-.5.5v33.627c0 .203.121.385.309.463.186.076.402.033.545-.109l33.627-33.627c.143-.145.186-.359.109-.545-.078-.188-.26-.309-.463-.309zm32.42 1c-1.58 1.578-30.342 30.34-31.92 31.92 0-2.209 0-30.986 0-31.92.934 0 29.711 0 31.92 0"/><path fill="url(#f)" d="m118.01 15.223v-11.283h-107.81l-.096 65.34c9.975 4.547 21.15 7.096 32.954 7.096 37.34 0 68.4-27.5 74.949-61.15"/><path fill="url(#g)" d="m117.4 17.02h-107.38v-12.744h107.39v12.744z"/></svg>