<svg xmlns="http://www.w3.org/2000/svg" viewBox="0 0 88 88" xmlns:xlink="http://www.w3.org/1999/xlink"><defs><linearGradient id="a" y1="9.06" x1="71.37" y2="224.31" gradientUnits="userSpaceOnUse" x2="70.36"><stop stop-color="#fff"/><stop offset="1" stop-color="#fff" stop-opacity="0"/></linearGradient><radialGradient fx="43.988" fy="52.584" cx="44.09" cy="44.41" id="b" r="35.589" gradientUnits="userSpaceOnUse" gradientTransform="matrix(1.41737 0 0 1.39746-18.403-17.65)"><stop stop-color="#f00"/><stop offset="1" stop-color="#9c0f0f"/></radialGradient><linearGradient id="c" y1="4.506" x1="14.397" y2="62.61" gradientUnits="userSpaceOnUse" x2="72.797" gradientTransform="matrix(.90992 0 0 .90775 3.972 4.063)"><stop stop-color="#f9ccca"/><stop offset="1" stop-color="#f9ccca" stop-opacity="0"/></linearGradient><linearGradient xlink:href="#a" id="d" y1="51.845" y2="7.03" x2="0" gradientUnits="userSpaceOnUse"/><linearGradient id="e" y1="119.98" y2="21.333" x2="0" gradientUnits="userSpaceOnUse"><stop stop-color="#810000"/><stop offset="1" stop-color="#c50000"/></linearGradient><path fill="#fff" id="f" d="M23.595278 10.09106A2.22597 2.22597 0 1 1 23.594179 10.02113"/></defs><path fill="url(#e)" fill-rule="evenodd" d="m26 44l-22 22 18 18 22-22 22 22 18-18-22-22 22-22-18-18-22 22-22-22-18 18z"/><path opacity=".921" fill="url(#b)" d="m66.35 10.318l-22.255 21.255-21.255-21.255-12.334 12.334 20.255 21.255-21.255 22.255 12.334 12.334 22.255-22.255 22.255 22.255 12.334-12.334-21.255-22.255 21.255-21.255z"/><g stroke-linejoin="round" stroke-dashoffset="1.088"><path opacity=".705" fill="none" stroke="url(#a)" stroke-width="2.389" d="m85.988 20.438l-25.988 26.21-25.936-26.444-13.347 13.347 25.936 26.444-25.936 26.646 13.347 13.347 25.936-26.646 26.645 26.11 13.347-13.347-26.645-26.11 25.988-26.21z" transform="matrix(.83726 0 0 .83729-6.239-6.266)"/><path opacity=".921" fill="url(#c)" stroke="url(#d)" stroke-width="1.5" d="m21.18 9.548l-11.232 11.205 22.01 23.17-.057.057c5.164 1.538 11.04 2.383 17.288 2.383 3.041 0 5.986-.206 8.815-.596l-1.763-1.844 21.562-22.869-11.232-11.205-22.472 22.869z"/></g><use xlink:href="#f"/><use xlink:href="#f" transform="translate(45.707)"/><use xlink:href="#f" transform="translate(-11 11)"/></svg>