<svg xmlns="http://www.w3.org/2000/svg" viewBox="0 0 42.46 54.33" xmlns:xlink="http://www.w3.org/1999/xlink"><defs><linearGradient id="a" y1="138.41" x1="272.86" y2="184.81" gradientUnits="userSpaceOnUse" x2="272.42" gradientTransform="scale(1.01247.98769)"><stop stop-color="#b30000"/><stop offset="1" stop-color="#f00"/></linearGradient><linearGradient id="b" y1="193.21" x1="202.25" y2="224.43" gradientUnits="userSpaceOnUse" x2="201.95" gradientTransform="scale(1.36624.73193)"><stop stop-color="#fff"/><stop offset="1" stop-color="#fff" stop-opacity="0"/></linearGradient><linearGradient id="c" y1="118.72" x1="193.59" y2="157.01" gradientUnits="userSpaceOnUse" x2="194.19" gradientTransform="scale(.70218 1.42413)"><stop stop-color="#0000ca"/><stop offset="1" stop-color="#00b7ff"/></linearGradient><linearGradient xlink:href="#b" id="d" y1="211.6" x1="299.57" y2="215.96" gradientUnits="userSpaceOnUse" x2="299.64" gradientTransform="scale(.98034 1.02006)"/><linearGradient xlink:href="#b" id="e" y1="120.67" x1="546.58" y2="126.67" gradientUnits="userSpaceOnUse" x2="546.67" gradientTransform="scale(.53745 1.86062)"/><linearGradient xlink:href="#b" id="f" y1="178.85" x1="428.15" y2="196.09" gradientUnits="userSpaceOnUse" x2="428.42" gradientTransform="scale(.90249 1.10804)"/><path fill-rule="evenodd" stroke-linejoin="round" id="g" stroke-width="1.343" d="m298.14 145.1c0 0-22.255.174-27.451.087-4.848-.086-7.966 5.888-9.351 10.651.866-.087.866-.087 1.385-.087 2.598-4.849 6.148-4.589 9.439-4.503-.866 7.274-1.386 12.21-2.078 16.973-.606 4.329-4.763 5.455-5.369 9.612-.26 2.338 2.684 3.81 3.637 3.723 6.148.173 6.321-11.517 8.139-30.31 3.291.087 5.629.086 8.14.087-2.078 18.271-2.598 28.489 5.196 29.875 7.707.866 8.832-10.565 8.919-11.95-.692 0-.346.173-1.472.086-.433 4.417-2.598 5.369-4.243 5.369-5.628-.173-5.456-5.975-3.897-23.381 3.204.087 9.01.001 9.01.001.086 0 0-6.235 0-6.235z"/><path fill-rule="evenodd" id="h" d="m292.08 215.84c-.086 0-.086 4.416-.086 4.416 0 0 4.329 0 4.243 0-.087 0-.173-4.502-.087-4.415.087.086-4.07.086-4.07-.001z"/><path fill-rule="evenodd" id="i" d="m292.08 224.68v23.899h3.984c0 0 .086-23.899 0-23.899-.087 0-3.984.086-3.984 0z"/><path fill-rule="evenodd" id="j" d="m129.12 188.03c.074-.031-3.16 1.338-3.087 1.307.074-.032 0 33.25 0 33.17 0-.087 3.455-1.55 3.381-1.519-.073-5.944-.074-8.107 0-11.777 1.69 1.97 4.04 1.559 5.733.777 4.409-2.039 8.781-7.79 8.598-17.06-.293-11.132-6.835-8.969-8.746-8.16-2.792 1.182-5.144 4.689-5.805 6.528-.074-1.702-.148-3.142-.074-3.26zm5.806.313c-2.793 1.182-5.516 4.587-5.659 11.575-.123 6.116 2.499 8.198 5.365 6.909 2.498-1.127 5.438-3.862 5.659-11.576.264-6.945-2.425-8.153-5.365-6.908z"/></defs><g transform="translate(-361.87-178.02)"><use fill="#950000" stroke="#970000" xlink:href="#g" transform="matrix(.76977-.32588 0 .90698 161.26 144.14)"/><use fill="url(#a)" stroke="#940000" xlink:href="#g" transform="matrix(.76977-.32588 0 .90698 163.19 144.62)"/><path fill="url(#b)" fill-rule="evenodd" d="m297.32 145.33c0 0-21.22-.156-26.626.033-4.848-.086-7.141 5.134-8.526 9.897.866-.087.247-.309.766-.309 2.598-4.849 6.148-4.239 9.439-4.153-.454 5.848-.355 8.556-1.047 13.319 2.28.117 1.85-1.92 3.422-2.135-.037-1.874.342-4.567.923-11.03 3.291.087 6.66-.244 9.171-.243-.016 7.814-.33 6.383-.782 13.205 1.728-.058 1.344-1.456 3.616-.923.144-5.098-.715 5.352.844-12.05 3.204.087 8.8-.073 8.8-.073.086 0 0-5.535 0-5.535" transform="matrix(.76977-.32588 0 .90698 163.19 144.62)"/><g transform="translate(.793-.794)"><g stroke-linejoin="round" stroke-linecap="round" stroke-width="1.375"><g fill="#0000a5" stroke="#0000ad" transform="matrix(.90698 0 0 .90698 264.05 30.557)"><use xlink:href="#h" transform="matrix(.84871-.3593 0 1-100.03 60.27)"/><use xlink:href="#i" transform="matrix(.84871-.3593 0 1-100.03 60.27)"/><use xlink:href="#j"/></g><g fill="url(#c)" stroke="#0000a4" transform="matrix(.90698 0 0 .90698 265.65 30.717)"><use xlink:href="#h" transform="matrix(.84871-.3593 0 1-100.03 60.27)"/><use xlink:href="#i" transform="matrix(.84871-.3593 0 1-100.03 60.27)"/><use xlink:href="#j"/></g></g><g fill-rule="evenodd"><path fill="url(#d)" d="m292.08 215.84c-.086 0-.086 4.416-.086 4.416 0 0 4.329 0 4.243 0-.087 0-.173-4.502-.087-4.415.087.086-4.07.086-4.07-.001" transform="matrix(.65759-.27763 0 .7727 208 100.55)"/><path fill="url(#e)" d="m292.49 224.83v10.776l3.16-.646c0-1.05.086-10.426 0-10.426-.087 0-3.16.382-3.16.296" transform="matrix(.76977-.32588 0 .90698 174.93 85.7)"/><path fill="url(#f)" d="m382.45 201.57c.067-.028-2.232 1.372-2.166 1.344.067-.029.318 11.274.159 14.212 1.508-.06.948-2.731 2.376-3.076-.525-8.589 3.321-12.252 6.638-12.974 3.976-.9 4.155 4.881 3.957 7.05 1.681-.035.438-.967 2.301-2.117-.266-10.1-6.199-7.818-7.933-7.084-2.532 1.072-4.507 4.888-5.107 6.556-.067-1.544-.292-3.802-.225-3.909"/></g></g></g></svg>