<svg xmlns="http://www.w3.org/2000/svg" viewBox="0 0 49.988 55.14" xmlns:xlink="http://www.w3.org/1999/xlink"><defs><linearGradient id="a" y1="111.92" x1="142.33" y2="110" gradientUnits="userSpaceOnUse" x2="122.17" gradientTransform="scale(1.38226.72345)"><stop stop-color="#7f7df2"/><stop offset="1" stop-color="#fff"/></linearGradient><linearGradient id="b" x1="121.49" gradientUnits="userSpaceOnUse" x2="143.78" gradientTransform="scale(1.38226.72345)"><stop stop-color="#383838"/><stop offset="1" stop-color="#adadae"/></linearGradient><linearGradient id="c" y1="127.47" x1="112.4" y2="126.28" gradientUnits="userSpaceOnUse" x2="99.87" gradientTransform="scale(1.69717.58922)"><stop stop-color="#97949f"/><stop offset="1" stop-color="#fff"/></linearGradient><linearGradient id="d" y1="70.26" x1="180.47" y2="69.973" gradientUnits="userSpaceOnUse" x2="175.58" gradientTransform="scale(.99996 1)"><stop stop-color="#9da6f2"/><stop offset="1" stop-color="#fff"/></linearGradient><linearGradient xlink:href="#b" id="e" y1="74.44" x1="181.83" y2="65.53" gradientUnits="userSpaceOnUse" x2="180.41" gradientTransform="scale(.99996 1)"/><linearGradient id="f" x1="162.6" gradientUnits="userSpaceOnUse" x2="194.73" gradientTransform="scale(1.01961.98077)"><stop stop-color="#7d7d7d"/><stop offset="1" stop-color="#fff"/></linearGradient><linearGradient xlink:href="#b" id="g" y1="66.4" x1="163.41" y2="39.904" gradientUnits="userSpaceOnUse" x2="189.07" gradientTransform="scale(1.01961.98077)"/><linearGradient id="h" y1="66.26" x1="187.79" y2="44.875" gradientUnits="userSpaceOnUse" x2="165.95" gradientTransform="scale(1.03058.97033)"><stop stop-color="#005200"/><stop offset="1" stop-color="#32ff00"/></linearGradient><linearGradient xlink:href="#h" id="i" y1="67.01" x1="175.84" y2="26.423" gradientUnits="userSpaceOnUse" x2="173.42" gradientTransform="scale(1.03058.97033)"/><radialGradient cx="138.28" cy="48.24" id="j" r="23.806" gradientUnits="userSpaceOnUse" gradientTransform="scale(1.20745.82819)"><stop stop-color="#fff"/><stop offset="1" stop-color="#fff" stop-opacity="0"/></radialGradient><linearGradient id="k" y1="38.1" x1="291.18" y2="24.07" gradientUnits="userSpaceOnUse" x2="290.45" gradientTransform="scale(.57217 1.74773)"><stop stop-color="#383838"/><stop offset="1" stop-color="#fff"/></linearGradient><linearGradient id="l" y1="771.24" x1="311.19" y2="1124.8" gradientUnits="userSpaceOnUse" x2="308.24" gradientTransform="scale(.99528 1.0047)"><stop stop-color="#fff"/><stop offset="1" stop-color="#474747"/></linearGradient><linearGradient xlink:href="#l" id="m" y1="802.38" x1="136.66" y2="838.72" gradientUnits="userSpaceOnUse" x2="363.63" gradientTransform="scale(.99528 1.0047)"/><linearGradient xlink:href="#l" id="n" y1="520.99" x1="329.51" y2="494.62" gradientUnits="userSpaceOnUse" x2="328.95" gradientTransform="scale(.97333 1.0274)"/><linearGradient id="o" y1="995.74" x1="349.39" y2="896.13" gradientUnits="userSpaceOnUse" x2="331.34" gradientTransform="scale(1.0009.99913)"><stop stop-color="#ff0"/><stop offset="1" stop-color="#ff7e00"/></linearGradient><linearGradient xlink:href="#o" id="p" y1="657.11" x1="269.87" y2="699.85" gradientUnits="userSpaceOnUse" x2="240.85" gradientTransform="scale(1.27686.78317)"/><linearGradient xlink:href="#o" id="q" y1="574.74" x1="392.27" y2="604.78" gradientUnits="userSpaceOnUse" x2="362.27"/><linearGradient xlink:href="#o" id="r" y1="596.64" x1="370.09" y2="573.29" gradientUnits="userSpaceOnUse" x2="393"/><linearGradient xlink:href="#o" id="s" y1="577.29" x1="387.02" y2="593.67" gradientUnits="userSpaceOnUse" x2="371.45"/><path fill-rule="evenodd" stroke-linejoin="round" fill-opacity=".114" id="t" stroke-width=".875" d="m198.21 71.69c-10.33-4.751-19.749-4.171-25.14-1.298-5.386 2.873-6.739 8.04-.939 12.457.691.47.907.921 2.367.215 5.713-2.39 20.405-8.758 23.418-9.938.649-.221.29-1.492.29-1.436"/><path fill-rule="evenodd" stroke-linejoin="round" fill-opacity=".125" id="u" stroke-width=".875" d="m193.79 37.77c-2.209.221-25.632 4.419-25.632 4.53-1.657.442-2.099 2.21-1.878 2.983.552 2.099 4.986 19.487 5.313 20.535.552 2.099 2.099 2.772 3.304 2.489.957-.252 21.987-9.435 21.987-9.545 1.105-.442 1.436-1.547 1.105-2.652-.111 0-2.873-16.794-2.762-16.904-.111-.884-.663-1.657-1.437-1.436"/></defs><use xlink:href="#t" transform="matrix(1.01585 0 0 1.14533-162.61-41.23)"/><use xlink:href="#t" transform="matrix(1.01585 0 0 1.14533-161.89-40.41)"/><use xlink:href="#u" transform="matrix(1.14451.12459 0 1.41987-188.24-75.82)"/><use xlink:href="#u" transform="matrix(1.14451.12459 0 1.41987-187.76-75.01)"/><g fill-rule="evenodd"><g stroke-linejoin="round"><g stroke-width=".875"><path fill="url(#a)" stroke="url(#b)" d="m198.21 71.69c-10.33-4.751-19.749-4.171-25.14-1.298-5.386 2.873-6.739 8.04-.939 12.457.691.47.907.921 2.367.215 5.713-2.39 20.405-8.758 23.418-9.938.649-.221.29-1.492.29-1.436z" transform="matrix(1.01585 0 0 1.14533-163.82-42.866)"/><path fill="url(#c)" d="m191.11 69.797c-8.49-3.087-14.843-.235-17.261 1.036-2.676 1.468-4.692 2.87-5.08 4.844 14.308 3.189 27.623-2.88 22.341-5.879" transform="matrix(1.01585 0 0 1.14533-163.37-43.04)"/></g><path fill="url(#d)" stroke="url(#e)" d="m187.05 71.58c0-.111.11-8.176.11-8.07 0 .11-11.38 2.983-11.38 3.204 0 .221.331 5.524.221 5.635 0 1.326.884 1.878 3.093 2.541 1.547-.773 7.845-3.425 7.956-3.314z" transform="matrix(.95694 0 0 1.07892-154.01-35.32)"/><g stroke-width=".875"><path fill="url(#f)" stroke="url(#g)" d="m193.79 37.77c-2.209.221-25.632 4.419-25.632 4.53-1.657.442-2.099 2.21-1.878 2.983.552 2.099 4.986 19.487 5.313 20.535.552 2.099 2.099 2.772 3.304 2.489.957-.252 21.987-9.435 21.987-9.545 1.105-.442 1.436-1.547 1.105-2.652-.111 0-2.873-16.794-2.762-16.904-.111-.884-.663-1.657-1.437-1.436z" transform="matrix(1.14451.12459 0 1.41987-189.69-77.19)"/><path fill="url(#h)" stroke="url(#i)" d="m194.17 37.626c-2.209.221-24.865 4.247-26.27 4.577-1.657.442-1.971 1.62-1.75 2.393.552 2.099 4.986 20.417 5.313 21.464.424 1.644 1.588 1.996 2.793 1.597.957-.252 21.476-8.352 23.01-9.04.978-.316 1.053-1.17.85-2.052-.367-2.072-2.618-15.07-3.02-17.931-.111-.535-.407-1.095-.926-1.01z" transform="matrix(.94679.08595 0 1.17459-152.71-56.957)"/><path fill="url(#j)" d="m193.53 38.14c-2.209.221-23.97 4.152-25.503 4.281-1.657.442-1.333 2.38-1.112 3.154.552 2.099 2.686 11.327 3.01 12.374 16.91-6.305 12.285-10.239 25.757-12.323-.111-1.045-.573-5.613-.718-6.282-.111-.884-.663-1.425-1.437-1.204" transform="matrix(.94679.08595 0 1.17459-152.83-56.818)"/></g></g><path fill="url(#k)" d="m169.16 43.1c-.729-.101-1.422-.491-1.845.233-1.128.78-.619 1.695-.398 2.469.552 2.099 4.669 18.651 4.996 19.698.552 2.099 1.676 2.617 2.881 2.334-1.319-.352-1.637-1.624-2.114-2.827-1.448-5.464-4.074-16.777-4.55-18.14-.163-1.195-.734-2.905 1.03-3.771" transform="matrix(1.14451.12459 0 1.41987-189.69-77.19)"/><path fill="url(#l)" stroke="url(#m)" stroke-width="5.375" d="m339.64 827.21c0 10.51-2.132 20.524-5.988 29.634-1.927 4.555 37.804 28.07 35.07 32.12-2.738 4.051-34.33 41.25-37.775 44.696-6.892 6.892-28.715-40.14-37.825-36.29-9.11 3.856-19.12 5.988-29.634 5.988-42.04 0-76.16-34.12-76.16-76.15 0-5.255.533-10.386 1.548-15.342.254-1.239 27.568 27.01 51.01 48.32 19.493-16.885 38.35-37.26 58.32-53.07-19.43-21.953-51.3-54.26-50.07-54.51 4.956-1.015 10.09-1.548 15.342-1.548 42.04 0 76.16 34.12 76.16 76.16z" transform="matrix(.15366 0 0 .15433-17.971-102.3)"/><path fill="url(#n)" stroke-width="1.25" d="m330.69 521.28c0 0-5.796-4.576-5.491-4.881-2.746 6.406-13.12 14.948-16.474 17.389 0 .61 4.881 5.796 4.576 5.796-.305 0 17.389-18.304 17.389-18.304" transform="matrix(.26902 0 0 .2702-54.935-108.98)"/><path fill="url(#o)" stroke="#ce9500" stroke-linejoin="round" stroke-width="4.875" d="m275.85 935.35c26.26-26.723 31.473-31.762 55.708-58.18 66.2 63.721 63.876 60.941 75.64 73.32 36.909 40.2-21.02 93.77-58.1 57.648-29.882-29.751-13.872-14.82-73.25-72.79z" transform="matrix(.15366 0 0 .15433-14.773-105.26)"/><g stroke-width="1.25"><path fill="url(#p)" d="m315.75 541.11l23.795-24.1c0 0 39.659 36.608 39.35 37.22-.305.61-4.271 1.525-4.271 1.525 0 0-35.388-33.25-35.388-32.947 0 .305-19.219 18.609-19.219 18.914 0 .305-4.576-.305-4.271-.61" transform="matrix(.26902 0 0 .2702-55.17-108.98)"/><path fill="url(#q)" d="M400.24976 587.17151A22.269989 22.269989 0 1 1 355.70978 587.17151 22.269989 22.269989 0 1 1 400.24976 587.17151" transform="matrix(.26902 0 0 .2702-58.39-112.94)"/><path fill="url(#r)" d="M397.8092 586.5614A17.69397 17.69397 0 1 1 362.42126 586.5614 17.69397 17.69397 0 1 1 397.8092 586.5614" transform="matrix(.26902 0 0 .2702-58.64-112.69)"/><path fill="url(#s)" d="M391.40273 586.25635A11.592606 11.592621 0 1 1 368.21751 586.25635 11.592606 11.592621 0 1 1 391.40273 586.25635" transform="matrix(.26902 0 0 .2702-58.64-112.69)"/></g></g></svg>