<svg xmlns="http://www.w3.org/2000/svg" viewBox="0 0 128 128" xmlns:xlink="http://www.w3.org/1999/xlink" enable-background="new 0 0 128 128"><defs><linearGradient id="a" xlink:href="#n" y1="47.04" y2="69.38" x1="113.92" x2="108.61" gradientUnits="userSpaceOnUse" gradientTransform="translate(-120.2 33.34)"/><linearGradient id="b" y1="55.4" y2="118.73" x1="113.43" gradientUnits="userSpaceOnUse" x2="114.42" gradientTransform="translate(-118.58 42.734)"><stop stop-color="#caecf3" stop-opacity=".984"/><stop offset="1" stop-color="#0e5268" stop-opacity="0"/></linearGradient><radialGradient cx="419.66" cy="-24.17" r="27.473" id="c" xlink:href="#m" gradientUnits="userSpaceOnUse" gradientTransform="matrix(.71953 0 0 .64852-273.74 28.18)"/><radialGradient fy="-32.883" cx="455.5" cy="-40.35" r="14.1" id="d" xlink:href="#n" gradientUnits="userSpaceOnUse" gradientTransform="matrix(1.48649 0 0 1.83784-221.6 32.465)"/><radialGradient fy="15.369" cx="549.11" cy="-5.5" r="34.641" id="e" gradientUnits="userSpaceOnUse" gradientTransform="matrix(1 0 0 .99955 0-.002)"><stop stop-color="#16367a" stop-opacity="0"/><stop offset=".795" stop-color="#16367a" stop-opacity="0"/><stop offset="1" stop-color="#16367a"/></radialGradient><linearGradient id="f" xlink:href="#m" y1="-24.384" y2="13.03" x1="30.16" x2="28.418" gradientUnits="userSpaceOnUse"/><linearGradient id="g" y1="-49.41" y2="-22.282" x1="529.52" x2="529.63" gradientUnits="userSpaceOnUse"><stop/><stop offset="1" stop-opacity="0"/></linearGradient><linearGradient id="h" xlink:href="#m" y1="35.691" y2="12" x1="425.2" x2="424.86" gradientUnits="userSpaceOnUse"/><linearGradient id="i" xlink:href="#m" y1="7.406" y2="-21.585" x1="425.91" x2="426.27" gradientUnits="userSpaceOnUse"/><linearGradient id="j" xlink:href="#g" y1="-49.41" y2="-2.032" x1="529.52" x2="529.13" gradientUnits="userSpaceOnUse"/><radialGradient fx="27.835" fy="37.594" cx="28.325" cy="22.571" r="24.34" id="k" gradientUnits="userSpaceOnUse"><stop stop-color="#a2f3ff" stop-opacity=".309"/><stop offset=".58" stop-color="#51d2f4" stop-opacity=".465"/><stop offset=".882" stop-color="#388bc9" stop-opacity=".663"/><stop offset="1" stop-color="#1f449e" stop-opacity=".862"/></radialGradient><radialGradient fx="461.55" fy="-62.784" cx="461.98" cy="-50.08" r="21.346" id="l" xlink:href="#m" gradientUnits="userSpaceOnUse" gradientTransform="matrix(1.92451 0 0 .98899-427.11-.552)"/><linearGradient id="m"><stop stop-color="#fff"/><stop offset="1" stop-color="#fff" stop-opacity="0"/></linearGradient><linearGradient id="n"><stop stop-color="#56e4fd" stop-opacity=".687"/><stop offset="1" stop-color="#fff" stop-opacity=".709"/></linearGradient><filter id="o"><feGaussianBlur stdDeviation=".29695"/></filter><filter id="p"><feGaussianBlur stdDeviation=".31492"/></filter><filter id="q"><feGaussianBlur stdDeviation=".66602"/></filter><clipPath id="r"><path d="m549.14-40.479c-19.32 0-35.01 15.69-35.01 35.01 0 19.32 15.69 34.979 35.01 34.979 19.32 0 34.979-15.659 34.979-34.979 0-19.32-15.659-35.01-34.979-35.01"/></clipPath><filter id="s"><feGaussianBlur stdDeviation=".60529"/></filter><filter id="t"><feGaussianBlur stdDeviation=".2393"/></filter><filter id="u"><feGaussianBlur stdDeviation="1.09778"/></filter><linearGradient id="v" y1="98.32" y2="87.58" x1="91.89" gradientUnits="userSpaceOnUse" x2="102.64"><stop stop-color="#363636"/><stop offset="1" stop-color="#b3b3b3"/></linearGradient><filter id="w"><feGaussianBlur stdDeviation=".59409"/></filter><filter id="x"><feGaussianBlur stdDeviation="1.97195"/></filter><radialGradient fx="33.484" fy="10.615" cx="39.41" cy="9.579" r="31.966" id="y" xlink:href="#m" gradientUnits="userSpaceOnUse" gradientTransform="matrix(1 0 0 .76257 0 7.686)"/><radialGradient fx=".906" fy="73.3" cx="3.953" cy="74.833" r="6.932" id="z" xlink:href="#L" gradientUnits="userSpaceOnUse" gradientTransform="matrix(.43597-.5661 5.67091 5.2337-328.64-296.5)"/><radialGradient fx="45.9" fy="62.3" cx="49.16" cy="62.38" r="8.333" id="A" xlink:href="#m" gradientUnits="userSpaceOnUse" gradientTransform="matrix(.62685-.70383 7.60572 6.89156-429.36-328.15)"/><radialGradient fx="36.29" cx="39.04" cy="69.15" r="8.333" id="B" xlink:href="#m" gradientUnits="userSpaceOnUse" gradientTransform="matrix(.62685-.70383 7.60572 6.89156-430.19-328.43)"/><linearGradient spreadMethod="reflect" id="C" x1="28.07" x2="40.2" gradientUnits="userSpaceOnUse" gradientTransform="matrix(-.35819.40218.39683.35957 71.2 46.709)"><stop stop-color="#fff"/><stop offset="1" stop-color="#aeaeae"/></linearGradient><linearGradient id="D" xlink:href="#g" y1="86.71" y2="61.36" x1="67.52" x2="63.4" gradientUnits="userSpaceOnUse" gradientTransform="matrix(1.0052.03707-.0371 1.006 4.01 1.548)"/><radialGradient fx="-24.23" fy="69.914" cx="-22.19" cy="69.922" r="3.313" id="E" xlink:href="#m" gradientUnits="userSpaceOnUse" gradientTransform="matrix(-.89207 1.039-21.23323-18.23058 1564.27 1389.02)"/><radialGradient cx="56.26" cy="56.999" r="9.726" id="F" xlink:href="#L" gradientUnits="userSpaceOnUse" gradientTransform="matrix(1 0 0 .92529 6 10.259)"/><radialGradient cx="28.549" cy="-5.477" r="6.692" id="G" gradientUnits="userSpaceOnUse" gradientTransform="matrix(-5.37943 0 0 29.32146 193.58 200.6)"><stop stop-color="#fff" stop-opacity="0"/><stop offset="1" stop-color="#818181"/></radialGradient><linearGradient id="H" y1="-10.1" y2="-.854" x2="0" gradientUnits="userSpaceOnUse"><stop stop-color="#c9cacc"/><stop offset="1" stop-color="#acaeb1"/></linearGradient><linearGradient id="I" x1="13.645" x2="71.47" gradientUnits="userSpaceOnUse"><stop stop-color="#a3a5a8"/><stop offset="1" stop-color="#fff"/></linearGradient><radialGradient fx="53.36" fy="53.704" cx="53.823" cy="51.796" r="5.284" id="J" xlink:href="#m" gradientUnits="userSpaceOnUse" gradientTransform="matrix(1 0 0 .35076 0 33.628)"/><linearGradient id="K" xlink:href="#m" y1="-7.142" y2="11.416" x1="34.842" x2="35.561" gradientUnits="userSpaceOnUse"/><linearGradient id="L"><stop/><stop offset=".664" stop-opacity=".238"/><stop offset="1" stop-opacity="0"/></linearGradient><filter id="M"><feGaussianBlur stdDeviation="1.31407"/></filter><filter id="N"><feGaussianBlur stdDeviation="2.16"/></filter><linearGradient id="O" y1="104" y2="97.06" x1="96" x2="89.24" gradientUnits="userSpaceOnUse" gradientTransform="translate(-8)"><stop stop-color="#888a85"/><stop stop-color="#8c8e89"/><stop stop-color="#abaca9"/><stop offset=".135" stop-color="#c5c6c4"/><stop offset=".212" stop-color="#dbdbda"/><stop offset=".301" stop-color="#ebebeb"/><stop offset=".412" stop-color="#f7f7f6"/><stop offset=".568" stop-color="#fdfdfd"/><stop offset="1" stop-color="#fff"/></linearGradient><radialGradient cx="102" cy="112.3" r="139.56" id="P" gradientUnits="userSpaceOnUse" gradientTransform="translate(-8)"><stop stop-color="#00537d"/><stop offset=".015" stop-color="#186389"/><stop offset=".056" stop-color="#558ca8"/><stop offset=".096" stop-color="#89afc3"/><stop offset=".136" stop-color="#b3ccd8"/><stop offset=".174" stop-color="#d4e2e9"/><stop offset=".21" stop-color="#ecf2f5"/><stop offset=".244" stop-color="#fafcfd"/><stop offset=".272" stop-color="#fff"/></radialGradient><radialGradient cx="102" cy="112.3" r="139.56" id="Q" gradientUnits="userSpaceOnUse" gradientTransform="translate(-8)"><stop stop-color="#535557"/><stop offset=".114" stop-color="#898a8c"/><stop offset=".203" stop-color="#ececec"/><stop offset=".236" stop-color="#fafafa"/><stop offset=".272" stop-color="#fff"/><stop offset=".531" stop-color="#fafafa"/><stop offset=".845" stop-color="#ebecec"/><stop offset="1" stop-color="#e1e2e3"/></radialGradient><path fill="url(#J)" id="R" d="M59.10713 51.796238A5.284413 1.853574 0 1 1 48.538307 51.796238 5.284413 1.853574 0 1 1 59.10713 51.796238"/></defs><path opacity=".5" filter="url(#N)" stroke="#000" stroke-linejoin="round" stroke-width="4" d="m7 8v110c0 1.104.896 2 2 2h59.19c.53 0 1.031-.219 1.406-.594 0 0 11.906-9.906 17.406-15.406 5.5-5.5 15.406-17.406 15.406-17.406.375-.375.594-.876.594-1.406v-77.19z" transform="matrix(1.02006 0 0 1.01719-.103-1.1)"/><path fill="url(#P)" d="m8 8v110c0 1.104.896 2 2 2h59.17c.53 0 1.039-.211 1.414-.586l32.828-32.828c.375-.375.586-.884.586-1.414v-77.17z"/><path fill="url(#Q)" d="m10 9c-.551 0-1 .449-1 1v108c0 .552.449 1 1 1h59.17c.263 0 .521-.106.707-.293l32.828-32.828c.187-.187.293-.444.293-.707v-75.17c0-.551-.448-1-1-1z"/><path opacity=".5" filter="url(#M)" d="m103.41 86.59c.375-.375-15.97 5.414-25.414 5.414-1.103 0-2 .897-2 2 0 9.444-5.789 25.789-5.414 25.414z"/><path fill="url(#O)" d="m70.59 119.41c0 0 11.914-9.914 17.414-15.414 5.5-5.5 15.414-17.414 15.414-17.414 0 0-15.16 7.414-25.414 7.414 0 10.25-7.414 25.414-7.414 25.414"/><g transform="translate(-1.418-2)"><g fill="none"><path opacity=".755" filter="url(#u)" stroke="#000" stroke-linejoin="round" stroke-width="4.965" d="m5.407 41c0 19.1 15.497 34.593 34.593 34.593 19.1 0 34.593-15.497 34.593-34.593 0-19.1-15.497-34.593-34.593-34.593-19.1 0-34.593 15.497-34.593 34.593z" transform="matrix(.98699 0 0 .97863.521.939)"/><g stroke="url(#K)" transform="matrix(-1.03111-.03793.04967-1.34364 77.79 75.37)"><path stroke-width=".414" d="m9.623 14.273c6.901-8.191 16.726-12.521 27.494-12.521 10.768 0 21.293 5.448 27.297 13.228"/><path stroke-width=".914" d="m9.623 14.573c6.901-8.191 16.726-12.521 27.494-12.521 10.768 0 21.293 5.448 27.297 13.228"/><path stroke-width=".614" d="m9.623 14.473c6.901-8.191 16.726-12.521 27.494-12.521 10.768 0 21.293 5.448 27.297 13.228"/></g></g><path stroke-opacity=".443" fill="url(#v)" filter="url(#w)" stroke="#171717" stroke-linejoin="round" d="m66.807 75.35c3.938-3.297 7.16-6.919 9.772-10.972 21.402 18.549 33.855 30.31 51.42 45.683-3.3 4.594-7.132 8.364-10.865 11.943-16.84-16.186-23.8-20.932-50.33-46.654z" stroke-dashoffset="4"/><path fill="url(#z)" d="m74.26 67.64l-3.636 4.117c3.8 6.261 12.265 15.7 24.18 26.913 9.756 9.178 18.664 16.187 25.17 20.391 2.283-2.042 3.627-3.596 5.191-5.395-4.691-6.36-12.769-14.985-22.603-24.24-11.84-11.137-21.968-18.481-28.311-21.791"/><path opacity=".733" fill="url(#A)" d="m67.43 75.07c3.228-2.972 6.34-6.51 9.03-10.135 16.816 14.37 34.37 30.866 50.35 44.925-3.428 4.529-4.627 6.715-9.512 11.08-16.61-15.967-33.9-30.544-49.861-45.874"/><path opacity=".744" fill="url(#B)" d="m68.49 75.52l7.87-4.01c16.816 14.37 31.512 25.922 48.778 39.36-2.551 5.221-4.26 5.495-8.687 9.803-16.349-15.824-32-29.821-47.961-45.15"/><path fill="#5c5c5c" d="m76.43 64.25c-3.938 3.297-7.168 6.927-9.779 10.98l.176.159c3.938-3.297 7.168-6.927 9.779-10.98z"/><use xlink:href="#R" transform="matrix(.68368-.79205.18896.16406 26.878 102.81)"/><use opacity=".651" xlink:href="#R" transform="matrix(.67225-.80178.19214.16033 77.988 148.37)"/><path fill="url(#C)" d="m68.08 60.18c-2.154 2.622-4.137 4.867-6.081 6.863l6.533 6.01c2.418-2.25 4.629-4.398 6.267-6.744z"/><path fill="url(#D)" d="m68.32 61.33c-2.154 2.622-4.01 4.144-5.95 6.141l6.159 5.581c2.418-2.25 4.629-4.398 6.267-6.744z"/><path fill="url(#E)" d="m127.49 109.96c-6.106-5.74-15.951-13.853-27.38-24.19-8.837-7.989-17.239-15.359-23.674-20.12l-4.77 4.602c5.382 5.925 13.523 14.257 22.36 22.246 11.428 10.332 22.06 18.827 28.773 23.24z"/><path opacity=".8" fill="url(#F)" fill-rule="evenodd" d="m68.22 60.28c-.969 1.291-2.03 2.53-3.188 3.688-.413.413-.847.826-1.281 1.219-.022.02-.041.043-.063.063-.568.617-1.129 1.208-1.688 1.781l2.281 2.125c2.144-1.355 3.997-3.167 5.375-5.406.292-.474.546-.949.781-1.438z"/><path opacity=".188" fill="url(#a)" d="m-5.523 91.8h1.652v8.382h-1.652z" transform="matrix(.66434-.74743.74743.66434.691-1.185)"/><g fill="none" stroke-linejoin="round"><path stroke="url(#H)" stroke-width=".621" d="M34.931141-5.477264A6.381651 4.366393 0 1 1 22.16784 -5.477264 6.381651 4.366393 0 1 1 34.931141 -5.477264z" transform="matrix(-5.32778 0 0 7.78675 192.11 82.65)"/><path stroke="url(#G)" stroke-width="4" d="m6 40c0 18.768 15.232 34 34 34 18.768 0 34-15.232 34-34 0-18.768-15.232-34-34-34-18.768 0-34 15.232-34 34z"/></g><path opacity=".71" fill="url(#y)" filter="url(#x)" d="m39.844 8c-.546-.009-1.105.012-1.656.031-17.65.614-31.408 15.441-30.719 33.09.224 5.737 1.951 11.06 4.781 15.625-.018-.274-.02-.537-.031-.813-.69-17.653 13.07-32.479 30.719-33.09 11.914-.415 22.559 5.737 28.438 15.219-1.077-16.71-14.883-29.798-31.531-30.06"/><path fill="none" stroke="url(#I)" stroke-linejoin="round" stroke-width="1.728" d="M70.60957 38.36776A28.05038 27.24433 0 1 1 14.508816 38.36776 28.05038 27.24433 0 1 1 70.60957 38.36776z" stroke-dashoffset="4" transform="matrix(.03847 1.10538 1.13826-.04447-5.31-5.338)"/><g transform="matrix(1.27247 0 0 1.27247 4.38 11.395)"><path opacity=".406" fill="url(#l)" filter="url(#t)" d="M483.32958-50.07803A21.345785 20.06799 0 1 1 440.63801 -50.07803 21.345785 20.06799 0 1 1 483.32958 -50.07803" transform="matrix(.91368 0 0 .63063-393.99 40.721)"/><path fill="url(#k)" d="m28.333-1.769c-13.438 0-24.351 10.913-24.351 24.351 0 13.438 10.913 24.329 24.351 24.329 13.438 0 24.329-10.892 24.329-24.329 0-13.438-10.892-24.351-24.329-24.351"/><path opacity=".391" fill="url(#j)" filter="url(#p)" d="m514.84-41.875c-19.607 0-35.531 15.924-35.531 35.531 0 3.403.48 6.697 1.375 9.813-.684-2.729-1.063-5.591-1.063-8.531 0-19.315 15.685-35 35-35 19.315 0 35 15.685 35 35 0 6.639-1.847 12.834-5.063 18.13 3.652-5.58 5.781-12.239 5.781-19.406 0-19.607-15.893-35.531-35.5-35.531" transform="matrix(.70264 0 0 .70264-333.28 26.424)"/><path opacity=".57" fill="url(#i)" filter="url(#o)" d="m385.94-16.09c-1.141 3.502-1.75 7.213-1.75 11.09 0 19.819 16.09 35.906 35.906 35.906 19.819 0 35.875-16.09 35.875-35.906 0-3.881-.609-7.592-1.75-11.09.884 3.1 1.375 6.368 1.375 9.75 0 19.607-15.893 35.5-35.5 35.5-19.607 0-35.531-15.893-35.531-35.5 0-3.382.491-6.65 1.375-9.75" transform="matrix(.70264 0 0 .70264-266.59 26.424)"/><path fill="url(#h)" filter="url(#o)" d="m385.94-16.09c-1.141 3.502-1.75 7.213-1.75 11.09 0 19.819 16.09 34.906 35.906 34.906 19.819 0 35.875-15.09 35.875-34.906 0-3.881-.609-7.592-1.75-11.09.884 3.1 1.375 6.368 1.375 9.75 0 19.607-15.893 35.5-35.5 35.5-19.607 0-35.531-15.893-35.531-35.5 0-3.382.491-6.65 1.375-9.75" transform="matrix(.70264 0 0 .70264-266.59 26.424)"/><path fill="url(#g)" filter="url(#p)" d="m514.84-40.875c-19.607 0-35.531 14.924-35.531 34.531 0 3.403.48 6.697 1.375 9.813-.684-2.729-1.063-5.591-1.063-8.531 0-19.315 15.685-35 35-35 19.315 0 35 15.685 35 35 0 6.639-1.847 12.834-5.063 18.13 3.652-5.58 5.781-12.239 5.781-19.406 0-19.607-15.893-34.531-35.5-34.531" transform="matrix(.70264 0 0 .70264-333.28 26.424)"/><path fill="url(#f)" d="m28.429-3.525c-13.971 0-25.317 11.228-25.317 25.05 0 5.358 1.71 10.311 4.611 14.382-2.693-3.981-4.26-8.777-4.26-13.943 0-13.777 11.189-24.966 24.966-24.966 13.777 0 24.944 11.189 24.944 24.966 0 5.166-1.57 9.962-4.26 13.943 2.897-4.071 4.611-9.02 4.611-14.382 0-13.825-11.324-25.05-25.295-25.05"/><path fill="url(#e)" filter="url(#q)" clip-path="url(#r)" d="m549.13-40.12c-19.12 0-34.656 15.532-34.656 34.656 0 17.548 13.1 32.01 30.03 34.28-14.59-2.228-25.781-14.822-25.781-30.03 0-16.782 13.624-30.406 30.406-30.406 16.782 0 30.406 13.624 30.406 30.406 0 15.733-11.959 28.663-27.28 30.22 17.666-1.573 31.5-16.393 31.5-34.469 0-19.12-15.501-34.656-34.625-34.656m3.125 69.13c-.511.052-1.045.099-1.563.125.519-.023 1.05-.079 1.563-.125m-7.75-.188c.512.069 1.013.141 1.531.188-.511-.052-1.028-.111-1.531-.188m1.531.188c.51.045 1.015.102 1.531.125-.518-.026-1.02-.073-1.531-.125" transform="matrix(.70264 0 0 .70264-357.76 26.424)"/><path opacity=".406" fill="url(#d)" filter="url(#s)" d="M469.60728-34.831043A14.10347 17.534039 0 1 1 441.40035 -34.831043 14.10347 17.534039 0 1 1 469.60728 -34.831043" transform="matrix(.73731 0 0 .64114-307.56 33.86)"/><path opacity=".59" fill="url(#c)" d="m29.446.213l.202 4.227c1.676.03 3.308.188 4.879.435-.326-1.375-.649-2.75-.989-4.124-1.31-.297-2.677-.466-4.092-.538m-3.103.026c-1.358.103-2.681.328-3.935.64-.362 1.457-.712 2.921-1.057 4.38 1.616-.364 3.305-.592 5.059-.717l.202-4.304c-.092.006-.178-.007-.27 0m9.669 1.23c.416 1.312.827 2.627 1.237 3.945 2.956.725 5.639 1.811 7.892 3.202-1.751-3.145-5.02-5.7-9.129-7.147m-16.437.307c-4.402 1.766-7.732 4.846-9.06 8.53 2.058-1.708 4.672-3.111 7.645-4.124.47-1.468.938-2.936 1.417-4.406m10.141 4.073l.315 6.174c2.155.056 4.26.25 6.251.615-.452-2.098-.926-4.201-1.417-6.302-1.655-.278-3.375-.452-5.149-.487m-3.373.077c-1.863.137-3.646.441-5.352.845-.488 2.1-.943 4.198-1.394 6.302 2.046-.493 4.2-.818 6.453-.973zm11.378 1.025c.666 2.159 1.332 4.337 1.979 6.507 2.414.685 4.624 1.574 6.588 2.664.164-.738.247-1.482.247-2.254 0-1.13-.195-2.203-.54-3.253-2.31-1.581-5.118-2.837-8.275-3.663m-20.08.794c-2.985 1.08-5.59 2.568-7.6 4.355-.101.58-.157 1.167-.157 1.768 0 1.032.158 2.03.45 2.997 1.571-.995 3.336-1.868 5.262-2.587.67-2.174 1.354-4.355 2.046-6.532"/></g><path opacity=".457" fill="url(#b)" d="m-2.866 101.47h.756v66.29h-.756z" transform="rotate(-48.3683)"/></g></svg>