<svg xmlns="http://www.w3.org/2000/svg" viewBox="0 0 128 128" xmlns:xlink="http://www.w3.org/1999/xlink" enable-background="new 0 0 128 128"><defs><filter id="a"><feGaussianBlur stdDeviation="1.20654"/></filter><radialGradient cx="102" cy="112.3" id="b" r="139.56" gradientUnits="userSpaceOnUse" gradientTransform="matrix(.875 0 0 .85714 10 17.14)"><stop stop-color="#00537d"/><stop offset=".015" stop-color="#186389"/><stop offset=".056" stop-color="#558ca8"/><stop offset=".096" stop-color="#89afc3"/><stop offset=".136" stop-color="#b3ccd8"/><stop offset=".174" stop-color="#d4e2e9"/><stop offset=".21" stop-color="#ecf2f5"/><stop offset=".244" stop-color="#fafcfd"/><stop offset=".272" stop-color="#fff"/></radialGradient><radialGradient cx="99.08" cy="109.33" id="c" r="139.56" gradientUnits="userSpaceOnUse" gradientTransform="matrix(.85638 0 0 .84156 11.191 18.14)"><stop stop-color="#7a7d80"/><stop offset=".126" stop-color="#c2c2c2"/><stop offset=".233" stop-color="#fafafa"/><stop offset=".272" stop-color="#fff"/><stop offset=".531" stop-color="#fafafa"/><stop offset=".845" stop-color="#ebecec"/><stop offset="1" stop-color="#e1e2e3"/></radialGradient><linearGradient id="d" y1="104" x1="96" y2="94.1" gradientUnits="userSpaceOnUse" x2="86.57" gradientTransform="matrix(.875 0 0 .85714 10 17.14)"><stop stop-color="#888a85"/><stop offset=".007" stop-color="#8c8e89"/><stop offset=".067" stop-color="#abaca9"/><stop offset=".135" stop-color="#c5c6c4"/><stop offset=".212" stop-color="#dbdbda"/><stop offset=".301" stop-color="#ebebeb"/><stop offset=".412" stop-color="#f7f7f6"/><stop offset=".568" stop-color="#fdfdfd"/><stop offset="1" stop-color="#fff"/></linearGradient><filter id="e"><feGaussianBlur stdDeviation=".89956"/></filter></defs><g id="f" transform="translate(12)"><path opacity=".6" filter="url(#e)" d="m23 25v96h53.53c.464 0 30.475-29.398 30.475-29.853v-66.15z" transform="matrix(1.04762 0 0 1.04167-2.095-4.04)"/><path fill="url(#b)" d="m24 24v96h53.53c.464 0 30.475-29.398 30.475-29.853v-66.15z"/><path fill="url(#c)" d="m26.606 25.714c-.472 0-.856.378-.856.842v90.89c0 .465.385.842.856.842h50.674c.225 0 .446-.089.605-.247l28.11-27.627c.16-.157.251-.374.251-.595v-63.26c0-.464-.384-.842-.856-.842z"/><path opacity=".5" filter="url(#a)" d="m76.53 120c0 0 11.662-9 16.474-13.714 4.813-4.714 14-16.14 14-16.14 0 0-8 5.853-24 5.853 0 16-6.475 24-6.475 24"/><path fill="url(#d)" d="m77.53 120c0 0 11.662-9 16.474-13.714 4.813-4.714 14-16.14 14-16.14 0 0-8 5.853-24 5.853 0 16-6.475 24-6.475 24"/></g><use width="128" height="128" xlink:href="#f" transform="translate(-28-16)"/></svg>