<svg xmlns="http://www.w3.org/2000/svg" viewBox="0 0 128 128">
  <defs>
    <linearGradient id="metal" x1="0" y1="0" x2="1" y2="1">
      <stop offset="0" stop-color="#f8fbff"/>
      <stop offset=".45" stop-color="#b9c3cc"/>
      <stop offset="1" stop-color="#6f7c86"/>
    </linearGradient>
    <linearGradient id="blue" x1="0" y1="0" x2="0" y2="1">
      <stop offset="0" stop-color="#6fc8ff"/>
      <stop offset=".55" stop-color="#2388d8"/>
      <stop offset="1" stop-color="#0a559d"/>
    </linearGradient>
    <linearGradient id="paper" x1="0" y1="0" x2="0" y2="1">
      <stop offset="0" stop-color="#ffffff"/>
      <stop offset="1" stop-color="#dcefff"/>
    </linearGradient>
    <filter id="shadow" x="-20%" y="-20%" width="140%" height="140%">
      <feDropShadow dx="2" dy="3" stdDeviation="2" flood-color="#000" flood-opacity=".28"/>
    </filter>
  </defs>

  <g filter="url(#shadow)">
    <path d="M38 12h42l24 24v74H38z" fill="url(#paper)" stroke="#5f8fb7" stroke-width="4"/>
    <path d="M80 12v25h24" fill="#c7e5ff" stroke="#5f8fb7" stroke-width="4" stroke-linejoin="round"/>
    <path d="M49 51h39M49 66h39M49 81h28" stroke="#8bb4d0" stroke-width="6" stroke-linecap="round"/>
  </g>

  <g filter="url(#shadow)" stroke-linecap="round" stroke-linejoin="round">
    <path d="M46 74 100 31" stroke="url(#metal)" stroke-width="12"/>
    <path d="M47 75 100 106" stroke="url(#metal)" stroke-width="12"/>
    <path d="M46 74 100 31" stroke="#3d4d58" stroke-width="4"/>
    <path d="M47 75 100 106" stroke="#3d4d58" stroke-width="4"/>
    <circle cx="27" cy="57" r="18" fill="url(#blue)" stroke="#064b8e" stroke-width="5"/>
    <circle cx="27" cy="91" r="18" fill="url(#blue)" stroke="#064b8e" stroke-width="5"/>
    <circle cx="27" cy="57" r="8" fill="#e8f7ff"/>
    <circle cx="27" cy="91" r="8" fill="#e8f7ff"/>
    <circle cx="48" cy="74" r="7" fill="#4c5a63" stroke="#20282d" stroke-width="3"/>
  </g>
</svg>
