<svg xmlns="http://www.w3.org/2000/svg" viewBox="0 0 128 128" xmlns:xlink="http://www.w3.org/1999/xlink"><defs><radialGradient cx="63.912" cy="115.71" id="a" r="63.912" gradientUnits="userSpaceOnUse" gradientTransform="matrix(1 0 0 .1978 0 92.82)"><stop/><stop offset="1" stop-opacity="0"/></radialGradient><rect width="112" x="8" y="40" rx="8.583" height="56" ry="8.505" id="b"/></defs><use fill="none" stroke="#888" stroke-linejoin="round" xlink:href="#b" stroke-width="8"/><use fill="#ddd" xlink:href="#b"/><g fill="#fff"><path fill-opacity=".757" d="m50.893 3.281v-2.795"/><rect width="104" x="12" y="44" rx="7.97" ry="7.29" height="48"/></g><path fill="#555753" fill-rule="evenodd" d="m23.421 48c-.838.088-1.459.812-1.419 1.646.04.834.728 1.488 1.57 1.497h7.758v33.705h-7.758c-.05-.002-.101-.002-.151 0-.838.088-1.459.812-1.419 1.646.04.834.728 1.488 1.57 1.497h18.716c.594.044 1.168-.244 1.479-.748.311-.504.311-1.142 0-1.646-.311-.504-.885-.792-1.479-.748h-7.758v-33.705h7.758c.594.044 1.168-.244 1.479-.748.311-.504.311-1.142 0-1.646-.311-.504-.885-.792-1.479-.748h-18.716c-.05-.002-.101-.002-.151 0"/><path opacity=".381" fill="url(#a)" d="M127.82442 115.70919A63.912209 12.641975 0 1 1 0 115.70919 63.912209 12.641975 0 1 1 127.82442 115.70919" transform="matrix(1.0014 0 0 .41038 0 75.33)"/></svg>