<svg xmlns="http://www.w3.org/2000/svg" viewBox="0 0 128 128" xmlns:xlink="http://www.w3.org/1999/xlink"><defs><linearGradient id="a"><stop/><stop offset="1" stop-opacity="0"/></linearGradient><radialGradient cx="48" cy="-.215" id="b" r="55.15" gradientUnits="userSpaceOnUse" gradientTransform="matrix(.9792 0 0 .9725 133 20.876)"><stop stop-color="#cfd13d"/><stop offset="1" stop-color="#db8900"/></radialGradient><linearGradient id="c"><stop stop-color="#fff"/><stop offset="1" stop-color="#fff" stop-opacity="0"/></linearGradient><linearGradient xlink:href="#b" id="d" y1="33.406" x1="147.09" y2="123.91" x2="8.08" gradientUnits="userSpaceOnUse"/><radialGradient cx="67.09" cy="116.91" xlink:href="#b" id="e" r="56" gradientUnits="userSpaceOnUse"/><radialGradient fx="64.69" fy="68.23" cx="99.73" cy="27.418" id="f" r="56" gradientUnits="userSpaceOnUse" gradientTransform="matrix(.69374.05867-.03624.42854 33.939 26.881)"><stop stop-color="#eaf209"/><stop offset="1" stop-color="#c7c634" stop-opacity="0"/></radialGradient><linearGradient id="g" y1="4.532" y2="80.17" x2="0" gradientUnits="userSpaceOnUse"><stop stop-color="#fffe63"/><stop offset="1" stop-color="#fff" stop-opacity="0"/></linearGradient><linearGradient xlink:href="#c" id="h" y1="4.532" y2="80.17" gradientUnits="userSpaceOnUse" x2="0" gradientTransform="translate(.004.002)"/><filter id="i"><feGaussianBlur stdDeviation="1.05805"/></filter><radialGradient cx="-10.165" cy="66.906" xlink:href="#a" id="j" r="59.995" gradientUnits="userSpaceOnUse" gradientTransform="matrix(.45829 0 0 1.0001 20.448-.005)"/><radialGradient cx="167.67" cy="80.4" xlink:href="#a" id="k" r="59.995" gradientUnits="userSpaceOnUse" gradientTransform="matrix(.26767.52138-.70375.3613 108.99-36.06)"/><linearGradient spreadMethod="reflect" xlink:href="#c" id="l" y1="12.569" x1="120.06" y2="14.444" x2="125.3" gradientUnits="userSpaceOnUse"/><filter width="1.302" x="-.151" y="-.137" height="1.275" id="m"><feGaussianBlur stdDeviation=".39257"/></filter><radialGradient fx="74.871" fy="26.863" cx="72.68" cy="48.23" xlink:href="#a" id="n" r="59.995" gradientUnits="userSpaceOnUse" gradientTransform="matrix(.98237.01672-.00358.21038-18.563 30.478)"/><radialGradient cx="66.01" cy="126.69" id="o" r="59.995" gradientUnits="userSpaceOnUse" gradientTransform="matrix(.67503 0 0 .35836 19.527 41)"><stop stop-color="#beba2c"/><stop offset="1" stop-color="#b6be2c" stop-opacity="0"/></radialGradient><radialGradient cx="64.09" cy="7.411" xlink:href="#c" id="p" r="59.995" gradientUnits="userSpaceOnUse" gradientTransform="matrix(.30939 0 0 .47792 44.26 3.864)"/><linearGradient spreadMethod="reflect" id="q" y1="12.569" x1="120.06" y2="14.444" gradientUnits="userSpaceOnUse" x2="125.3"><stop stop-color="#fdff63"/><stop offset="1" stop-color="#fff" stop-opacity="0"/></linearGradient><filter id="r"><feGaussianBlur stdDeviation="1.33427"/></filter><filter id="s"><feGaussianBlur stdDeviation=".89884"/></filter><filter width="1.175" x="-.088" y="-.102" height="1.204" id="t"><feGaussianBlur stdDeviation="3.05267"/></filter><radialGradient fx="-113.15" fy="59.708" cx="-112.17" cy="118.6" id="u" r="59.995" gradientUnits="userSpaceOnUse" gradientTransform="matrix(.64843.10172-.03126.19925-4.563 53.16)"><stop stop-color="#fff" stop-opacity="0"/><stop offset=".5" stop-color="#fff" stop-opacity=".187"/><stop offset="1" stop-color="#fff"/></radialGradient><linearGradient xlink:href="#a" id="v" y1="37.682" x1="-151.44" y2="57.25" gradientUnits="userSpaceOnUse" x2="-152.27"/><linearGradient xlink:href="#a" id="w" y1="39.803" x1="-132.51" y2="72.882" gradientUnits="userSpaceOnUse" x2="-158.92"/><linearGradient xlink:href="#a" id="x" y1="44.753" x1="-83.01" y2="72.882" gradientUnits="userSpaceOnUse" x2="-158.92"/><linearGradient xlink:href="#a" id="y" y1="105.63" x1="-73" y2="86.13" gradientUnits="userSpaceOnUse" x2="-163"/><linearGradient xlink:href="#a" id="z" y1="137.13" x1="-83.59" y2="92.6" gradientUnits="userSpaceOnUse" x2="-138" gradientTransform="translate(-40.5-1.5)"/><linearGradient xlink:href="#a" id="A" y1="99.98" x1="-61.803" y2="112.7" gradientUnits="userSpaceOnUse" x2="-136.51" gradientTransform="translate(-40.5-1.5)"/><mask maskUnits="userSpaceOnUse" id="B"><g transform="translate(167.5-.004)"><g transform="translate(80.52 30.885)"><path fill="url(#u)" d="m-184.42-32.472c-33.13 0-64 32.375-64 65.5 0 33.13 31.375 64 64.5 64 30.29 0 55.34-26.22 59.41-55.34l-35.03-5.03c-1.625 11.961-11.93 20.969-24.375 20.969-13.572 0-22.09-11.522-22.09-25.09 0-13.572 6.02-20.09 19.594-20.09 6.786 0 9.921-2.235 14.375 2.219l-4.827 11.327c-2.056 2.056-2.244 3.306-1.68 4.616.509 1.181 1.521 2.526 4.21 2.526h43.953c3.846 0 6.459-2.654 6.459-6.25l-.069-44.08c0-2.481-.903-3.843-2.181-4.35-1.314-.52-3.033-.123-5.107 1.951l-10.195.195c-10.859-10.859-26.375-13.06-42.938-13.06"/><path fill="url(#v)" filter="url(#r)" fill-rule="evenodd" d="m-161.5 34.5c-.5 2.5-18.5 19.5-18.5 19.5l47.5 26 20.5-41.5z"/><path fill="url(#w)" filter="url(#r)" fill-rule="evenodd" d="m-161.5 34.5c-.5 2.5-19.778 19.889-19.778 19.889l29.651 43.2 39.627-59.09z"/><path fill="url(#x)" filter="url(#r)" fill-rule="evenodd" d="m-161.5 34.5c-.5 2.5-19.778 19.889-19.778 19.889l29.651 43.2 39.627-59.09z"/></g><path fill="url(#y)" filter="url(#t)" d="m-119 69.75h83.5v71.75h-83.5z"/><path fill="url(#z)" filter="url(#t)" d="m-159.5 68.25l120.36-12.266-54.32 106.57-104.34-33.588z" transform="matrix(.63938.76889-.76889.63938 37.598 128.09)"/><path fill="url(#A)" filter="url(#t)" d="m-159.5 68.25l120.36-12.266-54.32 106.57-104.34-33.588z" transform="matrix(.63938.76889-.76889.63938 37.598 128.09)"/></g></mask><linearGradient xlink:href="#g" id="C" y1="130.41" y2="63.43" gradientUnits="userSpaceOnUse" x2="0" gradientTransform="translate(-137)"/><linearGradient id="D" y1="76.65" x1="57.733" y2="88.91" x2="56.37" gradientUnits="userSpaceOnUse"><stop stop-color="#a67f00"/><stop offset="1" stop-color="#a67f00" stop-opacity="0"/></linearGradient><path id="E" d="m64.09 3.906c-33.13 0-60 26.875-60 60 0 33.13 26.875 60 60 60 30.29 0 55.34-22.22 59.41-51.34l-35.03-5.03c-1.625 11.961-11.93 20.969-24.375 20.969-13.572 0-24.594-11.02-24.594-24.594 0-13.572 11.02-24.594 24.594-24.594 6.786 0 12.921 2.765 17.375 7.219l-10.327 10.327c-2.056 2.056-2.244 3.306-1.68 4.616.509 1.181 1.521 2.526 4.21 2.526h43.953c3.846 0 6.459-2.654 6.459-6.25l-.069-44.08c0-2.481-.903-3.843-2.181-4.35-1.314-.52-3.033-.123-5.107 1.951l-10.195 10.195c-10.859-10.859-25.875-17.563-42.44-17.563"/><path id="F" d="m64.09 7.906c-30.962 0-56 25.04-56 56 0 30.962 25.04 56 56 56 26.933 0 49.12-18.807 54.53-44l-27.12-3.875c-3.439 11.897-14.44 20.469-27.406 20.469-15.737 0-28.594-12.856-28.594-28.594 0-15.737 12.856-28.594 28.594-28.594 7.872 0 15.05 3.208 20.22 8.375.759.751 1.187 1.775 1.188 2.844 0 1.068-.428 2.092-1.188 2.844l-10.625 10.625h43.938c2.01 0 2.469-.592 2.469-2.25l-.094-44.09-10.625 10.656c-.751.759-1.775 1.188-2.844 1.188-1.068 0-2.092-.428-2.844-1.188-10.138-10.138-24.11-16.406-39.594-16.406"/></defs><path fill="none" stroke="url(#D)" stroke-linejoin="round" stroke-width="8" d="m64.54 4.092c33.13 0 60 26.575 60 59.7 0 33.13-26.875 60-60 60v-35.406c13.572 0 24.594-11.02 24.594-24.594 0-13.572-11.02-24.594-24.594-24.594-6.786 0-12.921 2.765-17.375 7.219l14.327 14.327c2.056 2.056 2.244 3.306 1.68 4.616-.509 1.181-1.521 2.526-4.21 2.526h-47.953c-3.846 0-6.459-2.654-6.459-6.25l.069-48.08c0-2.481.903-3.843 2.181-4.35 1.314-.52 3.033-.123 5.107 1.951l10.195 10.195c10.859-10.859 25.875-17.263 42.44-17.263z" stroke-dashoffset="1.088"/><g mask="url(#B)" transform="matrix(-1 0 0 1 128.18 0)"><use fill="url(#d)" xlink:href="#E"/><use opacity=".798" fill="url(#o)" xlink:href="#E"/><use opacity=".689" fill="url(#k)" xlink:href="#E"/><use fill="url(#j)" xlink:href="#E"/><use opacity=".798" fill="url(#n)" xlink:href="#E"/><path opacity=".745" fill="url(#p)" filter="url(#s)" d="m64.09 4.206c-33.13 0-60 26.575-60 59.7 0 33.13 26.875 60 60 60 30.29 0 55.34-22.22 59.41-51.34l-35.03-5.03c-1.625 11.961-11.93 20.969-24.375 20.969-13.572 0-24.594-11.02-24.594-24.594 0-13.572 11.02-24.594 24.594-24.594 6.786 0 12.921 2.765 17.375 7.219l-10.327 10.327c-2.056 2.056-2.244 3.306-1.68 4.616.509 1.181 1.521 2.526 4.21 2.526h43.953c3.846 0 6.459-2.654 6.459-6.25l-.069-44.08c0-2.481-.903-3.843-2.181-4.35-1.314-.52-3.033-.123-5.107 1.951l-10.195 10.195c-10.859-10.859-25.875-17.263-42.44-17.263"/><g fill-rule="evenodd"><path opacity=".82" fill="url(#l)" filter="url(#m)" d="m117.69 10.75l.938 4.375 1.25.875 4-2.625c.247-1.724-.351-3.347-1.938-4-1.586-.653-3.161.127-4.25 1.375"/><path opacity=".82" fill="url(#q)" filter="url(#m)" d="m117.69 10.75l2.188 3.125.5-.125 3.5-.375c.247-1.724-.351-3.347-1.938-4-1.586-.653-3.161.127-4.25 1.375" transform="matrix(0 1 1 0 60.36-60.36)"/></g><use fill="url(#e)" xlink:href="#F"/><use fill="url(#f)" xlink:href="#F"/><path fill="url(#g)" d="m64.09 7.906c-30.962 0-56 25.04-56 56 0 .568.015 1.124.031 1.688 5.989.678 12.141 1.15 18.406 1.406-.271-10.459 3.672-20.975 11.813-28.781 15.339-14.709 39.729-14.214 54.44 1.125 2.764 2.882 4.757 5.688 6.563 9.25l-20.5 10.406h19.16c7.928-2.027 15.186-3.437 22.09-6.188l-.094-39.16-10.625 10.656c-.751.759-1.775 1.188-2.844 1.188-1.068 0-2.092-.428-2.844-1.188-10.138-10.138-24.11-16.406-39.594-16.406"/><path fill="url(#h)" d="m64.1 7.909c-30.962 0-56 25.04-56 56 0 .179-.002.354 0 .531.253-30.744 25.2-55.53 56-55.53 15.483 0 29.456 6.269 39.594 16.406.751.759 1.775 1.188 2.844 1.188 1.068 0 2.092-.428 2.844-1.188l10.125-10.156.494 37.55c-6.908 2.751-14.566 3.861-22.494 5.887l-18.656.406h19.16c7.928-2.027 15.186-3.437 22.09-6.188l-.094-38.16v-1l-.5.5-10.125 10.156c-.751.759-1.775 1.188-2.844 1.188-1.068 0-2.092-.428-2.844-1.188-.01-.01-.021-.021-.031-.031-.052-.052-.104-.104-.156-.156-.574-.568-1.151-1.115-1.75-1.656-.082-.074-.168-.145-.25-.219-9.916-8.91-23.01-14.344-37.41-14.344m-.656 19.219c-9.238.251-18.403 3.793-25.594 10.687-7.632 7.318-11.128 17.373-11.313 27.22.24-9.802 4.18-19.494 11.813-26.813 13.316-12.769 33.453-14.1 48.16-4.188-6.879-4.805-14.987-7.125-23.06-6.906"/><path fill="none" filter="url(#i)" stroke="url(#C)" stroke-linejoin="round" d="m63.59 7.906c-30.962 0-56 25.04-56 56 0 30.962 25.04 56 56 56 26.933 0 49.12-18.807 54.53-44l-27.12-3.875c-3.439 11.897-14.44 20.469-27.406 20.469-15.737 0-28.594-12.856-28.594-28.594 0-15.737 12.856-28.594 28.594-28.594 7.872 0 15.05 3.208 20.22 8.375.759.751 1.188 1.775 1.188 2.844 0 1.068-.428 2.092-1.188 2.844l-10.625 10.625h43.938c2.01 0 2.469-.592 2.469-2.25l-.094-44.09-10.625 10.656c-.751.759-1.775 1.188-2.844 1.188-1.068 0-2.092-.428-2.844-1.188-10.138-10.138-24.11-16.406-39.594-16.406z" stroke-dashoffset="1.088"/></g></svg>