<svg xmlns="http://www.w3.org/2000/svg" viewBox="0 0 128 128" xmlns:xlink="http://www.w3.org/1999/xlink"><defs><linearGradient id="a"><stop stop-color="#d3d3d3"/><stop offset="1" stop-color="#d3d3d3" stop-opacity="0"/></linearGradient><linearGradient id="b"><stop stop-color="#fff"/><stop offset="1" stop-color="#fff" stop-opacity="0"/></linearGradient><linearGradient id="c" x1="-84" x2="-12" gradientUnits="userSpaceOnUse" gradientTransform="matrix(0 1-1 0-39.999 140)"><stop stop-color="#888a85"/><stop offset="1"/></linearGradient><linearGradient xlink:href="#c" id="d" y1="-16" y2="64" x2="0" gradientUnits="userSpaceOnUse" gradientTransform="matrix(-1 0 0 1 127.99 0)"/><radialGradient cx="79.34" cy="114.96" xlink:href="#c" id="e" r="56" gradientUnits="userSpaceOnUse" gradientTransform="matrix(-1 0 0 .57143 127.33 38.31)"/><linearGradient xlink:href="#b" id="f" y1="-32" x1="181" y2="88" x2="205" gradientUnits="userSpaceOnUse" gradientTransform="matrix(-1 0 0 1 252.99 0)"/><filter id="g"><feGaussianBlur stdDeviation="1.23375"/></filter><linearGradient id="h" y1="38.906" y2="103.41" gradientUnits="userSpaceOnUse" x2="0" gradientTransform="matrix(-1 0 0 1 114.57 2.302)"><stop stop-color="#fff"/><stop offset="1" stop-color="#dfdfdf"/></linearGradient><radialGradient cx="76.21" cy="68.8" id="i" r="40.33" gradientUnits="userSpaceOnUse"><stop stop-color="#fff" stop-opacity=".48"/><stop offset="1" stop-color="#fff" stop-opacity="0"/></radialGradient><linearGradient xlink:href="#b" id="j" y1="68" x1="80" y2="44" x2="72" gradientUnits="userSpaceOnUse" gradientTransform="matrix(-1 0 0 1 127.99 0)"/><linearGradient xlink:href="#b" id="k" y1="-8" x1="185.05" y2="88" gradientUnits="userSpaceOnUse" x2="205" gradientTransform="matrix(-1 0 0 1 253.04 0)"/><linearGradient xlink:href="#b" id="l" y1="95" x1="270.03" y2="31" gradientUnits="userSpaceOnUse" x2="142.03" gradientTransform="matrix(-1 0 0 1 253.06 0)"/><linearGradient xlink:href="#a" id="m" y1="108" y2="60" x2="0" gradientUnits="userSpaceOnUse"/><filter id="n"><feGaussianBlur stdDeviation=".2125"/></filter><linearGradient id="o" y1="112" y2="-8" x2="0" gradientUnits="userSpaceOnUse" gradientTransform="translate(0 .8)"><stop/><stop offset="1" stop-opacity="0"/></linearGradient><filter id="p"><feGaussianBlur stdDeviation="1.38005"/></filter><filter width="1.892" x="-.446" y="-.364" height="1.728" id="q"><feGaussianBlur stdDeviation="1.0042"/></filter><filter width="1.929" x="-.465" y="-.406" height="1.812" id="r"><feGaussianBlur stdDeviation="1.0042"/></filter><filter width="1.689" x="-.344" y="-.275" height="1.551" id="s"><feGaussianBlur stdDeviation="1.0042"/></filter><filter width="1.677" x="-.338" y="-.268" height="1.536" id="t"><feGaussianBlur stdDeviation="1.0042"/></filter><linearGradient xlink:href="#c" id="u" y1="-16" y2="64" gradientUnits="userSpaceOnUse" x2="0" gradientTransform="translate(129.5)"/><clipPath id="v"><path fill="url(#u)" d="m185.5 28c-.993-.002-1.951.366-2.688 1.031l-40 36c-.84.758-1.319 1.837-1.319 2.969 0 1.132.479 2.21 1.319 2.969l40 36c.737.665 1.695 1.033 2.688 1.031h56c2.209 0 4-1.791 4-4v-72c0-2.209-1.791-4-4-4z"/></clipPath><radialGradient cx="185.85" cy="31.16" xlink:href="#b" id="w" r="3.563" gradientUnits="userSpaceOnUse" gradientTransform="matrix(.91352-.4068 1 2.24561-16.01 35.37)"/><radialGradient cx="241.76" cy="31.513" xlink:href="#b" id="x" r="3.5" gradientUnits="userSpaceOnUse" gradientTransform="matrix(.80763.5897-1.64286 2.25 99.02-182.84)"/><radialGradient cx="243.41" cy="105.53" xlink:href="#a" id="y" r="2.594" gradientUnits="userSpaceOnUse" gradientTransform="matrix(.71659-.6975 1.97649 2.03059-139.6 61.02)"/><radialGradient cx="184.82" cy="105.39" xlink:href="#a" id="z" r="2.703" gradientUnits="userSpaceOnUse" gradientTransform="matrix(.77571.63109-3.32948 4.09249 391.48-441.38)"/></defs><path fill="url(#o)" filter="url(#p)" d="m56 28.8c-.993-.002-1.951.366-2.688 1.031l-40 36c-.84.758-1.319 1.837-1.319 2.969 0 1.132.479 2.21 1.319 2.969l40 36c.737.665 1.695 1.033 2.688 1.031h56c2.209 0 4-1.791 4-4v-72c0-2.209-1.791-4-4-4z" transform="matrix(-1 0 0 1 127.99 0)"/><path fill="url(#d)" d="m71.993 28c.993-.002 1.951.366 2.688 1.031l40 36c.84.758 1.319 1.837 1.319 2.969 0 1.132-.479 2.21-1.319 2.969l-40 36c-.737.665-1.695 1.033-2.688 1.031h-56c-2.209 0-4-1.791-4-4v-72c0-2.209 1.791-4 4-4z"/><g fill-rule="evenodd" clip-path="url(#v)" transform="matrix(-1 0 0 1 257.49 0)"><path fill="url(#w)" filter="url(#t)" d="m185.5 28c-.993-.002-1.951.366-2.688 1.031l-.938.844 6.125 6.125v-8z"/><path fill="url(#x)" filter="url(#s)" d="m240 28l-.5 7.75 6-3.75c0-2.209-1.791-4-4-4z"/><path fill="url(#y)" filter="url(#r)" d="m241.31 103.06l.063 4.938h.125c2.209 0 4-1.791 4-4v-.906z"/><path fill="url(#z)" filter="url(#q)" d="m186.16 102.38l-4.406 3.625 1.063.969c.737.665 1.695 1.033 2.688 1.031h.031z"/></g><path fill="url(#e)" d="m71.993 32l40 36-40 36h-56v-72z"/><path fill="url(#f)" d="m71.993 32l40 36-4.906 4.406c-7.161.548-14.548.844-22.09.844-25.69 0-49.47-3.32-69-8.969v-32.28z"/><path fill="none" filter="url(#g)" stroke="url(#i)" stroke-linejoin="round" stroke-width="5" d="m59.18 37.864l-11.813 11.781 17.06 17.06-17.06 17.03 11.813 11.813 17.03-17.06 17.06 17.06 11.781-11.813-17.03-17.03 17.03-17.06-11.781-11.781-17.06 17.03z" transform="matrix(-1 0 0 1 127.99 0)"/><path fill="url(#h)" d="m68.815 37.864l11.813 11.781-17.06 17.06 17.06 17.03-11.813 11.813-17.03-17.06-17.06 17.06-11.781-11.813 17.03-17.03-17.03-17.06 11.781-11.781 17.06 17.03z"/><path fill="url(#j)" d="m68.806 37.875l11.813 11.781-17.06 17.06 6.156 6.125c-11.312-.592-22.15-1.831-32.25-3.625l2.5-2.5-17.03-17.06 11.781-11.781 17.06 17.03z"/><path fill="url(#k)" d="m72.04 32l40 36-40-35h-56v-1z"/><path fill="url(#l)" d="m16.96 63.28c19.527 5.649 43.31 8.969 69 8.969 7.546 0 14.933-.296 22.09-.844l3.906-3.5.094.094-4.906 4.406c-7.161.548-14.548.844-22.09.844-25.69 0-49.47-3.32-69-8.969v-32.28z"/><path opacity=".604" fill="none" filter="url(#n)" stroke="url(#m)" stroke-linejoin="round" d="m56 32l-40 36 40 36h56v-72z" stroke-dashoffset="4" transform="matrix(-1 0 0 1 127.99 0)"/></svg>