<svg xmlns="http://www.w3.org/2000/svg" viewBox="0 0 128 128" xmlns:xlink="http://www.w3.org/1999/xlink" enable-background="new 0 0 128 128"><defs><linearGradient id="a" y1="4.996" y2="118" gradientUnits="userSpaceOnUse" x2="0"><stop stop-color="#ff5454"/><stop offset=".194" stop-color="#f94f4f"/><stop offset=".467" stop-color="#e64242"/><stop offset=".783" stop-color="#c92d2d"/><stop offset="1" stop-color="#b01c1c"/></linearGradient><linearGradient id="b" xlink:href="#a" y1="110.76" x1="110.23" y2="22.762" gradientUnits="userSpaceOnUse" x2="23.23"/><linearGradient id="c" y1="14" y2="63" gradientUnits="userSpaceOnUse" x2="0"><stop stop-color="#fff"/><stop offset="1" stop-color="#fff" stop-opacity="0"/></linearGradient></defs><path fill="#750000" d="m128 114c0 7.732-6.268 14-14 14h-100c-7.732 0-14-6.268-14-14v-100c0-7.732 6.268-14 14-14h100c7.732 0 14 6.268 14 14z"/><path fill="url(#a)" d="m14 4c-5.514 0-10 4.486-10 10v100c0 5.514 4.486 10 10 10h100c5.514 0 10-4.486 10-10v-100c0-5.514-4.486-10-10-10z"/><path fill="url(#b)" d="m18.09 8.113c-5.514 0-9.999 4.484-9.999 9.997v91.78c0 5.512 4.485 9.996 9.999 9.996h91.81c5.515 0 10-4.484 10-9.996v-91.78c0-5.512-4.485-9.997-10-9.997z"/><path opacity=".605" fill="url(#c)" d="m18.09 12.11c-3.308 0-5.999 2.69-5.999 5.997v16.89c0 1.357 31.477 29.994 50.905 31 27.907 1.445 52.902-13.693 52.902-17v-30.891c0-3.307-2.691-5.997-6-5.997z"/><path opacity=".38" d="m66.924 18.14c-26.22 0-47.611 21.387-47.611 47.596 0 26.21 21.394 47.597 47.611 47.597 26.22 0 47.645-21.387 47.645-47.597-.001-26.21-21.426-47.596-47.645-47.596m0 12.77c19.308 0 34.87 15.527 34.87 34.827s-15.562 34.826-34.87 34.826c-19.305 0-34.837-15.526-34.837-34.826s15.532-34.827 34.837-34.827"/><path opacity=".38" d="m66.935 43.827c-4.323 0-7.802 3.479-7.802 7.799v30.08c0 4.319 3.479 7.798 7.802 7.798 4.321 0 7.801-3.479 7.801-7.798v-30.08c-.001-4.32-3.48-7.798-7.801-7.798"/><g fill="#fff"><path d="m63.984 16.5c-26.15 0-47.48 21.345-47.48 47.5 0 26.16 21.336 47.5 47.48 47.5 26.15 0 47.52-21.343 47.52-47.5 0-26.16-21.368-47.5-47.52-47.5m0 12.745c19.254 0 34.776 15.494 34.776 34.755 0 19.261-15.521 34.756-34.776 34.756-19.254.001-34.744-15.494-34.744-34.756 0-19.261 15.49-34.755 34.744-34.755"/><path d="m63.993 42.13c-4.31 0-7.78 3.471-7.78 7.783v30.02c0 4.312 3.47 7.783 7.78 7.783 4.311 0 7.78-3.471 7.78-7.783v-30.02c0-4.312-3.469-7.783-7.78-7.783"/></g></svg>