<?xml version="1.0" encoding="UTF-8" standalone="no"?>
<svg
   xmlns:dc="http://purl.org/dc/elements/1.1/"
   xmlns:cc="http://creativecommons.org/ns#"
   xmlns:rdf="http://www.w3.org/1999/02/22-rdf-syntax-ns#"
   xmlns:svg="http://www.w3.org/2000/svg"
   xmlns="http://www.w3.org/2000/svg"
   xmlns:xlink="http://www.w3.org/1999/xlink"
   xml:space="preserve"
   id="svg1"
   viewBox="0 0 125.957 125.956"
   height="48.000000pt"
   width="48.000000pt"
   y="0.0000000"
   x="0.0000000"
   version="1.0"><metadata
     id="metadata47"><rdf:RDF><cc:Work
         rdf:about=""><dc:format>image/svg+xml</dc:format><dc:type
           rdf:resource="http://purl.org/dc/dcmitype/StillImage" /></cc:Work></rdf:RDF></metadata><defs
     id="defs106"><linearGradient
       id="linearGradient1865"><stop
         id="stop2120"
         offset="0.0000000"
         style="stop-color:#404b55;stop-opacity:1.0000000;" /><stop
         id="stop1866"
         offset="1.0000000"
         style="stop-color:#101c27;stop-opacity:1.0000000;" /></linearGradient><linearGradient
       id="linearGradient1862"><stop
         id="stop1864"
         offset="0.0000000"
         style="stop-color:#878f97;stop-opacity:1.0000000;" /><stop
         id="stop1863"
         offset="1.0000000"
         style="stop-color:#212931;stop-opacity:1.0000000;" /></linearGradient><linearGradient
       gradientUnits="userSpaceOnUse"
       id="XMLID_3_"
       y2="87.998100"
       x2="63.957001"
       y1="-17.000000"
       x1="63.957001"><stop
         id="stop49"
         offset="0.0000000"
         style="stop-color:#ffffff;stop-opacity:1.0000000;" /><stop
         id="stop51"
         offset="1.0000000"
         style="stop-color:#ffffff;stop-opacity:0.0000000;" /></linearGradient><linearGradient
       gradientUnits="userSpaceOnUse"
       id="XMLID_4_"
       y2="73.889198"
       x2="73.836899"
       y1="10.392100"
       x1="10.339800"><stop
         id="stop58"
         offset="0.0000000"
         style="stop-color:#ffffff;stop-opacity:1.0000000;" /><stop
         id="stop60"
         offset="1.0000000"
         style="stop-color:#ffffff;stop-opacity:0.0000000;" /></linearGradient><linearGradient
       gradientUnits="userSpaceOnUse"
       id="XMLID_5_"
       y2="65.001404"
       x2="62.997101"
       y1="168.50290"
       x1="62.997101"><stop
         id="stop67"
         offset="0.0000000"
         style="stop-color:#ffffff;stop-opacity:1.0000000;" /><stop
         id="stop69"
         offset="1.0000000"
         style="stop-color:#ffffff;stop-opacity:0.0000000;" /></linearGradient><linearGradient
       gradientTransform="matrix(0.999900,-1.010000e-2,1.010000e-2,0.999900,-1.144400,0.354300)"
       gradientUnits="userSpaceOnUse"
       id="XMLID_7_"
       y2="164.30850"
       x2="33.114700"
       y1="-141.01460"
       x1="33.114700"><stop
         id="stop96"
         offset="0.0000000"
         style="stop-color:#ffffff;stop-opacity:1.0000000;" /><stop
         id="stop98"
         offset="1.0000000"
         style="stop-color:#ffffff;stop-opacity:0.0000000;" /></linearGradient><linearGradient
       y2="60.985329"
       x2="53.820477"
       y1="21.613750"
       x1="31.052742"
       gradientTransform="matrix(0.987913,-9.978910e-3,9.978910e-3,0.987913,0.758045,0.758039)"
       gradientUnits="userSpaceOnUse"
       id="linearGradient2106"
       xlink:href="#XMLID_7_" /><linearGradient
       y2="65.001404"
       x2="62.997101"
       y1="168.50290"
       x1="62.997101"
       gradientTransform="matrix(0.987963,0.000000,0.000000,0.987963,0.758045,0.758039)"
       gradientUnits="userSpaceOnUse"
       id="linearGradient2113"
       xlink:href="#XMLID_5_" /><linearGradient
       y2="73.889198"
       x2="73.836899"
       y1="25.929346"
       x1="26.564838"
       gradientTransform="matrix(0.987963,0.000000,0.000000,0.987963,0.758045,0.758039)"
       gradientUnits="userSpaceOnUse"
       id="linearGradient2116"
       xlink:href="#XMLID_4_" /><linearGradient
       y2="77.436874"
       x2="65.109993"
       y1="13.567519"
       x1="65.109993"
       gradientTransform="matrix(0.987963,0.000000,0.000000,0.987963,0.758045,0.758039)"
       gradientUnits="userSpaceOnUse"
       id="linearGradient2119"
       xlink:href="#XMLID_3_" /><linearGradient
       y2="61.896500"
       x2="62.977501"
       y1="182.56740"
       x1="62.977501"
       gradientTransform="matrix(0.987963,0.000000,0.000000,0.987963,0.758045,0.758039)"
       gradientUnits="userSpaceOnUse"
       id="linearGradient2122"
       xlink:href="#linearGradient1862" /><linearGradient
       y2="41.343369"
       x2="55.344120"
       y1="154.80630"
       x1="55.344120"
       gradientTransform="matrix(0.987967,0.000000,0.000000,0.987959,0.758045,0.758039)"
       gradientUnits="userSpaceOnUse"
       id="linearGradient2125"
       xlink:href="#linearGradient1865" /><linearGradient
       gradientUnits="userSpaceOnUse"
       y2="61.598782"
       x2="92.019020"
       y1="61.598782"
       x1="35.230515"
       gradientTransform="matrix(1.097954,0.000000,0.000000,1.097945,-4.134070,-3.935581)"
       id="linearGradient2900"
       xlink:href="#linearGradient1865" /></defs><g
     transform="matrix(1.012131,0.000000,0.000000,1.012131,-0.763964,-0.763960)"
     id="g2902"><path
       id="path18"
       style="fill:url(#linearGradient2125);fill-opacity:1.0000000"
       d="M 125.19890,62.347652 C 125.54666,96.710981 97.969652,124.85014 63.607311,125.19791 C 29.243982,125.54567 1.1058080,97.969646 0.75804500,63.606317 C 0.41028202,29.243976 27.985317,1.1058020 62.347658,0.75803900 C 96.711975,0.41027602 124.85015,27.985311 125.19890,62.347652 z " /><path
       id="path45"
       style="fill:url(#linearGradient2122);fill-opacity:1.0000000"
       d="M 118.60919,62.413846 C 118.91941,93.139495 94.264791,118.29797 63.540130,118.60918 C 32.816456,118.91940 7.6569906,94.264785 7.3457823,63.540124 C 7.0355619,32.816450 31.691167,7.6559967 62.414840,7.3457763 C 93.140489,7.0355559 118.29897,31.691161 118.60919,62.413846 z " /><path
       id="path54"
       style="fill:url(#linearGradient2119);fill-opacity:1.0000000"
       d="M 63.449237,11.878551 C 36.372135,12.152216 14.642877,34.326058 14.916543,61.402172 C 14.931362,62.894984 15.024231,64.368037 15.170449,65.825282 C 28.707518,71.476431 44.921967,74.688298 62.326911,74.512441 C 81.324452,74.320776 98.826216,70.122921 112.91654,63.188409 C 112.95903,62.268615 112.97977,61.342894 112.97286,60.410257 C 112.69919,33.334143 90.527327,11.604885 63.449237,11.878551 z " /><path
       id="path63"
       style="fill:url(#linearGradient2116);fill-opacity:1.0000000"
       d="M 64.943037,17.198731 C 89.377338,16.951741 109.94969,34.007934 115.02782,56.951399 C 112.01157,30.627124 89.526521,10.309665 62.447443,10.583331 C 33.510994,10.875768 10.290900,34.572061 10.583337,63.507521 C 10.731531,78.157036 16.883577,91.332511 26.670339,100.74187 C 19.299147,92.027049 14.805891,80.790946 14.681408,68.486855 C 14.397862,40.444513 36.900695,17.482277 64.943037,17.198731 z " /><path
       id="path72"
       style="opacity:0.49999997;fill:url(#linearGradient2113)"
       d="M 63.435406,110.14728 C 37.308724,110.41205 15.752359,90.210185 13.983906,64.476713 C 13.937471,65.441953 13.909808,66.411144 13.920676,67.389228 C 14.194342,94.495968 36.389919,116.24499 63.493696,115.97033 C 90.599448,115.69667 112.34748,93.503066 112.07381,66.396325 C 112.06393,65.419229 112.01750,64.449050 111.95032,63.485786 C 110.70351,89.249885 89.561099,109.88250 63.435406,110.14728 z " /><path
       id="path101"
       style="opacity:0.60000002;fill:url(#linearGradient2106);fill-opacity:1.0000000"
       d="M 53.044011,30.436448 C 48.047882,26.375920 42.277190,23.388319 36.013505,21.800663 C 24.896945,29.477135 16.427138,41.683418 12.497021,56.200547 C 18.167929,53.387816 24.455326,51.781388 31.093449,51.714207 C 32.775950,51.697411 34.434740,51.788304 36.070807,51.968113 C 40.158997,43.321461 45.994895,35.933474 53.044011,30.436448 z " /><path
       id="path2892"
       d="M 42.803259,32.541966 C 40.846982,32.686615 38.820419,33.608377 37.210580,35.218217 C 33.990904,38.437894 33.645102,43.249826 36.421429,46.026154 L 54.091550,63.696275 L 36.421429,81.366395 C 33.645102,84.142722 33.990902,88.988966 37.210580,92.208643 C 40.430259,95.428321 45.276501,95.774123 48.052829,92.997794 L 65.722949,75.327674 L 83.393069,92.997794 C 86.169398,95.774123 91.015640,95.428324 94.235318,92.208643 C 97.454995,88.988967 97.800799,84.142719 95.024469,81.366395 L 77.354349,63.696275 L 95.024469,46.026154 C 97.800799,43.249825 97.454996,38.437895 94.235318,35.218217 C 91.015638,31.998537 86.169398,31.618427 83.393069,34.394755 L 65.722949,52.064875 L 48.052829,34.394755 C 46.664665,33.006591 44.759537,32.397316 42.803259,32.541966 z "
       style="opacity:0.20000000;fill:url(#linearGradient2900);fill-opacity:1.0000000;stroke:none;stroke-width:3.2500000;stroke-linecap:round;stroke-linejoin:miter;stroke-miterlimit:4.0000000;stroke-opacity:1.0000000" /><path
       id="rect2129"
       d="M 40.607361,30.346067 C 38.651083,30.490717 36.624520,31.412479 35.014682,33.022318 C 31.795005,36.241995 31.449204,41.053928 34.225531,43.830256 L 51.895651,61.500376 L 34.225531,79.170497 C 31.449204,81.946824 31.795004,86.793067 35.014682,90.012745 C 38.234361,93.232423 43.080602,93.578224 45.856930,90.801896 L 63.527051,73.131776 L 81.197171,90.801896 C 83.973499,93.578224 88.819742,93.232425 92.039419,90.012745 C 95.259096,86.793068 95.604901,81.946820 92.828570,79.170497 L 75.158450,61.500376 L 92.828570,43.830256 C 95.604901,41.053927 95.259097,36.241996 92.039419,33.022318 C 88.819739,29.802638 83.973499,29.422528 81.197171,32.198857 L 63.527051,49.868977 L 45.856930,32.198857 C 44.468767,30.810693 42.563638,30.201418 40.607361,30.346067 z "
       style="fill:#ffffff;fill-opacity:1.0000000;stroke:none;stroke-width:3.2500000;stroke-linecap:round;stroke-linejoin:miter;stroke-miterlimit:4.0000000;stroke-opacity:1.0000000" /></g></svg>