<svg xmlns="http://www.w3.org/2000/svg" viewBox="0 0 128 128" xmlns:xlink="http://www.w3.org/1999/xlink"><defs><linearGradient id="a"><stop stop-color="#fff"/><stop offset="1" stop-color="#fff" stop-opacity="0"/></linearGradient><linearGradient id="b" y1="1937.99" y2="1895.42" gradientUnits="userSpaceOnUse" x2="0" gradientTransform="matrix(2.55998 0 0 2.56183 317.25-4847.79)"><stop stop-color="#2e2a2b"/><stop offset=".335" stop-color="#4c494a"/><stop offset=".667" stop-color="#5b595a"/><stop offset="1" stop-color="#6b696a"/></linearGradient><radialGradient cx="100.31" cy="42.45" id="c" r="38" gradientUnits="userSpaceOnUse" gradientTransform="matrix(4.81108 0 0 1.92571-441.9-88.15)"><stop stop-color="#d0ced9"/><stop offset=".25" stop-color="#ecf1f9"/><stop offset=".5" stop-color="#fff"/><stop offset="1" stop-color="#c6d5e3"/></radialGradient><filter width="1.138" x="-.069" y="-.12" height="1.241" id="d"><feGaussianBlur stdDeviation="1.92284"/></filter><radialGradient cx="84" cy="91.98" xlink:href="#a" id="e" r="32" gradientUnits="userSpaceOnUse" gradientTransform="matrix(1 0 0 .62103 0 37.876)"/><linearGradient id="f" y1="104.35" y2="176.35" x2="0" gradientUnits="userSpaceOnUse"><stop/><stop offset="1" stop-opacity="0"/></linearGradient><linearGradient xlink:href="#a" id="g" y1="42.34" x1="-37.2" y2="106.8" x2="-12.625" gradientUnits="userSpaceOnUse" gradientTransform="translate(126.8)"/><clipPath id="h"><path d="m18.19 132.42c-1.419 0-2.563 1.143-2.563 2.563v37.18h72v-37.18c0-1.419-1.143-2.563-2.563-2.563z"/></clipPath><linearGradient id="i" y1="112" y2="80" x2="0" gradientUnits="userSpaceOnUse" gradientTransform="matrix(1 0 0 .99689 0-.225)"><stop stop-color="#8a8a8a"/><stop offset="1" stop-color="#c6c6c6"/></linearGradient><filter width="1.248" x="-.124" y="-.093" height="1.186" id="j"><feGaussianBlur stdDeviation="1.23846"/></filter><linearGradient xlink:href="#f" id="k" y1="120" x1="68" y2="84" x2="36" gradientUnits="userSpaceOnUse"/><linearGradient xlink:href="#f" id="l" x1="86.69" x2="90.05" gradientUnits="userSpaceOnUse" gradientTransform="translate(1)"/><filter width="1.51" x="-.255" y="-.023" height="1.045" id="m"><feGaussianBlur stdDeviation=".35663"/></filter><filter width="1.293" x="-.147" y="-.102" height="1.203" id="n"><feGaussianBlur stdDeviation=".55"/></filter><clipPath id="o"><use xlink:href="#u"/></clipPath><clipPath id="p"><use xlink:href="#u"/></clipPath><radialGradient cx="16" cy="18" id="q" r="4" gradientUnits="userSpaceOnUse" gradientTransform="matrix(1 0 0 1.5 0-9)"><stop stop-color="#7a7a7a"/><stop offset="1" stop-opacity=".491"/></radialGradient><linearGradient xlink:href="#f" id="r" y1="1.595" y2="18.755" gradientUnits="userSpaceOnUse" x2="0"/><radialGradient fy="18.539" cx="16.04" cy="19.494" id="s" r="2.379" gradientUnits="userSpaceOnUse"><stop stop-color="#868385"/><stop offset="1" stop-color="#4a4949"/></radialGradient><linearGradient id="t" y1="17.13" y2="19.871" gradientUnits="userSpaceOnUse" x2="0"><stop stop-color="#fff"/><stop offset="1"/></linearGradient><rect width="8" x="12" y="12" rx="1.079" height="12" id="u"/></defs><path fill="url(#b)" d="m11.361 8c-1.809 0-3.361 1.612-3.36 3.3v97.13l11.64 11.568h97c2.953 0 3.36-.344 3.36-3.3v-105.4c0-1.798-1.558-3.3-3.36-3.3z"/><rect x="24" y="8" rx="1.299" ry="1.28" width="80" fill="url(#c)" height="56"/><g fill-rule="evenodd"><path opacity=".565" fill="#5581ab" d="m31.992 24.12v8.227h63.936v-8.227z"/><path opacity=".565" fill="#436788" d="m32 48.23v8.164h63.984v-8.164z"/></g><path fill="url(#f)" filter="url(#d)" d="m16.781 130.44c-1.483 0-2.656 1.205-2.656 2.688v42.03c0 1.483 1.173 2.656 2.656 2.656h.156c-.408-.446-.688-1.032-.688-1.688v-39.969c0-1.391 1.112-2.531 2.5-2.531h65.59c1.388 0 2.5 1.14 2.5 2.531v39.969c0 .656-.248 1.241-.656 1.688h.125c1.483 0 2.688-1.173 2.688-2.656v-42.03c0-1.483-1.205-2.688-2.688-2.688z" clip-path="url(#h)" transform="translate(16.391-52.35)"/><path fill-opacity=".128" d="m34.538 80.01c-1.419 0-2.563 1.143-2.563 2.563l.025 37.15h72l-.025-37.15c0-1.419-1.143-2.563-2.563-2.563z"/><path opacity=".074" fill="url(#e)" d="m34.581 80.07c-1.419 0-2.563 1.143-2.563 2.563v37.18l71.981-.117v-37.18c0-1.419-1.143-2.563-2.563-2.563z"/><path fill="url(#k)" filter="url(#j)" d="m52.938 84c-.52 0-.938.418-.938.938v23.06h-11.06c-.52 0-.938.418-.938.938v6.125c0 .52.418.938.938.938h22.13c.52 0 .938-.418.938-.938v-30.12c0-.52-.418-.938-.938-.938z" transform="matrix(1 0 0 1.0104 0-1.313)"/><path opacity=".453" fill="url(#g)" filter="url(#filter3192)" fill-rule="evenodd" stroke="#fff" stroke-width=".099" d="m112.08 97.38v6.719h-2.25l4.344 7.531 4.344-7.531h-2.25v-6.719h-2.094z" transform="matrix(.90672 0 0 1.11383 4.476-12.395)"/><path opacity=".297" fill="url(#l)" filter="url(#m)" d="m87.69 81.906h3.358v37.852h-3.358z" transform="matrix(1 0 0 1.0104 0-1.313)"/><path fill="url(#i)" d="m34.542 80.32c-1.177 0-2.125.945-2.125 2.118l.177 37.56h55.41v-37.701c0-1.174-.823-1.977-2-1.977zm6.396 7.925h14.13c.52 0 .938.417.938.935v21.311c0 .518-.418.935-.938.935h-14.12c-.52 0-.938-.417-.938-.935v-21.311c0-.518.418-.935.938-.935"/><g opacity=".785" stroke-linejoin="round" stroke-linecap="round" stroke-dashoffset="4.15" transform="matrix(1.44049 0 0 .96032-3.048 2.714)"><g stroke-width=".932"><use opacity="1" xlink:href="#u" filter="url(#n)" fill="none" clip-path="url(#p)" stroke="#000" transform="matrix(.69421 0 0 .69421 4.893 5.504)"/><use opacity="1" xlink:href="#u" filter="url(#n)" fill="url(#q)" clip-path="url(#o)" stroke="url(#r)" transform="matrix(.69421 0 0 .69421 4.893 5.504)"/></g><rect opacity="1" x="13.897" y="18.03" rx=".452" stroke-width=".309" width="4.35" filter="url(#filter28101)" fill="url(#s)" height="3.676" stroke="url(#t)"/></g><path opacity=".35" fill="none" stroke="#000" stroke-linejoin="round" stroke-width="8" d="m15.12 12c-1.68 0-3.121 1.497-3.12 3.064v91.12l9.88 9.813h90.999c2.742 0 3.12-.32 3.12-3.064v-97.87c0-1.67-1.447-3.064-3.12-3.064z" stroke-dashoffset="1.088"/><path opacity=".35" d="m88 80v7.719h8v24.281h8v-32h-8z"/><g fill="#fff"><path opacity=".399" d="m32 80h56v8h-56z"/><path opacity=".187" d="m32 112h56v8h-56z"/><path opacity=".276" d="m24 8h80v8h-80z"/></g></svg>