<svg version="1.0" viewBox="0 0 128 128" xmlns="http://www.w3.org/2000/svg" xmlns:xlink="http://www.w3.org/1999/xlink">
 <defs>
  <linearGradient id="linearGradient10959">
   <stop offset="0"/>
   <stop stop-opacity="0" offset="1"/>
  </linearGradient>
  <linearGradient id="linearGradient9182">
   <stop stop-color="#3a3a3c" offset="0"/>
   <stop stop-color="#5d5d60" offset=".5"/>
   <stop stop-color="#97989b" offset="1"/>
  </linearGradient>
  <linearGradient id="linearGradient9015">
   <stop stop-color="#fff" offset="0"/>
   <stop stop-color="#fff" stop-opacity="0" offset="1"/>
  </linearGradient>
  <linearGradient id="linearGradient7974">
   <stop stop-color="#a04e21" offset="0"/>
   <stop stop-color="#a04e21" stop-opacity="0" offset="1"/>
  </linearGradient>
  <linearGradient id="linearGradient7964">
   <stop stop-color="#fff0c3" offset="0"/>
   <stop stop-color="#c13d00" stop-opacity="0" offset="1"/>
  </linearGradient>
  <linearGradient id="linearGradient7866">
   <stop stop-color="#f4bea0" offset="0"/>
   <stop stop-color="#e5702f" stop-opacity="0" offset="1"/>
  </linearGradient>
  <linearGradient id="linearGradient7488">
   <stop stop-color="#eb7331" offset="0"/>
   <stop stop-color="#eb7331" stop-opacity="0" offset="1"/>
  </linearGradient>
  <linearGradient id="linearGradient5991">
   <stop stop-opacity="0" offset="0"/>
   <stop stop-opacity=".68327" offset=".25"/>
   <stop offset=".5"/>
   <stop stop-opacity=".72954" offset=".75"/>
   <stop stop-opacity="0" offset="1"/>
  </linearGradient>
  <linearGradient id="linearGradient5595">
   <stop stop-color="#dddbdc" offset="0"/>
   <stop stop-color="#878485" offset=".74324"/>
   <stop stop-color="#4e4c4d" offset=".80917"/>
   <stop stop-color="#2e2c2d" offset="1"/>
  </linearGradient>
  <filter id="filter5622">
   <feGaussianBlur stdDeviation="0.3713333"/>
  </filter>
  <filter id="filter5698">
   <feGaussianBlur stdDeviation="0.26202037"/>
  </filter>
  <filter id="filter5753">
   <feGaussianBlur stdDeviation="1.4374244"/>
  </filter>
  <clipPath id="clipPath5757">
   <path d="m1165.6-265.86h14.142c12.521 0 17.134-21.128 10.597-27.674l-26.994-26.994c-5.0806-5.0806-13.106-5.4829-19.003-2.1071-3.6812 2.1074-5.6787 6.1876-7.1376 10.349-9.5696.4695-21.758 2.9813-30.103 17.38l58.497 29.046z" fill="#3d3b3c" fill-rule="evenodd"/>
  </clipPath>
  <filter id="filter5911" x="-.11477" y="-.086885" width="1.2295" height="1.1738">
   <feGaussianBlur stdDeviation="0.87156593"/>
  </filter>
  <linearGradient id="linearGradient5921" x1="1320.7" x2="1380.6" y1="-304.53" y2="-304.53" gradientTransform="translate(-317.5)" gradientUnits="userSpaceOnUse" xlink:href="#linearGradient5595"/>
  <clipPath id="clipPath5917">
   <path d="m1054.4-343.22c-2.6849-.04048-5.3864.66479-7.7187 2-3.328 1.9052-5.1499 5.5813-6.4687 9.3438-8.6516.42447-19.675 2.7017-27.219 15.719l-9.6875 20.938h.0937c-.0626.10604-.1253.20514-.1874.3125l58.5 29.062h14.125c7.7637 1e-5 12.466-8.1381 13.375-15.875h.0312v-.1875c.0335-.30506.041-.60314.0625-.90625l.0313-.25c.0232-.38617.0589-.77568.0624-1.1562l1.3438-19.812c.5471-4.3506-.2204-8.592-2.5-10.875l-24.406-24.406c-2.5837-2.5837-5.9854-3.8542-9.4376-3.9062z" fill="url(#linearGradient5921)" fill-rule="evenodd"/>
  </clipPath>
  <filter id="filter5977">
   <feGaussianBlur stdDeviation="0.27275091"/>
  </filter>
  <clipPath id="clipPath5983">
   <path d="m1054.4-343.22c-2.6849-.04048-5.3864.66479-7.7187 2-3.328 1.9052-5.1499 5.5813-6.4687 9.3438-8.6516.42447-19.675 2.7017-27.219 15.719l-9.6875 20.938h.0937c-.0626.10604-.1253.20514-.1874.3125l58.5 29.062h14.125c7.7637 1e-5 12.466-8.1381 13.375-15.875h.0312v-.1875c.0335-.30506.041-.60314.0625-.90625l.0313-.25c.0232-.38617.0589-.77568.0624-1.1562l1.3438-19.812c.5471-4.3506-.2204-8.592-2.5-10.875l-24.406-24.406c-2.5837-2.5837-5.9854-3.8542-9.4376-3.9062z" fill="url(#linearGradient5921)" fill-rule="evenodd"/>
  </clipPath>
  <filter id="filter6035">
   <feGaussianBlur stdDeviation="1.0516022"/>
  </filter>
  <linearGradient id="linearGradient6054" x1="1320.7" x2="1380.6" y1="-304.53" y2="-304.53" gradientTransform="matrix(.93997 -.34126 .34126 .93997 -245.88 186.61)" gradientUnits="userSpaceOnUse" xlink:href="#linearGradient5595"/>
  <clipPath id="clipPath6050">
   <path d="m926.54-604.18c-2.5375.87821-4.8362 2.4631-6.5728 4.514-2.478 2.9265-2.936 7.0037-2.8917 10.99-7.9874 3.3515-17.572 9.2538-20.221 24.064l-1.9607 22.987.08808-.03196c-.02265.12103-.04777.23558-.06951.35769l64.906 7.3539 13.277-4.8204c7.2976-2.6494 8.9402-11.904 7.1545-19.486l.02933-.01065-.06399-.17624c-.07261-.29818-.16729-.58093-.25052-.87318l-.05589-.24567c-.10998-.37091-.20935-.74922-.33594-1.1081l-5.4982-19.082c-.97043-4.2761-3.1393-8.001-6.0612-9.369l-31.27-14.612c-3.3103-1.5468-6.9414-1.5802-10.204-.45105z" fill="url(#linearGradient6054)" fill-rule="evenodd"/>
  </clipPath>
  <filter id="filter6072">
   <feGaussianBlur stdDeviation="0.083138439"/>
  </filter>
  <filter id="filter6198" x="-.11233" y="-.22652" width="1.2247" height="1.453">
   <feGaussianBlur stdDeviation="0.4135875"/>
  </filter>
  <filter id="filter6637">
   <feGaussianBlur stdDeviation="0.77462889"/>
  </filter>
  <clipPath id="clipPath6641">
   <path transform="matrix(1.0731 0 -2.0618e-5 1.0737 -111.42 18.59)" d="m1549.5-264.5a24.75 24.75 0 11-49.5 0 24.75 24.75 0 1149.5 0z" fill="none" stroke="#000" stroke-linecap="round" stroke-linejoin="round" stroke-width="3.5401"/>
  </clipPath>
  <filter id="filter6959" x="-.10593" y="-.14073" width="1.2119" height="1.2815">
   <feGaussianBlur stdDeviation="3.802569"/>
  </filter>
  <linearGradient id="linearGradient6969" x1="1342.2" x2="1379.2" y1="-271.97" y2="-258.92" gradientTransform="translate(-445.13)" gradientUnits="userSpaceOnUse" spreadMethod="reflect" xlink:href="#linearGradient5595"/>
  <clipPath id="clipPath6965">
   <path d="m919.49-293.5c-12.601 0-23.183 6.5728-27.625 16l-7.1562 14.5-1.9063 4.2812c-1.0499 3.0176-1.5614 6.2359-1.4375 9.5938.6188 16.767 16.806 30.375 36.125 30.375 18.395 0 33.02-12.345 33.844-28l.0312-.8125v-18.969c-.001-.03161.0012-.06212 0-.09375-.5459-14.835-14.832-26.875-31.875-26.875z" fill="url(#linearGradient6969)"/>
  </clipPath>
  <linearGradient id="linearGradient7005" x1="1342.2" x2="1379.2" y1="-271.97" y2="-258.92" gradientTransform="matrix(.89707 -.4419 .4419 .89707 -319.7 157.48)" gradientUnits="userSpaceOnUse" spreadMethod="reflect" xlink:href="#linearGradient5595"/>
  <clipPath id="clipPath7001">
   <path d="m774.76-708.83c-11.304 5.5685-17.892 16.141-17.711 26.56l-.0121 16.17.18178 4.683c.39166 3.171 1.3549 6.284 2.9499 9.2415 7.9644 14.768 28.499 19.822 45.829 11.285 16.501-8.1286 24.166-25.666 17.987-40.073l-.33105-.74266-8.3822-17.016c-.01486-.02791-.02637-.05626-.04143-.0841-7.0452-13.067-25.181-17.554-40.47-10.023z" fill="url(#linearGradient7005)"/>
  </clipPath>
  <filter id="filter7023">
   <feGaussianBlur stdDeviation="0.60163542"/>
  </filter>
  <filter id="filter7256" x="-.1955" y="-.091377" width="1.391" height="1.1828">
   <feGaussianBlur stdDeviation="0.90989293"/>
  </filter>
  <linearGradient id="linearGradient7266" x1="1320.7" x2="1395.6" y1="-304.53" y2="-307.28" gradientTransform="matrix(.99069 0 0 .98915 -304.41 -2.797)" gradientUnits="userSpaceOnUse" xlink:href="#linearGradient5595"/>
  <clipPath id="clipPath7262">
   <path d="m1054.7-342.29c-2.6599-.04004-5.3362.65757-7.6468 1.9783-3.297 1.8845-5.102 5.5208-6.4085 9.2424-8.5711.41986-19.492 2.6724-26.965 15.548l-9.5973 20.71h.0928c-.062.10489-.1241.20292-.1857.30911l57.956 28.747h13.994c7.6914 1e-5 12.35-8.0498 13.25-15.703h.031v-.18546c.0331-.30175.0406-.5966.0619-.89642l.031-.24729c.023-.38198.0583-.76726.0618-1.1437l1.3313-19.597c.542-4.3034-.2184-8.4988-2.4767-10.757l-24.179-24.141c-2.5597-2.5556-5.9297-3.8124-9.3498-3.8639z" fill="url(#linearGradient7266)" fill-rule="evenodd"/>
  </clipPath>
  <filter id="filter7328">
   <feGaussianBlur stdDeviation="0.37286051"/>
  </filter>
  <filter id="filter7845">
   <feGaussianBlur stdDeviation="0.26782521"/>
  </filter>
  <filter id="filter7958">
   <feGaussianBlur stdDeviation="0.37171029"/>
  </filter>
  <filter id="filter8002" x="-.041083" y="-.10221" width="1.0822" height="1.2044">
   <feGaussianBlur stdDeviation="0.81845238"/>
  </filter>
  <radialGradient id="radialGradient9002" cx="1524.2" cy="-260.48" r="24.75" fx="1521.6" fy="-250.72" gradientTransform="matrix(1.3105 .1241 -.054104 1.689 -487.04 -8.4188)" gradientUnits="userSpaceOnUse" xlink:href="#linearGradient7488"/>
  <clipPath id="clipPath8998">
   <path transform="matrix(1.1054 0 .035409 .95943 -810.11 3.5392)" d="m1549.5-264.5a24.75 24.75 0 11-49.5 0 24.75 24.75 0 1149.5 0z" fill="url(#radialGradient9002)"/>
  </clipPath>
  <filter id="filter10253" x="-.16129" y="-.16124" width="1.3226" height="1.3225">
   <feGaussianBlur stdDeviation="0.98542663"/>
  </filter>
  <linearGradient id="linearGradient10263" x1="1587.5" x2="1626.3" y1="-287.56" y2="-275.46" gradientTransform="matrix(.85342 .050232 -.047704 .91274 -73.971 -100.06)" gradientUnits="userSpaceOnUse" spreadMethod="reflect" xlink:href="#linearGradient9182"/>
  <clipPath id="clipPath10259">
   <path d="m1294.6-283.29s6.9797-5.0262 13.955-4.6157c7.7808.45797 13.258 6.4703 13.258 6.4703l-8.2071 7.7358s-2.3698-2.1626-5.3097-2.4621c-2.9401-.29949-6.4502 1.2641-6.4502 1.2641l-7.246-8.3925z" fill="url(#linearGradient10263)" fill-rule="evenodd"/>
  </clipPath>
  <radialGradient id="radialGradient10965" cx="64" cy="122" r="64" fx="23.043" gradientTransform="matrix(1 0 0 .09375 0 110.56)" gradientUnits="userSpaceOnUse" xlink:href="#linearGradient10959"/>
  <linearGradient id="linearGradient2724" x1="1342.2" x2="1379.2" y1="-271.97" y2="-258.92" gradientTransform="matrix(-.24944 -.015366 -.015122 .25345 421.16 124.52)" gradientUnits="userSpaceOnUse" spreadMethod="reflect" xlink:href="#linearGradient5595"/>
  <linearGradient id="linearGradient2726" x1="758.88" x2="765.16" y1="-688.43" y2="-688.52" gradientUnits="userSpaceOnUse" xlink:href="#linearGradient5991"/>
  <linearGradient id="linearGradient2728" x1="1006.9" x2="1021.9" y1="-277.2" y2="-277.29" gradientUnits="userSpaceOnUse" xlink:href="#linearGradient9015" spreadMethod="reflect"/>
  <linearGradient id="linearGradient2736" x1="1320.7" x2="1395.6" y1="-304.53" y2="-307.28" gradientTransform="matrix(.62861 -.034784 .034865 .62715 -812.72 299.32)" gradientUnits="userSpaceOnUse" xlink:href="#linearGradient5595"/>
  <linearGradient id="linearGradient2738" x1="924.29" x2="940.11" y1="-593.1" y2="-593.1" gradientUnits="userSpaceOnUse" xlink:href="#linearGradient5991"/>
  <linearGradient id="linearGradient2740" x1="1050.3" x2="1053.8" y1="-359.13" y2="-304.63" gradientUnits="userSpaceOnUse" xlink:href="#linearGradient9015"/>
  <linearGradient id="linearGradient2742" x1="1308" x2="1315.7" y1="-275" y2="-297.2" gradientUnits="userSpaceOnUse" xlink:href="#linearGradient5595"/>
  <radialGradient id="radialGradient2746" cx="1039.5" cy="-288.62" r="43.099" fx="1057.8" fy="-298.02" gradientTransform="matrix(.40669 .34072 -.2269 .26957 -458.07 -206.6)" gradientUnits="userSpaceOnUse">
   <stop offset="0"/>
   <stop stop-opacity="0" offset="1"/>
  </radialGradient>
  <linearGradient id="linearGradient2748" x1="1143.4" x2="1150.2" y1="-320.31" y2="-265.86" gradientUnits="userSpaceOnUse" xlink:href="#linearGradient10959"/>
  <linearGradient id="linearGradient2754" x1="1043.1" x2="1024.2" y1="-326.56" y2="-321.84" gradientUnits="userSpaceOnUse" xlink:href="#linearGradient10959"/>
  <radialGradient id="radialGradient2756" cx="1058" cy="-345.89" r="11.965" gradientTransform="matrix(1 0 0 .46555 .28033 -180.87)" gradientUnits="userSpaceOnUse" xlink:href="#linearGradient9015"/>
  <linearGradient id="linearGradient2758" x1="1040.7" x2="1051.4" y1="-346.51" y2="-306.53" gradientUnits="userSpaceOnUse" xlink:href="#linearGradient10959"/>
  <radialGradient id="radialGradient2760" cx="1041.8" cy="-325.97" r="5.6265" gradientTransform="matrix(1.2777 .022216 -.0069657 .40061 -291.86 -217.51)" gradientUnits="userSpaceOnUse" xlink:href="#linearGradient9015"/>
  <linearGradient id="linearGradient2762" x1="990.33" x2="1000.7" y1="-289.28" y2="-309.96" gradientTransform="translate(.25 .25)" gradientUnits="userSpaceOnUse" xlink:href="#linearGradient10959"/>
  <linearGradient id="linearGradient2764" x1="1320.7" x2="1395.6" y1="-304.53" y2="-307.28" gradientTransform="matrix(-1 0 0 1 2302.4 36.5)" gradientUnits="userSpaceOnUse" xlink:href="#linearGradient5595"/>
  <linearGradient id="linearGradient2780" x1="1044.4" x2="1029.3" y1="-328.56" y2="-323.61" gradientUnits="userSpaceOnUse" xlink:href="#linearGradient10959"/>
  <radialGradient id="radialGradient2786" cx="1041.8" cy="-325.97" r="5.6265" gradientTransform="matrix(1.3444 0 0 .40067 -359.14 -194.32)" gradientUnits="userSpaceOnUse" xlink:href="#linearGradient9015"/>
  <linearGradient id="linearGradient2788" x1="1587.5" x2="1626.3" y1="-287.56" y2="-275.46" gradientTransform="matrix(.63335 0 0 .63187 -951.89 230.2)" gradientUnits="userSpaceOnUse" spreadMethod="reflect" xlink:href="#linearGradient9182"/>
  <linearGradient id="linearGradient2790" x1="1342.2" x2="1379.2" y1="-271.97" y2="-258.92" gradientTransform="translate(-356.38)" gradientUnits="userSpaceOnUse" spreadMethod="reflect" xlink:href="#linearGradient5595"/>
  <radialGradient id="radialGradient2794" cx="1523.9" cy="-239.08" r="25.379" fx="1530.7" fy="-239.92" gradientTransform="matrix(1.5767 -.34694 .23734 1.1836 -822.12 572.61)" gradientUnits="userSpaceOnUse" xlink:href="#linearGradient9015"/>
  <radialGradient id="radialGradient2796" cx="1523.9" cy="-239.08" r="25.379" fx="1520.8" fy="-241.94" gradientTransform="matrix(1.5767 -.34694 .23734 1.1836 -822.12 572.61)" gradientUnits="userSpaceOnUse" xlink:href="#linearGradient10959"/>
  <linearGradient id="linearGradient2802" x1="1514.1" x2="1527.5" y1="-288.7" y2="-257.33" gradientUnits="userSpaceOnUse" xlink:href="#linearGradient9015"/>
  <radialGradient id="radialGradient2804" cx="1005.1" cy="-231.96" r="19.922" fx="1003.9" fy="-217.38" gradientTransform="matrix(.99834 .057597 -.029412 .5098 -5.1539 -171.6)" gradientUnits="userSpaceOnUse" xlink:href="#linearGradient7974"/>
  <linearGradient id="linearGradient2806" x1="1191" x2="1218.4" y1="-239.69" y2="-239.69" gradientTransform="translate(-184.75 -8.5938)" gradientUnits="userSpaceOnUse" spreadMethod="reflect" xlink:href="#linearGradient7866"/>
  <radialGradient id="radialGradient2810" cx="1029.2" cy="-242.68" r="4.9718" fx="1028.6" fy="-244.89" gradientUnits="userSpaceOnUse" xlink:href="#linearGradient7964"/>
  <linearGradient id="linearGradient2812" x1="941.54" x2="905.31" y1="-297.18" y2="-260.96" gradientTransform="translate(90.234)" gradientUnits="userSpaceOnUse" xlink:href="#linearGradient9015"/>
  <linearGradient id="linearGradient2814" x1="1342.2" x2="1379.2" y1="-271.97" y2="-258.92" gradientTransform="matrix(-.62843 -.03801 -.038098 .62696 952.11 294.35)" gradientUnits="userSpaceOnUse" spreadMethod="reflect" xlink:href="#linearGradient5595"/>
  <radialGradient id="radialGradient2818" cx="1523.9" cy="-239.08" r="25.379" fx="1517.7" fy="-243.73" gradientTransform="matrix(1.5767 -.34694 .23734 1.1836 -822.12 572.61)" gradientUnits="userSpaceOnUse" xlink:href="#linearGradient9015"/>
  <radialGradient id="radialGradient2820" cx="1514" cy="-242.04" r="25.379" fx="1510.8" fy="-244.91" gradientTransform="matrix(1.5767 -.34694 .23734 1.1836 -822.12 572.61)" gradientUnits="userSpaceOnUse" xlink:href="#linearGradient10959"/>
  <linearGradient id="linearGradient2826" x1="1531.7" x2="1516.6" y1="-294.2" y2="-258.55" gradientUnits="userSpaceOnUse" xlink:href="#linearGradient9015"/>
  <radialGradient id="radialGradient2828" cx="1005.1" cy="-231.96" r="19.922" fx="1003.9" fy="-217.38" gradientTransform="matrix(1 0 0 .54412 0 -105.75)" gradientUnits="userSpaceOnUse" xlink:href="#linearGradient7974"/>
  <linearGradient id="linearGradient2836" x1="871.22" x2="922.89" y1="-296.4" y2="-253.66" gradientTransform="matrix(-.62843 -.03801 -.038098 .62696 671.45 277.38)" gradientUnits="userSpaceOnUse" xlink:href="#linearGradient9015"/>
  <linearGradient id="linearGradient2838" x1="1303.7" x2="1317.4" y1="-279.2" y2="-290.21" gradientUnits="userSpaceOnUse">
   <stop offset="0"/>
   <stop stop-opacity="0" offset="1"/>
  </linearGradient>
  <linearGradient id="linearGradient2840" x1="1069.7" x2="1075.2" y1="-301.57" y2="-301.57" gradientTransform="matrix(.78467 0 -.0086396 .5282 -782.58 211.76)" gradientUnits="userSpaceOnUse" spreadMethod="reflect" xlink:href="#linearGradient9182"/>
  <linearGradient id="linearGradient2842" x1="1587.5" x2="1603.3" y1="-287.56" y2="-287.56" gradientTransform="matrix(.78467 0 0 .78284 -1194.7 282.26)" gradientUnits="userSpaceOnUse" spreadMethod="reflect" xlink:href="#linearGradient9182"/>
  <linearGradient id="linearGradient2844" x1="1308" x2="1311.5" y1="-275" y2="-291.92" gradientUnits="userSpaceOnUse" xlink:href="#linearGradient5595"/>
  <linearGradient id="linearGradient2846" x1="1074.8" x2="1079" y1="-311.69" y2="-302.51" gradientTransform="matrix(.78467 0 0 .78284 -780.29 287.77)" gradientUnits="userSpaceOnUse">
   <stop offset="0"/>
   <stop stop-opacity="0" offset="1"/>
  </linearGradient>
  <linearGradient id="linearGradient2852" x1="1303" x2="1307.9" y1="-275.4" y2="-280.13" gradientUnits="userSpaceOnUse">
   <stop offset="0"/>
   <stop stop-opacity="0" offset="1"/>
  </linearGradient>
  <filter id="filter3606">
   <feGaussianBlur stdDeviation="0.50964986"/>
  </filter>
 </defs>
 <g transform="translate(.85253 -30.839)">
  <path d="m-106.39 44.124v-2.7947 2.7947z" fill="#fff" fill-opacity=".75688"/>
  <path transform="translate(-.85253 30.839)" d="m128 122a64 6 0 11-128 0 64 6 0 11128 0z" fill="url(#radialGradient10965)" opacity=".12821"/>
  <path transform="matrix(-1 0 0 1 127.15 30.839)" d="m128 122a64 6 0 11-128 0 64 6 0 11128 0z" fill="url(#radialGradient10965)" opacity=".12821"/>
  <g transform="matrix(.99896 0 0 .96501 -.79916 32.803)">
   <g transform="matrix(-1.0023 0 0 1 125.81 1.9754)">
    <g>
     <path d="m85.21 29.166c3.1432.19363 5.6834 2.0221 6.6487 4.4797l1.5657 3.785.41076 1.1144c.21625.78097.29517 1.6045.21348 2.4537-.4079 4.2402-4.6514 7.4404-9.4702 7.1436-4.5883-.28265-8.0496-3.6364-8.0184-7.6167l.00451-.20642.28684-4.8077c.00073-.007997.00064-.015763.00142-.023762.3605-3.7516 4.106-6.5837 8.3572-6.3218z" fill="url(#linearGradient2724)"/>
     <rect transform="matrix(-.23044 .098216 .096659 .23415 332.26 119.05)" x="758.11" y="-703.21" width="7.9258" height="28.853" ry="0" clip-path="url(#clipPath7001)" fill="url(#linearGradient2726)" filter="url(#filter7023)" opacity=".56777"/>
     <path transform="matrix(-.35272 -.021728 -.029857 .31036 615.22 155.68)" d="m1549.5-264.5a24.75 24.75 0 11-49.5 0 24.75 24.75 0 1149.5 0z" fill="#312f30"/>
     <path transform="matrix(-.32823 -.02022 -.027774 .28865 578.44 147.8)" d="m1549.5-264.5a24.75 24.75 0 11-49.5 0 24.75 24.75 0 1149.5 0z" clip-path="url(#clipPath6641)" filter="url(#filter6637)" stroke="#000" stroke-linecap="round" stroke-linejoin="round" stroke-width="3.1006"/>
    </g>
    <path transform="matrix(-.25133 -.013787 -.016107 .27864 333.81 124.48)" d="m1021.2-275.25c-5.975-4.1368-21.075-5.4231-28.75-2.5" fill="none" filter="url(#filter7845)" stroke="url(#linearGradient2728)" stroke-width="1.3305"/>
   </g>
   <g transform="matrix(1.0023 0 0 1 1.762 2.1484)">
    <g>
     <path d="m85.21 29.166c3.1432.19363 5.6834 2.0221 6.6487 4.4797l1.5657 3.785.41076 1.1144c.21625.78097.29517 1.6045.21348 2.4537-.4079 4.2402-4.6514 7.4404-9.4702 7.1436-4.5883-.28265-8.0496-3.6364-8.0184-7.6167l.00451-.20642.28684-4.8077c.00073-.007997.00064-.015763.00142-.023762.3605-3.7516 4.106-6.5837 8.3572-6.3218z" fill="url(#linearGradient2724)"/>
     <rect transform="matrix(-.23044 .098216 .096659 .23415 332.26 119.05)" x="758.11" y="-703.21" width="7.9258" height="28.853" ry="0" clip-path="url(#clipPath7001)" fill="url(#linearGradient2726)" filter="url(#filter7023)" opacity=".56777"/>
     <path transform="matrix(-.35272 -.021728 -.029857 .31036 615.22 155.68)" d="m1549.5-264.5a24.75 24.75 0 11-49.5 0 24.75 24.75 0 1149.5 0z" fill="#312f30"/>
     <path transform="matrix(-.32823 -.02022 -.027774 .28865 578.44 147.8)" d="m1549.5-264.5a24.75 24.75 0 11-49.5 0 24.75 24.75 0 1149.5 0z" clip-path="url(#clipPath6641)" filter="url(#filter6637)" stroke="#000" stroke-linecap="round" stroke-linejoin="round" stroke-width="3.1006"/>
    </g>
    <path transform="matrix(-.25133 -.013787 -.016107 .27864 333.81 124.48)" d="m1021.2-275.25c-5.975-4.1368-21.075-5.4231-28.75-2.5" fill="none" filter="url(#filter7845)" stroke="url(#linearGradient2728)" stroke-width="1.3305"/>
   </g>
   <g>
    <path d="m37.707 36.355c-1.6892.068006-3.3628.60428-4.7823 1.5228-2.0256 1.3106-3.0427 3.6795-3.7405 6.0849-5.4238.56715-12.274 2.3787-16.562 10.805l-5.3597 13.468.058897-.00326c-.035653.068684-.071614.13302-.10691.2025l37.787 16.192 8.8791-.49132c4.8804-.27005 7.5524-5.5374 7.8542-10.421l.019581-.001087-.006548-.11759c.010451-.19248.004785-.37968.00768-.57053l.010955-.15788c.001134-.24299.01001-.48852-.001071-.72731l.154-12.472c.19221-2.7475-.43812-5.3808-1.9507-6.7333l-16.193-14.457c-1.7142-1.5305-3.8968-2.209-6.0688-2.1215z" fill="url(#linearGradient2736)" fill-rule="evenodd"/>
    <rect transform="matrix(.60277 .18133 -.18175 .60137 -630.6 231.69)" x="924.42" y="-612.9" width="15.556" height="39.598" clip-path="url(#clipPath6050)" fill="url(#linearGradient2738)" filter="url(#filter6035)" opacity=".7326"/>
    <path d="m44.95 84.62 8.8899-.49192c7.8711-.43554 10.034-13.846 5.6967-17.725l-17.91-15.99c-3.3708-3.0096-8.4299-2.9827-12.019-.66049-2.2406 1.4497-3.354 4.078-4.1259 6.7388-5.9992.62732-13.574 2.6266-18.317 11.947l37.785 16.181z" fill="#3d3b3c" fill-rule="evenodd"/>
    <path transform="matrix(.62861 -.034784 .034865 .62715 -613.14 288.28)" d="m1049.3-326.31c-3.121-.04706-6.2577.7292-8.9687 2.2812-3.8685 2.2146-6.2168 6.0016-7.75 10.375-7.5939.37256-17.004 3.7254-24.813 11l-4.4687 7.4375c8.3388-14.119 20.438-16.596 29.938-17.062 1.4589-4.1617 3.4437-8.2364 7.125-10.344 5.8967-3.3758 13.919-2.9869 19 2.0938l27 27c2.6589 2.6629 3.4978 7.7308 2.6875 12.812.0577-.33334.1171-.66706.1563-1h.0312v-.1875c.0335-.30506.041-.60314.0625-.90625l.0313-.25c.0232-.38617.0591-.77568.0624-1.1562l.5626-7.7929c-.4313-.84136-.9435-1.5988-1.5626-2.2188l-28.094-27.582c-3.0032-3.0032-6.9873-4.4395-11-4.5zm35.094 56.25c-.3665.42403-.7492.81668-1.1562 1.1875.4071-.37038.7899-.76283 1.1562-1.1875zm-5.4062 3.7188c-.293.09401-.6019.15051-.9062.21875.3045-.06641.6131-.12651.9062-.21875zm-1.0625.28125c-.2978.06173-.5977.08907-.9063.125.3035-.0341.6133-.0659.9063-.125z" fill="url(#linearGradient2740)" fill-rule="evenodd" filter="url(#filter5622)"/>
   </g>
   <g transform="matrix(.62861 -.034784 .034865 .62715 -641.44 292.52)">
    <path transform="matrix(1.4082 0 0 1.3269 -724.5 90.279)" d="m1314.2-281.5a6.2336 6.2336 0 11-12.467 0 6.2336 6.2336 0 1112.467 0z" fill="#1f1f1f" filter="url(#filter5698)"/>
    <path transform="matrix(1.265 0 0 1.192 -537.19 53.17)" d="m1314.5-281.5a6.5 6.5 0 11-13 0 6.5 6.5 0 1113 0z" fill="url(#linearGradient2742)"/>
   </g>
   <g>
    <path transform="matrix(.7569 -.041883 .039559 .71157 -927.77 331.88)" d="m1314.1-281.5a6.1105 6.1105 0 11-12.221 0 6.1105 6.1105 0 1112.221 0z" fill="#3b3b3b" filter="url(#filter5698)"/>
    <path transform="matrix(.67993 -.037624 .035536 .63921 -828.19 306.41)" d="m1314.5-281.5a6.5 6.5 0 11-13 0 6.5 6.5 0 1113 0z" fill="url(#linearGradient2742)"/>
    <path d="m44.95 84.62 8.8899-.49192c7.8711-.43554 10.034-13.846 5.6967-17.725l-17.91-15.99c-3.3708-3.0096-8.4299-2.9827-12.019-.66049-2.2406 1.4497-3.354 4.078-4.1259 6.7388-5.9992.62732-13.574 2.6266-18.317 11.947l37.785 16.181z" fill="url(#radialGradient2746)" fill-rule="evenodd"/>
    <path transform="matrix(.62861 -.034784 .034865 .62715 -678.52 291.9)" d="m1152.9-323.81c-2.9195-.04402-5.8702.7044-8.4062 2.1562-3.6188 2.0716-5.5659 6.0651-7 10.156-9.4074.46155-21.391 2.9395-29.594 17.094l.8973.34467c7.8807-13.407 20.027-16.1 29.02-16.541 1.3786-3.9323 3.4484-7.79 6.9268-9.7812 5.5716-3.1897 13.137-2.447 17.937 2.3536l25.5 26.03c1.5803 1.9431 1.8311 26.156-10 26.156h1.125c12.309 1e-5 16.832-20.783 10.406-27.219l-26.531-26.531c-2.8093-2.8094-6.5275-4.1622-10.281-4.2188z" clip-path="url(#clipPath5757)" fill="url(#linearGradient2748)" fill-rule="evenodd" filter="url(#filter5753)" opacity=".82418"/>
    <rect transform="matrix(.77403 .63315 -.8117 .58407 0 0)" x="95.236" y="25.318" width="1.3015" height="6.2908"/>
   </g>
   <g transform="matrix(.62861 -.034784 .034865 .62715 -609.11 272.49)">
    <path transform="matrix(.23493 0 0 .22137 740.8 -231.72)" d="m1314.1-281.5a6.1105 6.1105 0 11-12.221 0 6.1105 6.1105 0 1112.221 0z" filter="url(#filter5698)"/>
    <path transform="matrix(.21104 0 0 .19886 772.04 -237.91)" d="m1314.5-281.5a6.5 6.5 0 11-13 0 6.5 6.5 0 1113 0z" fill="url(#linearGradient2742)"/>
    <rect transform="matrix(.73701 .67588 -.84221 .53916 0 0)" x="328.35" y="-957.89" width=".4037" height="1.9511"/>
   </g>
   <g transform="matrix(.62861 -.034784 .034865 .62715 -620.04 276.43)">
    <path transform="matrix(.23493 0 0 .22137 740.8 -231.72)" d="m1314.1-281.5a6.1105 6.1105 0 11-12.221 0 6.1105 6.1105 0 1112.221 0z" filter="url(#filter5698)"/>
    <path transform="matrix(.21104 0 0 .19886 772.04 -237.91)" d="m1314.5-281.5a6.5 6.5 0 11-13 0 6.5 6.5 0 1113 0z" fill="url(#linearGradient2742)"/>
    <rect transform="matrix(.73701 .67588 -.84221 .53916 0 0)" x="328.35" y="-957.89" width=".4037" height="1.9511"/>
   </g>
   <path transform="matrix(.62861 -.034784 .034865 .62715 -613.14 288.28)" d="m1040.1-331.88c-4.4841.2264-16.599 1.4724-19.781 7.1875l3.8437 10.781 8.9063 2.0938 7.0312-20.062z" clip-path="url(#clipPath5917)" fill="url(#linearGradient2754)" fill-rule="evenodd" filter="url(#filter5911)"/>
   <g fill="none">
    <path transform="matrix(.62861 -.034784 .034865 .62715 -613.14 288.28)" d="m1046.9-340.8c5.3474-3.0873 12.651-1.9894 16.276 1.6359l6.6162 6.5199" clip-path="url(#clipPath5983)" filter="url(#filter5977)" opacity=".7326" stroke="url(#radialGradient2756)" stroke-width="1px"/>
    <path transform="matrix(.63452 -.035111 .035248 .63403 -619.47 290.41)" d="m1088.2-312.41-24.406-24.406c-2.5837-2.5837-5.9854-3.8542-9.4376-3.9062-2.6849-.04048-5.3864.66479-7.7187 2-3.328 1.9052-5.1499 5.5813-6.4687 9.3438-8.6516.42447-20.113 2.7891-27.657 15.806" clip-path="url(#clipPath7262)" filter="url(#filter6072)" opacity=".58242" stroke="url(#linearGradient2758)" stroke-width=".59395"/>
    <path transform="matrix(.62861 -.034784 .034865 .62715 -613.14 288.28)" d="m1037.5-321.53c2.9969-3.0368 7.1114-4.6025 10.878-4.4288" filter="url(#filter6198)" stroke="url(#radialGradient2760)" stroke-width="1px"/>
    <path transform="matrix(.62861 -.034784 .034865 .62715 -601.12 277.55)" d="m999.92-306.62-10.607 19.799" filter="url(#filter7256)" stroke="url(#linearGradient2762)" stroke-width="1px"/>
   </g>
   <g transform="matrix(.62843 .03801 -.038098 .62696 -506.29 193.24)">
    <g>
     <path d="m930.46-306.72c2.6849-.04048 5.3864.66479 7.7187 2 3.328 1.9052 5.1499 5.5813 6.4687 9.3438 8.6516.42447 19.675 2.7017 27.219 15.719l9.6875 20.938h-.0937c.0626.10604.1253.20514.1874.3125l-58.5 29.062h-14.125c-7.7637 1e-5-12.466-8.1381-13.375-15.875h-.0312v-.1875c-.0335-.30506-.041-.60314-.0625-.90625l-.0313-.25c-.0232-.38617-.0589-.77568-.0624-1.1562l-1.3438-19.812c-.5471-4.3506.2204-8.592 2.5-10.875l24.406-24.406c2.5837-2.5837 5.9854-3.8542 9.4376-3.9062z" fill="url(#linearGradient2764)" fill-rule="evenodd"/>
     <rect transform="matrix(-.93997 .34126 .34126 .93997 2007.6 -55)" x="924.42" y="-612.9" width="15.556" height="39.598" clip-path="url(#clipPath6050)" fill="url(#linearGradient2738)" filter="url(#filter6035)" opacity=".7326"/>
     <path d="m923.22-229.36h-14.142c-12.521 0-17.134-21.128-10.597-27.674l26.994-26.994c5.0806-5.0806 13.106-5.4829 19.003-2.1071 3.6812 2.1074 5.6787 6.1876 7.1376 10.349 9.5696.4695 21.758 2.9813 30.103 17.38l-58.497 29.046z" fill="#3d3b3c" fill-rule="evenodd"/>
     <path transform="matrix(-1 0 0 1 1984.9 36.5)" d="m1049.3-326.31c-3.121-.04706-6.2577.7292-8.9687 2.2812-3.8685 2.2146-6.2168 6.0016-7.75 10.375-7.5939.37256-17.004 3.7254-24.813 11l-4.4687 7.4375c8.3388-14.119 20.438-16.596 29.938-17.062 1.4589-4.1617 3.4437-8.2364 7.125-10.344 5.8967-3.3758 13.919-2.9869 19 2.0938l27 27c2.6589 2.6629 3.4978 7.7308 2.6875 12.812.0577-.33334.1171-.66706.1563-1h.0312v-.1875c.0335-.30506.041-.60314.0625-.90625l.0313-.25c.0232-.38617.0591-.77568.0624-1.1562l.5626-7.7929c-.4313-.84136-.9435-1.5988-1.5626-2.2188l-28.094-27.582c-3.0032-3.0032-6.9873-4.4395-11-4.5zm35.094 56.25c-.3665.42403-.7492.81668-1.1562 1.1875.4071-.37038.7899-.76283 1.1562-1.1875zm-5.4062 3.7188c-.293.09401-.6019.15051-.9062.21875.3045-.06641.6131-.12651.9062-.21875zm-1.0625.28125c-.2978.06173-.5977.08907-.9063.125.3035-.0341.6133-.0659.9063-.125z" fill="url(#linearGradient2740)" fill-rule="evenodd" filter="url(#filter5622)"/>
    </g>
    <g transform="translate(-204.63 40.743)">
     <path transform="matrix(1.4082 0 0 1.3269 -724.5 90.279)" d="m1314.2-281.5a6.2336 6.2336 0 11-12.467 0 6.2336 6.2336 0 1112.467 0z" fill="#1f1f1f" filter="url(#filter5698)"/>
     <path transform="matrix(1.265 0 0 1.192 -537.19 53.17)" d="m1314.5-281.5a6.5 6.5 0 11-13 0 6.5 6.5 0 1113 0z" fill="url(#linearGradient2742)"/>
    </g>
    <g>
     <path transform="matrix(1.2041 0 0 1.1346 -662.2 78.137)" d="m1314.1-281.5a6.1105 6.1105 0 11-12.221 0 6.1105 6.1105 0 1112.221 0z" fill="#3b3b3b" filter="url(#filter5698)"/>
     <path transform="matrix(1.0816 0 0 1.0192 -502.03 46.406)" d="m1314.5-281.5a6.5 6.5 0 11-13 0 6.5 6.5 0 1113 0z" fill="url(#linearGradient2742)"/>
     <path transform="matrix(-1 0 0 1 2088.9 36.5)" d="m1152.9-323.81c-2.9195-.04402-5.8702.7044-8.4062 2.1562-3.6188 2.0716-5.5659 6.0651-7 10.156-9.4074.46155-21.391 2.9395-29.594 17.094l.8973.34467c7.8807-13.407 20.027-16.1 29.02-16.541 1.3786-3.9323 3.4484-7.79 6.9268-9.7812 5.5716-3.1897 13.137-2.447 17.937 2.3536l25.5 26.03c1.5803 1.9431 1.8311 26.156-10 26.156h1.125c12.309 1e-5 16.832-20.783 10.406-27.219l-26.531-26.531c-2.8093-2.8094-6.5275-4.1622-10.281-4.2188z" clip-path="url(#clipPath5757)" fill="url(#linearGradient2748)" fill-rule="evenodd" filter="url(#filter5753)" opacity=".82418"/>
     <rect transform="matrix(.73701 .67588 -.84221 .53916 0 0)" x="298.59" y="-826.48" width="2.0691" height="10"/>
    </g>
    <g transform="matrix(-1 0 0 1 1977.1 11.751)">
     <path transform="matrix(.23493 0 0 .22137 740.8 -231.72)" d="m1314.1-281.5a6.1105 6.1105 0 11-12.221 0 6.1105 6.1105 0 1112.221 0z" filter="url(#filter5698)"/>
     <path transform="matrix(.21104 0 0 .19886 772.04 -237.91)" d="m1314.5-281.5a6.5 6.5 0 11-13 0 6.5 6.5 0 1113 0z" fill="url(#linearGradient2742)"/>
     <rect transform="matrix(.73701 .67588 -.84221 .53916 0 0)" x="328.35" y="-957.89" width=".4037" height="1.9511"/>
    </g>
    <g transform="matrix(-1 0 0 1 1994.8 17.055)">
     <path transform="matrix(.23493 0 0 .22137 740.8 -231.72)" d="m1314.1-281.5a6.1105 6.1105 0 11-12.221 0 6.1105 6.1105 0 1112.221 0z" filter="url(#filter5698)"/>
     <path transform="matrix(.21104 0 0 .19886 772.04 -237.91)" d="m1314.5-281.5a6.5 6.5 0 11-13 0 6.5 6.5 0 1113 0z" fill="url(#linearGradient2742)"/>
     <rect transform="matrix(.73701 .67588 -.84221 .53916 0 0)" x="328.35" y="-957.89" width=".4037" height="1.9511"/>
    </g>
    <path transform="matrix(-1 0 0 1 1984.9 36.5)" d="m1040.1-331.88c-4.4841.2264-9.5988.97243-14.531 3.4375l-.6563 1.7812 8.1563 14.844 7.0312-20.062z" clip-path="url(#clipPath5917)" fill="url(#linearGradient2780)" fill-rule="evenodd" filter="url(#filter5911)"/>
    <g fill="none">
     <path transform="matrix(-1 0 0 1 1984.9 36.5)" d="m1046.9-340.8c5.3474-3.0873 12.651-1.9894 16.276 1.6359l6.6162 6.5199" clip-path="url(#clipPath5983)" filter="url(#filter5977)" opacity=".7326" stroke="url(#radialGradient2756)" stroke-width="1px"/>
     <path transform="matrix(-1.0094 0 0 1.011 1995.1 39.328)" d="m1088.2-312.41-24.406-24.406c-2.5837-2.5837-5.9854-3.8542-9.4376-3.9062-2.6849-.04048-5.3864.66479-7.7187 2-3.328 1.9052-5.1499 5.5813-6.4687 9.3438-8.6516.42447-19.675 2.7017-27.219 15.719" filter="url(#filter6072)" opacity=".58242" stroke="url(#linearGradient2758)" stroke-width=".59395"/>
     <path transform="matrix(-1 0 0 1 1984.9 36.5)" d="m1037.5-321.53c2.9969-3.0368 7.1114-4.6025 10.878-4.4288" filter="url(#filter6198)" stroke="url(#radialGradient2786)" stroke-width="1px"/>
    </g>
   </g>
   <path d="m53.569 48.146s4.9696-3.7524 10.146-3.7524c5.7744 0 10.059 3.927 10.059 3.927l-5.773 5.6723s-1.8369-1.3963-4.0236-1.4835c-2.1868-.087263-4.7233 1.1345-4.7233 1.1345l-5.6856-5.4978z" fill="url(#linearGradient2788)" fill-rule="evenodd"/>
   <g transform="matrix(.62861 -.034784 .034865 .62715 -601.12 277.55)">
    <g>
     <path d="m1008.2-293.5c-12.601 0-23.183 6.5728-27.625 16l-7.1562 14.5-1.9063 4.2812c-1.0499 3.0176-1.5614 6.2359-1.4375 9.5938.6188 16.767 16.806 30.375 36.125 30.375 18.395 0 33.02-12.345 33.844-28l.0312-.8125v-18.969c-.001-.03161.0012-.06212 0-.09375-.5459-14.835-14.832-26.875-31.875-26.875z" fill="url(#linearGradient2790)"/>
     <rect transform="matrix(.89707 .4419 -.4419 .89707 0 0)" x="758.11" y="-703.21" width="7.9258" height="28.853" ry="0" clip-path="url(#clipPath7001)" fill="url(#linearGradient2726)" filter="url(#filter7023)" opacity=".56777"/>
     <path transform="matrix(1.4141 0 .045294 1.2273 -1139 75.489)" d="m1549.5-264.5a24.75 24.75 0 11-49.5 0 24.75 24.75 0 1149.5 0z" fill="#312f30"/>
    </g>
    <path transform="matrix(1.3159 0 .04215 1.1414 -990.15 53.404)" d="m1549.5-264.5a24.75 24.75 0 11-49.5 0 24.75 24.75 0 1149.5 0z" clip-path="url(#clipPath6641)" fill="none" filter="url(#filter6637)" stroke="#000" stroke-linecap="round" stroke-linejoin="round" stroke-width="3.1006"/>
    <g>
     <path transform="translate(88.9 -.1)" d="m913.25-314.25c-6.3437 0-21.674 13.424-10.469 25.281 19.695-4.2016 40.209 18.327 49.219 33.719l11.125-5.5312c14.999 3.9684 2.7512-14.062 2.75-14.094-.54593-14.835-35.582-39.375-52.625-39.375z" clip-path="url(#clipPath6965)" filter="url(#filter6959)" opacity=".71062"/>
     <path transform="matrix(1.2046 0 .038584 1.0455 -821.34 29.898)" d="m1524.8-289.88c-14.002 0-25.375 11.373-25.375 25.375s11.373 25.375 25.375 25.375 25.375-11.373 25.375-25.375-11.373-25.375-25.375-25.375zm0 1.25c13.322 0 24.125 10.803 24.125 24.125s-10.907 22.772-24.228 22.772-24.022-9.4504-24.022-22.772 10.803-24.125 24.125-24.125z" fill="url(#radialGradient2794)" filter="url(#filter7328)"/>
     <path transform="matrix(1.1644 0 .037298 1.0106 -760.48 19.801)" d="m1524.8-289.88c-14.002 0-25.375 11.373-25.375 25.375s11.373 25.375 25.375 25.375 25.375-11.373 25.375-25.375-11.373-25.375-25.375-25.375zm0 1.25c13.322 0 24.125 10.803 24.125 24.125s-11.138 18.137-24.46 18.137-23.79-4.8151-23.79-18.137 10.803-24.125 24.125-24.125z" fill="url(#radialGradient2796)"/>
    </g>
    <path transform="matrix(1.0072 .006665 -.0020689 1.0993 -7.4728 20.969)" d="m1021.2-275.25c-5.975-4.1368-21.075-5.4231-28.75-2.5" fill="none" filter="url(#filter7845)" stroke="url(#linearGradient2728)" stroke-width="1.3305"/>
    <path transform="matrix(1.1054 0 .035409 .95943 -671.05 3.5392)" d="m1549.5-264.5a24.75 24.75 0 11-49.5 0 24.75 24.75 0 1149.5 0z"/>
    <path transform="matrix(1.1054 0 .035409 .95943 -671.05 3.5392)" d="m1549.5-264.5a24.75 24.75 0 11-49.5 0 24.75 24.75 0 1149.5 0z" fill="url(#radialGradient9002)"/>
    <path transform="matrix(1.1439 0 .036641 .99291 -729.37 12.671)" d="m1549.5-264.5a24.75 24.75 0 11-49.5 0 24.75 24.75 0 1149.5 0z" fill="none" stroke="url(#linearGradient2802)" stroke-linecap="round" stroke-linejoin="round" stroke-width="1.0031"/>
    <path d="m1025-231.96a19.922 8.0078 0 11-39.844 0 19.922 8.0078 0 1139.844 0z" fill="url(#radialGradient2804)" filter="url(#filter8002)"/>
    <g transform="translate(138.99)" clip-path="url(#clipPath8998)">
     <path transform="matrix(.95567 0 0 .95567 -96.02 -10.419)" d="m979.03-261.5c-.0814.87937-.1271 1.7819-.0937 2.6875.4838 13.108 13.147 23.75 28.25 23.75 15.103 0 26.952-10.642 26.469-23.75-.0151-.40962-.0239-.81421-.0624-1.2188-1.114 11.834-11.968 22.234-26.016 22.234-14.631-1e-5-27.351-11.162-28.547-23.703z" fill="url(#linearGradient2806)" filter="url(#filter7958)" opacity=".85714"/>
     <path transform="matrix(.95567 0 0 .95567 -93.285 -23.31)" d="m979.03-261.5c-.0814.87937-.1271 1.7819-.0937 2.6875.4838 13.108 13.147 23.75 28.25 23.75 15.103 0 26.952-10.642 26.469-23.75-.0151-.40962-.0239-.81421-.0624-1.2188-1.114 11.834-14.012 23.052-28.059 23.052-14.631-1e-5-25.307-11.98-26.503-24.521z" fill="url(#linearGradient2806)" filter="url(#filter7958)"/>
     <path transform="matrix(1.0246 0 0 1.0432 -162.62 -.39983)" d="m979.03-261.5c-.0814.87937-.1271 1.7819-.0937 2.6875.4838 13.108 12.204 23.353 27.306 23.353 15.103 1e-5 27.896-10.245 27.412-23.353-.0151-.40962-.0239-.81421-.0624-1.2188-1.114 11.834-10.008 23.052-28.059 23.052-14.631 0-25.307-11.98-26.503-24.521z" opacity=".37363"/>
    </g>
    <path transform="translate(-5.8005 -7.1816)" d="m1034.1-242.68a4.9718 4.9718 0 11-9.9437 0 4.9718 4.9718 0 119.9437 0z" fill="url(#radialGradient2810)"/>
    <path d="m1003.9-273.97c-8.9847 0-16.85 3.7523-21.625 9.5625 2.9716 6.218 12.276 10.75 23.25 10.75 9.8905 0 18.396-3.657 22.156-8.9375-5.0599-6.824-13.896-11.375-23.781-11.375z" fill="url(#linearGradient2812)"/>
   </g>
   <g>
    <path transform="matrix(-.62843 -.03801 -.038098 .62696 672.29 277.37)" d="m913.25-314.25c-6.3437 0-21.674 13.424-10.469 25.281 19.695-4.2016 40.209 18.327 49.219 33.719l11.125-5.5312c14.999 3.9684 2.7512-14.062 2.75-14.094-.54593-14.835-35.582-39.375-52.625-39.375z" clip-path="url(#clipPath6965)" filter="url(#filter6959)" opacity=".71062"/>
    <path d="m105.73 58.472c7.919.47897 14.319 5.0021 16.751 11.081l3.9447 9.3629 1.0349 2.7566c.54482 1.9319.74365 3.969.53786 6.0696-1.0277 10.489-11.719 18.405-23.859 17.671-11.56-.69918-20.28-8.9952-20.202-18.841l.011348-.51059.72268-11.893c.001832-.019781.001612-.038993.003571-.058778.90825-9.2802 10.345-16.286 21.055-15.638z" fill="url(#linearGradient2814)"/>
    <rect transform="matrix(-.58057 .24295 .24352 .57922 728.16 280.81)" x="758.11" y="-703.21" width="7.9258" height="28.853" ry="0" clip-path="url(#clipPath7001)" fill="url(#linearGradient2726)" filter="url(#filter7023)" opacity=".56777"/>
    <path transform="matrix(-.88863 -.053748 -.075221 .76773 1441 371.43)" d="m1549.5-264.5a24.75 24.75 0 11-49.5 0 24.75 24.75 0 1149.5 0z" fill="#312f30"/>
   </g>
   <path transform="matrix(-.82695 -.050017 -.069974 .71402 1348.4 351.93)" d="m1549.5-264.5a24.75 24.75 0 11-49.5 0 24.75 24.75 0 1149.5 0z" clip-path="url(#clipPath6641)" fill="none" filter="url(#filter6637)" stroke="#000" stroke-linecap="round" stroke-linejoin="round" stroke-width="3.1006"/>
   <path transform="matrix(-.75698 -.045785 -.064077 .65399 1243.2 330.77)" d="m1524.8-289.88c-14.002 0-25.375 11.373-25.375 25.375s11.373 25.375 25.375 25.375 25.375-11.373 25.375-25.375-11.373-25.375-25.375-25.375zm0 1.25c13.322 0 24.125 10.803 24.125 24.125s-10.907 22.772-24.228 22.772-24.022-9.4504-24.022-22.772 10.803-24.125 24.125-24.125z" fill="url(#radialGradient2818)" filter="url(#filter3606)"/>
   <path transform="matrix(-.73176 -.04426 -.061942 .6322 1205.3 322.13)" d="m1524.8-289.88c-14.002 0-25.375 11.373-25.375 25.375s11.373 25.375 25.375 25.375 25.375-11.373 25.375-25.375-11.373-25.375-25.375-25.375zm0 1.25c13.322 0 24.125 10.803 24.125 24.125s-11.138 18.137-24.46 18.137-23.79-4.8151-23.79-18.137 10.803-24.125 24.125-24.125z" fill="url(#radialGradient2820)"/>
   <path transform="matrix(-.63319 -.034104 -.040579 .68927 732.05 294.24)" d="m1021.2-275.25c-5.975-4.1368-21.075-5.4231-28.75-2.5" fill="none" filter="url(#filter7845)" stroke="url(#linearGradient2728)" stroke-width="1.3305"/>
   <path transform="matrix(-.69469 -.042018 -.058804 .60018 1149.7 308.53)" d="m1549.5-264.5a24.75 24.75 0 11-49.5 0 24.75 24.75 0 1149.5 0z"/>
   <path transform="matrix(-.69469 -.042018 -.058804 .60018 1149.7 308.53)" d="m1549.5-264.5a24.75 24.75 0 11-49.5 0 24.75 24.75 0 1149.5 0z" fill="url(#radialGradient9002)"/>
   <path transform="matrix(-.71886 -.04348 -.060854 .62112 1186 316.48)" d="m1549.5-264.5a24.75 24.75 0 11-49.5 0 24.75 24.75 0 1149.5 0z" fill="none" stroke="url(#linearGradient2826)" stroke-linecap="round" stroke-linejoin="round" stroke-width="1.0031"/>
   <path transform="matrix(-.62843 -.03801 -.038098 .62696 728.16 280.81)" d="m1025-231.96a19.922 8.0078 0 11-39.844 0 19.922 8.0078 0 1139.844 0z" fill="url(#radialGradient2828)" filter="url(#filter8002)"/>
   <g transform="matrix(-.62843 -.03801 -.038098 .62696 640.81 275.53)" clip-path="url(#clipPath8998)">
    <path transform="matrix(.95567 0 0 .95567 -96.02 -10.419)" d="m979.03-261.5c-.0814.87937-.1271 1.7819-.0937 2.6875.4838 13.108 13.147 23.75 28.25 23.75 15.103 0 26.952-10.642 26.469-23.75-.0151-.40962-.0239-.81421-.0624-1.2188-1.114 11.834-11.968 22.234-26.016 22.234-14.631-1e-5-27.351-11.162-28.547-23.703z" fill="url(#linearGradient2806)" filter="url(#filter7958)" opacity=".85714"/>
    <path transform="matrix(.95567 0 0 .95567 -93.285 -23.31)" d="m979.03-261.5c-.0814.87937-.1271 1.7819-.0937 2.6875.4838 13.108 13.147 23.75 28.25 23.75 15.103 0 26.952-10.642 26.469-23.75-.0151-.40962-.0239-.81421-.0624-1.2188-1.114 11.834-14.012 23.052-28.059 23.052-14.631-1e-5-25.307-11.98-26.503-24.521z" fill="url(#linearGradient2806)" filter="url(#filter7958)"/>
    <path transform="matrix(1.0246 0 0 1.0432 -162.62 -.39983)" d="m979.03-261.5c-.0814.87937-.1271 1.7819-.0937 2.6875.4838 13.108 12.204 23.353 27.306 23.353 15.103 1e-5 27.896-10.245 27.412-23.353-.0151-.40962-.0239-.81421-.0624-1.2188-1.114 11.834-10.008 23.052-28.059 23.052-14.631 0-25.307-11.98-26.503-24.521z" opacity=".37363"/>
   </g>
   <g>
    <path transform="matrix(-.62843 -.03801 -.038098 .62696 754.66 277.89)" d="m1034.1-242.68a4.9718 4.9718 0 11-9.9437 0 4.9718 4.9718 0 119.9437 0z" fill="url(#radialGradient2810)" opacity=".64835"/>
    <path d="m107.74 70.884c5.6462.3415 10.446 2.9931 13.225 6.8173-2.1043 3.7855-8.1243 6.2732-15.02 5.8561-6.2154-.37593-11.421-2.9921-13.583-6.4456 3.4397-4.086 9.1663-6.6035 15.378-6.2278z" fill="url(#linearGradient2836)"/>
    <path transform="matrix(.73986 -.040622 .038668 .69016 -893.3 296.25)" d="m1314.1-281.5a6.1105 6.1105 0 11-12.221 0 6.1105 6.1105 0 1112.221 0z" clip-path="url(#clipPath10259)" fill="url(#linearGradient2838)" filter="url(#filter10253)"/>
    <path d="m60.346 47.305c.11087-.72008 1.0781-1.6942 3.3783-1.6942 2.3034 0 3.3329.95537 3.3208 1.6942l.89457 7.6755h-8.5824l.98869-7.6755z" fill="url(#linearGradient2840)"/>
    <path d="m51.002 56.709s6.1571-4.649 12.571-4.649c7.1541 0 12.462 4.8652 12.462 4.8652l-7.1523 7.0275s-2.2758-1.7299-4.985-1.838c-2.7093-.10812-5.8519 1.4055-5.8519 1.4055l-7.044-6.8113z" fill="url(#linearGradient2842)" fill-rule="evenodd"/>
    <path transform="matrix(.94336 -.0522 .049303 .88686 -1156.1 375.18)" d="m1314.1-281.5a6.1105 6.1105 0 11-12.221 0 6.1105 6.1105 0 1112.221 0z" fill="#3b3b3b" filter="url(#filter5698)"/>
    <path transform="matrix(.84742 -.046892 .04429 .79667 -1032 343.44)" d="m1314.5-281.5a6.5 6.5 0 11-13 0 6.5 6.5 0 1113 0z" fill="url(#linearGradient2844)"/>
    <path d="m60.346 47.305c.11087-.72008 1.0781-1.6942 3.3783-1.6942 2.3034 0 3.3329.95537 3.3208 1.6942l.89457 7.6755h-8.5824l.98869-7.6755z" fill="url(#linearGradient2846)"/>
   </g>
   <g transform="matrix(.62861 -.034784 .034865 .62715 -602.5 302.33)">
    <path transform="matrix(.23493 0 0 .22137 740.8 -231.72)" d="m1314.1-281.5a6.1105 6.1105 0 11-12.221 0 6.1105 6.1105 0 1112.221 0z" filter="url(#filter5698)"/>
    <path transform="matrix(.21104 0 0 .19886 772.04 -237.91)" d="m1314.5-281.5a6.5 6.5 0 11-13 0 6.5 6.5 0 1113 0z" fill="url(#linearGradient2742)"/>
    <rect transform="matrix(.73701 .67588 -.84221 .53916 0 0)" x="328.35" y="-957.89" width=".4037" height="1.9511"/>
   </g>
   <g transform="matrix(.62861 -.034784 .034865 .62715 -566.23 302.45)">
    <path transform="matrix(.23493 0 0 .22137 740.8 -231.72)" d="m1314.1-281.5a6.1105 6.1105 0 11-12.221 0 6.1105 6.1105 0 1112.221 0z" filter="url(#filter5698)"/>
    <path transform="matrix(.21104 0 0 .19886 772.04 -237.91)" d="m1314.5-281.5a6.5 6.5 0 11-13 0 6.5 6.5 0 1113 0z" fill="url(#linearGradient2742)"/>
    <rect transform="matrix(.73701 .67588 -.84221 .53916 0 0)" x="328.35" y="-957.89" width=".4037" height="1.9511"/>
   </g>
   <path transform="matrix(.84742 -.046892 .04429 .79667 -1032 343.44)" d="m1314.5-281.5a6.5 6.5 0 11-13 0 6.5 6.5 0 1113 0z" fill="url(#linearGradient2852)" opacity=".35531"/>
  </g>
 </g>
</svg>
