<svg xmlns="http://www.w3.org/2000/svg" viewBox="0 0 128 128" xmlns:xlink="http://www.w3.org/1999/xlink"><defs><linearGradient id="a"><stop/><stop offset="1" stop-opacity="0"/></linearGradient><linearGradient id="b"><stop stop-color="#fff"/><stop offset="1" stop-color="#fff" stop-opacity="0"/></linearGradient><linearGradient id="c"><stop stop-color="#a04e21"/><stop offset="1" stop-color="#a04e21" stop-opacity="0"/></linearGradient><filter id="d"><feGaussianBlur stdDeviation=".37133"/></filter><filter id="e"><feGaussianBlur stdDeviation=".26202"/></filter><filter id="f"><feGaussianBlur stdDeviation="1.43742"/></filter><clipPath id="g"><path d="m1165.64-265.86h14.14c12.521 0 17.13-21.13 10.597-27.674l-26.994-26.994c-5.081-5.081-13.11-5.483-19-2.107-3.681 2.107-5.679 6.188-7.138 10.349-9.57.469-21.758 2.981-30.1 17.38z"/></clipPath><filter width="1.23" x="-.115" y="-.087" height="1.174" id="h"><feGaussianBlur stdDeviation=".87157"/></filter><linearGradient id="i" x1="1320.72" gradientUnits="userSpaceOnUse" x2="1380.55" gradientTransform="translate(-317.5)"><stop stop-color="#dddbdc"/><stop offset=".743" stop-color="#878485"/><stop offset=".809" stop-color="#4e4c4d"/><stop offset="1" stop-color="#2e2c2d"/></linearGradient><clipPath id="j"><path fill="url(#i)" d="m1054.41-343.22c-2.685-.04-5.386.665-7.719 2-3.328 1.905-5.15 5.581-6.469 9.344-8.652.424-19.675 2.702-27.22 15.719l-9.688 20.938h.094c-.063.106-.125.205-.187.313l58.5 29.06h14.13c7.764 0 12.466-8.138 13.375-15.875h.031v-.188c.034-.305.041-.603.063-.906l.031-.25c.023-.386.059-.776.062-1.156l1.344-19.813c.547-4.351-.22-8.592-2.5-10.875l-24.406-24.406c-2.584-2.584-5.985-3.854-9.438-3.906"/></clipPath><filter id="k"><feGaussianBlur stdDeviation=".27275"/></filter><filter id="l"><feGaussianBlur stdDeviation="1.0516"/></filter><linearGradient xlink:href="#i" id="m" x1="1320.72" gradientUnits="userSpaceOnUse" x2="1380.55" gradientTransform="matrix(.93997-.34126.34126.93997-245.88 186.61)"/><clipPath id="n"><path fill="url(#m)" d="m926.54-604.18c-2.538.878-4.836 2.463-6.573 4.514-2.478 2.927-2.936 7-2.892 10.99-7.987 3.351-17.572 9.254-20.221 24.06l-1.961 22.987.088-.032c-.023.121-.048.236-.07.358l64.906 7.354 13.277-4.82c7.298-2.649 8.94-11.904 7.155-19.486l.029-.011-.064-.176c-.073-.298-.167-.581-.251-.873l-.056-.246c-.11-.371-.209-.749-.336-1.108l-5.498-19.08c-.97-4.276-3.139-8-6.06-9.369l-31.27-14.612c-3.31-1.547-6.941-1.58-10.204-.451"/></clipPath><filter width="1.225" x="-.112" y="-.227" height="1.453" id="o"><feGaussianBlur stdDeviation=".41359"/></filter><filter id="p"><feGaussianBlur stdDeviation=".77463"/></filter><use fill="none" stroke="#000" id="q" xlink:href="#ao" stroke-width="3.54"/><clipPath id="r"><use xlink:href="#q" transform="matrix(1.07309 0-.00002 1.07373-111.42 18.59)"/></clipPath><filter width="1.212" x="-.106" y="-.141" height="1.281" id="s"><feGaussianBlur stdDeviation="3.80257"/></filter><linearGradient spreadMethod="reflect" xlink:href="#i" id="t" y1="-271.97" x1="1342.21" y2="-258.92" gradientUnits="userSpaceOnUse" x2="1379.22" gradientTransform="translate(-445.13)"/><clipPath id="u"><path fill="url(#t)" d="m919.49-293.5c-12.601 0-23.18 6.573-27.625 16l-7.156 14.5-1.906 4.281c-1.05 3.02-1.561 6.236-1.438 9.594.619 16.767 16.806 30.375 36.13 30.375 18.395 0 33.02-12.345 33.844-28l.031-.813v-18.969c-.001-.032.001-.062 0-.094-.546-14.835-14.832-26.875-31.875-26.875"/></clipPath><linearGradient spreadMethod="reflect" xlink:href="#i" id="v" y1="-271.97" x1="1342.21" y2="-258.92" gradientUnits="userSpaceOnUse" x2="1379.22" gradientTransform="matrix(.89707-.4419.4419.89707-319.7 157.48)"/><clipPath id="w"><path fill="url(#v)" d="m774.76-708.83c-11.304 5.569-17.892 16.14-17.711 26.56l-.012 16.17.182 4.683c.392 3.171 1.355 6.284 2.95 9.241 7.964 14.768 28.499 19.822 45.829 11.285 16.501-8.129 24.17-25.666 17.987-40.07l-.331-.743-8.382-17.02c-.015-.028-.026-.056-.041-.084-7.05-13.07-25.18-17.554-40.47-10.02"/></clipPath><filter id="x"><feGaussianBlur stdDeviation=".60164"/></filter><filter width="1.391" x="-.195" y="-.091" height="1.183" id="y"><feGaussianBlur stdDeviation=".90989"/></filter><linearGradient xlink:href="#i" id="z" y1="-304.53" x1="1320.72" y2="-307.28" gradientUnits="userSpaceOnUse" x2="1395.55" gradientTransform="matrix(.99069 0 0 .98915-304.41-2.797)"/><clipPath id="A"><path fill="url(#z)" d="m1054.72-342.29c-2.66-.04-5.336.658-7.647 1.978-3.297 1.885-5.102 5.521-6.409 9.242-8.571.42-19.492 2.672-26.965 15.548l-9.597 20.71h.093c-.062.105-.124.203-.186.309l57.955 28.747h13.994c7.691 0 12.35-8.05 13.25-15.703h.031v-.185c.033-.302.041-.597.062-.896l.031-.247c.023-.382.058-.767.062-1.144l1.331-19.597c.542-4.303-.218-8.499-2.477-10.757l-24.18-24.14c-2.56-2.556-5.93-3.812-9.35-3.864"/></clipPath><filter id="B"><feGaussianBlur stdDeviation=".37286"/></filter><filter id="C"><feGaussianBlur stdDeviation=".26783"/></filter><filter id="D"><feGaussianBlur stdDeviation=".37171"/></filter><filter width="1.082" x="-.041" y="-.102" height="1.204" id="E"><feGaussianBlur stdDeviation=".81845"/></filter><radialGradient fx="1521.6" fy="-250.72" cx="1524.22" cy="-260.48" id="F" r="24.75" gradientUnits="userSpaceOnUse" gradientTransform="matrix(1.31052.1241-.0541 1.689-487.04-8.419)"><stop stop-color="#eb7331"/><stop offset="1" stop-color="#eb7331" stop-opacity="0"/></radialGradient><clipPath id="G"><use xlink:href="#q" transform="matrix(1.10545 0 .03541.95943-810.11 3.539)"/></clipPath><filter width="1.323" x="-.161" y="-.161" height="1.322" id="H"><feGaussianBlur stdDeviation=".98543"/></filter><linearGradient spreadMethod="reflect" id="I" y1="-287.56" x1="1587.48" y2="-275.46" gradientUnits="userSpaceOnUse" x2="1626.27" gradientTransform="matrix(.85342.05023-.0477.91274-73.971-100.06)"><stop stop-color="#3a3a3c"/><stop offset=".5" stop-color="#5d5d60"/><stop offset="1" stop-color="#97989b"/></linearGradient><clipPath id="J"><path fill="url(#I)" d="m1294.6-283.29c0 0 6.98-5.03 13.955-4.616 7.781.458 13.258 6.47 13.258 6.47l-8.207 7.736c0 0-2.37-2.163-5.31-2.462-2.94-.299-6.45 1.264-6.45 1.264z"/></clipPath><radialGradient fx="23.04" cx="64" cy="122" xlink:href="#a" id="K" r="64" gradientUnits="userSpaceOnUse" gradientTransform="matrix(1 0 0 .09375 0 110.56)"/><linearGradient spreadMethod="reflect" xlink:href="#i" id="L" y1="-271.97" x1="1342.21" y2="-258.92" gradientUnits="userSpaceOnUse" x2="1379.22" gradientTransform="matrix(-.24944-.01537-.01512.25345 421.16 124.52)"/><linearGradient id="M" y1="-688.43" x1="758.88" y2="-688.52" gradientUnits="userSpaceOnUse" x2="765.16"><stop stop-opacity="0"/><stop offset=".25" stop-opacity=".683"/><stop offset=".5"/><stop offset=".75" stop-opacity=".73"/><stop offset="1" stop-opacity="0"/></linearGradient><linearGradient spreadMethod="reflect" xlink:href="#b" id="N" y1="-277.2" x1="1006.86" y2="-277.29" gradientUnits="userSpaceOnUse" x2="1021.92"/><linearGradient xlink:href="#i" id="O" y1="-304.53" x1="1320.72" y2="-307.28" gradientUnits="userSpaceOnUse" x2="1395.55" gradientTransform="matrix(.62861-.03478.03487.62715-812.72 299.32)"/><linearGradient xlink:href="#M" id="P" x1="924.29" gradientUnits="userSpaceOnUse" x2="940.11"/><linearGradient xlink:href="#b" id="Q" y1="-359.13" x1="1050.31" y2="-304.63" gradientUnits="userSpaceOnUse" x2="1053.82"/><linearGradient xlink:href="#i" id="R" y1="-275" x1="1308" y2="-297.2" gradientUnits="userSpaceOnUse" x2="1315.66"/><radialGradient fx="1057.81" fy="-298.02" cx="1039.52" cy="-288.62" xlink:href="#a" id="S" r="43.1" gradientUnits="userSpaceOnUse" gradientTransform="matrix(.40669.34072-.2269.26957-458.07-206.6)"/><linearGradient xlink:href="#a" id="T" y1="-320.31" x1="1143.45" y2="-265.86" gradientUnits="userSpaceOnUse" x2="1150.24"/><linearGradient xlink:href="#a" id="U" y1="-326.56" x1="1043.13" y2="-321.84" gradientUnits="userSpaceOnUse" x2="1024.19"/><radialGradient cx="1058.03" cy="-345.89" xlink:href="#b" id="V" r="11.965" gradientUnits="userSpaceOnUse" gradientTransform="matrix(1 0 0 .46555.28-180.87)"/><linearGradient xlink:href="#a" id="W" y1="-346.51" x1="1040.71" y2="-306.53" gradientUnits="userSpaceOnUse" x2="1051.42"/><radialGradient cx="1041.83" cy="-325.97" xlink:href="#b" id="X" r="5.626" gradientUnits="userSpaceOnUse" gradientTransform="matrix(1.2777.02222-.00697.40061-291.86-217.51)"/><linearGradient xlink:href="#a" id="Y" y1="-289.28" x1="990.33" y2="-309.96" gradientUnits="userSpaceOnUse" x2="1000.7" gradientTransform="translate(.25.25)"/><linearGradient xlink:href="#i" id="Z" y1="-304.53" x1="1320.72" y2="-307.28" gradientUnits="userSpaceOnUse" x2="1395.55" gradientTransform="matrix(-1 0 0 1 2302.36 36.5)"/><linearGradient xlink:href="#a" id="0" y1="-328.56" x1="1044.38" y2="-323.61" gradientUnits="userSpaceOnUse" x2="1029.35"/><radialGradient cx="1041.83" cy="-325.97" xlink:href="#b" id="1" r="5.626" gradientUnits="userSpaceOnUse" gradientTransform="matrix(1.3444 0 0 .40067-359.14-194.32)"/><linearGradient spreadMethod="reflect" xlink:href="#I" id="2" y1="-287.56" x1="1587.48" y2="-275.46" gradientUnits="userSpaceOnUse" x2="1626.27" gradientTransform="matrix(.63335 0 0 .63187-951.89 230.2)"/><linearGradient spreadMethod="reflect" xlink:href="#i" id="3" y1="-271.97" x1="1342.21" y2="-258.92" gradientUnits="userSpaceOnUse" x2="1379.22" gradientTransform="translate(-356.38)"/><radialGradient fx="1530.71" fy="-239.92" cx="1523.94" cy="-239.08" xlink:href="#b" id="4" r="25.379" gradientUnits="userSpaceOnUse" gradientTransform="matrix(1.57671-.34694.23734 1.18359-822.12 572.61)"/><radialGradient fx="1520.79" fy="-241.94" cx="1523.94" cy="-239.08" xlink:href="#a" id="5" r="25.379" gradientUnits="userSpaceOnUse" gradientTransform="matrix(1.57671-.34694.23734 1.18359-822.12 572.61)"/><linearGradient xlink:href="#b" id="6" y1="-288.7" x1="1514.13" y2="-257.33" gradientUnits="userSpaceOnUse" x2="1527.49"/><radialGradient fx="1003.91" fy="-217.38" cx="1005.08" cy="-231.96" xlink:href="#c" id="7" r="19.922" gradientUnits="userSpaceOnUse" gradientTransform="matrix(.99834.0576-.02941.5098-5.154-171.6)"/><linearGradient spreadMethod="reflect" id="8" x1="1191.05" gradientUnits="userSpaceOnUse" x2="1218.42" gradientTransform="translate(-184.75-8.594)"><stop stop-color="#f4bea0"/><stop offset="1" stop-color="#e5702f" stop-opacity="0"/></linearGradient><radialGradient fx="1028.62" fy="-244.89" cx="1029.17" cy="-242.68" id="9" r="4.972" gradientUnits="userSpaceOnUse"><stop stop-color="#fff0c3"/><stop offset="1" stop-color="#c13d00" stop-opacity="0"/></radialGradient><linearGradient xlink:href="#b" id="aa" y1="-297.18" x1="941.54" y2="-260.96" gradientUnits="userSpaceOnUse" x2="905.31" gradientTransform="translate(90.23)"/><linearGradient spreadMethod="reflect" xlink:href="#i" id="ab" y1="-271.97" x1="1342.21" y2="-258.92" gradientUnits="userSpaceOnUse" x2="1379.22" gradientTransform="matrix(-.62843-.03801-.0381.62696 952.11 294.35)"/><radialGradient fx="1517.71" fy="-243.73" cx="1523.94" cy="-239.08" xlink:href="#b" id="ac" r="25.379" gradientUnits="userSpaceOnUse" gradientTransform="matrix(1.57671-.34694.23734 1.18359-822.12 572.61)"/><radialGradient fx="1510.81" fy="-244.91" cx="1513.96" cy="-242.04" xlink:href="#a" id="ad" r="25.379" gradientUnits="userSpaceOnUse" gradientTransform="matrix(1.57671-.34694.23734 1.18359-822.12 572.61)"/><linearGradient xlink:href="#b" id="ae" y1="-294.2" x1="1531.72" y2="-258.55" gradientUnits="userSpaceOnUse" x2="1516.6"/><radialGradient fx="1003.91" fy="-217.38" cx="1005.08" cy="-231.96" xlink:href="#c" id="af" r="19.922" gradientUnits="userSpaceOnUse" gradientTransform="matrix(1 0 0 .54412 0-105.75)"/><linearGradient xlink:href="#b" id="ag" y1="-296.4" x1="871.22" y2="-253.66" gradientUnits="userSpaceOnUse" x2="922.89" gradientTransform="matrix(-.62843-.03801-.0381.62696 671.45 277.38)"/><linearGradient xlink:href="#a" id="ah" y1="-279.2" x1="1303.68" y2="-290.21" gradientUnits="userSpaceOnUse" x2="1317.43"/><linearGradient spreadMethod="reflect" xlink:href="#I" id="ai" x1="1069.71" gradientUnits="userSpaceOnUse" x2="1075.18" gradientTransform="matrix(.78467 0-.00864.5282-782.58 211.76)"/><linearGradient spreadMethod="reflect" xlink:href="#I" id="aj" x1="1587.48" gradientUnits="userSpaceOnUse" x2="1603.28" gradientTransform="matrix(.78467 0 0 .78284-1194.69 282.26)"/><linearGradient xlink:href="#i" id="ak" y1="-275" x1="1308" y2="-291.92" gradientUnits="userSpaceOnUse" x2="1311.53"/><linearGradient xlink:href="#a" id="al" y1="-311.69" x1="1074.8" y2="-302.51" gradientUnits="userSpaceOnUse" x2="1079" gradientTransform="matrix(.78467 0 0 .78284-780.29 287.77)"/><linearGradient xlink:href="#a" id="am" y1="-275.4" x1="1302.97" y2="-280.13" gradientUnits="userSpaceOnUse" x2="1307.93"/><filter id="an"><feGaussianBlur stdDeviation=".50965"/></filter><path stroke-linejoin="round" id="ao" d="M1549.5-264.5A24.75 24.75 0 1 1 1500 -264.5 24.75 24.75 0 1 1 1549.5 -264.5z"/><path opacity=".128" fill="url(#K)" id="ap" d="M128 122A64 6 0 1 1 0 122 64 6 0 1 1 128 122"/><path fill="url(#L)" id="aq" d="m85.21 29.17c3.143.194 5.683 2.022 6.649 4.48l1.566 3.785.411 1.114c.216.781.295 1.605.213 2.454-.408 4.24-4.651 7.44-9.47 7.144-4.588-.283-8.05-3.636-8.02-7.617l.005-.206.287-4.808c.001-.008.001-.016.001-.024.361-3.752 4.106-6.584 8.357-6.322"/><path opacity=".568" fill="url(#M)" filter="url(#x)" id="ar" d="m758.11-703.21h7.926v28.853h-7.926z" clip-path="url(#w)"/><path id="as" d="M1549.5-264.5A24.75 24.75 0 1 1 1500 -264.5 24.75 24.75 0 1 1 1549.5 -264.5"/><path fill="none" filter="url(#C)" stroke="url(#N)" id="at" stroke-width="1.331" d="m1021.25-275.25c-5.975-4.137-21.07-5.423-28.75-2.5"/><path opacity=".733" fill="url(#P)" filter="url(#l)" id="au" d="m924.42-612.9h15.556v39.598h-15.556z" clip-path="url(#n)"/><path fill-rule="evenodd" id="av" d="m44.95 84.62l8.89-.492c7.871-.436 10.03-13.846 5.697-17.725l-17.91-15.99c-3.371-3.01-8.43-2.983-12.02-.66-2.241 1.45-3.354 4.078-4.126 6.739-5.999.627-13.574 2.627-18.317 11.947z"/><path fill="url(#Q)" filter="url(#d)" fill-rule="evenodd" id="aw" d="m1049.31-326.31c-3.121-.047-6.258.729-8.969 2.281-3.869 2.215-6.217 6-7.75 10.375-7.594.373-17 3.725-24.813 11l-4.469 7.438c8.339-14.12 20.438-16.596 29.938-17.06 1.459-4.162 3.444-8.236 7.125-10.344 5.897-3.376 13.919-2.987 19 2.094l27 27c2.659 2.663 3.498 7.731 2.688 12.813.058-.333.117-.667.156-1h.031v-.188c.034-.305.041-.603.063-.906l.031-.25c.023-.386.059-.776.062-1.156l.563-7.793c-.431-.841-.944-1.599-1.563-2.219l-28.09-27.582c-3-3-6.987-4.44-11-4.5m35.09 56.25c-.366.424-.749.817-1.156 1.188.407-.37.79-.763 1.156-1.188m-5.406 3.719c-.293.094-.602.151-.906.219.304-.066.613-.127.906-.219m-1.063.281c-.298.062-.598.089-.906.125.304-.034.613-.066.906-.125"/><path fill="#1f1f1f" filter="url(#e)" id="ax" d="M1314.2336-281.5A6.233554 6.233554 0 1 1 1301.7664 -281.5 6.233554 6.233554 0 1 1 1314.2336 -281.5"/><path id="ay" d="M1314.5-281.5A6.5 6.5 0 1 1 1301.5 -281.5 6.5 6.5 0 1 1 1314.5 -281.5"/><path id="az" d="M1314.1105-281.5A6.110492 6.110492 0 1 1 1301.8895 -281.5 6.110492 6.110492 0 1 1 1314.1105 -281.5"/><path opacity=".824" fill="url(#T)" filter="url(#f)" fill-rule="evenodd" id="aA" d="m1152.88-323.81c-2.919-.044-5.87.704-8.406 2.156-3.619 2.072-5.566 6.07-7 10.156-9.407.462-21.391 2.94-29.594 17.09l.897.345c7.881-13.407 20.03-16.1 29.02-16.541 1.379-3.932 3.448-7.79 6.927-9.781 5.572-3.19 13.14-2.447 17.937 2.354l25.5 26.03c1.58 1.943 1.831 26.16-10 26.16h1.125c12.309 0 16.832-20.783 10.406-27.22l-26.531-26.531c-2.809-2.809-6.527-4.162-10.281-4.219" clip-path="url(#g)"/><path id="aB" d="m328.35-957.89h.404v1.951h-.404z"/><path opacity=".733" fill="none" filter="url(#k)" stroke="url(#V)" id="aC" d="m1046.89-340.8c5.347-3.087 12.651-1.989 16.276 1.636l6.616 6.52" clip-path="url(#j)"/><path fill="none" filter="url(#o)" id="aD" d="m1037.54-321.53c2.997-3.037 7.111-4.602 10.878-4.429"/><path opacity=".711" filter="url(#s)" id="aE" d="m913.25-314.25c-6.344 0-21.674 13.424-10.469 25.281 19.695-4.202 40.21 18.327 49.22 33.719l11.125-5.531c14.999 3.968 2.751-14.06 2.75-14.09-.546-14.835-35.582-39.38-52.625-39.37" clip-path="url(#u)"/><path id="aF" d="m1524.75-289.87c-14 0-25.375 11.373-25.375 25.375 0 14 11.373 25.375 25.375 25.375 14 0 25.375-11.373 25.375-25.375 0-14-11.373-25.375-25.375-25.375m0 1.25c13.322 0 24.13 10.803 24.13 24.13 0 13.322-10.907 22.772-24.23 22.772-13.322 0-24.02-9.45-24.02-22.772 0-13.322 10.803-24.12 24.13-24.12"/><path id="aG" d="m1524.75-289.87c-14 0-25.375 11.373-25.375 25.375 0 14 11.373 25.375 25.375 25.375 14 0 25.375-11.373 25.375-25.375 0-14-11.373-25.375-25.375-25.375m0 1.25c13.322 0 24.13 10.803 24.13 24.13 0 13.322-11.138 18.14-24.459 18.14-13.322 0-23.791-4.815-23.791-18.14 0-13.322 10.803-24.12 24.13-24.12"/><path filter="url(#E)" id="aH" d="M1025-231.96094A19.921875 8.00781 0 1 1 985.15625 -231.96094 19.921875 8.00781 0 1 1 1025 -231.96094"/><path opacity=".857" fill="url(#8)" filter="url(#D)" id="aI" d="m979.03-261.5c-.081.879-.127 1.782-.094 2.688.484 13.11 13.147 23.75 28.25 23.75 15.1 0 26.952-10.642 26.469-23.75-.015-.41-.024-.814-.062-1.219-1.114 11.834-11.969 22.23-26.02 22.23-14.631 0-27.351-11.162-28.547-23.703"/><path fill="url(#8)" filter="url(#D)" id="aJ" d="m979.03-261.5c-.081.879-.127 1.782-.094 2.688.484 13.11 13.147 23.75 28.25 23.75 15.1 0 26.952-10.642 26.469-23.75-.015-.41-.024-.814-.062-1.219-1.114 11.834-14.01 23.05-28.06 23.05-14.631 0-25.307-11.98-26.503-24.521"/><path opacity=".374" id="aK" d="m979.03-261.5c-.081.879-.127 1.782-.094 2.688.484 13.11 12.204 23.353 27.306 23.353 15.1 0 27.896-10.245 27.412-23.353-.015-.41-.024-.814-.062-1.219-1.114 11.834-10.01 23.05-28.06 23.05-14.631 0-25.307-11.98-26.503-24.521"/><path fill="url(#9)" id="aL" d="M1034.1437-242.67863A4.971845 4.971845 0 1 1 1024.2 -242.67863 4.971845 4.971845 0 1 1 1034.1437 -242.67863"/><path id="aM" d="m60.35 47.3c.111-.72 1.078-1.694 3.378-1.694 2.303 0 3.333.955 3.321 1.694l.895 7.675h-8.582z"/></defs><g transform="translate(.853-30.839)"><use xlink:href="#ap" transform="translate(-.853 30.839)"/><use xlink:href="#ap" transform="matrix(-1 0 0 1 127.15 30.839)"/><g transform="matrix(.99896 0 0 .96501-.799 32.803)"><g transform="matrix(-1.0023 0 0 1 125.81 1.975)"><use xlink:href="#aq"/><use xlink:href="#ar" transform="matrix(-.23044.09822.09666.23415 332.26 119.05)"/><use fill="#312f30" xlink:href="#as" transform="matrix(-.35272-.02173-.02986.31036 615.22 155.68)"/><use filter="url(#p)" stroke="#000" xlink:href="#ao" stroke-width="3.101" clip-path="url(#r)" transform="matrix(-.32823-.02022-.02777.28865 578.44 147.8)"/><use xlink:href="#at" transform="matrix(-.25133-.01379-.01611.27864 333.81 124.48)"/></g><g transform="matrix(1.0023 0 0 1 1.762 2.148)"><use xlink:href="#aq"/><use xlink:href="#ar" transform="matrix(-.23044.09822.09666.23415 332.26 119.05)"/><use fill="#312f30" xlink:href="#as" transform="matrix(-.35272-.02173-.02986.31036 615.22 155.68)"/><use filter="url(#p)" stroke="#000" xlink:href="#ao" stroke-width="3.101" clip-path="url(#r)" transform="matrix(-.32823-.02022-.02777.28865 578.44 147.8)"/><use xlink:href="#at" transform="matrix(-.25133-.01379-.01611.27864 333.81 124.48)"/></g><path fill="url(#O)" fill-rule="evenodd" d="m37.707 36.35c-1.689.068-3.363.604-4.782 1.523-2.026 1.311-3.043 3.679-3.741 6.085-5.424.567-12.274 2.379-16.562 10.805l-5.36 13.468.059-.003c-.036.069-.072.133-.107.203l37.787 16.192 8.879-.491c4.88-.27 7.552-5.537 7.854-10.421l.02-.001-.007-.118c.01-.192.005-.38.008-.571l.011-.158c.001-.243.01-.489-.001-.727l.154-12.472c.192-2.747-.438-5.381-1.951-6.733l-16.193-14.457c-1.714-1.53-3.897-2.209-6.069-2.122"/><use xlink:href="#au" transform="matrix(.60277.18133-.18175.60137-630.6 231.69)"/><use fill="#3d3b3c" xlink:href="#av"/><use xlink:href="#aw" transform="matrix(.62861-.03478.03487.62715-613.14 288.28)"/><use xlink:href="#ax" transform="matrix(.88519-.04898.04626.83218-1093.72 374.33)"/><use fill="url(#R)" xlink:href="#ay" transform="matrix(.79517-.044.04156.74755-977.27 344.55)"/><use fill="#3b3b3b" filter="url(#e)" xlink:href="#az" transform="matrix(.7569-.04188.03956.71157-927.77 331.88)"/><use fill="url(#R)" xlink:href="#ay" transform="matrix(.67993-.03762.03554.63921-828.19 306.41)"/><use fill="url(#S)" xlink:href="#av"/><use xlink:href="#aA" transform="matrix(.62861-.03478.03487.62715-678.52 291.9)"/><path d="m95.24 25.318h1.301v6.291h-1.301z" transform="matrix(.77403.63315-.8117.58407 0 0)"/><use filter="url(#e)" xlink:href="#az" transform="matrix(.14768-.00817.00772.13883-151.52 101.4)"/><use fill="url(#R)" xlink:href="#ay" transform="matrix(.13266-.00734.00693.12471-132.09 96.43)"/><use xlink:href="#aB" transform="matrix(.48686.39824-.51062.36743-609.11 272.49)"/><use filter="url(#e)" xlink:href="#az" transform="matrix(.14768-.00817.00772.13883-162.45 105.34)"/><use fill="url(#R)" xlink:href="#ay" transform="matrix(.13266-.00734.00693.12471-143.02 100.37)"/><use xlink:href="#aB" transform="matrix(.48686.39824-.51062.36743-620.04 276.43)"/><path fill="url(#U)" filter="url(#h)" fill-rule="evenodd" clip-path="url(#j)" d="m1040.13-331.87c-4.484.226-16.599 1.472-19.781 7.188l3.844 10.781 8.906 2.094z" transform="matrix(.62861-.03478.03487.62715-613.14 288.28)"/><use xlink:href="#aC" transform="matrix(.62861-.03478.03487.62715-613.14 288.28)"/><path opacity=".582" fill="none" filter="url(#filter6072)" stroke="url(#W)" stroke-width=".594" d="m1088.25-312.41l-24.406-24.406c-2.584-2.584-5.985-3.854-9.438-3.906-2.685-.04-5.386.665-7.719 2-3.328 1.905-5.15 5.581-6.469 9.344-8.652.424-20.11 2.789-27.657 15.806" clip-path="url(#A)" transform="matrix(.63452-.03511.03525.63403-619.47 290.41)"/><use stroke="url(#X)" xlink:href="#aD" transform="matrix(.62861-.03478.03487.62715-613.14 288.28)"/><path fill="none" filter="url(#y)" stroke="url(#Y)" d="m999.92-306.62l-10.607 19.799" transform="matrix(.62861-.03478.03487.62715-601.12 277.55)"/><g transform="matrix(.62843.03801-.0381.62696-506.29 193.24)"><path fill="url(#Z)" fill-rule="evenodd" d="m930.46-306.72c2.685-.04 5.386.665 7.719 2 3.328 1.905 5.15 5.581 6.469 9.344 8.652.424 19.675 2.702 27.22 15.719l9.688 20.938h-.094c.063.106.125.205.187.313l-58.5 29.06h-14.12c-7.764 0-12.466-8.138-13.375-15.875h-.031v-.188c-.034-.305-.041-.603-.063-.906l-.031-.25c-.023-.386-.059-.776-.062-1.156l-1.344-19.813c-.547-4.351.22-8.592 2.5-10.875l24.406-24.406c2.584-2.584 5.985-3.854 9.438-3.906"/><use xlink:href="#au" transform="matrix(-.93997.34126.34126.93997 2007.56-55)"/><path fill="#3d3b3c" fill-rule="evenodd" d="m923.22-229.36h-14.14c-12.521 0-17.13-21.13-10.597-27.674l26.994-26.994c5.081-5.081 13.11-5.483 19-2.107 3.681 2.107 5.679 6.188 7.138 10.349 9.57.469 21.758 2.981 30.1 17.38z"/><use xlink:href="#aw" transform="matrix(-1 0 0 1 1984.86 36.5)"/><use xlink:href="#ax" transform="matrix(1.40816 0 0 1.32692-929.14 131.02)"/><use fill="url(#R)" xlink:href="#ay" transform="matrix(1.26496 0 0 1.19198-741.83 93.91)"/><use fill="#3b3b3b" filter="url(#e)" xlink:href="#az" transform="matrix(1.20408 0 0 1.13462-662.2 78.14)"/><use fill="url(#R)" xlink:href="#ay" transform="matrix(1.08163 0 0 1.01923-502.03 46.41)"/><use xlink:href="#aA" transform="matrix(-1 0 0 1 2088.86 36.5)"/><path d="m298.59-826.48h2.069v10h-2.069z" transform="matrix(.73701.67588-.84221.53916 0 0)"/><use filter="url(#e)" xlink:href="#az" transform="matrix(-.23493 0 0 .22137 1236.29-219.97)"/><use fill="url(#R)" xlink:href="#ay" transform="matrix(-.21104 0 0 .19886 1205.04-226.16)"/><use xlink:href="#aB" transform="matrix(-.73701.67588.84221.53916 1977.08 11.751)"/><use filter="url(#e)" xlink:href="#az" transform="matrix(-.23493 0 0 .22137 1253.97-214.66)"/><use fill="url(#R)" xlink:href="#ay" transform="matrix(-.21104 0 0 .19886 1222.72-220.85)"/><use xlink:href="#aB" transform="matrix(-.73701.67588.84221.53916 1994.76 17.05)"/><path fill="url(#0)" filter="url(#h)" fill-rule="evenodd" clip-path="url(#j)" d="m1040.13-331.87c-4.484.226-9.599.972-14.531 3.438l-.656 1.781 8.156 14.844z" transform="matrix(-1 0 0 1 1984.86 36.5)"/><use xlink:href="#aC" transform="matrix(-1 0 0 1 1984.86 36.5)"/><path opacity=".582" fill="none" filter="url(#filter6072)" stroke="url(#W)" stroke-width=".594" d="m1088.25-312.41l-24.406-24.406c-2.584-2.584-5.985-3.854-9.438-3.906-2.685-.04-5.386.665-7.719 2-3.328 1.905-5.15 5.581-6.469 9.344-8.652.424-19.675 2.702-27.22 15.719" transform="matrix(-1.0094 0 0 1.011 1995.09 39.33)"/><use stroke="url(#1)" xlink:href="#aD" transform="matrix(-1 0 0 1 1984.86 36.5)"/></g><path fill="url(#2)" fill-rule="evenodd" d="m53.57 48.15c0 0 4.97-3.752 10.146-3.752 5.774 0 10.06 3.927 10.06 3.927l-5.773 5.672c0 0-1.837-1.396-4.02-1.484-2.187-.087-4.723 1.134-4.723 1.134z"/><g transform="matrix(.62861-.03478.03487.62715-601.12 277.55)"><path fill="url(#3)" d="m1008.24-293.5c-12.601 0-23.18 6.573-27.625 16l-7.156 14.5-1.906 4.281c-1.05 3.02-1.561 6.236-1.438 9.594.619 16.767 16.806 30.375 36.13 30.375 18.395 0 33.02-12.345 33.844-28l.031-.813v-18.969c-.001-.032.001-.062 0-.094-.546-14.835-14.832-26.875-31.875-26.875"/><use xlink:href="#ar" transform="rotate(26.2249)"/><use fill="#312f30" xlink:href="#as" transform="matrix(1.41405 0 .04529 1.22727-1138.98 75.49)"/><use fill="none" filter="url(#p)" stroke="#000" xlink:href="#ao" stroke-width="3.101" clip-path="url(#r)" transform="matrix(1.3159 0 .04215 1.14141-990.15 53.4)"/><use xlink:href="#aE" transform="translate(88.9-.1)"/><use fill="url(#4)" filter="url(#B)" xlink:href="#aF" transform="matrix(1.20456 0 .03858 1.04545-821.34 29.898)"/><use fill="url(#5)" xlink:href="#aG" transform="matrix(1.16443 0 .0373 1.0106-760.48 19.801)"/><use xlink:href="#at" transform="matrix(1.0072.00666-.00207 1.09925-7.473 20.969)"/><use xlink:href="#as" transform="matrix(1.10545 0 .03541.95943-671.05 3.539)"/><use fill="url(#F)" xlink:href="#as" transform="matrix(1.10545 0 .03541.95943-671.05 3.539)"/><use fill="none" stroke="url(#6)" xlink:href="#ao" transform="matrix(1.14391 0 .03664.99291-729.37 12.671)"/><use fill="url(#7)" xlink:href="#aH"/><g clip-path="url(#G)" transform="translate(138.99)"><use xlink:href="#aI" transform="matrix(.95567 0 0 .95567-96.02-10.419)"/><use xlink:href="#aJ" transform="matrix(.95567 0 0 .95567-93.29-23.31)"/><use xlink:href="#aK" transform="matrix(1.02458 0 0 1.04317-162.62-.4)"/></g><use xlink:href="#aL" transform="translate(-5.8-7.182)"/><path fill="url(#aa)" d="m1003.86-273.97c-8.985 0-16.85 3.752-21.625 9.563 2.972 6.218 12.276 10.75 23.25 10.75 9.89 0 18.396-3.657 22.16-8.938-5.06-6.824-13.896-11.375-23.781-11.375"/></g><use xlink:href="#aE" transform="matrix(-.62843-.03801-.0381.62696 672.29 277.37)"/><path fill="url(#ab)" d="m105.73 58.47c7.919.479 14.319 5 16.751 11.08l3.945 9.363 1.035 2.757c.545 1.932.744 3.969.538 6.07-1.028 10.489-11.719 18.405-23.859 17.671-11.56-.699-20.28-8.995-20.2-18.841l.011-.511.723-11.893c.002-.02.002-.039.004-.059.908-9.28 10.345-16.286 21.05-15.638"/><use xlink:href="#ar" transform="matrix(-.58057.24295.24352.57922 728.16 280.81)"/><use fill="#312f30" xlink:href="#as" transform="matrix(-.88863-.05375-.07522.76773 1441.04 371.43)"/><use fill="none" filter="url(#p)" stroke="#000" xlink:href="#ao" stroke-width="3.101" clip-path="url(#r)" transform="matrix(-.82695-.05002-.06997.71402 1348.36 351.93)"/><use fill="url(#ac)" filter="url(#an)" xlink:href="#aF" transform="matrix(-.75698-.04578-.06408.65399 1243.17 330.77)"/><use fill="url(#ad)" xlink:href="#aG" transform="matrix(-.73176-.04426-.06194.6322 1205.31 322.13)"/><use xlink:href="#at" transform="matrix(-.63319-.0341-.04058.68927 732.05 294.24)"/><use xlink:href="#as" transform="matrix(-.69469-.04202-.0588.60018 1149.72 308.53)"/><use fill="url(#F)" xlink:href="#as" transform="matrix(-.69469-.04202-.0588.60018 1149.72 308.53)"/><use fill="none" stroke="url(#ae)" xlink:href="#ao" transform="matrix(-.71886-.04348-.06085.62112 1186.03 316.48)"/><use fill="url(#af)" xlink:href="#aH" transform="matrix(-.62843-.03801-.0381.62696 728.16 280.81)"/><g clip-path="url(#G)" transform="matrix(-.62843-.03801-.0381.62696 640.81 275.53)"><use xlink:href="#aI" transform="matrix(.95567 0 0 .95567-96.02-10.419)"/><use xlink:href="#aJ" transform="matrix(.95567 0 0 .95567-93.29-23.31)"/><use xlink:href="#aK" transform="matrix(1.02458 0 0 1.04317-162.62-.4)"/></g><use opacity=".648" xlink:href="#aL" transform="matrix(-.62843-.03801-.0381.62696 754.66 277.89)"/><path fill="url(#ag)" d="m107.74 70.884c5.646.342 10.446 2.993 13.225 6.817-2.104 3.785-8.124 6.273-15.02 5.856-6.215-.376-11.421-2.992-13.583-6.446 3.44-4.086 9.166-6.603 15.378-6.228"/><use fill="url(#ah)" filter="url(#H)" xlink:href="#az" clip-path="url(#J)" transform="matrix(.73986-.04062.03867.69016-893.3 296.25)"/><use fill="url(#ai)" xlink:href="#aM"/><path fill="url(#aj)" fill-rule="evenodd" d="m51 56.709c0 0 6.157-4.649 12.571-4.649 7.154 0 12.462 4.865 12.462 4.865l-7.152 7.03c0 0-2.276-1.73-4.985-1.838-2.709-.108-5.852 1.406-5.852 1.406z"/><use fill="#3b3b3b" filter="url(#e)" xlink:href="#az" transform="matrix(.94336-.0522.0493.88686-1156.08 375.18)"/><use fill="url(#ak)" xlink:href="#ay" transform="matrix(.84742-.04689.04429.79667-1031.97 343.44)"/><use fill="url(#al)" xlink:href="#aM"/><use filter="url(#e)" xlink:href="#az" transform="matrix(.14768-.00817.00772.13883-144.91 131.24)"/><use fill="url(#R)" xlink:href="#ay" transform="matrix(.13266-.00734.00693.12471-125.48 126.27)"/><use xlink:href="#aB" transform="matrix(.48686.39824-.51062.36743-602.5 302.33)"/><use filter="url(#e)" xlink:href="#az" transform="matrix(.14768-.00817.00772.13883-108.64 131.36)"/><use fill="url(#R)" xlink:href="#ay" transform="matrix(.13266-.00734.00693.12471-89.21 126.39)"/><use xlink:href="#aB" transform="matrix(.48686.39824-.51062.36743-566.23 302.45)"/><use opacity=".355" fill="url(#am)" xlink:href="#ay" transform="matrix(.84742-.04689.04429.79667-1031.97 343.44)"/></g></g></svg>