<svg xmlns="http://www.w3.org/2000/svg" viewBox="0 0 128 128" xmlns:xlink="http://www.w3.org/1999/xlink"><defs><linearGradient id="a"><stop/><stop offset="1" stop-opacity="0"/></linearGradient><linearGradient id="b"><stop stop-color="#fff"/><stop offset="1" stop-color="#fff" stop-opacity="0"/></linearGradient><linearGradient xlink:href="#b" id="c" y1="195.61" x1="-742.43" y2="217.92" gradientUnits="userSpaceOnUse" x2="-739.79"/><radialGradient fx="-634.81" fy="578.65" cx="-633.64" cy="565.85" xlink:href="#b" id="d" r="18.909" gradientUnits="userSpaceOnUse" gradientTransform="matrix(1 0 0 .92857 0 40.42)"/><linearGradient spreadMethod="reflect" xlink:href="#b" id="e" y1="296.54" x1="-744.58" y2="296.42" gradientUnits="userSpaceOnUse" x2="-728.62" gradientTransform="matrix(.3253 0 0 .30413 249.85-64.02)"/><linearGradient spreadMethod="reflect" xlink:href="#b" id="f" y1="296.54" x1="-744.58" y2="296.42" gradientUnits="userSpaceOnUse" x2="-728.62" gradientTransform="matrix(.3253 0 0 .30413 249.85-57.677)"/><linearGradient spreadMethod="reflect" xlink:href="#b" id="g" y1="296.54" x1="-744.58" y2="296.42" gradientUnits="userSpaceOnUse" x2="-728.62" gradientTransform="matrix(.3253 0 0 .30413 249.85-70.36)"/><linearGradient spreadMethod="reflect" xlink:href="#b" id="h" y1="296.54" x1="-744.58" y2="296.42" gradientUnits="userSpaceOnUse" x2="-728.62" gradientTransform="matrix(.3253 0 0 .30413 249.85-51.34)"/><linearGradient spreadMethod="reflect" xlink:href="#b" id="i" y1="296.54" x1="-744.58" y2="296.42" gradientUnits="userSpaceOnUse" x2="-728.62" gradientTransform="matrix(.3253 0 0 .30413 249.85-45)"/><linearGradient spreadMethod="reflect" xlink:href="#b" id="j" y1="296.54" x1="-744.58" y2="296.42" gradientUnits="userSpaceOnUse" x2="-728.62" gradientTransform="matrix(.3253 0 0 .30413 249.85-38.661)"/><linearGradient spreadMethod="reflect" xlink:href="#b" id="k" y1="296.54" x1="-744.58" y2="296.42" gradientUnits="userSpaceOnUse" x2="-728.62" gradientTransform="matrix(.3253 0 0 .30413 249.85-32.32)"/><linearGradient spreadMethod="reflect" xlink:href="#b" id="l" y1="296.54" x1="-744.58" y2="296.42" gradientUnits="userSpaceOnUse" x2="-728.62" gradientTransform="matrix(.3253 0 0 .30413 249.85-25.983)"/><linearGradient spreadMethod="reflect" xlink:href="#b" id="m" y1="296.54" x1="-744.58" y2="296.42" gradientUnits="userSpaceOnUse" x2="-728.62" gradientTransform="matrix(.3253 0 0 .30413 249.85-19.644)"/><linearGradient spreadMethod="reflect" xlink:href="#b" id="n" y1="296.54" x1="-744.58" y2="296.42" gradientUnits="userSpaceOnUse" x2="-728.62" gradientTransform="matrix(.3253 0 0 .30413 249.85-13.305)"/><linearGradient spreadMethod="reflect" xlink:href="#b" id="o" y1="296.54" x1="-744.58" y2="296.42" gradientUnits="userSpaceOnUse" x2="-728.62" gradientTransform="matrix(.3253 0 0 .30413 249.85-6.966)"/><linearGradient spreadMethod="reflect" xlink:href="#b" id="p" y1="296.54" x1="-744.58" y2="296.42" gradientUnits="userSpaceOnUse" x2="-728.62" gradientTransform="matrix(.3253 0 0 .30413 249.85-.627)"/><linearGradient spreadMethod="reflect" xlink:href="#b" id="q" y1="296.54" x1="-744.58" y2="296.42" gradientUnits="userSpaceOnUse" x2="-728.62" gradientTransform="matrix(.3253 0 0 .30413 249.85 12.05)"/><linearGradient spreadMethod="reflect" xlink:href="#b" id="r" y1="296.54" x1="-744.58" y2="296.42" gradientUnits="userSpaceOnUse" x2="-728.62" gradientTransform="matrix(.3253 0 0 .30413 249.85 18.39)"/><linearGradient spreadMethod="reflect" xlink:href="#b" id="s" y1="296.54" x1="-744.58" y2="296.42" gradientUnits="userSpaceOnUse" x2="-728.62" gradientTransform="matrix(.3253 0 0 .30413 249.85 5.712)"/><linearGradient xlink:href="#a" id="t" y1="620.91" x1="-757.66" y2="356.51" gradientUnits="userSpaceOnUse" x2="-714.75" gradientTransform="matrix(.3253 0 0 .30413 249.85-60.32)"/><linearGradient xlink:href="#b" id="u" y1="238.11" x1="-751.6" y2="242.5" gradientUnits="userSpaceOnUse" x2="-736.93" gradientTransform="matrix(.3253 0 0 .30413 249.85-60.32)"/><radialGradient fx="-745.35" fy="255.14" cx="-742.32" cy="254.22" xlink:href="#b" id="v" r="5.105" gradientUnits="userSpaceOnUse" gradientTransform="matrix(1 0 0 .0582 0 239.42)"/><radialGradient cx="-749.72" cy="253.47" xlink:href="#b" id="w" r="4.234" gradientUnits="userSpaceOnUse" gradientTransform="matrix(.83165-.00776.00267.2501 628.54-52.24)"/><radialGradient cx="78.62" cy="801.52" xlink:href="#a" id="x" r="5.793" gradientUnits="userSpaceOnUse" gradientTransform="matrix(1 0 0 .35714 0 515.26)"/><radialGradient fx="83.91" cx="114.59" cy="801.88" xlink:href="#a" id="y" r="39.873" gradientUnits="userSpaceOnUse" gradientTransform="matrix(1 0 0 .09009 0 729.64)"/><linearGradient id="z" y1="243.04" x1="-511.73" y2="220.15" x2="-406.2" gradientUnits="userSpaceOnUse" gradientTransform="matrix(.33871-.0091 0 .39099 223.3-41.02)"><stop stop-color="#000593" stop-opacity="0"/><stop offset=".181" stop-opacity=".48"/><stop offset=".5" stop-opacity=".581"/><stop offset=".75" stop-opacity=".455"/><stop offset="1" stop-color="#505aff" stop-opacity="0"/></linearGradient><linearGradient xlink:href="#b" id="A" y1="-28.527" x1="106.88" y2="61.57" x2="69.63" gradientUnits="userSpaceOnUse"/><linearGradient xlink:href="#a" id="B" y1="60.35" x1="3.914" y2="59.59" x2="17.347" gradientUnits="userSpaceOnUse"/><path fill-rule="evenodd" stroke="#ababab" id="C" stroke-width=".364" d="m39.821 15.01c-8.318.386-16.628 3.573-28.18 4.337-.01-.016-.021-.032-.032-.048 0 .001 0 .048 0 .049-.057.004-.112.013-.169.017.047.336.109.664.18.997 2.621 2.307 3.096 56.02.476 57.11 20.533 1.635 39.05-8.325 58.6-.755 10.188 5.243 12.389 15.202 24.768 20.717 9.08 4.04 16.08 4.647 27.03 4.931-4.157-19.777-9.852-55.59-9.537-56.13.009-.077.025-.155.032-.233-.023-.002-.041-.008-.064-.011-.004 0-.007.001-.011 0-13.567-1.437-20.309-1.297-32.548-6.75-12.379-5.515-14.581-15.474-24.768-20.717-5.735-2.951-10.761-3.743-15.782-3.51z"/><path id="D" d="m5.923 16.925l3.587-12.501 3.587 12.501v105.29h-7.174z"/><path id="E" d="M-614.72825 565.84845A18.908777 17.558151 0 1 1 -652.5458 565.84845 18.908777 17.558151 0 1 1 -614.72825 565.84845"/></defs><use fill="#00438a" xlink:href="#C"/><use opacity=".434" fill="url(#z)" xlink:href="#C"/><g fill-rule="evenodd"><path fill="url(#B)" d="m39.821 15.01c-8.318.386-16.628 3.573-28.18 4.337-.01-.016-.021-.032-.032-.048 0 .001 0 .048 0 .049-.057.004-.112.013-.169.017.047.336.109.664.18.997 2.621 2.307 3.096 56.02.476 57.11 20.533 1.635 39.05-8.325 58.6-.755 79.85 66.01 45.45-51.42-30.876-61.705"/><path fill="url(#A)" d="m39.821 15.01c-8.318.386-16.628 3.573-28.18 4.337-.01-.016-.021-.032-.032-.048 0 .001 0 .048 0 .049-.057.004-.112.013-.169.017.047.336.109.664.18.997 2.621 2.307 3.096 24.423.476 25.512 60.801-14.514 54.06 22.07 103.7 24.893-4.157-19.777-3.15-23.989-2.835-24.536.009-.077.025-.155.032-.233-.023-.002-.041-.008-.064-.011-.004 0-.007.001-.011 0-13.567-1.437-20.309-1.297-32.548-6.75-12.379-5.515-14.581-15.474-24.768-20.717-5.735-2.951-10.761-3.743-15.782-3.51"/></g><use xlink:href="#D"/><use xlink:href="#E" transform="matrix(.24138 0 0 .27081 162.28-148.21)"/><path fill="url(#c)" d="M-730.10403 207.9397A7.339204 6.605284 0 1 1 -744.78244 207.9397 7.339204 6.605284 0 1 1 -730.10403 207.9397" transform="matrix(.35659 0 0 .26464 272.35-52.46)"/><use opacity=".702" fill="url(#d)" xlink:href="#E" transform="matrix(.21871 0 0 .2403 147.92-130.95)"/><path opacity=".702" fill="url(#e)" d="m6.211 26.467c2.38-1.895 4.653-1.77 6.623-3.65v2.981c-2.208 2.206-4.415 1.331-6.623 3.65z"/><path opacity=".702" fill="url(#f)" d="m6.211 32.806c2.38-1.895 4.653-1.77 6.623-3.65v2.981c-2.208 2.206-4.415 1.331-6.623 3.65z"/><path opacity=".702" fill="url(#g)" d="m6.211 20.13c2.38-1.895 4.653-1.77 6.623-3.65v2.981c-2.208 2.206-4.415 1.331-6.623 3.65z"/><path opacity=".702" fill="url(#h)" d="m6.211 39.15c2.38-1.895 4.653-1.77 6.623-3.65v2.981c-2.208 2.206-4.415 1.331-6.623 3.65z"/><path opacity=".702" fill="url(#i)" d="m6.211 45.48c2.38-1.895 4.653-1.77 6.623-3.65v2.981c-2.208 2.206-4.415 1.331-6.623 3.65z"/><path opacity=".702" fill="url(#j)" d="m6.211 51.823c2.38-1.895 4.653-1.77 6.623-3.65v2.981c-2.208 2.206-4.415 1.331-6.623 3.65z"/><path opacity=".702" fill="url(#k)" d="m6.211 58.16c2.38-1.895 4.653-1.77 6.623-3.65v2.981c-2.208 2.206-4.415 1.331-6.623 3.65z"/><path opacity=".702" fill="url(#l)" d="m6.211 64.5c2.38-1.895 4.653-1.77 6.623-3.65v2.981c-2.208 2.206-4.415 1.331-6.623 3.65z"/><path opacity=".702" fill="url(#m)" d="m6.211 70.84c2.38-1.895 4.653-1.77 6.623-3.65v2.981c-2.208 2.206-4.415 1.331-6.623 3.65z"/><path opacity=".702" fill="url(#n)" d="m6.211 77.18c2.38-1.895 4.653-1.77 6.623-3.65v2.981c-2.208 2.206-4.415 1.331-6.623 3.65z"/><path opacity=".702" fill="url(#o)" d="m6.211 83.52c2.38-1.895 4.653-1.77 6.623-3.65v2.981c-2.208 2.206-4.415 1.331-6.623 3.65z"/><path opacity=".702" fill="url(#p)" d="m6.211 89.86c2.38-1.895 4.653-1.77 6.623-3.65v2.981c-2.208 2.206-4.415 1.331-6.623 3.65z"/><path opacity=".702" fill="url(#q)" d="m6.211 102.53c2.38-1.895 4.653-1.77 6.623-3.65v2.981c-2.208 2.206-4.415 1.331-6.623 3.65z"/><path opacity=".702" fill="url(#r)" d="m6.211 108.87c2.38-1.895 4.653-1.77 6.623-3.65v2.981c-2.208 2.206-4.415 1.331-6.623 3.65z"/><path opacity=".702" fill="url(#s)" d="m6.211 96.2c2.38-1.895 4.653-1.77 6.623-3.65v2.981c-2.208 2.206-4.415 1.331-6.623 3.65z"/><use fill="url(#t)" xlink:href="#D"/><path opacity=".698" fill="url(#u)" fill-rule="evenodd" d="m8.41 9.937l-1.722 6.991 2.755-.046.689-6.853z"/><path opacity=".698" fill="url(#v)" d="M-737.21908 254.21584A5.105321 .297135 0 1 1 -747.42972 254.21584 5.105321 .297135 0 1 1 -737.21908 254.21584" transform="matrix(.3253 0 0 .58061 249.56-130.7)"/><path opacity=".698" fill="url(#w)" fill-rule="evenodd" d="m6.705 18.908l-.017-1.98 2.755-.046-1.016 2.118z"/><path fill="url(#x)" d="M84.41379 801.51721A5.793103 2.068965 0 1 1 72.827586 801.51721 5.793103 2.068965 0 1 1 84.41379 801.51721" transform="matrix(1.45236 0 0 1.45236-104.83-1041.84)"/><path opacity=".34" fill="url(#y)" d="M154.46186 801.87805A39.872711 3.592136 0 1 1 74.71644 801.87805 39.872711 3.592136 0 1 1 154.46186 801.87805" transform="matrix(1.6241 0 0 1.6241-121.35-1179.84)"/><path opacity=".619" fill="#fff" d="m57.886 29.337c-.497.003-1.112.089-1.612.248-.792.253-1.841.951-2.158 1.393-.483.673-.699 1.075-.757 1.411-.048.28-.093.302-.172.139-.164-.333.452-2.244.953-2.976.154-.226.172-.556.028-.693-.246-.235-1.188.335-1.848 1.142-.713.872-.972 1.667-.991 3.103-.021 1.595.16 3.38.331 3.44.208.074.884-.186 1.356-.521.478-.339 1.2-.614 1.288-.498.031.04-.567.485-1.341.988-.865.563-1.445 1.019-1.482 1.166-.033.132-.118.211-.174.172-.119-.081-.281-2.738-.327-5.201-.018-.937-.05-1.659-.1-1.677-.184-.065-.655.399-.834.834-.103.25-.244.482-.288.52-.175.153-.555 1.474-.658 2.29-.197 1.557-.02 3.063.486 4.561.275.812.721 2.5.727 2.704.004.135.199.478.25.437.011-.008.254-.412.536-.881.32-.532.768-1.047 1.191-1.41.372-.319.693-.604.726-.618.053-.023 1.161-1.232 1.326-1.456.079-.107.626-1.192.833-1.632.287-.609.325-.801.176-1.069-.129-.233-.113-.288.427-.665.821-.574 1.44-1.218 1.568-1.651.06-.204.148-.436.221-.531.092-.117.116-.233.046-.325-.07-.092-.292-.065-.671.095-.565.238-1.01.453-1.259.602-.077.046-.239.082-.37.076-.131-.006-.393.058-.573.144-.384.182-.503.162-.365-.057.054-.086.22-.165.374-.175.379-.024 2.01-.908 2.286-1.24.33-.399.582-.684.805-.938zm.265.041c-.072-.003-.151-.006-.234-.003l-.05 1.255c.258-.355.417-.602.529-.715.122-.124.214-.282.213-.332-.001-.057-.019-.082-.096-.115-.083-.035-.218-.083-.364-.09m7.879 1.654c-1.129-.141-1.687-.15-1.967-.072-.065.018-.133.043-.203.068-1.082.151-2.459.533-2.87.818-.109.076-.361.222-.58.309-.574.228-2.198 1.681-2.698 2.373l-.037.925c.431-.64 1.445-1.819 1.642-1.839.151-.015 1.758 2.445 1.762 2.699.002.112-.086.241-.179.305-.306.209-1.066 1.08-1.224 1.405-.086.176-.359.661-.577 1.074-.218.413-.423.999-.485 1.287-.062.288-.219.889-.321 1.346-.101.457-.187 1.254-.237 1.758l-.103.914-.625-.23-.025.627.657.268.127 1.016c.067.549.189 1.414.29 1.939.101.525.188.967.161.989-.027.022-.194-.067-.327-.184-.246-.215-.565-.282-.563-.12.002.147-.274-.009-.327-.184-.035-.117-.094-.186-.159-.191l-.089 2.246c.047.11.056.195.057.241.001.081.049.2.09.247.128.143.18-.066.079-.32-.152-.384.032-.444.271-.091.105.156.258.317.353.354.246.097.857.85 1.209 1.483.201.361.35.556.477.606.129.051.229.187.317.415.071.184.265.452.41.595.314.31 1.059 1.483 1.068 1.694.006.149-1.498 1.392-1.622 1.343-.036-.014-.275-.34-.506-.71-.512-.821-1.285-2.357-1.61-3.174-.255-.64-.459-1.178-.635-1.66l-.039.991c.04.095.08.19.122.285.104.231.333.737.49 1.106.266.624.764 1.657 1.174 2.375.424.742 1.882 2.903 2.269 3.376.752.919 1.223 1.496 1.593 1.908.152.286.282.511.344.585.09.107.266.356.378.557.291.518.874 1.352 1.17 1.643.139.136.355.361.481.506.126.145.366.358.515.479.149.12.301.278.353.354.16.231 1.88 1.131 2.355 1.229.235.049.442.088.464.072.023-.016.204-.005.399.029.215.038.434.022.669-.029l.024-.594c-.038-.011-.09.009-.135.045-.05.04-.218.067-.37.076-.152.009-.368.05-.47.06-.287.028-1.627-.482-1.776-.674-.042-.054-.082-.461-.075-1.474.012-1.596.009-1.557.485-1.287.335.19 1.06.373 1.255.328.108-.025.132.01.194.163.042.105.14.234.19.262.137.079.484-.146.82-.471l.27-6.803c-.075-.125-.057-.338.031-.793.015-.077-.001-.111.007-.165l.012-.297c-.007-.076.001-.147-.023-.269-.04-.204-.095-.404-.117-.417-.101-.058.047-.552.197-.767l.237-5.977c-.004-.013.006-.021.001-.033-.05-.124-.119-.312-.118-.384.001-.072-.026-.193-.089-.28-.063-.087-.14-.238-.154-.323-.02-.122-.03-.129-.097-.081-.103.074-.205-.118-.309-.613-.038-.181-.113-.395-.148-.488-.053-.144-.032-.22.085-.452.194-.385.757-1.202.814-1.17.02.011.086.146.154.323l.059-1.486c-.05.023-.091.018-.097-.081-.003-.041.004-.144.009-.231.005-.087-.023-.314-.08-.511-.102-.352-.103-.385-.015-.467.032-.03.067-.048.102-.051.035-.002.064.027.098.048.015.01.017.024.032.038l.138-3.467c-.002.213-.005.252-.206.134-.12-.07-.301-.144-.394-.161-.137-.025-.237-.125-.481-.506-.418-.654-.644-.948-1.016-1.32-.176-.177-.406-.441-.544-.583-.139-.142-.465-.385-.68-.537l-.39-.26.023-1.425.025-1.458.36.189c.026.013.037.027.065.043.199.113.457.3.616.461.176.179.482.465.676.636.458.405.782.833 1.555 2.035.168.262.318.503.347.519.012.007.085.154.125.219l.018-.462c-.407-.668-.821-1.35-1.01-1.585-.259-.33-1.155-1.322-1.759-1.934-.177-.179-.635-.465-1.106-.736-.47-.271-.942-.517-1.114-.538m-.781.344c.189.043.436.101.563.12.127.02.463.155.723.278l.459.204-.049 2.916-.361-.156c-.202-.084-.487-.176-.626-.197-.139-.02-.428-.063-.63-.098-.202-.035-.376-.033-.401.004-.025.037-.068.07-.102.051-.083-.048-.695.214-1.12.458-.231.062-.445.122-.574.177-.287.121-.767.366-1.056.534-.289.169-.55.296-.612.271-.062-.025-.475-.622-.916-1.305-.441-.683-.813-1.298-.814-1.356-.003-.163 1.179-.846 2.084-1.205.099-.039.372-.143.61-.238.238-.095.598-.181.775-.179.176.003.325-.02.369-.042.022-.011.186-.013.268-.025.175-.065.493-.158.776-.212.154-.029.445-.045.634-.001m3.093 2.805c-.076-.012-.144-.016-.234-.003-.148.021-.329.012-.399-.029-.157-.09-.368-.075-.369.042 0 .048.048.157.092.214.044.056.107.166.157.257.243.443.342.54.256.272-.03-.093-.028-.257-.019-.368.015-.181.035-.179.303-.053.535.252.765.235.604-.073-.039-.074-.122-.153-.192-.196-.058-.036-.122-.051-.198-.064m-2.368.796c.147.031.286.073.429.133.202.085.404.189.491.242.029.018.027.03.032.038.019.033.049.68.043 1.435-.011 1.558-.048 1.57-.421 1.363-.374-.206-1.444-.179-1.637.045-.038.044-.155.101-.272.124-.117.023-.342.166-.48.324-.329.378-.504.5-.618.436l.001-.033c-.117-.075-.482-.525-.92-1.206-.418-.649-.749-1.224-.75-1.279-.003-.168.707-.687 1.032-.77.156-.04.486-.181.78-.311.012-.011.022-.017.034-.028.179-.157.399-.299.513-.319.114-.02.253-.069.304-.086.521-.17.998-.201 1.44-.109m5.073.853l-.018.462c.104.1.208.147.354.321.248.293.499.605.574.687.075.082.265.339.445.567.18.229.488.589.669.802.57.67 1.058 1.483 1 1.684-.058.206-1.2 1.077-1.342 1.021-.053-.021-.2-.281-.312-.547-.113-.266-.393-.792-.653-1.198-.26-.405-.468-.779-.469-.804 0-.024.033-.011.1.015.181.071.125-.195-.082-.445-.195-.235-.311-.307-.358-.222l-.143 3.6c.228.137.433.423.438.732.004.24-.298.484-.488.522l-.059 1.486c.309.464.774 1.267.842 1.493.045.149.097.469.073.676-.039.339-.037.386.145.554.291.269.619.916.773 1.549.132.542.101.545-.098.782-.111.132-.181.287-.18.338.003.179-.346.124-.431-.067-.028-.064-.004-.23.049-.391.088-.269.07-.325-.109-.615-.252-.408-.331-.443-.593-.192-.174.167-.241.176-.336.048-.065-.088-.119-.227-.121-.318-.001-.082-.076-.233-.153-.356l-.237 5.977c.06-.047.15-.098.204-.101.104-.006.208-.019.236-.063.028-.044.169-.043.333.018.436.163 1.014.086 1.04-.138.012-.101.083-.18.174-.172.257.021.082-.253-.189-.295-.341-.053-.42-.163-.701-.84-.244-.589-.326-.824-.134-.818.064.002.132.024.264.074.122.046.27.124.459.204l.887.37.002.798c-.006 1.154-.247 2.039-.935 3.377-.346.672-1.071 1.44-1.256 1.367-.047-.018-.105-.216-.149-.455-.061-.339-.104-.457-.246-.537-.034-.019-.072-.057-.097-.081l-.27 6.803c.192-.096.385-.199.547-.314.135-.096.382-.192.509-.22.326-.073 1.304-.584 1.534-.792.105-.096.226-.176.273-.157.175.071 1.694 2.448 1.697 2.655.004.243-1.133.976-1.918 1.231-.282.092-.638.207-.779.278-.269.135-.807.265-.91.224-.034-.013-.262.019-.503.055-.24.036-.475.04-.535.017-.006-.002-.026-.004-.033-.005l-.024.594c.332-.02.701-.058 1.04-.138.27-.064.581-.135.706-.123.239.023 1.12-.273 1.658-.574.175-.098.412-.216.544-.248.419-.102 2.28-1.639 2.727-2.269.125-.176.177-.297.285-.454l.003-.066c.558-.676.948-1.231 1.13-1.553.227-.403 1.146-2.573 1.143-2.714-.002-.073.046-.314.121-.513.365-.976.39-4.652.045-7-.177-1.203-.791-3.322-1.174-4.07-.062-.121-.184-.442-.271-.74-.087-.298-.207-.639-.271-.74-.007-.012-.016-.045-.031-.071-.059-.124-.111-.284-.182-.46-.153-.38-.723-1.628-1.075-2.36-.507-1.055-2.326-4.01-2.729-4.41-.13-.13-.401-.472-.604-.758-.203-.286-.546-.668-.733-.878-.209-.234-.673-.687-1.091-1.1m-17.823-2.564c.209.074.195.431-.016.396-.136-.022-.178-.059-.158-.224.014-.117.094-.201.174-.172m14.03 2.308c.014-.003.064-.002.1.015.249.125.943.727 1.227 1.054.466.537.604.686.765.916.366.525.532.795.531.913-.001.071.043.264.117.417.074.152.132.362.148.488.016.126.084.436.141.653.073.276.121.544.129.95.01.538-.028.605-.123.579-.071-.02-.118-.174-.215-.465-.151-.452-.252-.568-.254-.338-.001.079.037.162.06.175.023.013.067.225.082.445.016.219.025.43.048.473.05.094.072.27.024.236-.019-.013-.135-.267-.246-.537-.166-.404-.178-.501-.113-.516.093-.021.105-.345.016-.396-.034-.019-.125.028-.171.106-.1.168-.252.081-.393-.194-.2-.39-1.09-1.427-1.467-1.723-.21-.164-.39-.345-.418-.397-.071-.133-.059-2.842.013-2.855m-9.57-1.085c-.055.063-.18.152-.208.2-.074.125-.26.396-.424.599-.755.931-.973 1.303-1.436 2.535-.829 2.207-.969 3.197-.896 5.742.065 2.256.261 3.536.856 5.349.608 1.855.957 2.778 1.391 3.638l.039-.991c-.549-1.259-.858-2.148-1.168-3.371-.44-1.735-.764-4.01-.604-4.114.033-.022.413.098.924.276.17.059.336.11.527.181l.592.225.025-.627-.658-.235c-.777-.261-1.416-.499-1.447-.557-.094-.178.054-2.298.219-2.99.44-1.845.873-2.977 1.345-3.613.099-.133.215-.294.248-.36.033-.067.116-.182.176-.238.061-.057.148-.24.216-.398.029-.068.149-.207.247-.327zm17.647 2.803c-.061-.024-.095-.019-.134.012-.103.083-.083.142.117.417.125.172.492.922.835 1.658.472 1.012.939 1.81 1.466 2.586.423.527.861 1.034 1.406 1.58.202.202.379.425.381.491.006.173-.03.145-.453-.369-.209-.255-.508-.52-.644-.598-.136-.078-.469-.413-.738-.746-.546-.788-1.183-1.535-1.34-1.57-.023-.005-.035 0-.034.028.001.031.114.377.237.768.182.582.611 1.536 1.075 2.36l-.001.033c.008.014.024.024.032.038.183.269.367.533.538.748.454.574.469.59.337.75-.125.152-.098.251.103.78.122.322.276.781.36 1.019.264.75.702 1.635 1.078 2.261.2.332.441.823.558 1.083.117.26.312.559.408.661.157.169.887 1.28 1.481 2.223.127.203.461.841.744 1.444.493 1.052.521 1.107.631.928.063-.103.217-.551.339-.977.123-.427.315-.987.417-1.264.556-1.506.51-3.853-.131-5.935-.383-1.244-1.381-3.287-1.635-3.377-.048-.017-.068.796-.039 1.821.082 2.909.071 4.845-.059 4.842-.062-.001-.128-.025-.13-.087-.006-.215-.44-.893-1.86-2.747-1.135-1.482-1.388-1.813-1.137-1.638.174.121.674.68 1.119 1.237.962 1.203 1.437 1.682 1.602 1.677.234-.007.235-3.698.005-4.319-.063-.169-.188-.631-.292-1.042-.126-.493-.357-1.028-.671-1.599-.533-.971-1.717-2.61-1.962-2.697-.245-.087-.28.183-.09.584.094.198.249.495.34.684.503 1.048.87 2.757.508 2.338-.081-.094-.15-.236-.154-.323-.004-.087-.175-.458-.369-.788-.195-.33-.424-.748-.53-.946-.146-.273-.777-1.01-1.369-1.674-.267-.354-.514-.708-.698-.906-.207-.221-.677-.647-1.03-.957-.354-.311-.513-.454-.615-.494m-20.784-1.96c.017-.012.04.001.066.01.123.044.149.105.028.137-.052.014-.129-.031-.13-.087-.001-.028.019-.049.036-.061m6.914 1.57c.163.066 1.76 2.476 1.763 2.666.001.072-.201.298-.42.5-.22.201-.446.53-.529.715-.083.185-.328.543-.5.82-.172.277-.294.57-.293.652.001.083-.025.267-.082.386-.113.235-.25.806-.375 1.869-.145 1.233.076 1.168-1.293.63-.658-.258-1.252-.521-1.279-.564-.056-.086-.004-.758.094-1.514.183-1.417.221-1.709.352-2.138.078-.257.225-.597.297-.751.689-1.483.951-1.996 1.366-2.446.265-.288.551-.596.629-.7.078-.104.196-.155.272-.124m4.739 1.698c.117.023.236.058.362.123l.36.189.011 1.397c.003 1.604-.003 1.617-.389 1.402-.128-.071-.301-.095-.365-.057-.064.039-.15.029-.2.002-.157-.082-.912.301-1.056.534-.075.122-.181.216-.208.2-.027-.016-.255-.604-.515-1.309l-.45-1.266.142-.211c.428-.509.555-.637.661-.662.062-.014.175-.074.273-.157.098-.083.31-.164.44-.164.131 0 .379-.019.569-.045.119-.016.249 0 .366.024m-18.457-2.563c-.075-.027-.182.032-.207.167-.073.397-.014 2.01.086 2.871.079.673.194 1.18.682 2.997.031.115.079.25.121.318.042.067.184.384.306.712.208.561.718 1.538 1.305 2.429.142.216.363.619.465.903.188.525.541 1.111.721 1.175.054.019.184-.093.277-.256.093-.163.232-.48.296-.718.064-.239.331-.859.622-1.366.291-.507.544-.987.542-1.046-.002-.058.038-.158.11-.249.318-.399.772-3.523.601-4.193-.112-.436-.339-.384-.573.144-.116.261-.399.636-.601.837-.202.201-.468.556-.598.771-.331.546-.857 1.855-.851 2.094.009.322-.17.636-.324.581-.09-.032-.173-.192-.216-.432-.228-1.274-.429-1.918-.913-3.066-.162-.384-.27-.716-.271-.74-.001-.024-.153-.299-.311-.58-.158-.281-.324-.691-.397-.925-.073-.235-.192-.488-.244-.57-.074-.115-.491-1.643-.496-1.805-.001-.02-.056-.027-.131-.054m19.474 3.02l.357.255c.302.187.498.353.804.756.218.286.441.551.478.573.037.021.168.231.315.481.147.25.328.565.406.694.138.229.3.571.646 1.396l.185.394-.497.754c-.269.402-.531.694-.561.677-.03-.017-.115-.24-.214-.498-.263-.686-1.226-2.037-1.58-2.239-.093-.053-.224-.188-.289-.277l-.094-.148.022-1.392zm7.307 1.764c.215.081 1.827 3.11 2.174 4.092.032.091.124.306.214.498.158.339.309.819.481 1.337l-.001.033c.005.015.027.023.032.038.376.948.762 2.113 1.102 3.361.226.833.412 1.993.482 2.999l.039.704-1.416-.485c-.276-.093-.314-.114-.494-.176l-.001.033c-.579-.223-.758-.336-.814-.525-.04-.135-.086-.6-.125-1.049-.082-.949-.432-2.532-.844-3.952-.094-.325-.191-.765-.195-.961-.006-.264-.098-.562-.388-1.157-.504-1.032-1.493-2.8-1.59-2.838-.041-.016-.143-.169-.22-.333l-.122-.285.795-.674c.453-.367.859-.672.894-.659m-10.989-.674l.246.537c.125.292.346.86.484 1.271l.238.735-.11.249c-.063.121-.169.357-.221.531-.11.361-.305.625-.46.66-.063.014-.082.086-.074.188.008.116-.073.225-.247.327-.031.018-.041.064-.07.089-.38.167-.636.504-.637.898 0 .131-.102.318-.183.404-.123.129-.203.129-.6-.027-.263-.103-.526-.239-.556-.286-.145-.225-.015-.948.366-2.502.214-.872.899-2.181 1.407-2.639l.381-.34zm2.558 1.992c.224-.009.447.061.628.164l.196.097-.044 2.784-.167.007c-.106-.009-.209-.083-.26-.173-.067-.118-.111-.097-.273.157-.109.171-.234.315-.279.289-.045-.026-.275-.59-.518-1.243-.243-.653-.449-1.243-.449-1.299.001-.156.168-.342.524-.583.174-.118.418-.191.642-.199m1.052.396l.195.13c.254.146.903.781.996.985.037.082.16.311.28.509.12.197.275.505.34.684l.121.318-.133-.021c-.068-.003-.147.058-.172.139-.025.081-.082.16-.139.145-.057-.016-.096.03-.105.117-.021.198.052.266.162.125.049-.063.121-.071.167-.007.069.094.048.131-.079.32-.137.204-.124.219-.235.03-.134-.227-.191-.163-.244.261-.051.406-.066.426-.148.376-.045-.028-.132-.163-.189-.295-.056-.132-.123-.281-.154-.323-.045-.06-.04-.091.007-.165.082-.131.076-.618-.007-.666-.036-.021-.119.077-.175.205-.09.206-.137.207-.304.086l-.195-.13.023-1.425zm4.175.78l.287.344c.137.172.284.327.353.354.069.027.172.163.222.3.107.293.687 1.051 1.079 1.397.178.157.395.459.599.89.326.69.315.679.807.69.144.003.203.082.348.486.15.418.436 1.815.702 3.332.07.4.121 1.188.106 1.545-.004.088-.28-.027-1.186-.383-1.078-.424-1.204-.46-1.244-.625-.11-.456-.173-1.59-.095-1.809.091-.257.002-1.301-.113-1.347-.038-.015-.043.061-.041.193.004.267-.122.298-.202.035-.115-.38-.086-.653.09-.584.153.06.169.028.113-.315-.034-.21-.071-.454-.112-.549-.061-.141-.128-.153-.167.007-.026.107-.029.198-.041.193-.012-.005-.14-.162-.285-.377-.189-.279-.239-.467-.21-.597.068-.305-.149-.694-.402-.793-.183-.072-.235-.143-.316-.448-.054-.204-.214-.558-.369-.788-.334-.495-.352-.687-.096-.945zm9.214 1.661c.096.041.146.185.151.389.007.247-.085.23-.267-.008-.159-.209-.183-.364-.019-.368.044-.001.102-.026.134-.012m-15.853-1.727c.061.035.698 1.645.697 1.769-.001.082-.102.196-.139.145-.004-.006-.063-.097-.126-.186-.063-.088-.18-.292-.248-.47-.089-.232-.169-.351-.284-.41-.088-.045-.178-.14-.192-.196-.029-.115.228-.689.293-.652m7.412 1.648c-.029-.012-.071.022-.07.089.002.112.263.574.312.547.018-.01-.026-.158-.088-.313-.071-.178-.105-.303-.154-.323m-1.293.63c-.068.01-.121.09-.145.277l-.041 1.024c.049-.006.109-.021.169-.04.226-.075.212-.079.078-.287-.134-.208-.13-.235.046-.325.232-.12.203-.542-.041-.638-.03-.012-.044-.014-.066-.01m-.178.271c-.016.181-.064.399-.121.513-.166.338-.114.577.08.511zm-1.345.257c.014.008.023.014.032.038.048.13-.052.392-.148.376-.055-.009-.038-.062-.027-.17.017-.153.082-.278.143-.244m-2.523-.358c.008-.013.021-.002.033.005.025.014.063.057.062.109 0 .052-.011.075-.036.061-.025-.014-.063-.057-.062-.109 0-.026-.006-.054.003-.066m2.707.752c.005-.008.024 0 .033.005.066.035.216.35.215.465-.002.302-.263.452-.273.157-.007-.195.005-.596.025-.627m-21.565-3.311c-.07.046.2 1.585.38 2.186.449 1.493.79 2.49 1.109 3.162.367.773 1.607 2.643 2.11 3.185.153.165.407.445.543.616.136.171.621.78 1.082 1.331.461.551.84 1.018.859 1.064.065.159.317.175.366.024.027-.084.022-.764-.006-1.529-.048-1.285-.03-1.891.203-3.424.135-.887-.089-2.529-.571-4.109-.235-.771-.389-1.149-.519-1.21-.03-.014-.073-.036-.1-.015-.106.081-.504 1.878-.69 3.083-.093.607-.025 2.094.143 3.112.056.341.032.426-.082.386-.079-.028-.156-.125-.191-.229-.212-.621-.962-1.92-1.779-3.1-1.455-2.098-1.827-2.684-1.98-3.098-.281-.76-.746-1.519-.878-1.432m18.875 2.96c.021.01.052.08.093.181.055.136.174.35.282.476.107.125.275.406.374.656.176.442.195.475.19 1.093-.004.52 0 .702.092 1.044.235.873.146 1.882-.168 1.702-.177-.102-.304.009-.386.472-.032.179-.095.361-.15.409-.096.084-.31.001-.427-.166-.035-.05-.04-.17-.021-.302.024-.176.023-.196-.057-.241-.054-.031-.154-.031-.2.002-.066.048-.096-.007-.192-.196-.164-.319-.15-.453.082-.386.295.085.532-.292.537-.914.004-.546-.423-1.499-.737-1.61-.052-.018-.144-.129-.19-.262-.076-.22-.092-.254-.023-.269.042-.009.141.035.196.097.1.112.203.061.204-.101 0-.047-.06-.164-.124-.252l-.094-.148.114-.348c.086-.259.147-.314.313-.317.167-.003.197-.051.21-.233.02-.287.046-.402.082-.386m-3.394-.26c.088.05.21.39.209.63-.002.205-.05.224-.206.134-.068-.039-.091-.082-.129-.12-.029-.018-.089-.034-.098-.048-.119-.184-.033-.485.123-.579.031-.035.066-.037.101-.018m-4.918-.563l1.218.421c.168.062.299.117.427.166.897.341.885.407.896.97.006.328-.06.447-.327.68-.522.455-.696.791-.687 1.322.012.714-.303.939-.789.542-.188-.154-.251-.247-.365-.887-.183-1.024-.323-2.049-.361-2.681zm2.893 1.113l.427.166c.444.144.501.197.348.486-.046.087-.072.24-.046.325.067.222.557.027.61-.238.034-.169.122-.155.535-.017.015.007.017-.003.033.005l.295.145-.01.264c-.001.149-.018.315-.048.358-.04.059-.007.169.082.445.066.203.112.45.112.549-.001.173.057.545.213 1.362.076.398.111.611.342 1.482.079.297.141.589.141.653-.001.164-.841 1.399-.922 1.352-.037-.021-.096-.105-.126-.186-.03-.08-.046-.339-.044-.572.002-.264-.043-.541-.103-.78-.076-.305-.086-.492-.065-.874.016-.293.002-.491-.037-.737-.03-.099-.03-.174-.088-.313-.135-.326-.261-.72-.264-.905-.004-.223-.07-.404-.179-.526-.088-.099-.204-.397-.274-.674-.043-.173-.099-.253-.122-.285-.005.421-.379.391-.633-.032-.108-.18-.12-.416-.133-.851zm4.199 1.847c.016.007.039.046.062.109.029.079.081.16.126.186.109.062.102.204-.01.264-.137.073-.193.016-.223-.267-.022-.211.01-.308.045-.292m-.435.032c.022 0 .049-.001.066.01.058.038.087.158.055.308-.029.134-.3.029-.296-.112.001-.039.042-.122.107-.183.024-.023.046-.022.068-.023m21.13 3.442c-.121-.029-.251.287-.37.906-.05.261-.635 1.425-.87 1.726-.048.061-.128.169-.178.271-.049.103-.172.39-.292.619-.119.229-.293.598-.366.807-.261.754-.376 1.245-.428 1.529-.029.159-.098.297-.146.31-.102.027-.294-.472-.303-.778-.012-.431-1.179-3.223-1.615-3.872-.144-.214-.418-.752-.62-1.193-.202-.44-.439-.834-.499-.875-.202-.137-.21.379-.067 1.684.151 1.375.356 2.285.681 3.03.11.251.178.487.179.526.001.04.207.533.457 1.101.25.568.584 1.357.731 1.775.465 1.326.669 1.762.831 1.757.081-.002.147-.014.167-.007.02.007.182-.259.357-.576.175-.317.392-.66.497-.754.949-.843 1.509-1.776 1.937-3.388.188-.707.274-3.466.132-4.166-.054-.267-.144-.415-.216-.432m-22.959-3.527c-.025-.011-.056.067-.107.183-.115.146-.102.168-.01.264.007.013-.011.016-.001.033.093.163.14.084.143-.244.001-.137.001-.226-.024-.236m2.881.58c.127.073.157.171.084.412-.036.12-.081.292-.082.386-.001.153-.29.68-.359.642-.015-.008-.08-.125-.124-.252-.089-.26-.044-.424.081-.353.092.053.327-.461.329-.713.001-.093.023-.15.072-.122m-2.262-.185c.004-.006.025.003.033.005.12.037.658.946.688 1.17.021.155.067.206.191.229.15.027.141.003.153.356.006.199.057.415.082.445.025.029.116-.132.215-.365.188-.445.243-.455.299.046.02.181-.043.353-.437.929l-.496.721-.207-.663c-.2-.607-.31-1.194-.472-2.399-.032-.24-.06-.454-.048-.473m8.715 1.617c.081.028.153.173.121.318-.02.088.019.244.085.379.067.135.095.333.082.445-.021.192-.063.198-.766-.052-.449-.16-.753-.293-.754-.349-.001-.052.058-.101.105-.117.047-.016.106-.135.143-.244.045-.131.188-.178.407-.169.182.007.381-.053.439-.131.047-.063.088-.095.137-.078m-9.369-1.12c-.017.005-.039.056-.04.16-.001.134.031.26.056.274.025.014.039-.058.04-.16.001-.102.002-.222-.023-.269-.006-.012-.028-.007-.033-.005m-6.111-.781c-.063-.005-.112.035-.237.096-.201.097-.225.224-.233.828-.008.625.001.732.225 1.065.059.088.113.172.157.257zm8.665 2.872l.219.366c.124.207.236.422.248.47.012.049.13.164.256.272.267.229.325.372.211.564-.077.13-.087.153-.014.363.042.123.066.355.079.544.022.322.03.378-.115.381-.13.002-.165.048-.179.305-.009.168.016.373.048.473.048.15.063.196-.01.264-.117.109-.195.071-.584-.423-.182-.231-.371-.526-.441-.666-.07-.141-.26-.484-.404-.76-.155-.299-.241-.569-.24-.669.001-.092.208-.464.467-.825zm7.759 1.303c.071-.006.162.031.297.079.181.065.441.185.788.322.91.357 1.205.495 1.212.587.027.375-.006 1.211-.06 1.519-.437 2.462-.57 2.833-1.483 4.555-.242.457-1.34 1.716-1.468 1.666-.035-.013-.111-.114-.126-.186-.092-.44-.307-1.293-.377-1.421-.121-.219-.372-.297-.462-.138-.069.122-.121.09-.419-.364-.184-.279-.34-.577-.341-.651-.001-.074.17-.304.387-.505.217-.201.42-.414.419-.467-.001-.053.074-.251.219-.464.417-.615.673-1.148.768-1.675.048-.269.144-.638.199-.8.055-.162.129-.602.173-1 .08-.724.062-1.036.276-1.054m2.824 1.169c.023-.036.352.07.759.217l.001-.033c.156.053.29.111.461.171.702.248 1.406.516 1.445.59.097.183-.076 2.267-.253 3.02-.503 2.123-.951 3.171-1.986 4.61-.008.011-.026.017-.034.028l-.004.099c-.63 1.016-1.625 2.128-1.85 2.039-.031-.012-.442-.604-.915-1.338l-.848-1.328.244-.261c.411-.366.924-.923 1.048-1.167.06-.117.261-.489.467-.825.587-.959 1.176-3.02 1.321-4.68.052-.596.12-1.1.145-1.14m-21.375-3.049c-.134.046-.134.523.019 2.03.245 2.411.37 3.12.647 3.888.335.928.508 1.439.509 1.474.002.091-.688-.631-1.122-1.171-.271-.338-.638-.75-.799-.888-.161-.138-.478-.498-.735-.812-.258-.314-.747-.819-1.057-1.127-.666-.663-1.66-1.966-2.253-2.941-.271-.445-.512-.753-.636-.796-.269-.095-.243.275.087 1.176.146.4.336.923.421 1.162.085.239.239.51.309.613.07.103.169.401.242.636.15.485.814 1.732 1.429 2.68.582.898 1.576 1.944 2.179 2.298.467.274 1.387.874 2.408 1.57l.252-6.341c-.717-1.591-1.529-3.242-1.734-3.392-.038-.028-.069-.037-.098-.048-.026-.01-.047-.017-.066-.01m12.09 2.307c.015.04.007.104-.007.165-.003-.018-.03-.032-.031-.071-.001-.058.029-.076.037-.094m-2.473.082c.042.024.149.189.219.366.183.463.696 1.393.872 1.564.297.288.41.634.238.735-.075.044-.238.73-.24.993-.001.074.059.412.138.719.102.396.194.64.333.849.108.162.187.304.187.328-.001.082-.487-.225-.553-.352-.037-.07-.204-.302-.381-.491-.399-.426-1.063-1.522-1.441-2.383-.331-.755-.365-.845-.364-.92.001-.149.917-1.45.991-1.408m3.793 1.153c.021.01.014.014.032.038.06.082.072.148-.042.226-.172.117-.198.082-.196-.097.001-.148.117-.212.207-.167m-10.288-1.496c-.052.024-.087.126-.042.226.077.172.2.222.198.064-.001-.076-.049-.2-.09-.247-.012-.014.013-.027.001-.033-.021-.011-.049-.018-.066-.01m22.724 3.557c-.129-.03-.271.24-.468.858-.404 1.266-.537 2.799-.351 3.8.322 1.73.402 2.345.424 3.621.023 1.359.048 1.739.196 1.791.041.014.249-.043.474-.159.225-.116.734-.396 1.126-.623.393-.227.833-.448.954-.483.356-.105 1.671-1.217 1.899-1.599.241-.405.874-1.892 1.068-2.526.166-.542.328-1.915.247-2.02-.118-.155-.39.11-.833.801-.282.44-.685.873-1.115 1.189-1.044.767-1.986 1.681-2.048 1.975-.03.145-.106.302-.18.338-.074.036-.143.105-.141.178.002.073-.052.109-.137.078-.127-.045-.156-.132-.116-.45.116-.917.117-2.374-.012-3.059-.255-1.361-.779-3.469-.891-3.627-.028-.039-.067-.074-.097-.081m-13.586-1.675c.064-.01.127.042.256.272.174.309.176.344.258.239.047-.061.139-.059.167-.007.028.052.062.058.1.015.037-.042.109-.038.166.026.057.064.18.122.263.107.059-.01.103-.032.134-.012.031.019.04.05.062.109.084.226-.03.351-.658.596-.266.104-.395.011-.457-.27-.038-.174-.103-.238-.287-.344-.224-.129-.202-.117-.186-.361.01-.16.032-.301.114-.348.03-.017.046-.019.068-.023m3 .93l-.012.297c.022-.096.028-.211.012-.297m-13.331-1.369l-.252 6.341c.203.159.367.284.583.456.856.683 1.024.802 1.108.67.029-.046.023-.502-.059-1.039-.081-.537-.22-1.395-.293-1.873-.155-1.014-.157-1.38-.047-1.336.044.017.093.163.121.318.028.155.066.36.082.445.061.314.575 2.086.734 2.539.09.257.177.502.178.559.001.086.902 1.907 1.236 2.484.128.22.049.236-.135.045-.234-.241-1.623-1.31-1.781-1.373-.078-.031-.36-.193-.587-.357-.227-.164-.6-.406-.846-.563-.182-.116-.182-.157-.324-.25l-.083 2.08c.166.18.315.376.479.539.321.32 1.118.85 2.243 1.511.304.178.739.285 1.981.54.483.099.855.15 1.194.185.267.018.454-.004.471-.093.009-.047-.14-.535-.324-1.08-.044-.13-.049-.196-.088-.313-.553-.961-.861-1.587-1.045-2.255-.083-.3-.324-.927-.546-1.381-.445-.911-2.905-4.727-3.02-4.688-.039.014-.041.084-.04.16.005.272-.125.097-.284-.41-.165-.525-.408-1.195-.66-1.863m4.702.962c.149.059.345.376.282.476-.054.085-.102.066-.264-.074-.138-.12-.156-.456-.017-.401m7.553 1.437c.012-.003.017-.001.033.005.116.045.325.306.317.415-.008.123-.051.088-.23-.102-.189-.201-.222-.295-.121-.318m-5.28-.686c.01.005.016.016.032.038.042.057.1.14.125.219.077.243.722 1.296 1.034 1.689.163.205.33.448.38.524.204.308.472.572.866.898l.419.364-.023 1.425.01 1.43-.295-.145c-.152-.081-.334-.226-.422-.298-.143-.116-.387-.342-1.058-1.094-.113-.127-.224-.31-.252-.371-.028-.062-.185-.222-.319-.382-.268-.321-.593-.912-.968-1.679-.135-.277-.282-.53-.312-.547-.037-.021-.166-.357-.306-.712-.308-.452-.625-.94-.627-1.028-.003-.203.207-.156.498.077.054.043.11.062.163.092.082.071.168.114.329.117.155.003.339.039.43.1.21.141.316.001.285-.454-.015-.218-.018-.278.01-.264m-2.062.644c.048.019.225.241.381.491.132.211.362.528.57.786.021.045.041.103.061.142.125.248.363.712.526 1.045.163.333.29.635.308.646.018.011.194.236.38.524.831 1.293 1.573 2.095 2.303 2.517.156.09.291.222.323.283.044.084.057.466.039 1.535-.019 1.179-.031 1.408-.088 1.382-.038-.017-.207-.12-.358-.222-.479-.322-1.183-.932-1.42-1.217-.525-.631-.881-1.11-1.236-1.654-.079-.121-.172-.218-.191-.229-.046-.026-.443-.729-.594-1.022-.029-.056-.126-.213-.187-.328-.141-.157-.259-.284-.416-.463-.69-.787-2.052-2.656-2.09-2.849-.032-.164 1.531-1.429 1.69-1.366m8.817 2.397c.113.027.262.201.576.621.339.454.451.704.495.974.072.437.242.707.502.809.108.042.226.117.227.168.004.24-1.297 1.02-1.539.924-.036-.014-.055-.106-.057-.241-.002-.135-.065-.359-.114-.483-.072-.182-.041-.289.119-.48.348-.415.328-.596-.056-1.105-.373-.494-.456-.831-.324-1.08.047-.09.104-.122.171-.106m-4.196-.252c.017-.012.037-.006.066.01.088.049.222.208.222.3-.001.115-.177.021-.261-.14-.045-.087-.066-.142-.027-.17m.592.225c.021-.006.068-.002.1.015.132.076.241.342.183.427-.04.059-.256-.041-.295-.145-.055-.149-.052-.28.012-.297m12.485 2.501c-.085-.03-.279.093-.411.269-.132.175-.351.462-.492.621-.506.572-1.562 2.613-1.663 3.198-.075.437-.248.34-.261-.14-.002-.079-.018-.114-.027-.17l.005-.132c-.01-.023.014-.062.003-.066-.045-.018-.383.209-.72.486-.337.278-.825.606-1.065.765-.24.159-.488.387-.553.479-.065.092-.261.37-.459.627-.404.524-.572.806-.792 1.439-.098.283-.343.616-.705.954-.669.624-.806.842-.707.987.13.19.859.724 1.525 1.1.356.201.885.497 1.175.681.545.345 1.144.563 1.975.705l.001-.033c.173.029.338.057.531.082 1.879.244 3.903-.487 5.114-1.865.355-.404.299-.631-.108-.648-.244-.01-.598.054-1.076.199-.672.204-1.099.263-1.477.203-.29-.046-.741-.105-.997-.121-.256-.016-.526-.061-.63-.098-.182-.064-.7-.124-1.295-.168l-.001.033c-.317-.018-.625-.023-1-.022-.496.001-.898-.026-.898-.073-.001-.047.103-.187.247-.327.495-.484.75-.833 1.025-1.436.266-.582.717-1.922.794-2.336.015-.082.014-.137.04-.16.054.126-.021 1.4-.124 2.273l-.034.859c-.024.153-.03.276-.014.363l-.003.066c.12.187.437.244 1.159.246.446.001 1.038.016 1.3.035.263.02.664.04.9.04.236 0 .631.004.866.035.509.067 1.258-.072 1.615-.314.926-.631 1.376-1.144 1.853-2.105.11-.222.255-.427.32-.482.065-.055.178-.277.252-.459.074-.183.241-.57.368-.873.427-1.019.138-1.454-.534-.847-.373.337-.391.377-.866.796-.257.227-2.068.995-3.226 1.394-.213.073-.576.256-.783.377-.207.121-.498.259-.646.299-.269.072-.255.07-.195-.13.033-.11.133-.353.221-.531.352-.711.432-1.272.48-2.85.027-.883.073-1.954.094-2.378.034-.669.035-.799-.1-.846m-12.519-1.642l.296.112c.097.033.174.066.23.102.093.06.133.136.222.3.259.482.356.729.323 1.113-.037.428.026.701.255 1.136.101.191.159.398.149.455-.033.184-.471.164-.966-.05-.397-.172-.5-.222-.52-.346-.013-.083-.02-.768-.007-1.496zm-14.1-1.355c-.053-.005-.078-.012-.101.018-.097.127.734 1.504 1.567 2.569.556.711 1.349 1.554 2.145 2.293l.083-2.08c-1.095-.622-1.451-.855-2.079-1.452-.415-.395-.867-.845-.996-.985-.191-.207-.46-.347-.62-.362m4.426 7.07c-.025.006-.036.033-.036.061.001.074.116.243.284.41.168.167.348.378.416.463.068.085.281.299.482.473.201.174.512.413.646.532.709.629 2.049 1.343 3.201 1.759.302.156.584.256.791.256.127 0 .534-.021.902-.026 1.165-.015 1.307-.01 1.566.077l.263.107-.139.145c-.068.083-.307.304-.553.479-.498.354-.967.76-1.317 1.225-.252.334-.267.509-.035.892.211.349.383.354.567.021.304-.55.811-1.203 1.162-1.514.188-.167.406-.404.487-.489.311-.332.44-.349.807-.141l.36.189.464.936c.254.513.505 1.088.584 1.254.184.382.602 1.369.942 2.339.136.389.18.562.24.669l.055-1.387c-.388-.883-.921-2.01-1.327-2.731-.115-.205-.244-.468-.278-.575-.057-.178-.019-.173.232.036.255.212.384.352 1.151 1.275.072.087.182.221.287.344l.081-2.047c-.246-.168-.503-.36-.78-.52-.608-.352-1.191-.635-1.344-.607-.389.071-.699.03-.861-.167-.672-.819-.712-.873-1.842-1.515-.887-.504-1.143-.609-1.378-.612-.161-.003-.343-.03-.398-.062-.055-.032-.232-.077-.397-.095-.068-.007-.134-.022-.199-.031-1.788-.251-3.134-.615-4.261-1.126-.535-.243-.747-.312-.823-.294m12.317 5.03l-.081 2.047c.233.17.484.335.682.471.357.245.868.612 1.136.807.715.521 2.956 1.394 3.682 1.435.502.028.818.006 1.203-.046l.001-.033c.23-.021.45-.065.772-.113 1.21-.179 1.176-.278-.206-.696-.179-.054-.372-.154-.559-.22l-.001.033c-1.084-.425-2.329-1.112-4.083-2.261-.29-.19-.589-.368-.685-.405-.096-.037-.401-.238-.684-.438-.203-.144-.662-.346-1.179-.581m-.147 3.699l-.055 1.387c.096.1.215.155.36.189.321.075.615-.04.61-.238-.003-.12-.411-.669-.915-1.338"/></svg>