<svg xmlns="http://www.w3.org/2000/svg" viewBox="0 0 128 128" xmlns:xlink="http://www.w3.org/1999/xlink"><defs><filter id="a"><feGaussianBlur stdDeviation="1.04"/></filter><filter id="b"><feGaussianBlur stdDeviation="2.88059"/></filter><clipPath id="c"/><filter id="d"><feGaussianBlur stdDeviation="2.16044"/></filter><linearGradient id="e" y1="14.258" y2="19.958" x2="0" gradientUnits="userSpaceOnUse" gradientTransform="matrix(1.0033 0 0 1-8.237 16)"><stop offset=".25" stop-color="#71a8f5" stop-opacity="0"/><stop offset="1" stop-color="#0057ae"/></linearGradient><linearGradient id="f" y1="96" y2="0" x2="0" gradientUnits="userSpaceOnUse" gradientTransform="translate(-7 16)"><stop stop-color="#00479e"/><stop offset=".077" stop-color="#2c72c7"/><stop offset=".586" stop-color="#6ea1df"/><stop offset=".965" stop-color="#adcbee"/></linearGradient><linearGradient id="g" y1="96" y2="20" x2="0" gradientUnits="userSpaceOnUse" gradientTransform="matrix(1.0034 0 0 1-8.238 16)"><stop stop-color="#72b4f4"/><stop offset=".131" stop-color="#b3d9ff"/><stop offset=".346" stop-color="#b3d9ff"/><stop offset=".72" stop-color="#71a8f5"/><stop offset="1" stop-color="#508ed9"/></linearGradient><linearGradient id="h" y1="-300.5" y2="-296.48" x2="0" gradientUnits="userSpaceOnUse" gradientTransform="translate(242 340.5)"><stop stop-color="#fff"/><stop offset="1" stop-color="#fff" stop-opacity="0"/></linearGradient><linearGradient id="i" y1="-228.5" y2="-304.61" x2="0" gradientUnits="userSpaceOnUse" gradientTransform="translate(242 340.5)"><stop stop-color="#cfe7ff"/><stop offset=".1" stop-color="#71a8f5"/><stop offset="1" stop-color="#2c72c7"/></linearGradient><filter width="1.103" x="-.051" y="-.769" height="2.538" id="j"><feGaussianBlur stdDeviation="2.56374"/></filter><linearGradient id="k" y1="-381.1" x1="-86.12" y2="-373.12" gradientUnits="userSpaceOnUse" x2="-56.36" gradientTransform="matrix(0 1-1 0-39.999 140)"><stop stop-color="#008c00"/><stop offset="1" stop-color="#00bf00"/></linearGradient><radialGradient cx="344" cy="92" id="l" r="36" gradientUnits="userSpaceOnUse"><stop stop-color="#e5ff00"/><stop offset="1" stop-color="#bff500" stop-opacity="0"/></radialGradient><linearGradient id="m" y1="120.81" x1="328.12" y2="87.76" gradientUnits="userSpaceOnUse" x2="336.98"><stop stop-color="#0f0"/><stop offset="1" stop-color="#006500"/></linearGradient><linearGradient id="n" xlink:href="#h" y1="4.15" y2="29.935" gradientUnits="userSpaceOnUse" x2="0"/><linearGradient id="o" y1="118" y2="65.933" gradientUnits="userSpaceOnUse" x2="0" gradientTransform="translate(20-56)"><stop stop-color="#004d00" stop-opacity="0"/><stop offset=".5" stop-color="#004d00"/><stop offset="1" stop-color="#004d00" stop-opacity="0"/></linearGradient><path id="p" d="m118 16v16h-16v8h16v16h8v-16h16v-8h-16v-16z"/></defs><path fill="url(#f)" d="m118.98 27c.009-1.65-1.333-3-2.983-3h-75.04c0 0-8.9-8-10-8h-15.961c-2.2 0-4 1.8-4 4v7c0 0 1 85-3 85h114c-4 0-3.02-85-3.02-85"/><g opacity=".5" filter="url(#j)" transform="matrix(1.0033 0 0 1-8.237 16)"><path d="m132 96c0 2.2-3.6 4-8 4h-104c-4.4 0-8-1.8-8-4 0-2.2 3.6-4 8-4h104c4.4 0 8 1.8 8 4"/></g><path opacity=".9" fill="url(#g)" d="m124.37 109c-.086 1.648-1.512 2.996-3.168 2.996h-114.39c-1.656 0-3.081-1.348-3.169-2.996l-3.636-70.01c-.12-1.645 1.136-2.992 2.791-2.992h122.41c1.656 0 2.906 1.346 2.779 2.991z"/><path opacity=".5" fill="url(#e)" d="m9.885 30c.009 1.75.018 3.755.026 6h108.18c.009-2.245.018-4.25.026-6z"/><path fill="url(#i)" d="m125.21 36h-122.41c-1.655 0-2.912 1.347-2.792 2.992l3.636 70.01c.087 1.648 1.513 2.996 3.169 2.996h114.39c1.656 0 3.082-1.348 3.168-2.996l3.625-70.01c.128-1.645-1.123-2.991-2.778-2.991m-4.799 72c-1.539 0-111.28 0-112.82 0-.368-7.078-3.075-59.21-3.532-68 2.453 0 117.39 0 119.87 0-.121 2.32-3.442 66.47-3.521 68"/><path fill="#5e95e3" d="m120 27c.009-1.65-1.333-3-2.983-3h-74.04l-6.586-6.586c-.778-.778-2.314-1.414-3.414-1.414h-20.961c-2.2 0-4 1.8-4 4 0 0-.032 10.468 0 16h4c0-6.809 0-16 0-16l20.887-.003c.182.022.569.182.659.246l7.758 7.757c0 0 72.71 0 74.68 0 0 .435.001 4.369.003 8h4.01c.031-5.532-.017-9-.017-9"/><path fill="url(#h)" d="m4.063 40c.027.517.177 3.201.219 4 2.852 0 116.56 0 119.44 0 .028-.539.212-3.864.219-4-2.477 0-117.42 0-119.87 0"/><circle opacity=".5" cx="344" cy="92" filter="url(#d)" r="36" transform="matrix(-.85843.23001-.23001-.85843 412.46 35.85)"/><circle fill="url(#k)" cx="344" cy="92" r="36" transform="matrix(-.85843.23001-.23001-.85843 412.46 31.85)"/><circle fill="url(#l)" cx="344" cy="92" r="36" transform="matrix(-.64382.17251-.17251-.64382 333.34 31.888)"/><circle cx="344" cy="92" r="36" opacity=".8" stroke-width="6.751" filter="url(#b)" fill="none" clip-path="url(#c)" stroke="url(#m)" transform="matrix(-.85843-.23001-.23001.85843 412.46 32.15)"/><path opacity=".8" fill="url(#n)" d="m96 4.148c-11.346 0-20.826 8.01-23.11 18.678 4.555 4.246 13.197 7.111 23.11 7.111 9.914 0 18.556-2.865 23.11-7.111-2.285-10.667-11.765-18.678-23.11-18.678"/><g transform="translate(-26-4)"><use fill="none" filter="url(#a)" stroke="url(#o)" stroke-linejoin="round" xlink:href="#p" stroke-width="4"/><use fill="#fff" fill-rule="evenodd" xlink:href="#p"/></g></svg>