<?xml version="1.0" encoding="UTF-8" standalone="no"?>
<svg
   xmlns:ns="http://ns.adobe.com/SaveForWeb/1.0/"
   xmlns:dc="http://purl.org/dc/elements/1.1/"
   xmlns:cc="http://creativecommons.org/ns#"
   xmlns:rdf="http://www.w3.org/1999/02/22-rdf-syntax-ns#"
   xmlns:svg="http://www.w3.org/2000/svg"
   xmlns="http://www.w3.org/2000/svg"
   xmlns:xlink="http://www.w3.org/1999/xlink"
   version="1.1"
   id="Livello_1"
   width="128"
   height="128"
   viewBox="0 0 128 128"
   overflow="visible"
   enable-background="new 0 0 128 128"
   xml:space="preserve"><defs
     id="defs101"><linearGradient
       id="linearGradient3291"><stop
         style="stop-color:black;stop-opacity:1"
         offset="0"
         id="stop3293" /><stop
         style="stop-color:black;stop-opacity:0"
         offset="1"
         id="stop3295" /></linearGradient><radialGradient
       xlink:href="#linearGradient3291"
       id="radialGradient3336"
       gradientUnits="userSpaceOnUse"
       gradientTransform="matrix(1,0,0,0.197802,0,92.82166)"
       cx="63.912209"
       cy="115.70919"
       fx="63.912209"
       fy="115.7093"
       r="63.912209" /><radialGradient
       gradientUnits="userSpaceOnUse"
       gradientTransform="matrix(1.0151,0,0,1.0491,-1.0186,-1.3463)"
       fy="24.1598"
       fx="63.066601"
       r="122.3935"
       cy="6.0488"
       cx="42.378899"
       id="radialGradient4962"><stop
         id="stop4964"
         style="stop-color:#00438a;stop-opacity:0;"
         offset="0" /><stop
         id="stop4970"
         style="stop-color:#00438a;stop-opacity:1;"
         offset="1" /></radialGradient><radialGradient
       id="radialGradient4016"
       cx="42.378899"
       cy="6.0488"
       r="122.3935"
       fx="63.066601"
       fy="24.1598"
       gradientTransform="matrix(1.0151,0,0,1.0491,-1.0186,-1.3463)"
       gradientUnits="userSpaceOnUse"><stop
         offset="0"
         style="stop-color:#FFFFFF"
         id="stop4018" /><stop
         id="stop4026"
         style="stop-color:white;stop-opacity:1;"
         offset="0.59375" /><stop
         offset="1"
         style="stop-color:white;stop-opacity:0.70886075;"
         id="stop4020" /></radialGradient><radialGradient
       gradientUnits="userSpaceOnUse"
       r="111.0006"
       cy="-9"
       cx="51.9995"
       id="XMLID_5_"
       gradientTransform="translate(-103.157,-34.959)"><stop
         id="stop14"
         style="stop-color:#80B3FF"
         offset="0.15" /><stop
         id="stop16"
         style="stop-color:#69A1F0"
         offset="0.316" /><stop
         id="stop18"
         style="stop-color:#4888DA"
         offset="0.6029" /><stop
         id="stop20"
         style="stop-color:#3378CC"
         offset="0.8412" /><stop
         id="stop22"
         style="stop-color:#2C72C7"
         offset="1" /></radialGradient><linearGradient
       y2="157.6319"
       x2="63.9995"
       y1="25.1577"
       x1="63.9995"
       gradientUnits="userSpaceOnUse"
       id="XMLID_7_"><stop
         id="stop76"
         style="stop-color:#BFD9FF"
         offset="0" /><stop
         id="stop78"
         style="stop-color:#80B3FF"
         offset="0.2189" /><stop
         id="stop80"
         style="stop-color:#6EA5F3"
         offset="0.2933" /><stop
         id="stop82"
         style="stop-color:#3E80D3"
         offset="0.4426" /><stop
         id="stop84"
         style="stop-color:#2C72C7"
         offset="0.4941" /><stop
         id="stop86"
         style="stop-color:#00438A"
         offset="0.7" /></linearGradient><linearGradient
       y2="48.787102"
       x2="230.237"
       y1="48.787102"
       x1="-37.875"
       gradientUnits="userSpaceOnUse"
       id="XMLID_8_"><stop
         id="stop91"
         style="stop-color:#a2c3eb;stop-opacity:0.50196081;"
         offset="0" /><stop
         id="stop93"
         style="stop-color:white;stop-opacity:1;"
         offset="0.12634172" /><stop
         offset="0.80858696"
         style="stop-color:white;stop-opacity:1;"
         id="stop4930" /><stop
         id="stop95"
         style="stop-color:#a7cbf7;stop-opacity:0.50196081;"
         offset="1" /></linearGradient><linearGradient
       xlink:href="#XMLID_7_"
       id="linearGradient4034"
       gradientUnits="userSpaceOnUse"
       x1="63.9995"
       y1="25.1577"
       x2="63.9995"
       y2="157.6319"
       gradientTransform="matrix(1,0,0,0.635551,0,40.02081)" /><radialGradient
       id="XMLID_6_"
       cx="42.378899"
       cy="6.0488"
       r="122.3935"
       fx="63.066601"
       fy="24.1598"
       gradientTransform="matrix(1.0151,0,0,1.047229,-69.0186,-65.16106)"
       gradientUnits="userSpaceOnUse"><stop
         offset="0"
         style="stop-color:#FFFFFF"
         id="stop33" /><stop
         offset="0.3728"
         style="stop-color:#DDDDDD"
         id="stop35" /><stop
         offset="0.7692"
         style="stop-color:#BABDB6"
         id="stop37" /><stop
         offset="1"
         style="stop-color:#888888"
         id="stop39" /></radialGradient><linearGradient
       xlink:href="#radialGradient4962"
       id="linearGradient4974"
       x1="64"
       y1="39.358757"
       x2="64"
       y2="63.665108"
       gradientUnits="userSpaceOnUse"
       gradientTransform="translate(0,20)" /><linearGradient
       xlink:href="#XMLID_8_"
       id="linearGradient5885"
       gradientUnits="userSpaceOnUse"
       gradientTransform="matrix(1,0,0,1.016882,0,-0.766697)"
       x1="0"
       y1="56.623283"
       x2="129.05333"
       y2="56.623283" /><linearGradient
       xlink:href="#XMLID_7_"
       id="linearGradient1922"
       gradientUnits="userSpaceOnUse"
       gradientTransform="matrix(1,0,0,0.635551,0,42.02081)"
       x1="63.9995"
       y1="25.1577"
       x2="63.9995"
       y2="157.6319" /><linearGradient
       xlink:href="#XMLID_8_"
       id="linearGradient1925"
       gradientUnits="userSpaceOnUse"
       gradientTransform="matrix(1,0,0,0.635551,0,40.02081)"
       x1="-4.2548351"
       y1="56.070148"
       x2="132.06886"
       y2="56.070148" /><radialGradient
       xlink:href="#radialGradient4016"
       id="radialGradient2030"
       gradientUnits="userSpaceOnUse"
       gradientTransform="matrix(1.23137,0,0,1.655519,-14.80768,-2.287944)"
       cx="64"
       cy="0.17394008"
       fx="64"
       fy="0.17394008"
       r="52" /><linearGradient
       xlink:href="#radialGradient4962"
       id="linearGradient2997"
       gradientUnits="userSpaceOnUse"
       gradientTransform="translate(-68,-44)"
       x1="64"
       y1="39.358757"
       x2="64"
       y2="63.665108" /><radialGradient
       xlink:href="#XMLID_6_"
       id="radialGradient3003"
       gradientUnits="userSpaceOnUse"
       gradientTransform="matrix(1.0151,0,0,1.047229,-69.0186,-65.16106)"
       cx="42.378899"
       cy="6.0488"
       fx="63.066601"
       fy="24.1598"
       r="122.3935" /><linearGradient
       xlink:href="#radialGradient4962"
       id="linearGradient3005"
       gradientUnits="userSpaceOnUse"
       gradientTransform="translate(-68,-44)"
       x1="64"
       y1="39.358757"
       x2="64"
       y2="63.665108" /><linearGradient
       xlink:href="#XMLID_5_"
       id="linearGradient3892"
       x1="60.109825"
       y1="39.976883"
       x2="59.745667"
       y2="75.988449"
       gradientUnits="userSpaceOnUse" /></defs><metadata
     id="metadata3"><ns:sfw><ns:slices><ns:slice
           x="0"
           y="0"
           height="128"
           width="128"
           sliceID="1653949336" /></ns:slices><ns:sliceSourceBounds
         x="0"
         y="0"
         height="128"
         width="128"
         bottomLeftOrigin="true" /><ns:optimizationSettings><ns:targetSettings
           fileFormat="PNG24Format"
           targetSettingsID="0"><ns:PNG24Format
             transparency="true"
             noMatteColor="false"
             interlaced="false"
             matteColor="#FFFFFF"
             filtered="false" /></ns:targetSettings><ns:targetSettings
           fileFormat="PNG24Format"
           targetSettingsID="770088023"><ns:PNG24Format
             transparency="true"
             noMatteColor="false"
             interlaced="false"
             matteColor="#FFFFFF"
             filtered="false" /></ns:targetSettings></ns:optimizationSettings></ns:sfw><rdf:RDF><cc:Work
         rdf:about=""><dc:format>image/svg+xml</dc:format><dc:type
           rdf:resource="http://purl.org/dc/dcmitype/StillImage" /></cc:Work></rdf:RDF></metadata><path
     style="fill:url(#linearGradient3892);fill-opacity:1.0;fill-rule:evenodd;stroke:none;stroke-width:16;stroke-linecap:round;stroke-linejoin:round;stroke-miterlimit:4;stroke-opacity:1"
     d="M 14.034685,108.00003 L 113.96532,108.00003 C 115.09253,108.00003 116,107.13201 116,106.05381 L 112,22.211617 C 112,21.133411 112,20.000004 108,20.000004 L 20,20.000004 C 16,20.000004 15.965318,21.133411 15.965318,22.211617 L 12,106.05381 C 12,107.13201 12.907469,108.00003 14.034685,108.00003 z "
     id="rect3119" /><path
     style="opacity:0.4;fill:url(#radialGradient2030);fill-opacity:1;fill-rule:evenodd;stroke:none;stroke-width:16;stroke-linecap:round;stroke-linejoin:round;stroke-miterlimit:4;stroke-dasharray:none;stroke-opacity:1"
     d="M 20,20.000004 C 16,20.000004 15.96875,21.133755 15.96875,22.211961 L 15.53125,31.478268 L 40,31.478268 C 40,31.478268 52,20.000004 52,20.000004 L 20,20.000004 z "
     id="rect4011" /><path
     style="opacity:0.8;fill:url(#linearGradient4034)"
     id="path88"
     d="M 44,68 C 43.601,68 28,73 28,73 C 28,73 2.183,72.95868 2.183,72.95868 C 1.493,72.95868 0.842,73.167141 0.431,73.519872 C 0.147,73.763288 0,74.053099 0,74.346724 C 0,74.482096 0.032,75.016167 0.094,75.148361 C 0.094,75.148361 10.288,97.479086 10.413,107.01363 C 10.692,107.59897 11.038,108 12,108 L 116,108 C 116.963,108 117.811,107.59897 118.09,107.01363 C 118.09,97.479086 127.907,69.791301 127.907,69.791301 C 128.106,69.371202 127.981,68.916147 127.569,68.562781 C 127.159,68.210685 126.508,68.00286 125.817,68.00286 L 44,68 L 44,68 z " /><path
     style="opacity:0.38139535;fill:url(#radialGradient3336);fill-opacity:1;fill-rule:nonzero;stroke:none;stroke-width:0;stroke-linecap:round;stroke-linejoin:round;stroke-miterlimit:4;stroke-dasharray:none;stroke-dashoffset:4;stroke-opacity:1"
     id="path1563"
     d="M 127.82442 115.70919 A 63.912209 12.641975 0 1 1  0,115.70919 A 63.912209 12.641975 0 1 1  127.82442 115.70919 z"
     transform="matrix(1.001374,0,0,0.410379,-2.393169e-5,75.32738)" /><path
     style="opacity:1;fill:url(#linearGradient1925)"
     d="M 44 68 C 43.601 68 28 73 28 73 C 28 73 2.1875 72.96875 2.1875 72.96875 C 1.4974999 72.968751 0.8485 73.178519 0.4375 73.53125 C 0.15350001 73.774663 0 74.050125 0 74.34375 C 0 74.479121 0.03175 75.024056 0.09375 75.15625 C 0.09375 75.15625 0.28912476 75.604666 0.3125 75.65625 C 0.35348972 75.611424 0.38820189 75.573503 0.4375 75.53125 C 0.8485 75.178519 1.4974999 74.968751 2.1875 74.96875 C 2.1875 74.96875 28 75 28 75 C 28 75 43.601 70 44 70 L 125.8125 70 C 126.5035 70 127.1525 70.210403 127.5625 70.5625 C 127.58665 70.583215 127.60283 70.603614 127.625 70.625 C 127.66595 70.508532 127.90625 69.78125 127.90625 69.78125 C 128.10525 69.361154 127.9745 68.915866 127.5625 68.5625 C 127.1525 68.210403 126.5035 68 125.8125 68 L 44 68 z "
     id="path1918" /></svg>