<svg xmlns="http://www.w3.org/2000/svg" viewBox="0 0 128 128" enable-background="new 0 0 128 128"><defs><radialGradient cx="63.912" cy="115.71" id="a" r="63.912" gradientUnits="userSpaceOnUse" gradientTransform="matrix(1 0 0 .1978 0 92.82)"><stop/><stop offset="1" stop-opacity="0"/></radialGradient><linearGradient id="b" y1="25.16" y2="157.63" gradientUnits="userSpaceOnUse" x2="0" gradientTransform="matrix(1 0 0 .63555 0 40.02)"><stop stop-color="#bfd9ff"/><stop offset=".219" stop-color="#80b3ff"/><stop offset=".293" stop-color="#6ea5f3"/><stop offset=".443" stop-color="#3e80d3"/><stop offset=".494" stop-color="#2c72c7"/><stop offset=".7" stop-color="#00438a"/></linearGradient><linearGradient id="c" x1="-4.255" gradientUnits="userSpaceOnUse" x2="132.07" gradientTransform="matrix(1 0 0 .63555 0 40.02)"><stop stop-color="#a2c3eb" stop-opacity=".502"/><stop offset=".126" stop-color="#fff"/><stop offset=".809" stop-color="#fff"/><stop offset="1" stop-color="#a7cbf7" stop-opacity=".502"/></linearGradient><radialGradient cx="64" cy=".174" id="d" r="52" gradientUnits="userSpaceOnUse" gradientTransform="matrix(1.23137 0 0 1.65552-14.808-2.288)"><stop stop-color="#fff"/><stop offset=".594" stop-color="#fff"/><stop offset="1" stop-color="#fff" stop-opacity=".709"/></radialGradient><linearGradient id="e" y1="39.977" x1="60.11" y2="75.988" x2="59.746" gradientUnits="userSpaceOnUse"><stop offset=".15" stop-color="#80b3ff"/><stop offset=".316" stop-color="#69a1f0"/><stop offset=".603" stop-color="#4888da"/><stop offset=".841" stop-color="#3378cc"/><stop offset="1" stop-color="#2c72c7"/></linearGradient></defs><g fill-rule="evenodd"><path fill="url(#e)" d="m14.03 108h99.93c1.127 0 2.035-.868 2.035-1.946l-4-83.84c0-1.078 0-2.212-4-2.212h-88c-4 0-4.03 1.133-4.03 2.212l-3.965 83.84c0 1.078.907 1.946 2.035 1.946"/><path opacity=".4" fill="url(#d)" d="m20 20c-4 0-4.03 1.134-4.03 2.212l-.438 9.266h24.469l12-11.478z"/></g><path opacity=".8" fill="url(#b)" d="m44 68c-.399 0-16 5-16 5l-25.817-.041c-.69 0-1.341.208-1.752.561-.284.243-.431.533-.431.827 0 .135.032.669.094.802 0 0 10.194 22.331 10.319 31.865.279.585.625.986 1.587.986h104c.963 0 1.811-.401 2.09-.986 0-9.535 9.817-37.22 9.817-37.22.199-.42.074-.875-.338-1.229-.41-.352-1.061-.56-1.752-.56z"/><path opacity=".381" fill="url(#a)" d="M127.82442 115.70919A63.912209 12.641975 0 1 1 0 115.70919 63.912209 12.641975 0 1 1 127.82442 115.70919" transform="matrix(1.0014 0 0 .41038 0 75.33)"/><path fill="url(#c)" d="m44 68c-.399 0-16 5-16 5l-25.813-.031c-.69 0-1.339.21-1.75.563-.284.243-.438.519-.438.813 0 .135.032.68.094.813 0 0 .195.448.219.5.041-.045.076-.083.125-.125.411-.353 1.06-.562 1.75-.563l25.813.031c0 0 15.601-5 16-5h81.81c.691 0 1.34.21 1.75.563.024.021.04.041.063.063.041-.116.281-.844.281-.844.199-.42.068-.865-.344-1.219-.41-.352-1.059-.563-1.75-.563z"/></svg>