<svg xmlns="http://www.w3.org/2000/svg" viewBox="0 0 128 128" xmlns:xlink="http://www.w3.org/1999/xlink"><defs><radialGradient cx="312.72" cy="-349" id="a" r="34.18" gradientUnits="userSpaceOnUse" gradientTransform="matrix(1.09096 0 0-1-273.57-316.5)"><stop stop-color="#4b73ad"/><stop offset="1" stop-color="#80b3ff"/></radialGradient><radialGradient cx="354.85" cy="-426" id="b" r="34.18" gradientUnits="userSpaceOnUse" gradientTransform="matrix(1 0 0-1-290.47-322.5)"><stop stop-color="#538bcf"/><stop offset="1" stop-color="#80b3ff"/></radialGradient><radialGradient cx="354.85" cy="-426" id="c" r="34.18" xlink:href="#b" gradientUnits="userSpaceOnUse" gradientTransform="matrix(1 0 0-1-290.47-320.5)"/><linearGradient id="d" y1="-601.28" y2="-503.15" gradientUnits="userSpaceOnUse" x2="0" gradientTransform="matrix(1 0 0-.6522-290.69-284.15)"><stop stop-color="#b3d9ff"/><stop offset=".486" stop-color="#71a8f5"/><stop offset=".799" stop-color="#2c72c7"/><stop offset=".98" stop-color="#2c72c7"/><stop offset="1" stop-color="#deebff"/></linearGradient><linearGradient id="e" y1="-79.24" y2="9.327" gradientUnits="userSpaceOnUse" x2="0" gradientTransform="translate(.5 100.5)"><stop stop-color="#73a3e7"/><stop offset=".139" stop-color="#83b1f5"/><stop offset=".369" stop-color="#bcd6fc"/><stop offset=".501" stop-color="#659fee"/><stop offset="1" stop-color="#06f"/></linearGradient><filter width="1.051" x="-.025" y="-.461" height="1.922" id="f"><feGaussianBlur stdDeviation="1.18148"/></filter></defs><path opacity=".5" filter="url(#f)" d="m120 107.08c0 1.357-25.07 4.916-56 4.916-30.928 0-56-3.559-56-4.916 0-1.357 25.07-1.229 56-1.229 30.927 0 56-.128 56 1.229"/><path fill="url(#e)" d="m108 26c0-1.1-.9-2-2-2h-84c-1.1 0-2 .9-2 2 0 0 .125 82-8 82 3.396 0 100.6 0 104 0-8.125 0-8-82-8-82"/><path opacity=".8" fill="url(#d)" d="m116 108h-104c0-27.75-7.954-62.05-7.954-62.05-.239-1.074.472-1.953 1.579-1.953h116.75c1.108 0 1.818.879 1.58 1.953 0 0-7.954 34.3-7.954 62.05"/><path opacity=".2" fill="url(#c)" d="m16.552 105c-.276 0-.5.225-.5.5 0 .275.224.5.5.5h95.67c.276 0 .5-.225.5-.5 0-.275-.224-.5-.5-.5z"/><path opacity=".2" fill="url(#b)" d="m16.552 103c-.276 0-.5.225-.5.5 0 .275.224.5.5.5h95.67c.276 0 .5-.225.5-.5 0-.275-.224-.5-.5-.5z"/><path opacity=".2" fill="url(#a)" d="m32.33 32c-.184 0-.331.224-.331.5 0 .276.147.5.331.5h63.34c.183 0 .331-.224.331-.5 0-.276-.15-.5-.331-.5z"/><path opacity=".4" fill="#fff" d="m22.01 24c-1.1 0-1.958.901-1.906 2 0 0 .07 2.543.188 6h19.718l8-8z"/></svg>