<svg xmlns="http://www.w3.org/2000/svg" viewBox="0 0 128 128" xmlns:xlink="http://www.w3.org/1999/xlink"><defs><filter width="1.384" x="-.192" y="-.192" height="1.384" id="a"><feGaussianBlur stdDeviation="1.94477"/></filter><clipPath id="b"><path d="m72 88l-32 32h-8v-40h40z"/></clipPath><radialGradient cx="102" cy="112.3" id="c" r="139.56" gradientUnits="userSpaceOnUse" gradientTransform="matrix(1 0 0 .99967 0 .003)"><stop stop-color="#b7b8b9"/><stop offset=".189" stop-color="#ececec"/><stop offset=".257" stop-color="#fafafa"/><stop offset=".301" stop-color="#fff"/><stop offset=".531" stop-color="#fafafa"/><stop offset=".845" stop-color="#ebecec"/><stop offset="1" stop-color="#e1e2e3"/></radialGradient><linearGradient id="d" y1="106.41" x1="98.62" y2="99.25" x2="91.23" gradientUnits="userSpaceOnUse"><stop stop-color="#a2a2a2"/><stop offset="1" stop-color="#fff"/></linearGradient><filter id="e"><feGaussianBlur stdDeviation="2.07864"/></filter><linearGradient id="f" y1="35.07" x1="31.24" y2="106.5" gradientUnits="userSpaceOnUse" x2="32.896" gradientTransform="matrix(.81405 0-.3659 1 77.02-10.355)"><stop stop-color="#353535"/><stop offset=".5" stop-color="#b0b0b0"/><stop offset="1" stop-color="#3e3e3e"/></linearGradient><linearGradient spreadMethod="reflect" id="g" y1="62.31" y2="12.05" x2="0" gradientUnits="userSpaceOnUse"><stop/><stop offset="1" stop-opacity="0"/></linearGradient><linearGradient spreadMethod="reflect" xlink:href="#g" id="h" y1="47.794" x1="94.05" y2="3.28" gradientUnits="userSpaceOnUse" x2="90" gradientTransform="matrix(1.23482.86308-.8672 1.22895-5.364-80.55)"/><linearGradient spreadMethod="reflect" xlink:href="#g" id="i" y1="52.12" x1="92.8" y2="16.254" gradientUnits="userSpaceOnUse" x2="90.19" gradientTransform="matrix(-1.23482-.86308.8672-1.22895 134.83 199.35)"/><linearGradient xlink:href="#g" id="j" y1="91.82" x1="39.513" y2="81.36" x2="33.476" gradientUnits="userSpaceOnUse"/><linearGradient spreadMethod="reflect" xlink:href="#g" id="k" x1="63.26" x2="100.1" gradientUnits="userSpaceOnUse" gradientTransform="matrix(1.09778 0 0 1-6.185 0)"/><linearGradient spreadMethod="reflect" xlink:href="#g" id="l" x1="63.26" gradientUnits="userSpaceOnUse" x2="100.1" gradientTransform="matrix(.77842 0 0 1 20.904-23.947)"/><linearGradient spreadMethod="reflect" xlink:href="#g" id="m" x1="63.26" gradientUnits="userSpaceOnUse" x2="100.1" gradientTransform="matrix(.77842 0 0 1 27.474-30.728)"/><linearGradient spreadMethod="reflect" xlink:href="#g" id="n" y1="50.24" y2="12.05" gradientUnits="userSpaceOnUse" x2="0" gradientTransform="matrix(1 0 0 .91042-8.901 8.03)"/><linearGradient xlink:href="#g" id="o" y1="91.82" x1="39.513" y2="80.64" gradientUnits="userSpaceOnUse" x2="36.518" gradientTransform="matrix(.86603-.5.5.86603 2.512 27.665)"/></defs><path opacity=".5" filter="url(#e)" d="m16 8v112h63.19c0 0 11.906-9.906 17.406-15.406 5.5-5.5 15.406-17.406 15.406-17.406v-79.19z" transform="matrix(1.04167 0 0 1.02679-2.667-1.214)"/><path fill="#fff" d="m16 8v112h63.15l32.854-32.854v-79.15z"/><path fill="url(#c)" d="m18 9c-.551 0-1 .449-1 1v107.96c0 .552.449 1 1 1h59.17c.263 0 2.763.118 2.949-.069l30.586-30.8c.187-.187.293-2.685.293-2.948v-75.15c0-.551-.448-1-1-1z"/><path fill="#fff" fill-opacity=".757" d="m58.14 20.666v-1.957"/><path fill="url(#f)" d="m81.2 72h-23.21l-8.108 11.05c-2.048 2.86-3.331 4.996-3.848 6.408-.411 1.122-.348 2.118.189 2.987.579.833 2.267 1.376 5.062 1.629l-.735 2.01h-18.876l.735-2.01c2.704-.543 4.583-1.249 5.638-2.118 2.139-1.738 5.095-5.267 8.87-10.589l42.625-61.36h1.547l-.089 62c-.122 4.924.224 8.127 1.036 9.612.855 1.448 2.473 2.263 4.853 2.444l-.735 2.01-24.473.014.735-2.01c2.44-.145 4.225-.634 5.355-1.466 1.159-.833 1.957-1.846 2.395-3.041.583-1.593.914-4.109.994-7.548l.039-10.01m.418-8l.384-25.505-18.603 25.505h18.603"/><path opacity=".4" filter="url(#a)" d="m41.88 115.98l24.31-24.31c0 0-9.353 2.913-19.603 2.913 0 10.25-4.706 21.396-4.706 21.396" clip-path="url(#b)" transform="translate(40)"/><path fill="url(#d)" d="m79.17 120c0 0 11.914-9.914 17.414-15.414 5.5-5.5 15.414-17.414 15.414-17.414 0 0-13.75 8.828-24 8.828 0 10.25-8.828 24-8.828 24"/><g fill="none" stroke-linejoin="round" stroke-linecap="round"><path opacity=".744" stroke="url(#g)" d="m90.5 12.554v75.35"/><path opacity=".656" stroke="url(#h)" d="m95.5 12.991l-65.35 92.61"/><path opacity=".55" stroke="url(#i)" d="m33.967 105.81l65.35-92.61"/><path opacity=".55" stroke="url(#j)" d="m22 85.59c.938 4.952 5.307 8.719 10.531 8.719 5.907 0 10.688-4.811 10.688-10.719 0-5.02-3.454-9.225-8.125-10.375"/><path opacity=".55" stroke="url(#k)" d="m23.36 95.36h79.8"/><path opacity=".55" stroke="url(#l)" d="m41.855 71.42h56.58"/><path opacity=".55" stroke="url(#m)" d="m48.42 64.64h56.58"/><path opacity=".744" stroke="url(#n)" d="m81.6 19.455v68.6"/><path opacity=".55" stroke="url(#o)" d="m64.36 90.79c3.288 3.82 8.956 4.897 13.48 2.285"/></g></svg>