<svg xmlns="http://www.w3.org/2000/svg" viewBox="-0.009 0.233 125 119" enable-background="new -0.009 0.233 125 119"><defs><linearGradient id="a" y1="144.91" y2="64.823" x2="0" gradientUnits="userSpaceOnUse"><stop stop-color="#ff9000"/><stop offset="1" stop-color="#f00"/></linearGradient><linearGradient id="b" y1="-19.528" y2="35.656" x2="0" gradientUnits="userSpaceOnUse"><stop offset="0%" stop-color="#fff"/><stop offset="99%" stop-color="#fff" stop-opacity="0"/></linearGradient><linearGradient id="c" y1="127.61" y2="87.25" x2="0" gradientUnits="userSpaceOnUse"><stop stop-color="#b0b0b0"/><stop offset="1"/></linearGradient><linearGradient id="d" y1="8.287" y2="58.54" x2="0" gradientUnits="userSpaceOnUse"><stop stop-color="#fff"/><stop offset="1"/></linearGradient></defs><path fill="#790000" d="m79.72.01l-78.42.463-1.299 28.874 10.432-.061.282-3.72c.249-3.258.982-5.799 2.18-7.554 1.138-1.657 2.409-2.729 3.887-3.277.564-.199 2.471-.685 7.451-.714 0 0 4.191-.025 6.621-.04 0 3.229 0 63.61 0 63.61 0 5.852-.715 7.176-.744 7.229-.764 1.09-2.313 1.642-4.713 1.655l-7.185.044v10.404l45.756-.27v-10.403l-7.153.042c-1.551.011-3.607-.227-4.707-1.354-.167-.364-.782-2.074-.782-7.444 0 0 0-60.44 0-63.63 2.338-.014 8.448-.05 8.448-.05 2.965-.018 5.301.413 6.945 1.278 1.53.808 2.749 2.081 3.727 3.891.26.494.944 2.135 1.508 6.424l.464 3.515 10.23-.062-1.301-28.857zm-1.607 3.391c.119 2.64.866 19.258.994 22.1-1.405.008-2.474.014-3.727.022-.029-.222-.072-.555-.072-.555-.468-3.555-1.099-6.104-1.88-7.578-1.312-2.431-2.988-4.157-5.13-5.29-2.146-1.127-5.02-1.69-8.546-1.668l-11.81.07v66.998c0 5.153.553 8.497 1.599 9.675 1.564 1.691 4.01 2.525 7.294 2.508 0 0 2.138-.016 3.748-.026 0 1.337 0 2.316 0 3.644-2.97.017-35.984.212-38.991.229 0-1.337 0-2.314 0-3.639 1.624-.011 3.821-.022 3.821-.022 3.582-.021 6.03-1.047 7.489-3.136.885-1.279 1.332-4.349 1.332-9.133v-67.02l-10.02.06c-4.04.024-6.928.333-8.581.916-2.184.808-3.984 2.293-5.528 4.548-1.54 2.25-2.469 5.349-2.761 9.208 0 0-.028.364-.046.613-1.289.007-2.345.014-3.756.021.127-2.87.875-19.498.995-22.11 3.01-.019 70.53-.418 73.58-.436"/><path fill="url(#a)" d="m79.73 1.702l-76.81.452-1.147 25.491 7.096-.041.163-2.165c.27-3.56 1.104-6.378 2.471-8.381 1.341-1.957 2.876-3.235 4.696-3.909.997-.351 3.231-.791 8.03-.819 0 0 5.469-.033 8.321-.049 0 4.363 0 65.31 0 65.31 0 6.202-.786 7.814-1.029 8.164-1.118 1.604-3.121 2.396-6.112 2.412l-5.5.034v7.02l42.37-.253v-7.02l-5.45.033c-2.788.016-4.814-.636-6.02-1.941-.173-.194-1.17-1.659-1.17-8.549 0 0 0-60.952 0-65.32 3.088-.018 10.128-.06 10.128-.06 3.244-.019 5.852.476 7.745 1.472 1.835.971 3.284 2.47 4.424 4.585.468.884 1.149 2.831 1.699 7.01l.268 2.034 6.979-.041z"/><path fill="url(#b)" d="m47.942 47.957v-35.777c0-.93.751-1.686 1.681-1.692l10.129-.06c3.529-.021 6.402.541 8.546 1.668 2.142 1.133 3.818 2.859 5.13 5.29.781 1.477 1.412 4.03 1.877 7.578 0 0 .044.333.075.555 1.253-.008 2.321-.015 3.729-.022-.13-2.838-.877-19.457-.996-22.09-3.049.018-70.56.417-73.58.435-.119 2.61-.867 19.238-.996 22.11 1.411-.008 2.469-.014 3.757-.022.02-.247.045-.61.045-.61.293-3.857 1.222-6.954 2.762-9.21 1.547-2.255 3.348-3.739 5.529-4.548 1.657-.583 4.544-.891 8.582-.915l8.32-.05c.451-.001.883.175 1.202.492.321.318.499.75.499 1.201v35.566c2.445.247 4.947.377 7.493.377 2.106-.001 4.177-.099 6.215-.268"/><path d="m121.68 22.01l-78.42.464-1.298 28.874 10.433-.061.282-3.719c.249-3.259.981-5.801 2.181-7.554 1.136-1.657 2.406-2.73 3.886-3.278.565-.199 2.471-.684 7.451-.714 0 0 4.467-.026 6.622-.039 0 3.228 0 63.61 0 63.61 0 5.852-.715 7.177-.748 7.229-.761 1.089-2.311 1.642-4.712 1.656l-7.183.043v10.404l45.757-.271v-10.403l-7.153.041c-2.217.013-3.834-.458-4.705-1.349-.161-.346-.782-2.038-.782-7.454 0 0 0-60.44 0-63.63 2.335-.015 8.444-.05 8.444-.05 2.966-.018 5.304.413 6.949 1.278 1.527.807 2.747 2.081 3.723 3.892.264.496.947 2.136 1.513 6.423l.458 3.515 10.232-.06-1.301-28.857zm-1.608 3.392c.12 2.639.866 19.258.994 22.1-1.404.008-2.473.015-3.728.021-.028-.22-.071-.554-.071-.554-.466-3.555-1.101-6.104-1.881-7.577-1.313-2.432-2.987-4.159-5.13-5.292-2.145-1.127-5.02-1.687-8.548-1.666l-11.807.069v66.994c0 5.16.553 8.504 1.599 9.678 1.561 1.69 4.01 2.526 7.294 2.507 0 0 2.138-.011 3.747-.021 0 1.337 0 2.314 0 3.64-2.972.02-35.983.213-38.99.232 0-1.339 0-2.315 0-3.642 1.623-.008 3.821-.023 3.821-.023 3.579-.02 6.03-1.046 7.489-3.135.885-1.277 1.332-4.349 1.332-9.133v-67.02l-10.02.06c-4.04.024-6.926.332-8.581.917-2.183.808-3.982 2.292-5.529 4.547-1.539 2.252-2.467 5.35-2.761 9.21 0 0-.028.363-.045.609-1.289.008-2.346.014-3.758.022.129-2.869.876-19.496.994-22.11 3.02-.017 70.53-.417 73.58-.435"/><path fill="url(#c)" d="m121.69 23.697l-76.81.454-1.148 25.492 7.096-.042.165-2.165c.269-3.561 1.102-6.38 2.469-8.382 1.341-1.955 2.876-3.235 4.696-3.909.996-.35 3.229-.791 8.03-.819 0 0 5.469-.032 8.32-.048 0 4.363 0 65.31 0 65.31 0 6.2-.786 7.815-1.027 8.166-1.119 1.603-3.119 2.392-6.111 2.411l-5.502.032v7.02l42.37-.248v-7.03l-5.451.033c-2.788.017-4.815-.636-6.02-1.94-.172-.193-1.169-1.66-1.169-8.553 0 0 0-60.948 0-65.31 3.088-.018 10.129-.059 10.129-.059 3.244-.02 5.852.476 7.745 1.471 1.835.971 3.284 2.471 4.427 4.587.464.881 1.146 2.828 1.696 7.01l.266 2.035 6.98-.042z"/><path fill="url(#d)" d="m90.04 69.38v-35.778c0-.93.749-1.686 1.68-1.692l10.13-.061c3.528-.02 6.402.542 8.545 1.668 2.144 1.134 3.82 2.86 5.13 5.29.781 1.479 1.413 4.03 1.881 7.579 0 0 .044.334.072.555 1.253-.007 2.322-.013 3.729-.022-.128-2.837-.876-19.456-.996-22.09-3.05.019-70.56.417-73.58.436-.118 2.609-.866 19.238-.995 22.11 1.411-.009 2.468-.015 3.756-.022.02-.246.046-.61.046-.61.293-3.856 1.221-6.954 2.762-9.21 1.547-2.255 3.347-3.74 5.529-4.549 1.657-.583 4.544-.89 8.583-.915l8.318-.05c.453-.001.885.175 1.204.492.32.318.498.75.498 1.2v35.565c2.445.247 4.947.378 7.493.378 2.109.001 4.177-.096 6.216-.265"/></svg>