<svg width="60" xmlns="http://www.w3.org/2000/svg" height="60" viewBox="0 0 125.957 125.956" xmlns:xlink="http://www.w3.org/1999/xlink"><defs><linearGradient id="a" y1="21.801" x1="31.648" y2="60.47" gradientUnits="userSpaceOnUse" x2="54.54"><stop stop-color="#fff"/><stop offset="1" stop-color="#fff" stop-opacity="0"/></linearGradient><linearGradient id="b" y1="51.698" y2="140.48" gradientUnits="userSpaceOnUse" x2="0"><stop stop-color="#000072"/><stop offset="1" stop-color="#3995e5"/></linearGradient><linearGradient id="c" xlink:href="#a" y1="167.23" y2="64.976" gradientUnits="userSpaceOnUse" x2="0"/><linearGradient id="d" xlink:href="#a" y1="26.375" x1="27" y2="73.76" gradientUnits="userSpaceOnUse" x2="73.71"/><linearGradient id="e" xlink:href="#a" y1="14.163" y2="77.27" gradientUnits="userSpaceOnUse" x2="0"/><linearGradient id="f" y1="181.13" y2="61.91" gradientUnits="userSpaceOnUse" x2="0"><stop stop-color="#a4cdec"/><stop offset="1" stop-color="#0068c6"/></linearGradient><linearGradient id="g" y1="153.7" y2="41.6" gradientUnits="userSpaceOnUse" x2="0"><stop stop-color="#418bde"/><stop offset="1" stop-color="#001b7b"/></linearGradient></defs><g transform="matrix(1.01213 0 0 1.01213-.764-.764)"><path fill="url(#g)" d="m125.2 62.35c.348 34.36-27.23 62.5-61.59 62.85-34.36.348-62.5-27.23-62.849-61.59-.348-34.36 27.23-62.5 61.59-62.848 34.36-.348 62.5 27.23 62.851 61.59"/><path fill="url(#f)" d="m118.61 62.41c.31 30.726-24.344 55.884-55.07 56.2-30.724.31-55.883-24.344-56.19-55.07-.31-30.724 24.345-55.884 55.07-56.19 30.726-.31 55.884 24.345 56.19 55.07"/><path fill="url(#e)" d="m63.45 11.879c-27.08.274-48.806 22.448-48.533 49.52.015 1.493.108 2.966.254 4.423 13.537 5.651 29.752 8.863 47.16 8.687 18.998-.192 36.499-4.39 50.59-11.324.042-.92.063-1.846.056-2.778-.274-27.08-22.446-48.805-49.52-48.532"/><path fill="url(#d)" d="m64.943 17.199c24.434-.247 45.01 16.809 50.08 39.753-3.02-26.324-25.501-46.642-52.58-46.37-28.936.292-52.16 23.989-51.864 52.924.148 14.65 6.3 27.825 16.09 37.23-7.371-8.715-11.864-19.951-11.989-32.26-.284-28.04 22.22-51 50.26-51.29"/><path opacity=".5" fill="url(#c)" d="m63.44 110.15c-26.13.265-47.683-19.937-49.45-45.671-.046.965-.074 1.934-.063 2.913.274 27.11 22.469 48.856 49.573 48.581 27.11-.274 48.854-22.467 48.58-49.574-.01-.977-.056-1.947-.123-2.911-1.247 25.764-22.389 46.4-48.51 46.661"/><path opacity=".2" fill="url(#b)" d="m33.552 73.34c0 0 20.801-.21 37.26-.377-6.9 7.04-13.82 14.1-13.82 14.1-1.464 1.495-2.184 3.443-2.165 5.381.02 1.939.78 3.872 2.273 5.335 2.99 2.929 7.79 2.881 10.717-.108l26.626-27.17c.16-.164.312-.339.457-.515.046-.058.089-.116.135-.175.097-.124.187-.255.278-.385.042-.064.087-.13.129-.195.11-.178.214-.355.31-.54.033-.061.061-.127.091-.189.067-.138.131-.277.189-.418.035-.085.065-.169.099-.255.048-.129.089-.258.131-.388.023-.079.05-.158.071-.24.058-.2.106-.406.143-.612.01-.039.014-.084.021-.127.031-.176.052-.351.071-.53.006-.069.012-.137.016-.207.01-.16.018-.321.018-.483.002-.061.004-.123.002-.184-.004-.222-.016-.442-.037-.662 0-.004-.002-.009-.002-.009-.023-.215-.06-.426-.099-.635-.016-.072-.031-.147-.048-.223-.033-.137-.065-.278-.106-.413-.023-.087-.048-.174-.077-.257-.042-.133-.089-.265-.141-.393-.031-.078-.058-.157-.091-.236 0-.003 0-.003-.002-.005-.081-.189-.17-.371-.263-.55-.041-.079-.087-.156-.133-.231-.067-.123-.141-.244-.216-.361-.048-.071-.093-.144-.143-.213-.104-.147-.21-.29-.322-.43-.029-.035-.054-.071-.081-.106-.15-.176-.305-.344-.467-.504-.016-.016-.027-.031-.042-.048l-27.17-26.624c-2.991-2.931-7.789-2.882-10.718.109-2.93 2.989-2.881 7.786.108 10.715l14.1 13.822-37.26.376c-4.185.042-7.545 3.471-7.503 7.655.042 4.184 3.474 7.545 7.659 7.503"/><path fill="#fff" d="m33.552 71.37c0 0 20.801-.21 37.26-.377-6.9 7.04-13.82 14.1-13.82 14.1-1.464 1.495-2.184 3.443-2.165 5.381.02 1.939.78 3.872 2.273 5.335 2.99 2.929 7.79 2.881 10.717-.108l26.626-27.17c.16-.164.312-.339.457-.515.046-.058.089-.116.135-.175.097-.124.187-.255.278-.385.042-.064.087-.13.129-.195.11-.178.214-.355.31-.54.033-.061.061-.127.091-.189.067-.138.131-.277.189-.418.035-.085.065-.169.099-.255.048-.129.089-.258.131-.388.023-.079.05-.158.071-.24.058-.2.106-.406.143-.612.01-.039.014-.084.021-.127.031-.176.052-.351.071-.53.006-.069.012-.137.016-.207.01-.16.018-.321.018-.483.002-.061.004-.123.002-.184-.004-.222-.016-.442-.037-.662 0-.004-.002-.009-.002-.009-.023-.215-.06-.426-.099-.635-.016-.072-.031-.147-.048-.223-.033-.137-.065-.278-.106-.413-.023-.087-.048-.174-.077-.257-.042-.133-.089-.265-.141-.393-.031-.078-.058-.157-.091-.236 0-.003 0-.003-.002-.005-.081-.189-.17-.371-.263-.55-.041-.079-.087-.156-.133-.231-.067-.123-.141-.244-.216-.361-.048-.071-.093-.144-.143-.213-.104-.147-.21-.29-.322-.43-.029-.035-.054-.071-.081-.106-.15-.176-.305-.344-.467-.504-.016-.016-.027-.031-.042-.048l-27.17-26.624c-2.991-2.931-7.789-2.882-10.718.109-2.93 2.989-2.881 7.786.108 10.715l14.1 13.822-37.26.376c-4.185.042-7.545 3.471-7.503 7.655.042 4.184 3.474 7.545 7.659 7.503"/><path opacity=".6" fill="url(#a)" d="m53.04 30.436c-4.996-4.061-10.767-7.05-17.03-8.636-11.12 7.676-19.586 19.883-23.516 34.4 5.671-2.813 11.958-4.419 18.596-4.486 1.683-.017 3.341.074 4.977.254 4.088-8.647 9.924-16.03 16.973-21.532"/></g></svg>