<?xml version="1.0" encoding="UTF-8" standalone="no"?>
<svg
   xmlns:a="http://ns.adobe.com/AdobeSVGViewerExtensions/3.0/"
   xmlns:dc="http://purl.org/dc/elements/1.1/"
   xmlns:cc="http://creativecommons.org/ns#"
   xmlns:rdf="http://www.w3.org/1999/02/22-rdf-syntax-ns#"
   xmlns:svg="http://www.w3.org/2000/svg"
   xmlns="http://www.w3.org/2000/svg"
   xmlns:xlink="http://www.w3.org/1999/xlink"
   version="1.0"
   x="0.0000000"
   y="0.0000000"
   width="48.000000pt"
   height="48.000000pt"
   viewBox="0 0 125.957 125.956"
   id="svg1"
   xml:space="preserve"><metadata
     id="metadata47"><rdf:RDF><cc:Work
         rdf:about=""><dc:format>image/svg+xml</dc:format><dc:type
           rdf:resource="http://purl.org/dc/dcmitype/StillImage" /></cc:Work></rdf:RDF></metadata><defs
     id="defs106"><linearGradient
       id="linearGradient1865"><stop
         style="stop-color:#418bde;stop-opacity:1.0000000;"
         offset="0.0000000"
         id="stop2120" /><stop
         style="stop-color:#001b7b;stop-opacity:1.0000000;"
         offset="1.0000000"
         id="stop1866" /></linearGradient><linearGradient
       id="linearGradient1862"><stop
         style="stop-color:#a4cdec;stop-opacity:1.0000000;"
         offset="0.0000000"
         id="stop1864" /><stop
         style="stop-color:#0068c6;stop-opacity:1.0000000;"
         offset="1.0000000"
         id="stop1863" /></linearGradient><linearGradient
       x1="63.957001"
       y1="-17.000000"
       x2="63.957001"
       y2="87.998100"
       id="XMLID_3_"
       gradientUnits="userSpaceOnUse"><stop
         style="stop-color:#ffffff;stop-opacity:1.0000000;"
         offset="0.0000000"
         id="stop49" /><stop
         style="stop-color:#ffffff;stop-opacity:0.0000000;"
         offset="1.0000000"
         id="stop51" /></linearGradient><linearGradient
       x1="10.339800"
       y1="10.392100"
       x2="73.836899"
       y2="73.889198"
       id="XMLID_4_"
       gradientUnits="userSpaceOnUse"><stop
         style="stop-color:#ffffff;stop-opacity:1.0000000;"
         offset="0.0000000"
         id="stop58" /><stop
         style="stop-color:#ffffff;stop-opacity:0.0000000;"
         offset="1.0000000"
         id="stop60" /></linearGradient><linearGradient
       x1="62.997101"
       y1="168.50290"
       x2="62.997101"
       y2="65.001404"
       id="XMLID_5_"
       gradientUnits="userSpaceOnUse"><stop
         style="stop-color:#ffffff;stop-opacity:1.0000000;"
         offset="0.0000000"
         id="stop67" /><stop
         style="stop-color:#ffffff;stop-opacity:0.0000000;"
         offset="1.0000000"
         id="stop69" /></linearGradient><linearGradient
       x1="33.114700"
       y1="-141.01460"
       x2="33.114700"
       y2="164.30850"
       id="XMLID_7_"
       gradientUnits="userSpaceOnUse"
       gradientTransform="matrix(0.999900,-1.010000e-2,1.010000e-2,0.999900,-1.144400,0.354300)"><stop
         style="stop-color:#ffffff;stop-opacity:1.0000000;"
         offset="0.0000000"
         id="stop96" /><stop
         style="stop-color:#ffffff;stop-opacity:0.0000000;"
         offset="1.0000000"
         id="stop98" /></linearGradient><linearGradient
       x1="61.226601"
       y1="51.561001"
       x2="61.226601"
       y2="141.41890"
       id="XMLID_6_"
       gradientUnits="userSpaceOnUse"
       gradientTransform="matrix(-1.000000,0.000000,0.000000,1.000000,122.4541,0.000000)"><stop
         style="stop-color:#000072;stop-opacity:1.0000000;"
         offset="0.0000000"
         id="stop78" /><stop
         style="stop-color:#3995e5;stop-opacity:1.0000000;"
         offset="1.0000000"
         id="stop80" /><a:midPointStop
         id="midPointStop82"
         style="stop-color:#000072"
         offset="0" /><a:midPointStop
         id="midPointStop84"
         style="stop-color:#000072"
         offset="0.5" /><a:midPointStop
         id="midPointStop86"
         style="stop-color:#3995E5"
         offset="1" /></linearGradient><linearGradient
       x1="62.977501"
       y1="182.56740"
       x2="62.977501"
       y2="61.896500"
       id="linearGradient1344"
       xlink:href="#linearGradient1862"
       gradientUnits="userSpaceOnUse" /><linearGradient
       x1="65.109993"
       y1="13.567519"
       x2="65.109993"
       y2="77.436874"
       id="linearGradient1346"
       xlink:href="#XMLID_3_"
       gradientUnits="userSpaceOnUse" /><linearGradient
       x1="26.564838"
       y1="25.929346"
       x2="73.836899"
       y2="73.889198"
       id="linearGradient1348"
       xlink:href="#XMLID_4_"
       gradientUnits="userSpaceOnUse" /><linearGradient
       x1="62.997101"
       y1="168.50290"
       x2="62.997101"
       y2="65.001404"
       id="linearGradient1350"
       xlink:href="#XMLID_5_"
       gradientUnits="userSpaceOnUse" /><linearGradient
       x1="61.226601"
       y1="51.561001"
       x2="61.226601"
       y2="141.41890"
       id="linearGradient1352"
       xlink:href="#XMLID_6_"
       gradientUnits="userSpaceOnUse"
       gradientTransform="matrix(-1.000000,0.000000,0.000000,1.000000,122.4541,0.000000)" /><linearGradient
       x1="31.052742"
       y1="21.613750"
       x2="53.820477"
       y2="60.985329"
       id="linearGradient1354"
       xlink:href="#XMLID_7_"
       gradientUnits="userSpaceOnUse"
       gradientTransform="matrix(0.999949,-1.010049e-2,1.010049e-2,0.999949,0.000000,-1.610417e-23)" /><linearGradient
       x1="54.390072"
       y1="177.88280"
       x2="54.390072"
       y2="25.958462"
       id="linearGradient2118"
       xlink:href="#linearGradient1865"
       gradientUnits="userSpaceOnUse" /><linearGradient
       x1="55.344120"
       y1="154.80630"
       x2="55.344120"
       y2="41.343369"
       id="linearGradient2089"
       xlink:href="#linearGradient1865"
       gradientUnits="userSpaceOnUse"
       gradientTransform="scale(1.000004,0.999996)" /><linearGradient
       x1="55.344120"
       y1="154.80630"
       x2="55.344120"
       y2="41.343369"
       id="linearGradient2092"
       xlink:href="#linearGradient1865"
       gradientUnits="userSpaceOnUse"
       gradientTransform="scale(1.000004,0.999996)" /><linearGradient
       xlink:href="#XMLID_7_"
       id="linearGradient1332"
       gradientUnits="userSpaceOnUse"
       gradientTransform="matrix(0.987913,-9.978910e-3,9.978910e-3,0.987913,0.758045,0.758039)"
       x1="31.052742"
       y1="21.613750"
       x2="53.820477"
       y2="60.985329" /><linearGradient
       xlink:href="#XMLID_6_"
       id="linearGradient1336"
       gradientUnits="userSpaceOnUse"
       gradientTransform="matrix(0.987963,0.000000,0.000000,0.987963,0.760455,0.758039)"
       x1="61.226601"
       y1="51.561001"
       x2="61.226601"
       y2="141.41890" /><linearGradient
       xlink:href="#XMLID_5_"
       id="linearGradient1339"
       gradientUnits="userSpaceOnUse"
       x1="62.997101"
       y1="168.50290"
       x2="62.997101"
       y2="65.001404"
       gradientTransform="matrix(0.987963,0.000000,0.000000,0.987963,0.758045,0.758039)" /><linearGradient
       xlink:href="#XMLID_4_"
       id="linearGradient1342"
       gradientUnits="userSpaceOnUse"
       x1="26.564838"
       y1="25.929346"
       x2="73.836899"
       y2="73.889198"
       gradientTransform="matrix(0.987963,0.000000,0.000000,0.987963,0.758045,0.758039)" /><linearGradient
       xlink:href="#XMLID_3_"
       id="linearGradient1345"
       gradientUnits="userSpaceOnUse"
       x1="65.109993"
       y1="13.567519"
       x2="65.109993"
       y2="77.436874"
       gradientTransform="matrix(0.987963,0.000000,0.000000,0.987963,0.758045,0.758039)" /><linearGradient
       xlink:href="#linearGradient1862"
       id="linearGradient1349"
       gradientUnits="userSpaceOnUse"
       x1="62.977501"
       y1="182.56740"
       x2="62.977501"
       y2="61.896500"
       gradientTransform="matrix(0.987963,0.000000,0.000000,0.987963,0.758045,0.758039)" /><linearGradient
       xlink:href="#linearGradient1865"
       id="linearGradient1353"
       gradientUnits="userSpaceOnUse"
       gradientTransform="matrix(0.987967,0.000000,0.000000,0.987959,0.758045,0.758039)"
       x1="55.344120"
       y1="154.80630"
       x2="55.344120"
       y2="41.343369" /></defs><g
     transform="matrix(1.012131,0.000000,0.000000,1.012131,-0.763964,-0.763960)"
     id="g1355"><path
       d="M 125.19890,62.347652 C 125.54666,96.710981 97.969652,124.85014 63.607311,125.19791 C 29.243982,125.54567 1.1058080,97.969646 0.75804500,63.606317 C 0.41028202,29.243976 27.985317,1.1058020 62.347658,0.75803900 C 96.711975,0.41027602 124.85015,27.985311 125.19890,62.347652 z "
       style="fill:url(#linearGradient1353);fill-opacity:1.0000000"
       id="path18" /><path
       d="M 118.60919,62.413846 C 118.91941,93.139495 94.264791,118.29797 63.540130,118.60918 C 32.816456,118.91940 7.6569906,94.264785 7.3457823,63.540124 C 7.0355619,32.816450 31.691167,7.6559967 62.414840,7.3457763 C 93.140489,7.0355559 118.29897,31.691161 118.60919,62.413846 z "
       style="fill:url(#linearGradient1349);fill-opacity:1.0000000"
       id="path45" /><path
       d="M 63.449237,11.878551 C 36.372135,12.152216 14.642877,34.326058 14.916543,61.402172 C 14.931362,62.894984 15.024231,64.368037 15.170449,65.825282 C 28.707518,71.476431 44.921967,74.688298 62.326911,74.512441 C 81.324452,74.320776 98.826216,70.122921 112.91654,63.188409 C 112.95903,62.268615 112.97977,61.342894 112.97286,60.410257 C 112.69919,33.334143 90.527327,11.604885 63.449237,11.878551 z "
       style="fill:url(#linearGradient1345);fill-opacity:1.0000000"
       id="path54" /><path
       d="M 64.943037,17.198731 C 89.377338,16.951741 109.94969,34.007934 115.02782,56.951399 C 112.01157,30.627124 89.526521,10.309665 62.447443,10.583331 C 33.510994,10.875768 10.290900,34.572061 10.583337,63.507521 C 10.731531,78.157036 16.883577,91.332511 26.670339,100.74187 C 19.299147,92.027049 14.805891,80.790946 14.681408,68.486855 C 14.397862,40.444513 36.900695,17.482277 64.943037,17.198731 z "
       style="fill:url(#linearGradient1342);fill-opacity:1.0000000"
       id="path63" /><path
       d="M 63.435406,110.14728 C 37.308724,110.41205 15.752359,90.210185 13.983906,64.476713 C 13.937471,65.441953 13.909808,66.411144 13.920676,67.389228 C 14.194342,94.495968 36.389919,116.24499 63.493696,115.97033 C 90.599448,115.69667 112.34748,93.503066 112.07381,66.396325 C 112.06393,65.419229 112.01750,64.449050 111.95032,63.485786 C 110.70351,89.249885 89.561099,109.88250 63.435406,110.14728 z "
       style="opacity:0.49999997;fill:url(#linearGradient1339)"
       id="path72" /><path
       d="M 33.552069,73.343681 C 33.552069,73.343681 54.352642,73.133244 70.811117,72.966279 C 63.911184,80.008479 56.991491,87.069451 56.991491,87.069451 C 55.527330,88.564239 54.807105,90.512502 54.826864,92.450885 C 54.846623,94.390256 55.606367,96.322712 57.100167,97.785885 C 60.089743,100.71520 64.890255,100.66679 67.817589,97.678197 L 94.443192,70.507239 C 94.603242,70.343237 94.755389,70.168368 94.900619,69.992510 C 94.947053,69.934220 94.989536,69.876918 95.035970,69.817641 C 95.132790,69.693157 95.222695,69.562746 95.313588,69.432335 C 95.356070,69.368117 95.400528,69.301924 95.443011,69.237706 C 95.552675,69.059873 95.657399,68.883028 95.753231,68.697291 C 95.785834,68.636037 95.814485,68.569843 95.844124,68.508590 C 95.911305,68.370275 95.975523,68.231960 96.032825,68.090681 C 96.067403,68.005717 96.098030,67.921740 96.131621,67.835787 C 96.180031,67.706364 96.220538,67.577929 96.263020,67.447517 C 96.285743,67.368480 96.313406,67.289443 96.334153,67.207442 C 96.392443,67.007874 96.439866,66.801390 96.477408,66.595893 C 96.487288,66.557363 96.491240,66.511916 96.498155,66.468446 C 96.528782,66.292589 96.550517,66.117719 96.569289,65.938898 C 96.575216,65.869741 96.581144,65.801571 96.585096,65.731426 C 96.594976,65.571376 96.602879,65.410338 96.602879,65.248312 C 96.604855,65.187058 96.606831,65.124816 96.604855,65.064551 C 96.600904,64.842259 96.589048,64.622931 96.568301,64.402615 C 96.568301,64.398664 96.566325,64.393724 96.566325,64.393724 C 96.543602,64.178348 96.506059,63.967912 96.467528,63.758464 C 96.451721,63.686342 96.436902,63.611257 96.419118,63.535184 C 96.386516,63.397857 96.353913,63.257566 96.313406,63.122215 C 96.290683,63.035275 96.264996,62.948334 96.236345,62.865345 C 96.193863,62.731970 96.147428,62.600571 96.095066,62.472136 C 96.064440,62.394087 96.036777,62.315050 96.004174,62.236013 C 96.004174,62.233049 96.004174,62.233049 96.002198,62.231073 C 95.921185,62.042372 95.832268,61.859599 95.739400,61.680777 C 95.698893,61.601740 95.652459,61.524679 95.606025,61.449594 C 95.538843,61.326099 95.464746,61.205567 95.389661,61.088988 C 95.341251,61.017854 95.296792,60.944745 95.246406,60.875588 C 95.142670,60.728381 95.035970,60.585126 94.924330,60.445824 C 94.895679,60.411245 94.869992,60.374690 94.843317,60.340112 C 94.693147,60.164254 94.538037,59.996300 94.376011,59.836250 C 94.360203,59.820443 94.349336,59.805624 94.333528,59.787840 L 67.164546,33.164213 C 64.173982,30.232927 59.375446,30.282325 56.446135,33.272889 C 53.515837,36.261477 53.565235,41.059026 56.553823,43.988336 L 70.656007,57.809938 L 33.395971,58.186352 C 29.210959,58.228835 25.850897,61.657066 25.893380,65.841090 C 25.935862,70.025113 29.367057,73.386163 33.552069,73.343681 z "
       style="opacity:0.20000000;fill:url(#linearGradient1336)"
       id="path89" /><path
       d="M 33.552069,71.367755 C 33.552069,71.367755 54.352642,71.157318 70.811117,70.990353 C 63.911184,78.032553 56.991491,85.093525 56.991491,85.093525 C 55.527330,86.588313 54.807105,88.536576 54.826864,90.474959 C 54.846623,92.414330 55.606367,94.346786 57.100167,95.809959 C 60.089743,98.739270 64.890255,98.690859 67.817589,95.702271 L 94.443192,68.531313 C 94.603242,68.367311 94.755389,68.192442 94.900619,68.016584 C 94.947053,67.958294 94.989536,67.900992 95.035970,67.841715 C 95.132790,67.717231 95.222695,67.586820 95.313588,67.456409 C 95.356070,67.392191 95.400528,67.325998 95.443011,67.261780 C 95.552675,67.083947 95.657399,66.907102 95.753231,66.721365 C 95.785834,66.660111 95.814485,66.593917 95.844124,66.532664 C 95.911305,66.394349 95.975523,66.256034 96.032825,66.114755 C 96.067403,66.029791 96.098030,65.945814 96.131621,65.859861 C 96.180031,65.730438 96.220538,65.602003 96.263020,65.471591 C 96.285743,65.392554 96.313406,65.313517 96.334153,65.231516 C 96.392443,65.031948 96.439866,64.825464 96.477408,64.619967 C 96.487288,64.581437 96.491240,64.535990 96.498155,64.492520 C 96.528782,64.316663 96.550517,64.141793 96.569289,63.962972 C 96.575216,63.893815 96.581144,63.825645 96.585096,63.755500 C 96.594976,63.595450 96.602879,63.434412 96.602879,63.272386 C 96.604855,63.211132 96.606831,63.148890 96.604855,63.088625 C 96.600904,62.866333 96.589048,62.647005 96.568301,62.426689 C 96.568301,62.422738 96.566325,62.417798 96.566325,62.417798 C 96.543602,62.202422 96.506059,61.991986 96.467528,61.782538 C 96.451721,61.710416 96.436902,61.635331 96.419118,61.559258 C 96.386516,61.421931 96.353913,61.281640 96.313406,61.146289 C 96.290683,61.059349 96.264996,60.972408 96.236345,60.889419 C 96.193863,60.756044 96.147428,60.624645 96.095066,60.496210 C 96.064440,60.418161 96.036777,60.339124 96.004174,60.260087 C 96.004174,60.257123 96.004174,60.257123 96.002198,60.255147 C 95.921185,60.066446 95.832268,59.883673 95.739400,59.704851 C 95.698893,59.625814 95.652459,59.548753 95.606025,59.473668 C 95.538843,59.350173 95.464746,59.229641 95.389661,59.113062 C 95.341251,59.041928 95.296792,58.968819 95.246406,58.899662 C 95.142670,58.752455 95.035970,58.609200 94.924330,58.469898 C 94.895679,58.435319 94.869992,58.398764 94.843317,58.364186 C 94.693147,58.188328 94.538037,58.020374 94.376011,57.860324 C 94.360203,57.844517 94.349336,57.829698 94.333528,57.811914 L 67.164546,31.188287 C 64.173982,28.257001 59.375446,28.306399 56.446135,31.296963 C 53.515837,34.285551 53.565235,39.083100 56.553823,42.012410 L 70.656007,55.834012 L 33.395971,56.210426 C 29.210959,56.252909 25.850897,59.681140 25.893380,63.865164 C 25.935862,68.049187 29.367057,71.410237 33.552069,71.367755 z "
       style="fill:#ffffff;fill-opacity:1.0000000"
       id="path91" /><path
       d="M 53.044011,30.436448 C 48.047882,26.375920 42.277190,23.388319 36.013505,21.800663 C 24.896945,29.477135 16.427138,41.683418 12.497021,56.200547 C 18.167929,53.387816 24.455326,51.781388 31.093449,51.714207 C 32.775950,51.697411 34.434740,51.788304 36.070807,51.968113 C 40.158997,43.321461 45.994895,35.933474 53.044011,30.436448 z "
       style="opacity:0.60000002;fill:url(#linearGradient1332);fill-opacity:1.0000000"
       id="path101" /></g></svg>