<svg xmlns="http://www.w3.org/2000/svg" viewBox="0 0 128 128" xmlns:xlink="http://www.w3.org/1999/xlink" enable-background="new 0 0 128 128"><defs><radialGradient cx="102" cy="112.3" id="a" r="139.56" gradientUnits="userSpaceOnUse" gradientTransform="translate(8)"><stop stop-color="#535557"/><stop offset=".114" stop-color="#898a8c"/><stop offset=".203" stop-color="#ececec"/><stop offset=".236" stop-color="#fafafa"/><stop offset=".272" stop-color="#fff"/><stop offset=".531" stop-color="#fafafa"/><stop offset=".845" stop-color="#ebecec"/><stop offset="1" stop-color="#e1e2e3"/></radialGradient><radialGradient cx="102" cy="112.3" id="b" r="139.56" gradientUnits="userSpaceOnUse" gradientTransform="translate(8)"><stop stop-color="#00537d"/><stop offset=".015" stop-color="#186389"/><stop offset=".056" stop-color="#558ca8"/><stop offset=".096" stop-color="#89afc3"/><stop offset=".136" stop-color="#b3ccd8"/><stop offset=".174" stop-color="#d4e2e9"/><stop offset=".21" stop-color="#ecf2f5"/><stop offset=".244" stop-color="#fafcfd"/><stop offset=".272" stop-color="#fff"/></radialGradient><linearGradient id="c" y1="104" x1="96" y2="96" gradientUnits="userSpaceOnUse" x2="88" gradientTransform="translate(8)"><stop stop-color="#888a85"/><stop offset=".007" stop-color="#8c8e89"/><stop offset=".067" stop-color="#abaca9"/><stop offset=".135" stop-color="#c5c6c4"/><stop offset=".212" stop-color="#dbdbda"/><stop offset=".301" stop-color="#ebebeb"/><stop offset=".412" stop-color="#f7f7f6"/><stop offset=".568" stop-color="#fdfdfd"/><stop offset="1" stop-color="#fff"/></linearGradient><linearGradient id="d" y1="103" x1="95" y2="95.29" gradientUnits="userSpaceOnUse" x2="87.29" gradientTransform="translate(8)"><stop stop-color="#fff"/><stop offset="1" stop-color="#393b38"/></linearGradient><linearGradient id="e" y1="103" x1="95" y2="94.59" gradientUnits="userSpaceOnUse" x2="86.59" gradientTransform="translate(8)"><stop stop-color="#fff"/><stop offset="1" stop-color="#555753"/></linearGradient><linearGradient id="f" xlink:href="#e" y1="102.34" x1="94.34" y2="94.54" gradientUnits="userSpaceOnUse" x2="86.54" gradientTransform="translate(8)"/><linearGradient id="g" x1="4" gradientUnits="userSpaceOnUse" x2="72" gradientTransform="matrix(1.05261 0 0 1.052 0-4.609)"><stop stop-color="#fff"/><stop offset=".5" stop-color="#fff"/><stop offset="1" stop-color="#fff" stop-opacity="0"/></linearGradient><linearGradient id="h" x1="7.974" x2="79.8" gradientUnits="userSpaceOnUse"><stop stop-color="#646464"/><stop offset=".292" stop-color="#7e7e7e"/><stop offset=".86" stop-color="#999" stop-opacity=".588"/><stop offset="1" stop-color="#fff" stop-opacity="0"/></linearGradient><path fill="none" stroke="#000" stroke-linejoin="round" id="i" d="m24 8v110c0 1.104.896 2 2 2h59.19c.53 0 1.031-.219 1.406-.594 0 0 11.906-9.906 17.406-15.406 5.5-5.5 15.406-17.406 15.406-17.406.375-.375.594-.876.594-1.406v-77.19z"/></defs><use opacity=".1" xlink:href="#i" stroke-width="16"/><use opacity=".15" xlink:href="#i" stroke-width="12"/><use opacity=".2" xlink:href="#i" stroke-width="8"/><use opacity=".25" xlink:href="#i" stroke-width="4"/><path fill="url(#b)" d="m24 8v110c0 1.104.896 2 2 2h59.17c.53 0 1.039-.211 1.414-.586l32.828-32.828c.375-.375.586-.884.586-1.414v-77.17z"/><path fill="url(#a)" d="m26 9c-.551 0-1 .449-1 1v108c0 .552.449 1 1 1h59.17c.263 0 .521-.106.707-.293l32.828-32.828c.187-.187.293-.444.293-.707v-75.17c0-.551-.448-1-1-1z"/><path opacity=".15" fill="url(#f)" d="m119.41 86.59c.25-.25-18.379 6.414-23.414 6.414-1.654 0-3 1.346-3 3 0 5.03-6.664 23.664-6.414 23.414z"/><path opacity=".2" fill="url(#e)" d="m119.41 86.59c.375-.375-13.97 7.414-23.414 7.414-1.103 0-2 .897-2 2 0 9.444-7.789 23.789-7.414 23.414z"/><path opacity=".25" fill="url(#d)" d="m119.41 86.59c.239-.239-13.607 8.414-23.414 8.414-.553 0-1 .447-1 1 0 9.807-8.653 23.653-8.414 23.414z"/><path fill="url(#c)" d="m86.59 119.41c0 0 11.914-9.914 17.414-15.414 5.5-5.5 15.414-17.414 15.414-17.414 0 0-13.164 9.414-23.414 9.414 0 10.25-9.414 23.414-9.414 23.414"/><path fill="url(#h)" d="m47.656 8c-2 .088-3.898.925-5.313 2.344l-8 8c-2.428 2.432-3.03 6.143-1.5 9.219l2.219 4.438h-27.06c-4.418 0-8 3.582-8 8v16c0 4.418 3.582 8 8 8h27.06l-2.219 4.438c-1.532 3.076-.928 6.787 1.5 9.219l8 8c1.568 1.567 3.722 2.421 5.938 2.344 2.215-.077 4.294-1.078 5.75-2.75l27.813-32c2.609-3.02 2.596-7.497-.031-10.5l-27.781-32c-1.596-1.839-3.942-2.851-6.375-2.75m.344 8l27.781 32-27.781 32-8-8 8-16h-40v-16h40l-8-16z"/><path fill="url(#g)" d="m40 72l8 8 27.788-32.01-27.788-31.991-8 8 8 16h-40v16h40z"/></svg>