<?xml version="1.0" encoding="UTF-8" standalone="no"?>
<svg
   xmlns:a="http://ns.adobe.com/AdobeSVGViewerExtensions/3.0/"
   xmlns:dc="http://purl.org/dc/elements/1.1/"
   xmlns:cc="http://creativecommons.org/ns#"
   xmlns:rdf="http://www.w3.org/1999/02/22-rdf-syntax-ns#"
   xmlns:svg="http://www.w3.org/2000/svg"
   xmlns="http://www.w3.org/2000/svg"
   xmlns:xlink="http://www.w3.org/1999/xlink"
   width="124"
   height="117"
   viewBox="0.381 -0.047 124 117"
   overflow="visible"
   enable-background="new 0.381 -0.047 124 117"
   xml:space="preserve"
   id="svg1354"
   version="1.1"><defs
     id="defs1624"><radialGradient
       xlink:href="#XMLID_14_"
       id="radialGradient2613"
       gradientUnits="userSpaceOnUse"
       cx="85.9731"
       cy="76.6255"
       fx="85.9731"
       fy="76.6255"
       r="90.6528" /><radialGradient
       xlink:href="#XMLID_15_"
       id="radialGradient2614"
       gradientUnits="userSpaceOnUse"
       cx="84.1704"
       cy="92.6958"
       fx="84.1704"
       fy="92.6958"
       r="78.148" /><radialGradient
       xlink:href="#XMLID_16_"
       id="radialGradient2615"
       gradientUnits="userSpaceOnUse"
       cx="85.9751"
       cy="76.6265"
       fx="85.9751"
       fy="76.6265"
       r="90.6459" /><radialGradient
       xlink:href="#XMLID_17_"
       id="radialGradient2616"
       gradientUnits="userSpaceOnUse"
       cx="84.1704"
       cy="92.6978"
       fx="84.1704"
       fy="92.6978"
       r="78.15" /><linearGradient
       xlink:href="#XMLID_18_"
       id="linearGradient2617"
       gradientUnits="userSpaceOnUse"
       x1="82.9038"
       y1="4.436"
       x2="82.9038"
       y2="40.466" /><linearGradient
       xlink:href="#XMLID_19_"
       id="linearGradient2618"
       gradientUnits="userSpaceOnUse"
       x1="67.7925"
       y1="8.8262"
       x2="124.929"
       y2="122.814" /><radialGradient
       xlink:href="#XMLID_14_"
       id="radialGradient2721"
       gradientUnits="userSpaceOnUse"
       cx="85.9731"
       cy="76.6255"
       fx="85.9731"
       fy="76.6255"
       r="90.6528" /><radialGradient
       xlink:href="#XMLID_15_"
       id="radialGradient2722"
       gradientUnits="userSpaceOnUse"
       cx="84.1704"
       cy="92.6958"
       fx="84.1704"
       fy="92.6958"
       r="78.148" /><radialGradient
       xlink:href="#XMLID_16_"
       id="radialGradient2723"
       gradientUnits="userSpaceOnUse"
       cx="85.9751"
       cy="76.6265"
       fx="85.9751"
       fy="76.6265"
       r="90.6459" /><radialGradient
       xlink:href="#XMLID_17_"
       id="radialGradient2724"
       gradientUnits="userSpaceOnUse"
       cx="84.1704"
       cy="92.6978"
       fx="84.1704"
       fy="92.6978"
       r="78.15" /><linearGradient
       xlink:href="#XMLID_18_"
       id="linearGradient2725"
       gradientUnits="userSpaceOnUse"
       x1="82.9038"
       y1="4.436"
       x2="82.9038"
       y2="40.466" /><linearGradient
       xlink:href="#XMLID_19_"
       id="linearGradient2726"
       gradientUnits="userSpaceOnUse"
       x1="67.7925"
       y1="8.8262"
       x2="124.929"
       y2="122.814" /></defs><metadata
     id="metadata1623"><rdf:RDF><cc:Work
         rdf:about=""><dc:format>image/svg+xml</dc:format><dc:type
           rdf:resource="http://purl.org/dc/dcmitype/StillImage" /></cc:Work></rdf:RDF></metadata><g
     id="g2619"
     transform="matrix(1.487852,0.000000,0.000000,1.487852,-60.51062,-1.223054)"><path
       d="M 85.016000,6.4860000 C 64.948000,6.4860000 48.622000,22.813000 48.622000,42.881000 C 48.622000,62.951000 64.948000,79.277000 85.016000,79.277000 C 105.08500,79.277000 121.41200,62.952000 121.41200,42.881000 C 121.41300,22.813000 105.08500,6.4860000 85.016000,6.4860000 z "
       style="opacity:0.15999998"
       id="path1518" /><g
       id="g1520"
       transform="translate(-1.238095,1.238095)"><g
         id="g1522"><radialGradient
           id="XMLID_14_"
           cx="85.973099"
           cy="76.625504"
           r="90.652802"
           fx="85.973099"
           fy="76.625504"
           gradientUnits="userSpaceOnUse"><stop
             offset="0"
             style="stop-color:rgb(45,88,164)"
             id="stop1526" /><stop
             offset="1"
             style="stop-color:rgb(13,45,96)"
             id="stop1528" /><a:midPointStop
             offset="0"
             style="stop-color:#2D58A4"
             id="midPointStop1530" /><a:midPointStop
             offset="0.5"
             style="stop-color:#2D58A4"
             id="midPointStop1532" /><a:midPointStop
             offset="1"
             style="stop-color:#0D2D60"
             id="midPointStop1534" /></radialGradient><path
           d="M 84.597000,0.0000000 C 63.995000,0.0000000 47.234000,16.761000 47.234000,37.363000 C 47.234000,57.967000 63.994000,74.728000 84.597000,74.728000 C 105.20100,74.728000 121.96200,57.967000 121.96200,37.363000 C 121.96200,16.761000 105.20100,0.0000000 84.597000,0.0000000 z M 84.597000,73.031000 C 64.899000,73.031000 48.932000,57.064000 48.932000,37.364000 C 48.932000,17.668000 64.898000,1.6990000 84.597000,1.6990000 C 104.29600,1.6990000 120.26400,17.668000 120.26400,37.364000 C 120.26400,57.064000 104.29500,73.031000 84.597000,73.031000 z "
           style="fill:url(#radialGradient2721)"
           id="path1537" /><radialGradient
           id="XMLID_15_"
           cx="84.170403"
           cy="92.695801"
           r="78.148003"
           fx="84.170403"
           fy="92.695801"
           gradientUnits="userSpaceOnUse"><stop
             offset="0"
             style="stop-color:rgb(222,225,255)"
             id="stop1541" /><stop
             offset="0.6292"
             style="stop-color:rgb(43,114,194)"
             id="stop1543" /><stop
             offset="1"
             style="stop-color:rgb(35,83,164)"
             id="stop1545" /><a:midPointStop
             offset="0"
             style="stop-color:#DEE1FF"
             id="midPointStop1547" /><a:midPointStop
             offset="0.5"
             style="stop-color:#DEE1FF"
             id="midPointStop1549" /><a:midPointStop
             offset="0.6292"
             style="stop-color:#2B72C2"
             id="midPointStop1551" /><a:midPointStop
             offset="0.5"
             style="stop-color:#2B72C2"
             id="midPointStop1553" /><a:midPointStop
             offset="1"
             style="stop-color:#2353A4"
             id="midPointStop1555" /></radialGradient><path
           d="M 84.597000,3.3960000 C 65.868000,3.3960000 50.631000,18.635000 50.631000,37.363000 C 50.631000,56.094000 65.868000,71.330000 84.597000,71.330000 C 103.32700,71.330000 118.56500,56.094000 118.56500,37.363000 C 118.56500,18.635000 103.32800,3.3960000 84.597000,3.3960000 z "
           style="fill:url(#radialGradient2722)"
           id="path1558" /><radialGradient
           id="XMLID_16_"
           cx="85.975098"
           cy="76.626503"
           r="90.645897"
           fx="85.975098"
           fy="76.626503"
           gradientUnits="userSpaceOnUse"><stop
             offset="0"
             style="stop-color:rgb(45,88,164)"
             id="stop1562" /><stop
             offset="1"
             style="stop-color:rgb(13,45,96)"
             id="stop1564" /><a:midPointStop
             offset="0"
             style="stop-color:#2D58A4"
             id="midPointStop1566" /><a:midPointStop
             offset="0.5"
             style="stop-color:#2D58A4"
             id="midPointStop1568" /><a:midPointStop
             offset="1"
             style="stop-color:#0D2D60"
             id="midPointStop1570" /></radialGradient><path
           d="M 84.597000,1.6980000 C 64.899000,1.6980000 48.932000,17.667000 48.932000,37.363000 C 48.932000,57.064000 64.898000,73.030000 84.597000,73.030000 C 104.29600,73.030000 120.26400,57.063000 120.26400,37.363000 C 120.26400,17.667000 104.29500,1.6980000 84.597000,1.6980000 z M 84.597000,71.331000 C 65.868000,71.331000 50.631000,56.095000 50.631000,37.364000 C 50.631000,18.635000 65.868000,3.3970000 84.597000,3.3970000 C 103.32700,3.3970000 118.56500,18.636000 118.56500,37.364000 C 118.56500,56.094000 103.32800,71.331000 84.597000,71.331000 z "
           style="fill:url(#radialGradient2723)"
           id="path1573" /><radialGradient
           id="XMLID_17_"
           cx="84.170403"
           cy="92.697800"
           r="78.150002"
           fx="84.170403"
           fy="92.697800"
           gradientUnits="userSpaceOnUse"><stop
             offset="0.2247"
             style="stop-color:rgb(222,225,255)"
             id="stop1577" /><stop
             offset="0.7472"
             style="stop-color:rgb(23,124,194)"
             id="stop1579" /><stop
             offset="1"
             style="stop-color:rgb(58,109,189)"
             id="stop1581" /><a:midPointStop
             offset="0.2247"
             style="stop-color:#DEE1FF"
             id="midPointStop1583" /><a:midPointStop
             offset="0.5"
             style="stop-color:#DEE1FF"
             id="midPointStop1585" /><a:midPointStop
             offset="0.7472"
             style="stop-color:#177CC2"
             id="midPointStop1587" /><a:midPointStop
             offset="0.5"
             style="stop-color:#177CC2"
             id="midPointStop1589" /><a:midPointStop
             offset="1"
             style="stop-color:#3A6DBD"
             id="midPointStop1591" /></radialGradient><path
           d="M 84.597000,1.6980000 C 64.899000,1.6980000 48.932000,17.667000 48.932000,37.363000 C 48.932000,57.064000 64.898000,73.030000 84.597000,73.030000 C 104.29600,73.030000 120.26400,57.063000 120.26400,37.363000 C 120.26400,17.667000 104.29500,1.6980000 84.597000,1.6980000 z M 84.597000,71.331000 C 65.868000,71.331000 50.631000,56.095000 50.631000,37.364000 C 50.631000,18.635000 65.868000,3.3970000 84.597000,3.3970000 C 103.32700,3.3970000 118.56500,18.636000 118.56500,37.364000 C 118.56500,56.094000 103.32800,71.331000 84.597000,71.331000 z "
           style="fill:url(#radialGradient2724)"
           id="path1594" /></g><linearGradient
         id="XMLID_18_"
         gradientUnits="userSpaceOnUse"
         x1="82.903801"
         y1="4.4359999"
         x2="82.903801"
         y2="40.466000"><stop
           offset="0%"
           style="stop-color:rgb(255,255,255)"
           id="stop1599" /><stop
           offset="100%"
           style="stop-opacity:0;stop-color:rgb(255,255,255)"
           id="stop1601" /></linearGradient><path
         a:adobe-blending-mode="screen"
         d="M 84.138000,38.517000 C 97.629000,28.371000 110.31400,24.933000 115.87200,23.841000 C 110.51800,11.556000 98.436000,2.9840000 84.381000,2.9840000 C 65.358000,2.9840000 49.935000,18.683000 49.935000,38.046000 C 49.935000,41.088000 50.318000,44.039000 51.033000,46.855000 C 56.614000,47.902000 70.260000,48.954000 84.138000,38.517000 z "
         style="fill:url(#linearGradient2725)"
         id="path1604" /><g
         id="g1606"><linearGradient
           id="XMLID_19_"
           gradientUnits="userSpaceOnUse"
           x1="67.792503"
           y1="8.8261995"
           x2="124.92900"
           y2="122.81400"><stop
             offset="1"
             style="stop-color:rgb(0,0,0)"
             id="stop1610" /><stop
             offset="5.74713%"
             style="stop-color:rgb(255,255,255)"
             id="stop1612" /></linearGradient><path
           a:adobe-blending-mode="multiply"
           d="M 96.578000,63.463000 L 75.879000,63.463000 L 75.879000,61.099000 C 76.442000,61.056000 76.994000,61.001000 77.535000,60.936000 C 78.078000,60.872000 78.544000,60.763000 78.935000,60.608000 C 79.628000,60.345000 80.115000,59.970000 80.397000,59.477000 C 80.679000,58.986000 80.820000,58.333000 80.820000,57.523000 L 80.820000,38.435000 C 80.820000,37.671000 80.643000,36.999000 80.296000,36.419000 C 79.946000,35.838000 79.508000,35.375000 78.984000,35.026000 C 78.591000,34.763000 77.995000,34.512000 77.198000,34.273000 C 76.401000,34.032000 75.675000,33.878000 75.018000,33.812000 L 75.018000,31.448000 L 91.141000,30.588000 L 91.635000,31.080000 L 91.635000,57.101000 C 91.635000,57.867000 91.797000,58.518000 92.122000,59.052000 C 92.446000,59.586000 92.913000,59.987000 93.520000,60.249000 C 93.952000,60.444000 94.429000,60.618000 94.949000,60.771000 C 95.471000,60.924000 96.012000,61.033000 96.576000,61.098000 L 96.576000,63.463000 M 91.850000,18.788000 C 91.850000,20.449000 91.210000,21.864000 89.931000,23.035000 C 88.652000,24.203000 87.136000,24.787000 85.385000,24.787000 C 83.612000,24.787000 82.086000,24.203000 80.806000,23.035000 C 79.525000,21.865000 78.887000,20.450000 78.887000,18.788000 C 78.887000,17.126000 79.525000,15.706000 80.806000,14.524000 C 82.086000,13.346000 83.612000,12.754000 85.385000,12.754000 C 87.156000,12.754000 88.678000,13.345000 89.948000,14.524000 C 91.215000,15.706000 91.850000,17.126000 91.850000,18.788000 z "
           style="opacity:0.29999998;fill:url(#linearGradient2726);fill-rule:evenodd"
           id="path1615" /><path
           d="M 94.177000,61.976000 L 73.477000,61.976000 L 73.477000,59.612000 C 74.040000,59.567000 74.594000,59.511000 75.134000,59.448000 C 75.677000,59.381000 76.143000,59.274000 76.534000,59.118000 C 77.227000,58.857000 77.714000,58.480000 77.997000,57.988000 C 78.277000,57.497000 78.419000,56.845000 78.419000,56.036000 L 78.419000,36.947000 C 78.419000,36.182000 78.243000,35.509000 77.895000,34.930000 C 77.545000,34.351000 77.108000,33.886000 76.584000,33.536000 C 76.189000,33.273000 75.595000,33.024000 74.798000,32.782000 C 74.000000,32.542000 73.273000,32.388000 72.618000,32.323000 L 72.618000,29.959000 L 88.741000,29.099000 L 89.235000,29.590000 L 89.235000,55.611000 C 89.235000,56.378000 89.396000,57.027000 89.722000,57.561000 C 90.046000,58.096000 90.512000,58.497000 91.119000,58.758000 C 91.553000,58.954000 92.029000,59.129000 92.549000,59.281000 C 93.069000,59.434000 93.612000,59.545000 94.176000,59.610000 L 94.176000,61.976000 M 89.450000,17.298000 C 89.450000,18.960000 88.809000,20.376000 87.529000,21.545000 C 86.250000,22.714000 84.736000,23.298000 82.985000,23.298000 C 81.213000,23.298000 79.686000,22.714000 78.405000,21.545000 C 77.125000,20.376000 76.486000,18.960000 76.486000,17.298000 C 76.486000,15.638000 77.125000,14.216000 78.405000,13.036000 C 79.686000,11.856000 81.213000,11.265000 82.985000,11.265000 C 84.756000,11.265000 86.278000,11.856000 87.547000,13.036000 C 88.814000,14.216000 89.450000,15.638000 89.450000,17.298000 z "
           style="fill:#ffffff"
           id="path1617" /></g></g></g></svg>