<svg xmlns="http://www.w3.org/2000/svg" viewBox="0.381 -0.047 124 117" xmlns:xlink="http://www.w3.org/1999/xlink" enable-background="new 0.381 -0.047 124 117"><defs><radialGradient cx="85.973" cy="76.63" id="a" r="90.65" gradientUnits="userSpaceOnUse"><stop stop-color="#2d58a4"/><stop offset="1" stop-color="#0d2d60"/></radialGradient><radialGradient cx="84.17" cy="92.7" id="b" r="78.15" gradientUnits="userSpaceOnUse"><stop stop-color="#dee1ff"/><stop offset=".629" stop-color="#2b72c2"/><stop offset="1" stop-color="#2353a4"/></radialGradient><radialGradient cx="85.975" cy="76.63" id="c" r="90.65" xlink:href="#a" gradientUnits="userSpaceOnUse"/><radialGradient cx="84.17" cy="92.7" id="d" r="78.15" gradientUnits="userSpaceOnUse"><stop offset=".225" stop-color="#dee1ff"/><stop offset=".747" stop-color="#177cc2"/><stop offset="1" stop-color="#3a6dbd"/></radialGradient><linearGradient id="e" y1="4.436" y2="40.466" gradientUnits="userSpaceOnUse" x2="0"><stop offset="0%" stop-color="#fff"/><stop offset="100%" stop-color="#fff" stop-opacity="0"/></linearGradient><linearGradient id="f" y1="8.826" x1="67.793" y2="122.81" gradientUnits="userSpaceOnUse" x2="124.93"><stop offset="1"/><stop offset="5.74713%" stop-color="#fff"/></linearGradient><path id="g" d="m84.6 1.698c-19.698 0-35.665 15.969-35.665 35.665 0 19.701 15.966 35.667 35.665 35.667 19.699 0 35.667-15.967 35.667-35.667 0-19.696-15.969-35.665-35.667-35.665m0 69.63c-18.729 0-33.966-15.236-33.966-33.967 0-18.729 15.237-33.967 33.966-33.967 18.73 0 33.968 15.239 33.968 33.967 0 18.73-15.237 33.967-33.968 33.967"/></defs><g transform="matrix(1.48785 0 0 1.48785-60.51-1.223)"><path opacity=".16" d="m85.02 6.486c-20.07 0-36.39 16.327-36.39 36.4 0 20.07 16.326 36.4 36.39 36.4 20.07 0 36.4-16.325 36.4-36.4.001-20.07-16.327-36.4-36.4-36.4"/><g transform="translate(-1.238 1.238)"><path fill="url(#a)" d="m84.6 0c-20.602 0-37.36 16.761-37.36 37.36 0 20.604 16.76 37.36 37.36 37.36 20.604 0 37.37-16.761 37.37-37.36 0-20.602-16.761-37.36-37.37-37.36m0 73.03c-19.698 0-35.665-15.967-35.665-35.667 0-19.696 15.966-35.665 35.665-35.665 19.699 0 35.667 15.969 35.667 35.665 0 19.7-15.969 35.667-35.667 35.667"/><path fill="url(#b)" d="m84.6 3.396c-18.729 0-33.966 15.239-33.966 33.967 0 18.731 15.237 33.967 33.966 33.967 18.73 0 33.968-15.236 33.968-33.967 0-18.728-15.237-33.967-33.968-33.967"/><use fill="url(#c)" xlink:href="#g"/><use fill="url(#d)" xlink:href="#g"/><path fill="url(#e)" d="m84.14 38.517c13.491-10.146 26.18-13.584 31.734-14.676-5.354-12.285-17.436-20.857-31.491-20.857-19.02 0-34.446 15.699-34.446 35.06 0 3.042.383 5.993 1.098 8.809 5.581 1.047 19.227 2.099 33.11-8.338"/><path opacity=".3" fill="url(#f)" fill-rule="evenodd" d="m96.58 63.46h-20.699v-2.364c.563-.043 1.115-.098 1.656-.163.543-.064 1.01-.173 1.4-.328.693-.263 1.18-.638 1.462-1.131.282-.491.423-1.144.423-1.954v-19.09c0-.764-.177-1.436-.524-2.02-.35-.581-.788-1.044-1.312-1.393-.393-.263-.989-.514-1.786-.753-.797-.241-1.523-.395-2.18-.461v-2.364l16.12-.86.494.492v26.02c0 .766.162 1.417.487 1.951.324.534.791.935 1.398 1.197.432.195.909.369 1.429.522.522.153 1.063.262 1.627.327v2.365m-4.726-44.675c0 1.661-.64 3.076-1.919 4.247-1.279 1.168-2.795 1.752-4.546 1.752-1.773 0-3.299-.584-4.579-1.752-1.281-1.17-1.919-2.585-1.919-4.247 0-1.662.638-3.082 1.919-4.264 1.28-1.178 2.806-1.77 4.579-1.77 1.771 0 3.293.591 4.563 1.77 1.267 1.182 1.902 2.602 1.902 4.264z"/><path fill="#fff" d="m94.18 61.976h-20.7v-2.364c.563-.045 1.117-.101 1.657-.164.543-.067 1.01-.174 1.4-.33.693-.261 1.18-.638 1.463-1.13.28-.491.422-1.143.422-1.952v-19.09c0-.765-.176-1.438-.524-2.02-.35-.579-.787-1.044-1.311-1.394-.395-.263-.989-.512-1.786-.754-.798-.24-1.525-.394-2.18-.459v-2.364l16.12-.86.494.491v26.02c0 .767.161 1.416.487 1.95.324.535.79.936 1.397 1.197.434.196.91.371 1.43.523.52.153 1.063.264 1.627.329v2.366m-4.726-44.678c0 1.662-.641 3.078-1.921 4.247-1.279 1.169-2.793 1.753-4.544 1.753-1.772 0-3.299-.584-4.58-1.753-1.28-1.169-1.919-2.585-1.919-4.247 0-1.66.639-3.082 1.919-4.262 1.281-1.18 2.808-1.771 4.58-1.771 1.771 0 3.293.591 4.562 1.771 1.267 1.18 1.903 2.602 1.903 4.262z"/></g></g></svg>