<svg xmlns="http://www.w3.org/2000/svg" viewBox="0 0 128 128" xmlns:xlink="http://www.w3.org/1999/xlink"><defs><linearGradient id="a"><stop/><stop offset="1" stop-opacity="0"/></linearGradient><linearGradient id="b"><stop stop-color="#e8e8e8"/><stop offset="1" stop-color="#fff"/></linearGradient><linearGradient id="c"><stop stop-color="#dedee0"/><stop offset=".296" stop-color="#fff"/><stop offset=".581" stop-color="#f5f5f6"/><stop offset="1" stop-color="#e5e5e7"/></linearGradient><filter width="1.018" x="-.009" y="-.293" height="1.586" id="d"><feGaussianBlur stdDeviation=".82498"/></filter><filter width="1.01" x="-.004" y="-.972" height="2.943" id="e"><feGaussianBlur stdDeviation=".4048"/></filter><radialGradient cx="58.886" cy="448.95" xlink:href="#a" id="f" r="109.23" gradientUnits="userSpaceOnUse" gradientTransform="matrix(2.63306 0 0 .09683-96.16 299.62)"/><linearGradient id="g" y1="674.86" y2="594.26" gradientUnits="userSpaceOnUse" x2="0" gradientTransform="translate(5.906-287.92)"><stop stop-color="#dedee0"/><stop offset=".162" stop-color="#efefef"/><stop offset=".581" stop-color="#d9d9db"/><stop offset="1" stop-color="#b3b3b8"/></linearGradient><radialGradient cx="168.07" cy="424.39" id="h" r="109.51" gradientUnits="userSpaceOnUse" gradientTransform="matrix(3.36471 0 0 .01187-398.09 266.8)"><stop stop-color="#fff"/><stop offset="1" stop-color="#fff" stop-opacity="0"/></radialGradient><filter id="i"><feGaussianBlur stdDeviation=".1262"/></filter><linearGradient id="j" y1="539.42" y2="531.57" gradientUnits="userSpaceOnUse" x2="0" gradientTransform="matrix(.96805 0 0 .92723 2.206 39.593)"><stop stop-color="#bebebe"/><stop offset="1" stop-color="#ededed"/></linearGradient><linearGradient xlink:href="#a" id="k" y1="540.75" x1="72.816" y2="530.53" gradientUnits="userSpaceOnUse" x2="62.6" gradientTransform="matrix(.96805 0 0 .92723 2.206 39.593)"/><radialGradient cx="64.893" cy="538.3" xlink:href="#b" id="l" r="7.02" gradientUnits="userSpaceOnUse" gradientTransform="matrix(1.5876-.02019.01908 1.50018-48.613-268.11)"/><radialGradient cx="64.893" cy="538.3" xlink:href="#b" id="m" r="7.02" gradientUnits="userSpaceOnUse" gradientTransform="matrix(11.1084-.01796.1335 1.33459-647.92-121.77)"/><filter width="1.03" x="-.015" y="-.124" height="1.249" id="n"><feGaussianBlur stdDeviation=".60346"/></filter><radialGradient cx="44.54" cy="86.02" xlink:href="#c" id="o" r="3.691" gradientUnits="userSpaceOnUse"/><linearGradient id="p" y1="67.89" y2="58.09" x2="0" gradientUnits="userSpaceOnUse" gradientTransform="matrix(1 0 0 3 0-116)"><stop stop-color="#454545"/><stop offset="1" stop-color="#454545" stop-opacity="0"/></linearGradient><filter id="q"><feGaussianBlur stdDeviation="1.43196"/></filter><linearGradient id="r" y1="54.04" x1="117.72" y2="55.942" x2="117.95" gradientUnits="userSpaceOnUse"><stop stop-color="#ff9494"/><stop offset="1" stop-color="#ff9494" stop-opacity="0"/></linearGradient><radialGradient fx="44.62" fy="89.11" cx="44.54" cy="86.02" id="s" r="3.691" gradientUnits="userSpaceOnUse"><stop stop-color="#f00"/><stop offset="1" stop-color="#ff7d7d" stop-opacity="0"/></radialGradient><filter id="t"><feGaussianBlur stdDeviation="3.90081"/></filter><clipPath id="u"><use xlink:href="#y"/></clipPath><linearGradient xlink:href="#g" id="v" y1="622.86" y2="655.37" gradientUnits="userSpaceOnUse" x2="0" gradientTransform="matrix(.44503 0 0 .45522-8.189-194.77)"/><linearGradient xlink:href="#c" id="w" y1="456.54" y2="334.46" gradientUnits="userSpaceOnUse" x2="0" gradientTransform="matrix(.44503 0 0 .45522-10.817-104.25)"/><linearGradient xlink:href="#a" id="x" y1="425.58" x1="233.39" y2="456.75" gradientUnits="userSpaceOnUse" x2="234.52" gradientTransform="translate(0-153.12)"/><rect width="269.65" x="33.29" y="181.34" rx="4.198" height="122.08" ry="4.176" id="y"/><rect width="14.591" x="58.01" y="526.92" fill="url(#j)" rx=".711" height="13.975" ry=".678" stroke="url(#k)" id="z" stroke-width=".19" stroke-dashoffset="1.088"/><path fill="url(#l)" filter="url(#i)" fill-rule="evenodd" id="A" d="m58.726 526.44l-.531 10.881-.031.5c.547.298 1.085.561 1.656.781.009.003.023-.003.031 0 1.706.652 3.513.951 5.313.938.302-.002.605-.011.906-.031.602-.041 1.217-.108 1.813-.219.596-.111 1.168-.258 1.75-.438.873-.27 1.74-.612 2.563-1.031l-.031-.5-.5-10.881z"/><path id="B" d="M48.23081 86.02353A3.691133 3.691133 0 1 1 40.84854 86.02353 3.691133 3.691133 0 1 1 48.23081 86.02353"/></defs><rect opacity=".6" x="33.29" y="184.24" rx="4.198" ry="4.176" width="269.65" filter="url(#t)" height="122.08" transform="matrix(.45244 0 0 .46158-12.06-45.39)"/><g transform="translate(0-9.574)"><g transform="matrix(1 0 0 1.0077 0-.794)"><rect x="4" y="48" rx="1.868" ry="1.901" width="120" fill="url(#w)" height="55.57"/><path fill="url(#v)" d="m15.389 88.77h97.22v14.799h-97.22z"/><g transform="matrix(.44503 0 0 .45522-10.817-104.47)"><path fill="url(#f)" filter="url(#d)" d="m58.886 336.34h218.46v6.757h-218.46z"/><path fill="url(#g)" d="m58.886 334.94h218.46v8.149h-218.46z"/></g><use stroke-dashoffset="1.088" stroke-width=".422" xlink:href="#y" filter="url(#q)" fill="none" clip-path="url(#u)" stroke="url(#x)" transform="matrix(.44503 0 0 .45522-10.817-34.55)"/><path fill="url(#h)" filter="url(#e)" fill-rule="evenodd" d="m58.41 271.35v1h218.03v-1z" transform="matrix(.44503 0 0 .45522-10.817-34.55)"/></g><rect opacity=".6" x="16.244" y="54.18" fill-opacity=".932" rx="4.197" ry="4.468" width="94.98" height="30.01"/><g transform="matrix(.44503 0 0 .45522-3.37-185.55)"><g transform="matrix(.97951 0 0 .97951 159.92 10.24)"><use xlink:href="#z"/><use xlink:href="#A" transform="matrix(.93297 0 0 .92723 4.492 39.593)"/></g><g transform="matrix(.97951 0 0 .97951 145.45 10.24)"><use xlink:href="#z"/><use xlink:href="#A" transform="matrix(.93297 0 0 .92723 4.492 39.593)"/></g><g transform="matrix(.97951 0 0 .97951 130.97 10.24)"><use xlink:href="#z"/><use xlink:href="#A" transform="matrix(.93297 0 0 .92723 4.492 39.593)"/></g><g transform="matrix(.97951 0 0 .97951 116.49 10.24)"><use xlink:href="#z"/><use xlink:href="#A" transform="matrix(.93297 0 0 .92723 4.492 39.593)"/></g><g transform="matrix(.97951 0 0 .97951 102.01 10.24)"><use xlink:href="#z"/><use xlink:href="#A" transform="matrix(.93297 0 0 .92723 4.492 39.593)"/></g><g transform="matrix(.97951 0 0 .97951 87.53 10.24)"><use xlink:href="#z"/><use xlink:href="#A" transform="matrix(.93297 0 0 .92723 4.492 39.593)"/></g><g transform="matrix(.97951 0 0 .97951 73.06 10.24)"><use xlink:href="#z"/><use xlink:href="#A" transform="matrix(.93297 0 0 .92723 4.492 39.593)"/></g><g transform="matrix(.97951 0 0 .97951 58.58 10.24)"><use xlink:href="#z"/><use xlink:href="#A" transform="matrix(.93297 0 0 .92723 4.492 39.593)"/></g><g transform="matrix(.97951 0 0 .97951 44.1 10.24)"><use xlink:href="#z"/><use xlink:href="#A" transform="matrix(.93297 0 0 .92723 4.492 39.593)"/></g><g transform="matrix(.97951 0 0 .97951 29.621 10.24)"><use xlink:href="#z"/><use xlink:href="#A" transform="matrix(.93297 0 0 .92723 4.492 39.593)"/></g><g transform="matrix(.97951 0 0 .97951 15.14 10.24)"><use xlink:href="#z"/><use xlink:href="#A" transform="matrix(.93297 0 0 .92723 4.492 39.593)"/></g><g transform="matrix(.97951 0 0 .97951.665 10.24)"><use xlink:href="#z"/><use xlink:href="#A" transform="matrix(.93297 0 0 .92723 4.492 39.593)"/></g><g transform="matrix(.97951 0 0 .97951-13.813 10.24)"><use xlink:href="#z"/><use xlink:href="#A" transform="matrix(.93297 0 0 .92723 4.492 39.593)"/></g><g transform="matrix(.97951 0 0 .97951 166.92 25.24)"><use xlink:href="#z"/><use xlink:href="#A" transform="matrix(.93297 0 0 .92723 4.492 39.593)"/></g><g transform="matrix(.97951 0 0 .97951 152.45 25.24)"><use xlink:href="#z"/><use xlink:href="#A" transform="matrix(.93297 0 0 .92723 4.492 39.593)"/></g><g transform="matrix(.97951 0 0 .97951 137.97 25.24)"><use xlink:href="#z"/><use xlink:href="#A" transform="matrix(.93297 0 0 .92723 4.492 39.593)"/></g><g transform="matrix(.97951 0 0 .97951 123.49 25.24)"><use xlink:href="#z"/><use xlink:href="#A" transform="matrix(.93297 0 0 .92723 4.492 39.593)"/></g><g transform="matrix(.97951 0 0 .97951 109.01 25.24)"><use xlink:href="#z"/><use xlink:href="#A" transform="matrix(.93297 0 0 .92723 4.492 39.593)"/></g><g transform="matrix(.97951 0 0 .97951 94.53 25.24)"><use xlink:href="#z"/><use xlink:href="#A" transform="matrix(.93297 0 0 .92723 4.492 39.593)"/></g><g transform="matrix(.97951 0 0 .97951 80.06 25.24)"><use xlink:href="#z"/><use xlink:href="#A" transform="matrix(.93297 0 0 .92723 4.492 39.593)"/></g><g transform="matrix(.97951 0 0 .97951 65.58 25.24)"><use xlink:href="#z"/><use xlink:href="#A" transform="matrix(.93297 0 0 .92723 4.492 39.593)"/></g><g transform="matrix(.97951 0 0 .97951 51.1 25.24)"><use xlink:href="#z"/><use xlink:href="#A" transform="matrix(.93297 0 0 .92723 4.492 39.593)"/></g><g transform="matrix(.97951 0 0 .97951 36.621 25.24)"><use xlink:href="#z"/><use xlink:href="#A" transform="matrix(.93297 0 0 .92723 4.492 39.593)"/></g><g transform="matrix(.97951 0 0 .97951 22.14 25.24)"><use xlink:href="#z"/><use xlink:href="#A" transform="matrix(.93297 0 0 .92723 4.492 39.593)"/></g><g transform="matrix(.97951 0 0 .97951 7.665 25.24)"><use xlink:href="#z"/><use xlink:href="#A" transform="matrix(.93297 0 0 .92723 4.492 39.593)"/></g><g transform="matrix(.97951 0 0 .97951 156.45 39.64)"><use xlink:href="#z"/><use xlink:href="#A" transform="matrix(.93297 0 0 .92723 4.492 39.593)"/></g><g transform="matrix(.97951 0 0 .97951 141.97 39.64)"><use xlink:href="#z"/><use xlink:href="#A" transform="matrix(.93297 0 0 .92723 4.492 39.593)"/></g><g transform="matrix(.97951 0 0 .97951 127.49 39.64)"><use xlink:href="#z"/><use xlink:href="#A" transform="matrix(.93297 0 0 .92723 4.492 39.593)"/></g><g transform="matrix(.97951 0 0 .97951 113.01 39.64)"><use xlink:href="#z"/><use xlink:href="#A" transform="matrix(.93297 0 0 .92723 4.492 39.593)"/></g><g transform="matrix(.97951 0 0 .97951 98.53 39.64)"><use xlink:href="#z"/><use xlink:href="#A" transform="matrix(.93297 0 0 .92723 4.492 39.593)"/></g><g transform="matrix(.97951 0 0 .97951 84.06 39.64)"><use xlink:href="#z"/><use xlink:href="#A" transform="matrix(.93297 0 0 .92723 4.492 39.593)"/></g><g transform="matrix(.97951 0 0 .97951 69.58 39.64)"><use xlink:href="#z"/><use xlink:href="#A" transform="matrix(.93297 0 0 .92723 4.492 39.593)"/></g><g transform="matrix(.97951 0 0 .97951 55.1 39.64)"><use xlink:href="#z"/><use xlink:href="#A" transform="matrix(.93297 0 0 .92723 4.492 39.593)"/></g><g transform="matrix(.97951 0 0 .97951 40.621 39.64)"><use xlink:href="#z"/><use xlink:href="#A" transform="matrix(.93297 0 0 .92723 4.492 39.593)"/></g><g transform="matrix(.97951 0 0 .97951 26.14 39.64)"><use xlink:href="#z"/><use xlink:href="#A" transform="matrix(.93297 0 0 .92723 4.492 39.593)"/></g><g transform="matrix(.97951 0 0 .97951 11.665 39.64)"><use xlink:href="#z"/><use xlink:href="#A" transform="matrix(.93297 0 0 .92723 4.492 39.593)"/></g><g transform="matrix(.97951 0 0 .97951 149.07 53.84)"><use xlink:href="#z"/><use xlink:href="#A" transform="matrix(.93297 0 0 .92723 4.492 39.593)"/></g><g transform="matrix(.97951 0 0 .97951 134.59 53.84)"><use xlink:href="#z"/><use xlink:href="#A" transform="matrix(.93297 0 0 .92723 4.492 39.593)"/></g><g transform="matrix(.97951 0 0 .97951 120.11 53.84)"><use xlink:href="#z"/><use xlink:href="#A" transform="matrix(.93297 0 0 .92723 4.492 39.593)"/></g><g transform="matrix(.97951 0 0 .97951 105.63 53.84)"><use xlink:href="#z"/><use xlink:href="#A" transform="matrix(.93297 0 0 .92723 4.492 39.593)"/></g><g transform="matrix(.97951 0 0 .97951 91.16 53.84)"><use xlink:href="#z"/><use xlink:href="#A" transform="matrix(.93297 0 0 .92723 4.492 39.593)"/></g><g transform="matrix(.97951 0 0 .97951 76.68 53.84)"><use xlink:href="#z"/><use xlink:href="#A" transform="matrix(.93297 0 0 .92723 4.492 39.593)"/></g><g transform="matrix(.97951 0 0 .97951 62.2 53.84)"><use xlink:href="#z"/><use xlink:href="#A" transform="matrix(.93297 0 0 .92723 4.492 39.593)"/></g><g transform="matrix(.97951 0 0 .97951 47.721 53.84)"><use xlink:href="#z"/><use xlink:href="#A" transform="matrix(.93297 0 0 .92723 4.492 39.593)"/></g><g transform="matrix(.97951 0 0 .97951 33.24 53.84)"><use xlink:href="#z"/><use xlink:href="#A" transform="matrix(.93297 0 0 .92723 4.492 39.593)"/></g><g transform="matrix(.97951 0 0 .97951 18.765 53.84)"><use xlink:href="#z"/><use xlink:href="#A" transform="matrix(.93297 0 0 .92723 4.492 39.593)"/></g><g transform="matrix(1.90348 0 0 .97951 120.72 10.24)"><use xlink:href="#z"/><use xlink:href="#A" transform="matrix(.93297 0 0 .92723 4.492 39.593)"/></g><g transform="matrix(1.42901 0 0 .97951 155.49 25.24)"><rect stroke-dashoffset="1.088" x="58.01" y="526.92" rx=".487" stroke-width=".158" ry=".678" width="14.591" fill="url(#j)" height="13.975" stroke="url(#k)"/><use xlink:href="#A" transform="matrix(.93297 0 0 .92723 4.492 39.593)"/></g><g transform="matrix(2.14488 0 0 .97951 103.56 39.64)"><rect stroke-dashoffset="1.088" x="58.01" y="526.92" rx=".325" stroke-width=".129" ry=".678" width="14.591" fill="url(#j)" height="13.975" stroke="url(#k)"/><use xlink:href="#A" transform="matrix(.93297 0 0 .92723 4.492 39.593)"/></g><g transform="matrix(2.65265 0 0 .97951 66.67 53.84)"><rect stroke-dashoffset="1.088" x="58.01" y="526.92" rx=".262" stroke-width=".116" ry=".678" width="14.591" fill="url(#j)" height="13.975" stroke="url(#k)"/><path fill="url(#l)" filter="url(#i)" fill-rule="evenodd" d="m58.34 526.44l-.144 10.881-.031.5c.547.298 1.085.561 1.656.781.009.003.023-.003.031 0 1.706.652 3.513.951 5.313.938.302-.002.605-.011.906-.031.602-.041 1.217-.108 1.813-.219.596-.111 1.168-.258 1.75-.438.873-.27 1.74-.612 2.563-1.031l-.031-.5-.112-10.881z" transform="matrix(.97264 0 0 .92723 1.906 39.593)"/></g><g transform="matrix(1.43733 0 0 .97951-40.32 25.24)"><rect stroke-dashoffset="1.088" x="58.01" y="526.92" rx=".484" stroke-width=".157" ry=".678" width="14.591" fill="url(#j)" height="13.975" stroke="url(#k)"/><use xlink:href="#A" transform="matrix(.93297 0 0 .92723 4.492 39.593)"/></g><g transform="matrix(1.7037 0 0 .97951-55.58 39.64)"><rect stroke-dashoffset="1.088" x="58.01" y="526.92" rx=".409" stroke-width=".144" ry=".678" width="14.591" fill="url(#j)" height="13.975" stroke="url(#k)"/><use xlink:href="#A" transform="matrix(.93297 0 0 .92723 4.492 39.593)"/></g><g transform="matrix(2.17818 0 0 .97951-83.07 53.84)"><rect stroke-dashoffset="1.088" x="58.01" y="526.92" rx=".32" stroke-width=".128" ry=".678" width="14.591" fill="url(#j)" height="13.975" stroke="url(#k)"/><path fill="url(#l)" filter="url(#i)" fill-rule="evenodd" d="m58.54 526.44l-.344 10.881-.031.5c.547.298 1.085.561 1.656.781.009.003.023-.003.031 0 1.706.652 3.513.951 5.313.938.302-.002.605-.011.906-.031.602-.041 1.217-.108 1.813-.219.596-.111 1.168-.258 1.75-.438.873-.27 1.74-.612 2.563-1.031l-.031-.5-.313-10.881z" transform="matrix(.98128 0 0 .92723 1.343 39.593)"/></g><g transform="matrix(.97951 0 0 .97951 141.68 67.84)"><use xlink:href="#z"/><use xlink:href="#A" transform="matrix(.93297 0 0 .92723 4.492 39.593)"/></g><g transform="matrix(.97951 0 0 .97951 156.08 67.84)"><use xlink:href="#z"/><use xlink:href="#A" transform="matrix(.93297 0 0 .92723 4.492 39.593)"/></g><g transform="matrix(.97951 0 0 .97951 12.677 67.84)"><use xlink:href="#z"/><use xlink:href="#A" transform="matrix(.93297 0 0 .92723 4.492 39.593)"/></g><g transform="matrix(.97951 0 0 .97951 27.08 67.84)"><use xlink:href="#z"/><use xlink:href="#A" transform="matrix(.93297 0 0 .92723 4.492 39.593)"/></g><g transform="matrix(2.16153 0 0 .97951 102.32 67.84)"><rect stroke-dashoffset="1.088" x="58.01" y="526.92" rx=".322" stroke-width=".128" ry=".678" width="14.591" fill="url(#j)" height="13.975" stroke="url(#k)"/><path fill="url(#l)" filter="url(#i)" fill-rule="evenodd" d="m58.68 526.44l-.485 10.881-.031.5c.547.298 1.085.561 1.656.781.009.003.023-.003.031 0 1.706.652 3.513.951 5.313.938.302-.002.605-.011.906-.031.602-.041 1.217-.108 1.813-.219.596-.111 1.168-.258 1.75-.438.873-.27 1.74-.612 2.563-1.031l-.031-.5-.361-10.881z" transform="matrix(.99788 0 0 .92723.261 39.593)"/></g><rect stroke-dashoffset="1.088" x="58.01" y="526.92" rx=".102" stroke-width=".072" ry=".678" width="14.591" fill="url(#j)" height="13.975" stroke="url(#k)" transform="matrix(6.80635 0 0 .97951-295.89 67.84)"/><path fill="url(#m)" filter="url(#n)" fill-rule="evenodd" d="m100.12 585.08l-.71 9.68-.219.445c3.828.265 7.59.499 11.589.695.06.003.158-.003.219 0 11.938.58 24.58.846 37.17.834 2.11-.002 4.234-.01 6.341-.028 4.214-.036 8.515-.096 12.682-.195 4.167-.099 8.174-.229 12.245-.389 6.107-.24 12.175-.544 17.93-.917l-.219-.445-.492-9.68z"/><g transform="matrix(1.76823 0 0 .97951-59.36 67.84)"><rect stroke-dashoffset="1.088" x="58.01" y="526.92" rx=".394" stroke-width=".142" ry=".678" width="14.591" fill="url(#j)" height="13.975" stroke="url(#k)"/><use xlink:href="#A" transform="matrix(.93297 0 0 .92723 4.492 39.593)"/></g></g><use fill="url(#o)" xlink:href="#B" transform="matrix(.44503 0 0 .45522-10.817 16.08)"/><use fill="#800" xlink:href="#B" transform="matrix(.54184 0 0 .54184 93.87 9.389)"/><text font-family="Bitstream Vera Sans Mono" opacity=".755" x="53.725" y="55.645" font-weight="bold" fill="#555" font-size="2.625" transform="scale(1.09506.91319)">OXYGEN</text><rect opacity=".253" x="116" y="64" rx="1.304" ry="1.477" width="4.085" fill="url(#p)" height="24"/><path fill="url(#r)" d="M118.86489 55.15855A.783008 .783008 0 1 1 117.29888 55.15855 .783008 .783008 0 1 1 118.86489 55.15855" transform="matrix(1.44444 0 0 1.125-52.584-7.107)"/><use fill="url(#s)" xlink:href="#B" transform="matrix(.54184 0 0 .54184 93.87 9.389)"/></g></svg>