<svg xmlns="http://www.w3.org/2000/svg" viewBox="0 0 128 128" xmlns:xlink="http://www.w3.org/1999/xlink" enable-background="new 0 0 128 128"><defs><linearGradient id="a"><stop stop-color="#00f5f1"/><stop offset="1" stop-color="#00f5f1" stop-opacity="0"/></linearGradient><filter id="b"><feGaussianBlur stdDeviation="2.31062"/></filter><filter id="c"><feGaussianBlur stdDeviation="2.40201"/></filter><filter id="d"><feGaussianBlur stdDeviation=".76083"/></filter><filter id="e"><feGaussianBlur stdDeviation=".86271"/></filter><filter width="1.142" x="-.071" y="-.11" height="1.22" id="f"><feGaussianBlur stdDeviation="3.49705"/></filter><filter id="g"><feGaussianBlur stdDeviation="1.83024"/></filter><filter id="h"><feGaussianBlur stdDeviation="2.03774"/></filter><filter id="i"><feGaussianBlur stdDeviation=".89646"/></filter><clipPath id="j"><path d="m22.44 87.52c0 0 17.743-23.21 39.13-19.02 21.39 4.185 47.46 38.14 47.46 38.14-7.617 11.679-26.706 15.826-41.655 16.989 15.587-.049 36.483 4.107 53.52-15.55 0 0-28.441-46.665-57.03-51.47-28.589-4.808-52.16 31.447-52.16 31.447 8.786 20.233 27.807 28.995 49.713 34.525-18.509-8.996-32-17.03-38.979-35.06"/></clipPath><filter id="k"><feGaussianBlur stdDeviation=".56739"/></filter><clipPath id="l"><path d="m10.817 61.753c39.998-53.33 82.66-17.777 108.44 22.22-32.847-64.01-71.997-86.22-108.44-22.22"/></clipPath><filter id="m"><feGaussianBlur stdDeviation=".8308"/></filter><radialGradient cx="-318.6" cy="-88.29" id="n" r="65.19" gradientUnits="userSpaceOnUse" gradientTransform="matrix(.99917.04069-.11561 2.83907-10.471 173.54)"><stop stop-color="#004ac8"/><stop offset="1" stop-color="#c6ddff"/></radialGradient><radialGradient cx="-675.37" cy="-51.797" xlink:href="#a" id="o" r="55.902" gradientUnits="userSpaceOnUse" gradientTransform="matrix(1 0 0 1.02374 0 1.229)"/><linearGradient id="p" y1="-226.54" x1="-267.98" y2="78.23" gradientUnits="userSpaceOnUse" x2="-329.33"><stop stop-color="#fff"/><stop offset="1" stop-color="#fff" stop-opacity="0"/></linearGradient><radialGradient fx="-343.31" fy="-124.01" cx="-313.78" cy="-75.846" id="q" r="65.19" gradientUnits="userSpaceOnUse" gradientTransform="matrix(1 0 0 1.14407 0 10.927)"><stop stop-color="#fff" stop-opacity="0"/><stop offset=".384" stop-opacity="0"/><stop offset=".819" stop-opacity=".08"/><stop offset="1"/></radialGradient><radialGradient cx="-313.78" cy="-75.846" id="r" r="65.19" gradientUnits="userSpaceOnUse" gradientTransform="matrix(1 0 0 1.14407 0 10.927)"><stop/><stop offset="1" stop-opacity="0"/></radialGradient><radialGradient fx="-327.88" fy="-122.29" cx="-313.78" cy="-75.846" id="s" r="65.19" gradientUnits="userSpaceOnUse" gradientTransform="matrix(1 0 0 1.14407 0 10.927)"><stop stop-color="#fff" stop-opacity=".873"/><stop offset="1" stop-color="#fff" stop-opacity="0"/></radialGradient><radialGradient cx="52.793" cy="85.2" id="t" r="56.781" gradientUnits="userSpaceOnUse" gradientTransform="matrix(1 0 0 3.21716 0-190.67)"><stop stop-color="#484848"/><stop offset="1" stop-color="#969696"/></radialGradient><radialGradient fx="-35.09" fy="-78.957" cx="-9.626" cy="-67.68" id="u" r="115.81" gradientUnits="userSpaceOnUse" gradientTransform="matrix(.42532 0 0 .35491 68.985 113.25)"><stop stop-color="#fff"/><stop offset=".5" stop-color="#ededed"/><stop offset=".75" stop-color="#e3e3e3"/><stop offset="1" stop-color="#8c8c8c"/></radialGradient><radialGradient cx="-673.01" cy="-56.807" xlink:href="#a" id="v" r="56.16" gradientUnits="userSpaceOnUse" gradientTransform="matrix(1.58418.23743-.28449 1.78679 377 204.32)"/><path id="w" d="m-248.59222-75.845619a65.1864 74.57767 0 1 1 -130.37281 0 65.1864 74.57767 0 1 1 130.37281 0"/></defs><g fill-rule="evenodd"><path opacity=".569" filter="url(#b)" d="m340.05 154.59c0 0 19.962-26.11 44.03-21.4 24.06 4.708 53.39 42.91 53.39 42.91-8.569 13.14-30.06 17.805-46.877 19.11l-6.689-1.182c-20.824-10.121-36-19.16-43.853-39.442" transform="matrix(.91694 0 0 .91694-292.72-62.62)"/><path opacity=".361" filter="url(#f)" d="m20.438 84.984c0 0 19.18-26.11 42.29-21.4 23.12 4.708 51.29 42.91 51.29 42.91-8.232 13.14-28.862 17.805-45.02 19.11 16.846-.055 39.43 4.62 57.843-17.494 0 0-30.737-52.5-61.63-57.909-30.897-5.409-56.37 35.38-56.37 35.38 9.495 22.763 30.05 32.621 53.726 38.842-20-10.121-34.583-19.16-42.13-39.442" transform="matrix(.95453 0 0 .91694-.425 1.204)"/><path fill="url(#u)" d="m19.08 79.13c0 0 18.304-23.94 40.37-19.623 22.07 4.317 48.957 39.35 48.957 39.35-7.857 12.05-27.562 16.326-42.983 17.526l-6.133-1.084c-19.09-9.28-33.01-17.569-40.21-36.17"/></g><use fill="url(#n)" xlink:href="#w" transform="matrix(.35221-.06565.05269.35671 172.27 90.48)"/><g fill-rule="evenodd" transform="matrix(.35191.0436-.05463.36007 273.85 130.69)"><path opacity=".576" fill="#060606" filter="url(#h)" d="m-618.75-55.59c9.375-9.375 45.31-35.937 45.31-35.937l-42.19 42.19h47.656l-49.22 3.906 45.31 39.06-48.44-32.812 17.969 46.09-7.813-57.812-45.31 42.19 35.938-56.25-3.906 17.969h-53.12l49.22-13.281-.781 17.187-29.688-57.812 37.5 54.687-10.156-64.06 17.969 60.16 15.625-51.562-30.469 48.44 54.687-6.25-51.562 8.594 44.531 17.188-42.19-13.281-14.06 41.41 22.656-42.19-48.44 8.594 57.813 2.344z"/><path opacity=".933" fill="#00f5f1" filter="url(#g)" d="m-675.78-64.19c9.375-9.375 45.31-35.937 45.31-35.937l-42.19 42.19h47.656l-49.22 3.906 45.31 39.06-48.44-32.812 17.969 46.09-7.813-57.812-45.31 42.19 35.938-56.25-3.906 17.969-55.43-18.613 51.52 5.332-.781 17.187-29.688-57.812 37.5 54.687-10.156-64.06 17.969 60.16 15.625-51.562-30.469 48.44 54.687-6.25-51.562 8.594 44.531 17.188-42.19-13.281-14.06 41.41 22.656-42.19-67.59 10.635 76.961.302z" transform="matrix(-.9999.01428-.01428-.9999-1302.35-102.26)"/><path opacity=".933" fill="url(#o)" filter="url(#g)" d="m-675.78-64.19c9.375-9.375 52.857-13.59 52.857-13.59l-49.732 19.84 51.699 4.643-53.26-.737 32.781 49.961-35.906-43.711 46.11 32.555-35.958-44.27-29.896 58.889 20.521-72.951-3.906 17.969-50.66-5.164 46.754-8.117-.781 17.187-44.623-40.608 52.44 37.483 1.785-52.65 6.03 48.744 29.13-30.17-43.978 27.04 58.731-1.607-55.606 3.951 51.49 33.424-49.15-29.518 1.456 59.46 7.138-60.24-39.868 49.05 49.24-38.12z" transform="matrix(-.9999.01428-.01428-.9999-1302.35-102.26)"/><g fill="url(#v)"><path opacity=".933" d="m-676.1-56.55c9.375-9.375 53.69-34.927 53.69-34.927l-50.25 33.539 57.692-6.804-59.25 10.71 50.09 43.738-47.748-37.687 20.02 55.09-15.335-66.61-66.72 27.637 55.787-23.48-2.344-.25-38.987-53.773 47.645 50.831-13.346 6.848 72.22-.777-64.41-2.348-10.156-64.06 16.501 60.889 5.914-61.54-10.63 60.6 39.545-50.28-45.08 49.705 67.834 23.318-65.49-19.412-28.17 50.746 36.762-51.53-71.01-13.715 79.83 18.737z" transform="matrix(-.9999.01428-.01428-.9999-1302.35-102.26)"/><path opacity=".933" d="m-676.1-56.55c9.375-9.375 5.258-67.24 5.258-67.24l-1.819 65.856-61.45-40.27 59.89 44.18 36.05 54.47-33.703-48.42-13.572 53.24 18.256-64.762-66.72 27.637 55.787-23.48-2.344-.25-38.987-53.773 47.645 50.831-13.346 6.848 64.08 16.387-56.26-19.512-10.156-64.06 16.501 60.889 56.823 4.191-61.54-5.131 50.33-36.763-55.869 36.19 57.05 37.504-54.708-33.598-28.17 50.746 36.762-51.53-71.01-13.715 79.83 18.737z" transform="matrix(-.9999.01428-.01428-.9999-1302.35-102.26)"/></g></g><use xlink:href="#w" transform="matrix(.14423-.02659.01265.14446 101.84 85.52)"/><path fill="url(#p)" d="m-255.09231-75.845619a58.686314 74.57767 0 1 1 -117.37263 0 58.686314 74.57767 0 1 1 117.37263 0" transform="matrix(.22405-.11275.11345.13179 135.64 44.531)"/><use opacity=".676" fill="url(#q)" xlink:href="#w" transform="matrix(.35221-.06565.05269.35671 172.27 90.48)"/><use fill="url(#r)" xlink:href="#w" transform="matrix(.14423-.02659.01265.14446 101.84 85.52)"/><path filter="url(#m)" fill-rule="evenodd" d="m55.717 67.26c-18.652.459-33.22 19.531-33.22 19.531.087.224.192.435.281.656 1.438-1.824 18.407-22.692 38.875-18.688 20.52 4.01 45.08 35.11 47.06 37.656.122-.175.258-.352.375-.531 0 0-26.05-33.94-47.44-38.12-2.01-.392-4.01-.547-5.938-.5m-43.656 20.656c-.05.075-.281.406-.281.406 8.786 20.233 27.813 29 49.719 34.531-1.499-.728-2.974-1.466-4.406-2.188-19.817-5.538-36.736-14.3-45.03-32.75m108.53 19.844c-14.359 16.223-31.349 15.77-45.625 15.281-2.571.364-5.111.655-7.531.844 15.587-.049 36.492 4.126 53.53-15.531 0 0-.3-.473-.375-.594" transform="matrix(1.03159 0 0 1.03159-4.065-11.152)"/><use fill="url(#s)" xlink:href="#w" transform="matrix(.14423-.02659.01265.14446 101.84 85.52)"/><g fill-rule="evenodd"><path opacity=".502" fill="#101010" filter="url(#c)" d="m326.98 126.61c45-60 93-20 122 25-36.954-72.02-81-97-122-25" transform="matrix(.91694 0 0 .91694-292.72-62.62)"/><path fill="url(#t)" d="m55.47 13.03c-16.16-.363-32.515 11.679-48.37 39.531 41.26-55.02 85.28-18.356 111.88 22.906-19.59-38.18-41.36-61.94-63.5-62.44m.875 33.75c-26.972.022-48.34 32.906-48.34 32.906 9.06 20.872 28.684 29.889 51.28 35.594-19.09-9.28-32.988-17.559-40.19-36.16 0 0 18.31-23.942 40.38-19.625 22.07 4.317 48.938 39.34 48.938 39.34-7.857 12.05-27.547 16.331-42.969 17.531 16.08-.051 37.641 4.247 55.22-16.03 0 0-29.352-48.13-58.844-53.09-1.843-.31-3.671-.47-5.469-.469"/><path fill="#b3b3b3" filter="url(#e)" d="m59.781 50.847c-27.839.024-49.907 35.34-49.907 35.34.166.397.351.78.523 1.17 2.674-4.11 26.339-39.07 55.02-34.05 28.469 4.984 56.49 50 60.04 55.88.235-.272.475-.52.708-.8 0 0-30.3-51.72-60.744-57.05-1.902-.333-3.778-.494-5.634-.493m-40.461 34.952c-.204.263-.493.647-.493.647 6.333 17.03 17.707 26.03 33.13 34.482 2.737.87 5.532 1.685 8.374 2.432-19.268-9.749-33.442-18.502-41.01-37.561m94.98 21.836c-8.533 12.136-28.15 16.511-43.626 17.764 3.842-.013 7.988.237 12.315.339 12.872-2.431 25.907-7.424 32.02-17.18 0 0-.439-.568-.708-.924" transform="matrix(.95453 0 0 .91694-.425 1.204)"/><path fill="#c3c3c3" filter="url(#d)" d="m380.01 82.72c-.686-.02-1.376.007-2.063.03-13.811.451-27.74 9.556-41.37 29.24 1.313-1.288 2.622-2.521 3.938-3.662 29.934-38.599 61.1-27.309 89.03 12.758 1.499 1.542 2.959 3.138 4.406 4.755-17-26.545-35.33-42.579-53.938-43.12" transform="matrix(.91694 0 0 .91694-292.72-62.62)"/><path fill="#1f1f1f" filter="url(#i)" d="m55.4 66.761c-18.652.459-33.22 19.531-33.22 19.531l2.156 1.781c0 0 16.874-22.07 37.22-18.09 20.345 3.98 45.12 36.28 45.12 36.28l2.094-.875c0 0-26.05-33.94-47.44-38.12-2.01-.392-4.01-.547-5.938-.5" clip-path="url(#j)" transform="matrix(1.03159 0 0 1.03159-4.065-11.152)"/><path fill="#161616" filter="url(#k)" d="m54.31 32.981c-12.557.112-25.565 6.191-38.37 20.938-1.633 2.512-3.252 5.181-4.875 8.03 39.998-53.33 82.66-17.78 108.44 22.22-1.717-3.346-3.469-6.545-5.219-9.656-16.06-22.503-37.28-41.733-59.969-41.531" clip-path="url(#l)" transform="matrix(1.03159 0 0 1.03159-4.065-11.152)"/></g></svg>