<svg xmlns="http://www.w3.org/2000/svg" viewBox="0 0 44.775 53.964" xmlns:xlink="http://www.w3.org/1999/xlink"><defs><linearGradient id="a"><stop stop-color="#fff" stop-opacity=".945"/><stop offset="1" stop-color="#fff" stop-opacity="0"/></linearGradient><linearGradient id="b" y1="227.56" x1="300.25" y2="452.44" gradientUnits="userSpaceOnUse" x2="352.19" gradientTransform="matrix(.0903-.02582.00951.07526 201.35 407.28)"><stop stop-color="#0f0"/><stop offset="1" stop-color="#97ff00"/></linearGradient><linearGradient id="c" y1="237.53" x1="428.36" y2="485.45" gradientUnits="userSpaceOnUse" x2="464.27" gradientTransform="scale(.96205 1.03945)"><stop stop-color="#a20000"/><stop offset="1" stop-color="#ef0000"/></linearGradient><radialGradient cx="236.03" cy="192.58" id="d" r="198.19" gradientUnits="userSpaceOnUse" gradientTransform="scale(1.82297.54856)"><stop stop-color="#fff"/><stop offset="1" stop-color="#ff0"/></radialGradient><radialGradient cx="301.43" cy="156.29" xlink:href="#a" id="e" r="192.46" gradientUnits="userSpaceOnUse" gradientTransform="scale(1.29408.77275)"/><linearGradient xlink:href="#a" id="f" y1="160.72" x1="293.83" y2="114.58" gradientUnits="userSpaceOnUse" x2="401.18" gradientTransform="scale(.56775 1.76135)"/></defs><g fill-rule="evenodd" transform="translate(-212.12-400.59)"><path fill="url(#c)" stroke="#9b0000" stroke-linejoin="round" stroke-width="16.544" d="m460.71 99.11c-.893-.893-268.75 60.714-269.64 61.61-34.82 11.608 15.18 58.04 65.18 44.643 9.822-2.679 268.75-61.61 268.75-61.61 0 0 54.47 316.96 53.57 316.96-.893 0-277.68 70.54-277.68 70.54-66.964 10.714-75-44.643-76.78-53.57-.893-2.678-45.537-303.57-45.536-305.36 1.785-8.928 283.04-72.32 282.14-73.21z" transform="matrix(.10724 0 0 .12015 193.91 389.62)"/><g stroke-width="1.25"><path fill="url(#d)" d="m460.71 100c.892.893 59.821 36.607 58.928 36.607-.893 0-259.82 60.714-266.07 61.61-47.32 11.607-72.32-25.893-66.964-30.357 9.822-1.786 275-67.857 274.11-67.857" transform="matrix(.10724 0 0 .12015 193.81 389.48)"/><path fill="url(#e)" d="m447.32 136.61c0 .893 11.363 46.993 14.286 66.56-159.73 4.534-83.51 89.7-253.82 99.25-7.142-41.07-23.862-139.03-23.862-137.24 0 1.786 20.536 16.965 37.5 19.643 47.32-8.04 226.79-46.43 225.89-48.21" transform="matrix(.13845 0 0 .15512 188.21 385.95)"/><path fill="url(#f)" d="m183.93 166.07l31.25 234.82c0 0 8.929 42.856 55.36 32.14-2.679-6.25-31.25-251.79-32.14-251.79-36.607 11.607-52.679-15.179-54.46-15.179" transform="matrix(.15448 0 0 .15448 185.33 386.22)"/></g><path fill="url(#b)" stroke="#009700" stroke-width="1.028" d="m226.14 440.3c3.113-.89 8.982-2.507 10.149-2.78-20.11-20.994 15.716-31.3 3.785-1.082 1.885-.6 7.67-2.376 10.134-2.898.37-1.078.747-2.098 1.041-3.276-3.284 1.547-5.833 2.397-7.962 3.067 14.332-32.24-33.17-18.17-10.745 3.072-2.853.451-5.759.978-8.268 1.148 1.055 1.34 1.32 1.932 1.866 2.749z"/></g></svg>