<svg xmlns="http://www.w3.org/2000/svg" viewBox="0 0 103 147" xmlns:xlink="http://www.w3.org/1999/xlink"><defs><linearGradient id="a"><stop offset="0%" stop-color="#bbb"/><stop offset="100%" stop-color="#666"/></linearGradient><linearGradient id="b" y1="70%" y2="100%" x2="0"><stop offset="0%" stop-color="#aaa"/><stop offset="100%" stop-color="#333"/></linearGradient><linearGradient id="c" y1="70%" y2="100%" x2="0"><stop offset="0%" stop-color="#555"/><stop offset="100%" stop-color="#888"/></linearGradient><linearGradient id="d" y1="70%" y2="100%" x2="0"><stop offset="0%" stop-color="#aaa"/><stop offset="100%" stop-color="#bbb"/></linearGradient><linearGradient id="e" y1="70%" y2="100%" x2="0"><stop offset="0%" stop-color="#fff"/><stop offset="100%" stop-color="#444"/></linearGradient><linearGradient id="f" y1="100%" y2="50%" x2="0"><stop offset="0%" stop-color="#bbb"/><stop offset="100%" stop-color="#555"/></linearGradient><radialGradient cx="100" cy="100" r="60" id="g" gradientUnits="userSpaceOnUse"><stop offset="0%" stop-color="#fff"/><stop offset="100%" stop-color="#ff6"/></radialGradient></defs><g transform="translate(-48.5-45.35)"><path fill="url(#g)" d="m56.69873 121.69873a50 50 0 1 1 86.60254 0c-6 12-23.301 18.301-23.301 33.3a50 50 0 0 1 -40 0c0-15-17.301-21.301-23.301-33.3"/><path fill="url(#f)" d="m80 182a50 50 0 0 0 40 -2v3l-10 8h-20l-10-8z"/><path fill="url(#a)" d="m80 155a50 50 0 0 0 40 -2v27a-50 50 0 0 1 -40 2z"/><g fill="none" stroke-width="2.25"><g stroke="url(#b)"><path id="h" d="m80 153a50 50 0 0 0 40 0"/><use y="29" xlink:href="#h"/><path id="i" d="m80 161.75a50 50 0 0 0 40 -2"/><use y="9" xlink:href="#i"/><use y="18" xlink:href="#i"/></g><g stroke="url(#c)"><use y="-6.75" xlink:href="#i"/><use y="2.25" xlink:href="#i"/><use y="11.25" xlink:href="#i"/><use y="20.25" xlink:href="#i"/></g><g stroke="url(#d)"><use y="-4.5" xlink:href="#i"/><use y="4.5" xlink:href="#i"/><use y="13.5" xlink:href="#i"/></g><g stroke="url(#e)"><use y="-2.25" xlink:href="#i"/><use y="6.75" xlink:href="#i"/><use y="15.75" xlink:href="#i"/></g></g><path fill="none" stroke="#000" stroke-linejoin="round" stroke-width="1.5" d="m56.69873 121.69873a50 50 0 1 1 86.60254 0c-6 12-23.301 18.301-23.301 33.3v28l-10 8h-20l-10-8v-28c0-15-17.301-21.301-23.301-33.3z"/></g></svg>