<?xml version="1.0" encoding="UTF-8" standalone="no"?>
<svg
   xmlns:dc="http://purl.org/dc/elements/1.1/"
   xmlns:cc="http://creativecommons.org/ns#"
   xmlns:rdf="http://www.w3.org/1999/02/22-rdf-syntax-ns#"
   xmlns:svg="http://www.w3.org/2000/svg"
   xmlns="http://www.w3.org/2000/svg"
   version="1.1"
   id="svg2"
   height="147px"
   width="103px">
  <metadata
     id="metadata70">
    <rdf:RDF>
      <cc:Work
         rdf:about="">
        <dc:format>image/svg+xml</dc:format>
        <dc:type
           rdf:resource="http://purl.org/dc/dcmitype/StillImage" />
      </cc:Work>
    </rdf:RDF>
  </metadata>
  <defs
     id="defs4">
    <linearGradient
       id="ThreadsBackgroundGrad">
      <stop
         id="stop7"
         stop-color="#bbb"
         offset="0%" />
      <stop
         id="stop9"
         stop-color="#666"
         offset="100%" />
    </linearGradient>
    <linearGradient
       y2="100%"
       y1="70%"
       id="MedThreads1Grad">
      <stop
         id="stop12"
         stop-color="#aaa"
         offset="0%" />
      <stop
         id="stop14"
         stop-color="#333"
         offset="100%" />
    </linearGradient>
    <linearGradient
       y2="100%"
       y1="70%"
       id="DarkThreadsGrad">
      <stop
         id="stop17"
         stop-color="#555"
         offset="0%" />
      <stop
         id="stop19"
         stop-color="#888"
         offset="100%" />
    </linearGradient>
    <linearGradient
       y2="100%"
       y1="70%"
       id="MedThreads2Grad">
      <stop
         id="stop22"
         stop-color="#aaa"
         offset="0%" />
      <stop
         id="stop24"
         stop-color="#bbb"
         offset="100%" />
    </linearGradient>
    <linearGradient
       y2="100%"
       y1="70%"
       id="LightThreadsGrad">
      <stop
         id="stop27"
         stop-color="#fff"
         offset="0%" />
      <stop
         id="stop29"
         stop-color="#444"
         offset="100%" />
    </linearGradient>
    <linearGradient
       y2="50%"
       y1="100%"
       id="EndcapGrad">
      <stop
         id="stop32"
         stop-color="#bbb"
         offset="0%" />
      <stop
         id="stop34"
         stop-color="#555"
         offset="100%" />
    </linearGradient>
    <radialGradient
       r="60"
       cy="100"
       cx="100"
       gradientUnits="userSpaceOnUse"
       id="BulbGrad">
      <stop
         id="stop37"
         stop-color="#fff"
         offset="0%" />
      <stop
         id="stop39"
         stop-color="#ff6"
         offset="100%" />
    </radialGradient>
  </defs>
  <g
     id="g41"
     transform="translate(-48.5,-45.34937)">
    <path
       d="M100,100 m-43.30127,21.69873 a50,50 0 1,1 86.60254,0 c-6,12 -23.30127,18.30127 -23.30127,33.30127 a50,50 0 0,1 -40,0 c0,-15 -17.30127,-21.30127 -23.30127,-33.30127 z"
       style="fill: url(#BulbGrad)"
       id="Bulb" />
    <path
       d="M100,100 m-20,82 a50,50 0 0,0 40,-2 l0,3 -10,8 -20,0 -10,-8 z"
       style="fill: url(#EndcapGrad)"
       id="Endcap" />
    <path
       d="M100,100 m-20,55 a50,50 0 0,0 40,-2 l0,27 a-50,50 0 0,1 -40,2 z"
       style="fill: url(#ThreadsBackgroundGrad)"
       id="ThreadsBackground" />
    <g
       id="g46"
       style="fill: none; stroke-width: 2.25px">
      <g
         style="stroke: url(#MedThreads1Grad)"
         id="MedThreads1">
        <path
           d="M100,100 m-20,53 a50,50 0 0,0 40,0"
           id="ThreadsBackground1" />
        <path
           d="M100,100 m-20,82 a50,50 0 0,0 40,0"
           id="ThreadsBackground2" />
        <path
           d="M100,100 m-20,61.75 a50,50 0 0,0 40,-2"
           id="MedThread1" />
        <path
           d="M100,100 m-20,70.75 a50,50 0 0,0 40,-2"
           id="MedThread2" />
        <path
           d="M100,100 m-20,79.75 a50,50 0 0,0 40,-2"
           id="MedThread3" />
      </g>
      <g
         style="stroke: url(#DarkThreadsGrad)"
         id="DarkThreads">
        <path
           d="M100,100 m-20,55 a50,50 0 0,0 40,-2"
           id="DarkThread1" />
        <path
           d="M100,100 m-20,64 a50,50 0 0,0 40,-2"
           id="DarkThread2" />
        <path
           d="M100,100 m-20,73 a50,50 0 0,0 40,-2"
           id="DarkThread3" />
        <path
           d="M100,100 m-20,82 a50,50 0 0,0 40,-2"
           id="DarkThread4" />
      </g>
      <g
         style="stroke: url(#MedThreads2Grad)"
         id="MedThreads2">
        <path
           d="M100,100 m-20,57.25 a50,50 0 0,0 40,-2"
           id="MedThread4" />
        <path
           d="M100,100 m-20,66.25 a50,50 0 0,0 40,-2"
           id="MedThread5" />
        <path
           d="M100,100 m-20,75.25 a50,50 0 0,0 40,-2"
           id="MedThread6" />
      </g>
      <g
         style="stroke: url(#LightThreadsGrad)"
         id="LightThreads">
        <path
           d="M100,100 m-20,59.5 a50,50 0 0,0 40,-2"
           id="LightThread1" />
        <path
           d="M100,100 m-20,68.5 a50,50 0 0,0 40,-2"
           id="LightThread2" />
        <path
           d="M100,100 m-20,77.5 a50,50 0 0,0 40,-2"
           id="LightThread3" />
      </g>
    </g>
    <path
       d="M100,100 m-43.30127,21.69873 a50,50 0 1,1 86.60254,0 c-6,12 -23.30127,18.30127 -23.30127,33.30127 l0,28 -10,8 -20,0 -10,-8 0,-28 c0,-15 -17.30127,-21.30127 -23.30127,-33.30127 z"
       style="fill: none; stroke: #000; stroke-width: 1.5px; stroke-linecap:butt; stroke-linejoin: round"
       id="Outline" />
  </g>
</svg>
