<svg xmlns="http://www.w3.org/2000/svg" viewBox="0 0 49.39 53.964"><defs><radialGradient cx="463.97" cy="411.44" id="a" r="38.4" gradientUnits="userSpaceOnUse" gradientTransform="scale(.91211 1.09636)"><stop stop-color="#7d7d7d"/><stop offset="1" stop-color="#fff"/></radialGradient><linearGradient id="b" y1="444.38" x1="455.31" y2="345.04" gradientUnits="userSpaceOnUse" x2="435.55" gradientTransform="scale(.91211 1.09636)"><stop stop-color="#383838"/><stop offset="1" stop-color="#adadae"/></linearGradient><linearGradient id="c" y1="582.16" x1="270.91" y2="562.5" gradientUnits="userSpaceOnUse" x2="258.43" gradientTransform="scale(1.20852.82746)"><stop stop-color="#ff7200"/><stop offset="1" stop-color="#ff0"/></linearGradient><linearGradient id="d" y1="606.15" x1="265.17" y2="717.07" gradientUnits="userSpaceOnUse" x2="262.27" gradientTransform="scale(1.37386.72788)"><stop stop-color="#fff"/><stop offset="1" stop-color="#fff" stop-opacity="0"/></linearGradient></defs><g fill-rule="evenodd" transform="matrix(.56775 0 0 .56775-203.96-238.43)"><path fill-opacity=".227" d="m460.44 498.67c0-11.636 0-53.19 0-53.19 1.662-54.02-79.79-56.52-78.12 0 0 7.48.039 3.914.039 8.07h18.246c0-4.987-.831-2.252 0-7.239-.832-30.751 39.893-31.582 39.893-1.662.831 4.987 0 40.724-.831 52.36 7.48.831 14.96 0 20.778 1.662" transform="matrix(.65046 0 0 .65046 131.32 161.17)"/><g fill-opacity=".216"><rect width="64.983" x="376.51" y="471.4" rx="5.688" height="43.609"/><rect width="64.983" x="374.02" y="468.49" rx="5.688" height="43.609"/></g><path fill="url(#a)" stroke="url(#b)" stroke-width="3.375" d="m460.44 498.67c0-11.636 0-53.19 0-53.19 1.662-54.02-79.79-56.52-78.12 0 0 7.48.039 3.914.039 8.07h18.246c0-4.987-.831-2.252 0-7.239-.832-30.751 39.893-31.582 39.893-1.662.831 4.987 0 40.724-.831 52.36 7.48.831 14.96 0 20.778 1.662z" transform="matrix(.65046 0 0 .65046 127.16 158.26)"/><g transform="matrix(2.38499 0 0 2.38499-372.33-645.7)"><rect width="27.25" x="311.02" y="465.43" fill="url(#c)" rx="2.385" height="18.285" stroke="#a53800" stroke-width="1.175"/><path fill="url(#d)" stroke-width="4.625" d="m332.45 472.07c-5.525 0-9.974 4.449-9.974 9.974v56.52c83.943-4.448 48.2-22.733 125.5-46.543v-9.973c0-5.525-4.448-9.974-9.973-9.974z" transform="matrix(.21711 0 0 .23913 240.83 352.54)"/></g></g></svg>