<svg xmlns="http://www.w3.org/2000/svg" viewBox="0 0 49.39 53.964"><defs><radialGradient cx="463.97" cy="411.44" r="38.4" id="a" gradientUnits="userSpaceOnUse" gradientTransform="matrix(.33684 0 0 .40488-131.76-143.65)"><stop stop-color="#7d7d7d"/><stop offset="1" stop-color="#fff"/></radialGradient><linearGradient id="b" y1="444.38" y2="345.04" x1="455.31" x2="435.55" gradientUnits="userSpaceOnUse" gradientTransform="matrix(.33684 0 0 .40488-131.76-143.65)"><stop stop-color="#383838"/><stop offset="1" stop-color="#adadae"/></linearGradient><linearGradient id="c" y1="582.16" y2="562.5" x1="270.91" x2="258.43" gradientUnits="userSpaceOnUse" gradientTransform="scale(1.20852.82746)"><stop stop-color="#ff7200"/><stop offset="1" stop-color="#ff0"/></linearGradient><linearGradient id="d" y1="606.15" y2="717.07" x1="265.17" x2="262.27" gradientUnits="userSpaceOnUse" gradientTransform="scale(1.37386.72788)"><stop stop-color="#fff"/><stop offset="1" stop-color="#fff" stop-opacity="0"/></linearGradient></defs><g fill-rule="evenodd"><path fill-opacity=".227" d="m40.637 42.16v-19.643c.614-19.95-29.466-20.873-28.85 0 0 2.762.014 7.549.014 9.08h6.738c0-1.842 0-7.02 0-8.777-.307-11.356 14.732-11.663 14.732-.614.307 1.842 0 15.04-.307 19.336 2.762.307 5.525 0 7.673.614"/><g fill-opacity=".216" transform="matrix(.56775 0 0 .56775-203.96-238.43)"><rect width="64.983" x="376.51" y="471.4" rx="5.688" height="43.609"/><rect width="64.983" x="374.02" y="468.49" rx="5.688" height="43.609"/></g><path fill="url(#a)" stroke="url(#b)" stroke-width="1.246" d="m38.27 40.512v-19.643c.614-19.95-29.466-20.873-28.85 0 0 2.762.014 8.479.014 10.01h6.738v-9.707c-.307-11.356 14.732-11.663 14.732-.614.307 1.842 0 15.04-.307 19.336 2.762.307 5.525 0 7.673.614z"/><g transform="matrix(1.35408 0 0 1.35408-415.35-605.03)"><rect width="27.25" x="311.02" y="465.43" fill="url(#c)" rx="2.385" height="18.285" stroke="#a53800" stroke-width="1.175"/><path fill="url(#d)" stroke-width="4.625" d="m332.45 472.07c-5.525 0-9.974 4.449-9.974 9.974v56.52c83.943-4.448 48.2-22.733 125.5-46.543v-9.973c0-5.525-4.448-9.974-9.973-9.974z" transform="matrix(.21711 0 0 .23913 240.83 352.54)"/></g></g></svg>