<svg xmlns="http://www.w3.org/2000/svg" viewBox="0 0 154.98 132.8" xmlns:xlink="http://www.w3.org/1999/xlink"><defs><linearGradient id="a" y1="510.16" y2="255.44" x1="335.22" x2="75.57" gradientUnits="userSpaceOnUse" gradientTransform="scale(1.08304.92333)"><stop stop-color="#0000a3"/><stop offset="1" stop-color="#4ad5ff"/></linearGradient><linearGradient id="b" y1="295.2" y2="276.96" x1="87.78" x2="69.21" gradientUnits="userSpaceOnUse" gradientTransform="scale(1.18697.84248)"><stop stop-color="#dedede"/><stop offset="1" stop-color="#fff"/></linearGradient><path fill-rule="evenodd" fill-opacity=".182" id="c" d="m77.58 600.39c-1.687 0 443.54-.001 443.54-.001 0 0 .687-343.15-.999-343.15-2.685-27.561-11.938-33.93-27.25-34.617-157.62.31-237.06 0-384.43.31-23.06-.31-28.87 9.254-30.18 34.994-1.686 45.536.999 339.1-.688 342.47"/><path fill="url(#a)" stroke="#00f" fill-rule="evenodd" id="d" stroke-width="3.285" d="m77.58 600.39c-1.687 0 443.54-.001 443.54-.001 0 0 .687-343.15-.999-343.15-2.685-27.561-11.938-33.93-27.25-34.617-157.62.31-237.06 0-384.43.31-23.06-.31-28.87 9.254-30.18 34.994-1.686 45.536.999 339.1-.688 342.47z"/><path fill="url(#b)" stroke="#676665" fill-rule="evenodd" id="e" stroke-width=".103" d="m76.5 225.82h36.818v26.1h-36.818z"/></defs><g transform="translate(0 28.698)"><use width="154.98" height="132.8" xlink:href="#c" transform="matrix(.16283 0 0 .16283-9.515-33.33)"/><use width="154.98" height="132.8" xlink:href="#c" transform="matrix(.16283 0 0 .16283-7.816-31.424)"/><use width="154.98" height="132.8" xlink:href="#d" transform="matrix(.16283 0 0 .16283-12.364-35.982)"/><use width="154.98" height="132.8" xlink:href="#e" transform="matrix(1.91257 0 0 1.91257-146.16-421.77)"/></g><g transform="translate(0 9)"><use width="154.98" height="132.8" xlink:href="#c" transform="matrix(.16283 0 0 .16283 68.41-33.33)"/><use width="154.98" height="132.8" xlink:href="#c" transform="matrix(.16283 0 0 .16283 70.11-31.424)"/><use width="154.98" height="132.8" xlink:href="#d" transform="matrix(.16283 0 0 .16283 65.56-35.982)"/><use width="154.98" height="132.8" xlink:href="#e" transform="matrix(1.91257 0 0 1.91257-68.24-421.77)"/></g><g transform="translate(-24.759-3.376)"><use width="154.98" height="132.8" xlink:href="#c" transform="matrix(.16283 0 0 .16283 68.41 33.13)"/><use width="154.98" height="132.8" xlink:href="#c" transform="matrix(.16283 0 0 .16283 70.11 35.04)"/><use width="154.98" height="132.8" xlink:href="#d" transform="matrix(.16283 0 0 .16283 65.56 30.48)"/><use width="154.98" height="132.8" xlink:href="#e" transform="matrix(1.91257 0 0 1.91257-68.24-355.31)"/></g></svg>