<svg width="128" xmlns="http://www.w3.org/2000/svg" height="128" viewBox="0 0 126 111.715" xmlns:xlink="http://www.w3.org/1999/xlink" enable-background="new 0 0 126 111.715"><defs><linearGradient id="a"><stop stop-color="#fff"/><stop offset="1" stop-color="#fff" stop-opacity="0"/></linearGradient><linearGradient id="b"><stop stop-color="#040404" stop-opacity="0"/><stop offset=".65" stop-color="#040404" stop-opacity="0"/><stop offset="1" stop-color="#040404"/></linearGradient><linearGradient id="c" y1="149.18" x1="-198.06" y2="150.37" x2="-196.29" gradientUnits="userSpaceOnUse"><stop/><stop offset="1" stop-opacity="0"/></linearGradient><radialGradient fx="-188.5" fy="128.64" cx="-188.69" cy="127.57" id="d" r="17.433" gradientUnits="userSpaceOnUse" gradientTransform="matrix(2.35738.00643 0 .39004 255.97 88.51)"><stop stop-color="#e8e8e8"/><stop offset="1" stop-color="#969696" stop-opacity="0"/></radialGradient><linearGradient id="e" y1="150.43" x1="-181.02" y2="149.1" gradientUnits="userSpaceOnUse" x2="-191.35"><stop stop-color="#545454"/><stop offset="1" stop-color="#b1b1b1"/></linearGradient><linearGradient id="f" y1="123" x1="136.78" y2="158.5" gradientUnits="userSpaceOnUse" x2="265.99" gradientTransform="matrix(2.21212.23455-.11007 2.22564-647.26-222.14)"><stop stop-color="#181818"/><stop offset="1" stop-color="#181818" stop-opacity="0"/></linearGradient><linearGradient id="g" y1="151.2" x1="-207.73" y2="141.26" gradientUnits="userSpaceOnUse" x2="-210.99"><stop stop-color="#686868"/><stop offset="1" stop-color="#686868" stop-opacity="0"/></linearGradient><linearGradient xlink:href="#a" id="h" y1="131.61" x1="-191.01" y2="130.56" gradientUnits="userSpaceOnUse" x2="-198.02"/><linearGradient id="i" y1="154.47" x1="-197.69" y2="153.72" gradientUnits="userSpaceOnUse" x2="-189.48"><stop stop-color="#9ca096"/><stop offset="1" stop-color="#9ca096" stop-opacity="0"/></linearGradient><radialGradient fx="-174.06" fy="171.86" cx="-180.54" cy="171.75" xlink:href="#b" id="j" r="13.297" gradientUnits="userSpaceOnUse" gradientTransform="matrix(-.50448.66201 2.31769 1.76618-696.14-20.963)"/><linearGradient xlink:href="#c" id="k" y1="146.25" x1="-193.56" y2="82.64" gradientUnits="userSpaceOnUse" x2="-138.48" gradientTransform="translate(4.557-5.96)"/><radialGradient fx="-174.06" fy="171.86" cx="-180.54" cy="171.75" xlink:href="#b" id="l" r="13.297" gradientUnits="userSpaceOnUse" gradientTransform="matrix(.73168.57855-1.80736 2.28572 272.65-128.65)"/><linearGradient xlink:href="#c" id="m" y1="146.25" x1="-193.56" y2="137.98" gradientUnits="userSpaceOnUse" x2="-113.72" gradientTransform="translate(4.557-5.96)"/><linearGradient xlink:href="#c" id="n" y1="146.25" x1="-193.56" y2="83.83" gradientUnits="userSpaceOnUse" x2="-200.09" gradientTransform="translate(5.96-6.31)"/><linearGradient xlink:href="#f" id="o" y1="123" x1="136.78" y2="158.5" gradientUnits="userSpaceOnUse" x2="265.99" gradientTransform="matrix(1.18048.12506-.05874 1.18667-436.81-45.563)"/><linearGradient id="p" y1="76.56" x1="-213.11" y2="136.59" gradientUnits="userSpaceOnUse" x2="-111.21"><stop stop-color="#ff0"/><stop offset="1" stop-color="#ffbf00"/></linearGradient><linearGradient id="q" y1="75.939" x1="-212.59" y2="83.82" gradientUnits="userSpaceOnUse" x2="-210.88"><stop stop-color="#111"/><stop offset="1" stop-color="#111" stop-opacity="0"/></linearGradient><linearGradient xlink:href="#a" id="r" y1="123.44" x1="-111.13" y2="157.16" gradientUnits="userSpaceOnUse" x2="172.67" gradientTransform="matrix(1 .12616 0 1-102.63 7.338)"/><linearGradient id="s" y1="61.74" x1="-214.73" y2="165.79" gradientUnits="userSpaceOnUse" x2="-152.39"><stop stop-color="#efefef"/><stop offset=".5" stop-color="#f8f8f8"/><stop offset="1" stop-color="#e0e0e0"/></linearGradient><linearGradient xlink:href="#c" id="t" y1="146.44" x1="-56.632" y2="1.103" gradientUnits="userSpaceOnUse" x2="-106.68" gradientTransform="matrix(1 .12616 0 1-102.63 7.338)"/><linearGradient id="u" x1="-117.12" gradientUnits="userSpaceOnUse" x2="-.161" gradientTransform="matrix(1 .12616 0 1-102.63 7.338)"><stop stop-color="#4b4b4b"/><stop offset="1" stop-color="#676767"/></linearGradient><radialGradient cx="-193.25" cy="156.12" xlink:href="#a" id="v" r="5.281" gradientUnits="userSpaceOnUse" gradientTransform="matrix(.86223-.02017.14452 6.11072-47.09-796.39)"/><radialGradient cx="-181.42" cy="159.11" id="w" r="16.293" gradientUnits="userSpaceOnUse" gradientTransform="matrix(1.30252-.53947.2108.50336 21.887-27.756)"><stop stop-color="#5b5b5b"/><stop offset="1" stop-color="#5b5b5b" stop-opacity="0"/></radialGradient><linearGradient xlink:href="#c" id="x" y1="57.706" x1="-224.77" y2="94.69" x2="-211.83" gradientUnits="userSpaceOnUse"/><path fill-rule="evenodd" id="y" d="m-207.17 167.43l96.68-8.749-19.08-80.63-64.3 4.38-20.395 1.811c-.379 1.36-.098 2.895.021 4.409z"/></defs><g transform="matrix(.99447 0 0 1 227.44-68.945)"><g fill-rule="evenodd"><path fill="#fff" stroke="url(#u)" stroke-width=".213" d="m-217.59 80.28c17.596-1.889 37.2-5.138 52.616-5.642l41.05-1.96 20.882 89.64-109.98 11.88-6.367-88.67c-.351-2.4.154-5 1.795-5.252z"/><path fill="url(#s)" stroke="url(#t)" stroke-width=".411" d="m-215.77 81.3c16.933-2.221 31.948-5.39 50.798-6.663l41.05-1.96 21.873 91.13-110.97 10.391-6.367-88.67c-.501-4.901 1.857-6.376 3.613-4.231z"/></g><use fill="url(#r)" stroke="#000" xlink:href="#y" stroke-width=".014"/><path fill="url(#q)" fill-rule="evenodd" d="m-215.77 81.3c16.933-2.221 31.948-5.39 50.798-6.663l-54.41 10.894c-.501-4.901 1.857-6.376 3.613-4.231"/><use fill="#2c72c7" xlink:href="#y"/><path fill="url(#p)" fill-rule="evenodd" d="m-158.65 90.11l-4.46 1.723 3.476 5.199 3.199-1.489 3.23 1.982 1.507-5.937-3.446.56zm-17.339 7.365l-7.721.338-8.06 2.123-.708 4.553-4.184 3.507 2.799 6.306 3.138 2.461 6.306 2.799h3.876l1.046 3.507v4.891l3.845 3.168-.338 3.507-3.168 1.384-2.092-5.26-5.968-2.43-3.845 4.184 2.799 3.168 5.599 3.168 4.922 3.845-4.214 4.922-3.845 2.092 2.092 5.26 3.876-1.753 5.26.708-.708 2.43 2.461 3.507 4.553-1.753 1.753 1.077-1.077 3.845.338.769 56.755-5.137-9.382-39.621-.708-.185h-2.123l-1.384-.338-3.168-2.461h-3.138l-3.507-.708-3.876-1.753-4.553.708-4.553-1.753 1.753-3.845-5.968-3.168-4.214 1.415-4.184.338-9.813-7.01-3.507-2.799z"/><g fill="none"><path stroke="url(#o)" stroke-linejoin="round" stroke-width="1.461" d="m-151.74 139.19c3.894 18.446-12.775 38.489-34.06 41.16-20.396 2.56-41.01-14.1-42-32.703-.989-18.6 12.955-34.756 34.36-36.686 21.404-1.93 37.759 9.533 41.705 28.23z" stroke-dashoffset="4"/><g stroke-width=".411"><path stroke="url(#n)" d="m-190.37 143.04l-7.07-60.33"/><path stroke="url(#m)" d="m-221.03 145.87c.992 0 105.2-10.805 105.2-10.805"/></g></g><path opacity=".664" fill="url(#l)" fill-rule="evenodd" d="m-155.58 139.1l-25.01 10.732-6.06 27.67 13.944-22.267-.694-.475z"/><g fill="none"><path stroke="url(#k)" stroke-width=".411" d="m-192.02 142.4l59.53-64.1"/><path opacity=".119" stroke="#000" stroke-width=".115" d="m-189.89 134.23l72.38-6.755"/></g><g fill-rule="evenodd"><path opacity=".422" fill="url(#j)" d="m-214.81 148.04l15.924 2.895 9.815 19.994-2.248.108-13.937-12.975.56-.626-9.663-4.32z"/><path fill="#cdcdcd" stroke="#0f0f0f" stroke-width=".135" d="m-225.38 146.15l25.798 5.996 12.852 25.359 6.851-26.635 24.305-11.673-28.433-5.152-9.79-20.419-5.535 22.737z"/><path fill="url(#i)" d="m-199.56 152.08l9.09-15.521 3.792 40.629z"/><path fill="#9c9c9c" d="m-179.91 150.85l-10.568-14.305 34.866 2.591z"/><path fill="url(#h)" d="m-190.46 136.56l-3.421-22.702-5.364 22.555z"/><path fill="url(#g)" d="m-199.55 152.1l9.08-15.543-34.525 9.584z"/><path fill="#d4d4d4" d="m-184.18 133.96l-6.294 2.587 34.866 2.591z"/></g><g fill="none" stroke="#000" stroke-width=".115"><path opacity=".119" d="m-120.97 159.51l-11.155-43.44"/><path opacity=".119" d="m-137.7 161l-13.324-54.723"/><path opacity=".119" d="m-154.44 162.73l-12.581-60.18"/><path opacity=".119" d="m-170.55 158.27l-12.395-60.49"/><path opacity=".119" d="m-193.6 104.98l1.487 11.155"/><path opacity=".119" d="m-174.52 157.53l62.47-6.507"/><path opacity=".119" d="m-180.47 121.09l50.818-5.02"/><path opacity=".119" d="m-196.58 109.69l36.688-2.789"/></g><path fill="url(#f)" d="m-167.68 80.5l-5.814.431c25.581 3.508 45.22 18.375 54.23 40.636l-1.661-6.891c-9.36-17.62-25.89-29.789-46.758-34.18m-43.848 3.48l-2.568.214-.219.735c1.48-.529 1.247-.505 2.787-.95m96.91 57.06c.279 4.77-.096 9.569-1.107 14.273l1.323.8c.662-2.977 1.089-5.989 1.261-9.01z"/><g fill-rule="evenodd"><path fill="url(#w)" d="m-180.07 150.92l-8.441-11.793 32.899.013z"/><path fill="url(#e)" d="m-179.91 150.85l-10.563-14.292 3.792 40.629z"/><path opacity=".705" fill="url(#d)" d="m-182.33 148.11l-8.142-11.566 34.866 2.591z"/></g><g stroke="#000" stroke-linejoin="round" stroke-width=".118" stroke-dashoffset="4" transform="matrix(-.99656.08289.23607.97174 0 0)"><path opacity=".631" d="m159.12 146.81h4.781v1.668h-4.781z"/><path opacity=".631" fill="#fff" fill-opacity=".314" d="m154.34 146.81h4.781v1.668h-4.781z"/><path opacity=".631" d="m149.51 146.81h4.781v1.668h-4.781z"/></g><g fill-rule="evenodd"><path opacity=".082" fill="url(#c)" d="m-200.41 151.86l8.253-12.446-6.259 15.12-1.097-2.548z"/><path opacity=".082" fill-opacity=".208" d="m-199.95 151.88l6.873-10.978-6.303 11.471-.133-.39z"/><path fill="url(#v)" d="m-184.3 150.29l-6.169-13.734 3.792 40.629z"/><path opacity=".75" fill="url(#x)" d="m-215.77 81.3c16.933-2.221 31.948-5.39 50.798-6.663l41.05-1.96 21.873 91.13-110.97 10.391-6.367-88.67c-.501-4.901 1.857-6.376 3.613-4.231"/></g></g></svg>