<?xml version="1.0" encoding="UTF-8"?>
<svg xmlns="http://www.w3.org/2000/svg" viewBox="0 0 128 128" role="img" aria-label="Open rich text editor">
  <defs>
    <linearGradient id="window" x1="20" y1="14" x2="108" y2="116" gradientUnits="userSpaceOnUse">
      <stop offset="0" stop-color="#ffffff"/>
      <stop offset="1" stop-color="#dfe7f2"/>
    </linearGradient>
    <linearGradient id="title" x1="22" y1="16" x2="106" y2="44" gradientUnits="userSpaceOnUse">
      <stop offset="0" stop-color="#8fb4df"/>
      <stop offset="1" stop-color="#4679b7"/>
    </linearGradient>
    <linearGradient id="pencil" x1="73" y1="83" x2="114" y2="45" gradientUnits="userSpaceOnUse">
      <stop offset="0" stop-color="#f7c85a"/>
      <stop offset="1" stop-color="#d69523"/>
    </linearGradient>
    <filter id="shadow" x="-20%" y="-20%" width="140%" height="140%">
      <feDropShadow dx="2" dy="3" stdDeviation="2" flood-color="#000000" flood-opacity=".28"/>
    </filter>
  </defs>

  <rect x="18" y="14" width="92" height="100" rx="8" fill="url(#window)" stroke="#4f6275" stroke-width="5" filter="url(#shadow)"/>
  <rect x="18" y="14" width="92" height="28" rx="8" fill="url(#title)"/>
  <path d="M18 34h92v10H18z" fill="#4679b7"/>
  <circle cx="31" cy="28" r="4" fill="#eef5ff"/>
  <circle cx="44" cy="28" r="4" fill="#eef5ff"/>
  <circle cx="57" cy="28" r="4" fill="#eef5ff"/>

  <path d="M35 58h58" stroke="#35495d" stroke-width="6" stroke-linecap="round"/>
  <path d="M35 73h44" stroke="#35495d" stroke-width="6" stroke-linecap="round"/>
  <path d="M35 88h35" stroke="#35495d" stroke-width="6" stroke-linecap="round"/>

  <path d="M87 52l13-13 15 15-13 13z" fill="#f2d2b8" stroke="#5b4636" stroke-width="4"/>
  <path d="M54 99l33-47 15 15-47 33z" fill="url(#pencil)" stroke="#5b4636" stroke-width="4" stroke-linejoin="round"/>
  <path d="M54 99l8-24 16 16z" fill="#fff3cf" stroke="#5b4636" stroke-width="4" stroke-linejoin="round"/>
  <path d="M54 99l5-15 10 10z" fill="#3b3b3b"/>
</svg>
