<svg xmlns="http://www.w3.org/2000/svg" viewBox="0 0 128 128" xmlns:xlink="http://www.w3.org/1999/xlink"><defs><linearGradient id="a"><stop stop-color="#fff"/><stop offset="1" stop-color="#fff" stop-opacity="0"/></linearGradient><linearGradient id="b"><stop stop-color="#fff"/><stop offset="1" stop-color="#252525" stop-opacity="0"/></linearGradient><linearGradient id="c"><stop stop-color="#b4942a"/><stop offset="1" stop-color="#e4dcc9"/></linearGradient><radialGradient fx="14.05" cx="63.912" cy="115.71" id="d" r="63.912" gradientUnits="userSpaceOnUse" gradientTransform="matrix(1 0 0 .1978 0 92.82)"><stop/><stop offset="1" stop-opacity="0"/></radialGradient><linearGradient id="e"><stop stop-color="#9a7600"/><stop offset=".093" stop-color="#e3ad00"/><stop offset=".504" stop-color="#ffcd2c"/><stop offset=".916" stop-color="#e3ad00"/><stop offset="1" stop-color="#b98d00"/></linearGradient><radialGradient cx="34.678" cy="7.462" id="f" r="47.595" gradientUnits="userSpaceOnUse" gradientTransform="matrix(.99991-.00784.00057.02048-.001 7.581)"><stop stop-color="#fff" stop-opacity=".683"/><stop offset="1" stop-color="#fff" stop-opacity="0"/></radialGradient><radialGradient cx="34.678" cy="7.462" xlink:href="#a" id="g" r="47.595" gradientUnits="userSpaceOnUse" gradientTransform="matrix(-1.5103.00264-.00012-.00911 87.05 7.439)"/><radialGradient cx="49.01" cy="2.674" xlink:href="#b" id="h" r="1.725" gradientUnits="userSpaceOnUse" gradientTransform="matrix(2.49771 0 0 .30199-234.18-70.44)"/><radialGradient cx="49.01" cy="2.674" xlink:href="#b" id="i" r="1.725" gradientUnits="userSpaceOnUse" gradientTransform="matrix(2.49771 0 0 .30199-49.689-77.18)"/><linearGradient xlink:href="#c" id="j" x1="49.15" gradientUnits="userSpaceOnUse" x2="82.48" gradientTransform="matrix(1.68783-.05262.03156 1.68976-36.52-50.09)"/><linearGradient xlink:href="#a" id="k" y1=".812" x1="48.5" y2="2.366" gradientUnits="userSpaceOnUse" x2="48.733" gradientTransform="matrix(2.70649 2.43705-2.42785 2.71608-8.787-116.26)"/><radialGradient cx="49.01" cy="2.674" xlink:href="#b" id="l" r="1.725" gradientUnits="userSpaceOnUse" gradientTransform="matrix(3.64233 0 0 .44321-84.03-72.05)"/><radialGradient fx="47.37" fy="6.77" cx="49.01" cy="8.495" id="m" r="3.975" gradientUnits="userSpaceOnUse" gradientTransform="matrix(2.70649 2.43705-.91469 1.02329-21.642-101.88)"><stop stop-color="#fff"/><stop offset="1" stop-color="#aeaeae"/></radialGradient><linearGradient xlink:href="#e" id="n" x1="11.326" gradientUnits="userSpaceOnUse" x2="14.494" gradientTransform="matrix(2.08274 1.8832-.88413.99685 93.14-32.25)"/><radialGradient fx="16.217" fy="64.14" cx="36.676" cy="95.77" xlink:href="#e" id="o" r="47.746" gradientUnits="userSpaceOnUse" gradientTransform="matrix(.12897.11812-1.19056 1.28041 187.98-67.855)"/><radialGradient cx="15.727" cy="58.09" id="p" r="2.614" gradientUnits="userSpaceOnUse" gradientTransform="matrix(3.78102 3.4452-23.38445 26.28997 1364.26-1515.7)"><stop stop-color="#252525"/><stop offset=".5" stop-color="#252525"/><stop offset=".75" stop-color="#252525"/><stop offset="1"/></radialGradient><radialGradient cx="42.618" cy="120.64" xlink:href="#c" id="q" r="3.407" gradientUnits="userSpaceOnUse" gradientTransform="matrix(3.08798 2.95091-13.94684 12.15631 1594.48-1491.1)"/></defs><path fill="#fff" fill-opacity=".757" d="m50.893 3.281v-2.795"/><path opacity=".381" fill="url(#d)" d="M127.82442 115.70919A63.912209 12.641975 0 1 1 0 115.70919 63.912209 12.641975 0 1 1 127.82442 115.70919" transform="matrix(1 0 0 .41667 0 74.872)"/><g fill-rule="evenodd"><path d="m106.69.472c.993-1.11 7.519-.583 14.468 5.674 7.02 6.318 8.427 12.431 7.184 13.822-.809.905-1.619 1.811-2.428 2.716-7.217-6.499-14.435-12.998-21.652-19.496.809-.905 1.619-1.811 2.428-2.716"/><path d="m19.237 121.95l32.75-15.12.152-.173-21.463-19.71-.207.234z"/><path fill="url(#q)" d="m20.86 120.37l30.548-14.09.152-.173-20.303-18.625-.207.234z"/></g><path fill="url(#p)" d="m40.529 97.79c2.667 2.408 4.457 2.424 5.41 3.284.154.139.284.302.394.468l72.21-82.25-10.483-9.465-72.34 82.41c.347.091.673.216.974.488.871.787 1.161 2.649 3.841 5.069"/><path opacity=".353" d="m48.707 98.07l-2.831 3.212c.871.852.698 2.351 2.3 3.798 1.726 1.559 2.637.736 3.755 1.74l2.865-3.251z"/><path fill="url(#o)" d="m118.16 18.945l-72.15 82.19c.876.856.837 2.21 2.447 3.664 1.735 1.567 2.515.893 3.64 1.902l72.19-82.23z"/><path opacity=".386" fill="#252525" d="m38.07 91.16l-1.452 1.647-.056.06c.724.674.64 2.23 3.038 4.59l1.215 1.097c2.614 2.166 4.119 1.873 5.073 2.734l1.533-1.758z"/><path opacity=".353" fill="#131313" d="m31.99 85.65l-1.522 1.533c.033.03-.086.168-.052.198.684.618.668 2.195 1.925 3.533l.699.631c1.497 1.158 2.754.744 3.519 1.33l1.522-1.727z"/><path fill="url(#n)" d="m32.988 90.94c1.67 1.491 2.812.98 3.701 1.782l72.15-82.19-6.186-5.586-72.19 82.23c.034.031.067.061.101.092.695.628.736 2.171 2.418 3.673"/><path d="m79.69-70.876h29.13v6.847h-29.13z" transform="rotate(41.95725)"/><path fill="url(#f)" d="M82.17284 7.462277A47.4952 .971422 0 1 1 -12.817558 7.462277 47.4952 .971422 0 1 1 82.17284 7.462277" transform="matrix(.62355-.70655-2.80565-2.52939 75.65 84.19)"/><path fill="url(#g)" d="M106.56087 7.462277A71.883232 .423049 0 1 1 106.52539 7.448987" transform="matrix(.51517-.58807-2.03429-1.83752 69.26 85.81)"/><path fill="url(#m)" d="m95.95 12.504c-2.982 1.941-5.684 5.384-7.172 8.235l17.304 15.428 7.272-8.135zm15.574 13.881l-7.272 8.135 6.198 5.591c2.599-1.621 5.559-4.811 7.272-8.135z"/><path fill-rule="evenodd" d="m33.34 115.5c-3.065-1.248-7.229-6.315-9.362-8.148l-4.744 14.584z"/><path fill="url(#l)" d="m88.2-71.973h12.563v2.75h-12.563z" transform="matrix(.74313.66915-.66644.74556 0 0)"/><path fill="url(#k)" fill-rule="evenodd" d="m119 4.756c4.486 3.462 7.691 8.241 7.868 8.7.176.459-4.184-4.888-7.891-7.336-3.678-2.43-8.817-2.49-9.197-2.786-.38-.296-2.948-3.01-.618-2.912 2.437.105 6.373 1.662 9.838 4.334"/><path fill="url(#j)" d="m51.612 100.33c-.421.478-.655.931-.703 1.358-.048.427.096.789.43 1.085.333.295.708.392 1.124.292.416-.1.835-.39 1.256-.868.423-.481.659-.935.707-1.362.048-.427-.095-.788-.428-1.083-.334-.296-.71-.394-1.126-.294-.416.1-.836.391-1.259.872m-.593-.526c.861-.978 1.681-1.615 2.461-1.911.78-.296 1.427-.216 1.941.24.513.455.672 1.088.476 1.902-.196.813-.724 1.709-1.585 2.687-.858.976-1.679 1.613-2.461 1.911-.78.296-1.426.216-1.939-.238-.514-.456-.674-1.09-.478-1.903.198-.816.727-1.712 1.585-2.687m8.132-5.983l3.478-.676-1.438 1.635-2.336.462-.157 2.371-1.446 1.643.238-3.547-3.34.653 1.442-1.639 2.195-.427.147-2.235 1.449-1.647-.233 3.407m.383-3.578l1.51-1.716 2.35-.384.089-2.388 1.514-1.72-.204 3.947 1.337 1.185-1.381 1.57-1.337-1.185-3.877.692m13.806-9.749c-.245.479-.528.951-.849 1.417-.321.465-.679.922-1.073 1.37-.892 1.014-1.746 1.686-2.562 2.02-.817.33-1.479.271-1.985-.177-.512-.453-.649-1.112-.411-1.975.238-.863.818-1.819 1.741-2.869.356-.405.717-.775 1.082-1.109.367-.337.735-.636 1.102-.895l.657.582c-.4.251-.772.522-1.118.815-.344.29-.664.604-.96.941-.55.625-.883 1.188-.999 1.69-.115.498-.003.897.335 1.197.336.298.739.364 1.208.2.47-.164.969-.547 1.497-1.147.143-.163.271-.318.383-.466.113-.151.207-.293.283-.424l-.616-.546-.843.958-.548-.486 2.152-2.446 1.526 1.352m-1.725-3.981l3.727-4.236.619.548-2.346 2.666.591.524 2.206-2.507.619.548-2.206 2.507.727.644 2.425-2.756.619.548-3.806 4.325-3.174-2.812m5.02-5.707l1.542-1.753 4.124-.285-2.177-1.929 1.309-1.488 3.174 2.812-1.542 1.753-4.124.285 2.177 1.929-1.309 1.488-3.174-2.812m8.695-9.882l1.542-1.753 4.124-.285-2.177-1.929 1.309-1.488 3.174 2.812-1.542 1.753-4.124.285 2.177 1.929-1.309 1.488-3.174-2.812m7.482-8.62c.509-.579.99-.966 1.441-1.161.454-.198.815-.177 1.085.061.269.239.335.594.196 1.067-.138.472-.463.999-.975 1.581-.512.582-.994.972-1.446 1.171-.45.196-.81.175-1.079-.064-.269-.239-.335-.595-.199-1.068.139-.476.465-1.01.976-1.587m.535 3.463l2.952-3.355.425.377-2.952 3.355-.425-.377m-.174-3.143c-.201.228-.312.445-.332.649-.018.201.055.375.219.521.164.146.344.196.54.152.198-.047.397-.185.598-.413.198-.226.308-.438.327-.639.022-.203-.049-.377-.213-.523-.164-.146-.346-.196-.545-.15-.197.043-.395.178-.593.403m9.193-8.105c.416-.361.787-.587 1.11-.677.325-.094.593-.048.804.139.315.279.351.722.109 1.33-.244.606-.755 1.353-1.535 2.239-.275.313-.565.615-.869.906-.3.29-.612.565-.935.826l-.631-.559c.335-.226.649-.465.942-.718.294-.257.564-.525.811-.805.366-.416.608-.767.727-1.054.121-.289.111-.496-.029-.621-.145-.128-.354-.111-.629.052-.274.159-.605.46-.995.903l-.552.628-.527-.467.581-.66c.347-.394.573-.716.679-.965.105-.251.091-.434-.041-.551-.122-.108-.299-.098-.53.031-.232.129-.498.364-.799.706-.222.253-.432.521-.63.806-.197.285-.379.58-.546.887l-.599-.531c.227-.35.463-.687.709-1.012.245-.324.497-.633.755-.927.696-.791 1.284-1.322 1.764-1.593.481-.275.858-.292 1.13-.051.186.165.255.393.21.686-.047.292-.208.642-.483 1.052"/><path fill="url(#i)" d="m68.42-77.13h8.615v1.874h-8.615z" transform="matrix(.69714.71693-.77189.63576 0 0)"/><path fill="url(#h)" d="m-116.07-70.38h8.615v1.874h-8.615z" transform="matrix(-.75411-.65675-.59244.80561 0 0)"/></svg>