<svg xmlns="http://www.w3.org/2000/svg" viewBox="0 0 128 128" xmlns:xlink="http://www.w3.org/1999/xlink"><defs><linearGradient xlink:href="#d" id="a" y1="46.99" x1="134.57" y2="112.56" gradientUnits="userSpaceOnUse" x2="21.02"/><linearGradient spreadMethod="reflect" id="b" y1="15.337" x1="73.74" y2="19.282" gradientUnits="userSpaceOnUse" x2="80"><stop stop-color="#fff"/><stop offset="1" stop-color="#fff" stop-opacity="0"/></linearGradient><filter width="1.204" x="-.102" y="-.125" height="1.25" id="c"><feGaussianBlur stdDeviation=".44656"/></filter><radialGradient cx="48" cy="-.215" r="55.15" id="d" gradientUnits="userSpaceOnUse" gradientTransform="matrix(.9792 0 0 .9725 133 20.876)"><stop stop-color="#72d13d"/><stop offset=".355" stop-color="#35ac1c"/><stop offset=".619" stop-color="#0f9508"/><stop offset=".757" stop-color="#008c00"/><stop offset="1" stop-color="#007a00"/></radialGradient><radialGradient fx="73.33" fy="92" cx="64" cy="64" xlink:href="#d" id="e" r="46.667" gradientUnits="userSpaceOnUse"/><linearGradient id="f" y1="9.26" y2="120.02" gradientUnits="userSpaceOnUse" x2="0"><stop stop-color="#cbff9c"/><stop offset="1" stop-color="#65c171" stop-opacity="0"/></linearGradient><linearGradient xlink:href="#b" id="g" y1="-10.667" x1="36" y2="92" gradientUnits="userSpaceOnUse" x2="47.628"/><linearGradient xlink:href="#b" id="h" y1="92" x1="82.67" y2="36" gradientUnits="userSpaceOnUse" x2="54.667"/><filter id="i"><feGaussianBlur stdDeviation=".2025"/></filter><linearGradient xlink:href="#b" id="j" y1="77.51" x1="97.62" y2="105.11" gradientUnits="userSpaceOnUse" x2="98.1" gradientTransform="translate(-36-20)"/><linearGradient spreadMethod="reflect" id="k" y1="15.337" x1="73.74" y2="19.282" gradientUnits="userSpaceOnUse" x2="80"><stop stop-color="#fff14d"/><stop offset="1" stop-color="#f8ffa0" stop-opacity="0"/></linearGradient><linearGradient id="l" x1="64.34" gradientUnits="userSpaceOnUse" x2="76.28" gradientTransform="scale(1.03938.96211)"><stop stop-color="#fff"/><stop offset="1" stop-color="#252525" stop-opacity="0"/></linearGradient><path fill="url(#b)" filter="url(#c)" fill-rule="evenodd" id="m" d="m69.876 12.06c-1.077.065-2.528.219-3 .938l1.59 11.138 10.534-.759v-.469c1.741-2.57-4.78-10.907-9.124-10.847"/></defs><path fill="url(#a)" d="m59.47 8c-6 0-9.976 3.849-11.469 9.188v30.813h-30.12c-5.69 1.836-9.875 7.213-9.875 13.469v5.063c0 6.256 4.185 11.633 9.875 13.469h30.13v30.813c1.492 5.338 5.467 9.188 11.469 9.188h7.06c6.255 0 11.633-4.185 13.469-9.875v-30.12h30.13c5.69-1.836 9.875-7.213 9.875-13.469v-5.063c0-6.256-4.185-11.633-9.875-13.469h-30.12v-30.12c-1.836-5.69-7.213-9.875-13.469-9.875z"/><use opacity=".565" xlink:href="#m" transform="matrix(-1.16668 0 0 1.16668 138.67-5.163)"/><g fill-rule="evenodd"><path opacity=".565" fill="url(#b)" filter="url(#c)" d="m69.876 12.06c-1.077.065-2.528.219-3 .938l1.297 8.794 10.827 1.584v-.469c1.741-2.57-4.78-10.907-9.124-10.847" transform="matrix(1.16668 0 0 1.16668-9.837-5.163)"/><path opacity=".42" fill="url(#k)" filter="url(#c)" d="m69.876 12.06c-1.077.065-2.528.219-3 .938l2.176 10.747 9.948-.369v-.469c1.741-2.57-4.78-10.907-9.124-10.847" transform="matrix(-1.16668 0 0-1.16668 138.67 134.07)"/><path opacity=".42" fill="url(#l)" filter="url(#c)" d="m69.876 12.06c-1.077.065-2.528.219-3 .938l.906 10.552 11.218-.173v-.469c1.741-2.57-4.78-10.907-9.124-10.847" transform="matrix(1.16668 0 0-1.16668-9.837 134.07)"/></g><use opacity=".551" xlink:href="#m" transform="matrix(1.16668 0 0 1.16668 27.496 31.27)"/><use opacity=".551" xlink:href="#m" transform="matrix(-1.16668 0 0 1.16668 100.5 31.27)"/><path fill="url(#e)" d="m61.48 17.333c-2.646 0-4.813 2.167-4.813 4.813v34.523h-34.523c-2.646 0-4.813 2.167-4.813 4.813v5.04c0 2.646 2.167 4.813 4.813 4.813h34.523v34.523c0 2.646 2.167 4.813 4.813 4.813h5.04c2.646 0 4.813-2.167 4.813-4.813v-34.523h34.523c2.646 0 4.813-2.167 4.813-4.813v-5.04c0-2.646-2.167-4.813-4.813-4.813h-34.523v-34.523c0-2.646-2.167-4.813-4.813-4.813z"/><path fill="url(#f)" d="m61.48 17.333c-2.646 0-4.813 2.167-4.813 4.813v34.523h-34.523c-2.646 0-4.813.165-4.813 2.811v9.04c0 .256.107.484.146.729 7.601 1.096 15.613 1.75 23.917 1.75 26.837 0 50.881-4.135 66.72-13.749-.675-.362-1.445-.583-2.26-.583h-34.523v-34.523c0-2.646-2.167-4.813-4.813-4.813z"/><path fill="url(#g)" d="m60.48 17.333c-2.646 0-4.813 2.167-4.813 4.813v2.333c0-2.646 3.1-6.213 5.746-6.213h7.04c.661 0 1.321.12 1.896.365.257.582 1.138 2.624 1.138 3.296l.846 33.741.073-33.522c0-1.343-.562-2.552-1.458-3.427-.205-.205-.418-.418-.656-.583-.018-.012-.055.012-.073 0-.238-.161-.464-.32-.729-.438-.02-.009-.053.008-.073 0-.267-.114-.586-.228-.875-.292-.024-.005-.049.005-.073 0-.289-.059-.571-.068-.875-.073h-1.167zm-38.33 38.33c-2.646 0-4.813 2.167-4.813 4.813v2.333c0-2.646 2.167-6.213 4.813-6.213l33.522-.933zm50.19 0l33.11 1.194c-15.772 8.463-41.586 13.92-66.52 13.92-4.152 0-8.259-.21-12.25-.51 4.808.436 9.752.729 14.802.729 25.13 0 47.796-4.421 63.58-12.999.019-.01.054.01.073 0 1.033-.563 2.02-1.16 2.99-1.75-.318-.171-.666-.338-1.021-.438-.023-.006-.049.006-.073 0-.356-.094-.713-.139-1.094-.146h-1.167z"/><path fill="url(#h)" d="m61.48 17.333c-2.646 0-4.813 2.167-4.813 4.813v2.333c0-2.646 3.1-6.213 5.746-6.213h6.04c.661 0 1.321.12 1.896.365.257.582 1.138 2.624 1.138 3.296l.846 34.741.073-34.523c0-1.343-.562-2.552-1.458-3.427-.205-.205-.418-.418-.656-.583-.018-.012-.055.012-.073 0-.238-.161-.464-.32-.729-.438-.02-.009-.053.008-.073 0-.267-.114-.586-.228-.875-.292-.024-.005-.049.005-.073 0-.289-.059-.571-.068-.875-.073h-1.167zm-39.34 39.34c-2.646 0-4.813 2.167-4.813 4.813v2.333c0-2.646 2.167-6.213 4.813-6.213l34.523-.933zm50.19 0l33.34 1.194c-15.772 8.463-41.814 12.919-66.751 12.919-4.152 0-8.259-.21-12.25-.51 4.808.436 9.752.729 14.802.729 25.13 0 47.796-3.421 63.58-11.999.019-.01.054.01.073 0 1.033-.563 2.02-1.16 2.99-1.75-.318-.171-.666-.338-1.021-.438-.023-.006-.049.006-.073 0-.356-.094-.713-.139-1.094-.146h-1.167z"/><path fill="none" filter="url(#i)" stroke="url(#j)" stroke-linejoin="round" stroke-width=".536" d="m62.92 44c-1.134 0-2.063.929-2.063 2.063v14.795h-14.795c-1.134 0-2.063.929-2.063 2.062v2.159c0 1.134.929 2.063 2.063 2.063h14.795v14.795c0 1.134.929 2.063 2.063 2.063h2.159c1.134 0 2.063-.929 2.063-2.063v-14.795h14.795c1.134 0 2.063-.929 2.063-2.063v-2.159c0-1.134-.929-2.062-2.063-2.062h-14.795v-14.795c0-1.134-.929-2.063-2.063-2.063z" stroke-dashoffset="1.088" transform="matrix(2.33335 0 0 2.33335-85.33-85.33)"/></svg>