<svg xmlns:xlink="http://www.w3.org/1999/xlink" viewBox="0 0 48 48" enable-background="new 0 0 48 48" width="60" xmlns="http://www.w3.org/2000/svg" height="60"><defs><linearGradient id="a" y1="41.676" y2="14.33" gradientUnits="userSpaceOnUse" x2="0"><stop stop-color="#616161"/><stop offset=".523" stop-color="#555"/><stop offset="1" stop-color="#494949"/></linearGradient><linearGradient id="b" y1="40.503" y2="29.895" gradientUnits="userSpaceOnUse" x2="0"><stop stop-color="#cecedb"/><stop offset=".185" stop-color="#e9e9ef"/><stop offset=".523" stop-color="#cecedb"/><stop offset="1" stop-color="#b1b1c5"/></linearGradient><linearGradient id="c" y1="32.07" y2="1.55" gradientUnits="userSpaceOnUse" x2="0"><stop stop-color="#f7f7f7"/><stop offset=".235" stop-color="#f3f3f4"/><stop offset=".477" stop-color="#e6e6eb"/><stop offset=".723" stop-color="#d2d2dc"/><stop offset=".97" stop-color="#b5b5c8"/><stop offset="1" stop-color="#b1b1c5"/></linearGradient><linearGradient id="d" y1="31.458" y2="2.129" gradientUnits="userSpaceOnUse" x2="0"><stop stop-color="#f7f7f7"/><stop offset=".506" stop-color="#bdbdcf"/><stop offset="1" stop-color="#b1b1c5"/></linearGradient><linearGradient id="e" y1="39.32" x1="20.986" y2="50.15" gradientUnits="userSpaceOnUse" x2="31.818"><stop stop-color="#9a9ab1"/><stop offset="1" stop-color="#585868"/></linearGradient><linearGradient id="f" y1="31.961" y2="37.15" gradientUnits="userSpaceOnUse" x2="0"><stop stop-color="#b2b2b2"/><stop offset="1" stop-color="#828282"/></linearGradient><linearGradient id="g" y1="37.04" y2="32.738" gradientUnits="userSpaceOnUse" x2="0"><stop stop-color="#666"/><stop offset="1" stop-color="#333"/></linearGradient><linearGradient id="h" y1="-38.18" x1="-6.497" y2="-37.491" gradientUnits="userSpaceOnUse" x2="-6.382" gradientTransform="matrix(.7071-.7071.7071.7071 71.52 44.577)"><stop stop-color="#72c296"/><stop offset="1" stop-color="#009f81"/></linearGradient><linearGradient id="i" y1="-38.719" y2="-38.16" gradientUnits="userSpaceOnUse" x2="0" gradientTransform="matrix(.7071-.7071.7071.7071 71.52 44.577)"><stop stop-color="#fff"/><stop offset="1" stop-color="#3c6"/></linearGradient><linearGradient id="j" y1="30.654" y2="15.826" gradientUnits="userSpaceOnUse" x2="0"><stop stop-color="#949494"/><stop offset="1" stop-color="#616161"/></linearGradient><linearGradient id="k" xlink:href="#e" y1="4.513" y2="19.908" gradientUnits="userSpaceOnUse" x2="0"/><linearGradient id="l" y1="2.539" x1="12.679" y2="22.2" gradientUnits="userSpaceOnUse" x2="32.34"><stop offset=".32" stop-color="#fff"/><stop offset=".624" stop-color="#e6eef6"/><stop offset=".938" stop-color="#cecedb"/></linearGradient><linearGradient id="m" y1="32.29" x1="14.501" y2="53.58" gradientUnits="userSpaceOnUse" x2="35.79"><stop stop-color="#fff"/><stop offset="1" stop-color="#cecedb"/></linearGradient><linearGradient id="n" y1="19.699" y2="28.979" gradientUnits="userSpaceOnUse" x2="0"><stop stop-color="#f7f7f7"/><stop offset=".043" stop-color="#e5f0f8"/><stop offset=".339" stop-color="#6bc2fc"/><stop offset=".542" stop-color="#1ea4fe"/><stop offset=".635" stop-color="#09f"/><stop offset="1" stop-color="#006dff"/></linearGradient></defs><g transform="matrix(1.05801 0 0 1.07735-1.326-1.459)"><path opacity=".2" d="m46.563 28.461c0-2.711-.311-7.57-2.391-9.65-1.043-1.041-3.688-1.793-8.06-2.299-.122-.659-.67-1.16-1.337-1.219-.156-.014-.317-.026-.476-.04v-12.469c0-.4-.326-.726-.726-.726h-18.552c-.4 0-.726.326-.726.726v12.479c-.155.014-.313.025-.466.039-.666.061-1.215.562-1.336 1.219-4.391.509-7.04 1.258-8.07 2.29-2.076 2.076-2.386 6.985-2.386 9.727 0 4.595.836 10.316 2.386 11.866.64.641 2.837 1.063 5.781 1.338-1.394 3.528-1.458 3.773-1.458 4.01 0 .4.326.727.726.727h29.768c.4 0 .726-.326.726-.727 0-.24-.067-.486-1.508-4.04 2.87-.271 5.092-.685 5.716-1.31 1.648-1.648 2.39-7.977 2.39-11.943"/><path opacity=".2" d="m46.2 28.24c0-2.711-.31-7.569-2.391-9.649-1.043-1.041-3.687-1.793-8.06-2.299-.122-.659-.669-1.16-1.336-1.219-.156-.014-.318-.026-.477-.04v-12.469c0-.4-.325-.726-.726-.726h-18.551c-.4 0-.726.326-.726.726v12.479c-.155.014-.313.025-.466.039-.666.061-1.215.562-1.336 1.219-4.391.509-7.04 1.258-8.07 2.29-2.076 2.076-2.386 6.985-2.386 9.727 0 4.596.836 10.317 2.386 11.867.64.64 2.837 1.063 5.781 1.337-1.393 3.529-1.458 3.773-1.458 4.01 0 .4.325.726.726.726h29.768c.4 0 .727-.325.727-.726 0-.24-.067-.487-1.509-4.04 2.87-.271 5.093-.686 5.716-1.31 1.648-1.65 2.389-7.978 2.389-11.945"/><path fill="url(#a)" d="m13.232 14.766c-.666.06-1.215.561-1.337 1.219-4.391.509-7.04 1.257-8.07 2.29-2.076 2.076-2.386 6.985-2.386 9.727 0 4.596.836 10.316 2.386 11.867 1.508 1.508 11.653 1.814 19.897 1.808 6.745-.005 18.292-.246 19.853-1.808 1.648-1.649 2.391-7.979 2.391-11.944 0-2.711-.311-7.569-2.391-9.649-1.043-1.042-3.688-1.793-8.06-2.3-.122-.659-.67-1.16-1.337-1.219-6.342-.573-14.563-.569-20.946.009m-1.337 1.22"/><path fill="url(#b)" d="m4.552 39.501c2.037 2.037 36.31 1.979 38.29 0 1.979-1.979 3.491-16.643 0-20.13-3.491-3.492-34.857-3.434-38.29 0-3.433 3.433-2.036 18.1 0 20.13"/><path fill="url(#c)" d="m23.701 31.34c8.459 0 16.05-1.652 21.21-4.268-.118-3.434-.72-6.563-2.066-7.964-3.491-3.633-34.857-3.572-38.29 0-1.329 1.383-1.934 4.52-2.059 7.965 5.164 2.615 12.75 4.267 21.21 4.267"/><path fill="url(#d)" d="m23.701 30.759c8.459 0 16.05-1.588 21.21-4.101-.118-3.301-.72-6.308-2.066-7.654-3.491-3.492-34.857-3.434-38.29 0-1.329 1.329-1.934 4.343-2.059 7.655 5.164 2.513 12.75 4.1 21.21 4.1"/><path opacity=".8" fill="#fff" d="m8.805 36.878h30.01v.748h-30.01z"/><path fill="url(#e)" d="m12.828 34.12c-.37 0-.689.403-.728.765.001-.013.002-.026.002-.039 0-.014-.012-.022-.014-.036-.154.506-.949 2.521-1.901 4.923-1.961 4.944-2.042 5.218-2.042 5.484 0 .4.325.726.726.726h29.769c.399 0 .726-.325.726-.726 0-.27-.083-.543-2.087-5.463-.844-2.071-1.563-3.845-1.854-4.637-.065-.058-.11-.138-.121-.231-.039-.361-.359-.766-.728-.766zm-1.403.597c.032.138.125.256.271.283.166.03.315-.067.382-.216-.029-.152-.138-.281-.301-.299-.162-.017-.291.088-.352.232"/><path opacity=".8" fill="url(#f)" d="m37.896 31.961v5.188c.366 0 .622 0 .741 0 .001-1.276-.741-5.188-.741-5.188m-29.13 5.188c.133 0 .385 0 .733 0v-5.188c0 0-.733 3.912-.733 5.188"/><path fill="url(#g)" d="m9.499 32.738h28.397v4.306h-28.397z"/><path opacity=".5" fill="#fff" d="m34.06 19.702c3.383 0 6.63.213 9.653.604-.248-.523-.538-.965-.876-1.302-3.491-3.492-34.857-3.434-38.29 0-1.329 1.329-1.934 4.343-2.059 7.655.956.465 1.995.899 3.106 1.296 3.172-4.74 14.713-8.253 28.467-8.253"/><circle fill="#366" cx="39.937" cy="22.18" r=".972"/><path fill="url(#h)" d="m40.23 21.398c-.359.031-.888.397-1.061.843-.171.445.103.744.462.713.36-.03.89-.397 1.061-.842.171-.445-.103-.744-.462-.714"/><path fill="url(#i)" d="m40.24 21.388c-.306.027-.763.34-.918.719-.029.071-.045.137-.049.198.214-.056.437-.135.646-.233.38-.178.624-.376.683-.531-.075-.109-.208-.167-.362-.153"/><g fill="#fff"><path d="m44.908 26.618c-.016-.396-.036-.787-.065-1.172.029.385.05.777.065 1.172"/><path d="m44.908 26.618c0 .013 0 .027 0 .04.001-.013 0-.027 0-.04"/><path d="m36.536 29.442c-.546-3.947-1.338-9.423-2.033-13.278-.038-.207-.208-.362-.416-.381-6.288-.566-14.438-.563-20.761.011-.208.019-.378.174-.416.38-.704 3.858-1.521 9.323-2.086 13.261 3.859.845 8.236 1.324 12.877 1.324 4.623 0 8.986-.476 12.835-1.317"/></g><path fill="url(#j)" d="m13.368 16.254c-.73 3.973-1.588 9.725-2.096 13.233 3.774.749 7.986 1.167 12.429 1.167 4.427 0 8.623-.416 12.385-1.158-.488-3.51-1.318-9.275-2.041-13.253-6.286-.562-14.39-.555-20.677.011"/><path fill="url(#k)" d="m14.424 1.522c-.401 0-.726.325-.726.726v22.626c0 .4.325.726.726.726h18.552c.4 0 .727-.325.727-.726v-22.626c0-.401-.326-.726-.727-.726z"/><path fill="#fff" d="m14.424 2.248c0 .406 0 22.22 0 22.626.404 0 18.15 0 18.552 0 0-.405 0-22.22 0-22.626-.403 0-18.15 0-18.552 0"/><path fill="url(#l)" d="m15.875 3.699c0 2.369 0 17.355 0 19.723 2.257 0 13.393 0 15.65 0 0-2.368 0-17.354 0-19.723-2.256 0-13.392 0-15.65 0"/><path fill="#fff" d="m12.828 34.845c0 .396-3.957 9.976-3.957 10.371.994 0 28.775 0 29.768 0 0-.396-4.064-9.976-4.064-10.371-.993 0-20.753 0-21.747 0"/><path fill="url(#m)" d="m13.871 36.3c-.294.784-.797 2.064-1.67 4.265-.403 1.016-.882 2.224-1.262 3.202 3.31 0 22.275 0 25.614 0-.39-.977-.879-2.178-1.291-3.189-.9-2.209-1.418-3.493-1.72-4.277-1.781-.001-17.876-.001-19.671-.001"/><path fill="#0053bd" d="m13.77 19.497c-.702 2.889-1.526 7.07-2.01 9.622 3.626.544 7.674.849 11.945.849 4.254 0 8.287-.303 11.903-.843-.47-2.552-1.269-6.743-1.963-9.635-6.04-.41-13.829-.404-19.871.007"/><path fill="url(#n)" d="m13.77 19.981c-.702 2.92-1.526 7.147-2.01 9.728 3.626.55 7.674.857 11.945.857 4.254 0 8.287-.306 11.903-.852-.47-2.58-1.269-6.817-1.963-9.741-6.04-.413-13.829-.408-19.871.008"/><path opacity=".4" fill="#fff" d="m33.717 21.21c.067 0 .135.001.203.002-.095-.431-.188-.847-.279-1.238-6.04-.421-13.829-.416-19.871.008-.669 2.832-1.448 6.869-1.942 9.514 3.244-4.834 11.819-8.286 21.889-8.286"/><path opacity=".2" d="m35.05 37.12c-.293-1.339-.479-2.25-.479-2.401-.993 0-20.753 0-21.747 0 0 .151-.182 1.063-.466 2.401z"/></g></svg>