<svg xmlns="http://www.w3.org/2000/svg" viewBox="0 0 128 128" xmlns:xlink="http://www.w3.org/1999/xlink"><defs><radialGradient fx="85.2" fy="22.21" cx="83.58" cy="24.379" id="a" r="42.499" gradientUnits="userSpaceOnUse"><stop stop-color="#0df"/><stop offset="1" stop-color="#006eff"/></radialGradient><linearGradient id="b" y1="90.68" y2="65.54" gradientUnits="userSpaceOnUse" x2="0"><stop offset=".057" stop-color="#fff"/><stop offset="1" stop-color="#fff" stop-opacity=".167"/></linearGradient><linearGradient id="c" xlink:href="#b" y1="6.06" y2="32.17" gradientUnits="userSpaceOnUse" x2="0"/><linearGradient id="d" xlink:href="#b" y1="91.85" y2="61.26" gradientUnits="userSpaceOnUse" x2="0"/><linearGradient id="e" xlink:href="#b" y1="80.77" y2="57.45" x1="46.05" gradientUnits="userSpaceOnUse" x2="44.936"/></defs><g transform="matrix(1.27097 0 0-1.27728-33.919 125.62)"><g fill-rule="evenodd"><g stroke-linejoin="round" stroke-width="2.5"><path fill-opacity=".299" d="m125.93 45.48c0-24.973-20.268-45.24-45.24-45.24-24.973 0-45.24 20.268-45.24 45.24 0 24.973 20.268 45.24 45.24 45.24 24.973 0 45.24-20.268 45.24-45.24"/><g fill-opacity=".75"><path fill="url(#a)" d="m122.37 49.55c0-24.973-20.268-45.24-45.24-45.24-24.973 0-45.24 20.268-45.24 45.24 0 24.973 20.268 45.24 45.24 45.24 24.974 0 45.24-20.268 45.24-45.24"/><path fill="url(#b)" d="m118.06 51.02c-19.882-17.917-64.32-16.747-81.87 0 0 22.595 18.338 40.933 40.933 40.933 22.595 0 40.933-18.338 40.933-40.933"/><path fill="url(#c)" d="m118.06 47.5c-9.51-29.82-25.16-34.681-40.948-34.827-15.788-.146-35.16 6.577-40.917 34.827 0-22.595 18.338-40.933 40.933-40.933 22.595 0 40.933 18.338 40.933 40.933"/><path fill="url(#d)" d="m118.06 50.943c-9.51 29.82-25.16 34.681-40.948 34.827-15.788.146-35.16-6.577-40.917-34.827 0 22.595 18.338 40.933 40.933 40.933 22.595 0 40.933-18.338 40.933-40.933"/></g></g><path fill="url(#e)" fill-opacity=".75" stroke-width="1.25" d="m40.07 62.907c2.552 7.695 11.539 16.47 16.804 18.958l6.248-7.109c-11.232-2.702-19.333-10.898-20.897-21.759z"/></g><g stroke-width="1.324"><g fill-opacity=".299"><path d="m82.73 32.844c-.195-3.88-10.888-4.336-11.54 0v6.656c0 2.852.447 5.287 1.34 7.304.893 2.02 2.492 4.149 4.797 6.397l3.89 3.847c1.815 1.758 3.04 3.213 3.674 4.365.663 1.152.994 2.348.994 3.587 0 1.93-.663 3.386-1.988 4.365-1.326.98-3.314 1.47-5.965 1.47-2.42 0-4.956-.519-7.607-1.556-2.622-1.01-2.806-1.152-5.572-3.169l-4.564 7.475c2.367 2.983 7.733 5.553 10.612 6.369 2.913.826 5.82 1.253 8.731 1.253 5.82 0 10.387-1.354 13.701-4.063 3.314-2.709 4.97-6.44 4.97-11.194 0-2.19-.49-4.236-1.47-6.137-.98-1.873-2.824-4.135-5.532-6.786l-3.803-3.717c-1.959-1.902-3.213-3.458-3.76-4.668-.547-1.21-.821-2.694-.821-4.452 0-.259-.014-.562-.043-.908 0-.346-.014-.72-.043-1.124z"/><path fill-rule="evenodd" d="m83.29 20.16c.001 3.403-2.758 6.163-6.162 6.163-3.403 0-6.162-2.759-6.162-6.163-.001-3.403 2.758-6.163 6.162-6.163 3.403 0 6.162 2.759 6.162 6.163"/></g><g fill="#fff"><path d="m80.45 34.898c-.195-3.88-10.888-4.336-11.54 0v6.656c0 2.852.447 5.287 1.34 7.304.893 2.02 2.492 4.149 4.797 6.397l3.89 3.847c1.815 1.758 3.04 3.213 3.674 4.365.663 1.153.994 2.348.994 3.587 0 1.93-.663 3.386-1.988 4.365-1.325.98-3.314 1.469-5.964 1.469-2.42 0-4.956-.519-7.607-1.556-2.622-1.01-2.806-1.152-5.572-3.169l-4.564 7.475c2.367 2.983 7.733 5.553 10.612 6.369 2.913.826 5.82 1.253 8.731 1.253 5.82 0 10.387-1.354 13.701-4.063 3.314-2.709 4.97-6.44 4.97-11.194 0-2.19-.49-4.236-1.469-6.137-.98-1.873-2.824-4.135-5.532-6.786l-3.803-3.717c-1.959-1.902-3.213-3.458-3.76-4.668-.547-1.21-.821-2.694-.821-4.452 0-.259-.014-.562-.043-.908 0-.346-.014-.72-.043-1.124z"/><path fill-rule="evenodd" d="m81 22.22c.001 3.403-2.758 6.163-6.162 6.163-3.404 0-6.162-2.759-6.162-6.163-.001-3.404 2.758-6.163 6.162-6.163 3.403 0 6.162 2.759 6.162 6.163"/></g></g><path fill="#004da8" fill-rule="evenodd" stroke-linejoin="round" stroke-width="2.5" d="m77.11 96.05c-25.649 0-46.47-20.85-46.47-46.5 0-25.65 20.819-46.5 46.47-46.5 25.649 0 46.5 20.851 46.5 46.5 0 25.65-20.851 46.5-46.5 46.5m0-2.5c24.296 0 44-19.703 44-44 0-24.297-19.704-44-44-44-24.297 0-43.969 19.703-43.969 44 0 24.297 19.672 44 43.969 44"/></g></svg>