<svg xmlns="http://www.w3.org/2000/svg" viewBox="0 0 128 128" xmlns:xlink="http://www.w3.org/1999/xlink"><defs><linearGradient id="a"><stop stop-color="#fff"/><stop offset="1" stop-color="#fff" stop-opacity="0"/></linearGradient><linearGradient id="b"><stop stop-color="#ffbfbf"/><stop offset="1" stop-color="#ffbfbf" stop-opacity="0"/></linearGradient><filter id="c"><feGaussianBlur stdDeviation=".16413"/></filter><filter id="d"><feGaussianBlur stdDeviation=".28743"/></filter><filter width="1.173" x="-.087" y="-.104" height="1.207" id="e"><feGaussianBlur stdDeviation="1.31029"/></filter><filter width="1.081" x="-.04" y="-.128" height="1.256" id="f"><feGaussianBlur stdDeviation=".59781"/></filter><filter width="1.109" x="-.054" y="-.258" height="1.516" id="g"><feGaussianBlur stdDeviation=".66853"/></filter><clipPath id="h"><path fill="url(#i)" d="m-826.9 227.34c-31.725 0-57.53 25.806-57.53 57.53 0 31.725 25.806 57.53 57.53 57.53 31.725 0 57.56-25.806 57.56-57.53 0-31.725-25.837-57.53-57.56-57.53m0 18.313c7.04 0 13.604 1.913 19.313 5.156l-53.37 53.38c-3.243-5.708-5.156-12.268-5.156-19.313 0-21.688 17.531-39.22 39.22-39.22m35.563 22.781c2.328 5 3.656 10.554 3.656 16.438 0 21.688-17.531 39.22-39.22 39.22-5.883 0-11.435-1.328-16.438-3.656z"/></clipPath><linearGradient id="i" y1="365.38" x1="11.844" y2="206.38" x2="19.391" gradientUnits="userSpaceOnUse" gradientTransform="translate(-827.28)"><stop stop-color="#1a0000"/><stop offset="1" stop-color="#a20000" stop-opacity="0"/></linearGradient><linearGradient xlink:href="#i" id="j" y1="320.47" x1="9.722" y2="155.11" gradientUnits="userSpaceOnUse" x2="14.441" gradientTransform="translate(75.66 5.657)"/><radialGradient cx="-824.58" cy="232.61" xlink:href="#a" id="k" r="23.938" gradientUnits="userSpaceOnUse" gradientTransform="matrix(1 0 0 1.07663 0-17.823)"/><radialGradient cx="-825.97" cy="315.76" xlink:href="#a" id="l" r="17.75" gradientUnits="userSpaceOnUse" gradientTransform="matrix(1 0 0 .3161 0 222.84)"/><radialGradient cx="-825.23" cy="337.2" xlink:href="#b" id="m" r="14.766" gradientUnits="userSpaceOnUse" gradientTransform="matrix(1 0 0 2.46131 0-487.55)"/><radialGradient cx="-830.37" cy="275.74" xlink:href="#a" id="n" r="18.13" gradientUnits="userSpaceOnUse" gradientTransform="matrix(.38311.39473-1.3121 1.27347-149.51 248.31)"/><linearGradient id="o" y1="339.13" x1="4.361" y2="232.55" gradientUnits="userSpaceOnUse" x2="7.356" gradientTransform="translate(75.66 5.657)"><stop stop-color="#efa040"/><stop offset="1" stop-color="#c0a331" stop-opacity="0"/></linearGradient><linearGradient xlink:href="#a" id="p" y1="101.02" x1="131.62" y2="34.982" gradientUnits="userSpaceOnUse" x2="59.21"/><linearGradient xlink:href="#a" id="q" y1="-14.12" x1="54.08" y2="92.12" gradientUnits="userSpaceOnUse" x2="70.2"/><linearGradient xlink:href="#b" id="r" y1="-13.904" x1="54.36" y2="92.33" gradientUnits="userSpaceOnUse" x2="70.49"/><radialGradient cx="-79.25" cy="81.75" id="s" r="43.5" gradientUnits="userSpaceOnUse" gradientTransform="matrix(1.26323 0 0 1.52459 165.1-31.58)"><stop stop-color="#f00"/><stop offset="1" stop-color="#7f0000"/></radialGradient><linearGradient xlink:href="#i" id="t" y1="145.45" x1="76.59" y2="-15.418" gradientUnits="userSpaceOnUse" x2="84.22"/><linearGradient id="u" y1="15.441" x1="67.988" y2="131.79" gradientUnits="userSpaceOnUse" x2="65"><stop stop-color="#bf0000"/><stop offset="1" stop-color="#8c0000"/></linearGradient><filter id="v"><feGaussianBlur stdDeviation=".57539"/></filter><filter id="w"><feGaussianBlur stdDeviation=".27544"/></filter><path id="x" d="m64.984 5.792c-32.1 0-58.21 26.11-58.21 58.21 0 32.1 26.11 58.21 58.21 58.21 32.1 0 58.24-26.11 58.24-58.21 0-32.1-26.14-58.21-58.24-58.21m0 18.528c7.127 0 13.764 1.936 19.54 5.217l-54 54c-3.281-5.775-5.217-12.413-5.217-19.54 0-21.943 17.737-39.68 39.68-39.68m35.981 23.05c2.356 5.061 3.699 10.678 3.699 16.631 0 21.943-17.737 39.68-39.68 39.68-5.952 0-11.57-1.344-16.631-3.699z"/><path stroke-opacity=".441" fill="none" stroke="url(#o)" id="y" d="m76.04 236.53c-29.808 0-54 24.19-54 54 0 29.808 24.19 54 54 54 29.808 0 54-24.19 54-54 0-29.808-24.19-54-54-54zm0 11.237c9.311 0 17.947 2.979 24.971 8.04l-59.697 59.697c-5.059-7.02-8.04-15.66-8.04-24.971 0-23.605 19.16-42.763 42.763-42.763zm36.442 20.445c3.992 6.502 6.321 14.13 6.321 22.318 0 23.605-19.16 42.763-42.763 42.763-8.184 0-15.816-2.329-22.318-6.321z" stroke-dashoffset="4.15"/></defs><path fill="url(#j)" filter="url(#v)" d="m76.04 233c-31.725 0-57.53 25.806-57.53 57.53 0 31.725 25.806 57.53 57.53 57.53 31.725 0 57.56-25.806 57.56-57.53 0-31.725-25.837-57.53-57.56-57.53m0 18.313c7.04 0 13.604 1.913 19.313 5.156l-53.37 53.38c-3.243-5.708-5.156-12.268-5.156-19.313 0-21.688 17.531-39.22 39.22-39.22m35.563 22.781c2.328 5 3.656 10.554 3.656 16.438 0 21.688-17.531 39.22-39.22 39.22-5.883 0-11.435-1.328-16.438-3.656z" transform="matrix(1.01176 0 0 1.01176-11.945-229.65)"/><use fill="url(#u)" xlink:href="#x"/><use fill="url(#t)" xlink:href="#x"/><g clip-path="url(#h)" transform="matrix(1.01176 0 0 1.01176 901.4-224.22)"><path fill="url(#k)" filter="url(#d)" d="m-825.55 227.34c-8.163 0-15.928 1.734-22.969 4.813 5.963 3.499 14.811 5.719 24.719 5.719 9.07 0 17.259-1.846 23.16-4.844-7.541-3.632-15.994-5.688-24.906-5.688"/><path fill="url(#l)" filter="url(#f)" d="m-809.85 320.22c-5.145 2.476-10.9 3.875-17 3.875-3.677 0-7.229-.511-10.594-1.469l-4.156 6.25c10.114 2.625 21.402 3.687 35.5 1l-3.719-9.656z"/><path opacity=".436" fill="url(#m)" filter="url(#g)" d="m-813.35 336.19c-7.609 2.106-15.219 3.255-22.828.686l-3.813 4.25c3.887.832 7.931 1.281 12.06 1.281 6.088 0 11.955-.959 17.469-2.719z"/><path fill="url(#n)" filter="url(#e)" d="m-816.84 260.06l-25.06 25.06 2.75 5.25 33.5-28z"/></g><path fill="url(#s)" d="m64.988 9.366c-30.16 0-54.635 24.476-54.635 54.635 0 30.16 24.476 54.635 54.635 54.635 30.16 0 54.635-24.476 54.635-54.635 0-30.16-24.476-54.635-54.635-54.635m0 11.369c9.421 0 18.16 3.01 25.26 8.132l-60.4 60.4c-5.118-7.107-8.132-15.844-8.132-25.26 0-23.883 19.383-43.27 43.27-43.27m36.871 20.685c4.04 6.578 6.395 14.3 6.395 22.58 0 23.883-19.383 43.27-43.27 43.27-8.28 0-16-2.356-22.58-6.395z"/><path fill="url(#r)" d="m64.988 9.366c-30.16 0-54.635 24.476-54.635 54.635 0 .424.022.843.032 1.265 3.7.744 7.508 1.361 11.445 1.897-.075-1.041-.095-2.102-.095-3.162 0-23.883 19.37-43.25 43.25-43.25 9.421 0 18.16 3.01 25.26 8.126l-40.19 40.19c.085 0 .168 0 .253 0 8.795 0 17.3-.515 25.389-1.486l26.15-26.15c3.471 5.653 5.702 12.158 6.26 19.13 3.901-1.296 7.544-2.731 10.94-4.268-3.753-26.508-26.527-46.92-54.07-46.92"/><path fill="url(#q)" d="m64.7 9.151c-30.16 0-54.635 24.476-54.635 54.635 0 .159-.004.316 0 .474.29-29.91 24.656-54.1 54.635-54.1 27.21 0 49.75 19.929 53.908 45.972.051-.023.107-.04.158-.063-3.753-26.508-26.527-46.92-54.07-46.92m-14.923 59.694c.085 0 .168 0 .253 0 .255 0 .504.001.759 0l38.972-39.477zm-28.329-4.458c-.001.138 0 .273 0 .411 0 .721.034 1.435.063 2.15.01.001.021-.001.032 0-.061-.843-.088-1.703-.095-2.561"/><path fill="url(#p)" d="m91.93 16.461c13.507 8.343 23.1 22.395 25.42 38.794-2.993 1.356-5.891 3.23-9.277 4.401.052.463.019.316.057.784 3.901-1.296 7.342-2.731 10.737-4.268-2.407-17-12.644-31.502-26.938-39.711m-26.723 3.661c-23.883 0-44.47 18.965-44.47 42.848 0 1.06-.688 2.121-.613 3.162-3.401-.463-6.706-.999-9.928-1.612.007.21-.005.422 0 .632 3.7.744 7.508 1.361 11.445 1.897-.075-1.041-.095-2.102-.095-3.162 0-23.883 19.37-43.25 43.25-43.25 7.614 0 14.774 1.951 20.994 5.407-6.562-4-12.346-5.919-20.589-5.919m8.796 46.42c-7.405.889-15.169 1.375-23.18 1.454l-.949.949c.085 0 .168 0 .253 0 8.795 0 17.3-.515 25.389-1.486l25.515-25.515z"/><use filter="url(#w)" xlink:href="#y" stroke-width="1.483" transform="matrix(1.01176 0 0 1.01176-11.945-229.95)"/><use filter="url(#c)" xlink:href="#y" stroke-width=".87" transform="matrix(1.01176 0 0 1.01176-11.945-229.95)"/></svg>