<svg xmlns="http://www.w3.org/2000/svg" viewBox="0 0 128 128" xmlns:xlink="http://www.w3.org/1999/xlink"><defs><linearGradient id="a"><stop/><stop offset="1" stop-opacity="0"/></linearGradient><linearGradient id="b"><stop stop-color="#fff"/><stop offset="1" stop-color="#fff" stop-opacity="0"/></linearGradient><linearGradient id="c" y1="9.679" y2="123.91" x2="0" gradientUnits="userSpaceOnUse"><stop stop-color="#008c00"/><stop offset=".355" stop-color="#35ac1c"/><stop offset=".619" stop-color="#0f9508"/><stop offset=".757" stop-color="#008c00"/><stop offset="1" stop-color="#004d00"/></linearGradient><radialGradient cx="67.09" cy="116.91" id="d" r="71.59" gradientUnits="userSpaceOnUse"><stop stop-color="#0f0"/><stop offset=".355" stop-color="#35ac1c"/><stop offset=".619" stop-color="#0f9508"/><stop offset=".757" stop-color="#008c00"/><stop offset="1" stop-color="#004d00"/></radialGradient><radialGradient fx="64.69" fy="68.23" cx="99.73" cy="27.418" id="e" r="56" gradientUnits="userSpaceOnUse" gradientTransform="matrix(.69374.05867-.03624.42854 33.939 26.881)"><stop stop-color="#0f0"/><stop offset="1" stop-color="#004d00" stop-opacity="0"/></radialGradient><linearGradient id="f" y1="4.532" y2="80.17" x2="0" gradientUnits="userSpaceOnUse"><stop stop-color="#bfffbf"/><stop offset="1" stop-color="#bfffbf" stop-opacity="0"/></linearGradient><linearGradient xlink:href="#b" id="g" y1="4.532" y2="80.17" gradientUnits="userSpaceOnUse" x2="0" gradientTransform="translate(.004.002)"/><linearGradient id="h" y1="130.41" y2="63.43" x2="0" gradientUnits="userSpaceOnUse" gradientTransform="translate(-137)"><stop stop-color="#f0ff80"/><stop offset="1" stop-color="#f0ff80" stop-opacity="0"/></linearGradient><radialGradient cx="-10.165" cy="66.906" xlink:href="#a" id="i" r="59.995" gradientUnits="userSpaceOnUse" gradientTransform="matrix(.45829 0 0 1.0001 20.448-.005)"/><radialGradient cx="167.67" cy="80.4" xlink:href="#a" id="j" r="59.995" gradientUnits="userSpaceOnUse" gradientTransform="matrix(.26767.52138-.70375.3613 108.99-36.06)"/><linearGradient spreadMethod="reflect" xlink:href="#b" id="k" y1="12.569" x1="120.06" y2="14.444" x2="125.3" gradientUnits="userSpaceOnUse"/><filter width="1.302" x="-.151" y="-.137" height="1.275" id="l"><feGaussianBlur stdDeviation=".39257"/></filter><radialGradient cx="46.25" cy="86.72" xlink:href="#a" id="m" r="59.995" gradientUnits="userSpaceOnUse" gradientTransform="matrix(0 1.1093-1.06337 0 156.31-2.406)"/><radialGradient cx="66.01" cy="126.69" id="n" r="59.995" gradientUnits="userSpaceOnUse" gradientTransform="matrix(.67503 0 0 .35836 19.527 41)"><stop stop-color="#53be2c"/><stop offset="1" stop-color="#53be2c" stop-opacity="0"/></radialGradient><radialGradient cx="64.09" cy="7.411" xlink:href="#b" id="o" r="59.995" gradientUnits="userSpaceOnUse" gradientTransform="matrix(.30939 0 0 .47792 44.26 3.864)"/><linearGradient spreadMethod="reflect" id="p" y1="12.569" x1="120.06" y2="14.444" gradientUnits="userSpaceOnUse" x2="125.3"><stop stop-color="#baff63"/><stop offset="1" stop-color="#fff" stop-opacity="0"/></linearGradient><filter id="q"><feGaussianBlur stdDeviation="1.33427"/></filter><radialGradient fx="-113.15" fy="59.708" cx="-112.17" cy="118.6" id="r" r="59.995" gradientUnits="userSpaceOnUse" gradientTransform="matrix(.64843.10172-.03126.19925-4.563 53.16)"><stop stop-color="#fff" stop-opacity="0"/><stop offset=".5" stop-color="#fff" stop-opacity=".187"/><stop offset="1" stop-color="#fff"/></radialGradient><linearGradient xlink:href="#a" id="s" y1="37.682" x1="-151.44" y2="57.25" gradientUnits="userSpaceOnUse" x2="-152.27"/><linearGradient xlink:href="#a" id="t" y1="39.803" x1="-132.51" y2="72.882" gradientUnits="userSpaceOnUse" x2="-158.92"/><linearGradient xlink:href="#a" id="u" y1="44.753" x1="-83.01" y2="72.882" gradientUnits="userSpaceOnUse" x2="-158.92"/><mask maskUnits="userSpaceOnUse" id="v"><g transform="translate(248.02 30.885)"><path fill="url(#r)" d="m-184.42-32.472c-33.13 0-64 32.375-64 65.5 0 33.13 31.375 64 64.5 64 30.29 0 55.34-26.22 59.41-55.34l-35.03-5.03c-1.625 11.961-11.93 20.969-24.375 20.969-13.572 0-22.09-11.522-22.09-25.09 0-13.572 6.02-20.09 19.594-20.09 6.786 0 9.921-2.235 14.375 2.219l-4.827 11.327c-2.056 2.056-2.244 3.306-1.68 4.616.509 1.181 1.521 2.526 4.21 2.526h43.953c3.846 0 6.459-2.654 6.459-6.25l-.069-44.08c0-2.481-.903-3.843-2.181-4.35-1.314-.52-3.033-.123-5.107 1.951l-10.195.195c-10.859-10.859-26.375-13.06-42.938-13.06"/><path fill="url(#s)" filter="url(#q)" fill-rule="evenodd" d="m-161.5 34.5c-.5 2.5-18.5 19.5-18.5 19.5l47.5 26 20.5-41.5z"/><path fill="url(#t)" filter="url(#q)" fill-rule="evenodd" d="m-161.5 34.5c-.5 2.5-19.778 19.889-19.778 19.889l29.651 43.2 39.627-59.09z"/><path fill="url(#u)" filter="url(#q)" fill-rule="evenodd" d="m-161.5 34.5c-.5 2.5-19.778 19.889-19.778 19.889l29.651 43.2 39.627-59.09z"/></g></mask><filter id="w"><feGaussianBlur stdDeviation=".89884"/></filter><filter id="x"><feGaussianBlur stdDeviation=".565"/></filter><linearGradient id="y" y1="78.77" x1="83.89" y2="72.04" x2="89.54" gradientUnits="userSpaceOnUse"><stop stop-color="#004d00"/><stop offset="1" stop-color="#004d00" stop-opacity="0"/></linearGradient><path id="z" d="m64.09 3.906c-33.13 0-60 26.875-60 60 0 33.13 26.875 60 60 60 30.29 0 55.34-22.22 59.41-51.34l-35.03-5.03c-1.625 11.961-11.93 20.969-24.375 20.969-13.572 0-24.594-11.02-24.594-24.594 0-13.572 11.02-24.594 24.594-24.594 6.786 0 12.921 2.765 17.375 7.219l-10.327 10.327c-2.056 2.056-2.244 3.306-1.68 4.616.509 1.181 1.521 2.526 4.21 2.526h43.953c3.846 0 6.459-2.654 6.459-6.25l-.069-44.08c0-2.481-.903-3.843-2.181-4.35-1.314-.52-3.033-.123-5.107 1.951l-10.195 10.195c-10.859-10.859-25.875-17.563-42.44-17.563"/><path id="A" d="m64.09 7.906c-30.962 0-56 25.04-56 56 0 30.962 25.04 56 56 56 26.933 0 49.12-18.807 54.53-44l-27.12-3.875c-3.439 11.897-14.44 20.469-27.406 20.469-15.737 0-28.594-12.856-28.594-28.594 0-15.737 12.856-28.594 28.594-28.594 7.872 0 15.05 3.208 20.22 8.375.759.751 1.187 1.775 1.188 2.844 0 1.068-.428 2.092-1.188 2.844l-10.625 10.625h43.938c2.01 0 2.469-.592 2.469-2.25l-.094-44.09-10.625 10.656c-.751.759-1.775 1.188-2.844 1.188-1.068 0-2.092-.428-2.844-1.188-10.138-10.138-24.11-16.406-39.594-16.406"/></defs><g fill="none" stroke-linejoin="round" stroke-width="8" stroke-dashoffset="1.088"><path stroke="url(#y)" d="m4.094 66.906c1.592 31.707 27.806 56.938 59.906 56.938 30.29 0 55.34-22.22 59.41-51.34l-35.03-5.03c-1.625 11.961-11.93 20.969-24.375 20.969-12.539 0-22.902-9.396-24.406-21.531z"/><path stroke="#004d00" d="m64 4.156c-33.13 0-60 26.562-60 59.688 0 1.025.043 2.05.094 3.063h35.5c-.124-1-.188-2.03-.188-3.063 0-13.572 11.02-24.594 24.594-24.594 6.786 0 12.921 2.765 17.375 7.219l-7.313 6.844c-2.056 2.056-2.252 3.284-1.688 4.594.509 1.181 1.53 2.531 4.219 2.531h40.938c3.846 0 6.469-2.654 6.469-6.25l-.063-40.563c0-2.481-.909-3.837-2.188-4.344-1.314-.52-3.051-.136-5.125 1.938l-10.188 10.188c-10.859-10.859-25.875-17.25-42.44-17.25z"/></g><g mask="url(#v)"><use fill="url(#c)" xlink:href="#z"/><use opacity=".798" fill="url(#n)" xlink:href="#z"/><use opacity=".689" fill="url(#j)" xlink:href="#z"/><use fill="url(#i)" xlink:href="#z"/><use opacity=".798" fill="url(#m)" xlink:href="#z"/><path opacity=".745" fill="url(#o)" filter="url(#w)" d="m64.09 4.206c-33.13 0-60 26.575-60 59.7 0 33.13 26.875 60 60 60 30.29 0 55.34-22.22 59.41-51.34l-35.03-5.03c-1.625 11.961-11.93 20.969-24.375 20.969-13.572 0-24.594-11.02-24.594-24.594 0-13.572 11.02-24.594 24.594-24.594 6.786 0 12.921 2.765 17.375 7.219l-10.327 10.327c-2.056 2.056-2.244 3.306-1.68 4.616.509 1.181 1.521 2.526 4.21 2.526h43.953c3.846 0 6.459-2.654 6.459-6.25l-.069-44.08c0-2.481-.903-3.843-2.181-4.35-1.314-.52-3.033-.123-5.107 1.951l-10.195 10.195c-10.859-10.859-25.875-17.263-42.44-17.263"/><g fill-rule="evenodd"><path opacity=".82" fill="url(#k)" filter="url(#l)" d="m117.69 10.75l.938 4.375 1.25.875 4-2.625c.247-1.724-.351-3.347-1.938-4-1.586-.653-3.161.127-4.25 1.375"/><path opacity=".82" fill="url(#p)" filter="url(#l)" d="m117.69 10.75l2.188 3.125.5-.125 3.5-.375c.247-1.724-.351-3.347-1.938-4-1.586-.653-3.161.127-4.25 1.375" transform="matrix(0 1 1 0 60.36-60.36)"/></g><use fill="url(#d)" xlink:href="#A"/><use fill="url(#e)" xlink:href="#A"/><path opacity=".833" fill="url(#f)" d="m64.09 7.906c-30.962 0-56 25.04-56 56 0 .568.015 1.124.031 1.688 5.989.678 12.141 1.15 18.406 1.406-.271-10.459 3.672-20.975 11.813-28.781 15.339-14.709 39.729-14.214 54.44 1.125 2.764 2.882 4.757 5.688 6.563 9.25l-20.5 10.406h19.16c7.928-2.027 15.186-3.437 22.09-6.188l-.094-39.16-10.625 10.656c-.751.759-1.775 1.188-2.844 1.188-1.068 0-2.092-.428-2.844-1.188-10.138-10.138-24.11-16.406-39.594-16.406"/><path fill="url(#g)" d="m64.1 7.909c-30.962 0-56 25.04-56 56 0 .179-.002.354 0 .531.253-30.744 25.2-55.53 56-55.53 15.483 0 29.456 6.269 39.594 16.406.751.759 1.775 1.188 2.844 1.188 1.068 0 2.092-.428 2.844-1.188l10.125-10.156.494 37.55c-6.908 2.751-14.566 3.861-22.494 5.887l-18.656.406h19.16c7.928-2.027 15.186-3.437 22.09-6.188l-.094-38.16v-1l-.5.5-10.125 10.156c-.751.759-1.775 1.188-2.844 1.188-1.068 0-2.092-.428-2.844-1.188-.01-.01-.021-.021-.031-.031-.052-.052-.104-.104-.156-.156-.574-.568-1.151-1.115-1.75-1.656-.082-.074-.168-.145-.25-.219-9.916-8.91-23.01-14.344-37.41-14.344m-.656 19.219c-9.238.251-18.403 3.793-25.594 10.687-7.632 7.318-11.128 17.373-11.313 27.22.24-9.802 4.18-19.494 11.813-26.813 13.316-12.769 33.453-14.1 48.16-4.188-6.879-4.805-14.987-7.125-23.06-6.906"/><path fill="none" filter="url(#x)" stroke="url(#h)" stroke-linejoin="round" d="m63.59 7.906c-30.962 0-56 25.04-56 56 0 30.962 25.04 56 56 56 26.933 0 49.12-18.807 54.53-44l-27.12-3.875c-3.439 11.897-14.44 20.469-27.406 20.469-15.737 0-28.594-12.856-28.594-28.594 0-15.737 12.856-28.594 28.594-28.594 7.872 0 15.05 3.208 20.22 8.375.759.751 1.188 1.775 1.188 2.844 0 1.068-.428 2.092-1.188 2.844l-10.625 10.625h43.938c2.01 0 2.469-.592 2.469-2.25l-.094-44.09-10.625 10.656c-.751.759-1.775 1.188-2.844 1.188-1.068 0-2.092-.428-2.844-1.188-10.138-10.138-24.11-16.406-39.594-16.406z" stroke-dashoffset="1.088"/></g></svg>