<svg xmlns="http://www.w3.org/2000/svg" viewBox="0 0 64 64" xmlns:xlink="http://www.w3.org/1999/xlink"><defs><linearGradient id="a"><stop stop-color="#fff" stop-opacity=".471"/><stop offset="1" stop-color="#fff" stop-opacity="0"/></linearGradient><radialGradient cx="289.5" cy="97.41" id="b" r="432.91" gradientUnits="userSpaceOnUse"><stop stop-color="#daffff"/><stop offset="1" stop-color="#008ffd"/></radialGradient><radialGradient cx="245.25" cy="135.33" xlink:href="#a" id="c" r="287.97" gradientUnits="userSpaceOnUse" gradientTransform="scale(1.30342.76722)"/><radialGradient cx="226.25" cy="791.98" xlink:href="#a" id="d" r="149.54" gradientUnits="userSpaceOnUse" gradientTransform="scale(1.53397.6519)"/></defs><g fill-rule="evenodd"><circle fill="url(#b)" cx="318.75" cy="301.79" stroke="#0070ca" r="233.04" stroke-width="37" transform="matrix(.12722 0 0 .12722-8.551-6.393)"/><g stroke-width="1.25"><path fill="url(#c)" fill-opacity=".555" d="m530.36 217.86c-83.928-233.04-448.21-184.82-437.5 109.82 274.11 8.04 144.64-95.53 437.5-109.82" transform="matrix(.12722 0 0 .12722-9.02-5.984)"/><path fill="url(#d)" fill-opacity=".616" d="m524.11 400c-78.57 141.07-243.75 160.72-348.21 77.68 142.86-160.71 348.21-76.79 348.21-77.68" transform="matrix(.12722 0 0 .12722-9.251-6.325)"/><path fill="#000082" d="m-363.27 219.71h18.382v76.16h-18.382z" transform="matrix(0-.59242.59243 0-120.55-178)"/></g></g></svg>