<?xml version="1.0" encoding="UTF-8"?>
<svg xmlns="http://www.w3.org/2000/svg" viewBox="0 0 16 16">
  <defs>
    <linearGradient id="textGrad" x1="0" y1="0" x2="0" y2="1">
      <stop offset="0" stop-color="#505050"/>
      <stop offset="1" stop-color="#111111"/>
    </linearGradient>
    <linearGradient id="checkGrad" x1="0" y1="0" x2="0" y2="1">
      <stop offset="0" stop-color="#7fdc67"/>
      <stop offset="1" stop-color="#17851e"/>
    </linearGradient>
  </defs>

  <!-- ABC text, drawn as compact toolbar-friendly strokes -->
  <path d="M1.1 9.2 2.5 3.3h1.2l1.4 5.9H4.0L3.7 7.8H2.5L2.2 9.2H1.1z
           M2.7 6.8h.8L3.1 4.5 2.7 6.8z"
        fill="url(#textGrad)"/>
  <path d="M5.7 3.3h2.1c1.0 0 1.6.5 1.6 1.4 0 .6-.3 1.0-.8 1.2.7.2 1.0.7 1.0 1.5
           0 1.1-.7 1.8-1.9 1.8h-2V3.3z
           M6.8 5.7h.8c.5 0 .7-.2.7-.7 0-.4-.2-.7-.7-.7h-.8v1.4z
           M6.8 8.2h.9c.5 0 .8-.3.8-.8s-.3-.8-.8-.8h-.9v1.6z"
        fill="url(#textGrad)"/>
  <path d="M13.9 4.7c-.3-.3-.7-.5-1.2-.5-1.0 0-1.6.8-1.6 2s.6 2 1.6 2c.5 0 .9-.2 1.3-.6v1.2
           c-.4.3-.9.5-1.5.5-1.6 0-2.6-1.2-2.6-3.1s1.1-3.1 2.7-3.1c.6 0 1.0.1 1.4.4v1.2z"
        fill="url(#textGrad)"/>

  <!-- green spell-check tick -->
  <path d="M5.1 11.7 7.1 13.8 14.7 6.5" fill="none" stroke="#ffffff" stroke-width="3.1"
        stroke-linecap="round" stroke-linejoin="round"/>
  <path d="M5.1 11.7 7.1 13.8 14.7 6.5" fill="none" stroke="#0b6414" stroke-width="2.2"
        stroke-linecap="round" stroke-linejoin="round"/>
  <path d="M5.1 11.7 7.1 13.8 14.7 6.5" fill="none" stroke="url(#checkGrad)" stroke-width="1.35"
        stroke-linecap="round" stroke-linejoin="round"/>
</svg>
