<?xml version="1.0" encoding="UTF-8" standalone="no"?>
<svg
   xmlns:dc="http://purl.org/dc/elements/1.1/"
   xmlns:cc="http://creativecommons.org/ns#"
   xmlns:rdf="http://www.w3.org/1999/02/22-rdf-syntax-ns#"
   xmlns:svg="http://www.w3.org/2000/svg"
   xmlns="http://www.w3.org/2000/svg"
   xmlns:xlink="http://www.w3.org/1999/xlink"
   width="49.11824"
   height="54.234951"
   id="svg5859"
   version="1.0">
  <defs
     id="defs5861">
    <linearGradient
       id="linearGradient790">
      <stop
         style="stop-color:#9e9e00;stop-opacity:1;"
         offset="0.000000"
         id="stop791" />
      <stop
         style="stop-color:#989c33;stop-opacity:1;"
         offset="1.000000"
         id="stop792" />
    </linearGradient>
    <radialGradient
       xlink:href="#linearGradient790"
       id="radialGradient793"
       cx="289.50043"
       cy="97.412392"
       fx="289.50043"
       fy="97.412392"
       r="432.91306"
       gradientUnits="userSpaceOnUse"
       spreadMethod="pad" />
    <linearGradient
       id="linearGradient777">
      <stop
         style="stop-color:#8f0000;stop-opacity:1;"
         offset="0.000000"
         id="stop778" />
      <stop
         style="stop-color:#b35f00;stop-opacity:1;"
         offset="1.000000"
         id="stop779" />
    </linearGradient>
    <radialGradient
       xlink:href="#linearGradient777"
       id="radialGradient780"
       cx="289.50043"
       cy="97.412544"
       fx="289.50043"
       fy="97.412544"
       r="432.91306"
       gradientUnits="userSpaceOnUse"
       spreadMethod="pad" />
    <linearGradient
       id="linearGradient115">
      <stop
         style="stop-color:#ffffff;stop-opacity:0.470588;"
         offset="0.000000"
         id="stop116" />
      <stop
         style="stop-color:#ffffff;stop-opacity:0;"
         offset="1.000000"
         id="stop117" />
    </linearGradient>
    <radialGradient
       xlink:href="#linearGradient115"
       id="radialGradient460"
       cx="226.24905"
       cy="791.97797"
       fx="226.24905"
       fy="791.97797"
       r="149.54478"
       gradientUnits="userSpaceOnUse"
       spreadMethod="pad"
       gradientTransform="scale(1.5339718,0.6519025)" />
    <linearGradient
       id="linearGradient107">
      <stop
         style="stop-color:#ffffff;stop-opacity:1;"
         offset="0.000000"
         id="stop108" />
      <stop
         style="stop-color:#ffffff;stop-opacity:0;"
         offset="1.000000"
         id="stop109" />
    </linearGradient>
    <radialGradient
       xlink:href="#linearGradient107"
       id="radialGradient110"
       cx="245.24918"
       cy="135.33487"
       fx="245.24918"
       fy="135.33487"
       r="287.96741"
       gradientUnits="userSpaceOnUse"
       spreadMethod="pad"
       gradientTransform="scale(1.3034154,0.7672151)" />
    <linearGradient
       id="linearGradient803">
      <stop
         style="stop-color:#00ff00;stop-opacity:1;"
         offset="0.000000"
         id="stop804" />
      <stop
         style="stop-color:#97ff00;stop-opacity:1;"
         offset="1.000000"
         id="stop805" />
    </linearGradient>
    <radialGradient
       xlink:href="#linearGradient803"
       id="radialGradient806"
       cx="289.50043"
       cy="97.41259"
       fx="289.50043"
       fy="97.41259"
       r="432.91306"
       gradientUnits="userSpaceOnUse"
       spreadMethod="pad" />
    <radialGradient
       xlink:href="#linearGradient165"
       id="radialGradient833"
       cx="219.87048"
       cy="286.16776"
       fx="219.87048"
       fy="286.16776"
       r="104.14263"
       gradientUnits="userSpaceOnUse"
       spreadMethod="pad"
       gradientTransform="scale(0.9171755,1.0903039)" />
    <linearGradient
       id="linearGradient835">
      <stop
         style="stop-color:#000000;stop-opacity:1;"
         offset="0.000000"
         id="stop836" />
      <stop
         style="stop-color:#8a8e8f;stop-opacity:1;"
         offset="1.000000"
         id="stop837" />
    </linearGradient>
    <linearGradient
       xlink:href="#linearGradient835"
       id="linearGradient834"
       x1="311.22366"
       y1="231.59087"
       x2="323.76099"
       y2="324.44568"
       gradientUnits="userSpaceOnUse"
       spreadMethod="pad"
       gradientTransform="scale(0.6200394,1.6128006)" />
    <linearGradient
       xlink:href="#linearGradient186"
       id="linearGradient191"
       gradientTransform="scale(0.4664308,2.1439406)"
       x1="587.66913"
       y1="34.640858"
       x2="634.46252"
       y2="34.640858"
       gradientUnits="userSpaceOnUse" />
    <linearGradient
       xlink:href="#linearGradient186"
       id="linearGradient185"
       gradientTransform="scale(2.176942,0.45936)"
       x1="76.066315"
       y1="302.43069"
       x2="121.14448"
       y2="302.43069"
       gradientUnits="userSpaceOnUse" />
    <linearGradient
       id="linearGradient186">
      <stop
         style="stop-color:#ffd800;stop-opacity:0.945098;"
         offset="0.000000"
         id="stop187" />
      <stop
         style="stop-color:#ffff00;stop-opacity:0;"
         offset="1.000000"
         id="stop188" />
    </linearGradient>
    <linearGradient
       xlink:href="#linearGradient186"
       id="linearGradient184"
       x1="481.63028"
       y1="205.11223"
       x2="331.17175"
       y2="100.25422"
       gradientUnits="userSpaceOnUse"
       spreadMethod="pad"
       gradientTransform="scale(0.7605544,1.3148304)" />
    <linearGradient
       xlink:href="#linearGradient165"
       id="linearGradient182"
       x1="588.72461"
       y1="104.07272"
       x2="743.79462"
       y2="83.097183"
       gradientUnits="userSpaceOnUse"
       spreadMethod="pad"
       gradientTransform="scale(0.3922365,2.5494824)" />
    <linearGradient
       xlink:href="#linearGradient165"
       id="linearGradient180"
       gradientTransform="scale(2.1400429,0.4672804)"
       x1="132.33977"
       y1="247.66638"
       x2="178.9852"
       y2="247.66638"
       gradientUnits="userSpaceOnUse" />
    <linearGradient
       xlink:href="#linearGradient165"
       id="linearGradient171"
       x1="218.21011"
       y1="74.100601"
       x2="237.86662"
       y2="137.24713"
       gradientUnits="userSpaceOnUse"
       spreadMethod="pad"
       gradientTransform="scale(1.0603743,0.9430632)" />
    <linearGradient
       id="linearGradient357">
      <stop
         style="stop-color:#ffff00;stop-opacity:0.854902;"
         offset="0.000000"
         id="stop358" />
      <stop
         style="stop-color:#ffffc8;stop-opacity:0.513725;"
         offset="1.000000"
         id="stop359" />
    </linearGradient>
    <linearGradient
       xlink:href="#linearGradient357"
       id="linearGradient356"
       x1="339.61816"
       y1="112.62084"
       x2="310.79825"
       y2="322.09476"
       gradientUnits="userSpaceOnUse"
       spreadMethod="pad"
       gradientTransform="scale(0.8669845,1.1534231)" />
    <linearGradient
       xlink:href="#linearGradient165"
       id="linearGradient159"
       x1="293.82791"
       y1="160.71729"
       x2="401.17664"
       y2="114.58482"
       gradientUnits="userSpaceOnUse"
       spreadMethod="pad"
       gradientTransform="scale(0.5677477,1.7613457)" />
    <linearGradient
       id="linearGradient165">
      <stop
         style="stop-color:#ffffff;stop-opacity:0.945098;"
         offset="0.000000"
         id="stop166" />
      <stop
         style="stop-color:#ffffff;stop-opacity:0;"
         offset="1.000000"
         id="stop167" />
    </linearGradient>
    <radialGradient
       xlink:href="#linearGradient165"
       id="radialGradient164"
       cx="301.42603"
       cy="156.29366"
       fx="301.42603"
       fy="156.29366"
       r="192.46465"
       gradientUnits="userSpaceOnUse"
       spreadMethod="pad"
       gradientTransform="scale(1.2940833,0.7727478)" />
    <linearGradient
       id="linearGradient160">
      <stop
         style="stop-color:#ffffff;stop-opacity:1;"
         offset="0.000000"
         id="stop161" />
      <stop
         style="stop-color:#ffff00;stop-opacity:1;"
         offset="1.000000"
         id="stop162" />
    </linearGradient>
    <radialGradient
       xlink:href="#linearGradient160"
       id="radialGradient118"
       cx="236.02818"
       cy="192.58218"
       fx="236.02818"
       fy="192.58218"
       r="198.18884"
       gradientUnits="userSpaceOnUse"
       spreadMethod="pad"
       gradientTransform="scale(1.8229713,0.548555)" />
    <linearGradient
       id="linearGradient156">
      <stop
         style="stop-color:#0015a1;stop-opacity:1;"
         offset="0.000000"
         id="stop157" />
      <stop
         style="stop-color:#0e6eea;stop-opacity:1;"
         offset="1.000000"
         id="stop158" />
    </linearGradient>
    <linearGradient
       xlink:href="#linearGradient156"
       id="linearGradient155"
       x1="428.36154"
       y1="237.52698"
       x2="464.26782"
       y2="485.44678"
       gradientUnits="userSpaceOnUse"
       spreadMethod="pad"
       gradientTransform="scale(0.9620497,1.0394474)" />
    <radialGradient
       xlink:href="#linearGradient107"
       id="radialGradient5970"
       gradientUnits="userSpaceOnUse"
       spreadMethod="pad"
       cx="245.24918"
       cy="135.33487"
       fx="245.24918"
       fy="135.33487"
       r="287.96741"
       gradientTransform="scale(1.3034154,0.7672151)" />
    <radialGradient
       xlink:href="#linearGradient115"
       id="radialGradient5972"
       gradientUnits="userSpaceOnUse"
       spreadMethod="pad"
       cx="226.24905"
       cy="791.97797"
       fx="226.24905"
       fy="791.97797"
       r="149.54478"
       gradientTransform="scale(1.5339718,0.6519025)" />
    <radialGradient
       xlink:href="#linearGradient107"
       id="radialGradient5974"
       gradientUnits="userSpaceOnUse"
       spreadMethod="pad"
       cx="245.24918"
       cy="135.33487"
       fx="245.24918"
       fy="135.33487"
       r="287.96741"
       gradientTransform="scale(1.3034154,0.7672151)" />
    <radialGradient
       xlink:href="#linearGradient115"
       id="radialGradient5976"
       gradientUnits="userSpaceOnUse"
       spreadMethod="pad"
       cx="226.24905"
       cy="791.97797"
       fx="226.24905"
       fy="791.97797"
       r="149.54478"
       gradientTransform="scale(1.5339718,0.6519025)" />
    <linearGradient
       xlink:href="#linearGradient156"
       id="linearGradient6079"
       gradientUnits="userSpaceOnUse"
       gradientTransform="scale(0.9620497,1.0394474)"
       spreadMethod="pad"
       x1="428.36154"
       y1="237.52698"
       x2="464.26782"
       y2="485.44678" />
    <radialGradient
       xlink:href="#linearGradient160"
       id="radialGradient6081"
       gradientUnits="userSpaceOnUse"
       gradientTransform="scale(1.8229713,0.548555)"
       spreadMethod="pad"
       cx="236.02818"
       cy="192.58218"
       fx="236.02818"
       fy="192.58218"
       r="198.18884" />
    <radialGradient
       xlink:href="#linearGradient165"
       id="radialGradient6083"
       gradientUnits="userSpaceOnUse"
       gradientTransform="scale(1.2940833,0.7727478)"
       spreadMethod="pad"
       cx="301.42603"
       cy="156.29366"
       fx="301.42603"
       fy="156.29366"
       r="192.46465" />
    <linearGradient
       xlink:href="#linearGradient165"
       id="linearGradient6085"
       gradientUnits="userSpaceOnUse"
       gradientTransform="scale(0.5677477,1.7613457)"
       spreadMethod="pad"
       x1="293.82791"
       y1="160.71729"
       x2="401.17664"
       y2="114.58482" />
    <linearGradient
       xlink:href="#linearGradient357"
       id="linearGradient6087"
       gradientUnits="userSpaceOnUse"
       gradientTransform="scale(0.8669845,1.1534231)"
       spreadMethod="pad"
       x1="339.61816"
       y1="112.62084"
       x2="310.79825"
       y2="322.09476" />
    <linearGradient
       xlink:href="#linearGradient165"
       id="linearGradient6089"
       gradientUnits="userSpaceOnUse"
       gradientTransform="scale(1.0603743,0.9430632)"
       spreadMethod="pad"
       x1="218.21011"
       y1="74.100601"
       x2="237.86662"
       y2="137.24713" />
    <linearGradient
       xlink:href="#linearGradient165"
       id="linearGradient6091"
       gradientUnits="userSpaceOnUse"
       gradientTransform="scale(2.1400429,0.4672804)"
       x1="132.33977"
       y1="247.66638"
       x2="178.9852"
       y2="247.66638" />
    <linearGradient
       xlink:href="#linearGradient165"
       id="linearGradient6093"
       gradientUnits="userSpaceOnUse"
       gradientTransform="scale(0.3922365,2.5494824)"
       spreadMethod="pad"
       x1="588.72461"
       y1="104.07272"
       x2="743.79462"
       y2="83.097183" />
    <linearGradient
       xlink:href="#linearGradient186"
       id="linearGradient6095"
       gradientUnits="userSpaceOnUse"
       gradientTransform="scale(0.7605544,1.3148304)"
       spreadMethod="pad"
       x1="481.63028"
       y1="205.11223"
       x2="331.17175"
       y2="100.25422" />
    <linearGradient
       xlink:href="#linearGradient186"
       id="linearGradient6097"
       gradientUnits="userSpaceOnUse"
       gradientTransform="scale(2.176942,0.45936)"
       x1="76.066315"
       y1="302.43069"
       x2="121.14448"
       y2="302.43069" />
    <linearGradient
       xlink:href="#linearGradient186"
       id="linearGradient6099"
       gradientUnits="userSpaceOnUse"
       gradientTransform="scale(0.4664308,2.1439406)"
       x1="587.66913"
       y1="34.640858"
       x2="634.46252"
       y2="34.640858" />
    <linearGradient
       xlink:href="#linearGradient835"
       id="linearGradient6101"
       gradientUnits="userSpaceOnUse"
       gradientTransform="scale(0.6200394,1.6128006)"
       spreadMethod="pad"
       x1="311.22366"
       y1="231.59087"
       x2="323.76099"
       y2="324.44568" />
    <radialGradient
       xlink:href="#linearGradient165"
       id="radialGradient6103"
       gradientUnits="userSpaceOnUse"
       gradientTransform="scale(0.9171755,1.0903039)"
       spreadMethod="pad"
       cx="219.87048"
       cy="286.16776"
       fx="219.87048"
       fy="286.16776"
       r="104.14263" />
    <radialGradient
       xlink:href="#linearGradient803"
       id="radialGradient6105"
       gradientUnits="userSpaceOnUse"
       spreadMethod="pad"
       cx="289.50043"
       cy="97.41259"
       fx="289.50043"
       fy="97.41259"
       r="432.91306" />
    <radialGradient
       xlink:href="#linearGradient107"
       id="radialGradient6107"
       gradientUnits="userSpaceOnUse"
       gradientTransform="scale(1.3034154,0.7672151)"
       spreadMethod="pad"
       cx="245.24918"
       cy="135.33487"
       fx="245.24918"
       fy="135.33487"
       r="287.96741" />
    <radialGradient
       xlink:href="#linearGradient115"
       id="radialGradient6109"
       gradientUnits="userSpaceOnUse"
       gradientTransform="scale(1.5339718,0.6519025)"
       spreadMethod="pad"
       cx="226.24905"
       cy="791.97797"
       fx="226.24905"
       fy="791.97797"
       r="149.54478" />
    <radialGradient
       xlink:href="#linearGradient777"
       id="radialGradient6111"
       gradientUnits="userSpaceOnUse"
       spreadMethod="pad"
       cx="289.50043"
       cy="97.412544"
       fx="289.50043"
       fy="97.412544"
       r="432.91306" />
    <radialGradient
       xlink:href="#linearGradient107"
       id="radialGradient6113"
       gradientUnits="userSpaceOnUse"
       gradientTransform="scale(1.3034154,0.7672151)"
       spreadMethod="pad"
       cx="245.24918"
       cy="135.33487"
       fx="245.24918"
       fy="135.33487"
       r="287.96741" />
    <radialGradient
       xlink:href="#linearGradient115"
       id="radialGradient6115"
       gradientUnits="userSpaceOnUse"
       gradientTransform="scale(1.5339718,0.6519025)"
       spreadMethod="pad"
       cx="226.24905"
       cy="791.97797"
       fx="226.24905"
       fy="791.97797"
       r="149.54478" />
    <radialGradient
       xlink:href="#linearGradient790"
       id="radialGradient6117"
       gradientUnits="userSpaceOnUse"
       spreadMethod="pad"
       cx="289.50043"
       cy="97.412392"
       fx="289.50043"
       fy="97.412392"
       r="432.91306" />
    <radialGradient
       xlink:href="#linearGradient107"
       id="radialGradient6119"
       gradientUnits="userSpaceOnUse"
       gradientTransform="scale(1.3034154,0.7672151)"
       spreadMethod="pad"
       cx="245.24918"
       cy="135.33487"
       fx="245.24918"
       fy="135.33487"
       r="287.96741" />
    <radialGradient
       xlink:href="#linearGradient115"
       id="radialGradient6121"
       gradientUnits="userSpaceOnUse"
       gradientTransform="scale(1.5339718,0.6519025)"
       spreadMethod="pad"
       cx="226.24905"
       cy="791.97797"
       fx="226.24905"
       fy="791.97797"
       r="149.54478" />
  </defs>
  <metadata
     id="metadata5864">
    <rdf:RDF>
      <cc:Work
         rdf:about="">
        <dc:format>image/svg+xml</dc:format>
        <dc:type
           rdf:resource="http://purl.org/dc/dcmitype/StillImage" />
        <dc:description>BibleTime icon &quot;start config&quot;.
Licence:
http://creativecommons.org/licenses/by-sa/2.5/ (or any later version)
http://www.gnu.org/licenses/old-licenses/lgpl-2.1.html (or any later version)</dc:description>
        <dc:creator>
          <cc:Agent>
            <dc:title>James Ots</dc:title>
          </cc:Agent>
        </dc:creator>
      </cc:Work>
    </rdf:RDF>
  </metadata>
  <g
     id="layer1"
     transform="translate(-240.97305,-273.38524)">
    <g
       transform="matrix(0.970313,0,0,0.970312,195.84118,218.27439)"
       id="g1320">
      <g
         transform="translate(14.83796,8.678818)"
         id="g1253">
        <path
           transform="matrix(0.107241,0,0,0.120147,19.12811,38.71334)"
           id="path1066"
           d="M 460.715,99.1068 C 459.822,98.214 525,143.75 525,143.75 C 525,143.75 579.465,460.714 578.572,460.714 C 577.679,460.714 300.893,531.25 300.893,531.25 C 233.929,541.964 225.893,486.607 224.108,477.678 C 223.215,475 178.571,174.106 178.572,172.321 C 180.357,163.393 461.607,99.9996 460.715,99.1068 z "
           style="font-size:12px;fill-opacity:0.11931799;fill-rule:evenodd;stroke-width:16.54360008;stroke-linejoin:round" />
        <path
           transform="matrix(0.107241,0,0,0.120147,20.24795,40.01984)"
           id="path1244"
           d="M 460.715,99.1068 C 459.822,98.214 525,143.75 525,143.75 C 525,143.75 579.465,460.714 578.572,460.714 C 577.679,460.714 300.893,531.25 300.893,531.25 C 233.929,541.964 225.893,486.607 224.108,477.678 C 223.215,475 178.571,174.106 178.572,172.321 C 180.357,163.393 461.607,99.9996 460.715,99.1068 z "
           style="font-size:12px;fill-opacity:0.11931799;fill-rule:evenodd;stroke-width:16.54360008;stroke-linejoin:round" />
      </g>
      <g
         style="font-size:12px"
         transform="translate(-243.7118,-289.4267)"
         id="g937">
        <g
           style="font-size:12px"
           transform="matrix(0.226616,0,0,0.226616,254.0524,324.7195)"
           id="g938">
          <path
             transform="matrix(0.473229,0,0,0.530179,94.959,46.4969)"
             id="path939"
             d="M 460.715,99.1068 C 459.822,98.214 191.964,159.821 191.071,160.714 C 156.251,172.322 206.251,218.75 256.249,205.357 C 266.071,202.678 525,143.75 525,143.75 C 525,143.75 579.465,460.714 578.572,460.714 C 577.679,460.714 300.893,531.25 300.893,531.25 C 233.929,541.964 225.893,486.607 224.108,477.678 C 223.215,475 178.571,174.106 178.572,172.321 C 180.357,163.393 461.607,99.9997 460.715,99.1068 z "
             style="fill:url(#linearGradient6079);fill-opacity:1;fill-rule:evenodd;stroke:#0012ab;stroke-width:16.54360008;stroke-linecap:butt;stroke-linejoin:round;stroke-dasharray:none;stroke-opacity:1" />
          <path
             transform="matrix(0.473229,0,0,0.530179,94.5089,45.8857)"
             id="path942"
             d="M 460.715,99.9997 C 461.607,100.893 520.536,136.607 519.643,136.607 C 518.75,136.607 259.821,197.321 253.571,198.214 C 206.25,209.821 181.25,172.321 186.607,167.857 C 196.429,166.071 461.607,99.9997 460.715,99.9997 z "
             style="fill:url(#radialGradient6081);fill-opacity:1;fill-rule:evenodd;stroke:none;stroke-width:1pt;stroke-linecap:butt;stroke-linejoin:miter;stroke-opacity:1" />
          <path
             transform="matrix(0.610964,0,0,0.684486,69.8172,30.3121)"
             id="path943"
             d="M 447.322,136.607 C 447.322,137.5 458.685,183.6 461.608,203.166 C 301.874,207.7 378.099,292.863 207.791,302.42 C 200.649,261.348 183.929,163.393 183.929,165.178 C 183.929,166.964 204.465,182.143 221.429,184.821 C 268.751,176.785 448.215,138.393 447.322,136.607 z "
             style="fill:url(#radialGradient6083);fill-opacity:1;fill-rule:evenodd;stroke:none;stroke-width:1pt;stroke-linecap:butt;stroke-linejoin:miter;stroke-opacity:1" />
          <path
             transform="matrix(0.681684,0,0,0.681684,57.1263,31.4825)"
             id="path948"
             d="M 183.929,166.071 C 183.929,166.071 215.179,400.893 215.179,400.893 C 215.179,400.893 224.108,443.749 270.536,433.036 C 267.857,426.786 239.286,181.25 238.393,181.25 C 201.786,192.857 185.714,166.071 183.929,166.071 z "
             style="fill:url(#linearGradient6085);fill-opacity:1;fill-rule:evenodd;stroke:none;stroke-width:1pt;stroke-linecap:butt;stroke-linejoin:miter;stroke-opacity:1" />
        </g>
        <g
           style="font-size:12px"
           transform="matrix(0.285025,1.188954e-2,-6.476187e-3,0.284631,239.7883,280.0725)"
           id="g949">
          <path
             transform="matrix(0.321131,-7.24356e-2,5.36828e-2,0.317997,186.839,258.437)"
             id="path956"
             d="M 258.036,112.5 C 258.036,132.143 258.929,177.679 258.929,178.572 C 258.929,179.464 202.643,182.45 190.143,184.236 C 162.895,186.622 166.602,225.185 190.143,220.843 C 209.786,219.95 258.036,215.178 258.929,215.178 C 259.822,215.178 259.821,338.392 260.714,353.571 C 259.822,384.821 300.893,385.714 300.893,355.357 C 300.893,331.25 300.893,226.785 300.893,216.964 C 312.5,216.964 338.995,212.592 366.331,210.304 C 390.765,202.389 391.862,168.272 364.313,171.318 C 346.224,172.511 302.679,175.893 301.786,177.678 C 300.893,179.464 300.893,111.607 300,111.607 C 300,83.0355 258.036,85.7143 258.036,112.5 z "
             style="font-size:12px;fill:url(#linearGradient6087);fill-opacity:0.53658495;fill-rule:evenodd;stroke:#febf00;stroke-width:5.875;stroke-linecap:round;stroke-linejoin:round;stroke-opacity:0.81707297" />
          <path
             transform="matrix(0.317797,-7.16837e-2,5.31257e-2,0.314696,192.799,280.673)"
             id="path957"
             d="M 296.518,38.7381 C 286.052,33.1068 278.639,36.7638 271.063,44.6139 C 270.17,55.3283 274.85,130.269 275.743,133.84 C 276.636,137.412 266.618,121.182 266.618,121.182 C 266.618,121.182 262.438,126.91 257.974,125.123 C 253.509,123.337 189.286,120.535 182.143,123.214 C 175,125.893 170.536,129.464 169.643,133.928 C 168.75,138.393 165.179,119.643 176.786,116.071 C 188.393,112.5 254.854,108.649 253.962,108.649 C 253.07,108.649 256.06,38.3477 256.953,32.0976 C 257.846,25.8476 287.28,6.65699 296.518,38.7381 z "
             style="font-size:12px;fill:url(#linearGradient6089);fill-opacity:0.76829301;fill-rule:evenodd;stroke-width:1pt" />
          <path
             transform="matrix(0.317797,-7.16837e-2,5.31257e-2,0.314696,192.779,279.183)"
             id="path958"
             d="M 299.107,109.821 C 297.322,114.285 313.614,118.812 283.371,126.326 C 278.907,128.111 370.326,121.283 378.361,123.962 C 386.397,126.64 381.094,121.228 383.036,124.107 C 379.854,114.732 379.118,106.897 368.404,105.111 C 357.69,103.325 300,110.714 299.107,109.821 z "
             style="font-size:12px;fill:url(#linearGradient6091);fill-rule:evenodd;stroke-width:1pt" />
          <path
             transform="matrix(0.317797,-7.16837e-2,5.31257e-2,0.314696,192.718,279.279)"
             id="path959"
             d="M 272.94,137.252 C 264.471,155.852 254.464,150 254.464,150.893 C 254.464,151.785 256.25,284.821 258.036,292.857 C 259.822,300.893 265.426,312.747 278.359,308.805 C 284.609,310.591 278.881,311.545 278.881,311.545 C 278.881,311.545 271.924,304.464 271.031,288.393 C 270.138,272.321 272.047,139.038 272.94,137.252 z "
             style="font-size:12px;fill:url(#linearGradient6093);fill-rule:evenodd;stroke-width:1pt" />
          <path
             transform="matrix(0.317797,-7.16837e-2,5.31257e-2,0.314696,191.249,278.594)"
             id="path960"
             d="M 271.429,312.5 C 291.072,309.821 294.643,306.25 295.536,290.178 C 296.429,274.107 296.429,149.107 297.322,150 C 298.214,150.893 359.822,153.571 368.75,148.214 C 377.679,142.857 383.036,141.071 382.143,130.357 C 381.25,119.643 379.465,120.535 380.357,121.428 C 381.25,122.321 376.786,137.5 367.857,138.393 C 358.929,139.285 303.572,145.535 295.536,142.857 C 287.5,140.178 286.607,135.714 287.5,137.5 C 288.393,139.285 289.286,142.857 289.286,150.893 C 289.286,158.928 290.179,284.821 288.393,290.178 C 286.607,295.536 289.286,305.357 271.429,312.5 z "
             style="font-size:12px;fill:url(#linearGradient6095);fill-opacity:0.53725496;fill-rule:evenodd;stroke-width:1pt" />
          <path
             transform="matrix(0.317797,-7.16837e-2,5.31257e-2,0.314696,192.332,281.177)"
             id="path961"
             d="M 166.072,128.571 C 166.964,144.643 172.322,147.321 179.464,148.214 C 186.607,149.107 252.679,148.214 253.572,149.107 C 254.464,150 261.607,147.321 263.393,142.857 C 265.179,138.393 259.822,142.857 245.536,141.964 C 231.25,141.071 193.75,144.643 183.036,141.071 C 172.322,137.5 163.393,129.464 166.072,128.571 z "
             style="font-size:12px;fill:url(#linearGradient6097);fill-rule:evenodd;stroke-width:1pt" />
          <path
             transform="matrix(0.317797,-7.16837e-2,5.31257e-2,0.314696,192.769,279.58)"
             id="path962"
             d="M 274.107,24.1068 C 296.429,27.6782 295.536,41.9639 295.536,47.3211 C 295.536,52.6782 296.429,104.464 295.536,108.928 C 294.643,113.393 296.429,116.964 291.072,120.535 C 285.714,124.107 284.822,125 284.822,124.107 C 284.822,123.214 288.393,119.642 288.393,108.928 C 288.393,98.214 291.072,45.5354 288.393,38.3925 C 285.714,31.2496 275.893,24.9997 274.107,24.1068 z "
             style="font-size:12px;fill:url(#linearGradient6099);fill-rule:evenodd;stroke-width:1pt" />
        </g>
        <rect
           transform="translate(64.7935,-61.92985)"
           y="372.38977"
           x="361.2793"
           height="0"
           width="0.50107098"
           id="rect963"
           style="font-size:12px;fill:#808080;fill-rule:evenodd;stroke-width:1pt" />
        <rect
           transform="translate(64.7935,-61.92985)"
           y="373.02017"
           x="295.08868"
           height="0"
           width="0.50107098"
           id="rect964"
           style="font-size:12px;fill:#808080;fill-rule:evenodd;stroke-width:1pt" />
        <rect
           transform="translate(64.7935,-61.92985)"
           y="565.91852"
           x="362.54007"
           height="0"
           width="0.50107098"
           id="rect965"
           style="font-size:12px;fill:#808080;fill-rule:evenodd;stroke-width:1pt" />
        <rect
           transform="translate(64.7935,-61.92985)"
           y="567.17932"
           x="293.82788"
           height="0"
           width="0.50107098"
           id="rect966"
           style="font-size:12px;fill:#808080;fill-rule:evenodd;stroke-width:1pt" />
        <rect
           transform="translate(64.7935,-61.92985)"
           y="373.02017"
           x="229.52846"
           height="0"
           width="0.50107098"
           id="rect967"
           style="font-size:12px;fill:#808080;fill-rule:evenodd;stroke-width:1pt" />
      </g>
      <g
         transform="translate(27.71471,11.8502)"
         id="g1293">
        <g
           id="g1245">
          <path
             transform="matrix(0.18768,0,0,0.18768,-8.563207,-13.48492)"
             id="path1084"
             d="M 154.937,363.27 C 153.187,414.04 154.937,435.049 154.937,491.946 C 154.937,550.595 231.968,547.969 232.844,493.697 C 232.844,434.173 232.844,412.289 233.719,362.394 C 234.594,308.123 154.061,308.123 154.937,363.27 z "
             style="font-size:12px;fill-opacity:0.11931799;fill-rule:evenodd;stroke-width:4" />
          <rect
             transform="translate(-203.964,-203.7402)"
             y="372.38977"
             x="361.2793"
             height="0"
             width="0.50107098"
             id="rect1078"
             style="font-size:12px;fill-opacity:0.11931799;fill-rule:evenodd;stroke-width:1pt" />
          <rect
             transform="translate(-203.964,-203.7402)"
             y="373.02017"
             x="295.08868"
             height="0"
             width="0.50107098"
             id="rect1079"
             style="font-size:12px;fill-opacity:0.11931799;fill-rule:evenodd;stroke-width:1pt" />
          <rect
             transform="translate(-203.964,-203.7402)"
             y="565.91852"
             x="362.54007"
             height="0"
             width="0.50107098"
             id="rect1080"
             style="font-size:12px;fill-opacity:0.11931799;fill-rule:evenodd;stroke-width:1pt" />
          <rect
             transform="translate(-203.964,-203.7402)"
             y="567.17932"
             x="293.82788"
             height="0"
             width="0.50107098"
             id="rect1081"
             style="font-size:12px;fill-opacity:0.11931799;fill-rule:evenodd;stroke-width:1pt" />
          <rect
             transform="translate(-203.964,-203.7402)"
             y="373.02017"
             x="229.52846"
             height="0"
             width="0.50107098"
             id="rect1082"
             style="font-size:12px;fill-opacity:0.11931799;fill-rule:evenodd;stroke-width:1pt" />
          <path
             transform="matrix(0.18768,0,0,0.18768,-7.723323,-12.36507)"
             id="path1243"
             d="M 154.937,363.27 C 153.187,414.04 154.937,435.049 154.937,491.946 C 154.937,550.595 231.968,547.969 232.844,493.697 C 232.844,434.173 232.844,412.289 233.719,362.394 C 234.594,308.123 154.061,308.123 154.937,363.27 z "
             style="font-size:12px;fill-opacity:0.11931799;fill-rule:evenodd;stroke-width:4" />
        </g>
        <g
           style="font-size:12px"
           transform="matrix(0.18768,0,0,0.18768,-9.459263,-14.34883)"
           id="g968">
          <path
             transform="translate(-1.59847,-1.12663)"
             id="path970"
             d="M 154.937,363.27 C 153.187,414.04 154.937,435.049 154.937,491.946 C 154.937,550.595 231.968,547.969 232.844,493.697 C 232.844,434.173 232.844,412.289 233.719,362.394 C 234.594,308.123 154.061,308.123 154.937,363.27 z "
             style="fill:url(#linearGradient6101);fill-opacity:0.603659;fill-rule:evenodd;stroke:#000000;stroke-width:4;stroke-linecap:butt;stroke-linejoin:miter;stroke-dasharray:none;stroke-opacity:1" />
          <path
             transform="translate(0,-1.43051e-6)"
             id="path971"
             d="M 230.999,399.978 C 232.195,390.116 231.298,362.623 231.596,357.543 C 230.7,310.925 155.095,308.534 154.199,357.244 C 154.199,370.692 152.406,415.517 152.704,415.517 C 208.586,412.23 180.496,387.128 230.999,399.978 z "
             style="fill:url(#radialGradient6103);fill-opacity:1;fill-rule:evenodd;stroke:none;stroke-width:1pt;stroke-linecap:butt;stroke-linejoin:miter;stroke-opacity:1" />
          <g
             id="g972">
            <path
               transform="matrix(0.120136,0,0,0.120136,154.44,455.36)"
               d="M 551.78571 301.78571 A 233.03571 233.03571 0 1 1  85.714294,301.78571 A 233.03571 233.03571 0 1 1  551.78571 301.78571 z"
               id="path973"
               style="font-size:12px;fill:url(#radialGradient6105);fill-rule:evenodd;stroke:#0070ca;stroke-width:37" />
            <path
               transform="matrix(0.120136,0,0,0.120136,155.312,455.745)"
               id="path974"
               d="M 530.357,217.857 C 446.429,-15.1786 82.1432,33.0357 92.8571,327.679 C 366.964,335.714 237.499,232.144 530.357,217.857 z "
               style="font-size:12px;fill:url(#radialGradient6107);fill-opacity:0.5548782;fill-rule:evenodd;stroke-width:1pt" />
            <path
               transform="matrix(0.120136,0,0,0.120136,150.685,455.423)"
               id="path975"
               d="M 524.107,400 C 445.536,541.072 280.357,560.715 175.893,477.679 C 318.75,316.964 524.107,400.893 524.107,400 z "
               style="font-size:12px;fill:url(#radialGradient6109);fill-opacity:0.61568598;fill-rule:evenodd;stroke-width:1pt" />
            <g
               transform="translate(-1.75034,-1.43051e-6)"
               id="g976">
              <path
                 transform="matrix(0.120136,0,0,0.120136,156.19,325.808)"
                 d="M 551.78571 301.78571 A 233.03571 233.03571 0 1 1  85.714294,301.78571 A 233.03571 233.03571 0 1 1  551.78571 301.78571 z"
                 id="path977"
                 style="font-size:12px;fill:url(#radialGradient6111);fill-rule:evenodd;stroke:#0070ca;stroke-width:37" />
              <path
                 transform="matrix(0.120136,0,0,0.120136,155.743,326.193)"
                 id="path978"
                 d="M 530.357,217.857 C 446.429,-15.1786 82.1432,33.0357 92.8571,327.679 C 366.964,335.714 237.499,232.144 530.357,217.857 z "
                 style="font-size:12px;fill:url(#radialGradient6113);fill-opacity:0.5548782;fill-rule:evenodd;stroke-width:1pt" />
              <path
                 transform="matrix(0.120136,0,0,0.120136,154.654,325.872)"
                 id="path979"
                 d="M 524.107,400 C 445.536,541.072 280.357,560.715 175.893,477.679 C 318.75,316.964 524.107,400.893 524.107,400 z "
                 style="font-size:12px;fill:url(#radialGradient6115);fill-opacity:0.61568598;fill-rule:evenodd;stroke-width:1pt" />
              <rect
                 transform="matrix(0.559443,0,0,0.559443,50.4295,163.757)"
                 y="310.74899"
                 x="364.146"
                 height="0"
                 width="0.87536597"
                 id="rect980"
                 style="font-size:12px;fill:#808080;fill-rule:evenodd;stroke-width:1pt" />
            </g>
            <g
               transform="translate(-0.87536,0.875319)"
               id="g981">
              <rect
                 transform="matrix(0.559443,0,0,0.559443,47.8035,293.309)"
                 y="310.74899"
                 x="364.146"
                 height="0"
                 width="0.87536597"
                 id="rect982"
                 style="font-size:12px;fill:#808080;fill-rule:evenodd;stroke-width:1pt" />
              <path
                 transform="matrix(0.120136,0,0,0.120136,155.315,389.709)"
                 d="M 551.78571 301.78571 A 233.03571 233.03571 0 1 1  85.714294,301.78571 A 233.03571 233.03571 0 1 1  551.78571 301.78571 z"
                 id="path983"
                 style="font-size:12px;fill:url(#radialGradient6117);fill-rule:evenodd;stroke:#0070ca;stroke-width:37" />
              <path
                 transform="matrix(0.120136,0,0,0.120136,155.743,390.969)"
                 id="path984"
                 d="M 530.357,217.857 C 446.429,-15.1786 82.1432,33.0357 92.8571,327.679 C 366.964,335.714 237.499,232.144 530.357,217.857 z "
                 style="font-size:12px;fill:url(#radialGradient6119);fill-opacity:0.5548782;fill-rule:evenodd;stroke-width:1pt" />
              <path
                 transform="matrix(0.120136,0,0,0.120136,155.529,390.647)"
                 id="path985"
                 d="M 524.107,400 C 445.536,541.072 280.357,560.715 175.893,477.679 C 318.75,316.964 524.107,400.893 524.107,400 z "
                 style="font-size:12px;fill:url(#radialGradient6121);fill-opacity:0.61568598;fill-rule:evenodd;stroke-width:1pt" />
              <rect
                 transform="matrix(0.559443,0,0,0.559443,50.4295,228.533)"
                 y="310.74899"
                 x="364.146"
                 height="0"
                 width="0.87536597"
                 id="rect986"
                 style="font-size:12px;fill:#808080;fill-rule:evenodd;stroke-width:1pt" />
            </g>
          </g>
        </g>
      </g>
    </g>
  </g>
</svg>
