<svg width="60" xmlns="http://www.w3.org/2000/svg" height="60" viewBox="0 0 125.957 125.956" xmlns:xlink="http://www.w3.org/1999/xlink"><defs><linearGradient id="a" y1="21.801" x1="31.648" y2="60.47" gradientUnits="userSpaceOnUse" x2="54.54"><stop stop-color="#fff"/><stop offset="1" stop-color="#fff" stop-opacity="0"/></linearGradient><linearGradient id="b" xlink:href="#a" y1="167.23" y2="64.976" gradientUnits="userSpaceOnUse" x2="0"/><linearGradient id="c" xlink:href="#a" y1="26.375" x1="27" y2="73.76" gradientUnits="userSpaceOnUse" x2="73.71"/><linearGradient id="d" xlink:href="#a" y1="14.163" y2="77.27" gradientUnits="userSpaceOnUse" x2="0"/><linearGradient id="e" y1="181.13" y2="61.91" gradientUnits="userSpaceOnUse" x2="0"><stop stop-color="#eb9bb2"/><stop offset="1" stop-color="#cf2533"/></linearGradient><linearGradient id="f" y1="153.7" y2="41.6" gradientUnits="userSpaceOnUse" x2="0"><stop stop-color="#cf2533"/><stop offset="1" stop-color="#9f1a34"/></linearGradient><linearGradient xlink:href="#f" id="g" x1="34.547" x2="96.9" gradientUnits="userSpaceOnUse"/></defs><g transform="matrix(1.01213 0 0 1.01213-.764-.764)"><path fill="url(#f)" d="m125.2 62.35c.348 34.36-27.23 62.5-61.59 62.85-34.36.348-62.5-27.23-62.849-61.59-.348-34.36 27.23-62.5 61.59-62.848 34.36-.348 62.5 27.23 62.851 61.59"/><path fill="url(#e)" d="m118.61 62.41c.31 30.726-24.344 55.884-55.07 56.2-30.724.31-55.883-24.344-56.19-55.07-.31-30.724 24.345-55.884 55.07-56.19 30.726-.31 55.884 24.345 56.19 55.07"/><path fill="url(#d)" d="m63.45 11.879c-27.08.274-48.806 22.448-48.533 49.52.015 1.493.108 2.966.254 4.423 13.537 5.651 29.752 8.863 47.16 8.687 18.998-.192 36.499-4.39 50.59-11.324.042-.92.063-1.846.056-2.778-.274-27.08-22.446-48.805-49.52-48.532"/><path fill="url(#c)" d="m64.943 17.199c24.434-.247 45.01 16.809 50.08 39.753-3.02-26.324-25.501-46.642-52.58-46.37-28.936.292-52.16 23.989-51.864 52.924.148 14.65 6.3 27.825 16.09 37.23-7.371-8.715-11.864-19.951-11.989-32.26-.284-28.04 22.22-51 50.26-51.29"/><path opacity=".5" fill="url(#b)" d="m63.44 110.15c-26.13.265-47.683-19.937-49.45-45.671-.046.965-.074 1.934-.063 2.913.274 27.11 22.469 48.856 49.573 48.581 27.11-.274 48.854-22.467 48.58-49.574-.01-.977-.056-1.947-.123-2.911-1.247 25.764-22.389 46.4-48.51 46.661"/><path opacity=".6" fill="url(#a)" d="m53.04 30.436c-4.996-4.061-10.767-7.05-17.03-8.636-11.12 7.676-19.586 19.883-23.516 34.4 5.671-2.813 11.958-4.419 18.596-4.486 1.683-.017 3.341.074 4.977.254 4.088-8.647 9.924-16.03 16.973-21.532"/><path opacity=".2" fill="url(#g)" d="m42.803 32.542c-1.956.145-3.983 1.066-5.593 2.676-3.22 3.22-3.565 8.03-.789 10.808l17.67 17.67-17.67 17.67c-2.776 2.776-2.431 7.623.789 10.842 3.22 3.22 8.07 3.565 10.842.789l17.67-17.67 17.67 17.67c2.776 2.776 7.623 2.431 10.842-.789 3.22-3.22 3.565-8.07.789-10.842l-17.67-17.67 17.67-17.67c2.776-2.776 2.431-7.588-.789-10.808-3.22-3.22-8.07-3.6-10.842-.823l-17.67 17.67-17.67-17.67c-1.388-1.388-3.293-1.997-5.25-1.853"/><path fill="#fff" d="m40.607 30.346c-1.956.145-3.983 1.066-5.593 2.676-3.22 3.22-3.565 8.03-.789 10.808l17.67 17.67-17.67 17.67c-2.776 2.776-2.431 7.623.789 10.842 3.22 3.22 8.07 3.565 10.842.789l17.67-17.67 17.67 17.67c2.776 2.776 7.623 2.431 10.842-.789 3.22-3.22 3.565-8.07.789-10.842l-17.67-17.67 17.67-17.67c2.776-2.776 2.431-7.588-.789-10.808-3.22-3.22-8.07-3.6-10.842-.823l-17.67 17.67-17.67-17.67c-1.388-1.388-3.293-1.997-5.25-1.853"/></g></svg>