<svg xmlns="http://www.w3.org/2000/svg" viewBox="0 0 52.855 47.928" xmlns:xlink="http://www.w3.org/1999/xlink"><defs><radialGradient cx="245.92" cy="205" id="a" r="293.14" gradientUnits="userSpaceOnUse"><stop stop-color="#fff"/><stop offset="1" stop-color="#008dcf"/></radialGradient><radialGradient cx="245.25" cy="135.33" id="b" r="287.97" gradientUnits="userSpaceOnUse" gradientTransform="scale(1.30342.76722)"><stop stop-color="#fff"/><stop offset="1" stop-color="#fff" stop-opacity="0"/></radialGradient><radialGradient cx="226.25" cy="791.98" id="c" r="149.54" gradientUnits="userSpaceOnUse" gradientTransform="scale(1.53397.6519)"><stop stop-color="#fff" stop-opacity=".471"/><stop offset="1" stop-color="#fff" stop-opacity="0"/></radialGradient><linearGradient id="d" y1="655.96" x1="-36.776" y2="679.4" gradientUnits="userSpaceOnUse" x2="-37.18" gradientTransform="scale(1.69667.58939)"><stop stop-color="#002700"/><stop offset="1" stop-color="#0f0"/></linearGradient><linearGradient id="e" y1="871.06" x1="51.844" y2="914.35" gradientUnits="userSpaceOnUse" x2="112.77" gradientTransform="scale(2.57564.38825)"><stop stop-color="#ffd200"/><stop offset="1" stop-color="#fff"/></linearGradient><linearGradient id="f" y1="380.82" x1="119.41" y2="436.98" gradientUnits="userSpaceOnUse" x2="104.77" gradientTransform="scale(1.04065.96094)"><stop/><stop offset="1" stop-color="#fff"/></linearGradient><path fill-rule="evenodd" fill-opacity=".125" id="g" d="M551.78571 301.78571A233.03571 233.03571 0 1 1 85.71429 301.78571 233.03571 233.03571 0 1 1 551.78571 301.78571"/><path fill-rule="evenodd" id="h" d="m-75.13 386h26.07v8.419h-26.07z"/><path fill-rule="evenodd" id="i" d="m78.03 325.87c1.445.723 205.96-11.901 300.55 42.31-101.74-35.23-300.55-22.799-300.55-22.08 0 .723 0-18.786 0-20.231"/><path fill-rule="evenodd" id="j" d="m107.49 372.04c17.16 41.13 56.27 16.906 25.864-9.336-4.794-2.271-3.406-2.271-5.425-2.776 19.808 29.02-8.58 35.579-14 14.509-.379-.252-6.813-2.523-6.435-2.397"/></defs><g transform="translate(-21.522-354.81)"><use xlink:href="#g" transform="matrix(.09438 0 0 .09438 16.624 351.13)"/><use xlink:href="#g" transform="matrix(.09438 0 0 .09438 17.636 352.26)"/><g fill-rule="evenodd"><path fill="url(#a)" stroke="#0042f7" stroke-width="27.859" d="M551.78571 301.78571A233.03571 233.03571 0 1 1 85.71429 301.78571 233.03571 233.03571 0 1 1 551.78571 301.78571z" transform="matrix(.09438 0 0 .09438 14.746 349.64)"/><g stroke-width="1.25"><path fill="url(#b)" fill-opacity=".555" d="m530.36 217.86c-83.928-233.04-448.21-184.82-437.5 109.82 274.11 8.04 144.64-95.53 437.5-109.82" transform="matrix(.09971 0 0 .09971 12.735 348.88)"/><path fill="url(#c)" fill-opacity=".616" d="m524.11 400c-78.57 141.07-243.75 160.72-348.21 77.68 142.86-160.71 348.21-76.79 348.21-77.68" transform="matrix(.09438 0 0 .09438 14.46 350.62)"/></g></g><g transform="translate(16.915 48.586)"><g fill="#404040" fill-opacity=".125"><g transform="matrix(-.40815 0 0 .40815 181.94 113)"><use xlink:href="#h" transform="matrix(-.98287-.46114.46114-.98287 159.54 901.58)"/><use xlink:href="#i" transform="matrix(-.28074-.13414.04188-.47737 396.74 712.31)"/><use xlink:href="#j" transform="matrix(-.6616-.86079.86079-.6616 161.8 902.27)"/></g><g transform="matrix(-.40815 0 0 .40815 182.3 113.72)"><use xlink:href="#h" transform="matrix(-.98287-.46114.46114-.98287 159.54 901.58)"/><use xlink:href="#i" transform="matrix(-.28074-.13414.04188-.47737 396.74 712.31)"/><use xlink:href="#j" transform="matrix(-.6616-.86079.86079-.6616 161.8 902.27)"/></g></g><g stroke-linejoin="round"><use fill="url(#d)" stroke="#003f00" xlink:href="#h" stroke-width=".977" transform="matrix(.40116-.18821-.18821-.40116 116.2 480.44)"/><g fill-rule="evenodd"><path fill="url(#e)" stroke="#ffab00" stroke-width="2.6" d="m78.03 325.87c1.445.723 205.96-11.901 300.55 42.31-101.74-35.23-300.55-22.799-300.55-22.08 0 .723 0-18.786 0-20.231z" transform="matrix(.11458-.05475-.01709-.19484 19.39 403.19)"/><path fill="url(#f)" stroke="#5b5c59" stroke-width="1.25" d="m107.49 372.04c17.16 41.13 56.27 16.906 25.864-9.336-4.794-2.271-3.406-2.271-5.425-2.776 19.808 29.02-8.58 35.579-14 14.509-.379-.252-6.813-2.523-6.435-2.397z" transform="matrix(.27003-.35133-.35133-.27003 115.28 480.72)"/></g></g></g></g></svg>