<?xml version="1.0" encoding="UTF-8" standalone="no"?>
<svg
   xmlns:dc="http://purl.org/dc/elements/1.1/"
   xmlns:cc="http://creativecommons.org/ns#"
   xmlns:rdf="http://www.w3.org/1999/02/22-rdf-syntax-ns#"
   xmlns:svg="http://www.w3.org/2000/svg"
   xmlns="http://www.w3.org/2000/svg"
   xmlns:xlink="http://www.w3.org/1999/xlink"
   width="50.57708"
   height="53.07132"
   id="svg5558"
   version="1.0">
  <defs
     id="defs5560">
    <radialGradient
       xlink:href="#linearGradient165"
       id="radialGradient1562"
       cx="208.36278"
       cy="677.94543"
       fx="208.36278"
       fy="677.94543"
       r="61.218826"
       gradientUnits="userSpaceOnUse"
       spreadMethod="pad"
       gradientTransform="scale(1.2669055,0.7893248)" />
    <linearGradient
       xlink:href="#linearGradient1556"
       id="linearGradient1555"
       x1="199.4846"
       y1="688.90668"
       x2="161.60187"
       y2="803.39813"
       gradientUnits="userSpaceOnUse"
       spreadMethod="pad"
       gradientTransform="scale(1.2512905,0.799175)" />
    <radialGradient
       xlink:href="#linearGradient165"
       id="radialGradient1564"
       cx="163.84325"
       cy="800.21021"
       fx="163.84325"
       fy="800.21021"
       r="62.976128"
       gradientUnits="userSpaceOnUse"
       spreadMethod="pad"
       gradientTransform="scale(1.2669055,0.7893248)" />
    <linearGradient
       id="linearGradient1556">
      <stop
         style="stop-color:#00ff00;stop-opacity:1;"
         offset="0.000000"
         id="stop1557" />
      <stop
         style="stop-color:#006e00;stop-opacity:1;"
         offset="1.000000"
         id="stop1558" />
    </linearGradient>
    <linearGradient
       xlink:href="#linearGradient1556"
       id="linearGradient1559"
       x1="190.34039"
       y1="760.11536"
       x2="264.3649"
       y2="662.3786"
       gradientUnits="userSpaceOnUse"
       spreadMethod="pad"
       gradientTransform="scale(1.2512905,0.799175)" />
    <radialGradient
       xlink:href="#linearGradient165"
       id="radialGradient561"
       cx="108.16048"
       cy="767.94165"
       fx="108.16048"
       fy="767.94165"
       r="64.650307"
       gradientUnits="userSpaceOnUse"
       spreadMethod="pad"
       gradientTransform="scale(1.6473632,0.6070307)" />
    <linearGradient
       id="linearGradient562">
      <stop
         style="stop-color:#ffffff;stop-opacity:0.74902;"
         offset="0.000000"
         id="stop563" />
      <stop
         style="stop-color:#857f7c;stop-opacity:0.647059;"
         offset="1.000000"
         id="stop564" />
    </linearGradient>
    <linearGradient
       xlink:href="#linearGradient562"
       id="linearGradient111"
       x1="280.72653"
       y1="293.3114"
       x2="245.47189"
       y2="462.96219"
       gradientUnits="userSpaceOnUse"
       spreadMethod="pad"
       gradientTransform="scale(1.1230393,0.8904408)" />
    <linearGradient
       id="linearGradient1290">
      <stop
         style="stop-color:#00a114;stop-opacity:1;"
         offset="0.000000"
         id="stop1291" />
      <stop
         style="stop-color:#0eeb6e;stop-opacity:1;"
         offset="1.000000"
         id="stop1292" />
    </linearGradient>
    <linearGradient
       xlink:href="#linearGradient1290"
       id="linearGradient1293"
       x1="428.36154"
       y1="237.52702"
       x2="464.26782"
       y2="485.44684"
       gradientUnits="userSpaceOnUse"
       spreadMethod="pad"
       gradientTransform="scale(0.9620497,1.0394474)" />
    <linearGradient
       xlink:href="#linearGradient186"
       id="linearGradient191"
       gradientTransform="scale(0.4664308,2.1439406)"
       x1="587.66913"
       y1="34.640858"
       x2="634.46252"
       y2="34.640858"
       gradientUnits="userSpaceOnUse" />
    <linearGradient
       xlink:href="#linearGradient186"
       id="linearGradient185"
       gradientTransform="scale(2.176942,0.45936)"
       x1="76.066315"
       y1="302.43069"
       x2="121.14448"
       y2="302.43069"
       gradientUnits="userSpaceOnUse" />
    <linearGradient
       id="linearGradient186">
      <stop
         style="stop-color:#ffd800;stop-opacity:0.945098;"
         offset="0.000000"
         id="stop187" />
      <stop
         style="stop-color:#ffff00;stop-opacity:0;"
         offset="1.000000"
         id="stop188" />
    </linearGradient>
    <linearGradient
       xlink:href="#linearGradient186"
       id="linearGradient184"
       x1="481.63028"
       y1="205.11223"
       x2="331.17175"
       y2="100.25422"
       gradientUnits="userSpaceOnUse"
       spreadMethod="pad"
       gradientTransform="scale(0.7605544,1.3148304)" />
    <linearGradient
       xlink:href="#linearGradient165"
       id="linearGradient182"
       x1="588.72461"
       y1="104.07272"
       x2="743.79462"
       y2="83.097183"
       gradientUnits="userSpaceOnUse"
       spreadMethod="pad"
       gradientTransform="scale(0.3922365,2.5494824)" />
    <linearGradient
       xlink:href="#linearGradient165"
       id="linearGradient180"
       gradientTransform="scale(2.1400429,0.4672804)"
       x1="132.33977"
       y1="247.66638"
       x2="178.9852"
       y2="247.66638"
       gradientUnits="userSpaceOnUse" />
    <linearGradient
       xlink:href="#linearGradient165"
       id="linearGradient171"
       x1="218.21011"
       y1="74.100601"
       x2="237.86662"
       y2="137.24713"
       gradientUnits="userSpaceOnUse"
       spreadMethod="pad"
       gradientTransform="scale(1.0603743,0.9430632)" />
    <linearGradient
       id="linearGradient357">
      <stop
         style="stop-color:#ffff00;stop-opacity:0.854902;"
         offset="0.000000"
         id="stop358" />
      <stop
         style="stop-color:#ffffc8;stop-opacity:0.513725;"
         offset="1.000000"
         id="stop359" />
    </linearGradient>
    <linearGradient
       xlink:href="#linearGradient357"
       id="linearGradient356"
       x1="339.61816"
       y1="112.62084"
       x2="310.79825"
       y2="322.09476"
       gradientUnits="userSpaceOnUse"
       spreadMethod="pad"
       gradientTransform="scale(0.8669845,1.1534231)" />
    <linearGradient
       xlink:href="#linearGradient165"
       id="linearGradient159"
       x1="293.82791"
       y1="160.71729"
       x2="401.17664"
       y2="114.58482"
       gradientUnits="userSpaceOnUse"
       spreadMethod="pad"
       gradientTransform="scale(0.5677477,1.7613457)" />
    <linearGradient
       id="linearGradient165">
      <stop
         style="stop-color:#ffffff;stop-opacity:0.945098;"
         offset="0.000000"
         id="stop166" />
      <stop
         style="stop-color:#ffffff;stop-opacity:0;"
         offset="1.000000"
         id="stop167" />
    </linearGradient>
    <radialGradient
       xlink:href="#linearGradient165"
       id="radialGradient164"
       cx="301.42603"
       cy="156.29366"
       fx="301.42603"
       fy="156.29366"
       r="192.46465"
       gradientUnits="userSpaceOnUse"
       spreadMethod="pad"
       gradientTransform="scale(1.2940833,0.7727478)" />
    <linearGradient
       id="linearGradient160">
      <stop
         style="stop-color:#ffffff;stop-opacity:1;"
         offset="0.000000"
         id="stop161" />
      <stop
         style="stop-color:#ffff00;stop-opacity:1;"
         offset="1.000000"
         id="stop162" />
    </linearGradient>
    <radialGradient
       xlink:href="#linearGradient160"
       id="radialGradient118"
       cx="236.02818"
       cy="192.58218"
       fx="236.02818"
       fy="192.58218"
       r="198.18884"
       gradientUnits="userSpaceOnUse"
       spreadMethod="pad"
       gradientTransform="scale(1.8229713,0.548555)" />
    <linearGradient
       id="linearGradient156">
      <stop
         style="stop-color:#0015a1;stop-opacity:1;"
         offset="0.000000"
         id="stop157" />
      <stop
         style="stop-color:#0e6eea;stop-opacity:1;"
         offset="1.000000"
         id="stop158" />
    </linearGradient>
    <linearGradient
       xlink:href="#linearGradient156"
       id="linearGradient155"
       x1="428.36154"
       y1="237.52698"
       x2="464.26782"
       y2="485.44678"
       gradientUnits="userSpaceOnUse"
       spreadMethod="pad"
       gradientTransform="scale(0.9620497,1.0394474)" />
    <radialGradient
       xlink:href="#linearGradient160"
       id="radialGradient5645"
       gradientUnits="userSpaceOnUse"
       spreadMethod="pad"
       cx="236.02818"
       cy="192.58218"
       fx="236.02818"
       fy="192.58218"
       r="198.18884"
       gradientTransform="scale(1.8229713,0.548555)" />
    <radialGradient
       xlink:href="#linearGradient165"
       id="radialGradient5647"
       gradientUnits="userSpaceOnUse"
       spreadMethod="pad"
       cx="301.42603"
       cy="156.29366"
       fx="301.42603"
       fy="156.29366"
       r="192.46465"
       gradientTransform="scale(1.2940833,0.7727478)" />
    <linearGradient
       xlink:href="#linearGradient165"
       id="linearGradient5649"
       gradientUnits="userSpaceOnUse"
       spreadMethod="pad"
       x1="293.82791"
       y1="160.71729"
       x2="401.17664"
       y2="114.58482"
       gradientTransform="scale(0.5677477,1.7613457)" />
    <linearGradient
       xlink:href="#linearGradient156"
       id="linearGradient5724"
       gradientUnits="userSpaceOnUse"
       gradientTransform="scale(0.9620497,1.0394474)"
       spreadMethod="pad"
       x1="428.36154"
       y1="237.52698"
       x2="464.26782"
       y2="485.44678" />
    <radialGradient
       xlink:href="#linearGradient160"
       id="radialGradient5726"
       gradientUnits="userSpaceOnUse"
       gradientTransform="scale(1.8229713,0.548555)"
       spreadMethod="pad"
       cx="236.02818"
       cy="192.58218"
       fx="236.02818"
       fy="192.58218"
       r="198.18884" />
    <radialGradient
       xlink:href="#linearGradient165"
       id="radialGradient5728"
       gradientUnits="userSpaceOnUse"
       gradientTransform="scale(1.2940833,0.7727478)"
       spreadMethod="pad"
       cx="301.42603"
       cy="156.29366"
       fx="301.42603"
       fy="156.29366"
       r="192.46465" />
    <linearGradient
       xlink:href="#linearGradient165"
       id="linearGradient5730"
       gradientUnits="userSpaceOnUse"
       gradientTransform="scale(0.5677477,1.7613457)"
       spreadMethod="pad"
       x1="293.82791"
       y1="160.71729"
       x2="401.17664"
       y2="114.58482" />
    <linearGradient
       xlink:href="#linearGradient357"
       id="linearGradient5732"
       gradientUnits="userSpaceOnUse"
       gradientTransform="scale(0.8669845,1.1534231)"
       spreadMethod="pad"
       x1="339.61816"
       y1="112.62084"
       x2="310.79825"
       y2="322.09476" />
    <linearGradient
       xlink:href="#linearGradient165"
       id="linearGradient5734"
       gradientUnits="userSpaceOnUse"
       gradientTransform="scale(1.0603743,0.9430632)"
       spreadMethod="pad"
       x1="218.21011"
       y1="74.100601"
       x2="237.86662"
       y2="137.24713" />
    <linearGradient
       xlink:href="#linearGradient165"
       id="linearGradient5736"
       gradientUnits="userSpaceOnUse"
       gradientTransform="scale(2.1400429,0.4672804)"
       x1="132.33977"
       y1="247.66638"
       x2="178.9852"
       y2="247.66638" />
    <linearGradient
       xlink:href="#linearGradient165"
       id="linearGradient5738"
       gradientUnits="userSpaceOnUse"
       gradientTransform="scale(0.3922365,2.5494824)"
       spreadMethod="pad"
       x1="588.72461"
       y1="104.07272"
       x2="743.79462"
       y2="83.097183" />
    <linearGradient
       xlink:href="#linearGradient186"
       id="linearGradient5740"
       gradientUnits="userSpaceOnUse"
       gradientTransform="scale(0.7605544,1.3148304)"
       spreadMethod="pad"
       x1="481.63028"
       y1="205.11223"
       x2="331.17175"
       y2="100.25422" />
    <linearGradient
       xlink:href="#linearGradient186"
       id="linearGradient5742"
       gradientUnits="userSpaceOnUse"
       gradientTransform="scale(2.176942,0.45936)"
       x1="76.066315"
       y1="302.43069"
       x2="121.14448"
       y2="302.43069" />
    <linearGradient
       xlink:href="#linearGradient186"
       id="linearGradient5744"
       gradientUnits="userSpaceOnUse"
       gradientTransform="scale(0.4664308,2.1439406)"
       x1="587.66913"
       y1="34.640858"
       x2="634.46252"
       y2="34.640858" />
    <linearGradient
       xlink:href="#linearGradient1290"
       id="linearGradient5746"
       gradientUnits="userSpaceOnUse"
       gradientTransform="scale(0.9620497,1.0394474)"
       spreadMethod="pad"
       x1="428.36154"
       y1="237.52702"
       x2="464.26782"
       y2="485.44684" />
    <radialGradient
       xlink:href="#linearGradient160"
       id="radialGradient5748"
       gradientUnits="userSpaceOnUse"
       gradientTransform="scale(1.8229713,0.548555)"
       spreadMethod="pad"
       cx="236.02818"
       cy="192.58218"
       fx="236.02818"
       fy="192.58218"
       r="198.18884" />
    <radialGradient
       xlink:href="#linearGradient165"
       id="radialGradient5750"
       gradientUnits="userSpaceOnUse"
       gradientTransform="scale(1.2940833,0.7727478)"
       spreadMethod="pad"
       cx="301.42603"
       cy="156.29366"
       fx="301.42603"
       fy="156.29366"
       r="192.46465" />
    <linearGradient
       xlink:href="#linearGradient165"
       id="linearGradient5752"
       gradientUnits="userSpaceOnUse"
       gradientTransform="scale(0.5677477,1.7613457)"
       spreadMethod="pad"
       x1="293.82791"
       y1="160.71729"
       x2="401.17664"
       y2="114.58482" />
    <linearGradient
       xlink:href="#linearGradient562"
       id="linearGradient5754"
       gradientUnits="userSpaceOnUse"
       gradientTransform="scale(1.1230393,0.8904408)"
       spreadMethod="pad"
       x1="280.72653"
       y1="293.3114"
       x2="245.47189"
       y2="462.96219" />
    <radialGradient
       xlink:href="#linearGradient165"
       id="radialGradient5756"
       gradientUnits="userSpaceOnUse"
       gradientTransform="scale(1.6473632,0.6070307)"
       spreadMethod="pad"
       cx="108.16048"
       cy="767.94165"
       fx="108.16048"
       fy="767.94165"
       r="64.650307" />
    <linearGradient
       xlink:href="#linearGradient1556"
       id="linearGradient5758"
       gradientUnits="userSpaceOnUse"
       gradientTransform="scale(1.2512905,0.799175)"
       spreadMethod="pad"
       x1="190.34039"
       y1="760.11536"
       x2="264.3649"
       y2="662.3786" />
    <radialGradient
       xlink:href="#linearGradient165"
       id="radialGradient5760"
       gradientUnits="userSpaceOnUse"
       gradientTransform="scale(1.2669055,0.7893248)"
       spreadMethod="pad"
       cx="163.84325"
       cy="800.21021"
       fx="163.84325"
       fy="800.21021"
       r="62.976128" />
    <linearGradient
       xlink:href="#linearGradient1556"
       id="linearGradient5762"
       gradientUnits="userSpaceOnUse"
       gradientTransform="scale(1.2512905,0.799175)"
       spreadMethod="pad"
       x1="199.4846"
       y1="688.90668"
       x2="161.60187"
       y2="803.39813" />
    <radialGradient
       xlink:href="#linearGradient165"
       id="radialGradient5764"
       gradientUnits="userSpaceOnUse"
       gradientTransform="scale(1.2669055,0.7893248)"
       spreadMethod="pad"
       cx="208.36278"
       cy="677.94543"
       fx="208.36278"
       fy="677.94543"
       r="61.218826" />
  </defs>
  <metadata
     id="metadata5563">
    <rdf:RDF>
      <cc:Work
         rdf:about="">
        <dc:format>image/svg+xml</dc:format>
        <dc:type
           rdf:resource="http://purl.org/dc/dcmitype/StillImage" />
        <dc:description>BibleTime icon &quot;sync works&quot;.
Licence:
http://creativecommons.org/licenses/by-sa/2.5/ (or any later version)
http://www.gnu.org/licenses/old-licenses/lgpl-2.1.html (or any later version)</dc:description>
        <dc:creator>
          <cc:Agent>
            <dc:title>James Ots</dc:title>
          </cc:Agent>
        </dc:creator>
      </cc:Work>
    </rdf:RDF>
  </metadata>
  <g
     id="layer1"
     transform="translate(-169.02154,-325.68521)">
    <g
       id="g5687">
      <g
         id="g1040"
         transform="matrix(1.203955,0,0,1.203955,-403.42104,-151.13992)">
        <g
           id="g942"
           transform="matrix(0.628752,0,0,0.628752,292.8269,178.3601)"
           style="font-size:12px">
          <g
             id="g943"
             transform="matrix(0.226616,0,0,0.226616,254.0524,324.7195)"
             style="font-size:12px">
            <path
               style="fill:url(#linearGradient5724);fill-opacity:1;fill-rule:evenodd;stroke:#0012ab;stroke-width:16.54360008;stroke-linecap:butt;stroke-linejoin:round;stroke-dasharray:none;stroke-opacity:1"
               d="M 460.715,99.1068 C 459.822,98.214 191.964,159.821 191.071,160.714 C 156.251,172.322 206.251,218.75 256.249,205.357 C 266.071,202.678 525,143.75 525,143.75 C 525,143.75 579.465,460.714 578.572,460.714 C 577.679,460.714 300.893,531.25 300.893,531.25 C 233.929,541.964 225.893,486.607 224.108,477.678 C 223.215,475 178.571,174.106 178.572,172.321 C 180.357,163.393 461.607,99.9997 460.715,99.1068 z "
               id="path944"
               transform="matrix(0.473229,0,0,0.530179,94.959,46.4969)" />
            <path
               style="fill:url(#radialGradient5726);fill-opacity:1;fill-rule:evenodd;stroke:none;stroke-width:1pt;stroke-linecap:butt;stroke-linejoin:miter;stroke-opacity:1"
               d="M 460.715,99.9997 C 461.607,100.893 520.536,136.607 519.643,136.607 C 518.75,136.607 259.821,197.321 253.571,198.214 C 206.25,209.821 181.25,172.321 186.607,167.857 C 196.429,166.071 461.607,99.9997 460.715,99.9997 z "
               id="path945"
               transform="matrix(0.473229,0,0,0.530179,94.5089,45.8857)" />
            <path
               style="fill:url(#radialGradient5728);fill-opacity:1;fill-rule:evenodd;stroke:none;stroke-width:1pt;stroke-linecap:butt;stroke-linejoin:miter;stroke-opacity:1"
               d="M 447.322,136.607 C 447.322,137.5 458.685,183.6 461.608,203.166 C 301.874,207.7 378.099,292.863 207.791,302.42 C 200.649,261.348 183.929,163.393 183.929,165.178 C 183.929,166.964 204.465,182.143 221.429,184.821 C 268.751,176.785 448.215,138.393 447.322,136.607 z "
               id="path946"
               transform="matrix(0.610964,0,0,0.684486,69.8172,30.3121)" />
            <path
               style="fill:url(#linearGradient5730);fill-opacity:1;fill-rule:evenodd;stroke:none;stroke-width:1pt;stroke-linecap:butt;stroke-linejoin:miter;stroke-opacity:1"
               d="M 183.929,166.071 C 183.929,166.071 215.179,400.893 215.179,400.893 C 215.179,400.893 224.108,443.749 270.536,433.036 C 267.857,426.786 239.286,181.25 238.393,181.25 C 201.786,192.857 185.714,166.071 183.929,166.071 z "
               id="path947"
               transform="matrix(0.681684,0,0,0.681684,57.1263,31.4825)" />
          </g>
          <g
             id="g948"
             transform="matrix(0.285025,1.188954e-2,-6.476187e-3,0.284631,239.7883,280.0725)"
             style="font-size:12px">
            <path
               style="font-size:12px;fill:url(#linearGradient5732);fill-opacity:0.53658495;fill-rule:evenodd;stroke:#febf00;stroke-width:5.875;stroke-linecap:round;stroke-linejoin:round;stroke-opacity:0.81707297"
               d="M 258.036,112.5 C 258.036,132.143 258.929,177.679 258.929,178.572 C 258.929,179.464 202.643,182.45 190.143,184.236 C 162.895,186.622 166.602,225.185 190.143,220.843 C 209.786,219.95 258.036,215.178 258.929,215.178 C 259.822,215.178 259.821,338.392 260.714,353.571 C 259.822,384.821 300.893,385.714 300.893,355.357 C 300.893,331.25 300.893,226.785 300.893,216.964 C 312.5,216.964 338.995,212.592 366.331,210.304 C 390.765,202.389 391.862,168.272 364.313,171.318 C 346.224,172.511 302.679,175.893 301.786,177.678 C 300.893,179.464 300.893,111.607 300,111.607 C 300,83.0355 258.036,85.7143 258.036,112.5 z "
               id="path949"
               transform="matrix(0.321131,-7.24356e-2,5.36828e-2,0.317997,186.839,258.437)" />
            <path
               style="font-size:12px;fill:url(#linearGradient5734);fill-opacity:0.76829301;fill-rule:evenodd;stroke-width:1pt"
               d="M 296.518,38.7381 C 286.052,33.1068 278.639,36.7638 271.063,44.6139 C 270.17,55.3283 274.85,130.269 275.743,133.84 C 276.636,137.412 266.618,121.182 266.618,121.182 C 266.618,121.182 262.438,126.91 257.974,125.123 C 253.509,123.337 189.286,120.535 182.143,123.214 C 175,125.893 170.536,129.464 169.643,133.928 C 168.75,138.393 165.179,119.643 176.786,116.071 C 188.393,112.5 254.854,108.649 253.962,108.649 C 253.07,108.649 256.06,38.3477 256.953,32.0976 C 257.846,25.8476 287.28,6.65699 296.518,38.7381 z "
               id="path950"
               transform="matrix(0.317797,-7.16837e-2,5.31257e-2,0.314696,192.799,280.673)" />
            <path
               style="font-size:12px;fill:url(#linearGradient5736);fill-rule:evenodd;stroke-width:1pt"
               d="M 299.107,109.821 C 297.322,114.285 313.614,118.812 283.371,126.326 C 278.907,128.111 370.326,121.283 378.361,123.962 C 386.397,126.64 381.094,121.228 383.036,124.107 C 379.854,114.732 379.118,106.897 368.404,105.111 C 357.69,103.325 300,110.714 299.107,109.821 z "
               id="path951"
               transform="matrix(0.317797,-7.16837e-2,5.31257e-2,0.314696,192.779,279.183)" />
            <path
               style="font-size:12px;fill:url(#linearGradient5738);fill-rule:evenodd;stroke-width:1pt"
               d="M 272.94,137.252 C 264.471,155.852 254.464,150 254.464,150.893 C 254.464,151.785 256.25,284.821 258.036,292.857 C 259.822,300.893 265.426,312.747 278.359,308.805 C 284.609,310.591 278.881,311.545 278.881,311.545 C 278.881,311.545 271.924,304.464 271.031,288.393 C 270.138,272.321 272.047,139.038 272.94,137.252 z "
               id="path952"
               transform="matrix(0.317797,-7.16837e-2,5.31257e-2,0.314696,192.718,279.279)" />
            <path
               style="font-size:12px;fill:url(#linearGradient5740);fill-opacity:0.53725496;fill-rule:evenodd;stroke-width:1pt"
               d="M 271.429,312.5 C 291.072,309.821 294.643,306.25 295.536,290.178 C 296.429,274.107 296.429,149.107 297.322,150 C 298.214,150.893 359.822,153.571 368.75,148.214 C 377.679,142.857 383.036,141.071 382.143,130.357 C 381.25,119.643 379.465,120.535 380.357,121.428 C 381.25,122.321 376.786,137.5 367.857,138.393 C 358.929,139.285 303.572,145.535 295.536,142.857 C 287.5,140.178 286.607,135.714 287.5,137.5 C 288.393,139.285 289.286,142.857 289.286,150.893 C 289.286,158.928 290.179,284.821 288.393,290.178 C 286.607,295.536 289.286,305.357 271.429,312.5 z "
               id="path953"
               transform="matrix(0.317797,-7.16837e-2,5.31257e-2,0.314696,191.249,278.594)" />
            <path
               style="font-size:12px;fill:url(#linearGradient5742);fill-rule:evenodd;stroke-width:1pt"
               d="M 166.072,128.571 C 166.964,144.643 172.322,147.321 179.464,148.214 C 186.607,149.107 252.679,148.214 253.572,149.107 C 254.464,150 261.607,147.321 263.393,142.857 C 265.179,138.393 259.822,142.857 245.536,141.964 C 231.25,141.071 193.75,144.643 183.036,141.071 C 172.322,137.5 163.393,129.464 166.072,128.571 z "
               id="path954"
               transform="matrix(0.317797,-7.16837e-2,5.31257e-2,0.314696,192.332,281.177)" />
            <path
               style="font-size:12px;fill:url(#linearGradient5744);fill-rule:evenodd;stroke-width:1pt"
               d="M 274.107,24.1068 C 296.429,27.6782 295.536,41.9639 295.536,47.3211 C 295.536,52.6782 296.429,104.464 295.536,108.928 C 294.643,113.393 296.429,116.964 291.072,120.535 C 285.714,124.107 284.822,125 284.822,124.107 C 284.822,123.214 288.393,119.642 288.393,108.928 C 288.393,98.214 291.072,45.5354 288.393,38.3925 C 285.714,31.2496 275.893,24.9997 274.107,24.1068 z "
               id="path955"
               transform="matrix(0.317797,-7.16837e-2,5.31257e-2,0.314696,192.769,279.58)" />
          </g>
          <rect
             style="font-size:12px;fill:#808080;fill-rule:evenodd;stroke-width:1pt"
             id="rect956"
             width="0.50107098"
             height="0"
             x="361.2793"
             y="372.38977"
             transform="translate(64.7935,-61.92985)" />
          <rect
             style="font-size:12px;fill:#808080;fill-rule:evenodd;stroke-width:1pt"
             id="rect957"
             width="0.50107098"
             height="0"
             x="295.08868"
             y="373.02017"
             transform="translate(64.7935,-61.92985)" />
          <rect
             style="font-size:12px;fill:#808080;fill-rule:evenodd;stroke-width:1pt"
             id="rect958"
             width="0.50107098"
             height="0"
             x="362.54007"
             y="565.91852"
             transform="translate(64.7935,-61.92985)" />
          <rect
             style="font-size:12px;fill:#808080;fill-rule:evenodd;stroke-width:1pt"
             id="rect959"
             width="0.50107098"
             height="0"
             x="293.82788"
             y="567.17932"
             transform="translate(64.7935,-61.92985)" />
          <rect
             style="font-size:12px;fill:#808080;fill-rule:evenodd;stroke-width:1pt"
             id="rect960"
             width="0.50107098"
             height="0"
             x="229.52846"
             y="373.02017"
             transform="translate(64.7935,-61.92985)" />
        </g>
        <g
           id="g961"
           transform="matrix(0.611908,0,0,0.642616,469.5223,230.397)"
           style="font-size:12px">
          <g
             id="g962"
             transform="translate(-2.170988,-64.59503)">
            <path
               style="font-size:12px;fill:url(#linearGradient5746);fill-rule:evenodd;stroke:#00ab11;stroke-width:16.54360008;stroke-linejoin:round;stroke-opacity:1"
               d="M 460.715,99.1068 C 459.822,98.214 191.964,159.821 191.071,160.714 C 156.251,172.322 206.251,218.75 256.249,205.357 C 266.071,202.678 525,143.75 525,143.75 C 525,143.75 579.465,460.714 578.572,460.714 C 577.679,460.714 300.893,531.25 300.893,531.25 C 233.929,541.964 225.893,486.607 224.108,477.678 C 223.215,475 178.571,174.106 178.572,172.321 C 180.357,163.393 461.607,99.9997 460.715,99.1068 z "
               id="path963"
               transform="matrix(0.107241,0,0,0.120147,13.44508,326.0595)" />
            <path
               style="font-size:12px;fill:url(#radialGradient5748);fill-rule:evenodd;stroke-width:1pt"
               d="M 460.715,99.9997 C 461.607,100.893 520.536,136.607 519.643,136.607 C 518.75,136.607 259.821,197.321 253.571,198.214 C 206.25,209.821 181.25,172.321 186.607,167.857 C 196.429,166.071 461.607,99.9997 460.715,99.9997 z "
               id="path964"
               transform="matrix(0.107241,0,0,0.120147,13.34308,325.9211)" />
            <path
               style="font-size:12px;fill:url(#radialGradient5750);fill-rule:evenodd;stroke-width:1pt"
               d="M 447.322,136.607 C 447.322,137.5 458.685,183.6 461.608,203.166 C 301.874,207.7 378.099,292.863 207.791,302.42 C 200.649,261.348 183.929,163.393 183.929,165.178 C 183.929,166.964 204.465,182.143 221.429,184.821 C 268.751,176.785 448.215,138.393 447.322,136.607 z "
               id="path965"
               transform="matrix(0.138454,0,0,0.155115,7.747549,322.3918)" />
            <path
               style="font-size:12px;fill:url(#linearGradient5752);fill-rule:evenodd;stroke-width:1pt"
               d="M 183.929,166.071 C 183.929,166.071 215.179,400.893 215.179,400.893 C 215.179,400.893 224.108,443.749 270.536,433.036 C 267.857,426.786 239.286,181.25 238.393,181.25 C 201.786,192.857 185.714,166.071 183.929,166.071 z "
               id="path966"
               transform="matrix(0.154481,0,0,0.154481,4.871588,322.657)" />
          </g>
          <g
             id="g967"
             transform="matrix(0.242506,-6.287052e-2,3.630648e-2,0.29785,-4.05096,165.2553)"
             style="font-size:12px">
            <path
               style="fill:url(#linearGradient5754);fill-opacity:0.62804901;fill-rule:evenodd;stroke:#ffffff;stroke-width:7.93169022;stroke-linecap:butt;stroke-linejoin:miter;stroke-dasharray:none;stroke-opacity:1"
               d="M 242.472,433.299 C 269.608,420.168 268.732,413.166 275.736,398.284 C 224.965,398.285 222.339,400.035 220.588,338.76 C 220.588,277.486 224.09,285.364 318.628,284.489 C 406.163,284.489 411.415,278.362 410.54,336.135 C 408.788,383.403 417.543,395.658 365.897,397.408 C 338.76,398.284 313.375,397.409 313.375,398.284 C 301.995,415.792 287.99,434.174 242.472,433.299 z "
               id="path968"
               transform="matrix(0.566996,0,0,0.518353,-11.2772,296.246)" />
            <path
               style="fill:url(#radialGradient5756);fill-opacity:1;fill-rule:evenodd;stroke:none;stroke-width:1pt;stroke-linecap:butt;stroke-linejoin:miter;stroke-opacity:1"
               d="M 100.768,507.135 C 100.047,467.386 100.48,472.576 150.626,471.461 C 203.559,472.762 205.935,466.641 204.937,499.122 C 137.23,479.944 155.717,520.677 100.768,507.135 z "
               id="path969"
               transform="translate(14.881,-26.2605)" />
          </g>
        </g>
      </g>
      <g
         id="g936"
         transform="matrix(0.163785,0.218443,-0.218443,0.163785,259.62766,236.52308)"
         style="font-size:12px">
        <path
           style="font-size:12px;fill:url(#linearGradient5758);fill-rule:evenodd;stroke:#008700;stroke-width:6.67159986;stroke-linecap:round;stroke-linejoin:round;stroke-dasharray:none"
           d="M 320.378,567.227 C 272.234,503.326 199.58,531.337 195.203,577.731 C 182.073,576.856 166.317,576.856 166.317,577.731 C 166.317,578.606 212.71,626.751 213.585,625.876 C 214.46,625 265.231,579.482 264.356,580.357 C 263.48,581.233 232.843,579.483 232.843,579.483 C 235.469,547.094 279.237,545.343 320.378,567.227 z "
           id="path937"
           transform="matrix(-0.427184,0,0,-0.427184,315.271,786.694)" />
        <path
           style="font-size:12px;fill:url(#radialGradient5760);fill-rule:evenodd;stroke-width:4.625;stroke-linecap:round;stroke-linejoin:round"
           d="M 320.378,567.227 C 272.234,503.326 199.58,531.337 195.203,577.731 C 182.073,576.856 166.317,576.856 166.317,577.731 C 166.317,578.606 212.71,626.751 213.585,625.876 C 214.46,625 265.231,579.482 264.356,580.357 C 263.48,581.233 232.843,579.483 232.843,579.483 C 235.469,547.094 279.237,545.343 320.378,567.227 z "
           id="path938"
           transform="matrix(-0.427184,0,0,-0.427184,315.271,786.694)" />
      </g>
      <g
         id="g939"
         transform="matrix(0.163785,0.218443,-0.218443,0.163785,288.86316,206.95138)"
         style="font-size:12px">
        <path
           style="font-size:12px;fill:url(#linearGradient5762);fill-rule:evenodd;stroke:#008700;stroke-width:6.67159986;stroke-linecap:round;stroke-linejoin:round;stroke-dasharray:none"
           d="M 320.378,567.227 C 272.234,503.326 199.58,531.337 195.203,577.731 C 182.073,576.856 166.317,576.856 166.317,577.731 C 166.317,578.606 212.71,626.751 213.585,625.876 C 214.46,625 265.231,579.482 264.356,580.357 C 263.48,581.233 232.843,579.483 232.843,579.483 C 235.469,547.094 279.237,545.343 320.378,567.227 z "
           id="path940"
           transform="matrix(0.427184,0,0,0.427184,99.6455,256.268)" />
        <path
           style="font-size:12px;fill:url(#radialGradient5764);fill-rule:evenodd;stroke-width:4.625;stroke-linecap:round;stroke-linejoin:round"
           d="M 320.378,567.227 C 272.234,503.326 199.58,531.337 195.203,577.731 C 182.073,576.856 166.317,576.856 166.317,577.731 C 166.317,578.606 212.71,626.751 213.585,625.876 C 214.46,625 265.231,579.482 264.356,580.357 C 263.48,581.233 232.843,579.483 232.843,579.483 C 235.469,547.094 279.237,545.343 320.378,567.227 z "
           id="path941"
           transform="matrix(0.427184,0,0,0.427184,99.6455,256.268)" />
      </g>
    </g>
  </g>
</svg>
