<svg xmlns="http://www.w3.org/2000/svg" viewBox="0 0 128 128" xmlns:xlink="http://www.w3.org/1999/xlink"><defs><linearGradient id="a" x1="575.58" gradientUnits="userSpaceOnUse" x2="469.28" gradientTransform="matrix(.4871 0 0 .30929-92.33 407.96)"><stop stop-color="#666"/><stop offset="1" stop-color="#666" stop-opacity="0"/></linearGradient><linearGradient id="b" x1="562.64" gradientUnits="userSpaceOnUse" x2="469.26" gradientTransform="matrix(.4871 0 0 .30929-92.33 407.96)"><stop stop-color="#fff"/><stop offset="1" stop-color="#fff" stop-opacity="0"/></linearGradient><radialGradient cx="1055.3" cy="-478.61" id="c" r="5.06" gradientUnits="userSpaceOnUse"><stop/><stop offset="1" stop-opacity="0"/></radialGradient><radialGradient fx="1055.38" fy="-480.43" cx="1055.3" cy="-478.61" id="d" r="5.06" gradientUnits="userSpaceOnUse" gradientTransform="matrix(1.90578-.05568.02832 1.29457-942.32 199.73)"><stop stop-color="#fff"/><stop offset=".5" stop-color="#fff" stop-opacity=".609"/><stop offset="1" stop-color="#fff" stop-opacity="0"/></radialGradient><radialGradient fx="1055.19" fy="-476.08" cx="1055.3" cy="-478.61" id="e" r="5.06" gradientUnits="userSpaceOnUse"><stop stop-color="#e7e7e7"/><stop offset="1" stop-color="#dbdbdb"/></radialGradient><linearGradient xlink:href="#a" id="f" x1="575.58" gradientUnits="userSpaceOnUse" x2="469.28" gradientTransform="matrix(-.24979 0 0 .30929 240.37 407.96)"/><linearGradient xlink:href="#b" id="g" x1="562.64" gradientUnits="userSpaceOnUse" x2="469.26" gradientTransform="matrix(-.24979 0 0 .30929 240.37 407.96)"/><linearGradient id="h" y1="731.1" y2="549.06" gradientUnits="userSpaceOnUse" x2="0" gradientTransform="matrix(.11336 0 0 .15788 80.27 165.59)"><stop stop-color="#cbcbcd"/><stop offset=".5" stop-color="#e0e0e2"/><stop offset="1" stop-color="#f2f2f2"/></linearGradient><rect width="112" x="87.63" y="252.34" rx="1.936" height="97.07" ry="2.201" id="i"/><path id="j" d="M1060.3605-478.60516A5.060289 5.060289 0 1 1 1050.2399 -478.60516 5.060289 5.060289 0 1 1 1060.3605 -478.60516"/><path opacity=".479" fill="url(#d)" id="k" d="M1060.3605-478.60516A5.060289 4.894668 0 1 1 1050.2399 -478.60516 5.060289 4.894668 0 1 1 1060.3605 -478.60516"/></defs><g transform="translate(-79.63-236.88)"><g fill="none" stroke="#000" stroke-linejoin="round" stroke-linecap="round" stroke-dashoffset="4"><use opacity=".1" xlink:href="#i" stroke-width="16"/><use opacity=".15" xlink:href="#i" stroke-width="12"/><use opacity=".2" xlink:href="#i" stroke-width="8"/><use opacity=".25" xlink:href="#i" stroke-width="4"/></g><use fill="url(#h)" xlink:href="#i"/><g transform="matrix(.93333 0 0 .93333 4.071 20.06)"><g fill-rule="evenodd"><path fill="url(#a)" d="m136.25 259.74v.309h69.27v-.309z"/><path fill="url(#b)" d="m136.25 260.05v.309h69.27v-.309z"/></g><use fill="url(#c)" xlink:href="#j" transform="matrix(1.14813 0 0 1.16336-1018.09 816.91)"/><use fill="#bf0000" xlink:href="#j" transform="matrix(1.0101 0 0 1.02355-872.47 750.03)"/><use xlink:href="#k" transform="matrix(.81053 0 0 .71075-661.81 598.86)"/><use xlink:href="#k" transform="matrix(.76318 0 0 .66926-611.85 578.68)"/><use fill="url(#c)" xlink:href="#j" transform="matrix(1.14813 0 0 1.16336-1031.56 816.91)"/><use fill="url(#e)" xlink:href="#j" transform="matrix(1.0101 0 0 1.02355-885.94 750.03)"/><use xlink:href="#k" transform="matrix(.81053 0 0 .71075-675.28 598.86)"/><use xlink:href="#k" transform="matrix(.76318 0 0 .66926-625.32 578.68)"/><use fill="url(#c)" xlink:href="#j" transform="matrix(1.14813 0 0 1.16336-1045.69 816.91)"/><use fill="url(#e)" xlink:href="#j" transform="matrix(1.0101 0 0 1.02355-900.07 750.03)"/><use xlink:href="#k" transform="matrix(.81053 0 0 .71075-689.41 598.86)"/><use xlink:href="#k" transform="matrix(.76318 0 0 .66926-639.45 578.68)"/></g><g transform="matrix(.93333 0 0 .93333 9.575 20.06)"><g fill-rule="evenodd"><path fill="url(#f)" d="m123.15 259.74v.309h-35.525v-.309z"/><path fill="url(#g)" d="m123.15 260.05v.309h-35.525v-.309z"/></g><use fill="url(#c)" xlink:href="#j" transform="matrix(1.14813 0 0 1.16336-1114.93 816.91)"/><use fill="url(#e)" xlink:href="#j" transform="matrix(1.0101 0 0 1.02355-969.31 750.03)"/><use xlink:href="#k" transform="matrix(.81053 0 0 .71075-758.65 598.86)"/><use xlink:href="#k" transform="matrix(.76318 0 0 .66926-708.69 578.68)"/></g><g fill="#fff"><path fill-opacity=".757" d="m155.22 270.58v-2.608"/><rect x="91.63" y="276.88" rx="8.356" ry="3.854" width="103.82" height="68"/></g><g fill="#00f" fill-rule="evenodd"><rect width="20" x="99.63" y="268.88" rx=".67" height="9.801" ry="4.455"/><rect width="19.254" x="126.25" y="268.88" rx=".645" height="9.801" ry="4.455"/></g></g></svg>