<?xml version="1.0" encoding="UTF-8" standalone="no"?>
<svg
   xmlns:dc="http://purl.org/dc/elements/1.1/"
   xmlns:cc="http://creativecommons.org/ns#"
   xmlns:rdf="http://www.w3.org/1999/02/22-rdf-syntax-ns#"
   xmlns:svg="http://www.w3.org/2000/svg"
   xmlns="http://www.w3.org/2000/svg"
   xmlns:xlink="http://www.w3.org/1999/xlink"
   width="64pt"
   height="64pt"
   id="svg6618"
   version="1.1">
  <defs
     id="defs3">
    <linearGradient
       id="wihitetolightgray">
      <stop
         style="stop-color:#ffffff;stop-opacity:1.0000000;"
         offset="0.0000000"
         id="stop1885" />
      <stop
         style="stop-color:#d5d4d4;stop-opacity:1.0000000;"
         offset="1.0000000"
         id="stop1886" />
    </linearGradient>
    <linearGradient
       id="light100to0">
      <stop
         style="stop-color:#ffffff;stop-opacity:1.0000000;"
         offset="0.0000000"
         id="stop2764" />
      <stop
         style="stop-color:#ffffff;stop-opacity:0.0000000;"
         offset="1.0000000"
         id="stop2765" />
    </linearGradient>
    <linearGradient
       xlink:href="#light100to0"
       id="linearGradient4749"
       gradientUnits="userSpaceOnUse"
       gradientTransform="matrix(0.296147,0.000000,0.000000,0.288214,-2.542834,-16.39913)"
       x1="33.142147"
       y1="-43.841412"
       x2="190.95435"
       y2="351.92505" />
    <linearGradient
       id="yelowtoorange">
      <stop
         style="stop-color:#ffff00;stop-opacity:1.0000000;"
         offset="0.0000000"
         id="stop3105" />
      <stop
         style="stop-color:#ff8c00;stop-opacity:1.0000000;"
         offset="1.0000000"
         id="stop3107" />
    </linearGradient>
    <linearGradient
       xlink:href="#yelowtoorange"
       id="linearGradient4750"
       gradientUnits="userSpaceOnUse"
       gradientTransform="matrix(0.296147,0.000000,0.000000,0.288214,-2.542834,-16.39913)"
       x1="1.9200591"
       y1="61.150455"
       x2="262.79349"
       y2="318.86072" />
    <linearGradient
       xlink:href="#light100to0"
       id="linearGradient8532"
       gradientTransform="scale(1.340480,0.746001)"
       x1="25.937859"
       y1="21.588600"
       x2="35.577473"
       y2="62.577965"
       gradientUnits="userSpaceOnUse" />
    <radialGradient
       xlink:href="#wihitetolightgray"
       id="radialGradient3565"
       gradientTransform="scale(1.013517,0.986663)"
       cx="57.689056"
       cy="58.919807"
       fx="57.689056"
       fy="58.919807"
       r="78.305862"
       gradientUnits="userSpaceOnUse" />
    <linearGradient
       xlink:href="#light100to0"
       id="linearGradient4188"
       gradientUnits="userSpaceOnUse"
       gradientTransform="scale(1.013669,0.986515)"
       x1="-115.55275"
       y1="-66.487915"
       x2="69.812103"
       y2="60.220398" />
    <linearGradient
       xlink:href="#light100to0"
       id="linearGradient5485"
       gradientTransform="scale(0.690990,1.447199)"
       x1="38.544209"
       y1="34.085915"
       x2="34.356964"
       y2="19.716448"
       gradientUnits="userSpaceOnUse" />
  </defs>
  <metadata
     id="metadata4">
    <rdf:RDF>
      <cc:Work
         rdf:about="">
        <dc:format>image/svg+xml</dc:format>
        <dc:type
           rdf:resource="http://purl.org/dc/dcmitype/StillImage" />
      </cc:Work>
    </rdf:RDF>
  </metadata>
  <g
     id="layer1">
    <path
       style="font-size:12.000000;fill:url(#radialGradient3565);fill-opacity:1.0;fill-rule:evenodd;stroke:none;stroke-width:23.112499;stroke-linejoin:round;"
       d="M 19.223338,9.9449115 L 62.010580,9.9449115 C 68.247378,9.9449115 73.268338,15.067619 73.268338,21.430791 L 73.268338,62.031561 C 73.268338,68.394733 68.247378,73.517440 62.010580,73.517440 L 19.223338,73.517440 C 12.986540,73.517440 7.9655805,68.394733 7.9655805,62.031561 L 7.9655805,21.430791 C 7.9655805,15.067619 12.986540,9.9449115 19.223338,9.9449115 z "
       id="rect748" />
    <path
       style="font-size:12.000000;fill:url(#linearGradient4749);fill-opacity:1.0000000;fill-rule:evenodd;stroke:none;stroke-width:23.112499;stroke-linejoin:round"
       d="M 19.226060,8.3639933 C 12.989262,8.3639933 7.9655805,13.485893 7.9655805,19.849065 L 7.9655805,60.447037 C 7.9655805,62.487951 8.5224045,64.374585 9.4299000,66.032190 C 47.656183,68.876027 33.751875,17.912078 71.941790,14.533733 C 70.062976,10.875907 66.359361,8.3639933 62.015884,8.3639933 L 19.226060,8.3639933 z "
       id="path2872" />
    <text
       xml:space="preserve"
       style="font-size:24.000000;font-style:italic;font-variant:normal;font-weight:normal;font-stretch:normal;fill:#000000;fill-opacity:1.0000000;stroke:none;stroke-width:1.0000000pt;stroke-linecap:butt;stroke-linejoin:miter;stroke-opacity:1.0000000;font-family:Times;text-anchor:start;writing-mode:lr"
       x="21.524256"
       y="40.477016"
       id="text4853"
       transform="matrix(2.650206,0.000000,0.238543,2.148883,-36.18546,-29.33631)"><tspan
         x="21.524256"
         y="40.477016"
         id="tspan4856">I</tspan></text>
    <path
       style="font-size:12.000000;fill:url(#linearGradient4188);fill-opacity:1.0;fill-rule:evenodd;stroke:none;stroke-width:23.112499;stroke-linejoin:round;"
       d="M 19.226060,8.3639933 C 12.989262,8.3639933 7.9655805,13.485893 7.9655805,19.849065 L 7.9655805,60.447037 C 7.9655805,62.487951 8.5224045,64.374585 9.4299000,66.032190 C 47.656183,68.876027 33.751875,17.912078 71.941790,14.533733 C 70.062976,10.875907 66.359361,8.3639933 62.015884,8.3639933 L 19.226060,8.3639933 z "
       id="path3566" />
    <text
       xml:space="preserve"
       style="font-size:24.000000;font-style:italic;font-variant:normal;font-weight:normal;font-stretch:normal;fill:url(#linearGradient5485);fill-opacity:1.0000000;stroke:none;stroke-width:1.0000000pt;stroke-linecap:butt;stroke-linejoin:miter;stroke-opacity:1.0000000;font-family:Times;text-anchor:start;writing-mode:lr"
       x="21.524256"
       y="40.477016"
       id="text4858"
       transform="matrix(2.650206,0.000000,0.238543,2.148883,-36.18546,-29.33631)"><tspan
         x="21.524256"
         y="40.477016"
         id="tspan4859">I</tspan></text>
    <path
       style="font-size:12.000000;fill:none;fill-opacity:1.0000000;fill-rule:evenodd;stroke:url(#linearGradient4750);stroke-width:6.7524076;stroke-linejoin:round"
       d="M 18.798350,9.3314424 L 61.585604,9.3314424 C 67.822389,9.3314424 72.843349,14.454150 72.843349,20.817322 L 72.843349,61.418092 C 72.843349,67.781264 67.822389,72.903971 61.585604,72.903971 L 18.798350,72.903971 C 12.561552,72.903971 7.5405923,67.781264 7.5405923,61.418092 L 7.5405923,20.817322 C 7.5405923,14.454150 12.561552,9.3314424 18.798350,9.3314424 z "
       id="path3499" />
    <path
       style="font-size:12.000000;fill:none;fill-opacity:1.0000000;fill-rule:evenodd;stroke:#a76b37;stroke-width:8.2500000;stroke-linejoin:round;stroke-opacity:0.17500000;stroke-miterlimit:4.0000000;stroke-dasharray:none;"
       d="M 18.612796,9.5169963 L 61.400050,9.5169963 C 67.636835,9.5169963 72.657795,14.639704 72.657795,21.002876 L 72.657795,61.603646 C 72.657795,67.966818 67.636835,73.089525 61.400050,73.089525 L 18.612796,73.089525 C 12.375998,73.089525 7.3550383,67.966818 7.3550383,61.603646 L 7.3550383,21.002876 C 7.3550383,14.639704 12.375998,9.5169963 18.612796,9.5169963 z "
       id="path5996" />
  </g>
</svg>
