<svg xmlns="http://www.w3.org/2000/svg" viewBox="0 0 80 80" xmlns:xlink="http://www.w3.org/1999/xlink"><defs><linearGradient id="a" y1="-43.841" x1="33.14" y2="351.93" gradientUnits="userSpaceOnUse" x2="190.95" gradientTransform="matrix(.29615 0 0 .28821-2.543-16.399)"><stop stop-color="#fff"/><stop offset="1" stop-color="#fff" stop-opacity="0"/></linearGradient><linearGradient id="b" y1="61.15" x1="1.92" y2="318.86" gradientUnits="userSpaceOnUse" x2="262.79" gradientTransform="matrix(.29615 0 0 .28821-2.543-16.399)"><stop stop-color="#ff0"/><stop offset="1" stop-color="#ff8c00"/></linearGradient><radialGradient cx="57.689" cy="58.92" id="c" r="78.31" gradientUnits="userSpaceOnUse" gradientTransform="scale(1.01352.98666)"><stop stop-color="#fff"/><stop offset="1" stop-color="#d5d4d4"/></radialGradient><linearGradient xlink:href="#a" id="d" y1="-66.49" x1="-115.55" y2="60.22" gradientUnits="userSpaceOnUse" x2="69.812" gradientTransform="scale(1.01367.98652)"/><linearGradient xlink:href="#a" id="e" y1="43.936" x1="29.85" y2="24.595" gradientUnits="userSpaceOnUse" x2="30.02" gradientTransform="matrix(1.66332 0-.14341 2.1608-11.334-23.752)"/><path fill-rule="evenodd" id="f" d="m19.226 8.364c-6.237 0-11.26 5.122-11.26 11.485v40.598c0 2.041.557 3.928 1.464 5.585 38.23 2.844 24.322-48.12 62.51-51.5-1.879-3.658-5.582-6.17-9.926-6.17z"/><path fill="none" stroke-linejoin="round" id="g" d="m18.798 9.331h42.787c6.237 0 11.258 5.123 11.258 11.486v40.601c0 6.363-5.02 11.486-11.258 11.486h-42.787c-6.237 0-11.258-5.123-11.258-11.486v-40.601c0-6.363 5.02-11.486 11.258-11.486z"/></defs><path fill="url(#c)" fill-rule="evenodd" d="m19.223 9.945h42.787c6.237 0 11.258 5.123 11.258 11.486v40.601c0 6.363-5.02 11.486-11.258 11.486h-42.787c-6.237 0-11.258-5.123-11.258-11.486v-40.601c0-6.363 5.02-11.486 11.258-11.486"/><path d="m24.394 60.47h31.972v2.684h-31.972z"/><use fill="url(#a)" xlink:href="#f"/><path stroke="#000" stroke-width="1.052" d="m52.957 30.13c.311-4.685.901-5.42 4.627-5.879l.058-.873h-10.457l-.058.873c3.498.276 4.152 1.286 3.847 5.879l-.823 12.401c-.207 3.123-.639 4.868-1.451 6.246-1.363 2.205-4.343 3.628-7.723 3.628-3.2 0-5.336-1.102-6.41-3.261-.714-1.47-.917-3.169-.724-6.06l.975-14.697c.219-3.307.749-3.812 4.376-4.134l.058-.873h-12.756l-.058.873c3.543.276 4 .781 3.782 4.134l-.951 14.33c-.527 7.946 2.874 11.712 10.536 11.712 4.913 0 8.4-1.607 10.366-4.731 1.21-1.929 1.756-4.04 1.99-7.578l.796-11.987"/><path fill="url(#e)" d="m53.06 30.05c.311-4.685.901-5.42 4.627-5.879l.058-.873h-10.457l-.058.873c3.498.276 4.152 1.286 3.847 5.879l-.823 12.401c-.207 3.123-.639 4.868-1.451 6.246-1.363 2.205-4.343 3.628-7.723 3.628-3.2 0-5.336-1.102-6.41-3.261-.714-1.47-.917-3.169-.724-6.06l.975-14.697c.219-3.307.749-3.812 4.376-4.134l.058-.873h-12.756l-.058.873c3.543.276 4 .781 3.782 4.134l-.951 14.33c-.527 7.946 2.874 11.712 10.536 11.712 4.913 0 8.4-1.607 10.366-4.731 1.21-1.929 1.756-4.04 1.99-7.578l.796-11.987"/><use fill="url(#d)" xlink:href="#f"/><use stroke="url(#b)" xlink:href="#g" stroke-width="6.752"/><use stroke-opacity=".175" stroke="#a76b37" xlink:href="#g" stroke-width="8.25"/></svg>