<svg xmlns="http://www.w3.org/2000/svg" viewBox="0 0 80 80" xmlns:xlink="http://www.w3.org/1999/xlink"><defs><linearGradient id="a" y1="-43.841" x1="33.14" y2="351.93" gradientUnits="userSpaceOnUse" x2="190.95" gradientTransform="matrix(.29615 0 0 .28821-2.543-16.399)"><stop stop-color="#fff"/><stop offset="1" stop-color="#fff" stop-opacity="0"/></linearGradient><linearGradient id="b" y1="61.15" x1="1.92" y2="318.86" gradientUnits="userSpaceOnUse" x2="262.79" gradientTransform="matrix(.29615 0 0 .28821-2.543-16.399)"><stop stop-color="#ff0"/><stop offset="1" stop-color="#ff8c00"/></linearGradient><linearGradient xlink:href="#a" id="c" y1="80.73" x1="40.476" y2="26.603" x2="40.698" gradientUnits="userSpaceOnUse" gradientTransform="matrix(.82848 0 .02075 1.0014 4.827 2.342)"/><radialGradient cx="57.689" cy="58.92" id="d" r="78.31" gradientUnits="userSpaceOnUse" gradientTransform="scale(1.01352.98666)"><stop stop-color="#fff"/><stop offset="1" stop-color="#d5d4d4"/></radialGradient><linearGradient xlink:href="#a" id="e" y1="-66.49" x1="-115.55" y2="60.22" gradientUnits="userSpaceOnUse" x2="69.812" gradientTransform="scale(1.01367.98652)"/><path fill-rule="evenodd" id="f" d="m19.226 8.364c-6.237 0-11.26 5.122-11.26 11.485v40.598c0 2.041.557 3.928 1.464 5.585 38.23 2.844 24.322-48.12 62.51-51.5-1.879-3.658-5.582-6.17-9.926-6.17z"/><path id="g" d="m25.504 23.968l.027 1.325c3.396.212 4.347 1.06 4.403 3.762l.531 25.648c.056 2.703-.668 3.339-4.247 3.762l.027 1.325h15.826c8.306 0 13.729-3.974 13.605-9.963-.049-2.385-1.028-4.557-2.783-6.2-1.753-1.59-3.441-2.385-6.898-3.18 5.664-1.802 7.733-3.974 7.649-8-.113-5.458-4.747-8.479-12.955-8.479h-15.187m12.555 17.646h1.475c5.062 0 7.579 2.862 7.7 8.691.107 5.14-1.854 7.79-5.835 7.79-2.163 0-3.02-.901-3.065-3.233l-.274-13.248m-.279-13.46c-.04-1.908.683-2.597 2.6-2.597 3.441 0 5.061 2.279 5.164 7.26.115 5.564-1.476 7.05-7.518 7.207l-.246-11.87"/></defs><path fill="url(#d)" fill-rule="evenodd" d="m19.223 9.945h42.787c6.237 0 11.258 5.123 11.258 11.486v40.601c0 6.363-5.02 11.486-11.258 11.486h-42.787c-6.237 0-11.258-5.123-11.258-11.486v-40.601c0-6.363 5.02-11.486 11.258-11.486"/><use fill="url(#a)" xlink:href="#f"/><use xlink:href="#g"/><use fill="url(#c)" xlink:href="#g"/><use fill="url(#e)" xlink:href="#f"/><g fill="none" stroke-linejoin="round"><path stroke="url(#b)" stroke-width="6.752" d="m18.798 9.331h42.787c6.237 0 11.258 5.123 11.258 11.486v40.601c0 6.363-5.02 11.486-11.258 11.486h-42.787c-6.237 0-11.258-5.123-11.258-11.486v-40.601c0-6.363 5.02-11.486 11.258-11.486z"/><path stroke-opacity=".175" stroke="#a76b37" stroke-width="8.25" d="m18.613 9.517h42.787c6.237 0 11.258 5.123 11.258 11.486v40.601c0 6.363-5.02 11.486-11.258 11.486h-42.787c-6.237 0-11.258-5.123-11.258-11.486v-40.601c0-6.363 5.02-11.486 11.258-11.486z"/></g></svg>