<svg xmlns="http://www.w3.org/2000/svg" viewBox="0 0 80 80" xmlns:xlink="http://www.w3.org/1999/xlink"><defs><linearGradient id="a" y1="-43.841" x1="33.14" y2="351.93" gradientUnits="userSpaceOnUse" x2="190.95" gradientTransform="matrix(.29615 0 0 .28821-2.543-16.399)"><stop stop-color="#fff"/><stop offset="1" stop-color="#fff" stop-opacity="0"/></linearGradient><linearGradient id="b" y1="61.15" x1="1.92" y2="318.86" gradientUnits="userSpaceOnUse" x2="262.79" gradientTransform="matrix(.29615 0 0 .28821-2.543-16.399)"><stop stop-color="#ff0"/><stop offset="1" stop-color="#ff8c00"/></linearGradient><radialGradient cx="57.689" cy="58.92" id="c" r="78.31" gradientUnits="userSpaceOnUse" gradientTransform="scale(1.01352.98666)"><stop stop-color="#fff"/><stop offset="1" stop-color="#d5d4d4"/></radialGradient><linearGradient xlink:href="#a" id="d" y1="-66.49" x1="-115.55" y2="60.22" gradientUnits="userSpaceOnUse" x2="69.812" gradientTransform="scale(1.01367.98652)"/><linearGradient xlink:href="#a" id="e" y1="34.09" x1="38.544" y2="19.716" x2="34.36" gradientUnits="userSpaceOnUse" gradientTransform="scale(.69099 1.4472)"/><path fill-rule="evenodd" id="f" d="m19.226 8.364c-6.237 0-11.26 5.122-11.26 11.485v40.598c0 2.041.557 3.928 1.464 5.585 38.23 2.844 24.322-48.12 62.51-51.5-1.879-3.658-5.582-6.17-9.926-6.17z"/></defs><path fill="url(#c)" fill-rule="evenodd" d="m19.223 9.945h42.787c6.237 0 11.258 5.123 11.258 11.486v40.601c0 6.363-5.02 11.486-11.258 11.486h-42.787c-6.237 0-11.258-5.123-11.258-11.486v-40.601c0-6.363 5.02-11.486 11.258-11.486"/><use fill="url(#a)" xlink:href="#f"/><text font-family="Times" font-style="italic" x="21.524" y="40.477" writing-mode="lr" font-size="24" transform="matrix(2.65021 0 .23854 2.14888-36.19-29.336)">I</text><use fill="url(#d)" xlink:href="#f"/><text font-family="Times" font-style="italic" x="21.524" y="40.477" writing-mode="lr" fill="url(#e)" font-size="24" transform="matrix(2.65021 0 .23854 2.14888-36.19-29.336)">I</text><g fill="none" stroke-linejoin="round"><path stroke="url(#b)" stroke-width="6.752" d="m18.798 9.331h42.787c6.237 0 11.258 5.123 11.258 11.486v40.601c0 6.363-5.02 11.486-11.258 11.486h-42.787c-6.237 0-11.258-5.123-11.258-11.486v-40.601c0-6.363 5.02-11.486 11.258-11.486z"/><path stroke-opacity=".175" stroke="#a76b37" stroke-width="8.25" d="m18.613 9.517h42.787c6.237 0 11.258 5.123 11.258 11.486v40.601c0 6.363-5.02 11.486-11.258 11.486h-42.787c-6.237 0-11.258-5.123-11.258-11.486v-40.601c0-6.363 5.02-11.486 11.258-11.486z"/></g></svg>