<?xml version="1.0" encoding="UTF-8" standalone="no"?>
<svg
   xmlns:dc="http://purl.org/dc/elements/1.1/"
   xmlns:cc="http://creativecommons.org/ns#"
   xmlns:rdf="http://www.w3.org/1999/02/22-rdf-syntax-ns#"
   xmlns:svg="http://www.w3.org/2000/svg"
   xmlns="http://www.w3.org/2000/svg"
   xmlns:xlink="http://www.w3.org/1999/xlink"
   width="64pt"
   height="64pt"
   id="svg6618"
   version="1.1">
  <defs
     id="defs3">
    <linearGradient
       id="wihitetolightgray">
      <stop
         style="stop-color:#ffffff;stop-opacity:1.0000000;"
         offset="0.0000000"
         id="stop1885" />
      <stop
         style="stop-color:#d5d4d4;stop-opacity:1.0000000;"
         offset="1.0000000"
         id="stop1886" />
    </linearGradient>
    <linearGradient
       id="light100to0">
      <stop
         style="stop-color:#ffffff;stop-opacity:1.0000000;"
         offset="0.0000000"
         id="stop2764" />
      <stop
         style="stop-color:#ffffff;stop-opacity:0.0000000;"
         offset="1.0000000"
         id="stop2765" />
    </linearGradient>
    <linearGradient
       xlink:href="#light100to0"
       id="linearGradient4749"
       gradientUnits="userSpaceOnUse"
       gradientTransform="matrix(0.296147,0.000000,0.000000,0.288214,-2.542834,-16.39913)"
       x1="33.142147"
       y1="-43.841412"
       x2="190.95435"
       y2="351.92505" />
    <linearGradient
       id="yelowtoorange">
      <stop
         style="stop-color:#ffff00;stop-opacity:1.0000000;"
         offset="0.0000000"
         id="stop3105" />
      <stop
         style="stop-color:#ff8c00;stop-opacity:1.0000000;"
         offset="1.0000000"
         id="stop3107" />
    </linearGradient>
    <linearGradient
       xlink:href="#yelowtoorange"
       id="linearGradient4750"
       gradientUnits="userSpaceOnUse"
       gradientTransform="matrix(0.296147,0.000000,0.000000,0.288214,-2.542834,-16.39913)"
       x1="1.9200591"
       y1="61.150455"
       x2="262.79349"
       y2="318.86072" />
    <linearGradient
       xlink:href="#light100to0"
       id="linearGradient8532"
       gradientTransform="scale(1.340480,0.746001)"
       x1="25.937859"
       y1="21.588600"
       x2="35.577473"
       y2="62.577965"
       gradientUnits="userSpaceOnUse" />
    <radialGradient
       xlink:href="#wihitetolightgray"
       id="radialGradient3565"
       gradientTransform="scale(1.013517,0.986663)"
       cx="57.689056"
       cy="58.919807"
       fx="57.689056"
       fy="58.919807"
       r="78.305862"
       gradientUnits="userSpaceOnUse" />
    <linearGradient
       xlink:href="#light100to0"
       id="linearGradient4188"
       gradientUnits="userSpaceOnUse"
       gradientTransform="scale(1.013669,0.986515)"
       x1="-115.55275"
       y1="-66.487915"
       x2="69.812103"
       y2="60.220398" />
    <linearGradient
       xlink:href="#light100to0"
       id="linearGradient5507"
       gradientTransform="scale(0.885635,1.129133)"
       x1="29.849651"
       y1="43.936138"
       x2="30.015570"
       y2="24.594734"
       gradientUnits="userSpaceOnUse" />
    <linearGradient
       xlink:href="#light100to0"
       id="linearGradient5516"
       gradientUnits="userSpaceOnUse"
       gradientTransform="matrix(1.663324,0.000000,-0.143413,2.160802,-11.33415,-23.75216)"
       x1="29.849651"
       y1="43.936138"
       x2="30.015570"
       y2="24.594734" />
  </defs>
  <metadata
     id="metadata4">
    <rdf:RDF>
      <cc:Work
         rdf:about="">
        <dc:format>image/svg+xml</dc:format>
        <dc:type
           rdf:resource="http://purl.org/dc/dcmitype/StillImage" />
      </cc:Work>
    </rdf:RDF>
  </metadata>
  <g
     id="layer1">
    <path
       style="font-size:12.000000;fill:url(#radialGradient3565);fill-opacity:1.0;fill-rule:evenodd;stroke:none;stroke-width:23.112499;stroke-linejoin:round;"
       d="M 19.223338,9.9449115 L 62.010580,9.9449115 C 68.247378,9.9449115 73.268338,15.067619 73.268338,21.430791 L 73.268338,62.031561 C 73.268338,68.394733 68.247378,73.517440 62.010580,73.517440 L 19.223338,73.517440 C 12.986540,73.517440 7.9655805,68.394733 7.9655805,62.031561 L 7.9655805,21.430791 C 7.9655805,15.067619 12.986540,9.9449115 19.223338,9.9449115 z "
       id="rect748" />
    <rect
       style="fill:#000000;fill-opacity:1.0000000;stroke:none;stroke-width:11.075000;stroke-linecap:butt;stroke-linejoin:round;stroke-miterlimit:4.0000000;stroke-dashoffset:0.0000000;stroke-opacity:0.17499997"
       id="rect5494"
       width="31.972351"
       height="2.6844897"
       x="24.393902"
       y="60.472534"
       rx="0.0000000"
       ry="0.0000000" />
    <path
       style="font-size:12.000000;fill:url(#linearGradient4749);fill-opacity:1.0000000;fill-rule:evenodd;stroke:none;stroke-width:23.112499;stroke-linejoin:round"
       d="M 19.226060,8.3639933 C 12.989262,8.3639933 7.9655805,13.485893 7.9655805,19.849065 L 7.9655805,60.447037 C 7.9655805,62.487951 8.5224045,64.374585 9.4299000,66.032190 C 47.656183,68.876027 33.751875,17.912078 71.941790,14.533733 C 70.062976,10.875907 66.359361,8.3639933 62.015884,8.3639933 L 19.226060,8.3639933 z "
       id="path2872" />
    <path
       style="font-size:24.000000;font-style:normal;font-variant:normal;font-weight:normal;font-stretch:normal;fill:#000000;fill-opacity:1.0000000;stroke:#000000;stroke-width:1.0524575;stroke-linecap:butt;stroke-linejoin:miter;stroke-miterlimit:4.0000000;stroke-opacity:1.0000000;font-family:Times;text-anchor:start;writing-mode:lr"
       d="M 52.957076,30.125247 C 53.268000,25.440558 53.857674,24.705699 57.584283,24.246414 L 57.642199,23.373775 L 47.184857,23.373775 L 47.126941,24.246414 C 50.624476,24.521985 51.278614,25.532415 50.973787,30.125247 L 50.150750,42.525909 C 49.943467,45.649037 49.512107,47.394320 48.699465,48.772169 C 47.336129,50.976729 44.356844,52.400511 40.976242,52.400511 C 37.775936,52.400511 35.640429,51.298228 34.566682,49.139596 C 33.852882,47.669890 33.650145,45.970536 33.842187,43.077050 L 34.817636,28.379969 C 35.037113,25.073129 35.566471,24.567913 39.193784,24.246414 L 39.251702,23.373775 L 26.495547,23.373775 L 26.437631,24.246414 C 29.980241,24.521985 30.442537,25.027201 30.220013,28.379969 L 29.268948,42.709623 C 28.741597,50.655225 32.142699,54.421359 39.805399,54.421359 C 44.718541,54.421359 48.205844,52.813865 50.171040,49.690737 C 51.380861,47.761746 51.926756,45.649037 52.161474,42.112554 L 52.957076,30.125247"
       id="text5499" />
    <path
       style="font-size:24.000000;font-style:normal;font-variant:normal;font-weight:normal;font-stretch:normal;fill:url(#linearGradient5516);fill-opacity:1.0000000;stroke:none;stroke-width:0.23892179;stroke-linecap:butt;stroke-linejoin:miter;stroke-miterlimit:4.0000000;stroke-opacity:1.0000000;font-family:Times;text-anchor:start;writing-mode:lr"
       d="M 53.060345,30.054881 C 53.371270,25.370192 53.960944,24.635332 57.687552,24.176049 L 57.745470,23.303409 L 47.288127,23.303409 L 47.230210,24.176049 C 50.727747,24.451618 51.381885,25.462049 51.077056,30.054881 L 50.254020,42.455543 C 50.046739,45.578671 49.615378,47.323953 48.802736,48.701803 C 47.439401,50.906363 44.460115,52.330145 41.079512,52.330145 C 37.879207,52.330145 35.743700,51.227862 34.669952,49.069229 C 33.956152,47.599523 33.753416,45.900169 33.945458,43.006683 L 34.920908,28.309602 C 35.140384,25.002763 35.669740,24.497547 39.297055,24.176049 L 39.354972,23.303409 L 26.598818,23.303409 L 26.540900,24.176049 C 30.083512,24.451618 30.545807,24.956834 30.323283,28.309602 L 29.372218,42.639257 C 28.844866,50.584859 32.245970,54.350994 39.908670,54.350994 C 44.821812,54.350994 48.309114,52.743498 50.274312,49.620370 C 51.484131,47.691380 52.030028,45.578671 52.264744,42.042188 L 53.060345,30.054881"
       id="text4853" />
    <path
       style="font-size:12.000000;fill:url(#linearGradient4188);fill-opacity:1.0;fill-rule:evenodd;stroke:none;stroke-width:23.112499;stroke-linejoin:round;"
       d="M 19.226060,8.3639933 C 12.989262,8.3639933 7.9655805,13.485893 7.9655805,19.849065 L 7.9655805,60.447037 C 7.9655805,62.487951 8.5224045,64.374585 9.4299000,66.032190 C 47.656183,68.876027 33.751875,17.912078 71.941790,14.533733 C 70.062976,10.875907 66.359361,8.3639933 62.015884,8.3639933 L 19.226060,8.3639933 z "
       id="path3566" />
    <path
       style="font-size:12.000000;fill:none;fill-opacity:1.0000000;fill-rule:evenodd;stroke:url(#linearGradient4750);stroke-width:6.7524076;stroke-linejoin:round"
       d="M 18.798350,9.3314424 L 61.585604,9.3314424 C 67.822389,9.3314424 72.843349,14.454150 72.843349,20.817322 L 72.843349,61.418092 C 72.843349,67.781264 67.822389,72.903971 61.585604,72.903971 L 18.798350,72.903971 C 12.561552,72.903971 7.5405923,67.781264 7.5405923,61.418092 L 7.5405923,20.817322 C 7.5405923,14.454150 12.561552,9.3314424 18.798350,9.3314424 z "
       id="path3499" />
    <path
       style="font-size:12.000000;fill:none;fill-opacity:1.0000000;fill-rule:evenodd;stroke:#a76b37;stroke-width:8.2500000;stroke-linejoin:round;stroke-miterlimit:4.0000000;stroke-opacity:0.17499997"
       d="M 18.798350,9.3314424 L 61.585604,9.3314424 C 67.822389,9.3314424 72.843349,14.454150 72.843349,20.817322 L 72.843349,61.418092 C 72.843349,67.781264 67.822389,72.903971 61.585604,72.903971 L 18.798350,72.903971 C 12.561552,72.903971 7.5405922,67.781264 7.5405922,61.418092 L 7.5405922,20.817322 C 7.5405922,14.454150 12.561552,9.3314424 18.798350,9.3314424 z "
       id="path5996" />
  </g>
</svg>
