<svg xmlns="http://www.w3.org/2000/svg" viewBox="0 0 154.98 146.55" xmlns:xlink="http://www.w3.org/1999/xlink"><defs><linearGradient id="a"><stop stop-color="#fff"/><stop offset="1" stop-color="#fff" stop-opacity="0"/></linearGradient><linearGradient id="b" y1="510.16" x1="335.22" y2="255.44" gradientUnits="userSpaceOnUse" x2="75.57" gradientTransform="scale(1.08304.92333)"><stop stop-color="#0000a3"/><stop offset="1" stop-color="#4ad5ff"/></linearGradient><linearGradient id="c" y1="295.2" x1="87.78" y2="276.96" gradientUnits="userSpaceOnUse" x2="69.21" gradientTransform="scale(1.18697.84248)"><stop stop-color="#dedede"/><stop offset="1" stop-color="#fff"/></linearGradient><linearGradient id="d" y1="678.85" x1="235.19" y2="747.13" gradientUnits="userSpaceOnUse" x2="217.53" gradientTransform="scale(1.24697.80194)"><stop stop-color="#007d00"/><stop offset="1" stop-color="#1dff00"/></linearGradient><radialGradient cx="212.35" cy="832.25" xlink:href="#a" id="e" r="124.38" gradientUnits="userSpaceOnUse" gradientTransform="scale(1.26691.78932)"/><linearGradient xlink:href="#d" id="f" y1="759.36" x1="223.84" y2="681.88" gradientUnits="userSpaceOnUse" x2="161.42" gradientTransform="scale(1.24697.80194)"/><radialGradient cx="192.37" cy="673.23" xlink:href="#a" id="g" r="70.33" gradientUnits="userSpaceOnUse" gradientTransform="scale(1.26691.78932)"/><path fill-rule="evenodd" fill-opacity=".182" id="h" d="m77.58 600.39c-1.687 0 443.54-.001 443.54-.001 0 0 .687-343.15-.999-343.15-2.685-27.561-11.938-33.93-27.25-34.617-157.62.31-237.06 0-384.43.31-23.06-.31-28.87 9.254-30.18 34.994-1.686 45.536.999 339.1-.688 342.47"/><path fill="url(#b)" fill-rule="evenodd" stroke="#00f" id="i" stroke-width="3.285" d="m77.58 600.39c-1.687 0 443.54-.001 443.54-.001 0 0 .687-343.15-.999-343.15-2.685-27.561-11.938-33.93-27.25-34.617-157.62.31-237.06 0-384.43.31-23.06-.31-28.87 9.254-30.18 34.994-1.686 45.536.999 339.1-.688 342.47z"/><path fill="url(#c)" fill-rule="evenodd" stroke="#676665" id="j" stroke-width=".103" d="m76.5 225.82h36.818v26.1h-36.818z"/><path fill-rule="evenodd" stroke="#005e00" stroke-linejoin="round" id="k" stroke-width="8.668" d="m320.38 567.23c-48.14-63.901-120.8-35.89-125.17 10.504-13.13-.875-28.886-.875-28.886 0 0 .875 46.39 49.02 47.27 48.14.875-.876 51.646-46.39 50.771-45.519-.876.876-31.513-.874-31.513-.874 2.626-32.389 46.39-34.14 87.53-12.256z"/><path fill-rule="evenodd" stroke-linejoin="round" id="l" stroke-width="4.625" d="m320.38 567.23c-48.14-63.901-120.8-35.89-125.17 10.504-13.13-.875-28.886-.875-28.886 0 0 .875 46.39 49.02 47.27 48.14.875-.876 51.646-46.39 50.771-45.519-.876.876-31.513-.874-31.513-.874 2.626-32.389 46.39-34.14 87.53-12.256"/></defs><use xlink:href="#h" transform="matrix(.16283 0 0 .16283-9.515-33.33)"/><use xlink:href="#h" transform="matrix(.16283 0 0 .16283-7.816-31.424)"/><use xlink:href="#i" transform="matrix(.16283 0 0 .16283-12.364-35.982)"/><use xlink:href="#j" transform="matrix(1.91257 0 0 1.91257-146.16-421.77)"/><use xlink:href="#h" transform="matrix(.16283 0 0 .16283 68.41-33.33)"/><use xlink:href="#h" transform="matrix(.16283 0 0 .16283 70.11-31.424)"/><use xlink:href="#i" transform="matrix(.16283 0 0 .16283 65.56-35.982)"/><use xlink:href="#j" transform="matrix(1.91257 0 0 1.91257-68.24-421.77)"/><use xlink:href="#h" transform="matrix(.16283 0 0 .16283-9.515 33.13)"/><use xlink:href="#h" transform="matrix(.16283 0 0 .16283-7.816 35.04)"/><use xlink:href="#i" transform="matrix(.16283 0 0 .16283-12.364 30.48)"/><use xlink:href="#j" transform="matrix(1.91257 0 0 1.91257-146.16-355.31)"/><use xlink:href="#h" transform="matrix(.16283 0 0 .16283 68.41 33.13)"/><use xlink:href="#h" transform="matrix(.16283 0 0 .16283 70.11 35.04)"/><use xlink:href="#i" transform="matrix(.16283 0 0 .16283 65.56 30.48)"/><use xlink:href="#j" transform="matrix(1.91257 0 0 1.91257-68.24-355.31)"/><use fill="url(#d)" xlink:href="#k" transform="matrix(-.37945 0 0-.37945 213.27 345.98)"/><use fill="url(#e)" xlink:href="#l" transform="matrix(-.37945 0 0-.37945 213.27 345.98)"/><use fill="url(#f)" xlink:href="#k" transform="matrix(.37945 0 0 .37945 17.864-115.34)"/><use fill="url(#g)" xlink:href="#l" transform="matrix(.37945 0 0 .37945 17.864-115.34)"/></svg>