<?xml version="1.0" encoding="UTF-8" standalone="no"?>
<!-- Created with Inkscape (http://www.inkscape.org/) -->
<svg
   xmlns:dc="http://purl.org/dc/elements/1.1/"
   xmlns:cc="http://web.resource.org/cc/"
   xmlns:rdf="http://www.w3.org/1999/02/22-rdf-syntax-ns#"
   xmlns:svg="http://www.w3.org/2000/svg"
   xmlns="http://www.w3.org/2000/svg"
   xmlns:xlink="http://www.w3.org/1999/xlink"
   xmlns:sodipodi="http://sodipodi.sourceforge.net/DTD/sodipodi-0.dtd"
   xmlns:inkscape="http://www.inkscape.org/namespaces/inkscape"
   width="154.98413"
   height="146.55141"
   id="svg4144"
   sodipodi:version="0.32"
   inkscape:version="0.45"
   sodipodi:modified="true"
   version="1.0">
  <defs
     id="defs4146">
    <radialGradient
       xlink:href="#linearGradient1957"
       id="radialGradient1956"
       cx="192.37228"
       cy="673.23474"
       fx="192.37228"
       fy="673.23474"
       r="70.326324"
       gradientUnits="userSpaceOnUse"
       spreadMethod="pad"
       gradientTransform="scale(1.2669055,0.7893248)" />
    <linearGradient
       xlink:href="#linearGradient1949"
       id="linearGradient490"
       x1="223.839"
       y1="759.35974"
       x2="161.42285"
       y2="681.87573"
       gradientUnits="userSpaceOnUse"
       spreadMethod="pad"
       gradientTransform="scale(1.24697,0.8019439)" />
    <linearGradient
       id="linearGradient1957">
      <stop
         style="stop-color:#ffffff;stop-opacity:1;"
         offset="0.000000"
         id="stop1958" />
      <stop
         style="stop-color:#ffffff;stop-opacity:0;"
         offset="1.000000"
         id="stop1959" />
    </linearGradient>
    <radialGradient
       xlink:href="#linearGradient1957"
       id="radialGradient1961"
       cx="212.34723"
       cy="832.24927"
       fx="212.34723"
       fy="832.24927"
       r="124.38014"
       gradientUnits="userSpaceOnUse"
       gradientTransform="scale(1.2669055,0.7893248)"
       spreadMethod="pad" />
    <linearGradient
       id="linearGradient1949">
      <stop
         style="stop-color:#007d00;stop-opacity:1;"
         offset="0.000000"
         id="stop1950" />
      <stop
         style="stop-color:#1dff00;stop-opacity:1;"
         offset="1.000000"
         id="stop1951" />
    </linearGradient>
    <linearGradient
       xlink:href="#linearGradient1949"
       id="linearGradient1955"
       x1="235.18515"
       y1="678.85083"
       x2="217.53165"
       y2="747.12616"
       gradientUnits="userSpaceOnUse"
       gradientTransform="scale(1.24697,0.8019439)"
       spreadMethod="pad" />
    <linearGradient
       id="linearGradient448">
      <stop
         style="stop-color:#dedede;stop-opacity:1;"
         offset="0.000000"
         id="stop449" />
      <stop
         style="stop-color:#ffffff;stop-opacity:1;"
         offset="1.000000"
         id="stop450" />
    </linearGradient>
    <linearGradient
       xlink:href="#linearGradient448"
       id="linearGradient451"
       x1="87.781136"
       y1="295.19843"
       x2="69.209984"
       y2="276.96136"
       gradientUnits="userSpaceOnUse"
       spreadMethod="pad"
       gradientTransform="scale(1.1869684,0.8424824)" />
    <linearGradient
       id="linearGradient457">
      <stop
         style="stop-color:#0000a3;stop-opacity:1;"
         offset="0.000000"
         id="stop458" />
      <stop
         style="stop-color:#4ad5ff;stop-opacity:1;"
         offset="1.000000"
         id="stop459" />
    </linearGradient>
    <linearGradient
       xlink:href="#linearGradient457"
       id="linearGradient456"
       x1="335.22119"
       y1="510.15631"
       x2="75.574921"
       y2="255.44344"
       gradientUnits="userSpaceOnUse"
       spreadMethod="pad"
       gradientTransform="scale(1.083042,0.9233252)" />
    <linearGradient
       inkscape:collect="always"
       xlink:href="#linearGradient457"
       id="linearGradient4206"
       gradientUnits="userSpaceOnUse"
       spreadMethod="pad"
       x1="335.22119"
       y1="510.15631"
       x2="75.574921"
       y2="255.44344"
       gradientTransform="scale(1.083042,0.9233252)" />
    <linearGradient
       inkscape:collect="always"
       xlink:href="#linearGradient448"
       id="linearGradient4208"
       gradientUnits="userSpaceOnUse"
       spreadMethod="pad"
       x1="87.781136"
       y1="295.19843"
       x2="69.209984"
       y2="276.96136"
       gradientTransform="scale(1.1869684,0.8424824)" />
    <linearGradient
       inkscape:collect="always"
       xlink:href="#linearGradient457"
       id="linearGradient4210"
       gradientUnits="userSpaceOnUse"
       spreadMethod="pad"
       x1="335.22119"
       y1="510.15631"
       x2="75.574921"
       y2="255.44344"
       gradientTransform="scale(1.083042,0.9233252)" />
    <linearGradient
       inkscape:collect="always"
       xlink:href="#linearGradient448"
       id="linearGradient4212"
       gradientUnits="userSpaceOnUse"
       spreadMethod="pad"
       x1="87.781136"
       y1="295.19843"
       x2="69.209984"
       y2="276.96136"
       gradientTransform="scale(1.1869684,0.8424824)" />
    <linearGradient
       inkscape:collect="always"
       xlink:href="#linearGradient457"
       id="linearGradient4214"
       gradientUnits="userSpaceOnUse"
       spreadMethod="pad"
       x1="335.22119"
       y1="510.15631"
       x2="75.574921"
       y2="255.44344"
       gradientTransform="scale(1.083042,0.9233252)" />
    <linearGradient
       inkscape:collect="always"
       xlink:href="#linearGradient448"
       id="linearGradient4216"
       gradientUnits="userSpaceOnUse"
       spreadMethod="pad"
       x1="87.781136"
       y1="295.19843"
       x2="69.209984"
       y2="276.96136"
       gradientTransform="scale(1.1869684,0.8424824)" />
    <linearGradient
       inkscape:collect="always"
       xlink:href="#linearGradient457"
       id="linearGradient4288"
       gradientUnits="userSpaceOnUse"
       gradientTransform="scale(1.083042,0.9233252)"
       spreadMethod="pad"
       x1="335.22119"
       y1="510.15631"
       x2="75.574921"
       y2="255.44344" />
    <linearGradient
       inkscape:collect="always"
       xlink:href="#linearGradient448"
       id="linearGradient4290"
       gradientUnits="userSpaceOnUse"
       gradientTransform="scale(1.1869684,0.8424824)"
       spreadMethod="pad"
       x1="87.781136"
       y1="295.19843"
       x2="69.209984"
       y2="276.96136" />
    <linearGradient
       inkscape:collect="always"
       xlink:href="#linearGradient457"
       id="linearGradient4292"
       gradientUnits="userSpaceOnUse"
       gradientTransform="scale(1.083042,0.9233252)"
       spreadMethod="pad"
       x1="335.22119"
       y1="510.15631"
       x2="75.574921"
       y2="255.44344" />
    <linearGradient
       inkscape:collect="always"
       xlink:href="#linearGradient448"
       id="linearGradient4294"
       gradientUnits="userSpaceOnUse"
       gradientTransform="scale(1.1869684,0.8424824)"
       spreadMethod="pad"
       x1="87.781136"
       y1="295.19843"
       x2="69.209984"
       y2="276.96136" />
    <linearGradient
       inkscape:collect="always"
       xlink:href="#linearGradient457"
       id="linearGradient4296"
       gradientUnits="userSpaceOnUse"
       gradientTransform="scale(1.083042,0.9233252)"
       spreadMethod="pad"
       x1="335.22119"
       y1="510.15631"
       x2="75.574921"
       y2="255.44344" />
    <linearGradient
       inkscape:collect="always"
       xlink:href="#linearGradient448"
       id="linearGradient4298"
       gradientUnits="userSpaceOnUse"
       gradientTransform="scale(1.1869684,0.8424824)"
       spreadMethod="pad"
       x1="87.781136"
       y1="295.19843"
       x2="69.209984"
       y2="276.96136" />
    <linearGradient
       inkscape:collect="always"
       xlink:href="#linearGradient457"
       id="linearGradient4300"
       gradientUnits="userSpaceOnUse"
       gradientTransform="scale(1.083042,0.9233252)"
       spreadMethod="pad"
       x1="335.22119"
       y1="510.15631"
       x2="75.574921"
       y2="255.44344" />
    <linearGradient
       inkscape:collect="always"
       xlink:href="#linearGradient448"
       id="linearGradient4302"
       gradientUnits="userSpaceOnUse"
       gradientTransform="scale(1.1869684,0.8424824)"
       spreadMethod="pad"
       x1="87.781136"
       y1="295.19843"
       x2="69.209984"
       y2="276.96136" />
    <linearGradient
       inkscape:collect="always"
       xlink:href="#linearGradient1949"
       id="linearGradient4304"
       gradientUnits="userSpaceOnUse"
       gradientTransform="scale(1.24697,0.8019439)"
       spreadMethod="pad"
       x1="235.18515"
       y1="678.85083"
       x2="217.53165"
       y2="747.12616" />
    <radialGradient
       inkscape:collect="always"
       xlink:href="#linearGradient1957"
       id="radialGradient4306"
       gradientUnits="userSpaceOnUse"
       gradientTransform="scale(1.2669055,0.7893248)"
       spreadMethod="pad"
       cx="212.34723"
       cy="832.24927"
       fx="212.34723"
       fy="832.24927"
       r="124.38014" />
    <linearGradient
       inkscape:collect="always"
       xlink:href="#linearGradient1949"
       id="linearGradient4308"
       gradientUnits="userSpaceOnUse"
       gradientTransform="scale(1.24697,0.8019439)"
       spreadMethod="pad"
       x1="223.839"
       y1="759.35974"
       x2="161.42285"
       y2="681.87573" />
    <radialGradient
       inkscape:collect="always"
       xlink:href="#linearGradient1957"
       id="radialGradient4310"
       gradientUnits="userSpaceOnUse"
       gradientTransform="scale(1.2669055,0.7893248)"
       spreadMethod="pad"
       cx="192.37228"
       cy="673.23474"
       fx="192.37228"
       fy="673.23474"
       r="70.326324" />
  </defs>
  <sodipodi:namedview
     id="base"
     pagecolor="#ffffff"
     bordercolor="#666666"
     borderopacity="1.0"
     gridtolerance="10000"
     guidetolerance="10"
     objecttolerance="10"
     inkscape:pageopacity="0.0"
     inkscape:pageshadow="2"
     inkscape:zoom="0.35"
     inkscape:cx="375"
     inkscape:cy="520"
     inkscape:document-units="px"
     inkscape:current-layer="layer1"
     inkscape:window-width="748"
     inkscape:window-height="572"
     inkscape:window-x="59"
     inkscape:window-y="0" />
  <metadata
     id="metadata4149">
    <rdf:RDF>
      <cc:Work
         rdf:about="">
        <dc:format>image/svg+xml</dc:format>
        <dc:type
           rdf:resource="http://purl.org/dc/dcmitype/StillImage" />
        <dc:description>BibleTime icon &quot;autotile windows&quot;.
Licence:
http://creativecommons.org/licenses/by-sa/2.5/ (or any later version)
http://www.gnu.org/licenses/old-licenses/lgpl-2.1.html (or any later version)</dc:description>
        <dc:creator>
          <cc:Agent>
            <dc:title>James Ots</dc:title>
          </cc:Agent>
        </dc:creator>
      </cc:Work>
    </rdf:RDF>
  </metadata>
  <g
     inkscape:label="Layer 1"
     inkscape:groupmode="layer"
     id="layer1"
     transform="translate(-297.85151,-260.69377)">
    <g
       transform="matrix(1.912572,0,0,1.912572,-233.3428,-314.42379)"
       id="g2090">
      <g
         transform="translate(0,-3.051758e-5)"
         id="g2091">
        <g
           transform="translate(107.8453,-19.17247)"
           id="g2092">
          <path
             transform="matrix(8.513864e-2,0,0,8.513869e-2,164.9181,302.4474)"
             sodipodi:nodetypes="ccccccc"
             id="path2093"
             d="M 77.578,600.387 C 75.8915,600.387 521.122,600.386 521.122,600.386 C 521.122,600.386 521.809,257.232 520.123,257.232 C 517.438,229.671 508.185,223.302 492.874,222.615 C 335.254,222.925 255.812,222.615 108.445,222.925 C 85.3889,222.615 79.575,232.179 78.2658,257.919 C 76.5794,303.455 79.2645,597.014 77.578,600.387 z "
             style="font-size:12px;fill:#000000;fill-opacity:0.18181799;fill-rule:evenodd;stroke:none;stroke-width:3.28521991" />
          <path
             transform="matrix(8.513864e-2,0,0,8.513869e-2,165.8064,303.4459)"
             sodipodi:nodetypes="ccccccc"
             id="path2094"
             d="M 77.578,600.387 C 75.8915,600.387 521.122,600.386 521.122,600.386 C 521.122,600.386 521.809,257.232 520.123,257.232 C 517.438,229.671 508.185,223.302 492.874,222.615 C 335.254,222.925 255.812,222.615 108.445,222.925 C 85.3889,222.615 79.575,232.179 78.2658,257.919 C 76.5794,303.455 79.2645,597.014 77.578,600.387 z "
             style="font-size:12px;fill:#000000;fill-opacity:0.18181799;fill-rule:evenodd;stroke:none;stroke-width:3.28521991" />
          <g
             transform="translate(-0.610925,-0.505554)"
             id="g2095">
            <path
               transform="matrix(8.513864e-2,0,0,8.513869e-2,164.0392,301.5685)"
               sodipodi:nodetypes="ccccccc"
               id="path2096"
               d="M 77.578,600.387 C 75.8915,600.387 521.122,600.386 521.122,600.386 C 521.122,600.386 521.809,257.232 520.123,257.232 C 517.438,229.671 508.185,223.302 492.874,222.615 C 335.254,222.925 255.812,222.615 108.445,222.925 C 85.3889,222.615 79.575,232.179 78.2658,257.919 C 76.5794,303.455 79.2645,597.014 77.578,600.387 z "
               style="font-size:12px;fill:url(#linearGradient4288);fill-rule:evenodd;stroke:#0000ff;stroke-width:3.28521991" />
            <rect
               transform="translate(94.0809,99.85593)"
               y="225.81799"
               x="76.497612"
               height="26.096319"
               width="36.818058"
               id="rect2097"
               style="font-size:12px;fill:url(#linearGradient4290);fill-rule:evenodd;stroke:#676665;stroke-width:0.0821044pt" />
          </g>
        </g>
        <g
           transform="translate(148.5868,-19.17247)"
           id="g2098">
          <path
             transform="matrix(8.513864e-2,0,0,8.513869e-2,164.9181,302.4474)"
             sodipodi:nodetypes="ccccccc"
             id="path2099"
             d="M 77.578,600.387 C 75.8915,600.387 521.122,600.386 521.122,600.386 C 521.122,600.386 521.809,257.232 520.123,257.232 C 517.438,229.671 508.185,223.302 492.874,222.615 C 335.254,222.925 255.812,222.615 108.445,222.925 C 85.3889,222.615 79.575,232.179 78.2658,257.919 C 76.5794,303.455 79.2645,597.014 77.578,600.387 z "
             style="font-size:12px;fill:#000000;fill-opacity:0.18181799;fill-rule:evenodd;stroke:none;stroke-width:3.28521991" />
          <path
             transform="matrix(8.513864e-2,0,0,8.513869e-2,165.8064,303.4459)"
             sodipodi:nodetypes="ccccccc"
             id="path2100"
             d="M 77.578,600.387 C 75.8915,600.387 521.122,600.386 521.122,600.386 C 521.122,600.386 521.809,257.232 520.123,257.232 C 517.438,229.671 508.185,223.302 492.874,222.615 C 335.254,222.925 255.812,222.615 108.445,222.925 C 85.3889,222.615 79.575,232.179 78.2658,257.919 C 76.5794,303.455 79.2645,597.014 77.578,600.387 z "
             style="font-size:12px;fill:#000000;fill-opacity:0.18181799;fill-rule:evenodd;stroke:none;stroke-width:3.28521991" />
          <g
             transform="translate(-0.610925,-0.505554)"
             id="g2101">
            <path
               transform="matrix(8.513864e-2,0,0,8.513869e-2,164.0392,301.5685)"
               sodipodi:nodetypes="ccccccc"
               id="path2102"
               d="M 77.578,600.387 C 75.8915,600.387 521.122,600.386 521.122,600.386 C 521.122,600.386 521.809,257.232 520.123,257.232 C 517.438,229.671 508.185,223.302 492.874,222.615 C 335.254,222.925 255.812,222.615 108.445,222.925 C 85.3889,222.615 79.575,232.179 78.2658,257.919 C 76.5794,303.455 79.2645,597.014 77.578,600.387 z "
               style="font-size:12px;fill:url(#linearGradient4292);fill-rule:evenodd;stroke:#0000ff;stroke-width:3.28521991" />
            <rect
               transform="translate(94.0809,99.85593)"
               y="225.81799"
               x="76.497612"
               height="26.096319"
               width="36.818058"
               id="rect2103"
               style="font-size:12px;fill:url(#linearGradient4294);fill-rule:evenodd;stroke:#676665;stroke-width:0.0821044pt" />
          </g>
        </g>
      </g>
      <g
         transform="translate(0,34.75011)"
         id="g2104">
        <g
           transform="translate(107.8453,-19.17247)"
           id="g2105">
          <path
             transform="matrix(8.513864e-2,0,0,8.513869e-2,164.9181,302.4474)"
             sodipodi:nodetypes="ccccccc"
             id="path2106"
             d="M 77.578,600.387 C 75.8915,600.387 521.122,600.386 521.122,600.386 C 521.122,600.386 521.809,257.232 520.123,257.232 C 517.438,229.671 508.185,223.302 492.874,222.615 C 335.254,222.925 255.812,222.615 108.445,222.925 C 85.3889,222.615 79.575,232.179 78.2658,257.919 C 76.5794,303.455 79.2645,597.014 77.578,600.387 z "
             style="font-size:12px;fill:#000000;fill-opacity:0.18181799;fill-rule:evenodd;stroke:none;stroke-width:3.28521991" />
          <path
             transform="matrix(8.513864e-2,0,0,8.513869e-2,165.8064,303.4459)"
             sodipodi:nodetypes="ccccccc"
             id="path2107"
             d="M 77.578,600.387 C 75.8915,600.387 521.122,600.386 521.122,600.386 C 521.122,600.386 521.809,257.232 520.123,257.232 C 517.438,229.671 508.185,223.302 492.874,222.615 C 335.254,222.925 255.812,222.615 108.445,222.925 C 85.3889,222.615 79.575,232.179 78.2658,257.919 C 76.5794,303.455 79.2645,597.014 77.578,600.387 z "
             style="font-size:12px;fill:#000000;fill-opacity:0.18181799;fill-rule:evenodd;stroke:none;stroke-width:3.28521991" />
          <g
             transform="translate(-0.610925,-0.505554)"
             id="g2108">
            <path
               transform="matrix(8.513864e-2,0,0,8.513869e-2,164.0392,301.5685)"
               sodipodi:nodetypes="ccccccc"
               id="path2109"
               d="M 77.578,600.387 C 75.8915,600.387 521.122,600.386 521.122,600.386 C 521.122,600.386 521.809,257.232 520.123,257.232 C 517.438,229.671 508.185,223.302 492.874,222.615 C 335.254,222.925 255.812,222.615 108.445,222.925 C 85.3889,222.615 79.575,232.179 78.2658,257.919 C 76.5794,303.455 79.2645,597.014 77.578,600.387 z "
               style="font-size:12px;fill:url(#linearGradient4296);fill-rule:evenodd;stroke:#0000ff;stroke-width:3.28521991" />
            <rect
               transform="translate(94.0809,99.85593)"
               y="225.81799"
               x="76.497612"
               height="26.096319"
               width="36.818058"
               id="rect2110"
               style="font-size:12px;fill:url(#linearGradient4298);fill-rule:evenodd;stroke:#676665;stroke-width:0.0821044pt" />
          </g>
        </g>
        <g
           transform="translate(148.5868,-19.17247)"
           id="g2111">
          <path
             transform="matrix(8.513864e-2,0,0,8.513869e-2,164.9181,302.4474)"
             sodipodi:nodetypes="ccccccc"
             id="path2112"
             d="M 77.578,600.387 C 75.8915,600.387 521.122,600.386 521.122,600.386 C 521.122,600.386 521.809,257.232 520.123,257.232 C 517.438,229.671 508.185,223.302 492.874,222.615 C 335.254,222.925 255.812,222.615 108.445,222.925 C 85.3889,222.615 79.575,232.179 78.2658,257.919 C 76.5794,303.455 79.2645,597.014 77.578,600.387 z "
             style="font-size:12px;fill:#000000;fill-opacity:0.18181799;fill-rule:evenodd;stroke:none;stroke-width:3.28521991" />
          <path
             transform="matrix(8.513864e-2,0,0,8.513869e-2,165.8064,303.4459)"
             sodipodi:nodetypes="ccccccc"
             id="path2113"
             d="M 77.578,600.387 C 75.8915,600.387 521.122,600.386 521.122,600.386 C 521.122,600.386 521.809,257.232 520.123,257.232 C 517.438,229.671 508.185,223.302 492.874,222.615 C 335.254,222.925 255.812,222.615 108.445,222.925 C 85.3889,222.615 79.575,232.179 78.2658,257.919 C 76.5794,303.455 79.2645,597.014 77.578,600.387 z "
             style="font-size:12px;fill:#000000;fill-opacity:0.18181799;fill-rule:evenodd;stroke:none;stroke-width:3.28521991" />
          <g
             transform="translate(-0.610925,-0.505554)"
             id="g2114">
            <path
               transform="matrix(8.513864e-2,0,0,8.513869e-2,164.0392,301.5685)"
               sodipodi:nodetypes="ccccccc"
               id="path2115"
               d="M 77.578,600.387 C 75.8915,600.387 521.122,600.386 521.122,600.386 C 521.122,600.386 521.809,257.232 520.123,257.232 C 517.438,229.671 508.185,223.302 492.874,222.615 C 335.254,222.925 255.812,222.615 108.445,222.925 C 85.3889,222.615 79.575,232.179 78.2658,257.919 C 76.5794,303.455 79.2645,597.014 77.578,600.387 z "
               style="font-size:12px;fill:url(#linearGradient4300);fill-rule:evenodd;stroke:#0000ff;stroke-width:3.28521991" />
            <rect
               transform="translate(94.0809,99.85593)"
               y="225.81799"
               x="76.497612"
               height="26.096319"
               width="36.818058"
               id="rect2116"
               style="font-size:12px;fill:url(#linearGradient4302);fill-rule:evenodd;stroke:#676665;stroke-width:0.0821044pt" />
          </g>
        </g>
      </g>
    </g>
    <g
       transform="matrix(1.503624,0,0,1.503624,-85.529294,-258.38634)"
       id="g2063">
      <g
         transform="translate(-9.864464,-5.121948)"
         id="g2057">
        <path
           transform="matrix(-0.252356,0,0,-0.252356,406.6725,580.4371)"
           sodipodi:nodetypes="ccccccc"
           id="path2023"
           d="M 320.378,567.227 C 272.234,503.326 199.58,531.337 195.203,577.731 C 182.073,576.856 166.317,576.856 166.317,577.731 C 166.317,578.606 212.71,626.751 213.585,625.876 C 214.46,625 265.231,579.482 264.356,580.357 C 263.48,581.233 232.843,579.483 232.843,579.483 C 235.469,547.094 279.237,545.343 320.378,567.227 z "
           style="font-size:12px;fill:url(#linearGradient4304);fill-rule:evenodd;stroke:#005e00;stroke-width:8.66831017;stroke-linecap:round;stroke-linejoin:round;stroke-dasharray:none;stroke-opacity:1" />
        <path
           transform="matrix(-0.252356,0,0,-0.252356,406.6726,580.437)"
           sodipodi:nodetypes="ccccccc"
           id="path2024"
           d="M 320.378,567.227 C 272.234,503.326 199.58,531.337 195.203,577.731 C 182.073,576.856 166.317,576.856 166.317,577.731 C 166.317,578.606 212.71,626.751 213.585,625.876 C 214.46,625 265.231,579.482 264.356,580.357 C 263.48,581.233 232.843,579.483 232.843,579.483 C 235.469,547.094 279.237,545.343 320.378,567.227 z "
           style="font-size:12px;fill:url(#radialGradient4306);fill-rule:evenodd;stroke-width:4.625;stroke-linecap:round;stroke-linejoin:round" />
      </g>
      <g
         id="g2060">
        <path
           transform="matrix(0.252356,0,0,0.252356,266.8519,268.5084)"
           sodipodi:nodetypes="ccccccc"
           id="path2026"
           d="M 320.378,567.227 C 272.234,503.326 199.58,531.337 195.203,577.731 C 182.073,576.856 166.317,576.856 166.317,577.731 C 166.317,578.606 212.71,626.751 213.585,625.876 C 214.46,625 265.231,579.482 264.356,580.357 C 263.48,581.233 232.843,579.483 232.843,579.483 C 235.469,547.094 279.237,545.343 320.378,567.227 z "
           style="font-size:12px;fill:url(#linearGradient4308);fill-rule:evenodd;stroke:#005e00;stroke-width:8.66831017;stroke-linecap:round;stroke-linejoin:round;stroke-dasharray:none;stroke-opacity:1" />
        <path
           transform="matrix(0.252356,0,0,0.252356,266.8519,268.5084)"
           sodipodi:nodetypes="ccccccc"
           id="path2027"
           d="M 320.378,567.227 C 272.234,503.326 199.58,531.337 195.203,577.731 C 182.073,576.856 166.317,576.856 166.317,577.731 C 166.317,578.606 212.71,626.751 213.585,625.876 C 214.46,625 265.231,579.482 264.356,580.357 C 263.48,581.233 232.843,579.483 232.843,579.483 C 235.469,547.094 279.237,545.343 320.378,567.227 z "
           style="font-size:12px;fill:url(#radialGradient4310);fill-rule:evenodd;stroke-width:4.625;stroke-linecap:round;stroke-linejoin:round" />
      </g>
    </g>
  </g>
</svg>
