<?xml version="1.0" encoding="UTF-8" standalone="no"?>
<svg
   xmlns:ns="http://ns.adobe.com/SaveForWeb/1.0/"
   xmlns:dc="http://purl.org/dc/elements/1.1/"
   xmlns:cc="http://creativecommons.org/ns#"
   xmlns:rdf="http://www.w3.org/1999/02/22-rdf-syntax-ns#"
   xmlns:svg="http://www.w3.org/2000/svg"
   xmlns="http://www.w3.org/2000/svg"
   xmlns:xlink="http://www.w3.org/1999/xlink"
   version="1.1"
   id="Livello_1"
   width="128"
   height="128"
   viewBox="0 0 128 128"
   overflow="visible"
   enable-background="new 0 0 128 128"
   xml:space="preserve"><defs
     id="defs423"><linearGradient
       id="linearGradient3418"><stop
         id="stop3420"
         offset="0"
         style="stop-color:#390000;stop-opacity:1;" /><stop
         style="stop-color:#da0303;stop-opacity:1;"
         offset="0.375"
         id="stop3422" /><stop
         id="stop3424"
         offset="0.75"
         style="stop-color:#7b0101;stop-opacity:1;" /><stop
         id="stop3426"
         offset="1"
         style="stop-color:#390000;stop-opacity:1;" /></linearGradient><linearGradient
       id="linearGradient3371"><stop
         style="stop-color:#950000;stop-opacity:1;"
         offset="0"
         id="stop3373" /><stop
         style="stop-color:#350000;stop-opacity:1;"
         offset="1"
         id="stop3375" /></linearGradient><linearGradient
       y2="21.2803"
       x2="24.569799"
       y1="21.2803"
       x1="103.4307"
       gradientUnits="userSpaceOnUse"
       id="linearGradient3357"><stop
         id="stop3359"
         style="stop-color:#008e00;stop-opacity:1;"
         offset="0" /><stop
         id="stop3361"
         style="stop-color:#003800"
         offset="0.0949" /><stop
         id="stop3363"
         style="stop-color:#001900"
         offset="0.259" /><stop
         id="stop3365"
         style="stop-color:#000700"
         offset="0.3989" /><stop
         id="stop3367"
         style="stop-color:#000000"
         offset="0.497" /><stop
         id="stop3369"
         style="stop-color:#004D00"
         offset="1" /></linearGradient><linearGradient
       id="linearGradient3347"><stop
         style="stop-color:#d50303;stop-opacity:1;"
         offset="0"
         id="stop3349" /><stop
         id="stop3355"
         offset="0.5"
         style="stop-color:#feaeae;stop-opacity:1;" /><stop
         style="stop-color:#d50303;stop-opacity:1;"
         offset="1"
         id="stop3351" /></linearGradient><linearGradient
       id="linearGradient3335"><stop
         style="stop-color:#9c0f0f;stop-opacity:0.28301886;"
         offset="0"
         id="stop3337" /><stop
         id="stop3343"
         offset="0.5"
         style="stop-color:#9c0f0f;stop-opacity:1;" /><stop
         style="stop-color:#9c0f0f;stop-opacity:0.1981132;"
         offset="1"
         id="stop3339" /></linearGradient><linearGradient
       y2="39.036598"
       x2="105.9678"
       y1="39.036598"
       x1="22.0327"
       gradientUnits="userSpaceOnUse"
       id="linearGradient3327"><stop
         id="stop3329"
         style="stop-color:#37A42C"
         offset="0" /><stop
         id="stop3331"
         style="stop-color:#006E29"
         offset="0.4734" /><stop
         id="stop3333"
         style="stop-color:#37A42C"
         offset="1" /></linearGradient><linearGradient
       id="linearGradient3315"><stop
         style="stop-color:#bf0303;stop-opacity:1;"
         offset="0"
         id="stop3317" /><stop
         id="stop3323"
         offset="0.375"
         style="stop-color:#fc3d3d;stop-opacity:1;" /><stop
         style="stop-color:#bf0303;stop-opacity:1;"
         offset="0.75"
         id="stop3325" /><stop
         style="stop-color:#bf0303;stop-opacity:1;"
         offset="1"
         id="stop3319" /></linearGradient><radialGradient
       id="XMLID_15_"
       cx="538.77338"
       cy="651.10352"
       r="126.0234"
       gradientTransform="translate(-484,-674)"
       gradientUnits="userSpaceOnUse"><stop
         offset="0"
         style="stop-color:#CCEAAC"
         id="stop137" /><stop
         offset="0.5393"
         style="stop-color:#3BA42A"
         id="stop2391" /><stop
         offset="1"
         style="stop-color:#91E851"
         id="stop2393" /></radialGradient><radialGradient
       xlink:href="#XMLID_15_"
       id="radialGradient3270"
       gradientUnits="userSpaceOnUse"
       gradientTransform="matrix(-4.104268,3.657634e-2,-8.113798e-2,-9.104575,-83.04937,74.63888)"
       cx="-2.1224115"
       cy="14.219431"
       fx="-2.1224115"
       fy="14.219431"
       r="20.361954" /><radialGradient
       xlink:href="#XMLID_38_"
       id="radialGradient3510"
       gradientUnits="userSpaceOnUse"
       gradientTransform="matrix(1.1037,-0.3564,0.272,0.8422,6.766,-21.7477)"
       cx="33.3467"
       cy="60.9121"
       r="11.2621" /><radialGradient
       xlink:href="#XMLID_38_"
       id="radialGradient3736"
       gradientUnits="userSpaceOnUse"
       gradientTransform="matrix(1.1037,-0.3564,0.272,0.8422,6.766,-21.7477)"
       cx="33.3467"
       cy="60.9121"
       r="11.2621" /><linearGradient
       id="XMLID_33_"
       gradientUnits="userSpaceOnUse"
       x1="21"
       y1="70.875"
       x2="107"
       y2="70.875"
       xlink:href="#XMLID_15_"
       spreadMethod="pad"><stop
         offset="0"
         style="stop-color:#004D00"
         id="stop23" /><stop
         offset="0.0358"
         style="stop-color:#29711C"
         id="stop25" /><stop
         offset="0.0725"
         style="stop-color:#4A8F34"
         id="stop27" /><stop
         offset="0.1074"
         style="stop-color:#63A545"
         id="stop29" /><stop
         offset="0.1393"
         style="stop-color:#72B24F"
         id="stop31" /><stop
         offset="0.1657"
         style="stop-color:#77B753"
         id="stop33" /><stop
         offset="0.1971"
         style="stop-color:#82BD60"
         id="stop35" /><stop
         offset="0.3358"
         style="stop-color:#B0D495"
         id="stop37" /><stop
         offset="0.44"
         style="stop-color:#CDE3B6"
         id="stop39" /><stop
         offset="0.497"
         style="stop-color:#D8E8C2"
         id="stop41" /><stop
         offset="0.554"
         style="stop-color:#C9E0AF"
         id="stop43" /><stop
         offset="0.6568"
         style="stop-color:#B1D28F"
         id="stop45" /><stop
         offset="0.727"
         style="stop-color:#A4CC81"
         id="stop47" /><stop
         offset="0.8583"
         style="stop-color:#81BC5E"
         id="stop49" /><stop
         offset="0.8935"
         style="stop-color:#77B753"
         id="stop51" /><stop
         offset="0.9485"
         style="stop-color:#3B8229"
         id="stop53" /><stop
         offset="1"
         style="stop-color:#004D00"
         id="stop55" /></linearGradient><linearGradient
       id="XMLID_34_"
       gradientUnits="userSpaceOnUse"
       x1="22.0327"
       y1="39.036598"
       x2="105.9678"
       y2="39.036598"
       xlink:href="#linearGradient3327"><stop
         offset="0"
         style="stop-color:#37A42C"
         id="stop60" /><stop
         offset="0.4734"
         style="stop-color:#006E29"
         id="stop62" /><stop
         offset="1"
         style="stop-color:#37A42C"
         id="stop64" /></linearGradient><linearGradient
       id="XMLID_35_"
       gradientUnits="userSpaceOnUse"
       x1="21.8701"
       y1="63.870098"
       x2="118.8704"
       y2="-33.1301"><stop
         offset="0"
         style="stop-color:#004D00"
         id="stop69" /><stop
         offset="0.4734"
         style="stop-color:#77B753"
         id="stop71" /><stop
         offset="1"
         style="stop-color:#006E29"
         id="stop73" /></linearGradient><linearGradient
       id="XMLID_36_"
       gradientUnits="userSpaceOnUse"
       x1="103.4307"
       y1="21.2803"
       x2="24.569799"
       y2="21.2803"><stop
         offset="0"
         style="stop-color:#008e00;stop-opacity:1;"
         id="stop78" /><stop
         offset="0.0949"
         style="stop-color:#003800"
         id="stop80" /><stop
         offset="0.259"
         style="stop-color:#001900"
         id="stop82" /><stop
         offset="0.3989"
         style="stop-color:#000700"
         id="stop84" /><stop
         offset="0.497"
         style="stop-color:#000000"
         id="stop86" /><stop
         offset="1"
         style="stop-color:#004D00"
         id="stop88" /></linearGradient><linearGradient
       id="XMLID_37_"
       gradientUnits="userSpaceOnUse"
       x1="103.4307"
       y1="16.3311"
       x2="24.569799"
       y2="16.3311"><stop
         offset="0"
         style="stop-color:#000000"
         id="stop93" /><stop
         offset="0.5148"
         style="stop-color:#006B33"
         id="stop95" /><stop
         offset="1"
         style="stop-color:#000000"
         id="stop97" /></linearGradient><radialGradient
       id="XMLID_38_"
       cx="33.346699"
       cy="60.912102"
       r="11.2621"
       gradientTransform="matrix(1.1037,-0.3564,0.272,0.8422,6.766,-21.7477)"
       gradientUnits="userSpaceOnUse"><stop
         offset="0"
         style="stop-color:#FFBFF0"
         id="stop102" /><stop
         offset="1"
         style="stop-color:#FF80DF"
         id="stop104" /></radialGradient><radialGradient
       id="XMLID_39_"
       cx="23.0366"
       cy="58.9688"
       r="14.3477"
       gradientTransform="matrix(1.1037,-0.3564,0.272,0.8422,6.766,-21.7477)"
       gradientUnits="userSpaceOnUse"><stop
         offset="0"
         style="stop-color:#FFFFFF"
         id="stop113" /><stop
         offset="0.4734"
         style="stop-color:#D3D7CF"
         id="stop115" /><stop
         offset="1"
         style="stop-color:#EEEEEE"
         id="stop117" /></radialGradient><linearGradient
       id="XMLID_40_"
       gradientUnits="userSpaceOnUse"
       x1="23.308599"
       y1="66.232399"
       x2="13.8441"
       y2="56.768002"
       gradientTransform="matrix(1.1037,-0.3564,0.272,0.8422,6.766,-21.7477)"><stop
         offset="0.4734"
         style="stop-color:#888A85"
         id="stop132" /><stop
         offset="1"
         style="stop-color:#BABDB6"
         id="stop134" /></linearGradient><linearGradient
       id="XMLID_41_"
       gradientUnits="userSpaceOnUse"
       x1="15.6719"
       y1="51.704601"
       x2="13.9794"
       y2="50.0121"
       gradientTransform="matrix(1.1037,-0.3564,0.272,0.8422,6.766,-21.7477)"><stop
         offset="0"
         style="stop-color:#888888"
         id="stop139" /><stop
         offset="0.4734"
         style="stop-color:#888888"
         id="stop141" /><stop
         offset="1"
         style="stop-color:#BBBBBB"
         id="stop143" /></linearGradient><linearGradient
       id="XMLID_42_"
       gradientUnits="userSpaceOnUse"
       x1="83.128899"
       y1="23.633801"
       x2="102.167"
       y2="23.633801"><stop
         offset="0"
         style="stop-color:#FFFFFF"
         id="stop150" /><stop
         offset="0.4734"
         style="stop-color:#DDDDDD"
         id="stop152" /><stop
         offset="1"
         style="stop-color:#EEEEEE"
         id="stop154" /></linearGradient><linearGradient
       id="XMLID_43_"
       gradientUnits="userSpaceOnUse"
       x1="66.813499"
       y1="24.292999"
       x2="98.828102"
       y2="24.292999"><stop
         offset="0"
         style="stop-color:#FFFFFF"
         id="stop167" /><stop
         offset="0.4734"
         style="stop-color:#D3D7CF"
         id="stop169" /><stop
         offset="1"
         style="stop-color:#EEEEEE"
         id="stop171" /></linearGradient><linearGradient
       id="XMLID_44_"
       gradientUnits="userSpaceOnUse"
       x1="83.751999"
       y1="29.964399"
       x2="75.416496"
       y2="21.628901"><stop
         offset="0"
         style="stop-color:#BABDB6"
         id="stop176" /><stop
         offset="0.4734"
         style="stop-color:#888888"
         id="stop178" /><stop
         offset="1"
         style="stop-color:#BABDB6"
         id="stop180" /></linearGradient><linearGradient
       id="XMLID_45_"
       gradientUnits="userSpaceOnUse"
       x1="88.125"
       y1="30.3755"
       x2="85.125298"
       y2="27.375799"><stop
         offset="0"
         style="stop-color:#888888"
         id="stop185" /><stop
         offset="0.4734"
         style="stop-color:#888888"
         id="stop187" /><stop
         offset="1"
         style="stop-color:#BBBBBB"
         id="stop189" /></linearGradient><linearGradient
       id="XMLID_46_"
       gradientUnits="userSpaceOnUse"
       x1="75.875"
       y1="17.625"
       x2="74.625099"
       y2="16.375099"><stop
         offset="0"
         style="stop-color:#888888"
         id="stop194" /><stop
         offset="0.4734"
         style="stop-color:#888888"
         id="stop196" /><stop
         offset="1"
         style="stop-color:#BBBBBB"
         id="stop198" /></linearGradient><radialGradient
       id="XMLID_47_"
       cx="64.176804"
       cy="29.1768"
       r="42.0168"
       gradientUnits="userSpaceOnUse"><stop
         offset="0"
         style="stop-color:#FFFFFF"
         id="stop209" /><stop
         offset="0.7101"
         style="stop-color:#888888"
         id="stop211" /></radialGradient><linearGradient
       id="XMLID_48_"
       gradientUnits="userSpaceOnUse"
       x1="91.666"
       y1="21.667"
       x2="94"
       y2="21.667"><stop
         offset="0"
         style="stop-color:#BBBBBB"
         id="stop216" /><stop
         offset="1"
         style="stop-color:#888888"
         id="stop218" /></linearGradient><linearGradient
       id="XMLID_49_"
       gradientUnits="userSpaceOnUse"
       x1="81.996101"
       y1="28.117701"
       x2="86.663101"
       y2="15.1177"><stop
         offset="0"
         style="stop-color:#FFFFFF"
         id="stop223" /><stop
         offset="1"
         style="stop-color:#888A85"
         id="stop225" /></linearGradient><radialGradient
       id="XMLID_50_"
       cx="41.192902"
       cy="34.775902"
       r="38.7729"
       gradientUnits="userSpaceOnUse"><stop
         offset="0"
         style="stop-color:#FFFFFF"
         id="stop230" /><stop
         offset="1"
         style="stop-color:#E3AD00"
         id="stop232" /></radialGradient><linearGradient
       id="XMLID_51_"
       gradientUnits="userSpaceOnUse"
       x1="30.3335"
       y1="28.9072"
       x2="38.3335"
       y2="28.9072"><stop
         offset="0"
         style="stop-color:#FFFFFF"
         id="stop239" /><stop
         offset="0.7101"
         style="stop-color:#888888"
         id="stop241" /></linearGradient><linearGradient
       id="XMLID_52_"
       gradientUnits="userSpaceOnUse"
       x1="32.5"
       y1="23.414101"
       x2="52.112301"
       y2="23.414101"><stop
         offset="0.0178"
         style="stop-color:#FFFFFF"
         id="stop246" /><stop
         offset="0.5621"
         style="stop-color:#BABDB6"
         id="stop248" /><stop
         offset="0.7041"
         style="stop-color:#BABDB6"
         id="stop250" /></linearGradient><radialGradient
       id="XMLID_53_"
       cx="18.119101"
       cy="30.127899"
       r="97.661003"
       gradientUnits="userSpaceOnUse"><stop
         offset="0"
         style="stop-color:#BFD9FF"
         id="stop259" /><stop
         offset="1"
         style="stop-color:#80B3FF"
         id="stop261" /></radialGradient><radialGradient
       id="XMLID_54_"
       cx="39"
       cy="12.9482"
       r="66.944099"
       gradientUnits="userSpaceOnUse"><stop
         offset="0.0178"
         style="stop-color:#FFFFFF"
         id="stop268" /><stop
         offset="0.5621"
         style="stop-color:#BABDB6"
         id="stop270" /><stop
         offset="0.6391"
         style="stop-color:#555753"
         id="stop272" /><stop
         offset="0.7041"
         style="stop-color:#BABDB6"
         id="stop274" /></radialGradient><radialGradient
       id="XMLID_55_"
       cx="65.721703"
       cy="17.685101"
       r="38.879002"
       gradientUnits="userSpaceOnUse"><stop
         offset="0"
         style="stop-color:#FFF299"
         id="stop283" /><stop
         offset="1"
         style="stop-color:#FFDD00"
         id="stop285" /></radialGradient><radialGradient
       id="XMLID_56_"
       cx="62.9146"
       cy="31.52"
       r="19.769699"
       gradientUnits="userSpaceOnUse"><stop
         offset="0"
         style="stop-color:#E3AD00"
         id="stop290" /><stop
         offset="0.7101"
         style="stop-color:#E3AD00"
         id="stop292" /></radialGradient><radialGradient
       id="XMLID_57_"
       cx="69.469704"
       cy="34.4683"
       r="17.691299"
       gradientUnits="userSpaceOnUse"><stop
         offset="0"
         style="stop-color:#FFFFFF"
         id="stop297" /><stop
         offset="0.7101"
         style="stop-color:#E3AD00"
         id="stop299" /></radialGradient><linearGradient
       id="XMLID_58_"
       gradientUnits="userSpaceOnUse"
       x1="46.1138"
       y1="43.646"
       x2="51.4468"
       y2="-11.687"><stop
         offset="0"
         style="stop-color:#888A85"
         id="stop304" /><stop
         offset="0.497"
         style="stop-color:#888888"
         id="stop306" /><stop
         offset="1"
         style="stop-color:#BABDB6"
         id="stop308" /></linearGradient><linearGradient
       id="XMLID_59_"
       gradientUnits="userSpaceOnUse"
       x1="63.450699"
       y1="17.4116"
       x2="61.623501"
       y2="17.4116"><stop
         offset="0"
         style="stop-color:#888888"
         id="stop313" /><stop
         offset="0.9586"
         style="stop-color:#FF80DF"
         id="stop315" /></linearGradient><linearGradient
       id="XMLID_60_"
       gradientUnits="userSpaceOnUse"
       x1="68.683601"
       y1="19.455601"
       x2="66.370102"
       y2="19.455601"><stop
         offset="0"
         style="stop-color:#888888"
         id="stop320" /><stop
         offset="0.9586"
         style="stop-color:#FF80DF"
         id="stop322" /></linearGradient><linearGradient
       id="XMLID_61_"
       gradientUnits="userSpaceOnUse"
       x1="-193.7769"
       y1="15.0674"
       x2="-195.80659"
       y2="15.0674"
       gradientTransform="matrix(-1,-5.4e-3,5.4e-3,-1,-141.3699,28.3545)"><stop
         offset="0"
         style="stop-color:#888888"
         id="stop327" /><stop
         offset="0.9586"
         style="stop-color:#FF80DF"
         id="stop329" /></linearGradient><radialGradient
       xlink:href="#XMLID_38_"
       id="radialGradient3949"
       gradientUnits="userSpaceOnUse"
       gradientTransform="matrix(1.1037,-0.3564,0.272,0.8422,6.766,-21.7477)"
       cx="33.3467"
       cy="60.9121"
       r="11.2621" /><linearGradient
       xlink:href="#linearGradient3315"
       id="linearGradient3321"
       x1="20.961376"
       y1="70.875"
       x2="122.9885"
       y2="70.875"
       gradientUnits="userSpaceOnUse"
       gradientTransform="matrix(1.1153808,0,0,1,-7.379917,0)" /><linearGradient
       xlink:href="#linearGradient3335"
       id="linearGradient3341"
       x1="22.032"
       y1="39.037"
       x2="105.967"
       y2="39.037"
       gradientUnits="userSpaceOnUse" /><linearGradient
       xlink:href="#linearGradient3347"
       id="linearGradient3353"
       x1="12.190286"
       y1="21.738001"
       x2="115.80972"
       y2="21.738001"
       gradientUnits="userSpaceOnUse" /><linearGradient
       xlink:href="#linearGradient3371"
       id="linearGradient3377"
       x1="68.617584"
       y1="9.6200819"
       x2="68.617584"
       y2="34.302147"
       gradientUnits="userSpaceOnUse"
       gradientTransform="matrix(1.0144303,0,0,0.8685875,-0.9235373,0.8854572)" /><linearGradient
       y2="85.302696"
       x2="86.75"
       y1="85.302696"
       x1="41.25"
       gradientUnits="userSpaceOnUse"
       id="XMLID_62_"
       xlink:href="#linearGradient3418"><stop
         id="stop348"
         style="stop-color:#004D00"
         offset="0" /><stop
         id="stop350"
         style="stop-color:#006000"
         offset="0.0769" /><stop
         id="stop352"
         style="stop-color:#007800"
         offset="0.2028" /><stop
         id="stop354"
         style="stop-color:#008700"
         offset="0.3187" /><stop
         id="stop356"
         style="stop-color:#008C00"
         offset="0.4142" /><stop
         id="stop358"
         style="stop-color:#009200"
         offset="0.4406" /><stop
         id="stop360"
         style="stop-color:#00B300"
         offset="0.603" /><stop
         id="stop362"
         style="stop-color:#00BF00"
         offset="0.6923" /><stop
         id="stop364"
         style="stop-color:#008300"
         offset="0.8579" /><stop
         id="stop366"
         style="stop-color:#004D00"
         offset="1" /></linearGradient><linearGradient
       y2="85.651398"
       x2="86.75"
       y1="85.651398"
       x1="41.25"
       gradientUnits="userSpaceOnUse"
       id="XMLID_63_"
       xlink:href="#linearGradient3418"><stop
         id="stop371"
         style="stop-color:#004D00"
         offset="0" /><stop
         id="stop373"
         style="stop-color:#006000"
         offset="0.0769" /><stop
         id="stop375"
         style="stop-color:#007800"
         offset="0.2028" /><stop
         id="stop377"
         style="stop-color:#008700"
         offset="0.3187" /><stop
         id="stop379"
         style="stop-color:#008C00"
         offset="0.4142" /><stop
         id="stop381"
         style="stop-color:#009200"
         offset="0.4406" /><stop
         id="stop383"
         style="stop-color:#00B300"
         offset="0.603" /><stop
         id="stop385"
         style="stop-color:#00BF00"
         offset="0.6923" /><stop
         id="stop387"
         style="stop-color:#008300"
         offset="0.8579" /><stop
         id="stop389"
         style="stop-color:#004D00"
         offset="1" /></linearGradient><linearGradient
       y2="64.263702"
       x2="86.75"
       y1="64.263702"
       x1="41.25"
       gradientUnits="userSpaceOnUse"
       id="XMLID_64_"
       xlink:href="#linearGradient3315"><stop
         id="stop394"
         style="stop-color:#004D00"
         offset="0" /><stop
         id="stop396"
         style="stop-color:#006000"
         offset="0.0769" /><stop
         id="stop398"
         style="stop-color:#007800"
         offset="0.2028" /><stop
         id="stop400"
         style="stop-color:#008700"
         offset="0.3187" /><stop
         id="stop402"
         style="stop-color:#008C00"
         offset="0.4142" /><stop
         id="stop404"
         style="stop-color:#009200"
         offset="0.4406" /><stop
         id="stop406"
         style="stop-color:#00B300"
         offset="0.603" /><stop
         id="stop408"
         style="stop-color:#00BF00"
         offset="0.6923" /><stop
         id="stop410"
         style="stop-color:#008300"
         offset="0.8579" /><stop
         id="stop412"
         style="stop-color:#004D00"
         offset="1" /></linearGradient><linearGradient
       xlink:href="#linearGradient3418"
       id="linearGradient3416"
       gradientUnits="userSpaceOnUse"
       x1="41.25"
       y1="64.263702"
       x2="86.75"
       y2="64.263702"
       gradientTransform="matrix(1.3282046,0,0,1.3282046,-21.005586,-25.271089)" /><linearGradient
       xlink:href="#linearGradient3418"
       id="linearGradient3429"
       gradientUnits="userSpaceOnUse"
       x1="41.25"
       y1="85.651398"
       x2="86.75"
       y2="85.651398"
       gradientTransform="matrix(1.3282046,0,0,1.3282046,-21.005586,-23.537094)" /><linearGradient
       xlink:href="#linearGradient3418"
       id="linearGradient3432"
       gradientUnits="userSpaceOnUse"
       x1="41.25"
       y1="85.302696"
       x2="86.75"
       y2="85.302696"
       gradientTransform="matrix(1.3282046,0,0,1.3282046,-21.005586,-23.537094)" /><linearGradient
       y2="59.9995"
       x2="46.590199"
       y1="59.9995"
       x1="100.936"
       gradientUnits="userSpaceOnUse"
       id="linearGradient16291"
       xlink:href="#XMLID_4_" /><linearGradient
       y2="60.0005"
       x2="3.9985001"
       y1="60.0005"
       x1="47.998501"
       gradientTransform="translate(-617.1419,-943.4291)"
       gradientUnits="userSpaceOnUse"
       id="linearGradient16289"
       xlink:href="#XMLID_3_" /><linearGradient
       y2="60"
       x2="47.998501"
       y1="60"
       x1="3.9985001"
       gradientUnits="userSpaceOnUse"
       id="linearGradient16287"
       xlink:href="#XMLID_2_" /><linearGradient
       y2="60.0005"
       x2="47.999001"
       y1="60.0005"
       x1="84.965302"
       gradientUnits="userSpaceOnUse"
       id="linearGradient16285"
       xlink:href="#XMLID_1_" /><linearGradient
       y2="-543.35211"
       x2="645.99847"
       y1="-532.10211"
       x1="645.99847"
       gradientTransform="matrix(0,-4,-4,0,-2060.408,2643.994)"
       gradientUnits="userSpaceOnUse"
       id="linearGradient16283"
       xlink:href="#polygon3293_12_" /><linearGradient
       y2="-17.9995"
       x2="181.9985"
       y1="-85.999496"
       x1="181.9985"
       gradientTransform="matrix(0,-1,1,0,-483.1434,-701.4306)"
       gradientUnits="userSpaceOnUse"
       id="linearGradient16281"
       xlink:href="#rect3244_12_" /><linearGradient
       y2="59.9995"
       x2="46.590199"
       y1="59.9995"
       x1="100.936"
       gradientUnits="userSpaceOnUse"
       id="XMLID_4_"><stop
         id="stop227"
         style="stop-color:#A4C0E4"
         offset="0" /><stop
         id="stop229"
         style="stop-color:#FFFFFF"
         offset="1" /></linearGradient><linearGradient
       gradientTransform="translate(-617.1419,-943.4291)"
       y2="60.0005"
       x2="3.9985001"
       y1="60.0005"
       x1="47.998501"
       gradientUnits="userSpaceOnUse"
       id="XMLID_3_"><stop
         id="stop212"
         style="stop-color:#A4C0E4"
         offset="0" /><stop
         id="stop214"
         style="stop-color:#FFFFFF"
         offset="0.7" /></linearGradient><linearGradient
       y2="60"
       x2="47.998501"
       y1="60"
       x1="3.9985001"
       gradientUnits="userSpaceOnUse"
       id="XMLID_2_"><stop
         id="stop197"
         style="stop-color:#6193CF"
         offset="0" /><stop
         id="stop199"
         style="stop-color:#6897D1"
         offset="0.1543" /><stop
         id="stop201"
         style="stop-color:#7AA4D7"
         offset="0.3722" /><stop
         id="stop203"
         style="stop-color:#98B9E0"
         offset="0.6277" /><stop
         id="stop205"
         style="stop-color:#C2D5EC"
         offset="0.9098" /><stop
         id="stop207"
         style="stop-color:#D1DFF1"
         offset="1" /></linearGradient><linearGradient
       y2="60.0005"
       x2="47.999001"
       y1="60.0005"
       x1="84.965302"
       gradientUnits="userSpaceOnUse"
       id="XMLID_1_"><stop
         id="stop188"
         style="stop-color:#2C72C7"
         offset="0" /><stop
         id="stop190"
         style="stop-color:#6193CF"
         offset="0.15" /><stop
         id="stop192"
         style="stop-color:#A4C0E4"
         offset="1" /></linearGradient><linearGradient
       gradientTransform="matrix(0,-4,-4,0,-2060.408,2643.994)"
       y2="-543.35211"
       x2="645.99847"
       y1="-532.10211"
       x1="645.99847"
       gradientUnits="userSpaceOnUse"
       id="polygon3293_12_"><stop
         id="stop182"
         style="stop-color:#6193CF"
         offset="0" /><stop
         id="stop184"
         style="stop-color:#EEEEEE"
         offset="1" /></linearGradient><linearGradient
       gradientTransform="matrix(0,-1,1,0,-483.1434,-701.4306)"
       y2="-17.9995"
       x2="181.9985"
       y1="-85.999496"
       x1="181.9985"
       gradientUnits="userSpaceOnUse"
       id="rect3244_12_"><stop
         id="stop174"
         style="stop-color:#A4C0E4"
         offset="0" /><stop
         id="stop3480"
         style="stop-color:#D1DFF1"
         offset="0.25" /><stop
         id="stop3482"
         style="stop-color:#FFFFFF"
         offset="0.85" /></linearGradient><radialGradient
       r="63.912209"
       fy="115.7093"
       fx="63.912209"
       cy="115.70919"
       cx="63.912209"
       gradientTransform="matrix(1,0,0,0.197802,0,92.82166)"
       gradientUnits="userSpaceOnUse"
       id="radialGradient3336"
       xlink:href="#linearGradient3291" /><linearGradient
       id="linearGradient3291"><stop
         id="stop3293"
         offset="0"
         style="stop-color:#000000;stop-opacity:1;" /><stop
         id="stop3295"
         offset="1"
         style="stop-color:#000000;stop-opacity:0;" /></linearGradient></defs><metadata
     id="metadata3"><ns:sfw><ns:slices><ns:slice
           x="0"
           y="0"
           height="128"
           width="128"
           sliceID="1653915722" /></ns:slices><ns:sliceSourceBounds
         x="0"
         y="0"
         height="128"
         width="128"
         bottomLeftOrigin="true" /></ns:sfw><rdf:RDF><cc:Work
         rdf:about=""><dc:format>image/svg+xml</dc:format><dc:type
           rdf:resource="http://purl.org/dc/dcmitype/StillImage" /></cc:Work></rdf:RDF></metadata><path
     d="M 63.999,117.012 C 51.077,117.012 39.949,114.133 32.923,109.924 C 31.035,109.547 29.293,109.156 27.715,108.772 C 33.336,115.131 47.156,120.012 63.999,120.012 C 80.843,120.012 94.663,115.131 100.284,108.772 C 98.706,109.157 96.964,109.547 95.076,109.924 C 88.05,114.133 76.923,117.012 63.999,117.012 z "
     id="path202"
     style="opacity:0.1;fill:#004d00" /><path
     d="M 63.999,118.012 C 49.632,118.012 37.483,114.455 30.728,109.463 C 29.67,109.234 28.659,109.002 27.715,108.772 C 33.336,115.131 47.156,120.012 63.999,120.012 C 80.843,120.012 94.663,115.131 100.284,108.772 C 99.34,109.002 98.329,109.235 97.271,109.463 C 90.516,114.455 78.367,118.012 63.999,118.012 z "
     id="path204"
     style="opacity:0.2;fill:#004d00" /><path
     d="M 63.999,119.012 C 48.334,119.012 35.293,114.787 29.022,109.08 C 28.578,108.978 28.136,108.875 27.715,108.771 C 33.336,115.13 47.156,120.011 63.999,120.011 C 80.843,120.011 94.663,115.13 100.284,108.771 C 99.863,108.875 99.421,108.978 98.976,109.08 C 92.706,114.787 79.665,119.012 63.999,119.012 z "
     id="path206"
     style="opacity:0.3;fill:#004d00" /><path
     style="fill:url(#linearGradient3321);fill-opacity:1"
     id="path3962"
     d="M 16,21.738 L 20.461523,102.5 C 20.461523,111.619 39.321498,120.012 63.96026,120.012 C 88.601254,120.012 107.46123,111.619 107.46123,102.5 L 111.92276,21.738 L 16,21.738 z " /><rect
     id="_x3C_Sezione_x3E_"
     width="128"
     height="128"
     x="0"
     y="0"
     style="fill:none" /><path
     d="M 105.857,32.802 L 105.967,31.585 C 101.707,39.537 84.545,45.488 63.998,45.488 C 43.453,45.488 26.29,39.537 22.032,31.585 L 22.141,32.802 C 26.593,40.646 43.639,46.489 63.998,46.489 C 84.36,46.488 101.405,40.646 105.857,32.802 z "
     id="path66"
     style="opacity:0.5;fill:url(#linearGradient3341);fill-opacity:1.0" /><ellipse
     cx="64"
     cy="21.738001"
     rx="43"
     ry="17.75"
     id="ellipse75"
     style="fill:url(#linearGradient3353);fill-opacity:1"
     transform="matrix(1.1162791,0,0,1.1267606,-7.4418605,-4.4935221)" /><path
     d="M 24,18.934706 C 24,25.244995 40.072633,32 63.998986,32 C 87.926352,32 104,25.244995 104,18.934706 C 104,12.625286 87.926352,6.738 63.998986,6.738 C 40.072633,6.738 24,12.626155 24,18.934706 z "
     id="path90"
     style="opacity:0.72777776;fill:url(#linearGradient3377);fill-opacity:1" /><path
     d="M 63.999,6.7653279 C 40.413,6.7653279 24.569,14.056198 24.569,20.86526 C 24.569,22.642515 25.657,24.450704 27.671,26.155781 C 27.557,25.641165 27.5,25.127486 27.5,24.614744 C 27.5,14.580931 48.644733,7.7026988 63.999,7.7026988 C 93.869884,7.7026988 109.30972,17.225697 100.5,24.614744 C 100.10787,24.943642 100.442,25.641165 100.328,26.155781 C 102.343,24.451641 103.431,22.642515 103.431,20.86526 C 103.431,14.057136 87.586,6.7653279 63.999,6.7653279 z "
     id="path99"
     style="opacity:0.49444444;fill:#000000;fill-opacity:1" /><g
     id="g335"
     transform="matrix(1,0,0,0.7518284,0,4.8800468)"><path
       d="M 63.999,32.22 C 42.639,32.22 27.651,26.04 25.087,19.664 C 24.829,20.306 24.694,20.95 24.694,21.589 C 24.694,28.583 40.487,36.071 63.999,36.071 C 87.512,36.071 103.306,28.583 103.306,21.589 C 103.306,20.95 103.17,20.306 102.912,19.664 C 100.35,26.04 85.36,32.22 63.999,32.22 z "
       id="path337"
       style="opacity:0.1;fill:#555555" /><path
       d="M 63.999,33.184 C 42.102,33.184 26.906,26.688 24.922,20.147 C 24.775,20.628 24.694,21.111 24.694,21.59 C 24.694,28.584 40.487,36.072 63.999,36.072 C 87.512,36.072 103.306,28.584 103.306,21.59 C 103.306,21.111 103.224,20.628 103.078,20.147 C 101.095,26.688 85.898,33.184 63.999,33.184 z "
       id="path339"
       style="opacity:0.15;fill:#555555" /><path
       d="M 63.999,34.146 C 41.564,34.146 26.167,27.328 24.804,20.627 C 24.739,20.948 24.695,21.269 24.695,21.589 C 24.695,28.583 40.488,36.071 64,36.071 C 87.513,36.071 103.307,28.583 103.307,21.589 C 103.307,21.269 103.263,20.948 103.197,20.627 C 101.833,27.328 86.435,34.146 63.999,34.146 z "
       id="path341"
       style="opacity:0.2;fill:#555555" /><path
       d="M 63.999,35.109 C 41.026,35.109 25.431,27.961 24.728,21.109 C 24.711,21.27 24.694,21.43 24.694,21.59 C 24.694,28.584 40.487,36.072 63.999,36.072 C 87.512,36.072 103.306,28.584 103.306,21.59 C 103.306,21.43 103.288,21.27 103.272,21.109 C 102.568,27.96 86.973,35.109 63.999,35.109 z "
       id="path343"
       style="opacity:0.25;fill:#555555" /></g><path
     style="opacity:0.27222224;fill:url(#linearGradient3432);fill-opacity:1"
     d="M 45.212054,74.833722 L 34.793617,76.221696 C 34.239756,76.296076 33.778869,76.707819 33.65933,77.25371 C 33.638079,77.351998 33.627453,77.448957 33.627453,77.548573 C 33.627453,77.993521 33.846607,78.417218 34.234443,78.662936 C 34.234443,78.662936 36.35957,80.007079 37.550969,80.760171 C 36.410042,83.136329 34.209207,88.309686 34.209207,91.765674 C 34.209207,92.319536 34.26632,92.830894 34.393827,93.277172 C 36.418011,102.13762 43.506639,103.75006 45.630438,104.03164 C 45.856232,104.06086 46.100623,104.09008 46.343685,104.08875 C 51.102641,104.4301 55.954572,104.6373 60.76533,104.70504 C 61.12793,104.71035 61.475919,104.56691 61.730934,104.30923 C 61.985949,104.05156 62.122755,103.70092 62.112129,103.33964 L 61.916883,96.634873 C 61.895632,95.924282 61.31919,95.354483 60.608601,95.343857 C 55.358209,95.26815 50.074611,95.027745 44.902582,94.623971 C 44.860079,94.621314 44.781715,94.621314 44.739212,94.621314 C 44.29028,94.630612 43.294127,94.444663 43.09888,92.999577 C 43.802829,91.173295 45.283777,87.933804 46.132499,86.138071 C 46.198909,86.179246 48.695934,87.738558 48.695934,87.738558 C 49.179401,88.041388 49.804985,88.009512 50.24595,87.646912 C 50.686913,87.285641 50.850282,86.690605 50.647067,86.157994 L 46.647843,75.657208 C 46.426033,75.080768 45.823028,74.752702 45.212054,74.833722 z M 47.598838,103.38613 C 47.476643,103.61591 47.289366,103.79123 47.072868,103.9121 C 47.272099,103.80452 47.458047,103.65177 47.598838,103.38613 z M 46.663781,104.025 C 46.554869,104.04625 46.456581,104.09539 46.342355,104.08875 C 46.453925,104.08742 46.556196,104.04492 46.663781,104.025 z "
     id="path368" /><path
     style="opacity:0.27222224;fill:url(#linearGradient3429);fill-opacity:1"
     d="M 85.390243,72.193252 L 78.81563,76.161927 C 78.402559,76.411629 78.172778,76.852593 78.172778,77.302854 C 78.172778,77.52068 78.227235,77.741163 78.340133,77.944377 C 80.962008,82.668801 83.26113,87.38924 85.175073,91.976859 C 85.191012,92.014048 85.242812,92.10968 85.261407,92.145541 C 85.337114,92.28633 85.426105,92.513454 85.426105,92.78308 C 85.426105,93.192166 85.160463,93.699541 84.38612,94.172381 C 82.342013,94.368955 78.689451,94.581468 76.653313,94.68374 C 76.752928,93.459135 76.86981,92.029987 76.86981,92.029987 C 76.872467,91.994125 76.873795,91.956936 76.873795,91.921074 C 76.873795,91.397762 76.566979,90.919608 76.082184,90.705767 C 75.562857,90.478644 74.958523,90.603495 74.573345,91.016567 L 67.331973,98.8118 C 66.881711,99.296594 66.86046,100.03906 67.276188,100.55308 L 73.273032,107.95383 C 73.614381,108.37487 74.178868,108.54753 74.696868,108.38815 C 75.216195,108.22744 75.585436,107.76921 75.630595,107.22862 C 75.630595,107.22862 75.851077,104.5523 75.896236,104.00507 C 80.519716,103.85499 86.083565,103.30644 88.325575,101.60103 C 93.185475,98.208794 94.375547,93.816422 94.375547,90.554351 C 94.375547,88.601891 93.950521,87.054532 93.629095,86.366522 C 91.801486,81.83336 89.672375,77.251054 87.252386,72.701954 C 87.081047,72.380529 86.782201,72.144108 86.431555,72.047149 C 86.080909,71.95019 85.702371,72.004646 85.390243,72.193252 z "
     id="path391" /><path
     style="fill:url(#linearGradient3416);fill-opacity:1;opacity:0.27222222"
     d="M 55.038111,50.380788 C 54.520112,50.804485 51.947379,52.982741 52.230287,54.281725 C 52.153251,53.928423 52.226302,53.563166 52.426861,53.262992 C 49.3348,57.883815 46.500412,62.539172 44.000731,67.101556 C 43.651414,67.737766 43.873224,68.534688 44.504121,68.891975 L 51.255385,72.713219 C 51.891595,73.073163 52.696487,72.850025 53.059087,72.212487 C 55.740731,67.511971 58.804899,62.656055 62.169242,57.780216 C 62.194478,57.744354 62.242293,57.655364 62.263544,57.616846 C 62.267529,57.610205 62.668647,56.914226 63.351344,56.736247 C 63.765744,56.628662 64.274446,56.786719 64.825651,57.092206 C 66.163153,59.088497 68.337424,62.701213 69.463741,64.593905 C 68.668147,64.991038 66.566927,66.036335 66.566927,66.036335 C 66.112681,66.263459 65.83243,66.727001 65.83243,67.225078 C 65.83243,67.279535 65.836414,67.335319 65.843055,67.389776 C 65.912122,67.94895 66.32785,68.404524 66.877727,68.524062 L 78.030661,70.971943 C 78.648276,71.108748 79.279173,70.792636 79.535517,70.216195 L 84.172279,59.756584 C 84.40073,59.241241 84.277207,58.639564 83.866792,58.253057 C 83.456376,57.866549 82.844075,57.782872 82.344669,58.041872 C 82.344669,58.041872 80.20626,59.149594 78.864773,59.844245 C 77.196548,56.364349 72.71253,49.919901 69.755947,48.689983 C 62.618175,45.535497 57.470054,48.393794 55.038111,50.380788 z M 79.56208,61.78608 C 79.56208,61.711701 79.49567,61.557629 79.478404,61.461999 C 79.491686,61.536378 79.575363,61.580208 79.575363,61.655916 C 79.575363,61.736937 79.567393,61.817958 79.552783,61.900306 C 79.559424,61.865772 79.56208,61.827255 79.56208,61.78608 z "
     id="path414" /><path
     d="M 44.797654,95.948191 C 44.796325,95.952175 41.920763,96.090309 41.721532,92.872069 C 42.653931,90.337854 45.541449,84.232098 45.586608,84.232098 C 46.874966,85.035661 48.142073,85.831257 49.395898,86.612241 C 48.132775,83.140314 46.805899,79.655105 45.411284,76.147317 C 41.853024,76.685239 38.362503,77.147455 34.946361,77.541932 C 36.410042,78.470346 37.852473,79.384151 39.274979,80.280689 C 39.136846,80.275377 34.684704,89.466552 35.670232,92.911915 C 37.852473,102.45373 46.403453,102.80438 46.426033,102.7632 C 51.200928,103.10588 55.989106,103.3091 60.783925,103.37683 C 60.720171,101.13881 60.652432,98.906102 60.588678,96.672062 C 55.313049,96.596354 50.044062,96.357278 44.797654,95.948191 z "
     id="path416"
     style="fill:#ffffff" /><path
     d="M 86.401007,91.468157 C 86.418273,91.464171 87.803591,93.897442 84.869587,95.464724 C 82.049808,95.762242 75.212211,96.099606 75.209555,96.077027 C 75.325109,94.691709 75.546919,91.926387 75.546919,91.926387 C 73.132242,94.513729 70.720222,97.111698 68.308204,99.717635 C 70.307152,102.17348 72.310084,104.64261 74.309032,107.1237 C 74.42857,105.65736 74.553422,104.18837 74.671631,102.71937 C 74.671631,102.69679 84.706217,102.69015 87.525996,100.54776 C 95.566946,94.932114 92.51606,86.771625 92.352691,86.815456 C 90.566256,82.318155 88.475662,77.828824 86.082237,73.328866 C 83.849525,74.686292 81.651346,76.010512 79.502312,77.301526 C 82.1295,82.039232 84.433935,86.75303 86.401007,91.468157 z "
     id="path418"
     style="fill:#ffffff" /><path
     d="M 61.076129,57.024467 C 61.058863,57.021811 62.612862,54.085151 65.718205,56.029642 C 67.549799,58.70863 71.33651,65.143781 71.33651,65.143781 C 69.947207,65.838432 68.551265,66.531755 67.160634,67.22375 C 70.883592,68.02997 74.606549,68.842832 78.322866,69.674288 C 79.867568,66.198376 81.413598,62.713168 82.9583,59.216004 C 82.9583,59.216004 79.797173,60.860322 78.243173,61.655916 C 78.344117,61.65326 73.025987,51.483197 69.245916,49.911932 C 59.090463,45.427912 53.376527,53.956315 53.529271,53.998816 C 50.443851,58.609015 47.659934,63.180695 45.164239,67.736437 C 47.458047,69.05136 49.704042,70.317139 51.903548,71.55104 C 54.646291,66.74958 57.699834,61.918901 61.076129,57.024467 z "
     id="path420"
     style="fill:#ffffff" /><g
     id="layer1"><path
       transform="matrix(1.001374,0,0,0.410363,-2.393169e-5,75.32943)"
       d="M 127.82442 115.70919 A 63.912209 12.641975 0 1 1  0,115.70919 A 63.912209 12.641975 0 1 1  127.82442 115.70919 z"
       id="path1563"
       style="opacity:0.38139535;fill:url(#radialGradient3336);fill-opacity:1;fill-rule:nonzero;stroke:none;stroke-width:0;stroke-linecap:round;stroke-linejoin:round;stroke-miterlimit:4;stroke-dasharray:none;stroke-dashoffset:4;stroke-opacity:1" /></g></svg>