<svg xmlns="http://www.w3.org/2000/svg" viewBox="0 0 128 128" enable-background="new 0 0 128 128"><defs><linearGradient id="a" x1="20.961" x2="122.99" gradientUnits="userSpaceOnUse" gradientTransform="matrix(1.11538 0 0 1-7.38 0)"><stop stop-color="#bf0303"/><stop offset=".375" stop-color="#fc3d3d"/><stop offset=".75" stop-color="#bf0303"/><stop offset="1" stop-color="#bf0303"/></linearGradient><linearGradient id="b" x1="22.03" x2="105.97" gradientUnits="userSpaceOnUse"><stop stop-color="#9c0f0f" stop-opacity=".283"/><stop offset=".5" stop-color="#9c0f0f"/><stop offset="1" stop-color="#9c0f0f" stop-opacity=".198"/></linearGradient><linearGradient id="c" x1="12.19" x2="115.81" gradientUnits="userSpaceOnUse"><stop stop-color="#d50303"/><stop offset=".5" stop-color="#feaeae"/><stop offset="1" stop-color="#d50303"/></linearGradient><linearGradient id="d" y1="9.62" y2="34.3" x2="0" gradientUnits="userSpaceOnUse" gradientTransform="matrix(1.01443 0 0 .86859-.924.885)"><stop stop-color="#950000"/><stop offset="1" stop-color="#350000"/></linearGradient><linearGradient id="e" x1="33.783" gradientUnits="userSpaceOnUse" x2="94.22"><stop stop-color="#390000"/><stop offset=".375" stop-color="#da0303"/><stop offset=".75" stop-color="#7b0101"/><stop offset="1" stop-color="#390000"/></linearGradient><radialGradient cx="63.912" cy="115.71" r="63.912" id="f" gradientUnits="userSpaceOnUse" gradientTransform="matrix(1 0 0 .1978 0 92.82)"><stop/><stop offset="1" stop-opacity="0"/></radialGradient></defs><g fill="#004d00"><path opacity=".1" d="m63.999 117.01c-12.922 0-24.05-2.879-31.08-7.088-1.888-.377-3.63-.768-5.208-1.152 5.621 6.359 19.441 11.24 36.28 11.24 16.844 0 30.664-4.881 36.29-11.24-1.578.385-3.32.775-5.208 1.152-7.03 4.209-18.15 7.088-31.08 7.088"/><path opacity=".2" d="m63.999 118.01c-14.367 0-26.516-3.557-33.27-8.549-1.058-.229-2.069-.461-3.01-.691 5.621 6.359 19.441 11.24 36.28 11.24 16.844 0 30.664-4.881 36.29-11.24-.944.23-1.955.463-3.01.691-6.755 4.992-18.904 8.549-33.27 8.549"/><path opacity=".3" d="m63.999 119.01c-15.665 0-28.706-4.225-34.977-9.932-.444-.102-.886-.205-1.307-.309 5.621 6.359 19.441 11.24 36.28 11.24 16.844 0 30.664-4.881 36.29-11.24-.421.104-.863.207-1.308.309-6.27 5.707-19.311 9.932-34.977 9.932"/></g><path fill="url(#a)" d="m16 21.738l4.462 80.76c0 9.119 18.86 17.512 43.499 17.512 24.641 0 43.501-8.393 43.501-17.512l4.462-80.76z"/><path opacity=".5" fill="url(#b)" d="m105.86 32.802l.11-1.217c-4.26 7.952-21.422 13.903-41.969 13.903-20.545 0-37.708-5.951-41.966-13.903l.109 1.217c4.452 7.844 21.498 13.687 41.857 13.687 20.362-.001 37.41-5.843 41.859-13.687"/><ellipse fill="url(#c)" cx="64" cy="21.738" rx="43" ry="17.75" transform="matrix(1.11628 0 0 1.12676-7.442-4.494)"/><path opacity=".728" fill="url(#d)" d="m24 18.935c0 6.31 16.07 13.07 39.999 13.07 23.927 0 40-6.755 40-13.07 0-6.309-16.07-12.197-40-12.197-23.926 0-39.999 5.888-39.999 12.197"/><path opacity=".494" d="m63.999 6.765c-23.586 0-39.43 7.291-39.43 14.1 0 1.777 1.088 3.585 3.102 5.291-.114-.515-.171-1.028-.171-1.541 0-10.03 21.14-16.912 36.499-16.912 29.871 0 45.31 9.523 36.501 16.912-.392.329-.058 1.026-.172 1.541 2.02-1.704 3.103-3.513 3.103-5.291 0-6.808-15.845-14.1-39.432-14.1"/><g fill="#555" transform="matrix(1 0 0 .75183 0 4.88)"><path opacity=".1" d="m63.999 32.22c-21.36 0-36.35-6.18-38.912-12.556-.258.642-.393 1.286-.393 1.925 0 6.994 15.793 14.482 39.31 14.482 23.513 0 39.31-7.488 39.31-14.482 0-.639-.136-1.283-.394-1.925-2.562 6.376-17.552 12.556-38.913 12.556"/><path opacity=".15" d="m63.999 33.18c-21.897 0-37.09-6.496-39.08-13.04-.147.481-.228.964-.228 1.443 0 6.994 15.793 14.482 39.31 14.482 23.513 0 39.31-7.488 39.31-14.482 0-.479-.082-.962-.228-1.443-1.983 6.541-17.18 13.04-39.08 13.04"/><path opacity=".2" d="m63.999 34.15c-22.435 0-37.832-6.818-39.2-13.519-.065.321-.109.642-.109.962 0 6.994 15.793 14.482 39.3 14.482 23.513 0 39.31-7.488 39.31-14.482 0-.32-.044-.641-.11-.962-1.364 6.701-16.762 13.519-39.2 13.519"/><path opacity=".25" d="m63.999 35.11c-22.973 0-38.568-7.148-39.27-14-.017.161-.034.321-.034.481 0 6.994 15.793 14.482 39.31 14.482 23.513 0 39.31-7.488 39.31-14.482 0-.16-.018-.32-.034-.481-.704 6.851-16.299 14-39.27 14"/></g><g fill="url(#e)"><path opacity=".272" d="m45.21 74.834l-10.418 1.388c-.554.074-1.015.486-1.134 1.032-.021.098-.032.195-.032.295 0 .445.219.869.607 1.114 0 0 2.125 1.344 3.317 2.097-1.141 2.376-3.342 7.55-3.342 11.01 0 .554.057 1.065.185 1.511 2.024 8.86 9.113 10.473 11.237 10.754.226.029.47.058.713.057 4.759.341 9.611.549 14.422.616.363.005.711-.138.966-.396.255-.258.392-.608.381-.97l-.195-6.705c-.021-.711-.598-1.28-1.308-1.291-5.25-.076-10.534-.316-15.706-.72-.043-.003-.121-.003-.163-.003-.449.009-1.445-.177-1.64-1.622.704-1.826 2.185-5.066 3.034-6.862.066.041 2.563 1.6 2.563 1.6.483.303 1.109.271 1.55-.092.441-.361.604-.956.401-1.489l-3.999-10.501c-.222-.576-.825-.905-1.436-.823m2.387 28.552c-.122.23-.309.405-.526.526.199-.108.385-.26.526-.526m-.935.639c-.109.021-.207.07-.321.064.112-.001.214-.044.321-.064"/><path opacity=".272" d="m85.39 72.19l-6.575 3.969c-.413.25-.643.691-.643 1.141 0 .218.054.438.167.642 2.622 4.724 4.921 9.445 6.835 14.03.016.037.068.133.086.169.076.141.165.368.165.638 0 .409-.266.916-1.04 1.389-2.044.197-5.697.409-7.733.511.1-1.225.216-2.654.216-2.654.003-.036.004-.073.004-.109 0-.523-.307-1-.792-1.215-.519-.227-1.124-.102-1.509.311l-7.241 7.795c-.45.485-.472 1.227-.056 1.741l5.997 7.401c.341.421.906.594 1.424.434.519-.161.889-.619.934-1.16 0 0 .22-2.676.266-3.224 4.623-.15 10.187-.699 12.429-2.404 4.86-3.392 6.05-7.785 6.05-11.05 0-1.952-.425-3.5-.746-4.188-1.828-4.533-3.957-9.115-6.377-13.665-.171-.321-.47-.558-.821-.655-.351-.097-.729-.043-1.041.146"/><path opacity=".272" d="m55.04 50.38c-.518.424-3.091 2.602-2.808 3.901-.077-.353-.004-.719.197-1.019-3.092 4.621-5.926 9.276-8.426 13.839-.349.636-.128 1.433.503 1.79l6.751 3.821c.636.36 1.441.137 1.804-.501 2.682-4.701 5.746-9.556 9.11-14.432.025-.036.073-.125.094-.163.004-.007.405-.703 1.088-.881.414-.108.923.05 1.474.356 1.338 1.996 3.512 5.609 4.638 7.502-.796.397-2.897 1.442-2.897 1.442-.454.227-.734.691-.734 1.189 0 .054.004.11.011.165.069.559.485 1.015 1.035 1.134l11.153 2.448c.618.137 1.249-.179 1.505-.756l4.637-10.46c.228-.515.105-1.117-.305-1.504-.41-.387-1.023-.47-1.522-.211 0 0-2.138 1.108-3.48 1.802-1.668-3.48-6.152-9.924-9.109-11.154-7.138-3.154-12.286-.296-14.718 1.691m24.524 11.405c0-.074-.066-.228-.084-.324.013.074.097.118.097.194 0 .081-.008.162-.023.244.007-.035.009-.073.009-.114"/></g><g fill="#fff"><path d="m44.798 95.95c-.001.004-2.877.142-3.076-3.076.932-2.534 3.82-8.64 3.865-8.64 1.288.804 2.555 1.599 3.809 2.38-1.263-3.472-2.59-6.957-3.985-10.465-3.558.538-7.05 1-10.465 1.395 1.464.928 2.906 1.842 4.329 2.739-.138-.005-4.59 9.186-3.605 12.631 2.182 9.542 10.733 9.892 10.756 9.851 4.775.343 9.563.546 14.358.614-.064-2.238-.131-4.471-.195-6.705-5.276-.076-10.545-.315-15.791-.724"/><path d="m86.4 91.47c.017-.004 1.403 2.429-1.531 3.997-2.82.298-9.657.635-9.66.612.116-1.385.337-4.151.337-4.151-2.415 2.587-4.827 5.185-7.239 7.791 1.999 2.456 4 4.925 6 7.406.12-1.466.244-2.935.363-4.404 0-.023 10.03-.029 12.854-2.172 8.04-5.616 4.99-13.776 4.827-13.732-1.786-4.497-3.877-8.987-6.27-13.487-2.233 1.357-4.431 2.682-6.58 3.973 2.627 4.738 4.932 9.452 6.899 14.167"/><path d="m61.08 57.02c-.017-.003 1.537-2.939 4.642-.995 1.832 2.679 5.618 9.114 5.618 9.114-1.389.695-2.785 1.388-4.176 2.08 3.723.806 7.446 1.619 11.162 2.451 1.545-3.476 3.091-6.961 4.635-10.458 0 0-3.161 1.644-4.715 2.44.101-.003-5.217-10.173-8.997-11.744-10.155-4.484-15.869 4.044-15.717 4.087-3.085 4.61-5.869 9.182-8.365 13.738 2.294 1.315 4.54 2.581 6.739 3.815 2.743-4.801 5.796-9.632 9.173-14.527"/></g><path opacity=".381" fill="url(#f)" d="M127.82442 115.70919A63.912209 12.641975 0 1 1 0 115.70919 63.912209 12.641975 0 1 1 127.82442 115.70919" transform="matrix(1.0014 0 0 .41036 0 75.33)"/></svg>