<svg xmlns="http://www.w3.org/2000/svg" viewBox="0 0 128 128" xmlns:xlink="http://www.w3.org/1999/xlink"><defs><radialGradient cx="63.912" cy="115.71" xlink:href="#b" id="a" r="63.912" gradientUnits="userSpaceOnUse" gradientTransform="matrix(1 0 0 .1978 0 92.82)"/><linearGradient id="b"><stop stop-color="#323232"/><stop offset="1" stop-opacity="0"/></linearGradient><linearGradient id="c" x1="74.43" gradientUnits="userSpaceOnUse" x2="124.51" gradientTransform="matrix(-1.43764 0 0 1.46473 207-61.59)"><stop stop-color="#debc85"/><stop offset=".176" stop-color="#bd9b63"/><stop offset=".387" stop-color="#9c783f"/><stop offset=".5" stop-color="#8f6b32"/><stop offset="1" stop-color="#debc85"/></linearGradient><linearGradient id="d" x1="126.43" gradientUnits="userSpaceOnUse" x2="73.34" gradientTransform="matrix(1.53075 0 0 1.48492-216.27-63.21)"><stop offset=".024" stop-color="#b3925d"/><stop offset=".025" stop-color="#b7975d"/><stop offset=".035" stop-color="#d1b55a"/><stop offset=".045" stop-color="#e5cd58"/><stop offset=".056" stop-color="#f4de56"/><stop offset=".068" stop-color="#fce855"/><stop offset=".083" stop-color="#ffeb55"/><stop offset=".099" stop-color="#fce242"/><stop offset=".128" stop-color="#f8d525"/><stop offset=".157" stop-color="#f5cb11"/><stop offset=".185" stop-color="#f4c504"/><stop offset=".213" stop-color="#f3c300"/><stop offset=".293" stop-color="#dfae00"/><stop offset=".377" stop-color="#d19e00"/><stop offset=".444" stop-color="#c90"/><stop offset=".698" stop-color="#e3ad00"/><stop offset=".84" stop-color="#fd0"/><stop offset=".86" stop-color="#ffe72f"/><stop offset=".887" stop-color="#fff468"/><stop offset=".907" stop-color="#fffc8c"/><stop offset=".917" stop-color="#ff9"/><stop offset=".93" stop-color="#fcfb96"/><stop offset=".944" stop-color="#f2ee8d"/><stop offset=".958" stop-color="#e3da7f"/><stop offset=".972" stop-color="#cdbd6b"/><stop offset=".986" stop-color="#b19851"/><stop offset="1" stop-color="#8f6b32"/></linearGradient><linearGradient id="e" x1="118.4" gradientUnits="userSpaceOnUse" x2="80.39" gradientTransform="matrix(1.52909 0 0 1.58148-88.1-66.964)"><stop offset=".29" stop-color="#fff"/><stop offset=".459" stop-color="#ececec"/><stop offset=".811" stop-color="#c8c8c8"/><stop offset="1" stop-color="#bbb"/></linearGradient><radialGradient cx="98.67" cy="83.24" id="f" r="36.661" gradientUnits="userSpaceOnUse" gradientTransform="matrix(1.52909 0 0 1.55174-88.1-64.984)"><stop offset=".254" stop-color="#fff"/><stop offset=".29" stop-color="#f2f2f2"/><stop offset=".459" stop-color="#b9b9b9"/><stop offset=".584" stop-color="#959595"/><stop offset=".651" stop-color="#888"/><stop offset=".855" stop-color="#a9a9a9"/><stop offset="1" stop-color="#bbb"/></radialGradient><linearGradient id="g" x1="117.23" gradientUnits="userSpaceOnUse" x2="83.03" gradientTransform="matrix(1.52909 0 0 1.55174-88.1-64.984)"><stop stop-color="#888"/><stop offset=".008" stop-color="#868686"/><stop offset=".145" stop-color="#626262"/><stop offset=".219" stop-color="#555"/><stop offset=".247" stop-color="#575757"/><stop offset=".737" stop-color="#7b7b7b"/><stop offset="1" stop-color="#888"/></linearGradient><linearGradient id="h" x1="78.54" gradientUnits="userSpaceOnUse" x2="120.4" gradientTransform="matrix(1.52909 0 0 1.58148-88.1-66.964)"><stop offset=".006" stop-color="#ddd"/><stop offset=".107" stop-color="#bbb"/><stop offset=".28" stop-color="#b2b2b2"/><stop offset=".557" stop-color="#9b9b9b"/><stop offset=".74" stop-color="#888"/><stop offset="1" stop-color="#bbb"/></linearGradient><linearGradient id="i" x1="99.47" gradientUnits="userSpaceOnUse" x2="120.4" gradientTransform="matrix(1.52909 0 0 1.58148-88.1-66.964)"><stop offset=".006" stop-color="#888"/><stop offset=".178" stop-color="#bbb"/><stop offset=".439" stop-color="#c4c4c4"/><stop offset=".857" stop-color="#dbdbdb"/><stop offset=".888" stop-color="#ddd"/><stop offset="1" stop-color="#bbb"/></linearGradient><linearGradient id="j" xlink:href="#i" x1="78.54" gradientUnits="userSpaceOnUse" x2="99.47" gradientTransform="matrix(1.52909 0 0 1.58148-88.1-66.964)"/><linearGradient xlink:href="#b" id="k" y1="36" y2="32" x2="0" gradientUnits="userSpaceOnUse" gradientTransform="matrix(1 0-.04016.5 1.446 18)"/><path opacity=".03" fill-rule="evenodd" id="l" d="m60.09 89.18h42.545l-20.959-.27z"/><path opacity=".03" fill="#fff" fill-rule="evenodd" id="m" d="m60.09 89.19h42.545l-20.959.235z"/><path opacity=".03" fill-rule="evenodd" id="n" d="m86.67 91.25l17.273.249v.145h-45.29z"/><path opacity=".03" fill="#fff" fill-rule="evenodd" id="o" d="m103.94 91.65v.124l-17.273.215-28.02-.34z"/><path opacity=".03" fill-rule="evenodd" id="p" d="m89.07 84.17l14.877.192v.077h-36.463z"/><path opacity=".03" fill="#fff" fill-rule="evenodd" id="q" d="m103.94 84.45v.067l-14.877.168-21.586-.235z"/><path opacity=".03" fill-rule="evenodd" id="r" d="m95.49 89.97h-54.34l26.767-.27z"/><path opacity=".03" fill="#fff" fill-rule="evenodd" id="s" d="m95.49 89.98h-54.34l26.767.235z"/><path opacity=".03" fill-rule="evenodd" id="t" d="m60.55 92.03l35.784.393h-65.57v-.057z"/><path opacity=".03" fill="#fff" fill-rule="evenodd" id="u" d="m96.33 92.44l-35.784.343-29.788-.292v-.05z"/><path opacity=".03" fill-rule="evenodd" id="v" d="m102.88 85.23h-54.34l26.767-.27z"/><path opacity=".03" fill="#fff" fill-rule="evenodd" id="w" d="m102.88 85.24h-54.34l26.767.235z"/><path opacity=".03" fill-rule="evenodd" id="x" d="m45.859 86.13l35.784.393h-50.885v-.222z"/><path opacity=".03" fill="#fff" fill-rule="evenodd" id="y" d="m81.64 86.53l-35.784.343-15.1-.148v-.195z"/><path opacity=".03" fill-rule="evenodd" id="z" d="m104.72 87.69h-70.52l34.741-.393z"/><path opacity=".03" fill-rule="evenodd" id="A" d="m54.32 98.03h42.545l-20.959-.27z"/><path opacity=".03" fill="#fff" fill-rule="evenodd" id="B" d="m54.32 98.03h42.545l-20.959.235z"/><path opacity=".03" fill-rule="evenodd" id="C" d="m80.899 100.09l23.04.333v.061h-51.06z"/><path opacity=".03" fill="#fff" fill-rule="evenodd" id="D" d="m103.94 100.5v.054l-23.04.289-28.02-.343z"/><path opacity=".03" fill-rule="evenodd" id="E" d="m61.708 93.29h42.545l-20.959-.27z"/><path opacity=".03" fill="#fff" fill-rule="evenodd" id="F" d="m61.708 93.3h42.545l-20.959.235z"/><path opacity=".03" fill-rule="evenodd" id="G" d="m88.28 95.36l15.659.225v.168h-43.675z"/><path opacity=".03" fill="#fff" fill-rule="evenodd" id="H" d="m103.94 95.76v.145l-15.659.198-28.02-.343z"/><path opacity=".03" fill-rule="evenodd" id="I" d="m89.72 98.82h-54.34l26.767-.27z"/><path opacity=".03" fill="#fff" fill-rule="evenodd" id="J" d="m89.72 98.82h-54.34l26.767.235z"/><path opacity=".03" fill-rule="evenodd" id="K" d="m54.775 100.88l35.78.393h-59.797v-.121z"/><path opacity=".03" fill="#fff" fill-rule="evenodd" id="L" d="m90.56 101.29l-35.78.34-24.02-.235v-.104z"/><path opacity=".03" fill-rule="evenodd" id="M" d="m97.1 94.08h-54.34l26.767-.27z"/><path opacity=".03" fill="#fff" fill-rule="evenodd" id="N" d="m97.1 94.08h-54.34l26.767.235z"/><path opacity=".02" fill-rule="evenodd" id="O" d="m58.17 103.66h42.545l-20.959-.27z"/><path opacity=".02" fill="#fff" fill-rule="evenodd" id="P" d="m58.17 103.66h42.545l-20.959.235z"/><path opacity=".02" fill-rule="evenodd" id="Q" d="m84.75 105.72l19.2.279v.114h-47.21z"/><path opacity=".02" fill="#fff" fill-rule="evenodd" id="R" d="m103.94 106.13v.101l-19.2.239-28.02-.34z"/><path opacity=".03" fill-rule="evenodd" id="S" d="m87.14 98.65l16.801.215v.054h-38.39z"/><path opacity=".03" fill="#fff" fill-rule="evenodd" id="T" d="m103.94 98.93v.047l-16.801.188-21.586-.235z"/><path opacity=".02" fill-rule="evenodd" id="U" d="m93.57 104.45h-54.34l26.767-.27z"/><path opacity=".02" fill="#fff" fill-rule="evenodd" id="V" d="m93.57 104.45h-54.34l26.767.235z"/><path opacity=".02" fill-rule="evenodd" id="W" d="m58.62 106.51l35.78.393h-63.64v-.077z"/><path opacity=".02" fill="#fff" fill-rule="evenodd" id="X" d="m94.4 106.91l-35.78.343-27.864-.276v-.067z"/><path opacity=".03" fill-rule="evenodd" id="Y" d="m100.95 99.71h-54.34l26.767-.27z"/><path opacity=".03" fill="#fff" fill-rule="evenodd" id="Z" d="m100.95 99.71h-54.34l26.767.235z"/><path opacity=".03" fill-rule="evenodd" id="0" d="m101.79 102.17h-70.52l34.741-.393z"/><path opacity=".03" fill="#fff" fill-rule="evenodd" id="1" d="m101.79 102.17h-70.52l34.741.342z"/><path opacity=".01" fill-rule="evenodd" id="2" d="m52.4 112.5h42.545l-20.959-.27z"/><path opacity=".01" fill="#fff" fill-rule="evenodd" id="3" d="m52.4 112.51h42.545l-20.959.235z"/><path opacity=".02" fill-rule="evenodd" id="4" d="m59.783 107.77h42.545l-20.959-.27z"/><path opacity=".02" fill="#fff" fill-rule="evenodd" id="5" d="m59.783 107.77h42.545l-20.959.235z"/><path opacity=".02" fill-rule="evenodd" id="6" d="m86.36 109.83l17.583.255v.138h-45.599z"/><path opacity=".02" fill="#fff" fill-rule="evenodd" id="7" d="m103.94 110.23v.121l-17.583.222-28.02-.343z"/><path opacity=".01" fill-rule="evenodd" id="8" d="m87.79 113.29h-54.34l26.767-.27z"/><path opacity=".01" fill="#fff" fill-rule="evenodd" id="9" d="m87.79 113.3h-54.34l26.767.235z"/><path opacity=".02" fill-rule="evenodd" id="aa" d="m95.18 108.55h-54.34l26.767-.27z"/><path opacity=".02" fill="#fff" fill-rule="evenodd" id="ab" d="m95.18 108.56h-54.34l26.767.235z"/><path opacity=".03" fill-rule="evenodd" id="ac" d="m56.52 82.21h42.545l-20.959-.27z"/><path opacity=".03" fill="#fff" fill-rule="evenodd" id="ad" d="m56.52 82.22h42.545l-20.959.235z"/><path opacity=".03" fill-rule="evenodd" id="ae" d="m83.1 84.28l20.848.303v.094h-48.864z"/><path opacity=".03" fill="#fff" fill-rule="evenodd" id="af" d="m103.94 84.68v.081l-20.848.262-28.02-.343z"/><path opacity=".03" fill-rule="evenodd" id="ag" d="m90.48 79.54l13.46.195v.198h-41.476z"/><path opacity=".03" fill="#fff" fill-rule="evenodd" id="ah" d="m103.94 79.942v.171l-13.46.168-28.02-.34z"/><path opacity=".041" fill-rule="evenodd" id="ai" d="m91.92 83h-54.34l26.767-.27z"/><path opacity=".041" fill="#fff" fill-rule="evenodd" id="aj" d="m91.92 83.01h-54.34l26.767.235z"/><path opacity=".377" fill-rule="evenodd" id="ak" d="m-1975.21 351.24h492.51l-242.62-3.858z"/><path opacity=".377" fill="#fff" fill-rule="evenodd" id="al" d="m-1018.5 1265.25v.156l175.38 2.031 195.66-2.188z"/><path opacity=".377" fill="#fff" fill-rule="evenodd" id="am" d="m-1975.21 351.33h492.51l-242.62 3.354z"/><path opacity=".377" fill-rule="evenodd" id="an" d="m-861.94 1263.25l-156.56 2.313v1.344h410.5z"/><path opacity=".377" fill="#fff" fill-rule="evenodd" id="ao" d="m-1018.5 1267v1.156l156.56 2 253.94-3.156z"/><path opacity=".377" fill-rule="evenodd" id="ap" d="m-910.09 1218.63l-108.41 1.438v1.094h304.06z"/><path opacity=".377" fill="#fff" fill-rule="evenodd" id="aq" d="m-1018.5 1221.22v.937l108.41 1.219 195.66-2.156z"/><path opacity=".377" fill-rule="evenodd" id="ar" d="m-883.66 1197.5l-134.84 1.781v.719h330.5z"/><path opacity=".377" fill="#fff" fill-rule="evenodd" id="as" d="m-1018.5 1200.06v.625l134.84 1.563 195.66-2.188z"/><path opacity=".377" fill-rule="evenodd" id="at" d="m-634.22 1270.56l-324.34 3.656h594.34v-.531z"/><path opacity=".377" fill="#fff" fill-rule="evenodd" id="au" d="m-958.56 1274.31l324.34 3.188 270-2.719v-.469z"/><path opacity=".377" fill="#fff" fill-rule="evenodd" id="av" d="m-1018.53 1228.53v.156l233.16 2.031 242.63-2.188z"/><path opacity=".377" fill="#fff" fill-rule="evenodd" id="aw" d="m-1018.5 1251.41v.344l290.91 2.844 314.88-3.188z"/><path opacity=".377" fill-rule="evenodd" id="ax" d="m-501.09 1215.66l-324.34 3.656h461.22v-2.063z"/><path opacity=".377" fill="#fff" fill-rule="evenodd" id="ay" d="m-825.44 1219.41l324.34 3.188 136.88-1.375v-1.813z"/><path opacity=".377" fill="#fff" fill-rule="evenodd" id="az" d="m-1018.53 1230.25v.063l317.34 3.125 314.91-3.188z"/><path opacity=".377" fill-rule="evenodd" id="aA" d="m-809.62 1345.47l-208.87 3.094v.563h462.84z"/><path opacity=".377" fill="#fff" fill-rule="evenodd" id="aB" d="m-1018.5 1349.22v.5l208.88 2.687 253.97-3.187z"/><path opacity=".377" fill-rule="evenodd" id="aC" d="m-857.78 1300.88l-160.72 2.125v.375h356.41z"/><path opacity=".377" fill="#fff" fill-rule="evenodd" id="aD" d="m-1018.5 1303.44v.344l160.72 1.844 195.69-2.188z"/><path opacity=".377" fill-rule="evenodd" id="aE" d="m-876.56 1301.44l-141.94 2.094v1.563h395.88z"/><path opacity=".377" fill="#fff" fill-rule="evenodd" id="aF" d="m-1018.5 1305.16v1.344l141.94 1.844 253.94-3.188z"/><path opacity=".377" fill-rule="evenodd" id="aG" d="m-581.91 1352.81l-324.31 3.656h542v-1.125z"/><path opacity=".377" fill="#fff" fill-rule="evenodd" id="aH" d="m-906.22 1356.56l324.31 3.156 217.69-2.188v-.969z"/><path opacity=".377" fill-rule="evenodd" id="aI" d="m-648.84 1308.75l-324.34 3.656h608.97v-.344z"/><path opacity=".377" fill="#fff" fill-rule="evenodd" id="aJ" d="m-973.19 1312.5l324.34 3.188 284.63-2.875v-.313z"/><path opacity=".377" fill-rule="evenodd" id="aK" d="m-844.5 1397.81l-174 2.594v1.063h427.94z"/><path opacity=".377" fill="#fff" fill-rule="evenodd" id="aL" d="m-1018.5 1401.56v.938l174 2.219 253.94-3.156z"/><path opacity=".377" fill-rule="evenodd" id="aM" d="m-866.22 1332.06l-152.28 2v.5h347.94z"/><path opacity=".377" fill="#fff" fill-rule="evenodd" id="aN" d="m-1018.5 1334.63v.438l152.28 1.75 195.66-2.188z"/><path opacity=".377" fill-rule="evenodd" id="aO" d="m-616.78 1405.13l-324.31 3.656h576.88v-.719z"/><path opacity=".377" fill="#fff" fill-rule="evenodd" id="aP" d="m-941.09 1408.88l324.31 3.188 252.56-2.563v-.625z"/><path opacity=".377" fill-rule="evenodd" id="aQ" d="m-859.12 1436l-159.37 2.375v1.281h413.31z"/><path opacity=".377" fill="#fff" fill-rule="evenodd" id="aR" d="m-1018.5 1439.72v1.125l159.38 2.062 253.94-3.187z"/><path opacity=".377" fill-rule="evenodd" id="aS" d="m-855.97 1219.59l-162.53 2.406v1.25h416.47z"/><path opacity=".377" fill="#fff" fill-rule="evenodd" id="aT" d="m-1018.5 1223.34v1.094l162.53 2.094 253.94-3.187z"/><path opacity=".377" fill-rule="evenodd" id="aU" d="m-829.53 1198.44l-188.97 2.813v.875h442.91z"/><path opacity=".377" fill="#fff" fill-rule="evenodd" id="aV" d="m-1018.5 1202.19v.75l188.97 2.438 253.94-3.188z"/><path opacity=".377" fill-rule="evenodd" id="aW" d="m-896.5 1154.41l-122 1.813v1.844h375.94z"/><path opacity=".377" fill="#fff" fill-rule="evenodd" id="aX" d="m-1018.5 1158.16v1.594l122 1.563 253.94-3.156z"/><path opacity=".377" fill-rule="evenodd" id="aY" d="m-628.25 1226.94l-324.34 3.656h588.38v-.594z"/><path opacity=".377" fill="#fff" fill-rule="evenodd" id="aZ" d="m-952.59 1230.66l324.34 3.188 264.03-2.688v-.5z"/><path opacity=".377" fill-rule="evenodd" id="a0" d="m-601.81 1205.78l-324.34 3.656h561.94v-.906z"/><path opacity=".377" fill="#fff" fill-rule="evenodd" id="a1" d="m-926.16 1209.53l324.34 3.188 237.59-2.406v-.781z"/><path opacity=".041" fill-rule="evenodd" id="a2" d="m60.09 68.54h42.545l-20.959-.337z"/><path opacity=".041" fill="#fff" fill-rule="evenodd" id="a3" d="m60.09 68.55h42.545l-20.959.293z"/><path opacity=".041" fill-rule="evenodd" id="a4" d="m86.67 71.12l17.273.31v.18h-45.29z"/><path opacity=".041" fill="#fff" fill-rule="evenodd" id="a5" d="m103.94 71.62v.155l-17.273.268-28.02-.424z"/><path opacity=".06" fill-rule="evenodd" id="a6" d="m80.35 63.47l22.336.192v.077h-54.744z"/><path opacity=".06" fill="#fff" fill-rule="evenodd" id="a7" d="m102.69 63.742v.067l-22.336.168-32.409-.235z"/><path opacity=".041" fill-rule="evenodd" id="a8" d="m95.49 69.52h-54.34l26.767-.337z"/><path opacity=".041" fill="#fff" fill-rule="evenodd" id="a9" d="m95.49 69.53h-54.34l26.767.293z"/><path opacity=".041" fill-rule="evenodd" id="ba" d="m60.55 72.1l35.784.491h-65.57v-.071z"/><path opacity=".041" fill="#fff" fill-rule="evenodd" id="bb" d="m96.33 72.6l-35.784.428-29.788-.365v-.063z"/><path opacity=".06" fill-rule="evenodd" id="bc" d="m102.88 64.52h-54.34l26.767-.27z"/><path opacity=".06" fill="#fff" fill-rule="evenodd" id="bd" d="m102.88 64.53h-54.34l26.767.235z"/><path opacity=".041" fill-rule="evenodd" id="be" d="m45.859 65.42l35.784.393h-50.885v-.222z"/><path opacity=".041" fill="#fff" fill-rule="evenodd" id="bf" d="m81.64 65.823l-35.784.343-15.1-.148v-.195z"/><path opacity=".06" fill-rule="evenodd" id="bg" d="m104.72 66.982h-70.52l34.741-.393z"/><path opacity=".03" fill-rule="evenodd" id="bh" d="m80.899 79.38l23.04.333v.061h-51.06z"/><path opacity=".03" fill="#fff" fill-rule="evenodd" id="bi" d="m103.94 79.79v.054l-23.04.289-28.02-.343z"/><path opacity=".03" fill-rule="evenodd" id="bj" d="m61.708 73.67h42.545l-20.959-.337z"/><path opacity=".03" fill="#fff" fill-rule="evenodd" id="bk" d="m61.708 73.67h42.545l-20.959.293z"/><path opacity=".03" fill-rule="evenodd" id="bl" d="m88.28 76.25l15.659.281v.21h-43.675z"/><path opacity=".03" fill="#fff" fill-rule="evenodd" id="bm" d="m103.94 76.74v.18l-15.659.248-28.02-.428z"/><path opacity=".041" fill-rule="evenodd" id="bn" d="m97.1 74.65h-54.34l26.767-.337z"/><path opacity=".041" fill="#fff" fill-rule="evenodd" id="bo" d="m97.1 74.66h-54.34l26.767.293z"/><path opacity=".03" fill-rule="evenodd" id="bp" d="m100.95 78.999h-54.34l26.767-.27z"/><path opacity=".03" fill="#fff" fill-rule="evenodd" id="bq" d="m100.95 79.01h-54.34l26.767.235z"/><path opacity=".041" fill-rule="evenodd" id="br" d="m30.485 61.5h63.876l-31.467-.27z"/><path opacity=".041" fill="#fff" fill-rule="evenodd" id="bs" d="m30.485 61.51h63.876l-31.467.235z"/><path opacity=".041" fill-rule="evenodd" id="bt" d="m70.38 63.57l31.3.303v.094h-73.36z"/><path opacity=".06" fill="#fff" fill-rule="evenodd" id="bu" d="m103.94 63.971v.081l-20.848.262-28.02-.343z"/><path opacity=".06" fill-rule="evenodd" id="bv" d="m82.48 58.831l20.21.195v.198h-62.27z"/><path opacity=".06" fill="#fff" fill-rule="evenodd" id="bw" d="m102.69 59.23v.171l-20.21.168-42.06-.34z"/></defs><path opacity=".381" fill="url(#a)" d="M127.82442 115.70919A63.912209 12.641975 0 1 1 0 115.70919 63.912209 12.641975 0 1 1 127.82442 115.70919" transform="matrix(1.0013 0 0 .41035.002 75.33)"/><path fill="#fff" fill-opacity=".757" d="m50.893 3.281v-2.795"/><path fill="url(#h)" d="m64 4c-17.675 0-32 14.476-32 32.34 0 17.868 0 23.656 0 23.656h11.75c0-8.236 0-23.813 0-23.813 0-11.11 9.09-20.16 20.25-20.16 11.1 0 20.15 8.941 20.25 19.969h11.75c-.183-17.708-14.441-32-32-32"/><path fill="url(#j)" d="m32 36.35c0 17.868 0 23.646 0 23.646h1.827c0 0 0-5.779 0-23.646 0-17.868 13.508-32.352 30.17-32.352-17.673 0-31.999 14.485-31.999 32.352"/><path fill="url(#i)" d="m67.09 4.156c15.11 1.645 26.931 15.25 27.09 31.844h1.813c-.173-16.658-12.793-30.28-28.906-31.844"/><path fill="url(#g)" d="m65.66 9.313c-16.17 0-26.781 9.631-26.781 26.438 0 0 0 18.03 0 24.25h4.094c0-6.245 0-24.438 0-24.438 0-12.886 10.18-23.375 22.688-23.375 12.505 0 22.688 10.489 22.688 23.375 0 0 0 .426 0 .438h2.813c0-.004 0-.25 0-.25-.002-16.806-9.334-26.438-25.5-26.438"/><path fill="url(#f)" d="m62.56 11.531c-14.353.555-23.688 9.706-23.688 25.281 0 0 0 17.236 0 23.19h3.844c0-5.975 0-23.375 0-23.375 0-12.326 9.533-22.375 21.25-22.375 11.521 0 20.904 9.709 21.22 21.75h2.656c-.289-15.577-8.983-24.469-23.875-24.469-.473 0-.943-.018-1.406 0"/><path fill="url(#e)" d="m64 6c-15.812 0-28.625 13.921-28.625 29.906 0 12.913 0 21.329 0 24.09h1.281c0-4.055 0-11.392 0-21.469 0-15.982 11.531-28.938 27.344-28.938 16.321 0 26.348 10.155 27.28 26.406h1.344v-.969c0-16.682-12.31-29.03-28.625-29.03"/><path fill="url(#d)" d="m-104 56h80v64h-80z" transform="scale(-1 1)"/><g transform="translate(-2.586)"><g fill-rule="evenodd"><path opacity=".03" d="m63.01 91.46h42.545l-20.959-.27z"/><path opacity=".03" fill="#fff" d="m103.94 91.46v.017l-19.349.219-21.586-.235z"/></g><use xlink:href="#l"/><use xlink:href="#m"/><use xlink:href="#n"/><use xlink:href="#o"/><use xlink:href="#l"/><use xlink:href="#m"/><use xlink:href="#n"/><use xlink:href="#o"/><g fill-rule="evenodd"><path opacity=".03" d="m91.98 86.45l11.96.155v.118h-33.546z"/><path opacity=".03" fill="#fff" d="m103.94 86.73v.101l-11.96.131-21.586-.232z"/></g><use xlink:href="#p"/><use xlink:href="#q"/><use xlink:href="#p"/><use xlink:href="#q"/><g fill-rule="evenodd"><path opacity=".03" d="m98.41 92.25h-54.34l26.767-.27z"/><path opacity=".03" fill="#fff" d="m98.41 92.25h-54.34l26.767.235z"/><path opacity=".03" d="m99.24 94.7h-70.52l34.741-.393z"/><path opacity=".03" fill="#fff" d="m99.24 94.71h-70.52l34.741.342z"/></g><use xlink:href="#r"/><use xlink:href="#s"/><use xlink:href="#t"/><use xlink:href="#u"/><use xlink:href="#r"/><use xlink:href="#s"/><use xlink:href="#t"/><use xlink:href="#u"/><g fill-rule="evenodd"><path opacity=".03" d="m105.79 87.51h-54.34l26.767-.27z"/><path opacity=".03" fill="#fff" d="m103.95 87.51v.017l-25.723.219-26.768-.235z"/><path opacity=".03" d="m106.59 89.96h-69.48l34.23-.393z"/><path opacity=".03" fill="#fff" d="m103.94 89.97v.037l-32.09.306-34.739-.343z"/></g><use xlink:href="#v"/><use xlink:href="#w"/><use xlink:href="#x"/><use xlink:href="#y"/><use xlink:href="#z"/><path opacity=".03" fill="#fff" fill-rule="evenodd" d="m104.72 87.7h-70.52l34.741.342z"/><use xlink:href="#v"/><use xlink:href="#w"/><use xlink:href="#x"/><use xlink:href="#y"/><use xlink:href="#z"/><g fill-rule="evenodd"><path opacity=".03" fill="#fff" d="m103.95 87.7v.007l-35.01.336-34.742-.343z"/><path opacity=".03" d="m57.24 100.3h42.545l-20.959-.27z"/><path opacity=".03" fill="#fff" d="m57.24 100.31h42.545l-20.959.235z"/><path opacity=".03" d="m83.81 102.37l20.13.292v.101h-48.15z"/><path opacity=".03" fill="#fff" d="m103.94 102.77v.087l-20.13.252-28.02-.34z"/></g><use xlink:href="#A"/><use xlink:href="#B"/><use xlink:href="#C"/><use xlink:href="#D"/><use xlink:href="#A"/><use xlink:href="#B"/><use xlink:href="#C"/><use xlink:href="#D"/><g fill-rule="evenodd"><path opacity=".03" d="m86.21 95.3l17.732.229v.04h-39.32z"/><path opacity=".03" fill="#fff" d="m103.94 95.57v.037l-17.732.198-21.59-.235z"/></g><use xlink:href="#E"/><use xlink:href="#F"/><use xlink:href="#G"/><use xlink:href="#H"/><use xlink:href="#E"/><use xlink:href="#F"/><use xlink:href="#G"/><use xlink:href="#H"/><g fill-rule="evenodd"><path opacity=".03" d="m92.63 101.09h-54.34l26.767-.27z"/><path opacity=".03" fill="#fff" d="m92.63 101.1h-54.34l26.767.235z"/><path opacity=".03" d="m57.688 103.15l35.784.393h-62.714v-.087z"/><path opacity=".02" fill="#fff" d="m93.47 103.56l-35.784.343-26.93-.266v-.077z"/></g><use xlink:href="#I"/><use xlink:href="#J"/><use xlink:href="#K"/><use xlink:href="#L"/><use xlink:href="#I"/><use xlink:href="#J"/><use xlink:href="#K"/><use xlink:href="#L"/><g fill-rule="evenodd"><path opacity=".03" d="m100.02 96.35h-54.34l26.767-.27z"/><path opacity=".03" fill="#fff" d="m100.02 96.36h-54.34l26.767.235z"/><path opacity=".03" d="m100.86 98.81h-70.52l34.741-.393z"/><path opacity=".03" fill="#fff" d="m100.86 98.82h-70.52l34.741.342z"/></g><use xlink:href="#M"/><use xlink:href="#N"/><g fill-rule="evenodd"><path opacity=".03" d="m62.16 96.14l35.784.393h-67.19v-.037z"/><path opacity=".03" fill="#fff" d="m97.94 96.55l-35.784.343-31.402-.309v-.034z"/></g><use xlink:href="#M"/><use xlink:href="#N"/><g fill-rule="evenodd"><path opacity=".03" d="m97.94 96.54h-66.64l32.826-.393z"/><path opacity=".03" fill="#fff" d="m97.94 96.55h-66.64l32.826.342z"/><path opacity=".02" d="m61.09 105.93h42.545l-20.959-.27z"/><path opacity=".02" fill="#fff" d="m61.09 105.94h42.545l-20.959.235z"/><path opacity=".02" d="m87.66 108l16.28.235v.158h-44.3z"/><path opacity=".02" fill="#fff" d="m103.94 108.4v.138l-16.28.205-28.02-.343z"/></g><use xlink:href="#O"/><use xlink:href="#P"/><use xlink:href="#Q"/><use xlink:href="#R"/><use xlink:href="#O"/><use xlink:href="#P"/><use xlink:href="#Q"/><use xlink:href="#R"/><g fill-rule="evenodd"><path opacity=".03" d="m90.06 100.92l13.884.182v.091h-35.47z"/><path opacity=".03" fill="#fff" d="m103.94 101.2v.077l-13.884.155-21.586-.232z"/></g><use xlink:href="#S"/><use xlink:href="#T"/><use xlink:href="#S"/><use xlink:href="#T"/><g fill-rule="evenodd"><path opacity=".02" d="m96.48 106.72h-54.34l26.767-.27z"/><path opacity=".02" fill="#fff" d="m96.48 106.73h-54.34l26.767.235z"/><path opacity=".02" d="m61.54 108.79l35.78.393h-66.56v-.044z"/><path opacity=".02" fill="#fff" d="m97.32 109.19l-35.78.343-30.781-.303v-.04z"/></g><use xlink:href="#U"/><use xlink:href="#V"/><use xlink:href="#W"/><use xlink:href="#X"/><use xlink:href="#U"/><use xlink:href="#V"/><use xlink:href="#W"/><use xlink:href="#X"/><g fill-rule="evenodd"><path opacity=".03" d="m103.87 101.98h-54.34l26.767-.27z"/><path opacity=".03" fill="#fff" d="m103.87 101.99h-54.34l26.767.235z"/><path opacity=".03" d="m46.852 102.88l35.784.393h-51.878v-.212z"/><path opacity=".03" fill="#fff" d="m82.64 103.28l-35.784.343-16.09-.158v-.185z"/><path opacity=".02" d="m105.71 104.44h-70.52l34.741-.393z"/><path opacity=".02" fill="#fff" d="m105.71 104.45h-70.52l34.741.342z"/></g><use xlink:href="#Y"/><use xlink:href="#Z"/><use xlink:href="#0"/><use xlink:href="#1"/><use xlink:href="#Y"/><use xlink:href="#Z"/><use xlink:href="#0"/><use xlink:href="#1"/><g fill-rule="evenodd"><path opacity=".01" d="m55.31 114.78h42.545l-20.959-.27z"/><path opacity=".01" fill="#fff" d="m55.31 114.78h42.545l-20.959.235z"/><path opacity=".01" d="m53.872 117.24h48.14l-20.12-.393z"/><path opacity=".01" fill="#fff" d="m53.872 117.25l47.877.22-19.86.122z"/></g><use xlink:href="#2"/><use xlink:href="#3"/><g fill-rule="evenodd"><path opacity=".01" d="m50.956 114.96h55.22l-27.2-.393z"/><path opacity=".01" fill="#fff" d="m50.956 114.97l52.53.055-27.2.342z"/></g><use xlink:href="#2"/><use xlink:href="#3"/><g fill-rule="evenodd"><path opacity=".01" d="m50.956 114.96l52.5.183-24.479-.577z"/><path opacity=".01" fill="#fff" d="m103.94 114.97v.027l-24.972.316-28.02-.343z"/><path opacity=".02" d="m62.7 110.04h42.545l-20.959-.27z"/><path opacity=".02" fill="#fff" d="m62.7 110.05h42.545l-20.959.235z"/></g><use xlink:href="#4"/><use xlink:href="#5"/><use xlink:href="#6"/><use xlink:href="#7"/><use xlink:href="#4"/><use xlink:href="#5"/><use xlink:href="#6"/><use xlink:href="#7"/><g fill-rule="evenodd"><path opacity=".01" d="m90.71 115.57h-54.34l26.767-.27z"/><path opacity=".01" fill="#fff" d="m90.71 115.57h-54.34l26.767.235z"/></g><use xlink:href="#8"/><use xlink:href="#9"/><use xlink:href="#8"/><use xlink:href="#9"/><g fill-rule="evenodd"><path opacity=".02" d="m98.1 110.83h-54.34l26.767-.27z"/><path opacity=".02" fill="#fff" d="m98.1 110.83h-54.34l26.767.235z"/><path opacity=".01" d="m98.93 113.29h-70.52l34.741-.393z"/><path opacity=".01" fill="#fff" d="m98.93 113.3h-70.52l34.741.342z"/></g><use xlink:href="#aa"/><use xlink:href="#ab"/><g fill-rule="evenodd"><path opacity=".02" d="m60.24 110.62l35.784.393h-65.26v-.061z"/><path opacity=".01" fill="#fff" d="m96.02 111.02l-35.784.343-29.478-.292v-.05z"/></g><use xlink:href="#aa"/><use xlink:href="#ab"/><g fill-rule="evenodd"><path opacity=".02" d="m96.02 111.01h-65.22l32.13-.393z"/><path opacity=".01" fill="#fff" d="m96.02 111.02h-65.22l32.13.342z"/><path opacity=".041" d="m101.44 78.888h-70.52l34.741-.393z"/><path opacity=".041" fill="#fff" d="m101.44 78.897h-70.52l34.741.342z"/><path opacity=".03" d="m59.44 84.49h42.545l-20.959-.27z"/><path opacity=".03" fill="#fff" d="m59.44 84.49h42.545l-20.959.235z"/><path opacity=".03" d="m86.01 86.55l17.931.259v.134h-45.947z"/><path opacity=".03" fill="#fff" d="m103.94 86.955v.118l-17.931.225-28.02-.343z"/></g><use xlink:href="#ac"/><use xlink:href="#ad"/><use xlink:href="#ae"/><use xlink:href="#af"/><use xlink:href="#ac"/><use xlink:href="#ad"/><use xlink:href="#ae"/><use xlink:href="#af"/><g fill-rule="evenodd"><path opacity=".03" d="m88.41 79.48l15.532.198v.071h-37.12z"/><path opacity=".03" fill="#fff" d="m103.94 79.75v.061l-15.532.175-21.59-.235z"/></g><use xlink:href="#ag"/><use xlink:href="#ah"/><use xlink:href="#ag"/><use xlink:href="#ah"/><g fill-rule="evenodd"><path opacity=".03" d="m94.83 85.28h-54.34l26.767-.27z"/><path opacity=".03" fill="#fff" d="m94.83 85.28h-54.34l26.767.235z"/><path opacity=".03" d="m59.888 87.34l35.784.393h-64.913v-.064z"/><path opacity=".03" fill="#fff" d="m95.67 87.74l-35.784.343-29.13-.289v-.054z"/></g><use xlink:href="#ai"/><use xlink:href="#aj"/><g fill-rule="evenodd"><path opacity=".03" d="m56.971 85.07l35.784.393h-61.997v-.097z"/><path opacity=".03" fill="#fff" d="m92.75 85.47l-35.784.343-26.21-.259v-.084z"/></g><use xlink:href="#ai"/><use xlink:href="#aj"/><g fill-rule="evenodd"><path opacity=".03" d="m102.22 80.54h-54.34l26.767-.27z"/><path opacity=".03" fill="#fff" d="m102.22 80.54h-54.34l26.767.235z"/><path opacity=".041" d="m104.06 82.995h-70.52l34.741-.393z"/><path opacity=".041" fill="#fff" d="m104.06 83h-70.52l34.741.342z"/><path opacity=".041" d="m100.14 80.72h-70.52l34.741-.393z"/><path opacity=".041" fill="#fff" d="m100.14 80.73h-70.52l34.741.342z"/><path opacity=".041" d="m100.14 80.72h-68.4l33.697-.393z"/><path opacity=".041" fill="#fff" d="m100.14 80.73h-68.4l33.697.342z"/></g><g opacity=".03" transform="matrix(-.05296 0 0 .07002-49.23 67.16)"><use xlink:href="#ak"/><use xlink:href="#al" transform="matrix(-1.27715 0 0 1.53638-2802.14-1592.59)"/></g><g opacity=".03" transform="matrix(-.05296 0 0 .07002-47.44 64.883)"><use xlink:href="#ak"/><use xlink:href="#am"/></g><g opacity=".03" transform="matrix(-.06874 0 0 .10199-77.72 56.11)"><use xlink:href="#an" transform="matrix(-.98401 0 0 1.05478-2573.48-985.06)"/><use xlink:href="#ao" transform="matrix(-.98401 0 0 1.05478-2573.48-985.06)"/></g><g opacity=".03" transform="matrix(-.05296 0 0 .07002-47.44 64.883)"><use xlink:href="#ak"/><use xlink:href="#am"/></g><g opacity=".03" transform="matrix(-.06874 0 0 .10199-77.72 56.11)"><use xlink:href="#an" transform="matrix(-.98401 0 0 1.05478-2573.48-985.06)"/><use xlink:href="#ao" transform="matrix(-.98401 0 0 1.05478-2573.48-985.06)"/></g><g opacity=".03" transform="matrix(-.05296 0 0 .07002-53.759 62.42)"><use xlink:href="#ap" transform="matrix(-1.27715 0 0 1.53638-2887.65-1524.91)"/><use xlink:href="#aq" transform="matrix(-1.27715 0 0 1.53638-2887.65-1524.91)"/></g><g opacity=".041" transform="matrix(-.05296 0 0 .07002-51.971 60.14)"><use xlink:href="#ar" transform="matrix(-1.27715 0 0 1.53638-2853.9-1492.42)"/><use xlink:href="#as" transform="matrix(-1.27715 0 0 1.53638-2853.9-1492.42)"/></g><g opacity=".041" transform="matrix(-.05296 0 0 .07002-51.971 60.14)"><use xlink:href="#ar" transform="matrix(-1.27715 0 0 1.53638-2853.9-1492.42)"/><use xlink:href="#as" transform="matrix(-1.27715 0 0 1.53638-2853.9-1492.42)"/></g><g opacity=".03" transform="matrix(.06764 0 0 .07002 168.28 67.945)"><use xlink:href="#ak"/><use xlink:href="#am"/></g><g opacity=".03" transform="matrix(.08779 0 0 .10199 206.96 59.17)"><use xlink:href="#ak"/><use xlink:href="#am"/></g><g opacity=".03" transform="matrix(.06764 0 0 .07002 170.07 65.67)"><use xlink:href="#ak"/><use xlink:href="#am"/></g><g opacity=".03" transform="matrix(.08779 0 0 .10199 208.74 56.9)"><use xlink:href="#at" transform="matrix(.77047 0 0 1.05478-1236.67-992.79)"/><use xlink:href="#au" transform="matrix(.77047 0 0 1.05478-1236.67-992.79)"/></g><g opacity=".03" transform="matrix(.06764 0 0 .07002 170.07 65.67)"><use xlink:href="#ak"/><use xlink:href="#am"/></g><g opacity=".03" transform="matrix(.08779 0 0 .10199 208.74 56.9)"><use xlink:href="#at" transform="matrix(.77047 0 0 1.05478-1236.67-992.79)"/><use xlink:href="#au" transform="matrix(.77047 0 0 1.05478-1236.67-992.79)"/></g><g opacity=".03" transform="matrix(.06764 0 0 .07002 162.75 63.21)"><use xlink:href="#ak"/><use xlink:href="#av" transform="matrix(1 0 0 1.53638-939.95-1536.16)"/></g><g opacity=".03" transform="matrix(.08779 0 0 .10199 201.43 54.44)"><use xlink:href="#ak"/><use xlink:href="#aw" transform="matrix(.77047 0 0 1.05478-1164.72-968.63)"/></g><g opacity=".03" transform="matrix(.06764 0 0 .07002 164.54 60.932)"><use xlink:href="#ak"/><use xlink:href="#am"/></g><g opacity=".03" transform="matrix(.08779 0 0 .10199 217.75 50.994)"><use xlink:href="#ax" transform="matrix(.77047 0 0 1.05478-1339.24-934.88)"/><use xlink:href="#ay" transform="matrix(.77047 0 0 1.05478-1339.24-934.88)"/></g><g opacity=".03" transform="matrix(.08779 0 0 .10199 203.21 52.16)"><use xlink:href="#ak"/><use xlink:href="#am"/></g><g opacity=".03" transform="matrix(.06764 0 0 .07002 164.54 60.932)"><use xlink:href="#ak"/><use xlink:href="#am"/></g><g opacity=".03" transform="matrix(.08779 0 0 .10199 217.75 50.994)"><use xlink:href="#ax" transform="matrix(.77047 0 0 1.05478-1339.24-934.88)"/><use xlink:href="#ay" transform="matrix(.77047 0 0 1.05478-1339.24-934.88)"/></g><g opacity=".03" transform="matrix(.08779 0 0 .10199 203.21 52.16)"><use xlink:href="#ak"/><use xlink:href="#az" transform="matrix(.77047 0 0 1.05478-1185.09-946.33)"/></g><g opacity=".03" transform="matrix(-.05296 0 0 .07002-44.689 76)"><use xlink:href="#ak"/><use xlink:href="#am"/></g><g opacity=".03" fill-rule="evenodd" transform="matrix(.06764 0 0 .10757 99.17-44.35)"><path opacity=".377" d="m-836.03 1366.63l-182.47 2.719v.937h436.41z"/><path opacity=".377" fill="#fff" d="m-1018.5 1370.38v.813l182.47 2.344 253.94-3.156z"/></g><g opacity=".03" transform="matrix(-.05296 0 0 .07002-42.902 73.73)"><use xlink:href="#ak"/><use xlink:href="#am"/></g><g opacity=".03" transform="matrix(-.06874 0 0 .10199-74.18 64.958)"><use xlink:href="#aA" transform="matrix(-.98401 0 0 1.05478-2521.99-1071.8)"/><use xlink:href="#aB" transform="matrix(-.98401 0 0 1.05478-2521.99-1071.8)"/></g><g opacity=".03" transform="matrix(-.05296 0 0 .07002-42.902 73.73)"><use xlink:href="#ak"/><use xlink:href="#am"/></g><g opacity=".03" transform="matrix(-.06874 0 0 .10199-74.18 64.958)"><use xlink:href="#aA" transform="matrix(-.98401 0 0 1.05478-2521.99-1071.8)"/><use xlink:href="#aB" transform="matrix(-.98401 0 0 1.05478-2521.99-1071.8)"/></g><g opacity=".03" transform="matrix(-.05296 0 0 .07002-50.22 71.26)"><use xlink:href="#aC" transform="matrix(-1.27715 0 0 1.53638-2820.82-1651.25)"/><use xlink:href="#aD" transform="matrix(-1.27715 0 0 1.53638-2820.82-1651.25)"/></g><g opacity=".03" transform="matrix(-.05296 0 0 .07002-48.43 68.99)"><use xlink:href="#ak"/><use xlink:href="#am"/></g><g opacity=".03" transform="matrix(-.06874 0 0 .10199-78.71 60.22)"><use xlink:href="#aE" transform="matrix(-.98401 0 0 1.05478-2587.87-1025.33)"/><use xlink:href="#aF" transform="matrix(-.98401 0 0 1.05478-2587.87-1025.33)"/></g><g opacity=".03" transform="matrix(-.05296 0 0 .07002-48.43 68.99)"><use xlink:href="#ak"/><use xlink:href="#am"/></g><g opacity=".03" transform="matrix(-.06874 0 0 .10199-78.71 60.22)"><use xlink:href="#aE" transform="matrix(-.98401 0 0 1.05478-2587.87-1025.33)"/><use xlink:href="#aF" transform="matrix(-.98401 0 0 1.05478-2587.87-1025.33)"/></g><g opacity=".03" transform="matrix(.06764 0 0 .07002 171.82 76.79)"><use xlink:href="#ak"/><use xlink:href="#am"/></g><g opacity=".02" fill-rule="evenodd" transform="matrix(.06764 0 0 .10757 100.18-44.35)"><path opacity=".377" d="m-608.31 1373.94l-324.34 3.656h568.44v-.813z"/><path opacity=".377" fill="#fff" d="m-932.66 1377.69l324.34 3.188 244.09-2.469v-.719z"/></g><g opacity=".03" transform="matrix(.06764 0 0 .07002 173.61 74.52)"><use xlink:href="#ak"/><use xlink:href="#am"/></g><g opacity=".03" transform="matrix(.08779 0 0 .10199 212.28 65.746)"><use xlink:href="#aG" transform="matrix(.77047 0 0 1.05478-1276.99-1079.53)"/><use xlink:href="#aH" transform="matrix(.77047 0 0 1.05478-1276.99-1079.53)"/></g><g opacity=".03" transform="matrix(.06764 0 0 .07002 173.61 74.52)"><use xlink:href="#ak"/><use xlink:href="#am"/></g><g opacity=".03" transform="matrix(.08779 0 0 .10199 212.28 65.746)"><use xlink:href="#aG" transform="matrix(.77047 0 0 1.05478-1276.99-1079.53)"/><use xlink:href="#aH" transform="matrix(.77047 0 0 1.05478-1276.99-1079.53)"/></g><g opacity=".03" transform="matrix(.06764 0 0 .07002 167.29 72.05)"><use xlink:href="#ak"/><use xlink:href="#am"/></g><g opacity=".03" transform="matrix(.08779 0 0 .10199 204.97 63.28)"><use xlink:href="#ak"/><use xlink:href="#am"/></g><g opacity=".03" transform="matrix(.06764 0 0 .07002 169.08 69.778)"><use xlink:href="#ak"/><use xlink:href="#am"/></g><g opacity=".03" transform="matrix(.08779 0 0 .10199 207.75 61.01)"><use xlink:href="#aI" transform="matrix(.77047 0 0 1.05478-1225.4-1033.06)"/><use xlink:href="#aJ" transform="matrix(.77047 0 0 1.05478-1225.4-1033.06)"/></g><g opacity=".03" transform="matrix(.06764 0 0 .07002 169.08 69.778)"><use xlink:href="#ak"/><use xlink:href="#am"/></g><g opacity=".03" transform="matrix(.08295 0 0 .10199 198.2 61.01)"><use xlink:href="#ak"/><use xlink:href="#am"/></g><g opacity=".02" transform="matrix(-.05296 0 0 .07002-48.05 81.63)"><use xlink:href="#ak"/><use xlink:href="#am"/></g><g opacity=".02" fill-rule="evenodd" transform="matrix(.06764 0 0 .10757 99.17-44.35)"><path opacity=".377" d="m-870.94 1418.94l-147.56 2.188v1.469h401.53z"/><path opacity=".377" fill="#fff" d="m-1018.5 1422.69v1.281l147.56 1.906 253.97-3.188z"/></g><g opacity=".02" transform="matrix(-.05296 0 0 .07002-46.26 79.36)"><use xlink:href="#ak"/><use xlink:href="#am"/></g><g opacity=".02" transform="matrix(-.06874 0 0 .10199-76.54 70.59)"><use xlink:href="#aK" transform="matrix(-.98401 0 0 1.05478-2556.32-1126.99)"/><use xlink:href="#aL" transform="matrix(-.98401 0 0 1.05478-2556.32-1126.99)"/></g><g opacity=".02" transform="matrix(-.05296 0 0 .07002-46.26 79.36)"><use xlink:href="#ak"/><use xlink:href="#am"/></g><g opacity=".02" transform="matrix(-.06874 0 0 .10199-76.54 70.59)"><use xlink:href="#aK" transform="matrix(-.98401 0 0 1.05478-2556.32-1126.99)"/><use xlink:href="#aL" transform="matrix(-.98401 0 0 1.05478-2556.32-1126.99)"/></g><g opacity=".03" fill-rule="evenodd" transform="matrix(.06764 0 0 .10757 99.18-44.35)"><path opacity=".377" d="m-892.66 1353.19l-125.84 1.688v.844h321.5z"/><path opacity=".377" fill="#fff" d="m-1018.5 1355.78v.719l125.84 1.438 195.66-2.156z"/></g><g opacity=".03" transform="matrix(-.05296 0 0 .07002-50.791 74.62)"><use xlink:href="#aM" transform="matrix(-1.27715 0 0 1.53638-2831.62-1699.16)"/><use xlink:href="#aN" transform="matrix(-1.27715 0 0 1.53638-2831.62-1699.16)"/></g><g opacity=".03" transform="matrix(-.05296 0 0 .07002-50.791 74.62)"><use xlink:href="#aM" transform="matrix(-1.27715 0 0 1.53638-2831.62-1699.16)"/><use xlink:href="#aN" transform="matrix(-1.27715 0 0 1.53638-2831.62-1699.16)"/></g><g opacity=".02" transform="matrix(.06764 0 0 .07002 169.46 82.42)"><use xlink:href="#ak"/><use xlink:href="#am"/></g><g opacity=".02" fill-rule="evenodd" transform="matrix(.06764 0 0 .10757 100.18-44.35)"><path opacity=".377" d="m-643.22 1426.28l-324.31 3.656h603.31v-.406z"/><path opacity=".377" fill="#fff" d="m-967.53 1430.03l324.31 3.188 279-2.813v-.375z"/></g><g opacity=".02" transform="matrix(.06764 0 0 .07002 171.25 80.15)"><use xlink:href="#ak"/><use xlink:href="#am"/></g><g opacity=".02" transform="matrix(.08779 0 0 .10199 209.92 71.38)"><use xlink:href="#aO" transform="matrix(.77047 0 0 1.05478-1250.11-1134.72)"/><use xlink:href="#aP" transform="matrix(.77047 0 0 1.05478-1250.11-1134.72)"/></g><g opacity=".02" transform="matrix(.06764 0 0 .07002 171.25 80.15)"><use xlink:href="#ak"/><use xlink:href="#am"/></g><g opacity=".02" transform="matrix(.08779 0 0 .10199 209.92 71.38)"><use xlink:href="#aO" transform="matrix(.77047 0 0 1.05478-1250.11-1134.72)"/><use xlink:href="#aP" transform="matrix(.77047 0 0 1.05478-1250.11-1134.72)"/></g><g opacity=".03" transform="matrix(.06764 0 0 .07002 163.93 77.68)"><use xlink:href="#ak"/><use xlink:href="#am"/></g><g opacity=".03" fill-rule="evenodd" transform="matrix(.06764 0 0 .10757 100.18-44.35)"><path opacity=".377" d="m-510.09 1371.38l-324.34 3.656h470.22v-1.969z"/><path opacity=".377" fill="#fff" d="m-834.44 1375.13l324.34 3.188 145.88-1.469v-1.719z"/></g><g opacity=".02" transform="matrix(.08779 0 0 .10199 202.61 68.912)"><use xlink:href="#ak"/><use xlink:href="#am"/></g><g opacity=".03" transform="matrix(.06764 0 0 .07002 165.72 75.41)"><use xlink:href="#ak"/><use xlink:href="#am"/></g><g opacity=".03" transform="matrix(.08779 0 0 .10199 204.39 66.64)"><use xlink:href="#ak"/><use xlink:href="#am"/></g><g opacity=".03" transform="matrix(.06764 0 0 .07002 165.72 75.41)"><use xlink:href="#ak"/><use xlink:href="#am"/></g><g opacity=".03" transform="matrix(.08779 0 0 .10199 204.39 66.64)"><use xlink:href="#ak"/><use xlink:href="#am"/></g><g opacity=".01" transform="matrix(-.05296 0 0 .07002-43.51 90.48)"><use xlink:href="#ak"/><use xlink:href="#am"/></g><g opacity=".01" fill-rule="evenodd" transform="matrix(-.06874 0 0 .10199-74.79 81.71)"><path opacity=".377" d="m-1975.21 351.24h429.37l-179.48-3.858z"/><path opacity=".377" fill="#fff" d="m-1975.21 351.33l427.02 2.154-177.13 1.199z"/></g><g opacity=".01" transform="matrix(-.05296 0 0 .07002-41.722 88.2)"><use xlink:href="#ak"/><use xlink:href="#am"/></g><g opacity=".01" transform="matrix(-.06874 0 0 .10199-73 79.43)"><use xlink:href="#ak"/><path opacity=".377" fill="#fff" fill-rule="evenodd" d="m-1975.21 351.33l468.56.539-242.62 3.354z"/></g><g opacity=".01" transform="matrix(-.05296 0 0 .07002-41.722 88.2)"><use xlink:href="#ak"/><use xlink:href="#am"/></g><g opacity=".01" fill-rule="evenodd" transform="matrix(-.06874 0 0 .10199-73 79.43)"><path opacity=".377" d="m-1975.21 351.24l468.22 1.795-218.33-5.653z"/><path opacity=".377" fill="#fff" d="m-1018.5 1483.78v.25l226.34 2.938 253.94-3.188z" transform="matrix(-.98401 0 0 1.05478-2504.82-1213.73)"/></g><g opacity=".02" transform="matrix(-.05296 0 0 .07002-49.04 85.74)"><use xlink:href="#ak"/><use xlink:href="#am"/></g><g opacity=".02" transform="matrix(-.05296 0 0 .07002-47.25 83.47)"><use xlink:href="#ak"/><use xlink:href="#am"/></g><g opacity=".02" transform="matrix(-.06874 0 0 .10199-77.53 74.69)"><use xlink:href="#aQ" transform="matrix(-.98401 0 0 1.05478-2570.71-1167.27)"/><use xlink:href="#aR" transform="matrix(-.98401 0 0 1.05478-2570.71-1167.27)"/></g><g opacity=".02" transform="matrix(-.05296 0 0 .07002-47.25 83.47)"><use xlink:href="#ak"/><use xlink:href="#am"/></g><g opacity=".02" transform="matrix(-.06874 0 0 .10199-77.53 74.69)"><use xlink:href="#aQ" transform="matrix(-.98401 0 0 1.05478-2570.71-1167.27)"/><use xlink:href="#aR" transform="matrix(-.98401 0 0 1.05478-2570.71-1167.27)"/></g><g opacity=".01" transform="matrix(.06764 0 0 .07002 173 91.27)"><use xlink:href="#ak"/><use xlink:href="#am"/></g><g opacity=".01" transform="matrix(.08779 0 0 .10199 211.67 82.5)"><use xlink:href="#ak"/><use xlink:href="#am"/></g><g opacity=".01" transform="matrix(.06764 0 0 .07002 174.79 88.992)"><use xlink:href="#ak"/><use xlink:href="#am"/></g><g opacity=".01" transform="matrix(.08779 0 0 .10199 213.46 80.22)"><use xlink:href="#ak"/><use xlink:href="#am"/></g><g opacity=".01" transform="matrix(.06764 0 0 .07002 174.79 88.992)"><use xlink:href="#ak"/><use xlink:href="#am"/></g><g opacity=".01" transform="matrix(.08779 0 0 .10199 213.46 80.22)"><use xlink:href="#ak"/><use xlink:href="#am"/></g><g opacity=".02" transform="matrix(.06764 0 0 .07002 168.47 86.53)"><use xlink:href="#ak"/><use xlink:href="#am"/></g><g opacity=".01" transform="matrix(.08779 0 0 .10199 207.15 77.76)"><use xlink:href="#ak"/><use xlink:href="#am"/></g><g opacity=".02" transform="matrix(.06764 0 0 .07002 170.26 84.25)"><use xlink:href="#ak"/><use xlink:href="#am"/></g><g opacity=".01" fill-rule="evenodd" transform="matrix(.06764 0 0 .10757 100.18-44.35)"><path opacity=".377" d="m-631.41 1443.31l-324.34 3.656h591.53v-.563z"/><path opacity=".377" fill="#fff" d="m-955.75 1447.06l324.34 3.188 267.19-2.719v-.469z"/></g><g opacity=".02" transform="matrix(.06764 0 0 .07002 170.26 84.25)"><use xlink:href="#ak"/><use xlink:href="#am"/></g><g opacity=".01" transform="matrix(.08119 0 0 .10199 195.9 75.48)"><use xlink:href="#ak"/><use xlink:href="#am"/></g><g opacity=".041" fill-rule="evenodd" transform="matrix(.06764 0 0 .10757 99.18-44.35)"><path opacity=".377" d="m-908.31 1137.38l-110.19 1.625v2.031h364.16z"/><path opacity=".377" fill="#fff" d="m-1018.5 1141.13v1.75l110.19 1.406 253.97-3.156z"/></g><g opacity=".041" transform="matrix(.08779 0 0 .10199 204.61 43.36)"><use xlink:href="#ak"/><use xlink:href="#am"/></g><g opacity=".041" transform="matrix(-.05296 0 0 .07002-47.04 60.19)"><use xlink:href="#ak"/><use xlink:href="#am"/></g><g opacity=".03" transform="matrix(-.06874 0 0 .10199-77.32 51.42)"><use xlink:href="#aS" transform="matrix(-.98401 0 0 1.05478-2567.61-939.02)"/><use xlink:href="#aT" transform="matrix(-.98401 0 0 1.05478-2567.61-939.02)"/></g><g opacity=".041" transform="matrix(-.05296 0 0 .07002-44.25 57.913)"><use xlink:href="#ak"/><use xlink:href="#am"/></g><g opacity=".041" transform="matrix(-.06874 0 0 .10199-75.53 49.14)"><use xlink:href="#aU" transform="matrix(-.98401 0 0 1.05478-2541.6-916.72)"/><use xlink:href="#aV" transform="matrix(-.98401 0 0 1.05478-2541.6-916.72)"/></g><g opacity=".041" transform="matrix(-.05296 0 0 .07002-44.25 57.913)"><use xlink:href="#ak"/><use xlink:href="#am"/></g><g opacity=".041" transform="matrix(-.06874 0 0 .10199-75.53 49.14)"><use xlink:href="#aU" transform="matrix(-.98401 0 0 1.05478-2541.6-916.72)"/><use xlink:href="#aV" transform="matrix(-.98401 0 0 1.05478-2541.6-916.72)"/></g><g opacity=".041" fill-rule="evenodd" transform="matrix(.06764 0 0 .10757 99.18-44.35)"><path opacity=".377" d="m-877.72 1153.84l-140.78 1.844v.656h336.47z"/><path opacity=".377" fill="#fff" d="m-1018.5 1156.41v.563l140.78 1.625 195.69-2.188z"/></g><g transform="matrix(-.06874 0 0 .10199-80.06 44.4)"><g opacity=".041"><use xlink:href="#aW" transform="matrix(-.98401 0 0 1.05478-2607.49-870.26)"/><use xlink:href="#aX" transform="matrix(-.98401 0 0 1.05478-2607.49-870.26)"/></g><g opacity=".041"><use xlink:href="#aW" transform="matrix(-.98401 0 0 1.05478-2607.49-870.26)"/><use xlink:href="#aX" transform="matrix(-.98401 0 0 1.05478-2607.49-870.26)"/></g></g><g opacity=".03" transform="matrix(.06764 0 0 .07002 170.47 60.976)"><use xlink:href="#ak"/><use xlink:href="#am"/></g><g opacity=".03" transform="matrix(.08779 0 0 .10199 209.15 52.21)"><use xlink:href="#aY" transform="matrix(.77047 0 0 1.05478-1241.27-946.75)"/><use xlink:href="#aZ" transform="matrix(.77047 0 0 1.05478-1241.27-946.75)"/></g><g opacity=".041" transform="matrix(.06764 0 0 .07002 172.26 58.701)"><use xlink:href="#ak"/><use xlink:href="#am"/></g><g opacity=".03" transform="matrix(.08779 0 0 .10199 210.93 49.93)"><use xlink:href="#a0" transform="matrix(.77047 0 0 1.05478-1261.63-924.45)"/><use xlink:href="#a1" transform="matrix(.77047 0 0 1.05478-1261.63-924.45)"/></g><g opacity=".041" transform="matrix(.06764 0 0 .07002 172.26 58.701)"><use xlink:href="#ak"/><use xlink:href="#am"/></g><g opacity=".041" transform="matrix(.06764 0 0 .07002 164.94 56.24)"><use xlink:href="#ak"/><use xlink:href="#am"/></g><g opacity=".041" transform="matrix(.08779 0 0 .10199 203.62 47.47)"><use xlink:href="#ak"/><use xlink:href="#am"/></g><g opacity=".041" transform="matrix(.06764 0 0 .07002 167.73 53.963)"><use xlink:href="#ak"/><use xlink:href="#am"/></g><g opacity=".041" transform="matrix(.08779 0 0 .10199 205.4 45.19)"><use xlink:href="#ak"/><use xlink:href="#am"/></g><g opacity=".041" transform="matrix(.06764 0 0 .07002 167.73 53.963)"><use xlink:href="#ak"/><use xlink:href="#am"/></g><g opacity=".041" transform="matrix(.08515 0 0 .10199 200.19 45.19)"><use xlink:href="#ak"/><use xlink:href="#am"/></g><g fill-rule="evenodd"><path opacity=".041" d="m63.01 71.38h42.545l-20.959-.337z"/><path opacity=".041" fill="#fff" d="m103.94 71.39v.021l-19.349.273-21.586-.294z"/></g><use xlink:href="#a2"/><use xlink:href="#a3"/><use xlink:href="#a4"/><use xlink:href="#a5"/><use xlink:href="#a2"/><use xlink:href="#a3"/><use xlink:href="#a4"/><use xlink:href="#a5"/><g fill-rule="evenodd"><path opacity=".06" d="m91.98 65.739l11.96.155v.118h-33.546z"/><path opacity=".06" fill="#fff" d="m103.94 66.02v.101l-11.96.131-21.586-.232z"/></g><use xlink:href="#a6"/><use xlink:href="#a7"/><use xlink:href="#a6"/><use xlink:href="#a7"/><g fill-rule="evenodd"><path opacity=".041" d="m98.41 72.36h-54.34l26.767-.337z"/><path opacity=".041" fill="#fff" d="m98.41 72.37h-54.34l26.767.293z"/><path opacity=".041" d="m99.24 75.43h-70.52l34.741-.491z"/><path opacity=".041" fill="#fff" d="m99.24 75.44h-70.52l34.741.427z"/></g><use xlink:href="#a8"/><use xlink:href="#a9"/><use xlink:href="#ba"/><use xlink:href="#bb"/><use xlink:href="#a8"/><use xlink:href="#a9"/><use xlink:href="#ba"/><use xlink:href="#bb"/><g fill-rule="evenodd"><path opacity=".06" d="m105.79 66.798h-54.34l26.767-.27z"/><path opacity=".06" fill="#fff" d="m103.95 66.805v.017l-25.723.218-26.768-.235z"/><path opacity=".041" d="m106.01 69.52h-68.897l33.94-.491z"/><path opacity=".041" fill="#fff" d="m103.94 69.53v.046l-32.09.382-34.739-.428z"/></g><use xlink:href="#bc"/><use xlink:href="#bd"/><use xlink:href="#be"/><use xlink:href="#bf"/><use xlink:href="#bg"/><path opacity=".041" fill="#fff" fill-rule="evenodd" d="m104.72 66.991h-70.52l34.741.342z"/><use xlink:href="#bc"/><use xlink:href="#bd"/><use xlink:href="#be"/><use xlink:href="#bf"/><use xlink:href="#bg"/><g fill-rule="evenodd"><path opacity=".041" fill="#fff" d="m103.95 66.99v.007l-35.01.336-34.742-.343z"/><path opacity=".03" d="m57.24 79.59h42.545l-20.959-.27z"/><path opacity=".03" fill="#fff" d="m57.24 79.6h42.545l-20.959.235z"/></g><use xlink:href="#bh"/><use xlink:href="#bi"/><use xlink:href="#bh"/><use xlink:href="#bi"/><g fill-rule="evenodd"><path opacity=".03" d="m86.21 76.17l17.732.285v.05h-39.32z"/><path opacity=".03" fill="#fff" d="m103.94 76.51v.046l-17.732.248-21.59-.294z"/></g><use xlink:href="#bj"/><use xlink:href="#bk"/><use xlink:href="#bl"/><use xlink:href="#bm"/><use xlink:href="#bj"/><use xlink:href="#bk"/><use xlink:href="#bl"/><use xlink:href="#bm"/><g fill-rule="evenodd"><path opacity=".041" d="m92.63 80.38h-54.34l26.767-.27z"/><path opacity=".03" d="m100.02 77.49h-54.34l26.767-.337z"/><path opacity=".03" fill="#fff" d="m100.02 77.5h-54.34l26.767.293z"/></g><use xlink:href="#bn"/><use xlink:href="#bo"/><path opacity=".041" fill-rule="evenodd" d="m62.16 77.23l35.784.491h-67.19v-.046z"/><use xlink:href="#bn"/><use xlink:href="#bo"/><g fill-rule="evenodd"><path opacity=".041" d="m97.94 77.72h-66.64l32.826-.491z"/><path opacity=".03" d="m90.06 80.21l13.884.182v.091h-35.47z"/></g><use xlink:href="#bp"/><use xlink:href="#bq"/><use xlink:href="#bp"/><use xlink:href="#bq"/><g fill-rule="evenodd"><path opacity=".1" d="m84.43 56.999l18.251.175v.218h-60.32z"/><path opacity=".1" fill="#fff" d="m102.69 57.4v.188l-18.251.151-42.07-.34z"/><path opacity=".06" d="m35.864 63.779h63.876l-31.467-.27z"/><path opacity=".06" fill="#fff" d="m35.864 63.785h63.876l-31.467.235z"/><path opacity=".06" d="m86.01 65.843l17.931.259v.134h-45.947z"/><path opacity=".06" fill="#fff" d="m103.94 66.25v.118l-17.931.225-28.02-.343z"/></g><use xlink:href="#br"/><use xlink:href="#bs"/><use xlink:href="#bt"/><use xlink:href="#bu"/><use xlink:href="#br"/><use xlink:href="#bs"/><use xlink:href="#bt"/><use xlink:href="#bu"/><g fill-rule="evenodd"><path opacity=".1" d="m79.37 58.77l23.319.198v.071h-55.733z"/><path opacity=".06" fill="#fff" d="m102.69 59.05v.061l-23.319.175-32.414-.235z"/><path opacity=".06" d="m42.577 56.766h63.876l-31.467-.27z"/><path opacity=".1" fill="#fff" d="m102.69 56.773v.027l-27.698.205-32.409-.232z"/></g><use xlink:href="#bv"/><use xlink:href="#bw"/><path opacity=".1" fill-rule="evenodd" d="m74.987 56.49l27.698.239v.034h-60.11z"/><use xlink:href="#bv"/><use xlink:href="#bw"/><g fill-rule="evenodd"><path opacity=".06" d="m94.83 64.57h-54.34l26.767-.27z"/><path opacity=".06" fill="#fff" d="m94.83 64.57h-54.34l26.767.235z"/><path opacity=".041" d="m59.888 66.63l35.784.393h-64.913v-.064z"/><path opacity=".041" fill="#fff" d="m95.67 67.03l-35.784.343-29.13-.289v-.054z"/><path opacity=".041" d="m56.971 64.36l35.784.393h-61.997v-.097z"/><path opacity=".041" fill="#fff" d="m92.75 64.761l-35.784.343-26.21-.259v-.084z"/></g><g opacity=".041" transform="matrix(-.05296 0 0 .08738-49.23 41.05)"><use xlink:href="#ak"/><use xlink:href="#al" transform="matrix(-1.27715 0 0 1.53638-2802.14-1592.59)"/></g><g opacity=".041" transform="matrix(-.05296 0 0 .08738-47.44 38.22)"><use xlink:href="#ak"/><use xlink:href="#am"/></g><g opacity=".041" transform="matrix(-.06874 0 0 .12728-77.72 27.27)"><use xlink:href="#an" transform="matrix(-.98401 0 0 1.05478-2573.48-985.06)"/><use xlink:href="#ao" transform="matrix(-.98401 0 0 1.05478-2573.48-985.06)"/></g><g opacity=".041" transform="matrix(-.05296 0 0 .08738-47.44 38.22)"><use xlink:href="#ak"/><use xlink:href="#am"/></g><g opacity=".041" transform="matrix(-.06874 0 0 .12728-77.72 27.27)"><use xlink:href="#an" transform="matrix(-.98401 0 0 1.05478-2573.48-985.06)"/><use xlink:href="#ao" transform="matrix(-.98401 0 0 1.05478-2573.48-985.06)"/></g><g opacity=".041" transform="matrix(-.05296 0 0 .07002-53.759 41.71)"><use xlink:href="#ap" transform="matrix(-1.27715 0 0 1.53638-2887.65-1524.91)"/><use xlink:href="#aq" transform="matrix(-1.27715 0 0 1.53638-2887.65-1524.91)"/></g><g opacity=".041" transform="matrix(-.05296 0 0 .07002-51.971 39.436)"><use xlink:href="#ar" transform="matrix(-1.27715 0 0 1.53638-2853.9-1492.42)"/><use xlink:href="#as" transform="matrix(-1.27715 0 0 1.53638-2853.9-1492.42)"/></g><g opacity=".041" transform="matrix(-.05296 0 0 .07002-51.971 39.436)"><use xlink:href="#ar" transform="matrix(-1.27715 0 0 1.53638-2853.9-1492.42)"/><use xlink:href="#as" transform="matrix(-1.27715 0 0 1.53638-2853.9-1492.42)"/></g><g opacity=".041" transform="matrix(.06764 0 0 .08738 168.28 42.04)"><use xlink:href="#ak"/><use xlink:href="#am"/></g><g opacity=".041" transform="matrix(.08779 0 0 .12728 206.96 31.09)"><use xlink:href="#ak"/><use xlink:href="#am"/></g><g opacity=".041" transform="matrix(.06764 0 0 .08738 170.07 39.2)"><use xlink:href="#ak"/><use xlink:href="#am"/></g><g opacity=".041" transform="matrix(.08779 0 0 .12728 208.74 28.25)"><use xlink:href="#at" transform="matrix(.77047 0 0 1.05478-1236.67-992.79)"/><use xlink:href="#au" transform="matrix(.77047 0 0 1.05478-1236.67-992.79)"/></g><g opacity=".041" transform="matrix(.06764 0 0 .08738 170.07 39.2)"><use xlink:href="#ak"/><use xlink:href="#am"/></g><g opacity=".041" transform="matrix(.08779 0 0 .12728 208.74 28.25)"><use xlink:href="#at" transform="matrix(.77047 0 0 1.05478-1236.67-992.79)"/><use xlink:href="#au" transform="matrix(.77047 0 0 1.05478-1236.67-992.79)"/></g><g opacity=".041" transform="matrix(.06764 0 0 .07002 162.75 42.498)"><use xlink:href="#ak"/><use xlink:href="#av" transform="matrix(1 0 0 1.53638-939.95-1536.16)"/></g><g opacity=".041" transform="matrix(.08779 0 0 .12728 201.43 25.18)"><use xlink:href="#ak"/><use xlink:href="#aw" transform="matrix(.77047 0 0 1.05478-1164.72-968.63)"/></g><g opacity=".041" transform="matrix(.06764 0 0 .07002 164.54 40.22)"><use xlink:href="#ak"/><use xlink:href="#am"/></g><g opacity=".06" transform="matrix(.08779 0 0 .10199 217.75 30.29)"><use xlink:href="#ax" transform="matrix(.77047 0 0 1.05478-1339.24-934.88)"/><use xlink:href="#ay" transform="matrix(.77047 0 0 1.05478-1339.24-934.88)"/></g><g opacity=".041" transform="matrix(.08779 0 0 .10199 203.21 31.453)"><use xlink:href="#ak"/><use xlink:href="#am"/></g><g opacity=".041" transform="matrix(.06764 0 0 .07002 164.54 40.22)"><use xlink:href="#ak"/><use xlink:href="#am"/></g><g opacity=".06" transform="matrix(.08779 0 0 .10199 217.75 30.29)"><use xlink:href="#ax" transform="matrix(.77047 0 0 1.05478-1339.24-934.88)"/><use xlink:href="#ay" transform="matrix(.77047 0 0 1.05478-1339.24-934.88)"/></g><g opacity=".041" transform="matrix(.08779 0 0 .10199 203.21 31.453)"><use xlink:href="#ak"/><use xlink:href="#az" transform="matrix(.77047 0 0 1.05478-1185.09-946.33)"/></g><g opacity=".041" transform="matrix(-.05296 0 0 .07002-44.689 55.3)"><use xlink:href="#ak"/><use xlink:href="#am"/></g><g transform="matrix(-.06874 0 0 .10199-74.18 44.25)"><g opacity=".041"><use xlink:href="#aA" transform="matrix(-.98401 0 0 1.05478-2521.99-1071.8)"/><use xlink:href="#aB" transform="matrix(-.98401 0 0 1.05478-2521.99-1071.8)"/></g><g opacity=".041"><use xlink:href="#aA" transform="matrix(-.98401 0 0 1.05478-2521.99-1071.8)"/><use xlink:href="#aB" transform="matrix(-.98401 0 0 1.05478-2521.99-1071.8)"/></g></g><g opacity=".041" transform="matrix(-.05296 0 0 .08738-50.22 46.18)"><use xlink:href="#aC" transform="matrix(-1.27715 0 0 1.53638-2820.82-1651.25)"/><use xlink:href="#aD" transform="matrix(-1.27715 0 0 1.53638-2820.82-1651.25)"/></g><g opacity=".041" transform="matrix(-.05296 0 0 .08738-48.43 43.34)"><use xlink:href="#ak"/><use xlink:href="#am"/></g><g opacity=".041" transform="matrix(-.06874 0 0 .12728-78.71 32.395)"><use xlink:href="#aE" transform="matrix(-.98401 0 0 1.05478-2587.87-1025.33)"/><use xlink:href="#aF" transform="matrix(-.98401 0 0 1.05478-2587.87-1025.33)"/></g><g opacity=".041" transform="matrix(-.05296 0 0 .08738-48.43 43.34)"><use xlink:href="#ak"/><use xlink:href="#am"/></g><g opacity=".041" transform="matrix(-.06874 0 0 .12728-78.71 32.395)"><use xlink:href="#aE" transform="matrix(-.98401 0 0 1.05478-2587.87-1025.33)"/><use xlink:href="#aF" transform="matrix(-.98401 0 0 1.05478-2587.87-1025.33)"/></g><g opacity=".041" transform="matrix(.06764 0 0 .08738 167.29 47.16)"><use xlink:href="#ak"/><use xlink:href="#am"/></g><g opacity=".041" transform="matrix(.08779 0 0 .10199 204.97 42.574)"><use xlink:href="#ak"/><use xlink:href="#am"/></g><g opacity=".041" transform="matrix(.06764 0 0 .08738 169.08 44.32)"><use xlink:href="#ak"/><use xlink:href="#am"/></g><g opacity=".041" transform="matrix(.08779 0 0 .12728 207.75 33.379)"><use xlink:href="#aI" transform="matrix(.77047 0 0 1.05478-1225.4-1033.06)"/><use xlink:href="#aJ" transform="matrix(.77047 0 0 1.05478-1225.4-1033.06)"/></g><g opacity=".041" transform="matrix(.06764 0 0 .08738 169.08 44.32)"><use xlink:href="#ak"/><use xlink:href="#am"/></g><g opacity=".041" transform="matrix(.08295 0 0 .12728 198.2 33.379)"><use xlink:href="#ak"/><use xlink:href="#am"/></g><g transform="matrix(-.05296 0 0 .07002-50.791 53.911)"><g opacity=".041"><use xlink:href="#aM" transform="matrix(-1.27715 0 0 1.53638-2831.62-1699.16)"/><use xlink:href="#aN" transform="matrix(-1.27715 0 0 1.53638-2831.62-1699.16)"/></g><g opacity=".041"><use xlink:href="#aM" transform="matrix(-1.27715 0 0 1.53638-2831.62-1699.16)"/><use xlink:href="#aN" transform="matrix(-1.27715 0 0 1.53638-2831.62-1699.16)"/></g></g><g opacity=".041" transform="matrix(.06764 0 0 .07002 165.72 54.699)"><use xlink:href="#ak"/><use xlink:href="#am"/></g><g opacity=".041" transform="matrix(.06764 0 0 .07002 165.72 54.699)"><use xlink:href="#ak"/><use xlink:href="#am"/></g><g opacity=".041" transform="matrix(-.05296 0 0 .07002-47.04 39.479)"><use xlink:href="#ak"/><use xlink:href="#am"/></g><g opacity=".041" transform="matrix(-.06874 0 0 .10199-77.32 30.709)"><use xlink:href="#aS" transform="matrix(-.98401 0 0 1.05478-2567.61-939.02)"/><use xlink:href="#aT" transform="matrix(-.98401 0 0 1.05478-2567.61-939.02)"/></g><g opacity=".041" transform="matrix(-.06874 0 0 .10199-75.53 28.434)"><use xlink:href="#aU" transform="matrix(-.98401 0 0 1.05478-2541.6-916.72)"/><use xlink:href="#aV" transform="matrix(-.98401 0 0 1.05478-2541.6-916.72)"/></g><g opacity=".041" transform="matrix(-.06874 0 0 .10199-75.53 28.434)"><use xlink:href="#aU" transform="matrix(-.98401 0 0 1.05478-2541.6-916.72)"/><use xlink:href="#aV" transform="matrix(-.98401 0 0 1.05478-2541.6-916.72)"/></g><g opacity=".06" transform="matrix(.06764 0 0 .07002 170.47 40.27)"><use xlink:href="#ak"/><use xlink:href="#am"/></g><g opacity=".041" transform="matrix(.08779 0 0 .10199 209.15 31.497)"><use xlink:href="#aY" transform="matrix(.77047 0 0 1.05478-1241.27-946.75)"/><use xlink:href="#aZ" transform="matrix(.77047 0 0 1.05478-1241.27-946.75)"/></g><g opacity=".06" transform="matrix(.08779 0 0 .10199 210.93 29.22)"><use xlink:href="#a0" transform="matrix(.77047 0 0 1.05478-1261.63-924.45)"/><use xlink:href="#a1" transform="matrix(.77047 0 0 1.05478-1261.63-924.45)"/></g><g fill-rule="evenodd"><path opacity=".01" d="m30.942 113.54h42.545l-20.959-.27z"/><path opacity=".01" fill="#fff" d="m30.942 113.54h42.545l-20.959.235z"/><path opacity=".01" d="m29.502 115.99h48.14l-20.12-.393z"/><path opacity=".01" fill="#fff" d="m29.502 116l47.877.22-19.86.122z"/><path opacity=".01" d="m26.586 113.72h55.22l-27.2-.393z"/><path opacity=".01" fill="#fff" d="m26.586 113.73l52.53.055-27.2.342z"/><path opacity=".01" d="m28.24 113.72l50.841.183-23.707-.577z"/><path opacity=".01" fill="#fff" d="m79.57 113.73v.027l-24.12.316-27.06-.343z"/></g></g><path fill="url(#c)" d="m100 56c-.572 3.386-16.464 4.88-36 4.88-19.535 0-35.428-1.495-36-4.88z"/><path fill="url(#k)" d="m84.17 34c.108.599.119 1.316.077 2h11.75c.016-.276.015-.556.004-.828-.01-.242-.037-.48-.067-.719-.02-.153-.062-.302-.089-.453z"/></svg>