<svg xmlns="http://www.w3.org/2000/svg" viewBox="0 0 128 128" xmlns:xlink="http://www.w3.org/1999/xlink"><defs><linearGradient id="a" y1="7.03" x1="-1.148" y2="4.144" gradientUnits="userSpaceOnUse" x2="-1.85" gradientTransform="matrix(8.08898 0 0 7.98691 48.22-.134)"><stop stop-color="#b3b3b3"/><stop offset=".529" stop-color="#fff"/><stop offset="1" stop-color="#c5c5c5"/></linearGradient><linearGradient id="b" y1="7.825" y2="4.878" gradientUnits="userSpaceOnUse" x2="0" gradientTransform="matrix(7.54523 0 0 7.47487 9.592 3.507)"><stop stop-color="#0968ef"/><stop offset="1" stop-color="#aecffc"/></linearGradient><linearGradient id="c" y1="64" y2="40" gradientUnits="userSpaceOnUse" x2="0"><stop stop-color="#0057ae"/><stop offset="1" stop-color="#0057ae"/></linearGradient><linearGradient id="d" y1="681" y2="549.33" gradientUnits="userSpaceOnUse" x2="0" gradientTransform="matrix(.11336 0 0 .16915 80.27 151.92)"><stop stop-color="#cbcbcd"/><stop offset=".5" stop-color="#e0e0e2"/><stop offset="1" stop-color="#fff"/></linearGradient><filter id="e"><feGaussianBlur stdDeviation="2.4"/></filter></defs><g transform="translate(-79.63-236.88)"><rect width="120" x="83.63" opacity=".4" y="232.88" rx="1.852" height="120" ry="2.186" filter="url(#e)" transform="matrix(1 0 0 .93333 0 23.525)"/><path fill="url(#d)" d="m87.63 244.88h112v104h-112z"/><g fill="#fff"><path fill-opacity=".757" d="m157.83 266.5v-2.745"/><path d="m87.63 268.88h112v80h-112z"/></g><g id="f"><g transform="translate(79.63 236.88)"><rect x="24" y="40" rx="1.986" ry="2.276" width="24" fill="url(#c)" height="24"/><rect x="26" y="42" rx=".882" ry="1" width="20" fill="url(#b)" height="20"/><g fill-rule="evenodd"><path fill="url(#a)" d="m26 41.967l19.994.088.006 5.945h-6l-7.83 4h-6.02z"/><path opacity=".8" fill="#0057ae" d="m25.912 56h6.088l8-4h6.082l-.082-4h-6l-8 4h-5.914z"/></g></g><g fill="#bbb" fill-rule="evenodd" transform="scale(-1 1)"><path d="m-183.63 276.88h48v8h-48z"/><path d="m-160.63 292.88h24v8h-24z"/></g></g><use width="128" height="128" xlink:href="#f" transform="translate(0 32)"/></g></svg>