<svg xmlns="http://www.w3.org/2000/svg" viewBox="0 0 128 128"><defs><linearGradient id="a" y1="260.75" y2="312.88" x2="0" gradientUnits="userSpaceOnUse" gradientTransform="matrix(2 0 0 1.53846-71.63-132.47)"><stop stop-color="#b3b3b6"/><stop offset="1" stop-color="#cecece"/></linearGradient><linearGradient id="b" y1="681" y2="549.33" gradientUnits="userSpaceOnUse" x2="0" gradientTransform="matrix(.11336 0 0 .16915 80.27 151.92)"><stop stop-color="#cbcbcd"/><stop offset=".5" stop-color="#e0e0e2"/><stop offset="1" stop-color="#fff"/></linearGradient><filter id="c"><feGaussianBlur stdDeviation="2.4"/></filter></defs><g transform="translate(-79.63-236.88)"><rect width="120" x="83.63" opacity=".4" y="232.88" rx="1.852" height="120" ry="2.186" filter="url(#c)" transform="matrix(1 0 0 .93333 0 23.525)"/><path fill="url(#b)" d="m87.63 244.88h112v104h-112z"/><g fill="#fff"><path fill-opacity=".757" d="m157.83 266.5v-2.745"/><path d="m87.63 268.88h112v80h-112z"/></g><g fill-rule="evenodd"><path fill="url(#a)" d="m143.63 268.88h8v80h-8z"/><g fill="#ddd" transform="matrix(-1 0 0 1 287.26 0)"><path d="m143.63 324.88l24 24h-16l-8-8z"/><path d="m143.63 308.88v-16l56 56h-16z"/><path d="m143.63 276.88v-8h8l48 48v16z"/><path d="m167.63 268.88h16l16 16v16z"/></g><path fill="#bf0303" d="m95.63 300.88v8h40v-8z"/></g></g></svg>