<svg xmlns="http://www.w3.org/2000/svg" viewBox="0 0 128 128" xmlns:xlink="http://www.w3.org/1999/xlink"><defs><linearGradient id="a"><stop/><stop offset="1" stop-opacity="0"/></linearGradient><radialGradient fx="64.02" fy="120.68" cx="63.912" cy="115.71" xlink:href="#a" id="b" r="63.912" gradientUnits="userSpaceOnUse" gradientTransform="matrix(1.0768 0 0 .1978-4.908 92.82)"/><radialGradient cx="1055.3" cy="-478.61" xlink:href="#a" id="c" r="5.06" gradientUnits="userSpaceOnUse"/><radialGradient fx="1055.38" fy="-480.43" cx="1055.3" cy="-478.61" id="d" r="5.06" gradientUnits="userSpaceOnUse" gradientTransform="matrix(1.90578-.05568.02832 1.29457-942.32 199.73)"><stop stop-color="#fff"/><stop offset=".5" stop-color="#fff" stop-opacity=".609"/><stop offset="1" stop-color="#fff" stop-opacity="0"/></radialGradient><radialGradient fx="1055.19" fy="-476.08" cx="1055.3" cy="-478.61" id="e" r="5.06" gradientUnits="userSpaceOnUse"><stop stop-color="#e7e7e7"/><stop offset="1" stop-color="#dbdbdb"/></radialGradient><linearGradient id="f" x1="562.64" gradientUnits="userSpaceOnUse" x2="469.26" gradientTransform="matrix(.4871 0 0 .30929-92.33 407.96)"><stop stop-color="#fff"/><stop offset="1" stop-color="#fff" stop-opacity="0"/></linearGradient><linearGradient id="g" x1="575.58" gradientUnits="userSpaceOnUse" x2="469.28" gradientTransform="matrix(.4871 0 0 .30929-92.33 407.96)"><stop stop-color="#666"/><stop offset="1" stop-color="#666" stop-opacity="0"/></linearGradient><linearGradient id="h" y1="731.1" y2="549.06" gradientUnits="userSpaceOnUse" x2="0" gradientTransform="matrix(.1233 0 0 .15346 76.22 169.21)"><stop stop-color="#cbcbcd"/><stop offset=".5" stop-color="#e0e0e2"/><stop offset="1" stop-color="#f2f2f2"/></linearGradient><linearGradient id="i" y1="723.46" x1="297.94" y2="435.03" gradientUnits="userSpaceOnUse" x2="168.36" gradientTransform="matrix(.12333 0 0 .15298 161.52 240.37)"><stop stop-color="#dededf"/><stop offset="1" stop-color="#bbbcbe" stop-opacity="0"/></linearGradient><linearGradient id="j" y1="-.21" x1="-556.6" y2="887.04" gradientUnits="userSpaceOnUse" x2="-11.01" gradientTransform="matrix(.12333 0 0 .15298 170.86 239.27)"><stop stop-color="#fff"/><stop offset=".491" stop-color="#fff"/><stop offset=".516" stop-color="#b1b1b1"/><stop offset="1" stop-color="#636363"/></linearGradient><linearGradient xlink:href="#g" id="k" x1="575.58" gradientUnits="userSpaceOnUse" x2="469.28" gradientTransform="matrix(-.24979 0 0 .30929 235.12 407.96)"/><linearGradient xlink:href="#f" id="l" x1="562.64" gradientUnits="userSpaceOnUse" x2="469.26" gradientTransform="matrix(-.24979 0 0 .30929 235.12 407.96)"/><linearGradient xlink:href="#a" id="m" y1="54.619" y2="57.01" gradientUnits="userSpaceOnUse" x2="0" gradientTransform="matrix(1 0 0 1.5 90.63 257.56)"/><linearGradient xlink:href="#a" id="n" y1="54.619" y2="57.01" gradientUnits="userSpaceOnUse" x2="0" gradientTransform="matrix(1 0 0 1.5 90.63 217.56)"/><linearGradient id="o" y1="8" y2="5" gradientUnits="userSpaceOnUse" x2="0" gradientTransform="matrix(1 0 0 .87247 0 .638)"><stop stop-color="#0057ae"/><stop offset="1" stop-color="#0057ae"/></linearGradient><linearGradient id="p" y1="7.825" y2="4.878" gradientUnits="userSpaceOnUse" x2="0" gradientTransform="matrix(1 0 0 .87247 0 .638)"><stop stop-color="#0968ef"/><stop offset="1" stop-color="#aecffc"/></linearGradient><linearGradient id="q" y1="7.03" x1="-1.148" y2="4.144" gradientUnits="userSpaceOnUse" x2="-1.85" gradientTransform="matrix(1 0 0 .87247 4.965.616)"><stop stop-color="#b3b3b3"/><stop offset=".529" stop-color="#fff"/><stop offset="1" stop-color="#c5c5c5"/></linearGradient><path id="r" d="M1060.3605-478.60516A5.060289 5.060289 0 1 1 1050.2399 -478.60516 5.060289 5.060289 0 1 1 1060.3605 -478.60516"/><path opacity=".479" fill="url(#d)" id="s" d="M1060.3605-478.60516A5.060289 4.894668 0 1 1 1050.2399 -478.60516 5.060289 4.894668 0 1 1 1060.3605 -478.60516"/><rect width="3" x="2" opacity="1" y="5" fill="url(#o)" rx=".248" height="2.617" id="t"/><rect width="2.651" x="2.175" opacity="1" y="5.131" fill="url(#p)" rx=".117" height="2.334" id="u"/><path fill="url(#q)" fill-rule="evenodd" id="v" d="m2.274 5.399l2.405.013v.478l-1.661.011-.274.293h-.474z"/><path opacity=".316" fill="url(#q)" fill-rule="evenodd" id="w" d="m2.26 6.427l.509.009.355-.341 1.555.008v-.213l-1.661.011-.274.293h-.474z"/><path opacity=".316" fill="url(#q)" fill-rule="evenodd" id="x" d="m2.36 6.34l.409.009.355-.341 1.455.008.101-.125-1.661.011-.274.293h-.474z"/><path fill-rule="evenodd" id="y" d="m2.298 6.075h.409l.274-.314 1.64-.002.059.13-1.661.011-.274.293h-.474z"/></defs><g transform="translate(-79.63-236.88)"><rect stroke-dashoffset="4" opacity=".2" x="84.09" y="254.55" rx="2.58" stroke-width="4" width="118.55" stroke-linecap="round" fill="none" stroke-linejoin="round" height="94.3" stroke="#000"/><path opacity=".381" fill="url(#b)" d="M127.82442 115.70919A63.912209 12.641975 0 1 1 0 115.70919 63.912209 12.641975 0 1 1 127.82442 115.70919" transform="matrix(1.0014 0 0 .3924 79.8 314.78)"/><g transform="matrix(1.01375 0 0 1.06274-2.847-18.895)"><rect stroke-dashoffset="4" opacity=".25" x="84.14" y="253.42" rx="2.654" stroke-width="1.927" ry="2.58" width="121.98" stroke-linecap="round" fill="none" stroke-linejoin="round" height="94.3" stroke="#000"/><rect x="84.22" y="253.53" rx="2.106" ry="2.139" width="121.82" fill="url(#h)" height="94.35"/><rect stroke-dashoffset="4" x="84.14" y="253.56" rx="2.654" stroke-width=".873" ry="2.58" width="121.98" stroke-linecap="round" fill="url(#i)" stroke-linejoin="round" height="94.3" stroke="url(#j)"/><rect x="89.27" y="274.52" rx="4.335" width="110.46" fill="#fff" height="67.771"/></g><g fill-rule="evenodd"><path fill="url(#g)" d="m136.25 259.74v.309h69.27v-.309z"/><path fill="url(#f)" d="m136.25 260.05v.309h69.27v-.309z"/></g><use fill="url(#c)" xlink:href="#r" transform="matrix(1.14813 0 0 1.16336-1018.09 816.91)"/><use fill="#bf0000" xlink:href="#r" transform="matrix(1.0101 0 0 1.02355-872.47 750.03)"/><use xlink:href="#s" transform="matrix(.81053 0 0 .71075-661.81 598.86)"/><use xlink:href="#s" transform="matrix(.76318 0 0 .66926-611.85 578.68)"/><use fill="url(#c)" xlink:href="#r" transform="matrix(1.14813 0 0 1.16336-1031.56 816.91)"/><use fill="url(#e)" xlink:href="#r" transform="matrix(1.0101 0 0 1.02355-885.94 750.03)"/><use xlink:href="#s" transform="matrix(.81053 0 0 .71075-675.28 598.86)"/><use xlink:href="#s" transform="matrix(.76318 0 0 .66926-625.32 578.68)"/><use fill="url(#c)" xlink:href="#r" transform="matrix(1.14813 0 0 1.16336-1045.69 816.91)"/><use fill="url(#e)" xlink:href="#r" transform="matrix(1.0101 0 0 1.02355-900.07 750.03)"/><use xlink:href="#s" transform="matrix(.81053 0 0 .71075-689.41 598.86)"/><use xlink:href="#s" transform="matrix(.76318 0 0 .66926-639.45 578.68)"/><g fill-rule="evenodd"><path fill="url(#k)" d="m117.9 259.74v.309h-35.525v-.309z"/><path fill="url(#l)" d="m117.9 260.05v.309h-35.525v-.309z"/></g><use fill="url(#c)" xlink:href="#r" transform="matrix(1.14813 0 0 1.16336-1120.18 816.91)"/><use fill="url(#e)" xlink:href="#r" transform="matrix(1.0101 0 0 1.02355-974.56 750.03)"/><use xlink:href="#s" transform="matrix(.81053 0 0 .71075-763.9 598.86)"/><use xlink:href="#s" transform="matrix(.76318 0 0 .66926-713.94 578.68)"/><path fill="#fff" fill-opacity=".757" d="m156.05 264.42v-2.795"/><g fill="#121415"><rect x="-332.88" y="-114.65" rx=".509" ry=".073" width="3.801" height="14" transform="matrix(0-1-1 0 0 0)"/><rect x="99.84" y="272.88" rx=".509" ry=".306" width="3.801" height="60"/><rect x="-292.79" y="-114.76" rx=".509" ry=".073" width="3.801" height="14" transform="matrix(0-1-1 0 0 0)"/></g><g opacity=".82" transform="matrix(7.99998 0 0 7.99998 98.63 240.06)"><use xlink:href="#t"/><use xlink:href="#u"/><use xlink:href="#v"/><use xlink:href="#w"/><use xlink:href="#x"/><use opacity=".758" xlink:href="#y"/></g><g opacity=".82" transform="matrix(7.99998 0 0 7.99998 98.63 280.06)"><use xlink:href="#t"/><use xlink:href="#u"/><use xlink:href="#v"/><use xlink:href="#w"/><use xlink:href="#x"/><use opacity=".734" xlink:href="#y"/></g><path opacity=".146" fill="url(#n)" d="m115.07 300.06h22.558v3h-22.558z"/><path opacity=".146" fill="url(#m)" d="m115.07 340.06h22.558v3h-22.558z"/></g></svg>